<svg xmlns="http://www.w3.org/2000/svg" viewBox="0 0 210 210" id="el_FHnmvn-7d"><style>@-webkit-keyframes kf_el_pZW1pepbRz_an_uhoaNSa0e{0%{-webkit-transform: translate(105px, 105px) scale(0.7, 0.7) translate(-105px, -105px);transform: translate(105px, 105px) scale(0.7, 0.7) translate(-105px, -105px);}50%{-webkit-transform: translate(105px, 105px) scale(1.45, 1.45) translate(-105px, -105px);transform: translate(105px, 105px) scale(1.45, 1.45) translate(-105px, -105px);}100%{-webkit-transform: translate(105px, 105px) scale(1.45, 1.45) translate(-105px, -105px);transform: translate(105px, 105px) scale(1.45, 1.45) translate(-105px, -105px);}}@keyframes kf_el_pZW1pepbRz_an_uhoaNSa0e{0%{-webkit-transform: translate(105px, 105px) scale(0.7, 0.7) translate(-105px, -105px);transform: translate(105px, 105px) scale(0.7, 0.7) translate(-105px, -105px);}50%{-webkit-transform: translate(105px, 105px) scale(1.45, 1.45) translate(-105px, -105px);transform: translate(105px, 105px) scale(1.45, 1.45) translate(-105px, -105px);}100%{-webkit-transform: translate(105px, 105px) scale(1.45, 1.45) translate(-105px, -105px);transform: translate(105px, 105px) scale(1.45, 1.45) translate(-105px, -105px);}}@-webkit-keyframes kf_el_pZW1pepbRz_an_5hBuCWIt5{0%{opacity: 1;}50%{opacity: 0;}100%{opacity: 0;}}@keyframes kf_el_pZW1pepbRz_an_5hBuCWIt5{0%{opacity: 1;}50%{opacity: 0;}100%{opacity: 0;}}@-webkit-keyframes kf_el_yPiXnh-flj_an_zRDFQRmwMB{33.33%{-webkit-transform: translate(105px, 105px) scale(0.7, 0.7) translate(-105px, -105px);transform: translate(105px, 105px) scale(0.7, 0.7) translate(-105px, -105px);}83.33%{-webkit-transform: translate(105px, 105px) scale(1.45, 1.45) translate(-105px, -105px);transform: translate(105px, 105px) scale(1.45, 1.45) translate(-105px, -105px);}0%{-webkit-transform: translate(105px, 105px) scale(0.7, 0.7) translate(-105px, -105px);transform: translate(105px, 105px) scale(0.7, 0.7) translate(-105px, -105px);}100%{-webkit-transform: translate(105px, 105px) scale(1.45, 1.45) translate(-105px, -105px);transform: translate(105px, 105px) scale(1.45, 1.45) translate(-105px, -105px);}}@keyframes kf_el_yPiXnh-flj_an_zRDFQRmwMB{33.33%{-webkit-transform: translate(105px, 105px) scale(0.7, 0.7) translate(-105px, -105px);transform: translate(105px, 105px) scale(0.7, 0.7) translate(-105px, -105px);}83.33%{-webkit-transform: translate(105px, 105px) scale(1.45, 1.45) translate(-105px, -105px);transform: translate(105px, 105px) scale(1.45, 1.45) translate(-105px, -105px);}0%{-webkit-transform: translate(105px, 105px) scale(0.7, 0.7) translate(-105px, -105px);transform: translate(105px, 105px) scale(0.7, 0.7) translate(-105px, -105px);}100%{-webkit-transform: translate(105px, 105px) scale(1.45, 1.45) translate(-105px, -105px);transform: translate(105px, 105px) scale(1.45, 1.45) translate(-105px, -105px);}}@-webkit-keyframes kf_el_yPiXnh-flj_an_GBnSs0qrr{33.33%{opacity: 1;}83.33%{opacity: 0;}0%{opacity: 1;}100%{opacity: 0;}}@keyframes kf_el_yPiXnh-flj_an_GBnSs0qrr{33.33%{opacity: 1;}83.33%{opacity: 0;}0%{opacity: 1;}100%{opacity: 0;}}#el_FHnmvn-7d *{-webkit-animation-duration: 1s;animation-duration: 1s;-webkit-animation-iteration-count: infinite;animation-iteration-count: infinite;-webkit-animation-timing-function: cubic-bezier(0, 0, 1, 1);animation-timing-function: cubic-bezier(0, 0, 1, 1);}#el_jtMqml8C8c{fill: none;}#el_nioUHSk3UV{fill: #0072BB;visibility: hidden;}#el_yPiXnh-flj{fill: #FFF;-webkit-animation-fill-mode: backwards;animation-fill-mode: backwards;opacity: 1;-webkit-animation-name: kf_el_yPiXnh-flj_an_GBnSs0qrr;animation-name: kf_el_yPiXnh-flj_an_GBnSs0qrr;-webkit-animation-timing-function: cubic-bezier(0, 0, 0.58, 1);animation-timing-function: cubic-bezier(0, 0, 0.58, 1);}#el_pZW1pepbRz{fill: #FFF;-webkit-animation-fill-mode: backwards;animation-fill-mode: backwards;opacity: 1;-webkit-animation-name: kf_el_pZW1pepbRz_an_5hBuCWIt5;animation-name: kf_el_pZW1pepbRz_an_5hBuCWIt5;-webkit-animation-timing-function: cubic-bezier(0, 0, 0.58, 1);animation-timing-function: cubic-bezier(0, 0, 0.58, 1);}#el_drn1Yd_-4j{-webkit-transform: translate(50px, 50px);transform: translate(50px, 50px);}#el_SOG66UOX5Q{fill: #0072BB;}#el_sCE18sGouz{fill: #FFF;}#el_U3j6Te7mM_{fill: #FFF;opacity: .2;}#el_yPiXnh-flj_an_zRDFQRmwMB{-webkit-animation-fill-mode: backwards;animation-fill-mode: backwards;-webkit-transform: translate(105px, 105px) scale(0.7, 0.7) translate(-105px, -105px);transform: translate(105px, 105px) scale(0.7, 0.7) translate(-105px, -105px);-webkit-animation-name: kf_el_yPiXnh-flj_an_zRDFQRmwMB;animation-name: kf_el_yPiXnh-flj_an_zRDFQRmwMB;-webkit-animation-timing-function: cubic-bezier(0, 0, 0.58, 1);animation-timing-function: cubic-bezier(0, 0, 0.58, 1);}#el_pZW1pepbRz_an_uhoaNSa0e{-webkit-animation-fill-mode: backwards;animation-fill-mode: backwards;-webkit-transform: translate(105px, 105px) scale(0.7, 0.7) translate(-105px, -105px);transform: translate(105px, 105px) scale(0.7, 0.7) translate(-105px, -105px);-webkit-animation-name: kf_el_pZW1pepbRz_an_uhoaNSa0e;animation-name: kf_el_pZW1pepbRz_an_uhoaNSa0e;-webkit-animation-timing-function: cubic-bezier(0, 0, 0.58, 1);animation-timing-function: cubic-bezier(0, 0, 0.58, 1);}</style><g fill-rule="evenodd" id="el_jtMqml8C8c"><g id="el_yPiXnh-flj_an_zRDFQRmwMB" data-animator-group="true" data-animator-type="2"><path fill-rule="nonzero" d="M105 35c38.66 0 70 31.34 70 70s-31.34 70-70 70-70-31.34-70-70 31.34-70 70-70" id="el_yPiXnh-flj"/></g><g id="el_pZW1pepbRz_an_uhoaNSa0e" data-animator-group="true" data-animator-type="2"><path fill-rule="nonzero" d="M105 35c38.66 0 70 31.34 70 70s-31.34 70-70 70-70-31.34-70-70 31.34-70 70-70" id="el_pZW1pepbRz"/></g><g id="el_drn1Yd_-4j"><rect width="104" height="104" x="3" y="3" fill-rule="nonzero" rx="52" id="el_SOG66UOX5Q"/><path d="M55 0c30.376 0 55 24.624 55 55s-24.624 55-55 55S0 85.376 0 55 24.624 0 55 0zm5.778 55.024v.928c0 4.222-.681 6.647-5.496 6.647-4.121 0-4.916-2.343-5.015-5.752l-.013.027V40.528h-8.636v10.329H31.69V40.528H23v28.555h8.69V57.17h9.927v11.913h8.649-.004c1.483.358 3.105.541 4.85.541 4.458 0 8.125-1.266 10.596-3.633.032-.03.068-.057.096-.089-.03.03-.064.059-.096.09 2.81 2.3 6.668 3.612 11.185 3.612 2.632 0 5.468-.418 7.979-1.255.445-.167 1.133-.418 2.43-.961V54.635h-7.736v8.07c-.648.167-1.297.209-2.066.209-4.9 0-8.585-3.22-8.585-7.861v.605-.605c0-4.976 4.05-8.362 9.72-8.362 2.389 0 4.698.46 6.762 1.296l2.066-6.147C85.398 40.962 82.078 40 78.07 40c-3.45 0-6.556.715-9.153 2.012v-1.484h-8.138v14.495zm-.003.113c0 .04.003.078.003.118v-.231c0 .038-.003.074-.003.113z" id="el_sCE18sGouz"/><path fill-rule="nonzero" d="M50.238 56.847a30.48 30.48 0 0 1-.012-.895V40.528h-8.628v10.329h-.012v5.22c0 4.223.51 8.613 4.128 11.08 1.298.872 2.817 1.515 4.52 1.926h.004V56.847zm18.629-1.189V42.012c-4.986 2.493-8.089 7.14-8.129 13.012v.231c.032 4.494 1.847 8.211 4.926 10.736.032-.03.065-.058.096-.089 2.64-2.592 3.107-6.02 3.107-10.244z" id="el_U3j6Te7mM_"/></g></g></svg>