<?xml version="1.0" standalone="no"?>
<!DOCTYPE svg PUBLIC "-//W3C//DTD SVG 1.1//EN" "http://www.w3.org/Graphics/SVG/1.1/DTD/svg11.dtd" >
<svg xmlns="http://www.w3.org/2000/svg" xmlns:xlink="http://www.w3.org/1999/xlink" version="1.1">
<metadata>
Created by FontForge 20170731 at Fri Jun  6 20:29:53 2014
 By Aleksey,,,
Copyright (c) 2014, Cooper Hewitt Smithsonian Design Museum (cooperhewitt.org)
</metadata>
<defs>
<font id="CooperHewitt-BookItalic" horiz-adv-x="300" >
  <font-face 
    font-family="Cooper Hewitt"
    font-weight="706"
    font-style="italic"
    font-stretch="normal"
    units-per-em="1000"
    panose-1="0 0 0 0 0 0 0 0 0 0"
    ascent="750"
    descent="-250"
    x-height="530"
    cap-height="780"
    bbox="-271 -214 1362 962"
    underline-thickness="20"
    underline-position="-130"
    unicode-range="U+0020-F222"
  />
<missing-glyph horiz-adv-x="968" 
d="M94 0v780h780v-780h-780zM484 345l-279 -279h558zM205 714l279 -279l279 279h-558zM439 390l-275 275v-550zM529 390l275 -275v550z" />
    <glyph glyph-name=".notdef" horiz-adv-x="968" 
d="M94 0v780h780v-780h-780zM484 345l-279 -279h558zM205 714l279 -279l279 279h-558zM439 390l-275 275v-550zM529 390l275 -275v550z" />
    <glyph glyph-name=".null" horiz-adv-x="0" 
 />
    <glyph glyph-name="nonmarkingreturn" horiz-adv-x="333" 
 />
    <glyph glyph-name="space" unicode=" " horiz-adv-x="200" 
 />
    <glyph glyph-name="exclam" unicode="!" horiz-adv-x="217" 
d="M119 780h85l-96 -591h-47zM116 90l-12 -90h-90l12 90h90z" />
    <glyph glyph-name="quotedbl" unicode="&#x22;" horiz-adv-x="338" 
d="M122 780h79l-50 -269h-50zM243 780h79l-50 -269h-50z" />
    <glyph glyph-name="numbersign" unicode="#" horiz-adv-x="600" 
d="M232 0l83 235h-138l-83 -235h-68l83 235h-94l8 66h110l63 178h-92l9 66h106l84 235h68l-84 -235h138l84 235h68l-84 -235h95l-8 -66h-110l-63 -178h92l-9 -66h-107l-83 -235h-68zM264 479l-63 -178h138l63 178h-138z" />
    <glyph glyph-name="dollar" unicode="$" horiz-adv-x="600" 
d="M496 840l-48 -129q60 -21 85.5 -75.5t14.5 -126.5l-2 -13h-70q17 116 -50 154l-85 -228q197 -32 178 -181l-1 -8q-10 -85 -76 -132.5t-168 -47.5q-44 0 -68 4l-43 -117h-61l49 133q-59 25 -86 75.5t-17 112.5l2 13h69q-8 -56 4 -87t51 -51l87 236q-185 30 -167 173l1 8
q11 85 78.5 129.5t172.5 44.5q24 0 45 -3l43 116h62zM271 115h6q70 0 116 31t53 88l1 8q6 52 -25.5 78.5t-102.5 41.5l-90 -243q19 -4 42 -4zM166 553l-1 -8q-6 -47 22 -75t96 -39l86 232q-12 2 -29 2h-4q-67 0 -115 -30t-55 -82z" />
    <glyph glyph-name="percent" unicode="%" horiz-adv-x="921" 
d="M580 170l-1 -9q-6 -52 18.5 -82.5t75.5 -30.5h8q103 0 116 113l1 9q6 52 -18.5 82.5t-75.5 30.5h-8q-103 0 -116 -113zM519 163l1 9q8 77 56.5 123.5t123.5 46.5q79 0 123 -46.5t35 -127.5l-1 -9q-8 -77 -56.5 -123.5t-123.5 -46.5q-79 0 -123 46.5t-35 127.5zM129 619
l-1 -9q-6 -52 18.5 -82.5t75.5 -30.5h8q103 0 116 113l1 9q6 52 -18.5 82.5t-75.5 30.5h-8q-103 0 -116 -113zM249 791q43 0 76 -14q67 -28 172 -28q50 0 110 11t84 21l-7 -49l-400 -732h-68l385 703q-38 -15 -111 -15q-37 0 -94 11q17 -29 11 -82l-1 -9
q-8 -77 -56.5 -123.5t-123.5 -46.5q-79 0 -123 46.5t-35 127.5l1 9q8 77 56.5 123.5t123.5 46.5z" />
    <glyph glyph-name="ampersand" unicode="&#x26;" horiz-adv-x="661" 
d="M231 -11q-108 0 -166.5 57t-45.5 157l2 15q10 72 49.5 119.5t106.5 86.5q-45 57 -64.5 102.5t-13.5 91.5l2 15q10 72 58 115t137 43q93 0 140 -46t38 -117l-2 -15q-3 -24 -11 -44.5t-25.5 -40t-29.5 -32t-41 -32t-40.5 -26.5t-46.5 -28l178 -224q58 93 70 200l1 9h74
q-20 -161 -102 -266l102 -129h-91l-61 75q-86 -86 -218 -86zM227 54h8q103 0 173 75l-191 243q-53 -33 -84.5 -68t-38.5 -88l-2 -15q-9 -70 24.5 -108.5t110.5 -38.5zM174 631l-2 -15q-5 -37 12 -73t54 -81q6 4 31.5 19t33 20t27.5 18.5t27 21.5t18.5 21t16.5 26t7 27l2 15
q5 42 -21.5 69.5t-79.5 27.5h-8q-105 0 -118 -96z" />
    <glyph glyph-name="quotesingle" unicode="'" horiz-adv-x="217" 
d="M122 780h79l-50 -269h-50z" />
    <glyph glyph-name="parenleft" unicode="(" horiz-adv-x="317" 
d="M47 348l3 24q20 161 76 269t145 199h75q-92 -95 -148.5 -204.5t-75.5 -263.5l-3 -24q-29 -226 101 -468h-75q-58 114 -86.5 223t-11.5 245z" />
    <glyph glyph-name="parenright" unicode=")" horiz-adv-x="317" 
d="M266 372l-3 -24q-20 -161 -76 -269t-145 -199h-75q92 95 148.5 204.5t75.5 263.5l3 24q29 226 -101 468h75q58 -114 86.5 -223t11.5 -245z" />
    <glyph glyph-name="asterisk" unicode="*" horiz-adv-x="389" 
d="M224 800h53l-25 -146h-42zM46 648l23 50l131 -50l-18 -40zM117 451l-38 31l104 114l31 -24zM404 698l10 -50l-146 -40l-8 40zM338 482l-46 -31l-66 121l37 24z" />
    <glyph glyph-name="plus" unicode="+" horiz-adv-x="600" 
d="M301 642h67l-29 -219h219l-9 -66h-219l-29 -219h-67l29 219h-219l9 66h219z" />
    <glyph glyph-name="comma" unicode="," horiz-adv-x="217" 
d="M116 90l-10 -75q-18 -134 -130 -134l6 43q31 0 49.5 17.5t27.5 58.5h-45l12 90h90z" />
    <glyph glyph-name="hyphen" unicode="-" horiz-adv-x="329" 
d="M280 318h-248l9 64h248z" />
    <glyph glyph-name="period" unicode="." horiz-adv-x="217" 
d="M116 90l-12 -90h-90l12 90h90z" />
    <glyph glyph-name="slash" unicode="/" horiz-adv-x="330" 
d="M377 840l-356 -960h-71l356 960h71z" />
    <glyph glyph-name="zero" unicode="0" horiz-adv-x="600" 
d="M343 791q124 0 179 -60.5t40 -172.5l-44 -336q-16 -117 -76 -175t-181 -58q-124 0 -179 60.5t-40 172.5l44 336q16 117 76 175t181 58zM260 53h6q87 0 128.5 45t54.5 139l41 312q12 92 -22 135t-124 43h-6q-87 0 -128.5 -45t-54.5 -139l-41 -312q-12 -92 22 -135t124 -43
z" />
    <glyph glyph-name="one" unicode="1" horiz-adv-x="600" 
d="M500 0h-478l8 66h204l81 621l-199 -124l-29 55l267 166h45l-94 -718h204z" />
    <glyph glyph-name="two" unicode="2" horiz-adv-x="600" 
d="M201 66h303l-9 -66h-488l6 49l383 354q50 47 72.5 81t28.5 78l1 8q9 71 -34.5 114t-120.5 43h-7q-85 0 -130.5 -49.5t-59.5 -157.5h-71l3 22q16 121 79 185t185 64q117 0 178.5 -60t50.5 -154l-1 -8q-8 -66 -31.5 -104.5t-83.5 -95.5l-330 -304z" />
    <glyph glyph-name="three" unicode="3" horiz-adv-x="600" 
d="M105 250q-17 -98 26 -147.5t131 -49.5h6q72 0 124 39.5t61 113.5l1 8q10 74 -29 113t-113 39h-114l9 64h109q76 0 124 34t57 105l1 8q9 69 -35 109.5t-120 40.5h-7q-85 0 -130.5 -49.5t-59.5 -157.5h-71l3 22q16 121 79.5 185t184.5 64q118 0 179 -59t50 -153l-1 -8
q-9 -68 -50 -113t-102 -61q58 -16 88 -65.5t21 -121.5l-1 -8q-11 -93 -83.5 -153t-176.5 -60q-130 0 -190 67t-44 180l2 14h71z" />
    <glyph glyph-name="four" unicode="4" horiz-adv-x="600" 
d="M389 0h-71l27 207h-334l6 48l405 525h69l-67 -507h130l-10 -66h-128zM405 661l-300 -389l86 1h162l38 286z" />
    <glyph glyph-name="five" unicode="5" horiz-adv-x="600" 
d="M34 250h71q-17 -98 26 -147.5t131 -49.5h6q75 0 127.5 45.5t63.5 135.5l1 8q11 90 -34 139t-122 49h-9q-129 0 -184 -102l-58 19l76 433h463l-8 -66h-401l-50 -286q25 30 73 48t105 18q110 0 173 -67.5t48 -184.5l-1 -8q-15 -118 -86.5 -181.5t-178.5 -63.5
q-130 0 -190 67t-44 180z" />
    <glyph glyph-name="six" unicode="6" horiz-adv-x="600" 
d="M572 791l-9 -66q-93 -10 -167 -37t-142 -91q-84 -78 -115 -189q28 35 79.5 58.5t101.5 23.5q112 0 171.5 -63.5t44.5 -183.5l-1 -8q-15 -120 -86 -183t-180 -63q-119 0 -182.5 77.5t-45.5 208.5l2 14q31 223 159 351q80 80 169.5 112t200.5 39zM312 425h-5
q-117 0 -186 -106q-5 -21 -9 -53q-13 -106 31.5 -158.5t123.5 -52.5h6q80 0 129.5 46.5t59.5 131.5l1 8q10 86 -31.5 135t-119.5 49z" />
    <glyph glyph-name="seven" unicode="7" horiz-adv-x="600" 
d="M74 500l37 280h492l-5 -44l-396 -736h-78l388 716l-112 -2h-232l-29 -214h-65z" />
    <glyph glyph-name="eight" unicode="8" horiz-adv-x="600" 
d="M262 -11q-114 0 -179 59.5t-53 155.5l1 8q18 144 157 187q-50 13 -82 62.5t-24 115.5l1 8q12 95 77 150.5t180 55.5q118 0 180 -59.5t51 -152.5l-1 -8q-9 -68 -50 -113t-102 -61q59 -17 88.5 -66t20.5 -121l-1 -8q-11 -94 -84 -153.5t-180 -59.5zM311 366h-22
q-76 0 -126 -39t-59 -112l-1 -8q-9 -74 36.5 -114t122.5 -40h6q79 0 127 38.5t58 114.5l1 8q9 74 -30 113t-113 39zM343 727h-7q-77 0 -124.5 -37.5t-56.5 -108.5l-1 -8q-9 -67 31.5 -105t110.5 -38h20q76 0 124 34t57 105l1 8q9 68 -35 109t-120 41z" />
    <glyph glyph-name="nine" unicode="9" horiz-adv-x="600" 
d="M32 -11l9 66q93 10 167 37t142 91q84 78 115 189q-28 -35 -79.5 -58.5t-101.5 -23.5q-112 0 -171.5 63.5t-44.5 183.5l1 8q15 120 86 183t180 63q119 0 182.5 -77.5t45.5 -208.5l-2 -14q-31 -223 -159 -351q-80 -80 -169.5 -112t-200.5 -39zM292 355h5q117 0 186 106
q5 21 9 53q13 106 -31.5 158.5t-123.5 52.5h-6q-80 0 -129.5 -46.5t-59.5 -131.5l-1 -8q-10 -86 31.5 -135t119.5 -49z" />
    <glyph glyph-name="colon" unicode=":" horiz-adv-x="217" 
d="M116 90l-12 -90h-90l12 90h90zM161 435l-12 -90h-90l12 90h90z" />
    <glyph glyph-name="semicolon" unicode=";" horiz-adv-x="217" 
d="M116 90l-10 -75q-18 -134 -130 -134l6 43q31 0 49.5 17.5t27.5 58.5h-45l12 90h90zM161 435l-12 -90h-90l12 90h90z" />
    <glyph glyph-name="less" unicode="&#x3c;" horiz-adv-x="600" 
d="M53 425l536 235l-10 -75l-457 -198l405 -199l-9 -68l-474 235z" />
    <glyph glyph-name="equal" unicode="=" horiz-adv-x="600" 
d="M59 459l9 66h505l-9 -66h-505zM29 255l9 66h505l-9 -66h-505z" />
    <glyph glyph-name="greater" unicode="&#x3e;" horiz-adv-x="600" 
d="M548 355l-536 -235l10 75l457 198l-405 199l9 68l474 -235z" />
    <glyph glyph-name="question" unicode="?" horiz-adv-x="455" 
d="M273 726q-74 0 -109.5 -55.5t-49.5 -166.5h-71l2 14q19 138 70 205.5t160 67.5q182 0 182 -173q0 -62 -20.5 -109t-51 -79t-62.5 -62.5t-59.5 -75.5t-37.5 -103h-47q5 59 27.5 108t51.5 82.5t57.5 66.5t48 75t19.5 92q0 57 -26 85t-84 28zM234 90l-12 -90h-90l12 90h90z
" />
    <glyph glyph-name="at" unicode="@" horiz-adv-x="961" 
d="M435 -156h10q90 0 180.5 29t153.5 77l31 -43q-72 -60 -173 -89t-197 -29q-219 0 -334 128t-87 353l5 40q28 224 170.5 352.5t350.5 128.5q188 0 298 -101t86 -296l-5 -40q-11 -88 -38 -147.5t-68.5 -90.5t-88.5 -43.5t-110 -12.5h-46l-1 72q-61 -83 -160 -83
q-102 0 -143 67.5t-27 168.5l3 22q14 101 72 167.5t158 66.5q53 0 89 -23.5t53 -60.5l18 73h54l-25 -150l-35 -266q52 1 87 10t68 33.5t53.5 73t29.5 123.5l5 40q11 90 -10.5 158t-68.5 107t-108 58t-135 19h-10q-183 0 -309 -113.5t-150 -312.5l-5 -40
q-26 -203 73.5 -314.5t285.5 -111.5zM601 401q-40 80 -128 80q-67 0 -108 -47.5t-51 -124.5l-3 -22q-11 -80 16.5 -129t93.5 -49q91 0 152 80z" />
    <glyph glyph-name="A" unicode="A" horiz-adv-x="611" 
d="M309 788h102l122 -788h-76l-30 200h-286l-82 -200h-79zM351 709l-183 -444h249z" />
    <glyph glyph-name="B" unicode="B" horiz-adv-x="586" 
d="M127 780h204q104 0 161 -49t44 -151l-2 -16q-8 -64 -46 -107t-93 -56q56 -10 89.5 -60.5t24.5 -122.5l-2 -16q-26 -202 -263 -202h-219zM300 368h-155l-40 -303h147q163 0 181 139l2 16q9 73 -29.5 110.5t-105.5 37.5zM326 715h-135l-37 -282h134q156 0 172 133l2 16
q9 69 -28.5 101t-107.5 32z" />
    <glyph glyph-name="C" unicode="C" horiz-adv-x="618" 
d="M135 410l-5 -40q-21 -166 14.5 -241t134.5 -75h7q166 0 192 200h74l-2 -14q-18 -125 -83.5 -188t-187.5 -63q-137 0 -192.5 91t-30.5 290l5 40q25 200 100.5 290.5t211.5 90.5q251 0 215 -266l-4 -29h-74q16 121 -16 175.5t-120 54.5h-7q-98 0 -154.5 -75.5t-77.5 -240.5
z" />
    <glyph glyph-name="D" unicode="D" horiz-adv-x="639" 
d="M586 410l-5 -40q-46 -370 -352 -370h-204l102 780h197q149 0 218 -87.5t44 -282.5zM105 65h126q238 0 276 305l5 40q20 161 -30.5 233t-164.5 72h-126z" />
    <glyph glyph-name="E" unicode="E" horiz-adv-x="549" 
d="M127 780h435l-8 -65h-364l-37 -285h313l-9 -64h-313l-39 -301h363l-8 -65h-435z" />
    <glyph glyph-name="F" unicode="F" horiz-adv-x="513" 
d="M127 780h419l-8 -65h-348l-37 -285h296l-9 -64h-296l-47 -366h-72z" />
    <glyph glyph-name="G" unicode="G" horiz-adv-x="648" 
d="M293 -11q-285 0 -237 381l5 40q25 199 102.5 290t214.5 91q125 0 181.5 -67.5t38.5 -198.5l-4 -29h-74q16 120 -18.5 175t-122.5 55h-7q-99 0 -157.5 -76t-79.5 -240l-5 -40q-40 -316 165 -316h7q106 0 170 60l27 206h-134l8 64h206l-40 -305q-98 -90 -246 -90z" />
    <glyph glyph-name="H" unicode="H" horiz-adv-x="639" 
d="M546 780h72l-102 -780h-72l48 366h-347l-48 -366h-72l102 780h72l-46 -350h347z" />
    <glyph glyph-name="I" unicode="I" horiz-adv-x="230" 
d="M204 780l-102 -780h-72l102 780h72z" />
    <glyph glyph-name="J" unicode="J" horiz-adv-x="495" 
d="M407 780h72l-71 -540q-16 -126 -68 -188.5t-153 -62.5q-212 0 -176 251l2 14h68q-16 -107 9 -153.5t95 -46.5q69 0 104 45.5t49 152.5z" />
    <glyph glyph-name="K" unicode="K" horiz-adv-x="562" 
d="M199 780l-56 -423l349 423h89l-276 -329l174 -451h-80l-147 387l-124 -147l-31 -240h-72l102 780h72z" />
    <glyph glyph-name="L" unicode="L" horiz-adv-x="491" 
d="M427 0h-402l102 780h72l-94 -715h330z" />
    <glyph glyph-name="M" unicode="M" horiz-adv-x="803" 
d="M698 655l-313 -655h-65l-141 655l-20 -174l-62 -481h-72l102 780h99l140 -656l314 656h103l-102 -780h-72l62 481z" />
    <glyph glyph-name="N" unicode="N" horiz-adv-x="659" 
d="M638 780l-102 -780h-76l-282 658l-21 -183l-62 -475h-70l102 780h76l282 -658l21 183l62 475h70z" />
    <glyph glyph-name="O" unicode="O" horiz-adv-x="649" 
d="M372 791q136 0 192.5 -91t31.5 -290l-5 -40q-25 -200 -100.5 -290.5t-210.5 -90.5q-136 0 -192.5 91t-31.5 290l5 40q25 200 100.5 290.5t210.5 90.5zM278 54h7q99 0 155 75.5t77 240.5l5 40q21 166 -14.5 241t-133.5 75h-7q-99 0 -155 -75.5t-77 -240.5l-5 -40
q-21 -166 14.5 -241t133.5 -75z" />
    <glyph glyph-name="P" unicode="P" horiz-adv-x="573" 
d="M138 317l-41 -317h-72l102 780h214q46 0 84.5 -10.5t72.5 -34.5t49.5 -70.5t5.5 -110.5l-3 -20q-33 -217 -265 -217h-147zM147 382h149q160 0 181 156l2 15q6 48 -5 81.5t-35.5 50t-49.5 23.5t-54 7h-145z" />
    <glyph glyph-name="Q" unicode="Q" horiz-adv-x="649" 
d="M372 791q136 0 192.5 -91t31.5 -290l-5 -40q-20 -157 -69.5 -245t-133.5 -119l28 -106h-66l-22 92q-24 -3 -48 -3q-136 0 -192.5 91t-31.5 290l5 40q25 200 100.5 290.5t210.5 90.5zM278 54h7q18 0 27 1l-41 171h62l39 -154q114 53 145 298l5 40q21 166 -14.5 241
t-133.5 75h-7q-99 0 -155 -75.5t-77 -240.5l-5 -40q-21 -166 14.5 -241t133.5 -75z" />
    <glyph glyph-name="R" unicode="R" horiz-adv-x="584" 
d="M138 317l-41 -317h-72l102 780h214q46 0 84.5 -10.5t72.5 -34.5t49.5 -70.5t5.5 -110.5l-3 -20q-25 -162 -162 -203l92 -331h-79l-83 318q-11 -1 -33 -1h-147zM147 382h149q160 0 181 156l2 15q6 48 -5 81.5t-35.5 50t-49.5 23.5t-54 7h-145z" />
    <glyph glyph-name="S" unicode="S" horiz-adv-x="601" 
d="M286 371q-231 41 -205 214l3 20q29 186 258 186q262 0 224 -261l-2 -14h-72q31 210 -149 210h-10q-74 0 -121 -31t-55 -92l-2 -15q-9 -64 29.5 -102t139.5 -56q237 -43 210 -222l-3 -20q-15 -100 -86 -149.5t-189 -49.5q-124 0 -184.5 66t-43.5 185l2 14h72
q-19 -102 24 -151t128 -49h10q82 0 133.5 34t60.5 102l2 15q9 68 -33 108.5t-141 57.5z" />
    <glyph glyph-name="T" unicode="T" horiz-adv-x="515" 
d="M338 715l-94 -715h-72l94 715h-198l8 65h469l-8 -65h-199z" />
    <glyph glyph-name="U" unicode="U" horiz-adv-x="639" 
d="M272 -11q-129 0 -184 58.5t-37 194.5l71 538h72l-70 -533q-14 -107 21.5 -150t128.5 -43t143 44t64 149l70 533h72l-71 -538q-18 -136 -85.5 -194.5t-194.5 -58.5z" />
    <glyph glyph-name="V" unicode="V" horiz-adv-x="611" 
d="M306 -8h-103l-121 788h76l106 -709l292 709h79z" />
    <glyph glyph-name="W" unicode="W" horiz-adv-x="895" 
d="M560 -8l-69 714l-256 -714h-98l-43 788h74l30 -699l252 699h97l69 -699l213 699h78l-248 -788h-99z" />
    <glyph glyph-name="X" unicode="X" horiz-adv-x="613" 
d="M-18 0l281 392l-180 388h82l150 -328l234 328h86l-281 -391l180 -389h-82l-149 328l-235 -328h-86z" />
    <glyph glyph-name="Y" unicode="Y" horiz-adv-x="577" 
d="M307 236l-31 -236h-72l31 236l-161 544h75l132 -456l248 456h81z" />
    <glyph glyph-name="Z" unicode="Z" horiz-adv-x="563" 
d="M-4 50l475 668l-126 -3h-251l8 65h463l-6 -50l-475 -668l126 3h271l-8 -65h-483z" />
    <glyph glyph-name="bracketleft" unicode="[" horiz-adv-x="317" 
d="M128 840h208l-8 -65h-138l-109 -830h137l-8 -65h-208z" />
    <glyph glyph-name="backslash" unicode="\" horiz-adv-x="329" 
d="M181 -120l-104 960h68l104 -960h-68z" />
    <glyph glyph-name="bracketright" unicode="]" horiz-adv-x="317" 
d="M185 -120h-208l8 65h138l109 830h-137l8 65h208z" />
    <glyph glyph-name="asciicircum" unicode="^" horiz-adv-x="600" 
d="M388 780l169 -504h-69l-143 425l-254 -425h-75l302 504h70z" />
    <glyph glyph-name="underscore" unicode="_" horiz-adv-x="320" 
d="M-19 -135l9 64h224l-9 -64h-224z" />
    <glyph glyph-name="grave" unicode="`" horiz-adv-x="500" 
d="M173 780h76l68 -166h-72z" />
    <glyph glyph-name="a" unicode="a" horiz-adv-x="512" 
d="M347 0v74q-72 -85 -189 -85q-75 0 -114 40.5t-31 105.5l2 16q10 77 57 108.5t136 45.5l164 26l3 22q9 66 -15 97.5t-94 31.5q-69 0 -99 -34t-38 -93h-67l2 13q26 173 204 173q109 0 149 -51.5t27 -145.5l-26 -194l-13 -150h-58zM174 50q110 0 173 86l18 140l-156 -25
q-110 -17 -122 -96l-2 -14q-6 -38 17.5 -64.5t71.5 -26.5z" />
    <glyph glyph-name="b" unicode="b" horiz-adv-x="537" 
d="M192 800l-43 -326q55 67 150 67q105 0 149.5 -73.5t28.5 -192.5l-3 -22q-17 -123 -74.5 -193.5t-159.5 -70.5q-56 0 -95.5 27t-55.5 61l-19 -77h-58l25 150l85 650h70zM105 138q16 -35 47.5 -60.5t78.5 -25.5q144 0 172 199l3 22q13 97 -18.5 151t-105.5 54
q-86 0 -142 -77z" />
    <glyph glyph-name="c" unicode="c" horiz-adv-x="522" 
d="M108 279l-3 -22q-13 -96 19.5 -150.5t109.5 -54.5q126 0 146 132h68l-2 -13q-28 -182 -212 -182q-113 0 -164.5 74.5t-35.5 191.5l3 22q17 122 76.5 193t166.5 71q57 0 98.5 -17.5t62 -46.5t27.5 -61.5t2 -66.5l-2 -13h-67q10 63 -20.5 102.5t-100.5 39.5
q-72 0 -115.5 -52t-56.5 -147z" />
    <glyph glyph-name="d" unicode="d" horiz-adv-x="540" 
d="M212 -11q-105 0 -149.5 73.5t-28.5 192.5l3 22q17 123 74.5 193.5t159.5 70.5q54 0 91.5 -24t53.5 -52l44 335h70l-86 -656l-13 -144h-60v67q-25 -36 -67.5 -57t-91.5 -21zM280 478q-144 0 -172 -199l-3 -22q-13 -97 19 -151t105 -54q86 0 143 76l34 263q-16 35 -47.5 61
t-78.5 26z" />
    <glyph glyph-name="e" unicode="e" horiz-adv-x="544" 
d="M477 236h-374q-19 -184 142 -184q73 0 111 34.5t45 83.5h67l-2 -13q-10 -66 -68 -117t-155 -51q-126 0 -175.5 73.5t-33.5 192.5l3 22q17 120 80.5 192t171.5 72q116 0 162.5 -71.5t30.5 -194.5zM289 478q-72 0 -120 -50.5t-59 -133.5h304q25 184 -125 184z" />
    <glyph glyph-name="f" unicode="f" horiz-adv-x="380" 
d="M221 650l-16 -120h148l-8 -63h-148l-61 -467h-70l61 467h-84l8 63h84l18 134q19 147 175 147q48 0 72 -12l-8 -60q-20 9 -60 9q-49 0 -76.5 -21.5t-34.5 -76.5z" />
    <glyph glyph-name="g" unicode="g" horiz-adv-x="537" 
d="M353 -3l12 97q-55 -67 -151 -67q-106 0 -150 69.5t-29 178.5l3 22q15 114 71.5 179t159.5 65q56 0 96 -27t56 -61l19 77h58l-25 -150l-51 -388q-26 -203 -227 -203q-110 0 -155.5 55t-31.5 143l2 13h65q-24 -148 120 -148q78 0 113.5 35t44.5 110zM375 167l30 225
q-15 34 -46.5 60t-79.5 26q-145 0 -170 -179l-3 -22q-12 -88 19.5 -137.5t106.5 -49.5q85 0 143 77z" />
    <glyph glyph-name="h" unicode="h" horiz-adv-x="528" 
d="M191 800l-44 -335q60 76 167 76q84 0 122.5 -46.5t28.5 -123.5l-49 -371h-70l48 361q16 117 -104 117q-91 0 -152 -83l-52 -395h-70l105 800h70z" />
    <glyph glyph-name="i" unicode="i" horiz-adv-x="216" 
d="M24 0l69 530h70l-69 -530h-70zM202 745l-12 -90h-90l12 90h90z" />
    <glyph glyph-name="j" unicode="j" horiz-adv-x="216" 
d="M18 -49l75 579h70l-77 -593q-20 -148 -174 -148q-48 0 -72 12l8 61q23 -10 60 -10q49 0 76 22t34 77zM202 745l-12 -90h-90l12 90h90z" />
    <glyph glyph-name="k" unicode="k" horiz-adv-x="501" 
d="M16 0l105 800h70l-72 -546l286 276h89l-209 -200l140 -330h-76l-117 280l-126 -122l-20 -158h-70z" />
    <glyph glyph-name="l" unicode="l" horiz-adv-x="216" 
d="M24 0l105 800h70l-105 -800h-70z" />
    <glyph glyph-name="m" unicode="m" horiz-adv-x="805" 
d="M696 0h-70l49 374q14 104 -92 104q-44 0 -81 -24.5t-59 -55.5l-52 -398h-70l49 374q14 104 -92 104q-81 0 -140 -80l-52 -398h-70l51 386l13 144h60v-71q61 82 162 82q114 0 136 -88q68 88 169 88q73 0 111 -40.5t28 -116.5z" />
    <glyph glyph-name="n" unicode="n" horiz-adv-x="528" 
d="M416 0h-70l48 361q16 117 -104 117q-91 0 -152 -83l-52 -395h-70l51 386l13 144h60v-74q62 85 174 85q84 0 122.5 -46.5t28.5 -123.5z" />
    <glyph glyph-name="o" unicode="o" horiz-adv-x="544" 
d="M232 52q73 0 118 52t58 147l3 22q13 97 -19 151t-109 54q-73 0 -117.5 -52t-57.5 -147l-3 -22q-13 -97 18.5 -151t108.5 -54zM232 -11q-114 0 -164 74t-34 192l3 22q17 122 78 193t168 71q114 0 164.5 -74t34.5 -192l-3 -22q-17 -122 -78 -193t-169 -71z" />
    <glyph glyph-name="p" unicode="p" horiz-adv-x="537" 
d="M299 541q105 0 149.5 -73.5t28.5 -192.5l-3 -22q-17 -123 -74.5 -193.5t-159.5 -70.5q-54 0 -91.5 24t-53.5 52l-35 -265h-70l77 586l13 144h60v-67q25 36 67.5 57t91.5 21zM231 52q144 0 172 199l3 22q13 97 -19 151t-105 54q-86 0 -143 -76l-34 -263q16 -35 47.5 -61
t78.5 -26z" />
    <glyph glyph-name="q" unicode="q" horiz-adv-x="539" 
d="M327 -200l34 256q-55 -67 -150 -67q-105 0 -149.5 73.5t-28.5 192.5l3 22q17 123 74.5 193.5t159.5 70.5q56 0 95.5 -27t55.5 -61l19 77h58l-25 -150l-76 -580h-70zM370 129l35 263q-16 35 -47.5 60.5t-78.5 25.5q-144 0 -172 -199l-3 -22q-13 -97 18.5 -151t105.5 -54
q86 0 142 77z" />
    <glyph glyph-name="r" unicode="r" horiz-adv-x="333" 
d="M297 541l14 -1l-8 -69h-14q-96 0 -152 -84l-51 -387h-70l51 386l13 144h60v-69q57 80 157 80z" />
    <glyph glyph-name="s" unicode="s" horiz-adv-x="522" 
d="M222 52q141 0 141 106q0 38 -29.5 56.5t-99.5 28.5q-97 13 -137 50t-32 100l1 8q8 66 61.5 103t142.5 37q108 0 154 -45.5t34 -123.5l-2 -13h-68q8 60 -19 89.5t-99 29.5q-135 0 -135 -100q0 -35 29 -52.5t102 -26.5q92 -11 134 -48.5t33 -107.5l-1 -8q-9 -67 -63 -106.5
t-147 -39.5q-111 0 -158 45t-36 115l2 13h69q-7 -53 20.5 -81.5t102.5 -28.5z" />
    <glyph glyph-name="t" unicode="t" horiz-adv-x="400" 
d="M205 530h168l-8 -63h-168l-41 -312q-8 -59 13.5 -81t65.5 -22q40 0 67 9l-8 -61q-33 -11 -69 -11q-161 0 -140 159l42 319h-84l8 63h84l20 150h70z" />
    <glyph glyph-name="u" unicode="u" horiz-adv-x="528" 
d="M82 530h70l-48 -361q-16 -117 104 -117q91 0 152 83l52 395h70l-51 -386l-13 -144h-60v74q-62 -85 -174 -85q-84 0 -122.5 46.5t-28.5 123.5z" />
    <glyph glyph-name="v" unicode="v" horiz-adv-x="512" 
d="M161 0l-116 530h73l95 -464l218 464h77l-255 -530h-92z" />
    <glyph glyph-name="w" unicode="w" horiz-adv-x="717" 
d="M368 452l-180 -452h-92l-45 530h69l33 -457l182 457h85l63 -457l152 457h71l-183 -530h-93z" />
    <glyph glyph-name="x" unicode="x" horiz-adv-x="485" 
d="M43 530h81l110 -210l163 210h85l-213 -266l144 -264h-81l-110 210l-163 -210h-85l212 267z" />
    <glyph glyph-name="y" unicode="y" horiz-adv-x="484" 
d="M210 96l208 434h78l-257 -510l-104 -220h-81l112 220l-123 510h72z" />
    <glyph glyph-name="z" unicode="z" horiz-adv-x="463" 
d="M-8 48l346 420l-118 -1h-163l8 63h371l-6 -48l-346 -420l118 1h183l-8 -63h-391z" />
    <glyph glyph-name="braceleft" unicode="{" horiz-adv-x="317" 
d="M336 840l-8 -65q-51 0 -76 -22.5t-33 -83.5l-27 -207q-11 -78 -76 -102q59 -26 49 -103l-27 -207q-9 -63 8.5 -84t71.5 -21l-8 -65h-18q-63 0 -100.5 34t-27.5 110l28 215q7 52 -10.5 70t-63.5 18l8 66q46 0 68.5 18t29.5 70l29 221q18 138 165 138h18z" />
    <glyph glyph-name="bar" unicode="|" horiz-adv-x="201" 
d="M1 -120l126 960h70l-126 -960h-70z" />
    <glyph glyph-name="braceright" unicode="}" horiz-adv-x="317" 
d="M-23 -120l8 65q51 0 76 22.5t33 83.5l27 207q11 78 76 102q-59 26 -49 103l27 207q9 63 -8.5 84t-71.5 21l8 65h18q63 0 100.5 -34t27.5 -110l-28 -215q-7 -52 10.5 -70t63.5 -18l-8 -66q-46 0 -68.5 -18t-29.5 -70l-29 -221q-18 -138 -165 -138h-18z" />
    <glyph glyph-name="asciitilde" unicode="~" horiz-adv-x="600" 
d="M180 451q56 0 128 -35.5t114 -35.5q62 0 106 56l38 -40q-53 -76 -144 -76q-56 0 -128 35.5t-114 35.5q-62 0 -106 -56l-38 40q53 76 144 76z" />
    <glyph glyph-name="nbspace" unicode="&#xa0;" horiz-adv-x="200" 
 />
    <glyph glyph-name="exclamdown" unicode="&#xa1;" horiz-adv-x="217" 
d="M75 -200h-85l91 541h46zM72 440l12 90h90l-12 -90h-90z" />
    <glyph glyph-name="cent" unicode="&#xa2;" horiz-adv-x="600" 
d="M496 840l-47 -126q64 -22 90.5 -82.5t13.5 -141.5l-2 -13h-70q19 135 -56 171l-194 -523q17 -5 48 -5h3q152 0 173 162h71l-2 -14q-15 -102 -75.5 -157.5t-168.5 -55.5q-39 0 -72 7l-45 -122h-61l52 142q-121 70 -93 288l5 40q19 156 92.5 236.5t193.5 80.5q27 0 39 -2
l43 115h62zM140 410l-5 -40q-20 -159 45 -218l188 508q-10 1 -14 1h-3q-180 0 -211 -251z" />
    <glyph glyph-name="sterling" unicode="&#xa3;" horiz-adv-x="600" 
d="M366 726q-155 0 -155 -217q0 -35 7 -93h200l-9 -65h-183q1 -8 5 -38t5 -42t4 -38.5t4 -43t2 -39.5t0.5 -43.5t-2.5 -40.5h260l-9 -66h-488l8 66h165q2 36 -0.5 77.5t-6 67t-11 74t-10.5 66.5h-100l9 65h80q-4 48 -4 101q0 126 54.5 200t174.5 74q237 0 202 -262l-4 -29
h-70q35 226 -128 226z" />
    <glyph glyph-name="yen" unicode="&#xa5;" horiz-adv-x="600" 
d="M49 414l9 66h114l-102 300h76l146 -442l261 442h83l-181 -300h115l-9 -66h-144l-83 -134h209l-8 -66h-220l-28 -214h-72l28 214h-220l8 66h208l-47 134h-143z" />
    <glyph glyph-name="brokenbar" unicode="&#xa6;" horiz-adv-x="201" 
d="M69 396l58 444h70l-58 -444h-70zM1 -120l58 444h70l-58 -444h-70z" />
    <glyph glyph-name="section" unicode="&#xa7;" horiz-adv-x="513" 
d="M243 289h11q70 0 110 33t40 86q0 42 -35.5 62.5t-94.5 20.5h-11q-70 0 -110 -33t-40 -86q0 -42 35.5 -62.5t94.5 -20.5zM345 259q34 -12 53 -43.5t13 -78.5l-1 -8q-17 -140 -204 -140q-108 0 -154 45.5t-34 123.5l2 13h68q-8 -60 19 -89.5t99 -29.5q135 0 135 100
q0 35 -29 52.5t-102 26.5q-92 11 -133.5 49.5t-32.5 108.5l1 8q6 48 36 78t91 46q-34 12 -53 43.5t-13 78.5l1 8q17 140 204 140q109 0 154.5 -45.5t33.5 -123.5l-2 -13h-68q8 60 -19 89.5t-99 29.5q-135 0 -135 -100q0 -35 29 -52.5t102 -26.5q92 -11 133.5 -49.5
t32.5 -108.5l-1 -8q-6 -48 -36 -78t-91 -46z" />
    <glyph glyph-name="dieresis" unicode="&#xa8;" horiz-adv-x="500" 
d="M260 745l-12 -90h-90l12 90h90zM427 745l-12 -90h-90l12 90h90z" />
    <glyph glyph-name="copyright" unicode="&#xa9;" horiz-adv-x="920" 
d="M59 390q0 166 117.5 283.5t283.5 117.5t283.5 -117.5t117.5 -283.5t-117.5 -283.5t-283.5 -117.5t-283.5 117.5t-117.5 283.5zM102 390q0 -148 105 -253t253 -105t253 105t105 253t-105 253t-253 105t-253 -105t-105 -253zM461 206q66 0 95.5 32t29.5 73h65v-13
q0 -25 -10 -50t-31 -49.5t-60 -39.5t-90 -15q-71 0 -120 36.5t-68.5 87.5t-19.5 110v24q0 59 19.5 110t68.5 87.5t120 36.5q51 0 90 -16t60 -41t31 -51t10 -52v-17h-65q0 49 -29.5 82t-95.5 33q-72 0 -106.5 -50t-34.5 -122v-24q0 -72 34.5 -122t106.5 -50z" />
    <glyph glyph-name="ordfeminine" unicode="&#xaa;" horiz-adv-x="390" 
d="M300 388v53q-18 -26 -56.5 -44t-80.5 -18q-61 0 -89 32t-20 82l2 13q8 54 43.5 78t102.5 34l116 17l2 13q14 91 -76 91q-47 0 -67.5 -23t-26.5 -64h-61l2 13q19 126 153 126q159 0 138 -151l-19 -141l-10 -111h-53zM180 433q36 0 69 17.5t50 37.5l13 104l-108 -17
q-76 -12 -86 -71l-2 -13q-5 -28 11 -43t53 -15zM330 212h-305l8 57h305z" />
    <glyph glyph-name="guillemotleft" unicode="&#xab;" horiz-adv-x="517" 
d="M273 524l-9 -73l-164 -113l134 -114l-9 -67l-184 153l8 62zM486 524l-9 -73l-164 -113l134 -114l-9 -67l-184 153l8 62z" />
    <glyph glyph-name="logicalnot" unicode="&#xac;" horiz-adv-x="600" 
d="M63 491l9 66h503l-45 -344h-68l37 278h-436z" />
    <glyph glyph-name="uni00AD" unicode="&#xad;" horiz-adv-x="329" 
d="M280 318h-248l9 64h248z" />
    <glyph glyph-name="registered" unicode="&#xae;" horiz-adv-x="330" 
d="M19 665q0 60 43 103t103 43t103 -43t43 -103t-43 -103t-103 -43t-103 43t-43 103zM43 665q0 -50 36 -86t86 -36t86 36t36 86t-36 86t-86 36t-86 -36t-36 -86zM229 693q0 -35 -30 -47l30 -67h-36l-27 63h-30v-63h-35v172h72q25 0 40.5 -13t15.5 -38v-7zM194 698
q0 23 -28 23h-30v-50h30q28 0 28 24v3z" />
    <glyph glyph-name="macron" unicode="&#xaf;" horiz-adv-x="500" 
d="M171 664l9 66h233l-8 -66h-234z" />
    <glyph glyph-name="degree" unicode="&#xb0;" horiz-adv-x="400" 
d="M220 538h8q95 0 105 94l1 9q5 43 -18.5 69.5t-67.5 26.5h-8q-95 0 -105 -94l-1 -9q-5 -43 18.5 -69.5t67.5 -26.5zM244 791q72 0 112 -40t32 -110l-1 -9q-8 -72 -51.5 -110t-111.5 -38q-72 0 -112 40t-32 110l1 9q8 72 51.5 110t111.5 38z" />
    <glyph glyph-name="plusminus" unicode="&#xb1;" horiz-adv-x="600" 
d="M303 649h67l-19 -140h219l-9 -66h-219l-19 -140h-67l19 140h-219l9 66h219zM19 161l9 66h505l-9 -66h-505z" />
    <glyph glyph-name="twosuperior" unicode="&#xb2;" 
d="M284 439l-7 -49h-250l5 40l182 168q38 35 42 66l1 8q4 32 -11.5 48t-45.5 16h-6q-69 0 -77 -86h-56l3 22q16 114 133 114q64 0 93.5 -31.5t23.5 -78.5l-1 -8q-5 -47 -58 -96l-144 -133h173z" />
    <glyph glyph-name="threesuperior" unicode="&#xb3;" 
d="M97 515q-13 -82 57 -82h7q66 0 74 59l1 8q4 31 -11 47.5t-45 16.5h-55l6 50h54q65 0 72 54l1 8q4 30 -12.5 45t-45.5 15h-6q-69 0 -77 -86h-56l3 22q16 114 133 114q63 0 93.5 -30t24.5 -76l-1 -8q-4 -33 -23 -55.5t-46 -27.5q25 -7 38.5 -32t8.5 -58l-1 -8
q-6 -47 -41.5 -77.5t-92.5 -30.5q-134 0 -118 124l1 8h57z" />
    <glyph glyph-name="acute" unicode="&#xb4;" horiz-adv-x="500" 
d="M357 780h76l-116 -166h-72z" />
    <glyph glyph-name="paragraph" unicode="&#xb6;" horiz-adv-x="513" 
d="M57 543l3 20q33 217 265 217h174l-102 -780h-72l94 715h-41l-93 -715h-72l41 317q-40 0 -76.5 11.5t-68.5 36t-46.5 70.5t-5.5 108zM133 559l-2 -15q-12 -86 28 -124t104 -38l43 333q-27 0 -52 -6.5t-51.5 -22.5t-45 -48.5t-24.5 -78.5z" />
    <glyph glyph-name="periodcentered" unicode="&#xb7;" horiz-adv-x="217" 
d="M156 395l-12 -90h-90l12 90h90z" />
    <glyph glyph-name="cedilla" unicode="&#xb8;" horiz-adv-x="602" 
d="M85 -184l20 36q29 -21 71 -21q62 0 62 39q0 34 -55 34l-31 -3l-13 19l41 80h46l-31 -58h4q86 -2 86 -69q0 -42 -29.5 -63t-78.5 -21q-57 0 -92 27z" />
    <glyph glyph-name="onesuperior" unicode="&#xb9;" 
d="M279 390h-245l7 49h94l36 270l-85 -53l-22 42l132 83h40l-45 -342h95z" />
    <glyph glyph-name="ordmasculine" unicode="&#xba;" horiz-adv-x="418" 
d="M132 591l-2 -13q-22 -143 90 -143q51 0 80 35t40 109l2 13q22 143 -90 143q-51 0 -80 -35t-40 -109zM26 212l8 57h323l-8 -57h-323zM66 578l2 13q14 95 61.5 147.5t124.5 52.5q93 0 129.5 -53t22.5 -146l-2 -13q-14 -95 -61.5 -147.5t-124.5 -52.5q-93 0 -129.5 53
t-22.5 146z" />
    <glyph glyph-name="guillemotright" unicode="&#xbb;" horiz-adv-x="517" 
d="M21 157l9 73l164 113l-134 114l9 67l184 -153l-8 -62zM234 157l9 73l164 113l-134 114l9 67l184 -153l-8 -62z" />
    <glyph glyph-name="onequarter" unicode="&#xbc;" horiz-adv-x="800" 
d="M279 390h-245l7 49h94l36 270l-85 -53l-22 42l132 83h40l-45 -342h95zM99 0h-70l678 780h70zM682 0h-56l13 95h-162l5 40l195 255h56l-32 -246h54l-7 -49h-54zM666 297l-118 -154l36 1h61l15 111z" />
    <glyph glyph-name="onehalf" unicode="&#xbd;" horiz-adv-x="800" 
d="M279 390h-245l7 49h94l36 270l-85 -53l-22 42l132 83h40l-45 -342h95zM99 0h-70l678 780h70zM733 49l-7 -49h-250l5 40l182 168q38 35 42 66l1 8q4 32 -12 48t-45 16h-6q-69 0 -77 -86h-56l3 22q16 114 133 114q64 0 93.5 -31.5t23.5 -78.5l-1 -8q-5 -47 -58 -96
l-144 -133h173z" />
    <glyph glyph-name="threequarters" unicode="&#xbe;" horiz-adv-x="800" 
d="M97 515q-13 -82 57 -82h7q66 0 74 59l1 8q4 31 -11 47.5t-45 16.5h-55l6 50h54q65 0 72 54l1 8q4 30 -12.5 45t-45.5 15h-6q-69 0 -77 -86h-56l3 22q16 114 133 114q63 0 93.5 -30t24.5 -76l-1 -8q-4 -33 -23 -55.5t-46 -27.5q25 -7 38.5 -32t8.5 -58l-1 -8
q-6 -47 -41.5 -77.5t-92.5 -30.5q-134 0 -118 124l1 8h57zM99 0h-70l678 780h70zM682 0h-56l13 95h-162l5 40l195 255h56l-32 -246h54l-7 -49h-54zM666 297l-118 -154l36 1h61l15 111z" />
    <glyph glyph-name="questiondown" unicode="&#xbf;" horiz-adv-x="455" 
d="M155 -146q72 0 110 50.5t50 155.5h72l-2 -14q-19 -132 -71.5 -194.5t-159.5 -62.5q-181 0 -181 161q0 51 14.5 90.5t36.5 62.5t49.5 48t52.5 46.5t46 59t29 84.5h46q-4 -57 -26.5 -102.5t-51.5 -76t-57 -59t-47 -66t-19 -82.5q0 -101 109 -101zM193 440l12 90h90l-12 -90
h-90z" />
    <glyph glyph-name="Agrave" unicode="&#xc0;" horiz-adv-x="611" 
d="M283 950h74l45 -110h-72zM309 788h102l122 -788h-76l-30 200h-286l-82 -200h-79zM351 709l-183 -444h249z" />
    <glyph glyph-name="Aacute" unicode="&#xc1;" horiz-adv-x="611" 
d="M405 950h74l-77 -110h-72zM309 788h102l122 -788h-76l-30 200h-286l-82 -200h-79zM351 709l-183 -444h249z" />
    <glyph glyph-name="Acircumflex" unicode="&#xc2;" horiz-adv-x="611" 
d="M504 840h-67l-57 69l-78 -69h-74l121 110h64zM309 788h102l122 -788h-76l-30 200h-286l-82 -200h-79zM351 709l-183 -444h249z" />
    <glyph glyph-name="Atilde" unicode="&#xc3;" horiz-adv-x="611" 
d="M482 936h48q-5 -46 -30.5 -69.5t-62.5 -23.5q-33 0 -72 29t-56 29q-41 0 -45 -47h-48q5 46 30.5 69.5t62.5 23.5q33 0 72 -29t56 -29q41 0 45 47zM309 788h102l122 -788h-76l-30 200h-286l-82 -200h-79zM351 709l-183 -444h249z" />
    <glyph glyph-name="Adieresis" unicode="&#xc4;" horiz-adv-x="611" 
d="M339 930l-9 -70h-79l9 70h79zM495 930l-9 -70h-79l9 70h79zM309 788h102l122 -788h-76l-30 200h-286l-82 -200h-79zM351 709l-183 -444h249z" />
    <glyph glyph-name="Aring" unicode="&#xc5;" horiz-adv-x="611" 
d="M465 874q0 -60 -54 -89l122 -785h-76l-30 200h-286l-82 -200h-79l329 787q-35 24 -35 73q0 43 30.5 72t73.5 29q40 0 63.5 -24.5t23.5 -62.5zM351 709l-183 -444h249zM361 811q27 0 46 16t19 47q0 22 -12.5 35.5t-35.5 13.5q-27 0 -46 -16t-19 -47q0 -22 12.5 -35.5
t35.5 -13.5z" />
    <glyph glyph-name="AE" unicode="&#xc6;" horiz-adv-x="837" 
d="M362 780h488l-8 -65h-377l3 -285h285l-8 -64h-276l3 -301h284l-8 -65h-349l-2 208h-247l-102 -208h-77zM393 703l-211 -431h214z" />
    <glyph glyph-name="Ccedilla" unicode="&#xc7;" horiz-adv-x="618" 
d="M135 410l-5 -40q-21 -166 14.5 -241t134.5 -75h7q166 0 192 200h74l-2 -14q-17 -119 -77 -181.5t-171 -68.5l-25 -48h4q86 -2 86 -69q0 -42 -29.5 -63t-78.5 -21q-57 0 -92 27l20 36q29 -21 71 -21q62 0 62 39q0 34 -55 34l-31 -3l-13 19l35 70q-124 7 -174 98t-26 282
l5 40q25 200 100.5 290.5t211.5 90.5q251 0 215 -266l-4 -29h-74q16 121 -16 175.5t-120 54.5h-7q-98 0 -154.5 -75.5t-77.5 -240.5z" />
    <glyph glyph-name="Egrave" unicode="&#xc8;" horiz-adv-x="549" 
d="M277 950h74l45 -110h-72zM127 780h435l-8 -65h-364l-37 -285h313l-9 -64h-313l-39 -301h363l-8 -65h-435z" />
    <glyph glyph-name="Eacute" unicode="&#xc9;" horiz-adv-x="549" 
d="M399 950h74l-77 -110h-72zM127 780h435l-8 -65h-364l-37 -285h313l-9 -64h-313l-39 -301h363l-8 -65h-435z" />
    <glyph glyph-name="Ecircumflex" unicode="&#xca;" horiz-adv-x="549" 
d="M498 840h-67l-57 69l-78 -69h-74l121 110h64zM127 780h435l-8 -65h-364l-37 -285h313l-9 -64h-313l-39 -301h363l-8 -65h-435z" />
    <glyph glyph-name="Edieresis" unicode="&#xcb;" horiz-adv-x="549" 
d="M333 930l-9 -70h-79l9 70h79zM489 930l-9 -70h-79l9 70h79zM127 780h435l-8 -65h-364l-37 -285h313l-9 -64h-313l-39 -301h363l-8 -65h-435z" />
    <glyph glyph-name="Igrave" unicode="&#xcc;" horiz-adv-x="229" 
d="M93 950h74l45 -110h-72zM204 780l-102 -780h-72l102 780h72z" />
    <glyph glyph-name="Iacute" unicode="&#xcd;" horiz-adv-x="229" 
d="M215 950h74l-77 -110h-72zM204 780l-102 -780h-72l102 780h72z" />
    <glyph glyph-name="Icircumflex" unicode="&#xce;" horiz-adv-x="229" 
d="M314 840h-67l-57 69l-78 -69h-74l121 110h64zM204 780l-102 -780h-72l102 780h72z" />
    <glyph glyph-name="Idieresis" unicode="&#xcf;" horiz-adv-x="229" 
d="M149 930l-9 -70h-79l9 70h79zM305 930l-9 -70h-79l9 70h79zM204 780l-102 -780h-72l102 780h72z" />
    <glyph glyph-name="Eth" unicode="&#xd0;" horiz-adv-x="699" 
d="M646 410l-5 -40q-46 -370 -352 -370h-204l48 366h-116l9 64h115l46 350h197q149 0 218 -87.5t44 -282.5zM165 65h126q238 0 276 305l5 40q20 161 -30.5 233t-164.5 72h-126l-38 -285h214l-9 -64h-213z" />
    <glyph glyph-name="Ntilde" unicode="&#xd1;" horiz-adv-x="659" 
d="M506 936h48q-5 -46 -30.5 -69.5t-62.5 -23.5q-33 0 -72 29t-56 29q-41 0 -45 -47h-48q5 46 30.5 69.5t62.5 23.5q33 0 71.5 -29t56.5 -29q41 0 45 47zM638 780l-102 -780h-76l-282 658l-21 -183l-62 -475h-70l102 780h76l282 -658l21 183l62 475h70z" />
    <glyph glyph-name="Ograve" unicode="&#xd2;" horiz-adv-x="649" 
d="M302 950h74l45 -110h-72zM372 791q136 0 192.5 -91t31.5 -290l-5 -40q-25 -200 -100.5 -290.5t-210.5 -90.5q-136 0 -192.5 91t-31.5 290l5 40q25 200 100.5 290.5t210.5 90.5zM278 54h7q99 0 155 75.5t77 240.5l5 40q21 166 -14.5 241t-133.5 75h-7q-99 0 -155 -75.5
t-77 -240.5l-5 -40q-21 -166 14.5 -241t133.5 -75z" />
    <glyph glyph-name="Oacute" unicode="&#xd3;" horiz-adv-x="649" 
d="M424 950h74l-77 -110h-72zM372 791q136 0 192.5 -91t31.5 -290l-5 -40q-25 -200 -100.5 -290.5t-210.5 -90.5q-136 0 -192.5 91t-31.5 290l5 40q25 200 100.5 290.5t210.5 90.5zM278 54h7q99 0 155 75.5t77 240.5l5 40q21 166 -14.5 241t-133.5 75h-7q-99 0 -155 -75.5
t-77 -240.5l-5 -40q-21 -166 14.5 -241t133.5 -75z" />
    <glyph glyph-name="Ocircumflex" unicode="&#xd4;" horiz-adv-x="649" 
d="M523 840h-67l-57 69l-78 -69h-74l121 110h64zM372 791q136 0 192.5 -91t31.5 -290l-5 -40q-25 -200 -100.5 -290.5t-210.5 -90.5q-136 0 -192.5 91t-31.5 290l5 40q25 200 100.5 290.5t210.5 90.5zM278 54h7q99 0 155 75.5t77 240.5l5 40q21 166 -14.5 241t-133.5 75h-7
q-99 0 -155 -75.5t-77 -240.5l-5 -40q-21 -166 14.5 -241t133.5 -75z" />
    <glyph glyph-name="Otilde" unicode="&#xd5;" horiz-adv-x="649" 
d="M501 936h48q-5 -46 -30.5 -69.5t-62.5 -23.5q-32 0 -71 29t-57 29q-41 0 -45 -47h-48q5 46 30.5 69.5t62.5 23.5q33 0 72 -29t56 -29q41 0 45 47zM372 791q136 0 192.5 -91t31.5 -290l-5 -40q-25 -200 -100.5 -290.5t-210.5 -90.5q-136 0 -192.5 91t-31.5 290l5 40
q25 200 100.5 290.5t210.5 90.5zM278 54h7q99 0 155 75.5t77 240.5l5 40q21 166 -14.5 241t-133.5 75h-7q-99 0 -155 -75.5t-77 -240.5l-5 -40q-21 -166 14.5 -241t133.5 -75z" />
    <glyph glyph-name="Odieresis" unicode="&#xd6;" horiz-adv-x="649" 
d="M358 930l-9 -70h-79l9 70h79zM514 930l-9 -70h-79l9 70h79zM372 791q136 0 192.5 -91t31.5 -290l-5 -40q-25 -200 -100.5 -290.5t-210.5 -90.5q-136 0 -192.5 91t-31.5 290l5 40q25 200 100.5 290.5t210.5 90.5zM278 54h7q99 0 155 75.5t77 240.5l5 40q21 166 -14.5 241
t-133.5 75h-7q-99 0 -155 -75.5t-77 -240.5l-5 -40q-21 -166 14.5 -241t133.5 -75z" />
    <glyph glyph-name="multiply" unicode="&#xd7;" horiz-adv-x="600" 
d="M49 126l-41 47l246 217l-188 217l53 47l189 -216l244 216l42 -47l-245 -217l188 -217l-54 -47l-188 216z" />
    <glyph glyph-name="Oslash" unicode="&#xd8;" horiz-adv-x="638" 
d="M56 370l5 40q25 200 100.5 290.5t210.5 90.5q112 0 169 -60l36 49h68l-71 -97q45 -94 22 -273l-5 -40q-25 -200 -100.5 -290.5t-210.5 -90.5q-112 0 -169 60l-36 -49h-68l71 97q-45 94 -22 273zM131 169l366 502q-36 55 -123 55h-7q-99 0 -155 -75.5t-77 -240.5l-5 -40
q-17 -128 1 -201zM521 611l-366 -502q36 -55 123 -55h7q99 0 155 75.5t77 240.5l5 40q17 128 -1 201z" />
    <glyph glyph-name="Ugrave" unicode="&#xd9;" horiz-adv-x="639" 
d="M297 950h74l45 -110h-72zM272 -11q-129 0 -184 58.5t-37 194.5l71 538h72l-70 -533q-14 -107 21.5 -150t128.5 -43t143 44t64 149l70 533h72l-71 -538q-18 -136 -85.5 -194.5t-194.5 -58.5z" />
    <glyph glyph-name="Uacute" unicode="&#xda;" horiz-adv-x="639" 
d="M419 950h74l-77 -110h-72zM272 -11q-129 0 -184 58.5t-37 194.5l71 538h72l-70 -533q-14 -107 21.5 -150t128.5 -43t143 44t64 149l70 533h72l-71 -538q-18 -136 -85.5 -194.5t-194.5 -58.5z" />
    <glyph glyph-name="Ucircumflex" unicode="&#xdb;" horiz-adv-x="639" 
d="M518 840h-67l-57 69l-78 -69h-74l121 110h64zM272 -11q-129 0 -184 58.5t-37 194.5l71 538h72l-70 -533q-14 -107 21.5 -150t128.5 -43t143 44t64 149l70 533h72l-71 -538q-18 -136 -85.5 -194.5t-194.5 -58.5z" />
    <glyph glyph-name="Udieresis" unicode="&#xdc;" horiz-adv-x="639" 
d="M353 930l-9 -70h-79l9 70h79zM509 930l-9 -70h-79l9 70h79zM272 -11q-129 0 -184 58.5t-37 194.5l71 538h72l-70 -533q-14 -107 21.5 -150t128.5 -43t143 44t64 149l70 533h72l-71 -538q-18 -136 -85.5 -194.5t-194.5 -58.5z" />
    <glyph glyph-name="Yacute" unicode="&#xdd;" horiz-adv-x="577" 
d="M389 950h74l-77 -110h-72zM307 236l-31 -236h-72l31 236l-161 544h75l132 -456l248 456h81z" />
    <glyph glyph-name="Thorn" unicode="&#xde;" horiz-adv-x="573" 
d="M127 224h149q160 0 181 156l2 15q6 48 -5 81.5t-35.5 50t-49.5 23.5t-54 7h-145zM199 780l-21 -158h143q46 0 84.5 -10.5t72.5 -34.5t49.5 -70.5t5.5 -110.5l-3 -20q-33 -217 -265 -217h-147l-21 -159h-72l102 780h72z" />
    <glyph glyph-name="germandbls" unicode="&#xdf;" horiz-adv-x="571" 
d="M321 52q64 0 94.5 35.5t30.5 88.5q0 37 -24 66t-91 77l-70 51l6 45q92 47 131 96t39 122q0 113 -117 113q-136 0 -155 -142l-79 -604h-70l80 609q12 96 68.5 149t155.5 53q107 0 152.5 -55t33.5 -147l-1 -8q-8 -65 -45 -113.5t-112 -93.5l41 -30q75 -55 104 -98t22 -102
l-1 -8q-9 -71 -54 -119t-140 -48t-130 44.5t-24 115.5l2 13h66q-8 -55 8 -82.5t79 -27.5z" />
    <glyph glyph-name="agrave" unicode="&#xe0;" horiz-adv-x="512" 
d="M179 780h76l68 -166h-72zM347 0v74q-72 -85 -189 -85q-75 0 -114 40.5t-31 105.5l2 16q10 77 57 108.5t136 45.5l164 26l3 22q9 66 -15 97.5t-94 31.5q-69 0 -99 -34t-38 -93h-67l2 13q26 173 204 173q109 0 149 -51.5t27 -145.5l-26 -194l-13 -150h-58zM174 50
q110 0 173 86l18 140l-156 -25q-110 -17 -122 -96l-2 -14q-6 -38 17.5 -64.5t71.5 -26.5z" />
    <glyph glyph-name="aacute" unicode="&#xe1;" horiz-adv-x="512" 
d="M363 780h76l-116 -166h-72zM347 0v74q-72 -85 -189 -85q-75 0 -114 40.5t-31 105.5l2 16q10 77 57 108.5t136 45.5l164 26l3 22q9 66 -15 97.5t-94 31.5q-69 0 -99 -34t-38 -93h-67l2 13q26 173 204 173q109 0 149 -51.5t27 -145.5l-26 -194l-13 -150h-58zM174 50
q110 0 173 86l18 140l-156 -25q-110 -17 -122 -96l-2 -14q-6 -38 17.5 -64.5t71.5 -26.5z" />
    <glyph glyph-name="acircumflex" unicode="&#xe2;" horiz-adv-x="512" 
d="M198 614h-73l153 166h62l109 -166h-66l-78 113zM347 0v74q-72 -85 -189 -85q-75 0 -114 40.5t-31 105.5l2 16q10 77 57 108.5t136 45.5l164 26l3 22q9 66 -15 97.5t-94 31.5q-69 0 -99 -34t-38 -93h-67l2 13q26 173 204 173q109 0 149 -51.5t27 -145.5l-26 -194l-13 -150
h-58zM174 50q110 0 173 86l18 140l-156 -25q-110 -17 -122 -96l-2 -14q-6 -38 17.5 -64.5t71.5 -26.5z" />
    <glyph glyph-name="atilde" unicode="&#xe3;" horiz-adv-x="512" 
d="M408 746h53q-15 -103 -95 -103q-32 0 -74 29t-61 29q-35 0 -41 -47h-53q7 51 32 77t62 26q32 0 74 -29t61 -29q35 0 42 47zM347 0v74q-72 -85 -189 -85q-75 0 -114 40.5t-31 105.5l2 16q10 77 57 108.5t136 45.5l164 26l3 22q9 66 -15 97.5t-94 31.5q-69 0 -99 -34
t-38 -93h-67l2 13q26 173 204 173q109 0 149 -51.5t27 -145.5l-26 -194l-13 -150h-58zM174 50q110 0 173 86l18 140l-156 -25q-110 -17 -122 -96l-2 -14q-6 -38 17.5 -64.5t71.5 -26.5z" />
    <glyph glyph-name="adieresis" unicode="&#xe4;" horiz-adv-x="512" 
d="M266 745l-12 -90h-90l12 90h90zM433 745l-12 -90h-90l12 90h90zM347 0v74q-72 -85 -189 -85q-75 0 -114 40.5t-31 105.5l2 16q10 77 57 108.5t136 45.5l164 26l3 22q9 66 -15 97.5t-94 31.5q-69 0 -99 -34t-38 -93h-67l2 13q26 173 204 173q109 0 149 -51.5t27 -145.5
l-26 -194l-13 -150h-58zM174 50q110 0 173 86l18 140l-156 -25q-110 -17 -122 -96l-2 -14q-6 -38 17.5 -64.5t71.5 -26.5z" />
    <glyph glyph-name="aring" unicode="&#xe5;" horiz-adv-x="512" 
d="M290 641q27 0 46 16t19 47q0 22 -12.5 35.5t-35.5 13.5q-27 0 -46 -16t-19 -47q0 -22 12.5 -35.5t35.5 -13.5zM290 603q-40 0 -63.5 24.5t-23.5 62.5q0 43 30.5 72t73.5 29q40 0 63.5 -24.5t23.5 -62.5q0 -43 -30.5 -72t-73.5 -29zM347 0v74q-72 -85 -189 -85
q-75 0 -114 40.5t-31 105.5l2 16q10 77 57 108.5t136 45.5l164 26l3 22q9 66 -15 97.5t-94 31.5q-69 0 -99 -34t-38 -93h-67l2 13q26 173 204 173q109 0 149 -51.5t27 -145.5l-26 -194l-13 -150h-58zM174 50q110 0 173 86l18 140l-156 -25q-110 -17 -122 -96l-2 -14
q-6 -38 17.5 -64.5t71.5 -26.5z" />
    <glyph glyph-name="ae" unicode="&#xe6;" horiz-adv-x="871" 
d="M806 236h-374q-19 -184 142 -184q73 0 111 34.5t45 83.5h67l-2 -13q-10 -66 -68 -117t-155 -51q-144 0 -192 102q-41 -47 -101.5 -74.5t-120.5 -27.5q-75 0 -114 40.5t-31 105.5l2 16q10 77 57 108.5t136 45.5l164 26l3 22q9 66 -15 97.5t-94 31.5q-69 0 -99 -34t-38 -93
h-67l2 13q26 173 204 173q141 0 164 -97q65 97 186 97q116 0 162.5 -71.5t30.5 -194.5zM174 50q110 0 188 104q-7 43 1 101l3 21l-157 -25q-110 -17 -122 -96l-2 -14q-6 -38 17.5 -64.5t71.5 -26.5zM618 478q-72 0 -120 -50.5t-59 -133.5h304q25 184 -125 184z" />
    <glyph glyph-name="ccedilla" unicode="&#xe7;" horiz-adv-x="522" 
d="M108 279l-3 -22q-13 -96 19.5 -150.5t109.5 -54.5q126 0 146 132h68l-2 -13q-27 -173 -196 -181l-25 -48h4q86 -2 86 -69q0 -42 -29.5 -63t-78.5 -21q-57 0 -92 27l20 36q29 -21 71 -21q62 0 62 39q0 34 -55 34l-31 -3l-13 19l36 71q-99 9 -142.5 82t-28.5 182l3 22
q17 122 76.5 193t166.5 71q57 0 98.5 -17.5t62 -46.5t27.5 -61.5t2 -66.5l-2 -13h-67q10 63 -20.5 102.5t-100.5 39.5q-72 0 -115.5 -52t-56.5 -147z" />
    <glyph glyph-name="egrave" unicode="&#xe8;" horiz-adv-x="544" 
d="M196 780h76l68 -166h-72zM477 236h-374q-19 -184 142 -184q73 0 111 34.5t45 83.5h67l-2 -13q-10 -66 -68 -117t-155 -51q-126 0 -175.5 73.5t-33.5 192.5l3 22q17 120 80.5 192t171.5 72q116 0 162.5 -71.5t30.5 -194.5zM289 478q-72 0 -120 -50.5t-59 -133.5h304
q25 184 -125 184z" />
    <glyph glyph-name="eacute" unicode="&#xe9;" horiz-adv-x="544" 
d="M380 780h76l-116 -166h-72zM477 236h-374q-19 -184 142 -184q73 0 111 34.5t45 83.5h67l-2 -13q-10 -66 -68 -117t-155 -51q-126 0 -175.5 73.5t-33.5 192.5l3 22q17 120 80.5 192t171.5 72q116 0 162.5 -71.5t30.5 -194.5zM289 478q-72 0 -120 -50.5t-59 -133.5h304
q25 184 -125 184z" />
    <glyph glyph-name="ecircumflex" unicode="&#xea;" horiz-adv-x="544" 
d="M215 614h-73l153 166h62l109 -166h-66l-78 113zM477 236h-374q-19 -184 142 -184q73 0 111 34.5t45 83.5h67l-2 -13q-10 -66 -68 -117t-155 -51q-126 0 -175.5 73.5t-33.5 192.5l3 22q17 120 80.5 192t171.5 72q116 0 162.5 -71.5t30.5 -194.5zM289 478q-72 0 -120 -50.5
t-59 -133.5h304q25 184 -125 184z" />
    <glyph glyph-name="edieresis" unicode="&#xeb;" horiz-adv-x="544" 
d="M283 745l-12 -90h-90l12 90h90zM450 745l-12 -90h-90l12 90h90zM477 236h-374q-19 -184 142 -184q73 0 111 34.5t45 83.5h67l-2 -13q-10 -66 -68 -117t-155 -51q-126 0 -175.5 73.5t-33.5 192.5l3 22q17 120 80.5 192t171.5 72q116 0 162.5 -71.5t30.5 -194.5zM289 478
q-72 0 -120 -50.5t-59 -133.5h304q25 184 -125 184z" />
    <glyph glyph-name="igrave" unicode="&#xec;" horiz-adv-x="216" 
d="M31 780h76l68 -166h-72zM24 0l69 530h70l-69 -530h-70z" />
    <glyph glyph-name="iacute" unicode="&#xed;" horiz-adv-x="216" 
d="M215 780h76l-116 -166h-72zM24 0l69 530h70l-69 -530h-70z" />
    <glyph glyph-name="icircumflex" unicode="&#xee;" horiz-adv-x="216" 
d="M50 614h-73l153 166h62l109 -166h-66l-78 113zM24 0l69 530h70l-69 -530h-70z" />
    <glyph glyph-name="idieresis" unicode="&#xef;" horiz-adv-x="216" 
d="M118 745l-12 -90h-90l12 90h90zM285 745l-12 -90h-90l12 90h90zM24 0l69 530h70l-69 -530h-70z" />
    <glyph glyph-name="eth" unicode="&#xf0;" horiz-adv-x="544" 
d="M99 747l8 64q137 -12 223 -68l126 68l-7 -55l-80 -42q29 -24 50 -52q35 -49 53 -121t17.5 -137.5t-7.5 -128.5l-3 -22q-17 -122 -78 -193t-169 -71q-114 0 -164 74t-34 192l3 22q17 122 78 193t168 71q85 0 130 -45q-17 73 -55 124q-17 24 -60 56l-184 -99l8 55l132 71
q-64 33 -155 44zM232 52q73 0 118 52t58 147l3 22q13 95 -18.5 150t-109.5 55q-73 0 -117.5 -52t-57.5 -147l-3 -22q-13 -97 18.5 -151t108.5 -54z" />
    <glyph glyph-name="ntilde" unicode="&#xf1;" horiz-adv-x="528" 
d="M419 746h53q-15 -103 -95 -103q-32 0 -74 29t-61 29q-35 0 -41 -47h-53q7 51 32 77t62 26q32 0 74 -29t61 -29q35 0 42 47zM416 0h-70l48 361q16 117 -104 117q-91 0 -152 -83l-52 -395h-70l51 386l13 144h60v-74q62 85 174 85q84 0 122.5 -46.5t28.5 -123.5z" />
    <glyph glyph-name="ograve" unicode="&#xf2;" horiz-adv-x="544" 
d="M195 780h76l68 -166h-72zM232 52q73 0 118 52t58 147l3 22q13 97 -19 151t-109 54q-73 0 -117.5 -52t-57.5 -147l-3 -22q-13 -97 18.5 -151t108.5 -54zM232 -11q-114 0 -164 74t-34 192l3 22q17 122 78 193t168 71q114 0 164.5 -74t34.5 -192l-3 -22q-17 -122 -78 -193
t-169 -71z" />
    <glyph glyph-name="oacute" unicode="&#xf3;" horiz-adv-x="544" 
d="M379 780h76l-116 -166h-72zM232 52q73 0 118 52t58 147l3 22q13 97 -19 151t-109 54q-73 0 -117.5 -52t-57.5 -147l-3 -22q-13 -97 18.5 -151t108.5 -54zM232 -11q-114 0 -164 74t-34 192l3 22q17 122 78 193t168 71q114 0 164.5 -74t34.5 -192l-3 -22q-17 -122 -78 -193
t-169 -71z" />
    <glyph glyph-name="ocircumflex" unicode="&#xf4;" horiz-adv-x="544" 
d="M214 614h-73l153 166h62l109 -166h-66l-78 113zM232 52q73 0 118 52t58 147l3 22q13 97 -19 151t-109 54q-73 0 -117.5 -52t-57.5 -147l-3 -22q-13 -97 18.5 -151t108.5 -54zM232 -11q-114 0 -164 74t-34 192l3 22q17 122 78 193t168 71q114 0 164.5 -74t34.5 -192
l-3 -22q-17 -122 -78 -193t-169 -71z" />
    <glyph glyph-name="otilde" unicode="&#xf5;" horiz-adv-x="544" 
d="M424 746h53q-15 -103 -95 -103q-32 0 -74 29t-61 29q-35 0 -41 -47h-53q7 51 32 77t62 26q32 0 74 -29t61 -29q35 0 42 47zM232 52q73 0 118 52t58 147l3 22q13 97 -19 151t-109 54q-73 0 -117.5 -52t-57.5 -147l-3 -22q-13 -97 18.5 -151t108.5 -54zM232 -11
q-114 0 -164 74t-34 192l3 22q17 122 78 193t168 71q114 0 164.5 -74t34.5 -192l-3 -22q-17 -122 -78 -193t-169 -71z" />
    <glyph glyph-name="odieresis" unicode="&#xf6;" horiz-adv-x="544" 
d="M282 745l-12 -90h-90l12 90h90zM449 745l-12 -90h-90l12 90h90zM232 52q73 0 118 52t58 147l3 22q13 97 -19 151t-109 54q-73 0 -117.5 -52t-57.5 -147l-3 -22q-13 -97 18.5 -151t108.5 -54zM232 -11q-114 0 -164 74t-34 192l3 22q17 122 78 193t168 71q114 0 164.5 -74
t34.5 -192l-3 -22q-17 -122 -78 -193t-169 -71z" />
    <glyph glyph-name="divide" unicode="&#xf7;" horiz-adv-x="600" 
d="M44 357l9 66h505l-9 -66h-505zM323 218l-12 -90h-90l12 90h90zM381 652l-12 -90h-90l12 90h90z" />
    <glyph glyph-name="oslash" unicode="&#xf8;" horiz-adv-x="544" 
d="M404 398l-265 -311q33 -35 94 -35q73 0 117.5 52t57.5 147l3 22q9 76 -7 125zM34 255l3 22q17 122 78 193t168 71q86 0 138 -46l30 35h65l-62 -73q42 -70 28 -182l-3 -22q-17 -122 -78 -193t-168 -71q-86 0 -138 46l-30 -35h-65l62 73q-42 70 -28 182zM112 132l265 311
q-33 35 -94 35q-73 0 -117.5 -52t-57.5 -147l-3 -22q-9 -76 7 -125z" />
    <glyph glyph-name="ugrave" unicode="&#xf9;" horiz-adv-x="528" 
d="M184 780h76l68 -166h-72zM82 530h70l-48 -361q-16 -117 104 -117q91 0 152 83l52 395h70l-51 -386l-13 -144h-60v74q-62 -85 -174 -85q-84 0 -122.5 46.5t-28.5 123.5z" />
    <glyph glyph-name="uacute" unicode="&#xfa;" horiz-adv-x="528" 
d="M368 780h76l-116 -166h-72zM82 530h70l-48 -361q-16 -117 104 -117q91 0 152 83l52 395h70l-51 -386l-13 -144h-60v74q-62 -85 -174 -85q-84 0 -122.5 46.5t-28.5 123.5z" />
    <glyph glyph-name="ucircumflex" unicode="&#xfb;" horiz-adv-x="528" 
d="M203 614h-73l153 166h62l109 -166h-66l-78 113zM82 530h70l-48 -361q-16 -117 104 -117q91 0 152 83l52 395h70l-51 -386l-13 -144h-60v74q-62 -85 -174 -85q-84 0 -122.5 46.5t-28.5 123.5z" />
    <glyph glyph-name="udieresis" unicode="&#xfc;" horiz-adv-x="528" 
d="M271 745l-12 -90h-90l12 90h90zM438 745l-12 -90h-90l12 90h90zM82 530h70l-48 -361q-16 -117 104 -117q91 0 152 83l52 395h70l-51 -386l-13 -144h-60v74q-62 -85 -174 -85q-84 0 -122.5 46.5t-28.5 123.5z" />
    <glyph glyph-name="yacute" unicode="&#xfd;" horiz-adv-x="484" 
d="M356 780h76l-116 -166h-72zM210 96l208 434h78l-257 -510l-104 -220h-81l112 220l-123 510h72z" />
    <glyph glyph-name="thorn" unicode="&#xfe;" horiz-adv-x="537" 
d="M122 800h70l-43 -326q55 67 150 67q105 0 149.5 -73.5t28.5 -192.5l-3 -22q-17 -123 -74.5 -193.5t-159.5 -70.5q-54 0 -91.5 24t-53.5 52l-35 -265h-70zM231 52q144 0 172 199l3 22q13 97 -19 151t-105 54q-86 0 -143 -76l-34 -263q16 -35 47.5 -61t78.5 -26z" />
    <glyph glyph-name="ydieresis" unicode="&#xff;" horiz-adv-x="484" 
d="M259 745l-12 -90h-90l12 90h90zM426 745l-12 -90h-90l12 90h90zM210 96l208 434h78l-257 -510l-104 -220h-81l112 220l-123 510h72z" />
    <glyph glyph-name="Amacron" unicode="&#x100;" horiz-adv-x="611" 
d="M257 868l7 54h226l-7 -54h-226zM309 788h102l122 -788h-76l-30 200h-286l-82 -200h-79zM351 709l-183 -444h249z" />
    <glyph glyph-name="amacron" unicode="&#x101;" horiz-adv-x="512" 
d="M177 664l9 66h233l-8 -66h-234zM347 0v74q-72 -85 -189 -85q-75 0 -114 40.5t-31 105.5l2 16q10 77 57 108.5t136 45.5l164 26l3 22q9 66 -15 97.5t-94 31.5q-69 0 -99 -34t-38 -93h-67l2 13q26 173 204 173q109 0 149 -51.5t27 -145.5l-26 -194l-13 -150h-58zM174 50
q110 0 173 86l18 140l-156 -25q-110 -17 -122 -96l-2 -14q-6 -38 17.5 -64.5t71.5 -26.5z" />
    <glyph glyph-name="Abreve" unicode="&#x102;" horiz-adv-x="611" 
d="M366 829q-72 0 -105 33.5t-25 87.5h53q-5 -34 15 -54.5t65 -20.5t70 20.5t30 54.5h57q-7 -55 -47.5 -88t-112.5 -33zM309 788h102l122 -788h-76l-30 200h-286l-82 -200h-79zM351 709l-183 -444h249z" />
    <glyph glyph-name="abreve" unicode="&#x103;" horiz-adv-x="512" 
d="M290 603q-83 0 -118 47.5t-24 129.5h54q-15 -122 88 -122q54 0 84.5 32.5t37.5 89.5h58q-22 -177 -180 -177zM347 0v74q-72 -85 -189 -85q-75 0 -114 40.5t-31 105.5l2 16q10 77 57 108.5t136 45.5l164 26l3 22q9 66 -15 97.5t-94 31.5q-69 0 -99 -34t-38 -93h-67l2 13
q26 173 204 173q109 0 149 -51.5t27 -145.5l-26 -194l-13 -150h-58zM174 50q110 0 173 86l18 140l-156 -25q-110 -17 -122 -96l-2 -14q-6 -38 17.5 -64.5t71.5 -26.5z" />
    <glyph glyph-name="Aogonek" unicode="&#x104;" horiz-adv-x="611" 
d="M309 788h102l122 -788q-100 -43 -100 -113q0 -45 59 -45q32 0 58 13l12 -46q-34 -20 -85 -20q-48 0 -74.5 21t-26.5 61q0 80 80 133l-29 196h-286l-82 -200h-79zM351 709l-183 -444h249z" />
    <glyph glyph-name="aogonek" unicode="&#x105;" horiz-adv-x="512" 
d="M405 0q-100 -43 -100 -113q0 -45 59 -45q32 0 58 13l12 -46q-34 -20 -85 -20q-48 0 -74.5 21t-26.5 61q0 91 99 145v58q-72 -85 -189 -85q-75 0 -114 40.5t-31 105.5l2 16q10 77 57 108.5t136 45.5l164 26l3 22q9 66 -15 97.5t-94 31.5q-69 0 -99 -34t-38 -93h-67l2 13
q26 173 204 173q109 0 149 -51.5t27 -145.5l-26 -194zM174 50q110 0 173 86l18 140l-156 -25q-110 -17 -122 -96l-2 -14q-6 -38 17.5 -64.5t71.5 -26.5z" />
    <glyph glyph-name="Cacute" unicode="&#x106;" horiz-adv-x="618" 
d="M422 950h74l-77 -110h-72zM135 410l-5 -40q-21 -166 14.5 -241t134.5 -75h7q166 0 192 200h74l-2 -14q-18 -125 -83.5 -188t-187.5 -63q-137 0 -192.5 91t-30.5 290l5 40q25 200 100.5 290.5t211.5 90.5q251 0 215 -266l-4 -29h-74q16 121 -16 175.5t-120 54.5h-7
q-98 0 -154.5 -75.5t-77.5 -240.5z" />
    <glyph glyph-name="cacute" unicode="&#x107;" horiz-adv-x="522" 
d="M377 780h76l-116 -166h-72zM108 279l-3 -22q-13 -96 19.5 -150.5t109.5 -54.5q126 0 146 132h68l-2 -13q-28 -182 -212 -182q-113 0 -164.5 74.5t-35.5 191.5l3 22q17 122 76.5 193t166.5 71q57 0 98.5 -17.5t62 -46.5t27.5 -61.5t2 -66.5l-2 -13h-67q10 63 -20.5 102.5
t-100.5 39.5q-72 0 -115.5 -52t-56.5 -147z" />
    <glyph glyph-name="Ccircumflex" unicode="&#x108;" horiz-adv-x="618" 
d="M521 840h-67l-57 69l-78 -69h-74l121 110h64zM135 410l-5 -40q-21 -166 14.5 -241t134.5 -75h7q166 0 192 200h74l-2 -14q-18 -125 -83.5 -188t-187.5 -63q-137 0 -192.5 91t-30.5 290l5 40q25 200 100.5 290.5t211.5 90.5q251 0 215 -266l-4 -29h-74q16 121 -16 175.5
t-120 54.5h-7q-98 0 -154.5 -75.5t-77.5 -240.5z" />
    <glyph glyph-name="ccircumflex" unicode="&#x109;" horiz-adv-x="522" 
d="M212 614h-73l153 166h62l109 -166h-66l-78 113zM108 279l-3 -22q-13 -96 19.5 -150.5t109.5 -54.5q126 0 146 132h68l-2 -13q-28 -182 -212 -182q-113 0 -164.5 74.5t-35.5 191.5l3 22q17 122 76.5 193t166.5 71q57 0 98.5 -17.5t62 -46.5t27.5 -61.5t2 -66.5l-2 -13h-67
q10 63 -20.5 102.5t-100.5 39.5q-72 0 -115.5 -52t-56.5 -147z" />
    <glyph glyph-name="Cdotaccent" unicode="&#x10a;" horiz-adv-x="618" 
d="M434 930l-9 -70h-79l9 70h79zM135 410l-5 -40q-21 -166 14.5 -241t134.5 -75h7q166 0 192 200h74l-2 -14q-18 -125 -83.5 -188t-187.5 -63q-137 0 -192.5 91t-30.5 290l5 40q25 200 100.5 290.5t211.5 90.5q251 0 215 -266l-4 -29h-74q16 121 -16 175.5t-120 54.5h-7
q-98 0 -154.5 -75.5t-77.5 -240.5z" />
    <glyph glyph-name="cdotaccent" unicode="&#x10b;" horiz-adv-x="522" 
d="M363 745l-12 -90h-90l12 90h90zM108 279l-3 -22q-13 -96 19.5 -150.5t109.5 -54.5q126 0 146 132h68l-2 -13q-28 -182 -212 -182q-113 0 -164.5 74.5t-35.5 191.5l3 22q17 122 76.5 193t166.5 71q57 0 98.5 -17.5t62 -46.5t27.5 -61.5t2 -66.5l-2 -13h-67
q10 63 -20.5 102.5t-100.5 39.5q-72 0 -115.5 -52t-56.5 -147z" />
    <glyph glyph-name="Ccaron" unicode="&#x10c;" horiz-adv-x="618" 
d="M260 950h67l57 -69l78 69h74l-121 -110h-64zM135 410l-5 -40q-21 -166 14.5 -241t134.5 -75h7q166 0 192 200h74l-2 -14q-18 -125 -83.5 -188t-187.5 -63q-137 0 -192.5 91t-30.5 290l5 40q25 200 100.5 290.5t211.5 90.5q251 0 215 -266l-4 -29h-74q16 121 -16 175.5
t-120 54.5h-7q-98 0 -154.5 -75.5t-77.5 -240.5z" />
    <glyph glyph-name="ccaron" unicode="&#x10d;" horiz-adv-x="522" 
d="M161 780h66l78 -113l107 113h73l-153 -166h-62zM108 279l-3 -22q-13 -96 19.5 -150.5t109.5 -54.5q126 0 146 132h68l-2 -13q-28 -182 -212 -182q-113 0 -164.5 74.5t-35.5 191.5l3 22q17 122 76.5 193t166.5 71q57 0 98.5 -17.5t62 -46.5t27.5 -61.5t2 -66.5l-2 -13h-67
q10 63 -20.5 102.5t-100.5 39.5q-72 0 -115.5 -52t-56.5 -147z" />
    <glyph glyph-name="Dcaron" unicode="&#x10e;" horiz-adv-x="639" 
d="M586 410l-5 -40q-46 -370 -352 -370h-204l102 780h197q149 0 218 -87.5t44 -282.5zM105 65h126q238 0 276 305l5 40q20 161 -30.5 233t-164.5 72h-126zM230 950h67l57 -69l78 69h74l-121 -110h-64z" />
    <glyph glyph-name="dcaron" unicode="&#x10f;" horiz-adv-x="540" 
d="M212 -11q-105 0 -149.5 73.5t-28.5 192.5l3 22q17 123 74.5 193.5t159.5 70.5q54 0 91.5 -24t53.5 -52l44 335h70l-86 -656l-13 -144h-60v67q-25 -36 -67.5 -57t-91.5 -21zM280 478q-144 0 -172 -199l-3 -22q-13 -97 19 -151t105 -54q86 0 143 76l34 263q-16 35 -47.5 61
t-78.5 26zM604 800h57l-42 -186h-40z" />
    <glyph glyph-name="Dcroat" unicode="&#x110;" horiz-adv-x="699" 
d="M646 410l-5 -40q-46 -370 -352 -370h-204l48 366h-116l9 64h115l46 350h197q149 0 218 -87.5t44 -282.5zM165 65h126q238 0 276 305l5 40q20 161 -30.5 233t-164.5 72h-126l-38 -285h214l-9 -64h-213z" />
    <glyph glyph-name="dcroat" unicode="&#x111;" horiz-adv-x="540" 
d="M599 633h-91l-64 -489l-13 -144h-60v67q-25 -36 -67.5 -57t-91.5 -21q-105 0 -149.5 73.5t-28.5 192.5l3 22q17 123 74.5 193.5t159.5 70.5q54 0 91.5 -24t53.5 -52l22 168h-135l9 64h134l14 103h70l-14 -103h92zM280 478q-144 0 -172 -199l-3 -22q-13 -97 19 -151
t105 -54q86 0 143 76l34 263q-16 35 -47.5 61t-78.5 26z" />
    <glyph glyph-name="Emacron" unicode="&#x112;" horiz-adv-x="549" 
d="M251 868l7 54h226l-7 -54h-226zM127 780h435l-8 -65h-364l-37 -285h313l-9 -64h-313l-39 -301h363l-8 -65h-435z" />
    <glyph glyph-name="emacron" unicode="&#x113;" horiz-adv-x="544" 
d="M194 664l9 66h233l-8 -66h-234zM477 236h-374q-19 -184 142 -184q73 0 111 34.5t45 83.5h67l-2 -13q-10 -66 -68 -117t-155 -51q-126 0 -175.5 73.5t-33.5 192.5l3 22q17 120 80.5 192t171.5 72q116 0 162.5 -71.5t30.5 -194.5zM289 478q-72 0 -120 -50.5t-59 -133.5h304
q25 184 -125 184z" />
    <glyph glyph-name="Ebreve" unicode="&#x114;" horiz-adv-x="549" 
d="M360 829q-72 0 -105 33.5t-25 87.5h53q-5 -34 15 -54.5t65 -20.5t70 20.5t30 54.5h57q-7 -55 -47.5 -88t-112.5 -33zM127 780h435l-8 -65h-364l-37 -285h313l-9 -64h-313l-39 -301h363l-8 -65h-435z" />
    <glyph glyph-name="ebreve" unicode="&#x115;" horiz-adv-x="544" 
d="M307 603q-83 0 -118 47.5t-24 129.5h54q-15 -122 88 -122q54 0 84.5 32.5t37.5 89.5h58q-22 -177 -180 -177zM477 236h-374q-19 -184 142 -184q73 0 111 34.5t45 83.5h67l-2 -13q-10 -66 -68 -117t-155 -51q-126 0 -175.5 73.5t-33.5 192.5l3 22q17 120 80.5 192
t171.5 72q116 0 162.5 -71.5t30.5 -194.5zM289 478q-72 0 -120 -50.5t-59 -133.5h304q25 184 -125 184z" />
    <glyph glyph-name="Edotaccent" unicode="&#x116;" horiz-adv-x="549" 
d="M411 930l-9 -70h-79l9 70h79zM127 780h435l-8 -65h-364l-37 -285h313l-9 -64h-313l-39 -301h363l-8 -65h-435z" />
    <glyph glyph-name="edotaccent" unicode="&#x117;" horiz-adv-x="544" 
d="M366 745l-12 -90h-90l12 90h90zM477 236h-374q-19 -184 142 -184q73 0 111 34.5t45 83.5h67l-2 -13q-10 -66 -68 -117t-155 -51q-126 0 -175.5 73.5t-33.5 192.5l3 22q17 120 80.5 192t171.5 72q116 0 162.5 -71.5t30.5 -194.5zM289 478q-72 0 -120 -50.5t-59 -133.5h304
q25 184 -125 184z" />
    <glyph glyph-name="Eogonek" unicode="&#x118;" horiz-adv-x="549" 
d="M127 780h435l-8 -65h-364l-37 -285h313l-9 -64h-313l-39 -301h363l-8 -65q-100 -43 -100 -113q0 -45 59 -45q32 0 58 13l12 -46q-34 -20 -85 -20q-48 0 -74.5 21t-26.5 61q0 78 74 129h-352z" />
    <glyph glyph-name="eogonek" unicode="&#x119;" horiz-adv-x="544" 
d="M477 236h-374q-19 -184 142 -184q73 0 111 34.5t45 83.5h67l-2 -13q-8 -50 -45 -94.5t-99 -62.5q-100 -43 -100 -113q0 -45 59 -45q32 0 58 13l12 -46q-34 -20 -85 -20q-48 0 -74.5 21t-26.5 61q0 69 60 119q-116 6 -161.5 78.5t-29.5 186.5l3 22q17 120 80.5 192
t171.5 72q116 0 162.5 -71.5t30.5 -194.5zM289 478q-72 0 -120 -50.5t-59 -133.5h304q25 184 -125 184z" />
    <glyph glyph-name="Ecaron" unicode="&#x11a;" horiz-adv-x="549" 
d="M237 950h67l57 -69l78 69h74l-121 -110h-64zM127 780h435l-8 -65h-364l-37 -285h313l-9 -64h-313l-39 -301h363l-8 -65h-435z" />
    <glyph glyph-name="ecaron" unicode="&#x11b;" horiz-adv-x="544" 
d="M164 780h66l78 -113l107 113h73l-153 -166h-62zM477 236h-374q-19 -184 142 -184q73 0 111 34.5t45 83.5h67l-2 -13q-10 -66 -68 -117t-155 -51q-126 0 -175.5 73.5t-33.5 192.5l3 22q17 120 80.5 192t171.5 72q116 0 162.5 -71.5t30.5 -194.5zM289 478q-72 0 -120 -50.5
t-59 -133.5h304q25 184 -125 184z" />
    <glyph glyph-name="Gcircumflex" unicode="&#x11c;" horiz-adv-x="648" 
d="M529 840h-67l-57 69l-78 -69h-74l121 110h64zM293 -11q-285 0 -237 381l5 40q25 199 102.5 290t214.5 91q125 0 181.5 -67.5t38.5 -198.5l-4 -29h-74q16 120 -18.5 175t-122.5 55h-7q-99 0 -157.5 -76t-79.5 -240l-5 -40q-40 -316 165 -316h7q106 0 170 60l27 206h-134
l8 64h206l-40 -305q-98 -90 -246 -90z" />
    <glyph glyph-name="gcircumflex" unicode="&#x11d;" horiz-adv-x="537" 
d="M197 614h-73l153 166h62l109 -166h-66l-78 113zM353 -3l12 97q-55 -67 -151 -67q-106 0 -150 69.5t-29 178.5l3 22q15 114 71.5 179t159.5 65q56 0 96 -27t56 -61l19 77h58l-25 -150l-51 -388q-26 -203 -227 -203q-110 0 -155.5 55t-31.5 143l2 13h65q-24 -148 120 -148
q78 0 113.5 35t44.5 110zM375 167l30 225q-15 34 -46.5 60t-79.5 26q-145 0 -170 -179l-3 -22q-12 -88 19.5 -137.5t106.5 -49.5q85 0 143 77z" />
    <glyph glyph-name="Gbreve" unicode="&#x11e;" horiz-adv-x="648" 
d="M391 829q-72 0 -105 33.5t-25 87.5h53q-5 -34 15 -54.5t65 -20.5t70 20.5t30 54.5h57q-7 -55 -47.5 -88t-112.5 -33zM293 -11q-285 0 -237 381l5 40q25 199 102.5 290t214.5 91q125 0 181.5 -67.5t38.5 -198.5l-4 -29h-74q16 120 -18.5 175t-122.5 55h-7
q-99 0 -157.5 -76t-79.5 -240l-5 -40q-40 -316 165 -316h7q106 0 170 60l27 206h-134l8 64h206l-40 -305q-98 -90 -246 -90z" />
    <glyph glyph-name="gbreve" unicode="&#x11f;" horiz-adv-x="537" 
d="M289 603q-83 0 -118 47.5t-24 129.5h54q-15 -122 88 -122q54 0 84.5 32.5t37.5 89.5h58q-22 -177 -180 -177zM353 -3l12 97q-55 -67 -151 -67q-106 0 -150 69.5t-29 178.5l3 22q15 114 71.5 179t159.5 65q56 0 96 -27t56 -61l19 77h58l-25 -150l-51 -388
q-26 -203 -227 -203q-110 0 -155.5 55t-31.5 143l2 13h65q-24 -148 120 -148q78 0 113.5 35t44.5 110zM375 167l30 225q-15 34 -46.5 60t-79.5 26q-145 0 -170 -179l-3 -22q-12 -88 19.5 -137.5t106.5 -49.5q85 0 143 77z" />
    <glyph glyph-name="Gdotaccent" unicode="&#x120;" horiz-adv-x="648" 
d="M442 930l-9 -70h-79l9 70h79zM293 -11q-285 0 -237 381l5 40q25 199 102.5 290t214.5 91q125 0 181.5 -67.5t38.5 -198.5l-4 -29h-74q16 120 -18.5 175t-122.5 55h-7q-99 0 -157.5 -76t-79.5 -240l-5 -40q-40 -316 165 -316h7q106 0 170 60l27 206h-134l8 64h206
l-40 -305q-98 -90 -246 -90z" />
    <glyph glyph-name="gdotaccent" unicode="&#x121;" horiz-adv-x="537" 
d="M348 745l-12 -90h-90l12 90h90zM353 -3l12 97q-55 -67 -151 -67q-106 0 -150 69.5t-29 178.5l3 22q15 114 71.5 179t159.5 65q56 0 96 -27t56 -61l19 77h58l-25 -150l-51 -388q-26 -203 -227 -203q-110 0 -155.5 55t-31.5 143l2 13h65q-24 -148 120 -148q78 0 113.5 35
t44.5 110zM375 167l30 225q-15 34 -46.5 60t-79.5 26q-145 0 -170 -179l-3 -22q-12 -88 19.5 -137.5t106.5 -49.5q85 0 143 77z" />
    <glyph glyph-name="Gcommaaccent" unicode="&#x122;" horiz-adv-x="648" 
d="M324 -56l-7 -51q-7 -52 -38 -79.5t-81 -27.5l5 36q57 0 73 54h-42l9 68h81zM293 -11q-285 0 -237 381l5 40q25 199 102.5 290t214.5 91q125 0 181.5 -67.5t38.5 -198.5l-4 -29h-74q16 120 -18.5 175t-122.5 55h-7q-99 0 -157.5 -76t-79.5 -240l-5 -40q-40 -316 165 -316
h7q106 0 170 60l27 206h-134l8 64h206l-40 -305q-98 -90 -246 -90z" />
    <glyph glyph-name="gcommaaccent" unicode="&#x123;" horiz-adv-x="537" 
d="M353 -3l12 97q-55 -67 -151 -67q-106 0 -150 69.5t-29 178.5l3 22q15 114 71.5 179t159.5 65q56 0 96 -27t56 -61l19 77h58l-25 -150l-51 -388q-26 -203 -227 -203q-110 0 -155.5 55t-31.5 143l2 13h65q-24 -148 120 -148q78 0 113.5 35t44.5 110zM375 167l30 225
q-15 34 -46.5 60t-79.5 26q-145 0 -170 -179l-3 -22q-12 -88 19.5 -137.5t106.5 -49.5q85 0 143 77zM245 614l7 52q16 125 122 125l-5 -36q-64 0 -78 -71h45l-10 -70h-81z" />
    <glyph glyph-name="Hcircumflex" unicode="&#x124;" horiz-adv-x="639" 
d="M546 780h72l-102 -780h-72l48 366h-347l-48 -366h-72l102 780h72l-46 -350h347zM518 840h-67l-57 69l-78 -69h-74l121 110h64z" />
    <glyph glyph-name="hcircumflex" unicode="&#x125;" horiz-adv-x="528" 
d="M191 800l-44 -335q60 76 167 76q84 0 122.5 -46.5t28.5 -123.5l-49 -371h-70l48 361q16 117 -104 117q-91 0 -152 -83l-52 -395h-70l105 800h70zM300 840h-67l-57 69l-78 -69h-74l121 110h64z" />
    <glyph glyph-name="Hbar" unicode="&#x126;" horiz-adv-x="639" 
d="M546 780h72l-102 -780h-72l48 366h-347l-48 -366h-72l102 780h72l-19 -141h347zM153 430h347l19 145h-347z" />
    <glyph glyph-name="hbar" unicode="&#x127;" horiz-adv-x="528" 
d="M303 633h-134l-22 -168q60 76 167 76q84 0 122.5 -46.5t28.5 -123.5l-49 -371h-70l48 361q16 117 -104 117q-91 0 -152 -83l-52 -395h-70l83 633h-92l9 64h91l14 103h70l-14 -103h135z" />
    <glyph glyph-name="Itilde" unicode="&#x128;" horiz-adv-x="229" 
d="M292 936h48q-5 -46 -30.5 -69.5t-62.5 -23.5q-33 0 -72 29t-56 29q-41 0 -45 -47h-48q5 46 30.5 69.5t62.5 23.5q33 0 72 -29t56 -29q41 0 45 47zM204 780l-102 -780h-72l102 780h72z" />
    <glyph glyph-name="itilde" unicode="&#x129;" horiz-adv-x="216" 
d="M260 746h53q-15 -103 -95 -103q-32 0 -74 29t-61 29q-35 0 -41 -47h-53q7 51 32 77t62 26q32 0 74 -29t61 -29q35 0 42 47zM24 0l69 530h70l-69 -530h-70z" />
    <glyph glyph-name="Imacron" unicode="&#x12a;" horiz-adv-x="229" 
d="M67 868l7 54h226l-7 -54h-226zM204 780l-102 -780h-72l102 780h72z" />
    <glyph glyph-name="imacron" unicode="&#x12b;" horiz-adv-x="216" 
d="M29 664l9 66h233l-8 -66h-234zM24 0l69 530h70l-69 -530h-70z" />
    <glyph glyph-name="Ibreve" unicode="&#x12c;" horiz-adv-x="229" 
d="M176 829q-72 0 -105 33.5t-25 87.5h53q-5 -34 15 -54.5t65 -20.5t70 20.5t30 54.5h57q-7 -55 -47.5 -88t-112.5 -33zM204 780l-102 -780h-72l102 780h72z" />
    <glyph glyph-name="ibreve" unicode="&#x12d;" horiz-adv-x="216" 
d="M142 603q-83 0 -118 47.5t-24 129.5h54q-15 -122 88 -122q54 0 84.5 32.5t37.5 89.5h58q-22 -177 -180 -177zM24 0l69 530h70l-69 -530h-70z" />
    <glyph glyph-name="Iogonek" unicode="&#x12e;" horiz-adv-x="229" 
d="M204 780l-102 -780q-100 -43 -100 -113q0 -45 59 -45q32 0 58 13l12 -46q-34 -20 -85 -20q-48 0 -74.5 21t-26.5 61q0 82 86 137l101 772h72z" />
    <glyph glyph-name="iogonek" unicode="&#x12f;" horiz-adv-x="216" 
d="M94 0q-100 -43 -100 -113q0 -45 59 -45q32 0 58 13l12 -46q-34 -20 -85 -20q-48 0 -74.5 21t-26.5 61q0 85 88 138l68 521h70zM202 745l-12 -90h-90l12 90h90z" />
    <glyph glyph-name="Idotaccent" unicode="&#x130;" horiz-adv-x="229" 
d="M227 930l-9 -70h-79l9 70h79zM204 780l-102 -780h-72l102 780h72z" />
    <glyph glyph-name="dotlessi" unicode="&#x131;" horiz-adv-x="216" 
d="M24 0l69 530h70l-69 -530h-70z" />
    <glyph glyph-name="IJ" unicode="&#x132;" horiz-adv-x="499" 
d="M204 780l-102 -780h-72l102 780h72zM328 153l82 627h72l-84 -641q-20 -150 -171 -150q-46 0 -70 12l9 63q22 -10 58 -10q48 0 72.5 21.5t31.5 77.5z" />
    <glyph glyph-name="ij" unicode="&#x133;" horiz-adv-x="383" 
d="M24 0l69 530h70l-69 -530h-70zM202 745l-12 -90h-90l12 90h90zM185 -49l75 579h70l-77 -593q-20 -148 -174 -148q-48 0 -72 12l8 61q22 -10 60 -10q49 0 76 22t34 77zM369 745l-12 -90h-90l12 90h90z" />
    <glyph glyph-name="Jcircumflex" unicode="&#x134;" horiz-adv-x="495" 
d="M589 840h-67l-57 69l-78 -69h-74l121 110h64zM407 780h72l-71 -540q-16 -126 -68 -188.5t-153 -62.5q-212 0 -176 251l2 14h68q-16 -107 9 -153.5t95 -46.5q69 0 104 45.5t49 152.5z" />
    <glyph glyph-name="jcircumflex" unicode="&#x135;" horiz-adv-x="216" 
d="M50 614h-73l153 166h62l109 -166h-66l-78 113zM18 -49l75 579h70l-77 -593q-20 -148 -174 -148q-48 0 -72 12l8 61q23 -10 60 -10q49 0 76 22t34 77z" />
    <glyph glyph-name="Kcommaaccent" unicode="&#x136;" horiz-adv-x="562" 
d="M199 780l-56 -423l349 423h89l-276 -329l174 -451h-80l-147 387l-124 -147l-31 -240h-72l102 780h72zM262 -56l-7 -51q-7 -52 -38 -79.5t-81 -27.5l5 36q57 0 73 54h-42l9 68h81z" />
    <glyph glyph-name="kcommaaccent" unicode="&#x137;" horiz-adv-x="501" 
d="M16 0l105 800h70l-72 -546l286 276h89l-209 -200l140 -330h-76l-117 280l-126 -122l-20 -158h-70zM239 -56l-7 -51q-7 -52 -38 -79.5t-81 -27.5l5 36q57 0 73 54h-42l9 68h81z" />
    <glyph glyph-name="kgreenlandic" unicode="&#x138;" horiz-adv-x="501" 
d="M85 530h70l-36 -276l286 276h89l-209 -200l140 -330h-76l-117 280l-126 -122l-20 -158h-70z" />
    <glyph glyph-name="Lacute" unicode="&#x139;" horiz-adv-x="491" 
d="M210 950h74l-77 -110h-72zM427 0h-402l102 780h72l-94 -715h330z" />
    <glyph glyph-name="lacute" unicode="&#x13a;" horiz-adv-x="217" 
d="M24 0l105 800h70l-105 -800h-70zM208 950h74l-77 -110h-72z" />
    <glyph glyph-name="Lcommaaccent" unicode="&#x13b;" horiz-adv-x="491" 
d="M427 0h-402l102 780h72l-94 -715h330zM260 -56l-7 -51q-7 -52 -38 -79.5t-81 -27.5l5 36q57 0 73 54h-42l9 68h81z" />
    <glyph glyph-name="lcommaaccent" unicode="&#x13c;" horiz-adv-x="217" 
d="M24 0l105 800h70l-105 -800h-70zM93 -56l-7 -51q-7 -52 -38 -79.5t-81 -27.5l5 36q57 0 73 54h-42l9 68h81z" />
    <glyph glyph-name="Lcaron" unicode="&#x13d;" horiz-adv-x="491" 
d="M349 800h57l-42 -186h-40zM427 0h-402l102 780h72l-94 -715h330z" />
    <glyph glyph-name="lcaron" unicode="&#x13e;" horiz-adv-x="217" 
d="M24 0l105 800h70l-105 -800h-70zM273 800h57l-42 -186h-40z" />
    <glyph glyph-name="Ldot" unicode="&#x13f;" horiz-adv-x="491" 
d="M427 0h-402l102 780h72l-94 -715h330zM398 439l-10 -82h-82l11 82h81z" />
    <glyph glyph-name="ldot" unicode="&#x140;" horiz-adv-x="335" 
d="M24 0l105 800h70l-105 -800h-70zM324 395l-12 -90h-90l12 90h90z" />
    <glyph glyph-name="Lslash" unicode="&#x141;" horiz-adv-x="551" 
d="M3 265l9 67l124 60l51 388h72l-46 -351l232 113l-9 -67l-232 -113l-39 -297h330l-8 -65h-402l42 325z" />
    <glyph glyph-name="lslash" unicode="&#x142;" horiz-adv-x="329" 
d="M17 262l9 70l103 71l52 397h70l-45 -344l123 85l-9 -70l-124 -87l-50 -384h-70l44 333z" />
    <glyph glyph-name="Nacute" unicode="&#x143;" horiz-adv-x="659" 
d="M429 950h74l-77 -110h-72zM638 780l-102 -780h-76l-282 658l-21 -183l-62 -475h-70l102 780h76l282 -658l21 183l62 475h70z" />
    <glyph glyph-name="nacute" unicode="&#x144;" horiz-adv-x="528" 
d="M374 780h76l-116 -166h-72zM416 0h-70l48 361q16 117 -104 117q-91 0 -152 -83l-52 -395h-70l51 386l13 144h60v-74q62 85 174 85q84 0 122.5 -46.5t28.5 -123.5z" />
    <glyph glyph-name="Ncommaaccent" unicode="&#x145;" horiz-adv-x="659" 
d="M638 780l-102 -780h-76l-282 658l-21 -183l-62 -475h-70l102 780h76l282 -658l21 183l62 475h70zM313 -56l-7 -51q-7 -52 -38 -79.5t-81 -27.5l5 36q57 0 73 54h-42l9 68h81z" />
    <glyph glyph-name="ncommaaccent" unicode="&#x146;" horiz-adv-x="528" 
d="M251 -56l-7 -51q-7 -52 -38 -79.5t-81 -27.5l5 36q57 0 73 54h-42l9 68h81zM416 0h-70l48 361q16 117 -104 117q-91 0 -152 -83l-52 -395h-70l51 386l13 144h60v-74q62 85 174 85q84 0 122.5 -46.5t28.5 -123.5z" />
    <glyph glyph-name="Ncaron" unicode="&#x147;" horiz-adv-x="659" 
d="M267 950h67l57 -69l78 69h74l-121 -110h-64zM638 780l-102 -780h-76l-282 658l-21 -183l-62 -475h-70l102 780h76l282 -658l21 183l62 475h70z" />
    <glyph glyph-name="ncaron" unicode="&#x148;" horiz-adv-x="528" 
d="M158 780h66l78 -113l107 113h73l-153 -166h-62zM416 0h-70l48 361q16 117 -104 117q-91 0 -152 -83l-52 -395h-70l51 386l13 144h60v-74q62 85 174 85q84 0 122.5 -46.5t28.5 -123.5z" />
    <glyph glyph-name="Eng" unicode="&#x14a;" horiz-adv-x="659" 
d="M460 -49l4 38l-286 669l-21 -183l-62 -475h-70l102 780h76l282 -658l21 183l62 475h70l-110 -843q-20 -148 -174 -148q-48 0 -72 12l8 61q22 -10 60 -10q49 0 76.5 22t33.5 77z" />
    <glyph glyph-name="eng" unicode="&#x14b;" horiz-adv-x="528" 
d="M465 371l-57 -434q-20 -148 -174 -148q-48 0 -72 12l8 61q23 -10 60 -10q49 0 76 22t34 77l54 410q16 117 -104 117q-91 0 -152 -83l-52 -395h-70l51 386l13 144h60v-74q62 85 174 85q84 0 122.5 -46.5t28.5 -123.5z" />
    <glyph glyph-name="Omacron" unicode="&#x14c;" horiz-adv-x="649" 
d="M276 868l7 54h226l-7 -54h-226zM372 791q136 0 192.5 -91t31.5 -290l-5 -40q-25 -200 -100.5 -290.5t-210.5 -90.5q-136 0 -192.5 91t-31.5 290l5 40q25 200 100.5 290.5t210.5 90.5zM278 54h7q99 0 155 75.5t77 240.5l5 40q21 166 -14.5 241t-133.5 75h-7
q-99 0 -155 -75.5t-77 -240.5l-5 -40q-21 -166 14.5 -241t133.5 -75z" />
    <glyph glyph-name="omacron" unicode="&#x14d;" horiz-adv-x="544" 
d="M193 664l9 66h233l-8 -66h-234zM232 52q73 0 118 52t58 147l3 22q13 97 -19 151t-109 54q-73 0 -117.5 -52t-57.5 -147l-3 -22q-13 -97 18.5 -151t108.5 -54zM232 -11q-114 0 -164 74t-34 192l3 22q17 122 78 193t168 71q114 0 164.5 -74t34.5 -192l-3 -22
q-17 -122 -78 -193t-169 -71z" />
    <glyph glyph-name="Obreve" unicode="&#x14e;" horiz-adv-x="649" 
d="M385 829q-72 0 -105 33.5t-25 87.5h53q-5 -34 15 -54.5t65 -20.5t70 20.5t30 54.5h57q-7 -55 -47.5 -88t-112.5 -33zM372 791q136 0 192.5 -91t31.5 -290l-5 -40q-25 -200 -100.5 -290.5t-210.5 -90.5q-136 0 -192.5 91t-31.5 290l5 40q25 200 100.5 290.5t210.5 90.5z
M278 54h7q99 0 155 75.5t77 240.5l5 40q21 166 -14.5 241t-133.5 75h-7q-99 0 -155 -75.5t-77 -240.5l-5 -40q-21 -166 14.5 -241t133.5 -75z" />
    <glyph glyph-name="obreve" unicode="&#x14f;" horiz-adv-x="544" 
d="M306 603q-83 0 -118 47.5t-24 129.5h54q-15 -122 88 -122q54 0 84.5 32.5t37.5 89.5h58q-22 -177 -180 -177zM232 52q73 0 118 52t58 147l3 22q13 97 -19 151t-109 54q-73 0 -117.5 -52t-57.5 -147l-3 -22q-13 -97 18.5 -151t108.5 -54zM232 -11q-114 0 -164 74t-34 192
l3 22q17 122 78 193t168 71q114 0 164.5 -74t34.5 -192l-3 -22q-17 -122 -78 -193t-169 -71z" />
    <glyph glyph-name="Ohungarumlaut" unicode="&#x150;" horiz-adv-x="649" 
d="M362 950h70l-76 -110h-67zM489 950h70l-78 -110h-67zM372 791q136 0 192.5 -91t31.5 -290l-5 -40q-25 -200 -100.5 -290.5t-210.5 -90.5q-136 0 -192.5 91t-31.5 290l5 40q25 200 100.5 290.5t210.5 90.5zM278 54h7q99 0 155 75.5t77 240.5l5 40q21 166 -14.5 241
t-133.5 75h-7q-99 0 -155 -75.5t-77 -240.5l-5 -40q-21 -166 14.5 -241t133.5 -75z" />
    <glyph glyph-name="ohungarumlaut" unicode="&#x151;" horiz-adv-x="544" 
d="M445 780h68l-117 -166h-63zM316 780h67l-110 -166h-63zM232 52q73 0 118 52t58 147l3 22q13 97 -19 151t-109 54q-73 0 -117.5 -52t-57.5 -147l-3 -22q-13 -97 18.5 -151t108.5 -54zM232 -11q-114 0 -164 74t-34 192l3 22q17 122 78 193t168 71q114 0 164.5 -74
t34.5 -192l-3 -22q-17 -122 -78 -193t-169 -71z" />
    <glyph glyph-name="OE" unicode="&#x152;" horiz-adv-x="940" 
d="M510 715h-99q-238 0 -276 -305l-5 -40q-20 -161 30.5 -233t164.5 -72h99zM56 370l5 40q46 370 352 370h540l-8 -65h-364l-37 -285h312l-8 -64h-313l-39 -301h363l-8 -65h-533q-149 0 -218 87.5t-44 282.5z" />
    <glyph glyph-name="oe" unicode="&#x153;" horiz-adv-x="888" 
d="M852 236h-374q-19 -184 142 -184q73 0 111 34.5t45 83.5h67l-2 -13q-10 -66 -68 -117t-155 -51q-154 0 -192 117q-60 -117 -194 -117q-114 0 -164 74t-34 192l3 22q17 122 78 193t168 71q143 0 181 -121q64 121 200 121q116 0 162.5 -71.5t30.5 -194.5zM232 52
q73 0 118 52t58 147l3 22q13 97 -19 151t-109 54q-73 0 -117.5 -52t-57.5 -147l-3 -22q-13 -97 18.5 -151t108.5 -54zM664 478q-72 0 -120 -50.5t-59 -133.5h304q25 184 -125 184z" />
    <glyph glyph-name="Racute" unicode="&#x154;" horiz-adv-x="584" 
d="M138 317l-41 -317h-72l102 780h214q46 0 84.5 -10.5t72.5 -34.5t49.5 -70.5t5.5 -110.5l-3 -20q-25 -162 -162 -203l92 -331h-79l-83 318q-11 -1 -33 -1h-147zM147 382h149q160 0 181 156l2 15q6 48 -5 81.5t-35.5 50t-49.5 23.5t-54 7h-145zM374 950h74l-77 -110h-72z
" />
    <glyph glyph-name="racute" unicode="&#x155;" horiz-adv-x="333" 
d="M285 780h76l-116 -166h-72zM297 541l14 -1l-8 -69h-14q-96 0 -152 -84l-51 -387h-70l51 386l13 144h60v-69q57 80 157 80z" />
    <glyph glyph-name="Rcommaaccent" unicode="&#x156;" horiz-adv-x="584" 
d="M138 317l-41 -317h-72l102 780h214q46 0 84.5 -10.5t72.5 -34.5t49.5 -70.5t5.5 -110.5l-3 -20q-25 -162 -162 -203l92 -331h-79l-83 318q-11 -1 -33 -1h-147zM147 382h149q160 0 181 156l2 15q6 48 -5 81.5t-35.5 50t-49.5 23.5t-54 7h-145zM268 -56l-7 -51
q-7 -52 -38 -79.5t-81 -27.5l5 36q57 0 73 54h-42l9 68h81z" />
    <glyph glyph-name="rcommaaccent" unicode="&#x157;" horiz-adv-x="333" 
d="M86 -56l-7 -51q-7 -52 -38 -79.5t-81 -27.5l5 36q57 0 73 54h-42l9 68h81zM297 541l14 -1l-8 -69h-14q-96 0 -152 -84l-51 -387h-70l51 386l13 144h60v-69q57 80 157 80z" />
    <glyph glyph-name="Rcaron" unicode="&#x158;" horiz-adv-x="584" 
d="M138 317l-41 -317h-72l102 780h214q46 0 84.5 -10.5t72.5 -34.5t49.5 -70.5t5.5 -110.5l-3 -20q-25 -162 -162 -203l92 -331h-79l-83 318q-11 -1 -33 -1h-147zM147 382h149q160 0 181 156l2 15q6 48 -5 81.5t-35.5 50t-49.5 23.5t-54 7h-145zM212 950h67l57 -69l78 69h74
l-121 -110h-64z" />
    <glyph glyph-name="rcaron" unicode="&#x159;" horiz-adv-x="333" 
d="M69 780h66l78 -113l107 113h73l-153 -166h-62zM297 541l14 -1l-8 -69h-14q-96 0 -152 -84l-51 -387h-70l51 386l13 144h60v-69q57 80 157 80z" />
    <glyph glyph-name="Sacute" unicode="&#x15a;" horiz-adv-x="601" 
d="M400 950h74l-77 -110h-72zM286 371q-231 41 -205 214l3 20q29 186 258 186q262 0 224 -261l-2 -14h-72q31 210 -149 210h-10q-74 0 -121 -31t-55 -92l-2 -15q-9 -64 29.5 -102t139.5 -56q237 -43 210 -222l-3 -20q-15 -100 -86 -149.5t-189 -49.5q-124 0 -184.5 66
t-43.5 185l2 14h72q-19 -102 24 -151t128 -49h10q82 0 133.5 34t60.5 102l2 15q9 68 -33 108.5t-141 57.5z" />
    <glyph glyph-name="sacute" unicode="&#x15b;" horiz-adv-x="522" 
d="M368 780h76l-116 -166h-72zM222 52q141 0 141 106q0 38 -29.5 56.5t-99.5 28.5q-97 13 -137 50t-32 100l1 8q8 66 61.5 103t142.5 37q108 0 154 -45.5t34 -123.5l-2 -13h-68q8 60 -19 89.5t-99 29.5q-135 0 -135 -100q0 -35 29 -52.5t102 -26.5q92 -11 134 -48.5
t33 -107.5l-1 -8q-9 -67 -63 -106.5t-147 -39.5q-111 0 -158 45t-36 115l2 13h69q-7 -53 20.5 -81.5t102.5 -28.5z" />
    <glyph glyph-name="Scircumflex" unicode="&#x15c;" horiz-adv-x="601" 
d="M499 840h-67l-57 69l-78 -69h-74l121 110h64zM286 371q-231 41 -205 214l3 20q29 186 258 186q262 0 224 -261l-2 -14h-72q31 210 -149 210h-10q-74 0 -121 -31t-55 -92l-2 -15q-9 -64 29.5 -102t139.5 -56q237 -43 210 -222l-3 -20q-15 -100 -86 -149.5t-189 -49.5
q-124 0 -184.5 66t-43.5 185l2 14h72q-19 -102 24 -151t128 -49h10q82 0 133.5 34t60.5 102l2 15q9 68 -33 108.5t-141 57.5z" />
    <glyph glyph-name="scircumflex" unicode="&#x15d;" horiz-adv-x="522" 
d="M203 614h-73l153 166h62l109 -166h-66l-78 113zM222 52q141 0 141 106q0 38 -29.5 56.5t-99.5 28.5q-97 13 -137 50t-32 100l1 8q8 66 61.5 103t142.5 37q108 0 154 -45.5t34 -123.5l-2 -13h-68q8 60 -19 89.5t-99 29.5q-135 0 -135 -100q0 -35 29 -52.5t102 -26.5
q92 -11 134 -48.5t33 -107.5l-1 -8q-9 -67 -63 -106.5t-147 -39.5q-111 0 -158 45t-36 115l2 13h69q-7 -53 20.5 -81.5t102.5 -28.5z" />
    <glyph glyph-name="Scedilla" unicode="&#x15e;" horiz-adv-x="601" 
d="M286 371q-231 41 -205 214l3 20q29 186 258 186q262 0 224 -261l-2 -14h-72q31 210 -149 210h-10q-74 0 -121 -31t-55 -92l-2 -15q-9 -64 29.5 -102t139.5 -56q237 -43 210 -222l-3 -20q-29 -191 -259 -199l-25 -47h4q86 -2 86 -69q0 -42 -29.5 -63t-78.5 -21
q-57 0 -92 27l20 36q29 -21 71 -21q62 0 62 39q0 34 -55 34l-31 -3l-13 19l36 70q-110 8 -162.5 73t-36.5 177l2 14h72q-19 -102 24 -151t128 -49h10q82 0 133.5 34t60.5 102l2 15q9 68 -33 108.5t-141 57.5z" />
    <glyph glyph-name="scedilla" unicode="&#x15f;" horiz-adv-x="522" 
d="M222 52q141 0 141 106q0 38 -29.5 56.5t-99.5 28.5q-97 13 -137 50t-32 100l1 8q8 66 61.5 103t142.5 37q108 0 154 -45.5t34 -123.5l-2 -13h-68q8 60 -19 89.5t-99 29.5q-135 0 -135 -100q0 -35 29 -52.5t102 -26.5q92 -11 134 -48.5t33 -107.5l-1 -8q-9 -64 -58.5 -103
t-136.5 -42l-25 -48h4q86 -2 86 -69q0 -42 -29.5 -63t-78.5 -21q-57 0 -92 27l20 36q29 -21 71 -21q62 0 62 39q0 34 -55 34l-31 -3l-13 19l36 70q-95 6 -134.5 50t-29.5 109l2 13h69q-7 -53 20.5 -81.5t102.5 -28.5z" />
    <glyph glyph-name="Scaron" unicode="&#x160;" horiz-adv-x="601" 
d="M238 950h67l57 -69l78 69h74l-121 -110h-64zM286 371q-231 41 -205 214l3 20q29 186 258 186q262 0 224 -261l-2 -14h-72q31 210 -149 210h-10q-74 0 -121 -31t-55 -92l-2 -15q-9 -64 29.5 -102t139.5 -56q237 -43 210 -222l-3 -20q-15 -100 -86 -149.5t-189 -49.5
q-124 0 -184.5 66t-43.5 185l2 14h72q-19 -102 24 -151t128 -49h10q82 0 133.5 34t60.5 102l2 15q9 68 -33 108.5t-141 57.5z" />
    <glyph glyph-name="scaron" unicode="&#x161;" horiz-adv-x="522" 
d="M152 780h66l78 -113l107 113h73l-153 -166h-62zM222 52q141 0 141 106q0 38 -29.5 56.5t-99.5 28.5q-97 13 -137 50t-32 100l1 8q8 66 61.5 103t142.5 37q108 0 154 -45.5t34 -123.5l-2 -13h-68q8 60 -19 89.5t-99 29.5q-135 0 -135 -100q0 -35 29 -52.5t102 -26.5
q92 -11 134 -48.5t33 -107.5l-1 -8q-9 -67 -63 -106.5t-147 -39.5q-111 0 -158 45t-36 115l2 13h69q-7 -53 20.5 -81.5t102.5 -28.5z" />
    <glyph glyph-name="Tcommaaccent" unicode="&#x162;" horiz-adv-x="515" 
d="M241 -56l-7 -51q-7 -52 -38 -79.5t-81 -27.5l5 36q57 0 73 54h-42l9 68h81zM338 715l-94 -715h-72l94 715h-198l8 65h469l-8 -65h-199z" />
    <glyph glyph-name="tcommaaccent" unicode="&#x163;" horiz-adv-x="400" 
d="M216 -56l-7 -51q-7 -52 -38 -79.5t-81 -27.5l5 36q57 0 73 54h-42l9 68h81zM205 530h168l-8 -63h-168l-41 -312q-8 -59 13.5 -81t65.5 -22q40 0 67 9l-8 -61q-33 -11 -69 -11q-161 0 -140 159l42 319h-84l8 63h84l20 150h70z" />
    <glyph glyph-name="Tcaron" unicode="&#x164;" horiz-adv-x="515" 
d="M195 950h67l57 -69l78 69h74l-121 -110h-64zM338 715l-94 -715h-72l94 715h-198l8 65h469l-8 -65h-199z" />
    <glyph glyph-name="tcaron" unicode="&#x165;" horiz-adv-x="400" 
d="M315 800h57l-42 -186h-40zM205 530h168l-8 -63h-168l-41 -312q-8 -59 13.5 -81t65.5 -22q40 0 67 9l-8 -61q-33 -11 -69 -11q-161 0 -140 159l42 319h-84l8 63h84l20 150h70z" />
    <glyph glyph-name="Tbar" unicode="&#x166;" horiz-adv-x="515" 
d="M417 366h-125l-48 -366h-72l48 366h-126l9 64h125l38 285h-198l8 65h469l-8 -65h-199l-38 -285h126z" />
    <glyph glyph-name="tbar" unicode="&#x167;" horiz-adv-x="400" 
d="M296 233h-130l-10 -78q-8 -59 13.5 -81t65.5 -22q40 0 67 9l-8 -61q-33 -11 -69 -11q-161 0 -140 159l11 85h-81l9 64h80l23 170h-84l8 63h84l20 150h70l-20 -150h168l-8 -63h-168l-23 -170h131z" />
    <glyph glyph-name="Utilde" unicode="&#x168;" horiz-adv-x="639" 
d="M496 936h48q-5 -46 -30.5 -69.5t-62.5 -23.5q-33 0 -72 29t-56 29q-41 0 -45 -47h-48q5 46 30.5 69.5t62.5 23.5q33 0 72 -29t56 -29q41 0 45 47zM272 -11q-129 0 -184 58.5t-37 194.5l71 538h72l-70 -533q-14 -107 21.5 -150t128.5 -43t143 44t64 149l70 533h72
l-71 -538q-18 -136 -85.5 -194.5t-194.5 -58.5z" />
    <glyph glyph-name="utilde" unicode="&#x169;" horiz-adv-x="528" 
d="M413 746h53q-15 -103 -95 -103q-32 0 -74 29t-61 29q-35 0 -41 -47h-53q7 51 32 77t62 26q32 0 74 -29t61 -29q35 0 42 47zM82 530h70l-48 -361q-16 -117 104 -117q91 0 152 83l52 395h70l-51 -386l-13 -144h-60v74q-62 -85 -174 -85q-84 0 -122.5 46.5t-28.5 123.5z" />
    <glyph glyph-name="Umacron" unicode="&#x16a;" horiz-adv-x="639" 
d="M271 868l7 54h226l-7 -54h-226zM272 -11q-129 0 -184 58.5t-37 194.5l71 538h72l-70 -533q-14 -107 21.5 -150t128.5 -43t143 44t64 149l70 533h72l-71 -538q-18 -136 -85.5 -194.5t-194.5 -58.5z" />
    <glyph glyph-name="umacron" unicode="&#x16b;" horiz-adv-x="528" 
d="M182 664l9 66h233l-8 -66h-234zM82 530h70l-48 -361q-16 -117 104 -117q91 0 152 83l52 395h70l-51 -386l-13 -144h-60v74q-62 -85 -174 -85q-84 0 -122.5 46.5t-28.5 123.5z" />
    <glyph glyph-name="Ubreve" unicode="&#x16c;" horiz-adv-x="639" 
d="M380 829q-72 0 -105 33.5t-25 87.5h53q-5 -34 15 -54.5t65 -20.5t70 20.5t30 54.5h57q-7 -55 -47.5 -88t-112.5 -33zM272 -11q-129 0 -184 58.5t-37 194.5l71 538h72l-70 -533q-14 -107 21.5 -150t128.5 -43t143 44t64 149l70 533h72l-71 -538q-18 -136 -85.5 -194.5
t-194.5 -58.5z" />
    <glyph glyph-name="ubreve" unicode="&#x16d;" horiz-adv-x="528" 
d="M295 603q-83 0 -118 47.5t-24 129.5h54q-15 -122 88 -122q54 0 84.5 32.5t37.5 89.5h58q-22 -177 -180 -177zM82 530h70l-48 -361q-16 -117 104 -117q91 0 152 83l52 395h70l-51 -386l-13 -144h-60v74q-62 -85 -174 -85q-84 0 -122.5 46.5t-28.5 123.5z" />
    <glyph glyph-name="Uring" unicode="&#x16e;" horiz-adv-x="639" 
d="M375 811q27 0 46 16t19 47q0 22 -12.5 35.5t-35.5 13.5q-27 0 -46 -16t-19 -47q0 -22 12.5 -35.5t35.5 -13.5zM375 773q-40 0 -63.5 24.5t-23.5 62.5q0 43 30.5 72t73.5 29q40 0 63.5 -24.5t23.5 -62.5q0 -43 -30.5 -72t-73.5 -29zM272 -11q-129 0 -184 58.5t-37 194.5
l71 538h72l-70 -533q-14 -107 21.5 -150t128.5 -43t143 44t64 149l70 533h72l-71 -538q-18 -136 -85.5 -194.5t-194.5 -58.5z" />
    <glyph glyph-name="uring" unicode="&#x16f;" horiz-adv-x="528" 
d="M295 641q27 0 46 16t19 47q0 22 -12.5 35.5t-35.5 13.5q-27 0 -46 -16t-19 -47q0 -22 12.5 -35.5t35.5 -13.5zM295 603q-40 0 -63.5 24.5t-23.5 62.5q0 43 30.5 72t73.5 29q40 0 63.5 -24.5t23.5 -62.5q0 -43 -30.5 -72t-73.5 -29zM82 530h70l-48 -361q-16 -117 104 -117
q91 0 152 83l52 395h70l-51 -386l-13 -144h-60v74q-62 -85 -174 -85q-84 0 -122.5 46.5t-28.5 123.5z" />
    <glyph glyph-name="Uhungarumlaut" unicode="&#x170;" horiz-adv-x="639" 
d="M357 950h70l-76 -110h-67zM484 950h70l-78 -110h-67zM272 -11q-129 0 -184 58.5t-37 194.5l71 538h72l-70 -533q-14 -107 21.5 -150t128.5 -43t143 44t64 149l70 533h72l-71 -538q-18 -136 -85.5 -194.5t-194.5 -58.5z" />
    <glyph glyph-name="uhungarumlaut" unicode="&#x171;" horiz-adv-x="528" 
d="M434 780h68l-117 -166h-63zM305 780h67l-110 -166h-63zM82 530h70l-48 -361q-16 -117 104 -117q91 0 152 83l52 395h70l-51 -386l-13 -144h-60v74q-62 -85 -174 -85q-84 0 -122.5 46.5t-28.5 123.5z" />
    <glyph glyph-name="Uogonek" unicode="&#x172;" horiz-adv-x="639" 
d="M272 -11q-129 0 -184 58.5t-37 194.5l71 538h72l-70 -533q-14 -107 21.5 -150t128.5 -43t143 44t64 149l70 533h72l-71 -538q-14 -106 -58 -164.5t-121 -77.5q-37 -9 -68.5 -41t-31.5 -72q0 -45 59 -45q32 0 58 13l12 -46q-34 -20 -85 -20q-48 0 -74.5 21t-26.5 61
q0 69 59 118h-3z" />
    <glyph glyph-name="uogonek" unicode="&#x173;" horiz-adv-x="528" 
d="M82 530h70l-48 -361q-16 -117 104 -117q91 0 152 83l52 395h70l-51 -386l-13 -144q-100 -43 -100 -113q0 -45 59 -45q32 0 58 13l12 -46q-34 -20 -85 -20q-48 0 -74.5 21t-26.5 61q0 89 97 143v60q-62 -85 -174 -85q-84 0 -122.5 46.5t-28.5 123.5z" />
    <glyph glyph-name="Wcircumflex" unicode="&#x174;" horiz-adv-x="895" 
d="M646 840h-67l-57 69l-78 -69h-74l121 110h64zM560 -8l-69 714l-256 -714h-98l-43 788h74l30 -699l252 699h97l69 -699l213 699h78l-248 -788h-99z" />
    <glyph glyph-name="wcircumflex" unicode="&#x175;" horiz-adv-x="717" 
d="M300 614h-73l153 166h62l109 -166h-66l-78 113zM368 452l-180 -452h-92l-45 530h69l33 -457l182 457h85l63 -457l152 457h71l-183 -530h-93z" />
    <glyph glyph-name="Ycircumflex" unicode="&#x176;" horiz-adv-x="577" 
d="M488 840h-67l-57 69l-78 -69h-74l121 110h64zM307 236l-31 -236h-72l31 236l-161 544h75l132 -456l248 456h81z" />
    <glyph glyph-name="ycircumflex" unicode="&#x177;" horiz-adv-x="484" 
d="M191 614h-73l153 166h62l109 -166h-66l-78 113zM210 96l208 434h78l-257 -510l-104 -220h-81l112 220l-123 510h72z" />
    <glyph glyph-name="Ydieresis" unicode="&#x178;" horiz-adv-x="577" 
d="M323 930l-9 -70h-79l9 70h79zM479 930l-9 -70h-79l9 70h79zM307 236l-31 -236h-72l31 236l-161 544h75l132 -456l248 456h81z" />
    <glyph glyph-name="Zacute" unicode="&#x179;" horiz-adv-x="563" 
d="M378 950h74l-77 -110h-72zM-4 50l475 668l-126 -3h-251l8 65h463l-6 -50l-475 -668l126 3h271l-8 -65h-483z" />
    <glyph glyph-name="zacute" unicode="&#x17a;" horiz-adv-x="463" 
d="M336 780h76l-116 -166h-72zM-8 48l346 420l-118 -1h-163l8 63h371l-6 -48l-346 -420l118 1h183l-8 -63h-391z" />
    <glyph glyph-name="Zdotaccent" unicode="&#x17b;" horiz-adv-x="563" 
d="M390 930l-9 -70h-79l9 70h79zM-4 50l475 668l-126 -3h-251l8 65h463l-6 -50l-475 -668l126 3h271l-8 -65h-483z" />
    <glyph glyph-name="zdotaccent" unicode="&#x17c;" horiz-adv-x="463" 
d="M322 745l-12 -90h-90l12 90h90zM-8 48l346 420l-118 -1h-163l8 63h371l-6 -48l-346 -420l118 1h183l-8 -63h-391z" />
    <glyph glyph-name="Zcaron" unicode="&#x17d;" horiz-adv-x="563" 
d="M216 950h67l57 -69l78 69h74l-121 -110h-64zM-4 50l475 668l-126 -3h-251l8 65h463l-6 -50l-475 -668l126 3h271l-8 -65h-483z" />
    <glyph glyph-name="zcaron" unicode="&#x17e;" horiz-adv-x="463" 
d="M120 780h66l78 -113l107 113h73l-153 -166h-62zM-8 48l346 420l-118 -1h-163l8 63h371l-6 -48l-346 -420l118 1h183l-8 -63h-391z" />
    <glyph glyph-name="Scommaaccent" unicode="&#x218;" horiz-adv-x="601" 
d="M284 -56l-7 -51q-7 -52 -38 -79.5t-81 -27.5l5 36q57 0 73 54h-42l9 68h81zM286 371q-231 41 -205 214l3 20q29 186 258 186q262 0 224 -261l-2 -14h-72q31 210 -149 210h-10q-74 0 -121 -31t-55 -92l-2 -15q-9 -64 29.5 -102t139.5 -56q237 -43 210 -222l-3 -20
q-15 -100 -86 -149.5t-189 -49.5q-124 0 -184.5 66t-43.5 185l2 14h72q-19 -102 24 -151t128 -49h10q82 0 133.5 34t60.5 102l2 15q9 68 -33 108.5t-141 57.5z" />
    <glyph glyph-name="scommaaccent" unicode="&#x219;" horiz-adv-x="522" 
d="M245 -56l-7 -51q-7 -52 -38 -79.5t-81 -27.5l5 36q57 0 73 54h-42l9 68h81zM222 52q141 0 141 106q0 38 -29.5 56.5t-99.5 28.5q-97 13 -137 50t-32 100l1 8q8 66 61.5 103t142.5 37q108 0 154 -45.5t34 -123.5l-2 -13h-68q8 60 -19 89.5t-99 29.5q-135 0 -135 -100
q0 -35 29 -52.5t102 -26.5q92 -11 134 -48.5t33 -107.5l-1 -8q-9 -67 -63 -106.5t-147 -39.5q-111 0 -158 45t-36 115l2 13h69q-7 -53 20.5 -81.5t102.5 -28.5z" />
    <glyph glyph-name="Ymacron" unicode="&#x232;" horiz-adv-x="577" 
d="M241 868l7 54h226l-7 -54h-226zM307 236l-31 -236h-72l31 236l-161 544h75l132 -456l248 456h81z" />
    <glyph glyph-name="ymacron" unicode="&#x233;" horiz-adv-x="484" 
d="M170 664l9 66h233l-8 -66h-234zM210 96l208 434h78l-257 -510l-104 -220h-81l112 220l-123 510h72z" />
    <glyph glyph-name="dotlessj" unicode="&#x237;" horiz-adv-x="216" 
d="M18 -49l75 579h70l-77 -593q-20 -148 -174 -148q-48 0 -72 12l8 61q23 -10 60 -10q49 0 76 22t34 77z" />
    <glyph glyph-name="circumflex" unicode="&#x2c6;" horiz-adv-x="500" 
d="M192 614h-73l153 166h62l109 -166h-66l-78 113z" />
    <glyph glyph-name="caron" unicode="&#x2c7;" horiz-adv-x="500" 
d="M141 780h66l78 -113l107 113h73l-153 -166h-62z" />
    <glyph glyph-name="breve" unicode="&#x2d8;" horiz-adv-x="500" 
d="M284 603q-83 0 -118 47.5t-24 129.5h54q-15 -122 88 -122q54 0 84.5 32.5t37.5 89.5h58q-22 -177 -180 -177z" />
    <glyph glyph-name="dotaccent" unicode="&#x2d9;" horiz-adv-x="500" 
d="M343 745l-12 -90h-90l12 90h90z" />
    <glyph glyph-name="ring" unicode="&#x2da;" horiz-adv-x="500" 
d="M284 641q27 0 46 16t19 47q0 22 -12.5 35.5t-35.5 13.5q-27 0 -46 -16t-19 -47q0 -22 12.5 -35.5t35.5 -13.5zM284 603q-40 0 -63.5 24.5t-23.5 62.5q0 43 30.5 72t73.5 29q40 0 63.5 -24.5t23.5 -62.5q0 -43 -30.5 -72t-73.5 -29z" />
    <glyph glyph-name="ogonek" unicode="&#x2db;" horiz-adv-x="602" 
d="M234 0q-100 -43 -100 -113q0 -45 59 -45q32 0 58 13l12 -46q-34 -20 -85 -20q-48 0 -74.5 21t-26.5 61q0 60 42 101.5t103 64.5z" />
    <glyph glyph-name="tilde" unicode="&#x2dc;" horiz-adv-x="500" 
d="M402 746h53q-15 -103 -95 -103q-32 0 -74 29t-61 29q-35 0 -41 -47h-53q7 51 32 77t62 26q32 0 74 -29t61 -29q35 0 42 47z" />
    <glyph glyph-name="hungarumlaut" unicode="&#x2dd;" horiz-adv-x="500" 
d="M423 780h68l-117 -166h-63zM294 780h67l-110 -166h-63z" />
    <glyph glyph-name="Bdotaccent" unicode="&#x1e02;" horiz-adv-x="586" 
d="M386 930l-9 -70h-79l9 70h79zM127 780h204q104 0 161 -49t44 -151l-2 -16q-8 -64 -46 -107t-93 -56q56 -10 89.5 -60.5t24.5 -122.5l-2 -16q-26 -202 -263 -202h-219zM300 368h-155l-40 -303h147q163 0 181 139l2 16q9 73 -29.5 110.5t-105.5 37.5zM326 715h-135
l-37 -282h134q156 0 172 133l2 16q9 69 -28.5 101t-107.5 32z" />
    <glyph glyph-name="bdotaccent" unicode="&#x1e03;" horiz-adv-x="537" 
d="M192 800l-43 -326q55 67 150 67q105 0 149.5 -73.5t28.5 -192.5l-3 -22q-17 -123 -74.5 -193.5t-159.5 -70.5q-56 0 -95.5 27t-55.5 61l-19 -77h-58l25 150l85 650h70zM105 138q16 -35 47.5 -60.5t78.5 -25.5q144 0 172 199l3 22q13 97 -18.5 151t-105.5 54
q-86 0 -142 -77zM213 930l-9 -70h-79l9 70h79z" />
    <glyph glyph-name="Ddotaccent" unicode="&#x1e0a;" horiz-adv-x="639" 
d="M404 930l-9 -70h-79l9 70h79zM586 410l-5 -40q-46 -370 -352 -370h-204l102 780h197q149 0 218 -87.5t44 -282.5zM105 65h126q238 0 276 305l5 40q20 161 -30.5 233t-164.5 72h-126z" />
    <glyph glyph-name="ddotaccent" unicode="&#x1e0b;" horiz-adv-x="540" 
d="M212 -11q-105 0 -149.5 73.5t-28.5 192.5l3 22q17 123 74.5 193.5t159.5 70.5q54 0 91.5 -24t53.5 -52l44 335h70l-86 -656l-13 -144h-60v67q-25 -36 -67.5 -57t-91.5 -21zM280 478q-144 0 -172 -199l-3 -22q-13 -97 19 -151t105 -54q86 0 143 76l34 263q-16 35 -47.5 61
t-78.5 26zM551 930l-9 -70h-79l9 70h79z" />
    <glyph glyph-name="Fdotaccent" unicode="&#x1e1e;" horiz-adv-x="513" 
d="M127 780h419l-8 -65h-348l-37 -285h296l-9 -64h-296l-47 -366h-72zM412 930l-9 -70h-79l9 70h79z" />
    <glyph glyph-name="fdotaccent" unicode="&#x1e1f;" horiz-adv-x="380" 
d="M221 650l-16 -120h148l-8 -63h-148l-61 -467h-70l61 467h-84l8 63h84l18 134q19 147 175 147q48 0 72 -12l-8 -60q-20 9 -60 9q-49 0 -76.5 -21.5t-34.5 -76.5zM351 930l-9 -70h-79l9 70h79z" />
    <glyph glyph-name="Mdotaccent" unicode="&#x1e40;" horiz-adv-x="803" 
d="M515 930l-9 -70h-79l9 70h79zM698 655l-313 -655h-65l-141 655l-20 -174l-62 -481h-72l102 780h99l140 -656l314 656h103l-102 -780h-72l62 481z" />
    <glyph glyph-name="mdotaccent" unicode="&#x1e41;" horiz-adv-x="805" 
d="M696 0h-70l49 374q14 104 -92 104q-44 0 -81 -24.5t-59 -55.5l-52 -398h-70l49 374q14 104 -92 104q-81 0 -140 -80l-52 -398h-70l51 386l13 144h60v-71q61 82 162 82q114 0 136 -88q68 88 169 88q73 0 111 -40.5t28 -116.5zM499 745l-12 -90h-90l12 90h90z" />
    <glyph glyph-name="Pdotaccent" unicode="&#x1e56;" horiz-adv-x="573" 
d="M399 930l-9 -70h-79l9 70h79zM138 317l-41 -317h-72l102 780h214q46 0 84.5 -10.5t72.5 -34.5t49.5 -70.5t5.5 -110.5l-3 -20q-33 -217 -265 -217h-147zM147 382h149q160 0 181 156l2 15q6 48 -5 81.5t-35.5 50t-49.5 23.5t-54 7h-145z" />
    <glyph glyph-name="pdotaccent" unicode="&#x1e57;" horiz-adv-x="537" 
d="M299 541q105 0 149.5 -73.5t28.5 -192.5l-3 -22q-17 -123 -74.5 -193.5t-159.5 -70.5q-54 0 -91.5 24t-53.5 52l-35 -265h-70l77 586l13 144h60v-67q25 36 67.5 57t91.5 21zM231 52q144 0 172 199l3 22q13 97 -19 151t-105 54q-86 0 -143 -76l-34 -263q16 -35 47.5 -61
t78.5 -26zM368 745l-12 -90h-90l12 90h90z" />
    <glyph glyph-name="Tdotaccent" unicode="&#x1e6a;" horiz-adv-x="515" 
d="M369 930l-9 -70h-79l9 70h79zM338 715l-94 -715h-72l94 715h-198l8 65h469l-8 -65h-199z" />
    <glyph glyph-name="tdotaccent" unicode="&#x1e6b;" horiz-adv-x="400" 
d="M205 530h168l-8 -63h-168l-41 -312q-8 -59 13.5 -81t65.5 -22q40 0 67 9l-8 -61q-33 -11 -69 -11q-161 0 -140 159l42 319h-84l8 63h84l20 150h70zM247 810l-9 -70h-79l9 70h79z" />
    <glyph glyph-name="Wgrave" unicode="&#x1e80;" horiz-adv-x="895" 
d="M425 950h74l45 -110h-72zM560 -8l-69 714l-256 -714h-98l-43 788h74l30 -699l252 699h97l69 -699l213 699h78l-248 -788h-99z" />
    <glyph glyph-name="wgrave" unicode="&#x1e81;" horiz-adv-x="717" 
d="M281 780h76l68 -166h-72zM368 452l-180 -452h-92l-45 530h69l33 -457l182 457h85l63 -457l152 457h71l-183 -530h-93z" />
    <glyph glyph-name="Wacute" unicode="&#x1e82;" horiz-adv-x="895" 
d="M547 950h74l-77 -110h-72zM560 -8l-69 714l-256 -714h-98l-43 788h74l30 -699l252 699h97l69 -699l213 699h78l-248 -788h-99z" />
    <glyph glyph-name="wacute" unicode="&#x1e83;" horiz-adv-x="717" 
d="M465 780h76l-116 -166h-72zM368 452l-180 -452h-92l-45 530h69l33 -457l182 457h85l63 -457l152 457h71l-183 -530h-93z" />
    <glyph glyph-name="Wdieresis" unicode="&#x1e84;" horiz-adv-x="895" 
d="M481 930l-9 -70h-79l9 70h79zM637 930l-9 -70h-79l9 70h79zM560 -8l-69 714l-256 -714h-98l-43 788h74l30 -699l252 699h97l69 -699l213 699h78l-248 -788h-99z" />
    <glyph glyph-name="wdieresis" unicode="&#x1e85;" horiz-adv-x="717" 
d="M368 745l-12 -90h-90l12 90h90zM535 745l-12 -90h-90l12 90h90zM368 452l-180 -452h-92l-45 530h69l33 -457l182 457h85l63 -457l152 457h71l-183 -530h-93z" />
    <glyph glyph-name="Eszett" unicode="&#x1e9e;" horiz-adv-x="757" 
d="M314 438l194 273q-41 15 -109 15q-103 0 -163 -44.5t-74 -148.5l-70 -533h-72l71 538q17 134 95 193.5t215 59.5q123 0 189 -40l-6 -45l-186 -261l88 -11q113 -14 170 -74t43 -152l-3 -20q-14 -98 -81.5 -148.5t-167.5 -50.5q-116 0 -171 65.5t-38 185.5l2 14h72
q-19 -102 20 -151t113 -49h10q64 0 111.5 34.5t56.5 101.5l2 15q10 75 -31.5 115t-134.5 51l-151 19z" />
    <glyph glyph-name="Ygrave" unicode="&#x1ef2;" horiz-adv-x="577" 
d="M267 950h74l45 -110h-72zM307 236l-31 -236h-72l31 236l-161 544h75l132 -456l248 456h81z" />
    <glyph glyph-name="ygrave" unicode="&#x1ef3;" horiz-adv-x="484" 
d="M172 780h76l68 -166h-72zM210 96l208 434h78l-257 -510l-104 -220h-81l112 220l-123 510h72z" />
    <glyph glyph-name="enspace" unicode="&#x2002;" horiz-adv-x="500" 
 />
    <glyph glyph-name="emspace" unicode="&#x2003;" horiz-adv-x="1000" 
 />
    <glyph glyph-name="threeperemspace" unicode="&#x2004;" horiz-adv-x="333" 
 />
    <glyph glyph-name="fourperemspace" unicode="&#x2005;" horiz-adv-x="250" 
 />
    <glyph glyph-name="sixperemspace" unicode="&#x2006;" horiz-adv-x="167" 
 />
    <glyph glyph-name="figurespace" unicode="&#x2007;" horiz-adv-x="600" 
 />
    <glyph glyph-name="punctuationspace" unicode="&#x2008;" horiz-adv-x="180" 
 />
    <glyph glyph-name="thinspace" unicode="&#x2009;" horiz-adv-x="150" 
 />
    <glyph glyph-name="hairspace" unicode="&#x200a;" horiz-adv-x="50" 
 />
    <glyph glyph-name="zerowidthspace" unicode="&#x200b;" horiz-adv-x="0" 
 />
    <glyph glyph-name="figuredash" unicode="&#x2012;" horiz-adv-x="600" 
d="M32 318l9 64h520l-9 -64h-520z" />
    <glyph glyph-name="endash" unicode="&#x2013;" horiz-adv-x="500" 
d="M32 318l9 64h420l-9 -64h-420z" />
    <glyph glyph-name="emdash" unicode="&#x2014;" horiz-adv-x="1000" 
d="M32 318l9 64h920l-9 -64h-920z" />
    <glyph glyph-name="uni2015" unicode="&#x2015;" horiz-adv-x="1200" 
d="M32 318l9 64h1120l-9 -64h-1120z" />
    <glyph glyph-name="doublebar" unicode="&#x2016;" horiz-adv-x="327" 
d="M1 -120l126 960h70l-126 -960h-70zM126 -120l126 960h70l-126 -960h-70z" />
    <glyph glyph-name="quoteleft" unicode="&#x2018;" horiz-adv-x="217" 
d="M91 586l10 75q18 134 130 134l-6 -43q-31 0 -49.5 -17.5t-27.5 -58.5h45l-12 -90h-90z" />
    <glyph glyph-name="quoteright" unicode="&#x2019;" horiz-adv-x="217" 
d="M206 780l-10 -75q-18 -134 -130 -134l6 43q31 0 49.5 17.5t27.5 58.5h-45l12 90h90z" />
    <glyph glyph-name="quotesinglbase" unicode="&#x201a;" horiz-adv-x="217" 
d="M116 90l-10 -75q-18 -134 -130 -134l6 43q31 0 49.5 17.5t27.5 58.5h-45l12 90h90z" />
    <glyph glyph-name="reversequoteleft" unicode="&#x201b;" horiz-adv-x="217" 
d="M116 780h90l-12 -90h-48q-10 -76 61 -76l-6 -43q-53 0 -78.5 34.5t-16.5 100.5z" />
    <glyph glyph-name="quotedblleft" unicode="&#x201c;" horiz-adv-x="363" 
d="M236 586l10 75q18 134 130 134l-6 -43q-31 0 -49.5 -17.5t-27.5 -58.5h45l-12 -90h-90zM91 586l10 75q18 134 130 134l-6 -43q-31 0 -49.5 -17.5t-27.5 -58.5h45l-12 -90h-90z" />
    <glyph glyph-name="quotedblright" unicode="&#x201d;" horiz-adv-x="363" 
d="M206 780l-10 -75q-18 -134 -130 -134l6 43q31 0 49.5 17.5t27.5 58.5h-45l12 90h90zM351 780l-10 -75q-18 -134 -130 -134l6 43q31 0 49.5 17.5t27.5 58.5h-45l12 90h90z" />
    <glyph glyph-name="quotedblbase" unicode="&#x201e;" horiz-adv-x="363" 
d="M116 90l-10 -75q-18 -134 -130 -134l6 43q31 0 49.5 17.5t27.5 58.5h-45l12 90h90zM261 90l-10 -75q-18 -134 -130 -134l6 43q31 0 49.5 17.5t27.5 58.5h-45l12 90h90z" />
    <glyph glyph-name="reversequotedblleft" unicode="&#x201f;" horiz-adv-x="363" 
d="M116 780h90l-12 -90h-48q-10 -76 61 -76l-6 -43q-53 0 -78.5 34.5t-16.5 100.5zM262 780h90l-12 -90h-48q-10 -76 61 -76l-6 -43q-53 0 -78.5 34.5t-16.5 100.5z" />
    <glyph glyph-name="dagger" unicode="&#x2020;" horiz-adv-x="389" 
d="M179 458l21 126h43l-11 -126l-22 -127h-43zM224 800h53l-25 -146h-42zM403 645l-7 -52l-137 5l5 42zM49 593l8 52l137 -5l-6 -42z" />
    <glyph glyph-name="daggerdbl" unicode="&#x2021;" horiz-adv-x="389" 
d="M150 241l22 126h43l-12 -126l-21 -126h-43zM224 800h53l-25 -146h-42zM403 645l-7 -52l-137 5l5 42zM49 593l8 52l137 -5l-6 -42zM374 429l-6 -53l-137 5l5 43zM21 376l7 53l137 -5l-5 -43zM238 511l-15 -73h-42l4 73l15 73h43z" />
    <glyph glyph-name="bullet" unicode="&#x2022;" horiz-adv-x="397" 
d="M343 481l-34 -262h-262l34 262h262z" />
    <glyph glyph-name="ellipsis" unicode="&#x2026;" horiz-adv-x="1000" 
d="M188 90l-12 -90h-90l12 90h90zM508 90l-12 -90h-90l12 90h90zM828 90l-12 -90h-90l12 90h90z" />
    <glyph glyph-name="perthousand" unicode="&#x2030;" horiz-adv-x="1310" 
d="M580 170l-1 -9q-6 -52 18.5 -82.5t75.5 -30.5h8q103 0 116 113l1 9q6 52 -18.5 82.5t-75.5 30.5h-8q-103 0 -116 -113zM519 163l1 9q8 77 56.5 123.5t123.5 46.5q79 0 123 -46.5t35 -127.5l-1 -9q-8 -77 -56.5 -123.5t-123.5 -46.5q-79 0 -123 46.5t-35 127.5zM129 619
l-1 -9q-6 -52 18.5 -82.5t75.5 -30.5h8q103 0 116 113l1 9q6 52 -18.5 82.5t-75.5 30.5h-8q-103 0 -116 -113zM249 791q43 0 76 -14q67 -28 172 -28q50 0 110 11t84 21l-7 -49l-400 -732h-68l385 703q-38 -15 -111 -15q-37 0 -94 11q17 -29 11 -82l-1 -9
q-8 -77 -56.5 -123.5t-123.5 -46.5q-79 0 -123 46.5t-35 127.5l1 9q8 77 56.5 123.5t123.5 46.5zM970 170l-1 -9q-6 -52 18.5 -82.5t75.5 -30.5h8q103 0 116 113l1 9q6 52 -18.5 82.5t-75.5 30.5h-8q-103 0 -116 -113zM909 163l1 9q8 77 56.5 123.5t123.5 46.5
q79 0 123 -46.5t35 -127.5l-1 -9q-8 -77 -56.5 -123.5t-123.5 -46.5q-79 0 -123 46.5t-35 127.5z" />
    <glyph glyph-name="tripleprime" unicode="&#x2034;" horiz-adv-x="460" 
d="M122 780h79l-50 -269h-50zM243 780h79l-50 -269h-50zM364 780h79l-50 -269h-50z" />
    <glyph glyph-name="guilsinglleft" unicode="&#x2039;" horiz-adv-x="304" 
d="M273 524l-9 -73l-164 -113l134 -114l-9 -67l-184 153l8 62z" />
    <glyph glyph-name="guilsinglright" unicode="&#x203a;" horiz-adv-x="304" 
d="M21 157l9 73l164 113l-134 114l9 67l184 -153l-8 -62z" />
    <glyph glyph-name="interrobang" unicode="&#x203d;" horiz-adv-x="455" 
d="M226 189h-47l52 532q-52 -15 -79 -69t-38 -148h-71l2 14q19 138 70 205.5t160 67.5q182 0 182 -173q0 -62 -20.5 -109t-51 -79t-62.5 -62.5t-59.5 -75.5t-37.5 -103zM383 613q0 94 -75 110l-58 -362q14 19 44 55.5t45.5 58.5t29.5 59.5t14 78.5zM234 90l-12 -90h-90
l12 90h90z" />
    <glyph glyph-name="fraction" unicode="&#x2044;" horiz-adv-x="200" 
d="M-201 0h-70l678 780h70z" />
    <glyph glyph-name="uni2070" unicode="&#x2070;" 
d="M313 669l-22 -168q-16 -118 -133 -118q-64 0 -94 32.5t-23 85.5l22 168q14 117 133 117q63 0 93.5 -32t23.5 -85zM129 668l-22 -167q-8 -59 51 -59h3q56 0 64 59l22 168q8 59 -51 59h-3q-30 0 -45 -14t-19 -46z" />
    <glyph glyph-name="uni2074" unicode="&#x2074;" 
d="M233 390h-56l13 95h-162l5 40l195 255h56l-32 -246h54l-7 -49h-54zM217 687l-118 -154l36 1h61l15 111z" />
    <glyph glyph-name="uni2075" unicode="&#x2075;" 
d="M40 515h57q-13 -82 57 -82h6q29 0 51 18.5t27 55.5l1 8q4 37 -11.5 56t-45.5 19h-6q-54 0 -80 -42l-47 15l39 217h237l-6 -50h-188l-21 -117q27 27 74 27q59 0 89 -31.5t22 -93.5l-1 -8q-7 -57 -43 -90.5t-94 -33.5q-134 0 -118 124z" />
    <glyph glyph-name="uni2076" unicode="&#x2076;" 
d="M313 786l-6 -50q-87 0 -144 -58q-29 -30 -44 -72q32 30 80 30t75.5 -31.5t20.5 -89.5l-1 -8q-7 -57 -43 -90.5t-94 -33.5q-62 0 -91.5 38.5t-21.5 106.5l1 8q13 102 77 174q68 76 191 76zM183 586h-6q-47 0 -76 -45q-4 -32 -4 -39q-1 -33 14 -51t43 -18h6q29 0 51 18.5
t27 55.5l1 8q4 34 -11 52.5t-45 18.5z" />
    <glyph glyph-name="uni2077" unicode="&#x2077;" 
d="M57 640l19 140h257l-5 -40l-191 -350h-62l188 342l-56 -1h-84l-13 -91h-53z" />
    <glyph glyph-name="uni2078" unicode="&#x2078;" 
d="M157 382q-66 0 -94.5 32t-22.5 79l1 8q4 33 24.5 58t46.5 30q-25 8 -39 30t-10 54l1 8q6 47 40.5 76t91.5 29q63 0 94 -30t25 -76l-1 -8q-4 -33 -23 -55.5t-46 -27.5q25 -7 38.5 -32t8.5 -58l-1 -8q-6 -48 -40.5 -78.5t-93.5 -30.5zM199 736h-6q-66 0 -73 -55l-1 -8
q-3 -27 12 -43t45 -16h9q66 0 72 54l1 8q4 29 -13 44.5t-46 15.5zM154 432h7q66 0 74 60l1 8q4 31 -11 47.5t-45 16.5h-10q-64 0 -72 -60l-1 -8q-4 -31 12 -47.5t45 -16.5z" />
    <glyph glyph-name="uni2079" unicode="&#x2079;" 
d="M39 383l6 50q89 0 146 58q29 30 44 72q-32 -30 -80 -30t-75.5 31.5t-20.5 89.5l1 8q7 57 43 90.5t94 33.5q62 0 91.5 -38.5t21.5 -106.5l-1 -8q-13 -102 -77 -174q-68 -76 -193 -76zM171 583h6q47 0 76 45q4 32 4 39q1 33 -14 51t-43 18h-6q-29 0 -51 -18.5t-27 -55.5
l-1 -8q-4 -34 11 -52.5t45 -18.5z" />
    <glyph glyph-name="uni207A" unicode="&#x207a;" 
d="M169 712h50l-13 -102h103l-8 -51h-102l-13 -101h-51l13 101h-102l8 51h102z" />
    <glyph glyph-name="uni207B" unicode="&#x207b;" 
d="M46 559l8 51h255l-8 -51h-255z" />
    <glyph glyph-name="uni207C" unicode="&#x207c;" 
d="M55 615l8 51h255l-8 -51h-255zM37 503l8 51h255l-8 -51h-255z" />
    <glyph glyph-name="uni207D" unicode="&#x207d;" horiz-adv-x="169" 
d="M53 584l1 8q14 116 84 188h60q-75 -83 -88 -188l-1 -8q-12 -102 37 -194h-56q-20 34 -31.5 87t-5.5 107z" />
    <glyph glyph-name="uni207E" unicode="&#x207e;" horiz-adv-x="169" 
d="M170 586l-1 -8q-14 -116 -84 -188h-60q75 83 88 188l1 8q12 102 -37 194h56q20 -34 31.5 -87t5.5 -107z" />
    <glyph glyph-name="uni2080" unicode="&#x2080;" 
d="M262 279l-22 -168q-16 -118 -133 -118q-64 0 -94 32.5t-23 85.5l22 168q14 117 133 117q63 0 93.5 -32t23.5 -85zM78 278l-22 -167q-8 -59 51 -59h3q56 0 64 59l22 168q8 59 -51 59h-3q-30 0 -45 -14t-19 -46z" />
    <glyph glyph-name="uni2081" unicode="&#x2081;" 
d="M228 0h-245l7 49h94l36 270l-85 -53l-22 42l132 83h40l-45 -342h95z" />
    <glyph glyph-name="uni2082" unicode="&#x2082;" 
d="M233 49l-7 -49h-250l5 40l182 168q38 35 42 66l1 8q4 32 -12 48t-45 16h-6q-69 0 -77 -86h-56l3 22q16 114 133 114q64 0 93.5 -31.5t23.5 -78.5l-1 -8q-5 -47 -58 -96l-144 -133h173z" />
    <glyph glyph-name="uni2083" unicode="&#x2083;" 
d="M46 125q-13 -82 57 -82h7q66 0 74 59l1 8q4 31 -11 47.5t-45 16.5h-55l6 50h54q65 0 72 54l1 8q4 30 -12.5 45t-45.5 15h-6q-69 0 -77 -86h-56l3 22q16 114 133 114q63 0 93.5 -30t24.5 -76l-1 -8q-4 -33 -23 -55.5t-46 -27.5q25 -7 38.5 -32t8.5 -58l-1 -8
q-6 -47 -41.5 -77.5t-92.5 -30.5q-134 0 -118 124l1 8h57z" />
    <glyph glyph-name="uni2084" unicode="&#x2084;" 
d="M182 0h-56l13 95h-162l5 40l195 255h56l-32 -246h54l-7 -49h-54zM166 297l-118 -154l36 1h61l15 111z" />
    <glyph glyph-name="uni2085" unicode="&#x2085;" 
d="M-11 125h57q-13 -82 57 -82h6q29 0 51 18.5t27 55.5l1 8q4 37 -11.5 56t-45.5 19h-6q-55 0 -80 -42l-47 15l39 217h237l-6 -50h-188l-21 -117q27 27 74 27q59 0 89 -31.5t22 -93.5l-1 -8q-7 -57 -43 -90.5t-94 -33.5q-134 0 -118 124z" />
    <glyph glyph-name="uni2086" unicode="&#x2086;" 
d="M262 396l-6 -50q-87 0 -144 -58q-29 -30 -44 -72q32 30 80 30t75.5 -31.5t20.5 -89.5l-1 -8q-7 -57 -43 -90.5t-94 -33.5q-62 0 -91.5 38.5t-21.5 106.5l1 8q13 102 77 174q68 76 191 76zM132 196h-6q-47 0 -76 -45q-4 -32 -4 -39q-1 -33 14 -51t43 -18h6q29 0 51 18.5
t27 55.5l1 8q4 34 -11 52.5t-45 18.5z" />
    <glyph glyph-name="uni2087" unicode="&#x2087;" 
d="M6 250l19 140h257l-5 -40l-191 -350h-62l188 342l-56 -1h-84l-13 -91h-53z" />
    <glyph glyph-name="uni2088" unicode="&#x2088;" 
d="M106 -8q-66 0 -94.5 32t-22.5 79l1 8q4 33 24.5 58t46.5 30q-25 8 -39 30t-10 54l1 8q6 47 40.5 76t91.5 29q63 0 94 -30t25 -76l-1 -8q-4 -33 -23 -55.5t-46 -27.5q25 -7 38.5 -32t8.5 -58l-1 -8q-6 -48 -40.5 -78.5t-93.5 -30.5zM148 346h-6q-66 0 -73 -55l-1 -8
q-3 -27 12 -43t45 -16h9q66 0 72 54l1 8q4 29 -13 44.5t-46 15.5zM103 42h7q66 0 74 60l1 8q4 31 -11 47.5t-45 16.5h-10q-64 0 -72 -60l-1 -8q-4 -31 12 -47.5t45 -16.5z" />
    <glyph glyph-name="uni2089" unicode="&#x2089;" 
d="M-12 -7l6 50q89 0 146 58q29 30 44 72q-32 -30 -80 -30t-75.5 31.5t-20.5 89.5l1 8q7 57 43 90.5t94 33.5q62 0 91.5 -38.5t21.5 -106.5l-1 -8q-13 -102 -77 -174q-68 -76 -193 -76zM120 193h6q47 0 76 45q4 32 4 39q1 33 -14 51t-43 18h-6q-29 0 -51 -18.5t-27 -55.5
l-1 -8q-4 -34 11 -52.5t45 -18.5z" />
    <glyph glyph-name="uni208A" unicode="&#x208a;" 
d="M118 322h50l-13 -102h103l-8 -51h-102l-13 -101h-51l13 101h-102l8 51h102z" />
    <glyph glyph-name="uni208B" unicode="&#x208b;" 
d="M-5 169l8 51h255l-8 -51h-255z" />
    <glyph glyph-name="uni208C" unicode="&#x208c;" 
d="M4 225l8 51h255l-8 -51h-255zM-14 113l8 51h255l-8 -51h-255z" />
    <glyph glyph-name="uni208D" unicode="&#x208d;" horiz-adv-x="169" 
d="M2 194l1 8q14 116 84 188h60q-75 -83 -88 -188l-1 -8q-12 -102 37 -194h-56q-20 34 -31.5 87t-5.5 107z" />
    <glyph glyph-name="uni208E" unicode="&#x208e;" horiz-adv-x="169" 
d="M119 196l-1 -8q-14 -116 -84 -188h-60q75 83 88 188l1 8q12 102 -37 194h56q20 -34 31.5 -87t5.5 -107z" />
    <glyph glyph-name="Euro" unicode="&#x20ac;" horiz-adv-x="600" 
d="M98 295h-75l9 65h72l8 60h-72l8 65h74q58 306 271 306q112 0 155 -65.5t25 -196.5l-4 -29h-68q17 121 -7.5 173.5t-97.5 52.5h-7q-143 0 -192 -241h266l-40 -65h-237q-5 -30 -8 -60h229l-41 -65h-194q-14 -241 127 -241h7q134 0 160 196h70l-2 -14q-18 -125 -73.5 -186
t-159.5 -61q-111 0 -161 75.5t-42 230.5z" />
    <glyph glyph-name="ruble" unicode="&#x20bd;" horiz-adv-x="600" 
d="M175 317l-11 -87h208l-8 -65h-209l-21 -165h-72l21 165h-88l9 65h88l11 87h-88l9 65h88l52 398h202q46 0 84.5 -10.5t72.5 -34.5t49.5 -70.5t5.5 -110.5l-3 -20q-33 -217 -265 -217h-135zM184 382h137q160 0 181 156l2 15q6 48 -5 81.5t-35.5 50t-49.5 23.5t-54 7h-133z
" />
    <glyph glyph-name="numero" unicode="&#x2116;" horiz-adv-x="1077" 
d="M638 780l-102 -780h-76l-282 658l-21 -183l-62 -475h-70l102 780h76l282 -658l21 183l62 475h70zM791 591l-2 -13q-22 -143 90 -143q51 0 80 35t40 109l2 13q22 143 -90 143q-51 0 -80 -35t-40 -109zM685 212l8 57h323l-8 -57h-323zM725 578l2 13q14 95 61.5 147.5
t124.5 52.5q93 0 129.5 -53t22.5 -146l-2 -13q-14 -95 -61.5 -147.5t-124.5 -52.5q-93 0 -129.5 53t-22.5 146z" />
    <glyph glyph-name="published" unicode="&#x2117;" horiz-adv-x="920" 
d="M59 390q0 166 117.5 283.5t283.5 117.5t283.5 -117.5t117.5 -283.5t-117.5 -283.5t-283.5 -117.5t-283.5 117.5t-117.5 283.5zM102 390q0 -148 105 -253t253 -105t253 105t105 253t-105 253t-253 105t-253 -105t-105 -253zM368 342v-187h-67v470h182q63 0 105.5 -30.5
t42.5 -104.5v-12q0 -75 -42.5 -105.5t-105.5 -30.5h-115zM368 396h107q89 0 89 84v7q0 84 -89 84h-107v-175z" />
    <glyph glyph-name="servicemark" unicode="&#x2120;" horiz-adv-x="523" 
d="M101 649q-44 6 -62 24t-18 51v4q0 36 23 56.5t65 20.5q47 0 67.5 -22.5t20.5 -68.5v-8h-42q0 33 -9.5 47t-35.5 14h-2q-45 0 -45 -36v-3q0 -19 11.5 -28.5t42.5 -13.5q44 -6 63.5 -24.5t19.5 -52.5v-4q0 -38 -23.5 -60.5t-67.5 -22.5q-91 0 -91 95v4h42q0 -61 49 -61h2
q46 0 46 42v2q0 20 -12.5 30.5t-43.5 14.5zM431 734l-55 -204h-47l-55 204l2 -67v-137h-42v270h63l55 -203l55 203h64v-270h-42v137z" />
    <glyph glyph-name="trademark" unicode="&#x2122;" horiz-adv-x="523" 
d="M131 762v-232h-42v232h-70v38h182v-38h-70zM431 734l-55 -204h-47l-55 204l2 -67v-137h-42v270h63l55 -203l55 203h64v-270h-42v137z" />
    <glyph glyph-name="uni2153" unicode="&#x2153;" horiz-adv-x="800" 
d="M279 390h-245l7 49h94l36 270l-85 -53l-22 42l132 83h40l-45 -342h95zM99 0h-70l678 780h70zM546 125q-13 -82 57 -82h7q66 0 74 59l1 8q4 31 -11 47.5t-45 16.5h-55l6 50h54q65 0 72 54l1 8q4 30 -12.5 45t-45.5 15h-6q-69 0 -77 -86h-56l3 22q16 114 133 114
q63 0 93.5 -30t24.5 -76l-1 -8q-4 -33 -23 -55.5t-46 -27.5q25 -7 38.5 -32t8.5 -58l-1 -8q-6 -47 -41.5 -77.5t-92.5 -30.5q-134 0 -118 124l1 8h57z" />
    <glyph glyph-name="uni2154" unicode="&#x2154;" horiz-adv-x="800" 
d="M284 439l-7 -49h-250l5 40l182 168q38 35 42 66l1 8q4 32 -11.5 48t-45.5 16h-6q-69 0 -77 -86h-56l3 22q16 114 133 114q64 0 93.5 -31.5t23.5 -78.5l-1 -8q-5 -47 -58 -96l-144 -133h173zM99 0h-70l678 780h70zM546 125q-13 -82 57 -82h7q66 0 74 59l1 8q4 31 -11 47.5
t-45 16.5h-55l6 50h54q65 0 72 54l1 8q4 30 -12.5 45t-45.5 15h-6q-69 0 -77 -86h-56l3 22q16 114 133 114q63 0 93.5 -30t24.5 -76l-1 -8q-4 -33 -23 -55.5t-46 -27.5q25 -7 38.5 -32t8.5 -58l-1 -8q-6 -47 -41.5 -77.5t-92.5 -30.5q-134 0 -118 124l1 8h57z" />
    <glyph glyph-name="uni2155" unicode="&#x2155;" horiz-adv-x="800" 
d="M279 390h-245l7 49h94l36 270l-85 -53l-22 42l132 83h40l-45 -342h95zM99 0h-70l678 780h70zM489 125h57q-13 -82 57 -82h6q29 0 51 18.5t27 55.5l1 8q4 37 -11.5 56t-45.5 19h-6q-55 0 -80 -42l-47 15l39 217h237l-6 -50h-188l-21 -117q27 27 74 27q59 0 89 -31.5
t22 -93.5l-1 -8q-7 -57 -43 -90.5t-94 -33.5q-134 0 -118 124z" />
    <glyph glyph-name="uni2156" unicode="&#x2156;" horiz-adv-x="800" 
d="M284 439l-7 -49h-250l5 40l182 168q38 35 42 66l1 8q4 32 -11.5 48t-45.5 16h-6q-69 0 -77 -86h-56l3 22q16 114 133 114q64 0 93.5 -31.5t23.5 -78.5l-1 -8q-5 -47 -58 -96l-144 -133h173zM99 0h-70l678 780h70zM489 125h57q-13 -82 57 -82h6q29 0 51 18.5t27 55.5l1 8
q4 37 -11.5 56t-45.5 19h-6q-55 0 -80 -42l-47 15l39 217h237l-6 -50h-188l-21 -117q27 27 74 27q59 0 89 -31.5t22 -93.5l-1 -8q-7 -57 -43 -90.5t-94 -33.5q-134 0 -118 124z" />
    <glyph glyph-name="uni2157" unicode="&#x2157;" horiz-adv-x="800" 
d="M97 515q-13 -82 57 -82h7q66 0 74 59l1 8q4 31 -11 47.5t-45 16.5h-55l6 50h54q65 0 72 54l1 8q4 30 -12.5 45t-45.5 15h-6q-69 0 -77 -86h-56l3 22q16 114 133 114q63 0 93.5 -30t24.5 -76l-1 -8q-4 -33 -23 -55.5t-46 -27.5q25 -7 38.5 -32t8.5 -58l-1 -8
q-6 -47 -41.5 -77.5t-92.5 -30.5q-134 0 -118 124l1 8h57zM99 0h-70l678 780h70zM489 125h57q-13 -82 57 -82h6q29 0 51 18.5t27 55.5l1 8q4 37 -11.5 56t-45.5 19h-6q-55 0 -80 -42l-47 15l39 217h237l-6 -50h-188l-21 -117q27 27 74 27q59 0 89 -31.5t22 -93.5l-1 -8
q-7 -57 -43 -90.5t-94 -33.5q-134 0 -118 124z" />
    <glyph glyph-name="uni2158" unicode="&#x2158;" horiz-adv-x="800" 
d="M233 390h-56l13 95h-162l5 40l195 255h56l-32 -246h54l-7 -49h-54zM217 687l-118 -154l36 1h61l15 111zM99 0h-70l678 780h70zM489 125h57q-13 -82 57 -82h6q29 0 51 18.5t27 55.5l1 8q4 37 -11.5 56t-45.5 19h-6q-55 0 -80 -42l-47 15l39 217h237l-6 -50h-188l-21 -117
q27 27 74 27q59 0 89 -31.5t22 -93.5l-1 -8q-7 -57 -43 -90.5t-94 -33.5q-134 0 -118 124z" />
    <glyph glyph-name="uni2159" unicode="&#x2159;" horiz-adv-x="800" 
d="M279 390h-245l7 49h94l36 270l-85 -53l-22 42l132 83h40l-45 -342h95zM99 0h-70l678 780h70zM762 396l-6 -50q-87 0 -144 -58q-29 -30 -44 -72q32 30 80 30t75.5 -31.5t20.5 -89.5l-1 -8q-7 -57 -43 -90.5t-94 -33.5q-62 0 -91.5 38.5t-21.5 106.5l1 8q13 102 77 174
q68 76 191 76zM632 196h-6q-47 0 -76 -45q-4 -32 -4 -39q-1 -33 14 -51t43 -18h6q29 0 51 18.5t27 55.5l1 8q4 34 -11 52.5t-45 18.5z" />
    <glyph glyph-name="uni215A" unicode="&#x215a;" horiz-adv-x="800" 
d="M40 515h57q-13 -82 57 -82h6q29 0 51 18.5t27 55.5l1 8q4 37 -11.5 56t-45.5 19h-6q-54 0 -80 -42l-47 15l39 217h237l-6 -50h-188l-21 -117q27 27 74 27q59 0 89 -31.5t22 -93.5l-1 -8q-7 -57 -43 -90.5t-94 -33.5q-134 0 -118 124zM99 0h-70l678 780h70zM762 396
l-6 -50q-87 0 -144 -58q-29 -30 -44 -72q32 30 80 30t75.5 -31.5t20.5 -89.5l-1 -8q-7 -57 -43 -90.5t-94 -33.5q-62 0 -91.5 38.5t-21.5 106.5l1 8q13 102 77 174q68 76 191 76zM632 196h-6q-47 0 -76 -45q-4 -32 -4 -39q-1 -33 14 -51t43 -18h6q29 0 51 18.5t27 55.5l1 8
q4 34 -11 52.5t-45 18.5z" />
    <glyph glyph-name="uni215B" unicode="&#x215b;" horiz-adv-x="800" 
d="M279 390h-245l7 49h94l36 270l-85 -53l-22 42l132 83h40l-45 -342h95zM99 0h-70l678 780h70zM606 -8q-66 0 -94.5 32t-22.5 79l1 8q4 33 24.5 58t46.5 30q-25 8 -39 30t-10 54l1 8q6 47 40.5 76t91.5 29q63 0 94 -30t25 -76l-1 -8q-4 -33 -23 -55.5t-46 -27.5
q25 -7 38.5 -32t8.5 -58l-1 -8q-6 -48 -40.5 -78.5t-93.5 -30.5zM648 346h-6q-66 0 -73 -55l-1 -8q-3 -27 12 -43t45 -16h9q66 0 72 54l1 8q4 29 -13 44.5t-46 15.5zM603 42h7q66 0 74 60l1 8q4 31 -11 47.5t-45 16.5h-10q-64 0 -72 -60l-1 -8q-4 -31 12 -47.5t45 -16.5z
" />
    <glyph glyph-name="uni215C" unicode="&#x215c;" horiz-adv-x="800" 
d="M97 515q-13 -82 57 -82h7q66 0 74 59l1 8q4 31 -11 47.5t-45 16.5h-55l6 50h54q65 0 72 54l1 8q4 30 -12.5 45t-45.5 15h-6q-69 0 -77 -86h-56l3 22q16 114 133 114q63 0 93.5 -30t24.5 -76l-1 -8q-4 -33 -23 -55.5t-46 -27.5q25 -7 38.5 -32t8.5 -58l-1 -8
q-6 -47 -41.5 -77.5t-92.5 -30.5q-134 0 -118 124l1 8h57zM99 0h-70l678 780h70zM606 -8q-66 0 -94.5 32t-22.5 79l1 8q4 33 24.5 58t46.5 30q-25 8 -39 30t-10 54l1 8q6 47 40.5 76t91.5 29q63 0 94 -30t25 -76l-1 -8q-4 -33 -23 -55.5t-46 -27.5q25 -7 38.5 -32t8.5 -58
l-1 -8q-6 -48 -40.5 -78.5t-93.5 -30.5zM648 346h-6q-66 0 -73 -55l-1 -8q-3 -27 12 -43t45 -16h9q66 0 72 54l1 8q4 29 -13 44.5t-46 15.5zM603 42h7q66 0 74 60l1 8q4 31 -11 47.5t-45 16.5h-10q-64 0 -72 -60l-1 -8q-4 -31 12 -47.5t45 -16.5z" />
    <glyph glyph-name="uni215D" unicode="&#x215d;" horiz-adv-x="800" 
d="M40 515h57q-13 -82 57 -82h6q29 0 51 18.5t27 55.5l1 8q4 37 -11.5 56t-45.5 19h-6q-54 0 -80 -42l-47 15l39 217h237l-6 -50h-188l-21 -117q27 27 74 27q59 0 89 -31.5t22 -93.5l-1 -8q-7 -57 -43 -90.5t-94 -33.5q-134 0 -118 124zM99 0h-70l678 780h70zM606 -8
q-66 0 -94.5 32t-22.5 79l1 8q4 33 24.5 58t46.5 30q-25 8 -39 30t-10 54l1 8q6 47 40.5 76t91.5 29q63 0 94 -30t25 -76l-1 -8q-4 -33 -23 -55.5t-46 -27.5q25 -7 38.5 -32t8.5 -58l-1 -8q-6 -48 -40.5 -78.5t-93.5 -30.5zM648 346h-6q-66 0 -73 -55l-1 -8q-3 -27 12 -43
t45 -16h9q66 0 72 54l1 8q4 29 -13 44.5t-46 15.5zM603 42h7q66 0 74 60l1 8q4 31 -11 47.5t-45 16.5h-10q-64 0 -72 -60l-1 -8q-4 -31 12 -47.5t45 -16.5z" />
    <glyph glyph-name="uni215E" unicode="&#x215e;" horiz-adv-x="800" 
d="M57 640l19 140h257l-5 -40l-191 -350h-62l188 342l-56 -1h-84l-13 -91h-53zM99 0h-70l678 780h70zM606 -8q-66 0 -94.5 32t-22.5 79l1 8q4 33 24.5 58t46.5 30q-25 8 -39 30t-10 54l1 8q6 47 40.5 76t91.5 29q63 0 94 -30t25 -76l-1 -8q-4 -33 -23 -55.5t-46 -27.5
q25 -7 38.5 -32t8.5 -58l-1 -8q-6 -48 -40.5 -78.5t-93.5 -30.5zM648 346h-6q-66 0 -73 -55l-1 -8q-3 -27 12 -43t45 -16h9q66 0 72 54l1 8q4 29 -13 44.5t-46 15.5zM603 42h7q66 0 74 60l1 8q4 31 -11 47.5t-45 16.5h-10q-64 0 -72 -60l-1 -8q-4 -31 12 -47.5t45 -16.5z
" />
    <glyph glyph-name="uni215F" unicode="&#x215f;" horiz-adv-x="500" 
d="M279 390h-245l7 49h94l36 270l-85 -53l-22 42l132 83h40l-45 -342h95zM99 0h-70l678 780h70z" />
    <glyph glyph-name="arrowleft" unicode="&#x2190;" horiz-adv-x="920" 
d="M449 780h93l-357 -357h665v-66h-665l357 -357h-93l-390 390z" />
    <glyph glyph-name="arrowup" unicode="&#x2191;" horiz-adv-x="920" 
d="M70 308v93l390 390l390 -390v-93l-357 357v-665h-66v665z" />
    <glyph glyph-name="arrowright" unicode="&#x2192;" horiz-adv-x="920" 
d="M378 780h93l390 -390l-390 -390h-93l357 357h-665v66h665z" />
    <glyph glyph-name="arrowdown" unicode="&#x2193;" horiz-adv-x="920" 
d="M70 379v93l357 -357v665h66v-665l357 357v-93l-390 -390z" />
    <glyph glyph-name="uni2196" unicode="&#x2196;" horiz-adv-x="920" 
d="M136 0h-66v780h780v-66h-667l678 -678l-47 -47l-678 678v-667z" />
    <glyph glyph-name="uni2197" unicode="&#x2197;" horiz-adv-x="920" 
d="M850 0h-66v667l-678 -678l-47 47l678 678h-667v66h780v-780z" />
    <glyph glyph-name="uni2198" unicode="&#x2198;" horiz-adv-x="920" 
d="M70 0v66h667l-678 678l47 47l678 -678v667h66v-780h-780z" />
    <glyph glyph-name="uni2199" unicode="&#x2199;" horiz-adv-x="920" 
d="M850 66v-66h-780v780h66v-667l678 678l47 -47l-678 -678h667z" />
    <glyph glyph-name="minus" unicode="&#x2212;" horiz-adv-x="600" 
d="M44 357l9 66h505l-9 -66h-505z" />
    <glyph glyph-name="approxequal" unicode="&#x2248;" horiz-adv-x="600" 
d="M166 349q56 0 128 -35.5t114 -35.5q62 0 106 56l38 -40q-53 -76 -144 -76q-56 0 -128 35.5t-114 35.5q-62 0 -106 -56l-38 40q53 76 144 76zM193 553q56 0 128 -35.5t114 -35.5q62 0 106 56l38 -40q-53 -76 -144 -76q-56 0 -128 35.5t-114 35.5q-62 0 -106 -56l-38 40
q53 76 144 76z" />
    <glyph glyph-name="notequal" unicode="&#x2260;" horiz-adv-x="600" 
d="M59 459l9 66h295l91 124h72l-90 -124h137l-9 -66h-176l-101 -138h256l-9 -66h-295l-91 -124h-72l90 124h-137l9 66h176l101 138h-256z" />
    <glyph glyph-name="equivalence" unicode="&#x2261;" horiz-adv-x="600" 
d="M44 357l9 66h505l-9 -66h-505zM74 561l9 66h505l-9 -66h-505zM14 153l9 66h505l-9 -66h-505z" />
    <glyph glyph-name="lessequal" unicode="&#x2264;" horiz-adv-x="600" 
d="M580 591l-423 -136l387 -138l-10 -68l-481 174l9 70l528 174zM525 174l-8 -61l-482 174l8 61z" />
    <glyph glyph-name="greaterequal" unicode="&#x2265;" horiz-adv-x="600" 
d="M12 113l9 66l528 174l-9 -66zM39 322l423 136l-387 138l10 71l481 -174l-9 -70l-528 -174z" />
    <glyph glyph-name="squaremultiply" unicode="&#x22a0;" horiz-adv-x="920" 
d="M850 0h-780v780h780v-780zM786 716h-652v-652h652v652zM256 138l-48 48l204 204l-204 204l48 48l204 -204l204 204l48 -48l-204 -204l204 -204l-48 -48l-204 204z" />
    <glyph glyph-name="house" unicode="&#x2302;" horiz-adv-x="850" 
d="M780 0h-710v450l355 340l355 -340v-450z" />
    <glyph glyph-name="blacksquare" unicode="&#x25a0;" horiz-adv-x="920" 
d="M850 0h-780v780h780v-780z" />
    <glyph glyph-name="blacksquare" unicode="&#xe740;" horiz-adv-x="920" 
d="M850 0h-780v780h780v-780z" />
    <glyph glyph-name="whitesquare" unicode="&#x25a1;" horiz-adv-x="920" 
d="M850 0h-780v780h780v-780zM786 716h-652v-652h652v652z" />
    <glyph glyph-name="blacksmallsquare" unicode="&#x25aa;" horiz-adv-x="680" 
d="M600 0h-530v530h530v-530z" />
    <glyph glyph-name="whitesmallsquare" unicode="&#x25ab;" horiz-adv-x="680" 
d="M70 530h530v-530h-530v530zM536 466h-402v-402h402v402z" />
    <glyph glyph-name="triagup" unicode="&#x25b2;" horiz-adv-x="930" 
d="M500 791l366 -791h-72l-329 716l-329 -716h-72l366 791h70z" />
    <glyph glyph-name="triagrt" unicode="&#x25ba;" horiz-adv-x="930" 
d="M871 425v-70l-791 -366v72l716 329l-716 329v72z" />
    <glyph glyph-name="triagdn" unicode="&#x25bc;" horiz-adv-x="930" 
d="M430 -11l-366 791h72l329 -716l329 716h72l-366 -791h-70z" />
    <glyph glyph-name="triaglf" unicode="&#x25c4;" horiz-adv-x="930" 
d="M59 425l791 366v-72l-716 -329l716 -329v-72l-791 366v70z" />
    <glyph glyph-name="whitecircle" unicode="&#x25cb;" horiz-adv-x="920" 
d="M59 390q0 166 117.5 283.5t283.5 117.5t283.5 -117.5t117.5 -283.5t-117.5 -283.5t-283.5 -117.5t-283.5 117.5t-117.5 283.5zM124 390q0 -140 98 -238t238 -98t238 98t98 238t-98 238t-238 98t-238 -98t-98 -238z" />
    <glyph glyph-name="whitecircle" unicode="&#x25ef;" horiz-adv-x="920" 
d="M59 390q0 166 117.5 283.5t283.5 117.5t283.5 -117.5t117.5 -283.5t-117.5 -283.5t-283.5 -117.5t-283.5 117.5t-117.5 283.5zM124 390q0 -140 98 -238t238 -98t238 98t98 238t-98 238t-238 98t-238 -98t-98 -238z" />
    <glyph glyph-name="blackcircle" unicode="&#x25cf;" horiz-adv-x="920" 
d="M59 390q0 166 117.5 283.5t283.5 117.5t283.5 -117.5t117.5 -283.5t-117.5 -283.5t-283.5 -117.5t-283.5 117.5t-117.5 283.5z" />
    <glyph glyph-name="uni25E2" unicode="&#x25e2;" horiz-adv-x="930" 
d="M875 24l-49 -49l-818 300l51 51l739 -274l-274 739l51 51z" />
    <glyph glyph-name="uni25E3" unicode="&#x25e3;" horiz-adv-x="930" 
d="M55 24l300 818l51 -51l-274 -739l739 274l51 -51l-818 -300z" />
    <glyph glyph-name="uni25E4" unicode="&#x25e4;" horiz-adv-x="930" 
d="M55 756l24 25l25 24l818 -300l-51 -51l-739 273l274 -738l-51 -51z" />
    <glyph glyph-name="uni25E5" unicode="&#x25e5;" horiz-adv-x="930" 
d="M851 781l24 -25l-300 -818l-51 51l273 738l-738 -273l-51 51l818 300z" />
    <glyph glyph-name="uni2605" unicode="&#x2605;" horiz-adv-x="880" 
d="M440 180l-260 -190l99 307l-260 189h322l99 306l99 -306h322l-260 -189l99 -307z" />
    <glyph glyph-name="ballotboxwithx" unicode="&#x2612;" horiz-adv-x="680" 
d="M600 0h-530v530h530v-530zM536 466h-402v-402h402v402zM256 138l-48 48l79 79l-79 79l48 48l79 -79l79 79l48 -48l-79 -79l79 -79l-48 -48l-79 79z" />
    <glyph glyph-name="uni263C" unicode="&#x263c;" horiz-adv-x="960" 
d="M521 191l-42 -202l-42 202q0 -39 -29 -66q-9 -8 -30 -22.5t-29.5 -26t-8.5 -29.5q0 -9 3 -18t6 -13l3 -4q-22 6 -34 23.5t-12 38.5q0 30 21 51q41 41 41 95l-172 -113l113 172q-26 -26 -66 -26q-9 0 -31.5 4t-30.5 4q-24 0 -38.5 -12t-17.5 -24l-3 -12q-8 14 -8 28
q0 29 20.5 49t50.5 20t60.5 15t35.5 23l-202 42l202 42q-39 0 -66 29q-8 9 -22.5 30t-26 29.5t-29.5 8.5q-9 0 -18 -3t-13 -6l-4 -3q6 22 23.5 34t38.5 12q30 0 51 -21q41 -41 95 -41l-113 172l172 -113q-26 26 -26 66q0 9 4 31.5t4 30.5q0 24 -12 39t-24 17l-12 3
q14 8 28 8q29 0 49 -20.5t20 -50.5t15 -60.5t23 -35.5l42 202l42 -202q0 39 29 66q9 8 30 22.5t29.5 26t8.5 29.5q0 9 -3 18t-6 13l-3 4q22 -6 34 -23.5t12 -38.5q0 -30 -21 -51q-41 -41 -41 -95l172 113l-113 -172q26 26 66 26q9 0 31.5 -4t30.5 -4q24 0 39 12t17 24l3 12
q8 -14 8 -28q0 -29 -20.5 -49t-50.5 -20t-60.5 -15t-35.5 -23l202 -42l-202 -42q39 0 66 -29q8 -9 22.5 -30t26 -29.5t29.5 -8.5q9 0 18 3t13 6l4 3q-6 -22 -23.5 -34t-38.5 -12q-30 0 -51 21q-41 41 -95 41l113 -172l-172 113q26 -26 26 -66q0 -9 -4 -31.5t-4 -30.5
q0 -24 12 -38.5t24 -17.5l12 -3q-14 -8 -28 -8q-29 0 -49 20.5t-20 50.5t-15 60.5t-23 35.5z" />
    <glyph glyph-name="uni263E" unicode="&#x263e;" horiz-adv-x="960" 
d="M624 728q-134 0 -229 -99t-95 -239t95 -239t229 -99q50 0 96 15q-107 -77 -240 -77q-166 0 -283 117t-117 283t117 283t283 117q131 0 240 -77q-52 15 -96 15z" />
    <glyph glyph-name="spade" unicode="&#x2660;" horiz-adv-x="900" 
d="M451 790q32 -48 97 -116t136 -114q78 -51 121 -103t43 -123q0 -73 -51 -123.5t-125 -50.5q-69 0 -120.5 46t-79.5 115l-3 -1q8 -102 26.5 -174t55.5 -146h-202q37 74 55.5 146t26.5 174l-3 1q-28 -69 -79.5 -115t-120.5 -46q-74 0 -125 50.5t-51 123.5q0 71 43 123
t121 103q71 46 136 114t97 116h2z" />
    <glyph glyph-name="club" unicode="&#x2663;" horiz-adv-x="900" 
d="M349 0q37 74 55.5 146t26.5 174l-3 1q-28 -69 -79.5 -115t-120.5 -46q-74 0 -125 50.5t-51 123.5q0 79 48.5 129.5t125.5 50.5q40 0 84 -23l2 2q-38 57 -38 117q0 75 50.5 127.5t125.5 52.5t125.5 -52.5t50.5 -127.5q0 -60 -38 -117l2 -2q44 23 84 23q77 0 125.5 -50.5
t48.5 -129.5q0 -73 -51 -123.5t-125 -50.5q-69 0 -120.5 46t-79.5 115l-3 -1q8 -102 26.5 -174t55.5 -146h-202z" />
    <glyph glyph-name="heart" unicode="&#x2665;" horiz-adv-x="900" 
d="M451 -10h-2q-28 43 -94 126.5t-139 166.5q-164 185 -164 301q0 90 52 148t139 58q85 0 132.5 -42.5t72.5 -114.5h4q25 72 72.5 114.5t132.5 42.5q87 0 139 -58t52 -148q0 -116 -164 -301q-73 -83 -139 -166.5t-94 -126.5z" />
    <glyph glyph-name="diamond" unicode="&#x2666;" horiz-adv-x="900" 
d="M817 390q-106 -83 -202.5 -188.5t-163.5 -211.5h-2q-67 106 -163.5 211.5t-202.5 188.5q106 83 202.5 188.5t163.5 211.5h2q67 -106 163.5 -211.5t202.5 -188.5z" />
    <glyph glyph-name="uni267B" unicode="&#x267b;" horiz-adv-x="960" 
d="M863 266l1 -2l-96 -167q-15 -22 -21.5 -30t-24 -17t-42.5 -9h-57v-49l-113 136l113 135v-49h145q26 0 50 13t34 26zM186 122h-2l-96 168q-11 21 -15 32t-3 30.5t14 40.5l28 49l-42 24l174 31l59 -166l-41 24q-70 -120 -72 -125q-13 -23 -14 -50t4 -42zM404 779v1h193
q24 -1 36 -2.5t28 -12.5t28 -32l28 -49l43 24l-61 -166l-173 31l41 24l-72 125q-13 23 -36 37.5t-39 16.5zM200 598l67 119q10 17 34 31q46 24 97 10t68 -45l-116 -201zM446 41h-135q-22 0 -44 13q-43 25 -57.5 79.5t4.5 80.5h232v-173zM806 527l69 -117q10 -18 10 -44
q1 -48 -38 -87t-74 -39l-116 201z" />
    <glyph glyph-name="uni267C" unicode="&#x267c;" horiz-adv-x="960" 
d="M292 645l-52 -92l116 -67l90 156q-13 24 -52.5 34.5t-75.5 -7.5q-18 -11 -26 -24zM394 694v-1q48 -5 71 -44l56 -97l-32 -19l134 -24l47 129l-33 -19l-22 38q-14 24 -29.5 30.5t-41.5 6.5h-150zM322 121h105v134h-180q-15 -20 -3.5 -62.5t44.5 -61.5q17 -10 34 -10z
M228 184h1q-20 44 3 84l56 97l32 -19l-46 129l-135 -24l33 -19l-22 -38q-10 -16 -11 -31.5t2 -23.5t12 -25zM763 407l-53 91l-116 -67l90 -156q28 0 58 30t29 68q0 20 -8 34zM755 294l-1 1q-3 -4 -9 -11t-25.5 -18t-39.5 -11h-112v38l-88 -105l88 -105v38h44q28 0 41.5 10.5
t26.5 32.5zM64 390q0 164 116 280t280 116t280 -116t116 -280t-116 -280t-280 -116t-280 116t-116 280z" />
    <glyph glyph-name="uni267D" unicode="&#x267d;" horiz-adv-x="960" 
d="M240 553l52 92q8 13 26 24q36 18 75.5 7.5t52.5 -34.5l-90 -156zM394 693v1h150q26 0 41.5 -6.5t29.5 -30.5l22 -38l33 19l-47 -129l-134 24l32 19l-56 97q-10 17 -28 28t-31 13zM427 121h-105q-17 0 -34 10q-33 19 -44.5 61.5t3.5 62.5h180v-134zM229 184h-1l-75 130
q-9 17 -12 25t-2 23.5t11 31.5l22 38l-33 19l135 24l46 -129l-32 19l-56 -97q-10 -18 -11 -39t3 -33zM710 498l53 -91q8 -14 8 -34q1 -38 -29 -68t-58 -30l-90 156zM754 295l1 -1l-75 -130q-9 -15 -15 -22.5t-20 -14t-33 -6.5h-44v-38l-88 105l88 105v-38h112q20 0 38.5 10
t27.5 20zM60 390q0 166 117 283t283 117t283 -117t117 -283t-117 -283t-283 -117t-283 117t-117 283zM98 390q0 -150 106 -256t256 -106t256 106t106 256t-106 256t-256 106t-256 -106t-106 -256z" />
    <glyph glyph-name="mediumwhitecircle" unicode="&#x26aa;" horiz-adv-x="670" 
d="M59 265q0 114 81 195t195 81t195 -81t81 -195t-81 -195t-195 -81t-195 81t-81 195zM124 265q0 -88 61.5 -149.5t149.5 -61.5t149.5 61.5t61.5 149.5t-61.5 149.5t-149.5 61.5t-149.5 -61.5t-61.5 -149.5z" />
    <glyph glyph-name="mediumblackcircle" unicode="&#x26ab;" horiz-adv-x="670" 
d="M59 265q0 114 81 195t195 81t195 -81t81 -195t-81 -195t-195 -81t-195 81t-81 195z" />
    <glyph glyph-name="anglebracketleft" unicode="&#x3008;" horiz-adv-x="317" 
d="M344 840l-226 -482l98 -478h-73l-99 480l225 480h75z" />
    <glyph glyph-name="anglebracketright" unicode="&#x3009;" horiz-adv-x="317" 
d="M-31 -120l226 482l-98 478h73l99 -480l-225 -480h-75z" />
    <glyph glyph-name="fi" unicode="&#xe38c;" horiz-adv-x="596" 
d="M221 650l-16 -120h148l-8 -63h-148l-61 -467h-70l61 467h-84l8 63h84l18 134q19 147 175 147q48 0 72 -12l-8 -60q-20 9 -60 9q-49 0 -76.5 -21.5t-34.5 -76.5zM404 0l69 530h70l-69 -530h-70zM582 745l-12 -90h-90l12 90h90z" />
    <glyph glyph-name="fi" unicode="&#xfb01;" horiz-adv-x="596" 
d="M221 650l-16 -120h148l-8 -63h-148l-61 -467h-70l61 467h-84l8 63h84l18 134q19 147 175 147q48 0 72 -12l-8 -60q-20 9 -60 9q-49 0 -76.5 -21.5t-34.5 -76.5zM404 0l69 530h70l-69 -530h-70zM582 745l-12 -90h-90l12 90h90z" />
    <glyph glyph-name="fl" unicode="&#xe38d;" horiz-adv-x="596" 
d="M221 650l-16 -120h148l-8 -63h-148l-61 -467h-70l61 467h-84l8 63h84l18 134q19 147 175 147q48 0 72 -12l-8 -60q-20 9 -60 9q-49 0 -76.5 -21.5t-34.5 -76.5zM404 0l105 800h70l-105 -800h-70z" />
    <glyph glyph-name="fl" unicode="&#xfb02;" horiz-adv-x="596" 
d="M221 650l-16 -120h148l-8 -63h-148l-61 -467h-70l61 467h-84l8 63h84l18 134q19 147 175 147q48 0 72 -12l-8 -60q-20 9 -60 9q-49 0 -76.5 -21.5t-34.5 -76.5zM404 0l105 800h70l-105 -800h-70z" />
    <glyph glyph-name="invertedbreve" unicode="&#xe411;" horiz-adv-x="500" 
d="M300 791q83 0 118 -47.5t24 -129.5h-54q15 122 -88 122q-54 0 -84.5 -32.5t-37.5 -89.5h-58q22 177 180 177z" />
    <glyph glyph-name="doublegrave" unicode="&#xe412;" horiz-adv-x="500" 
d="M115 780h68l68 -166h-63zM245 780h67l62 -166h-63z" />
    <glyph glyph-name="caronSlovak" unicode="&#xe413;" horiz-adv-x="500" 
d="M380 800h57l-42 -186h-40z" />
    <glyph glyph-name="commaaccent" unicode="&#xe414;" horiz-adv-x="602" 
d="M234 -56l-7 -51q-7 -52 -38 -79.5t-81 -27.5l5 36q57 0 73 54h-42l9 68h81z" />
    <glyph glyph-name="commaaccent" unicode="&#xf6c3;" horiz-adv-x="602" 
d="M234 -56l-7 -51q-7 -52 -38 -79.5t-81 -27.5l5 36q57 0 73 54h-42l9 68h81z" />
    <glyph glyph-name="dotbelow" unicode="&#xe415;" horiz-adv-x="602" 
d="M229 -87l-10 -82h-82l11 82h81z" />
    <glyph glyph-name="altcedilla" unicode="&#xe416;" horiz-adv-x="602" 
d="M238 -130q0 34 -55 34q-32 0 -56 -10v36q30 12 68 12q39 0 64.5 -16.5t25.5 -52.5q0 -42 -29.5 -63t-78.5 -21q-57 0 -92 27l20 36q29 -21 71 -21q62 0 62 39z" />
    <glyph glyph-name="grave.cap" unicode="&#xe421;" horiz-adv-x="500" 
d="M228 950h74l45 -110h-72z" />
    <glyph glyph-name="acute.cap" unicode="&#xe422;" horiz-adv-x="500" 
d="M350 950h74l-77 -110h-72z" />
    <glyph glyph-name="circumflex.cap" unicode="&#xe423;" horiz-adv-x="500" 
d="M449 840h-67l-57 69l-78 -69h-74l121 110h64z" />
    <glyph glyph-name="tilde.cap" unicode="&#xe424;" horiz-adv-x="500" 
d="M427 936h48q-5 -46 -30.5 -69.5t-62.5 -23.5q-33 0 -71.5 29t-56.5 29q-41 0 -45 -47h-48q5 46 30.5 69.5t62.5 23.5q32 0 71 -29t57 -29q41 0 45 47z" />
    <glyph glyph-name="macron.cap" unicode="&#xe425;" horiz-adv-x="500" 
d="M202 868l7 54h226l-7 -54h-226z" />
    <glyph glyph-name="breve.cap" unicode="&#xe426;" horiz-adv-x="500" 
d="M311 829q-72 0 -105 33.5t-25 87.5h53q-5 -34 15 -54.5t65 -20.5t70 20.5t30 54.5h57q-7 -55 -47.5 -88t-112.5 -33z" />
    <glyph glyph-name="invertedbreve.cap" unicode="&#xe427;" horiz-adv-x="500" 
d="M326 961q72 0 104.5 -33.5t25.5 -87.5h-53q5 34 -15 54.5t-65 20.5t-70 -20.5t-30 -54.5h-57q7 55 47.5 88t112.5 33z" />
    <glyph glyph-name="dotaccent.cap" unicode="&#xe428;" horiz-adv-x="500" 
d="M362 930l-9 -70h-79l9 70h79z" />
    <glyph glyph-name="dieresis.cap" unicode="&#xe429;" horiz-adv-x="500" 
d="M284 930l-9 -70h-79l9 70h79zM440 930l-9 -70h-79l9 70h79z" />
    <glyph glyph-name="ring.cap" unicode="&#xe42a;" horiz-adv-x="500" 
d="M306 811q27 0 46 16t19 47q0 22 -12.5 35.5t-35.5 13.5q-27 0 -46 -16t-19 -47q0 -22 12.5 -35.5t35.5 -13.5zM306 773q-40 0 -63.5 24.5t-23.5 62.5q0 43 30.5 72t73.5 29q40 0 63.5 -24.5t23.5 -62.5q0 -43 -30.5 -72t-73.5 -29z" />
    <glyph glyph-name="hungarumlaut.cap" unicode="&#xe42b;" horiz-adv-x="500" 
d="M288 950h70l-76 -110h-67zM415 950h70l-78 -110h-67z" />
    <glyph glyph-name="doublegrave.cap" unicode="&#xe42c;" horiz-adv-x="500" 
d="M294 950h70l43 -110h-67zM167 950h70l45 -110h-67z" />
    <glyph glyph-name="caron.cap" unicode="&#xe42d;" horiz-adv-x="500" 
d="M188 950h67l57 -69l78 69h74l-121 -110h-64z" />
    <glyph glyph-name="commaaccent.cap" unicode="&#xe42e;" horiz-adv-x="500" 
d="M272 840l5 42q10 80 102 80l-5 -32q-48 0 -56 -29h41l-8 -61h-79z" />
    <glyph glyph-name="exclamdown.cap" unicode="&#xe441;" horiz-adv-x="217" 
d="M102 0h-85l97 591h46zM105 690l12 90h90l-12 -90h-90z" />
    <glyph glyph-name="questiondown.cap" unicode="&#xe444;" horiz-adv-x="455" 
d="M185 54q74 0 109.5 55.5t49.5 166.5h71l-2 -14q-19 -138 -70 -205.5t-160 -67.5q-182 0 -182 173q0 62 20.5 109t51 79t62.5 62.5t59.5 75.5t37.5 103h47q-5 -59 -27.5 -108t-51.5 -82.5t-57.5 -66.5t-48 -75t-19.5 -92q0 -57 26 -85t84 -28zM224 690l12 90h90l-12 -90
h-90z" />
    <glyph glyph-name="guilsinglleft.cap" unicode="&#xe451;" horiz-adv-x="304" 
d="M280 574l-9 -73l-164 -113l134 -114l-9 -67l-184 153l8 62z" />
    <glyph glyph-name="guilsinglright.cap" unicode="&#xe452;" horiz-adv-x="304" 
d="M28 207l9 73l164 113l-134 114l9 67l184 -153l-8 -62z" />
    <glyph glyph-name="guillemotleft.cap" unicode="&#xe453;" horiz-adv-x="517" 
d="M280 574l-9 -73l-164 -113l134 -114l-9 -67l-184 153l8 62zM492 574l-9 -73l-164 -113l134 -114l-9 -67l-184 153l8 62z" />
    <glyph glyph-name="guillemotright.cap" unicode="&#xe454;" horiz-adv-x="517" 
d="M240 207l9 73l164 113l-134 114l9 67l184 -153l-8 -62zM28 207l9 73l164 113l-134 114l9 67l184 -153l-8 -62z" />
    <glyph glyph-name="slash.cap" unicode="&#xe461;" horiz-adv-x="321" 
d="M52 0h-72l294 780h72z" />
    <glyph glyph-name="backslash.cap" unicode="&#xe462;" horiz-adv-x="321" 
d="M84 780h68l90 -780h-68z" />
    <glyph glyph-name="bar.cap" unicode="&#xe463;" horiz-adv-x="201" 
d="M17 0l102 780h70l-102 -780h-70z" />
    <glyph glyph-name="doublebar.cap" unicode="&#xe464;" horiz-adv-x="327" 
d="M17 0l102 780h70l-102 -780h-70zM142 0l102 780h70l-102 -780h-70z" />
    <glyph glyph-name="brokenbar.cap" unicode="&#xe465;" horiz-adv-x="201" 
d="M72 426l47 354h70l-47 -354h-70zM17 0l46 354h70l-46 -354h-70z" />
    <glyph glyph-name="bullet.cap" unicode="&#xe466;" horiz-adv-x="397" 
d="M348 521l-34 -262h-262l35 262h261z" />
    <glyph glyph-name="onethirdemdash" unicode="&#xe471;" horiz-adv-x="333" 
d="M285 318h-253l9 64h253z" />
    <glyph glyph-name="threequarteremdash" unicode="&#xe472;" horiz-adv-x="750" 
d="M32 318l9 64h670l-9 -64h-670z" />
    <glyph glyph-name="periodcentered.cap" unicode="&#xe481;" horiz-adv-x="217" 
d="M161 435l-12 -90h-90l12 90h90z" />
    <glyph glyph-name="hyphen.cap" unicode="&#xe482;" horiz-adv-x="329" 
d="M285 358h-248l9 64h248z" />
    <glyph glyph-name="onethirdemdash.cap" unicode="&#xe483;" horiz-adv-x="333" 
d="M290 358h-253l9 64h253z" />
    <glyph glyph-name="endash.cap" unicode="&#xe484;" horiz-adv-x="500" 
d="M37 358l9 64h420l-9 -64h-420z" />
    <glyph glyph-name="threequarteremdash.cap" unicode="&#xe485;" horiz-adv-x="750" 
d="M37 358l9 64h670l-9 -64h-670z" />
    <glyph glyph-name="emdash.cap" unicode="&#xe486;" horiz-adv-x="1000" 
d="M37 358l9 64h920l-9 -64h-920z" />
    <glyph glyph-name="figuredash.cap" unicode="&#xe487;" horiz-adv-x="600" 
d="M37 358l9 64h520l-9 -64h-520z" />
    <glyph glyph-name="uni2015.cap" unicode="&#xe488;" horiz-adv-x="1200" 
d="M37 358l9 64h1120l-9 -64h-1120z" />
    <glyph glyph-name="parenleft.cap" unicode="&#xe491;" horiz-adv-x="317" 
d="M60 378l3 24q24 193 173 378h75q-152 -192 -176 -378l-3 -24q-24 -189 77 -378h-74q-99 179 -75 378z" />
    <glyph glyph-name="parenright.cap" unicode="&#xe492;" horiz-adv-x="317" 
d="M260 402l-3 -24q-24 -193 -173 -378h-75q152 192 176 378l3 24q24 189 -77 378h74q99 -179 75 -378z" />
    <glyph glyph-name="bracketleft.cap" unicode="&#xe493;" horiz-adv-x="317" 
d="M120 780h208l-8 -65h-138l-85 -650h137l-8 -65h-208z" />
    <glyph glyph-name="bracketright.cap" unicode="&#xe494;" horiz-adv-x="317" 
d="M201 0h-208l8 65h138l85 650h-137l8 65h208z" />
    <glyph glyph-name="braceleft.cap" unicode="&#xe495;" horiz-adv-x="317" 
d="M329 780l-8 -65q-51 0 -76 -22.5t-33 -83.5l-15 -117q-11 -78 -76 -102q59 -26 49 -103l-15 -117q-9 -63 8.5 -84t71.5 -21l-8 -65h-18q-63 0 -100.5 34t-27.5 110l16 125q7 52 -10.5 70t-63.5 18l8 66q46 0 68.5 18t29.5 70l17 131q18 138 165 138h18z" />
    <glyph glyph-name="braceright.cap" unicode="&#xe496;" horiz-adv-x="317" 
d="M-7 0l8 65q51 0 76 22.5t33 83.5l15 117q11 78 76 102q-59 26 -49 103l15 117q9 63 -8.5 84t-71.5 21l8 65h18q63 0 100.5 -34t27.5 -110l-16 -125q-7 -52 10.5 -70t63.5 -18l-8 -66q-46 0 -68.5 -18t-29.5 -70l-17 -131q-18 -138 -165 -138h-18z" />
    <glyph glyph-name="anglebracketleft.cap" unicode="&#xe497;" horiz-adv-x="317" 
d="M204 0h-73l-81 390l183 390h75l-184 -392z" />
    <glyph glyph-name="anglebracketright.cap" unicode="&#xe498;" horiz-adv-x="317" 
d="M118 780h73l81 -390l-183 -390h-75l184 392z" />
    <glyph glyph-name="lowline" unicode="&#xe511;" horiz-adv-x="320" 
d="M-1 0l9 64h224l-9 -64h-224z" />
    <glyph glyph-name="underscoremonospace" unicode="&#xe512;" horiz-adv-x="600" 
d="M-19 -135l9 64h504l-9 -64h-504z" />
    <glyph glyph-name="underscoremonospace" unicode="&#xff3f;" horiz-adv-x="600" 
d="M-19 -135l9 64h504l-9 -64h-504z" />
    <glyph glyph-name="at.cap" unicode="&#xe513;" horiz-adv-x="961" 
d="M448 -56h10q90 0 180.5 29t153.5 77l31 -43q-72 -60 -173 -89t-197 -29q-219 0 -334 128t-87 353l5 40q28 224 170.5 352.5t350.5 128.5q188 0 298 -101t86 -296l-5 -40q-11 -88 -38 -147.5t-68.5 -90.5t-88.5 -43.5t-110 -12.5h-46l-1 72q-61 -83 -160 -83
q-102 0 -143 67.5t-27 168.5l3 22q14 101 72 167.5t158 66.5q53 0 89 -23.5t53 -60.5l18 73h54l-25 -150l-35 -266q52 1 87 10t68 33.5t53.5 73t29.5 123.5l5 40q11 90 -10.5 158t-68.5 107t-108 58t-135 19h-10q-183 0 -309 -113.5t-150 -312.5l-5 -40
q-26 -203 73.5 -314.5t285.5 -111.5zM614 501q-40 80 -128 80q-67 0 -108 -47.5t-51 -124.5l-3 -22q-11 -80 16.5 -129t93.5 -49q91 0 152 80z" />
    <glyph glyph-name="zero.inf" unicode="&#xe571;" 
d="M235 79l-22 -168q-16 -118 -133 -118q-64 0 -94 32.5t-23 85.5l22 168q14 117 133 117q63 0 93.5 -32t23.5 -85zM51 78l-22 -167q-8 -59 51 -59h3q56 0 64 59l22 168q8 59 -51 59h-3q-30 0 -45 -14t-19 -46z" />
    <glyph glyph-name="one.inf" unicode="&#xe572;" 
d="M201 -200h-245l7 49h94l36 270l-85 -53l-22 42l132 83h40l-45 -342h95z" />
    <glyph glyph-name="two.inf" unicode="&#xe573;" 
d="M206 -151l-7 -49h-250l5 40l182 168q38 35 42 66l1 8q4 32 -11.5 48t-45.5 16h-6q-69 0 -77 -86h-56l3 22q16 114 133 114q64 0 93.5 -31.5t23.5 -78.5l-1 -8q-5 -47 -58 -96l-144 -133h173z" />
    <glyph glyph-name="three.inf" unicode="&#xe574;" 
d="M19 -75q-13 -82 57 -82h7q66 0 74 59l1 8q4 31 -11 47.5t-45 16.5h-55l6 50h54q65 0 72 54l1 8q4 30 -12.5 45t-45.5 15h-6q-69 0 -77 -86h-56l3 22q16 114 133 114q63 0 93.5 -30t24.5 -76l-1 -8q-4 -33 -23 -55.5t-46 -27.5q25 -7 38.5 -32t8.5 -58l-1 -8
q-6 -47 -41.5 -77.5t-92.5 -30.5q-134 0 -118 124l1 8h57z" />
    <glyph glyph-name="four.inf" unicode="&#xe575;" 
d="M155 -200h-56l13 95h-162l5 40l195 255h56l-32 -246h54l-7 -49h-54zM139 97l-118 -154l36 1h61l15 111z" />
    <glyph glyph-name="five.inf" unicode="&#xe576;" 
d="M-38 -75h57q-13 -82 57 -82h6q29 0 51 18.5t27 55.5l1 8q4 37 -11.5 56t-45.5 19h-6q-54 0 -80 -42l-47 15l39 217h237l-6 -50h-188l-21 -117q27 27 74 27q59 0 89 -31.5t22 -93.5l-1 -8q-7 -57 -43 -90.5t-94 -33.5q-134 0 -118 124z" />
    <glyph glyph-name="six.inf" unicode="&#xe577;" 
d="M235 196l-6 -50q-87 0 -144 -58q-29 -30 -44 -72q32 30 80 30t75.5 -31.5t20.5 -89.5l-1 -8q-7 -57 -43 -90.5t-94 -33.5q-62 0 -91.5 38.5t-21.5 106.5l1 8q13 102 77 174q68 76 191 76zM105 -4h-6q-47 0 -76 -45q-4 -32 -4 -39q-1 -33 14 -51t43 -18h6q29 0 51 18.5
t27 55.5l1 8q4 34 -11 52.5t-45 18.5z" />
    <glyph glyph-name="seven.inf" unicode="&#xe578;" 
d="M-21 50l19 140h257l-5 -40l-191 -350h-62l188 342l-56 -1h-84l-13 -91h-53z" />
    <glyph glyph-name="eight.inf" unicode="&#xe579;" 
d="M79 -208q-66 0 -94.5 32t-22.5 79l1 8q4 33 24.5 58t46.5 30q-25 8 -39 30t-10 54l1 8q6 47 40.5 76t91.5 29q63 0 94 -30t25 -76l-1 -8q-4 -33 -23 -55.5t-46 -27.5q25 -7 38.5 -32t8.5 -58l-1 -8q-6 -48 -40.5 -78.5t-93.5 -30.5zM121 146h-6q-66 0 -73 -55l-1 -8
q-3 -27 12 -43t45 -16h9q66 0 72 54l1 8q4 29 -13 44.5t-46 15.5zM76 -158h7q66 0 74 60l1 8q4 31 -11 47.5t-45 16.5h-10q-64 0 -72 -60l-1 -8q-4 -31 12 -47.5t45 -16.5z" />
    <glyph glyph-name="nine.inf" unicode="&#xe57a;" 
d="M-39 -207l6 50q89 0 146 58q29 30 44 72q-32 -30 -80 -30t-75.5 31.5t-20.5 89.5l1 8q7 57 43 90.5t94 33.5q62 0 91.5 -38.5t21.5 -106.5l-1 -8q-13 -102 -77 -174q-68 -76 -193 -76zM93 -7h6q47 0 76 45q4 32 4 39q1 33 -14 51t-43 18h-6q-29 0 -51 -18.5t-27 -55.5
l-1 -8q-4 -34 11 -52.5t45 -18.5z" />
    <glyph glyph-name="plus.inf" unicode="&#xe57b;" 
d="M91 122h50l-13 -102h103l-8 -51h-102l-13 -101h-51l13 101h-102l8 51h102z" />
    <glyph glyph-name="minus.inf" unicode="&#xe57c;" 
d="M-32 -31l8 51h255l-8 -51h-255z" />
    <glyph glyph-name="equal.inf" unicode="&#xe57d;" 
d="M-23 25l8 51h255l-8 -51h-255zM-41 -87l8 51h255l-8 -51h-255z" />
    <glyph glyph-name="parenleft.inf" unicode="&#xe57e;" horiz-adv-x="169" 
d="M-25 -6l1 8q14 116 84 188h60q-75 -83 -88 -188l-1 -8q-12 -102 37 -194h-56q-20 34 -31.5 87t-5.5 107z" />
    <glyph glyph-name="parenright.inf" unicode="&#xe57f;" horiz-adv-x="169" 
d="M92 -4l-1 -8q-14 -116 -84 -188h-60q75 83 88 188l1 8q12 102 -37 194h56q20 -34 31.5 -87t5.5 -107z" />
    <glyph glyph-name="Anocross" unicode="&#xe731;" horiz-adv-x="611" 
d="M309 788h103l121 -788h-76l-106 709l-292 -709h-79z" />
    <glyph glyph-name="idotaccent" unicode="&#xe785;" horiz-adv-x="216" 
d="M24 0l69 530h70l-69 -530h-70zM202 745l-12 -90h-90l12 90h90z" />
    <glyph glyph-name="interrobangdown" unicode="&#xe935;" horiz-adv-x="455" 
d="M201 341h47l-46 -480q93 28 113 199h72l-2 -14q-19 -132 -71.5 -194.5t-159.5 -62.5q-181 0 -181 161q0 51 14.5 90.5t36.5 62.5t49.5 48t52.5 46.5t46 59t29 84.5zM46 -45q0 -85 78 -98l54 320q-15 -19 -44 -50t-44.5 -50t-29.5 -52t-14 -70zM193 440l12 90h90l-12 -90
h-90z" />
    <glyph glyph-name="interrobangdown.cap" unicode="&#xe99b;" horiz-adv-x="455" 
d="M232 591h47l-52 -532q52 15 78.5 69t38.5 148h71l-2 -14q-19 -138 -70 -205.5t-160 -67.5q-182 0 -182 173q0 62 20.5 109t51 79t62.5 62.5t59.5 75.5t37.5 103zM75 167q0 -96 74 -110l59 362q-14 -19 -44 -55.5t-45.5 -58.5t-29.5 -59.5t-14 -78.5zM224 690l12 90h90
l-12 -90h-90z" />
    <glyph glyph-name="registered.cap" unicode="&#xe99c;" horiz-adv-x="920" 
d="M59 390q0 166 117.5 283.5t283.5 117.5t283.5 -117.5t117.5 -283.5t-117.5 -283.5t-283.5 -117.5t-283.5 117.5t-117.5 283.5zM102 390q0 -148 105 -253t253 -105t253 105t105 253t-105 253t-253 105t-253 -105t-105 -253zM363 342v-187h-66v470h182q62 0 104.5 -30.5
t42.5 -104.5v-12q0 -96 -78 -125l78 -198h-70l-69 187h-124zM363 396h107q90 0 90 84v7q0 84 -90 84h-107v-175z" />
    <glyph glyph-name="period.T" unicode="&#xf182;" 
d="M158 90l-12 -90h-90l12 90h90z" />
    <glyph glyph-name="comma.T" unicode="&#xf183;" 
d="M158 90l-10 -75q-18 -134 -130 -134l6 43q31 0 49.5 17.5t27.5 58.5h-45l12 90h90z" />
    <glyph glyph-name="colon.T" unicode="&#xf184;" 
d="M158 90l-12 -90h-90l12 90h90zM203 435l-12 -90h-90l12 90h90z" />
    <glyph glyph-name="semicolon.T" unicode="&#xf185;" 
d="M158 90l-10 -75q-18 -134 -130 -134l6 43q31 0 49.5 17.5t27.5 58.5h-45l12 90h90zM203 435l-12 -90h-90l12 90h90z" />
    <glyph glyph-name="onesixteenth" unicode="&#xf215;" horiz-adv-x="1100" 
d="M279 390h-245l7 49h94l36 270l-85 -53l-22 42l132 83h40l-45 -342h95zM99 0h-70l678 780h70zM728 0h-245l7 49h94l36 270l-85 -53l-22 42l132 83h40l-45 -342h95zM1062 396l-6 -50q-87 0 -144 -58q-29 -30 -44 -72q32 30 80 30t75.5 -31.5t20.5 -89.5l-1 -8
q-7 -57 -43 -90.5t-94 -33.5q-62 0 -91.5 38.5t-21.5 106.5l1 8q13 102 77 174q68 76 191 76zM932 196h-6q-47 0 -76 -45q-4 -32 -4 -39q-1 -33 14 -51t43 -18h6q29 0 51 18.5t27 55.5l1 8q4 34 -11 52.5t-45 18.5z" />
    <glyph glyph-name="threesixteenths" unicode="&#xf216;" horiz-adv-x="1100" 
d="M97 515q-13 -82 57 -82h7q66 0 74 59l1 8q4 31 -11 47.5t-45 16.5h-55l6 50h54q65 0 72 54l1 8q4 30 -12.5 45t-45.5 15h-6q-69 0 -77 -86h-56l3 22q16 114 133 114q63 0 93.5 -30t24.5 -76l-1 -8q-4 -33 -23 -55.5t-46 -27.5q25 -7 38.5 -32t8.5 -58l-1 -8
q-6 -47 -41.5 -77.5t-92.5 -30.5q-134 0 -118 124l1 8h57zM99 0h-70l678 780h70zM728 0h-245l7 49h94l36 270l-85 -53l-22 42l132 83h40l-45 -342h95zM1062 396l-6 -50q-87 0 -144 -58q-29 -30 -44 -72q32 30 80 30t75.5 -31.5t20.5 -89.5l-1 -8q-7 -57 -43 -90.5t-94 -33.5
q-62 0 -91.5 38.5t-21.5 106.5l1 8q13 102 77 174q68 76 191 76zM932 196h-6q-47 0 -76 -45q-4 -32 -4 -39q-1 -33 14 -51t43 -18h6q29 0 51 18.5t27 55.5l1 8q4 34 -11 52.5t-45 18.5z" />
    <glyph glyph-name="fivesixteenths" unicode="&#xf217;" horiz-adv-x="1100" 
d="M40 515h57q-13 -82 57 -82h6q29 0 51 18.5t27 55.5l1 8q4 37 -11.5 56t-45.5 19h-6q-54 0 -80 -42l-47 15l39 217h237l-6 -50h-188l-21 -117q27 27 74 27q59 0 89 -31.5t22 -93.5l-1 -8q-7 -57 -43 -90.5t-94 -33.5q-134 0 -118 124zM99 0h-70l678 780h70zM728 0h-245
l7 49h94l36 270l-85 -53l-22 42l132 83h40l-45 -342h95zM1062 396l-6 -50q-87 0 -144 -58q-29 -30 -44 -72q32 30 80 30t75.5 -31.5t20.5 -89.5l-1 -8q-7 -57 -43 -90.5t-94 -33.5q-62 0 -91.5 38.5t-21.5 106.5l1 8q13 102 77 174q68 76 191 76zM932 196h-6q-47 0 -76 -45
q-4 -32 -4 -39q-1 -33 14 -51t43 -18h6q29 0 51 18.5t27 55.5l1 8q4 34 -11 52.5t-45 18.5z" />
    <glyph glyph-name="sevensixteenths" unicode="&#xf218;" horiz-adv-x="1100" 
d="M57 640l19 140h257l-5 -40l-191 -350h-62l188 342l-56 -1h-84l-13 -91h-53zM99 0h-70l678 780h70zM728 0h-245l7 49h94l36 270l-85 -53l-22 42l132 83h40l-45 -342h95zM1062 396l-6 -50q-87 0 -144 -58q-29 -30 -44 -72q32 30 80 30t75.5 -31.5t20.5 -89.5l-1 -8
q-7 -57 -43 -90.5t-94 -33.5q-62 0 -91.5 38.5t-21.5 106.5l1 8q13 102 77 174q68 76 191 76zM932 196h-6q-47 0 -76 -45q-4 -32 -4 -39q-1 -33 14 -51t43 -18h6q29 0 51 18.5t27 55.5l1 8q4 34 -11 52.5t-45 18.5z" />
    <glyph glyph-name="ninesixteenths" unicode="&#xf219;" horiz-adv-x="1100" 
d="M39 383l6 50q89 0 146 58q29 30 44 72q-32 -30 -80 -30t-75.5 31.5t-20.5 89.5l1 8q7 57 43 90.5t94 33.5q62 0 91.5 -38.5t21.5 -106.5l-1 -8q-13 -102 -77 -174q-68 -76 -193 -76zM171 583h6q47 0 76 45q4 32 4 39q1 33 -14 51t-43 18h-6q-29 0 -51 -18.5t-27 -55.5
l-1 -8q-4 -34 11 -52.5t45 -18.5zM99 0h-70l678 780h70zM728 0h-245l7 49h94l36 270l-85 -53l-22 42l132 83h40l-45 -342h95zM1062 396l-6 -50q-87 0 -144 -58q-29 -30 -44 -72q32 30 80 30t75.5 -31.5t20.5 -89.5l-1 -8q-7 -57 -43 -90.5t-94 -33.5q-62 0 -91.5 38.5
t-21.5 106.5l1 8q13 102 77 174q68 76 191 76zM932 196h-6q-47 0 -76 -45q-4 -32 -4 -39q-1 -33 14 -51t43 -18h6q29 0 51 18.5t27 55.5l1 8q4 34 -11 52.5t-45 18.5z" />
    <glyph glyph-name="elevensixteenths" unicode="&#xf220;" horiz-adv-x="1400" 
d="M279 390h-245l7 49h94l36 270l-85 -53l-22 42l132 83h40l-45 -342h95zM579 390h-245l7 49h94l36 270l-85 -53l-22 42l132 83h40l-45 -342h95zM399 0h-70l678 780h70zM1028 0h-245l7 49h94l36 270l-85 -53l-22 42l132 83h40l-45 -342h95zM1362 396l-6 -50q-87 0 -144 -58
q-29 -30 -44 -72q32 30 80 30t75.5 -31.5t20.5 -89.5l-1 -8q-7 -57 -43 -90.5t-94 -33.5q-62 0 -91.5 38.5t-21.5 106.5l1 8q13 102 77 174q68 76 191 76zM1232 196h-6q-47 0 -76 -45q-4 -32 -4 -39q-1 -33 14 -51t43 -18h6q29 0 51 18.5t27 55.5l1 8q4 34 -11 52.5
t-45 18.5z" />
    <glyph glyph-name="thirteensixteenths" unicode="&#xf221;" horiz-adv-x="1400" 
d="M279 390h-245l7 49h94l36 270l-85 -53l-22 42l132 83h40l-45 -342h95zM397 515q-13 -82 57 -82h7q66 0 74 59l1 8q4 31 -11 47.5t-45 16.5h-55l6 50h54q65 0 72 54l1 8q4 30 -12.5 45t-45.5 15h-6q-69 0 -77 -86h-56l3 22q16 114 133 114q63 0 93.5 -30t24.5 -76l-1 -8
q-4 -33 -23 -55.5t-46 -27.5q25 -7 38.5 -32t8.5 -58l-1 -8q-6 -47 -41.5 -77.5t-92.5 -30.5q-134 0 -118 124l1 8h57zM399 0h-70l678 780h70zM1028 0h-245l7 49h94l36 270l-85 -53l-22 42l132 83h40l-45 -342h95zM1362 396l-6 -50q-87 0 -144 -58q-29 -30 -44 -72
q32 30 80 30t75.5 -31.5t20.5 -89.5l-1 -8q-7 -57 -43 -90.5t-94 -33.5q-62 0 -91.5 38.5t-21.5 106.5l1 8q13 102 77 174q68 76 191 76zM1232 196h-6q-47 0 -76 -45q-4 -32 -4 -39q-1 -33 14 -51t43 -18h6q29 0 51 18.5t27 55.5l1 8q4 34 -11 52.5t-45 18.5z" />
    <glyph glyph-name="fifteensixteenths" unicode="&#xf222;" horiz-adv-x="1400" 
d="M279 390h-245l7 49h94l36 270l-85 -53l-22 42l132 83h40l-45 -342h95zM340 515h57q-13 -82 57 -82h6q29 0 51 18.5t27 55.5l1 8q4 37 -11.5 56t-45.5 19h-6q-54 0 -80 -42l-47 15l39 217h237l-6 -50h-188l-21 -117q27 27 74 27q59 0 89 -31.5t22 -93.5l-1 -8
q-7 -57 -43 -90.5t-94 -33.5q-134 0 -118 124zM399 0h-70l678 780h70zM1028 0h-245l7 49h94l36 270l-85 -53l-22 42l132 83h40l-45 -342h95zM1362 396l-6 -50q-87 0 -144 -58q-29 -30 -44 -72q32 30 80 30t75.5 -31.5t20.5 -89.5l-1 -8q-7 -57 -43 -90.5t-94 -33.5
q-62 0 -91.5 38.5t-21.5 106.5l1 8q13 102 77 174q68 76 191 76zM1232 196h-6q-47 0 -76 -45q-4 -32 -4 -39q-1 -33 14 -51t43 -18h6q29 0 51 18.5t27 55.5l1 8q4 34 -11 52.5t-45 18.5z" />
    </font>
</defs>
</svg>
