<?xml version="1.0" standalone="no"?>
<!DOCTYPE svg PUBLIC "-//W3C//DTD SVG 1.1//EN" "http://www.w3.org/Graphics/SVG/1.1/DTD/svg11.dtd" >
<svg xmlns="http://www.w3.org/2000/svg" xmlns:xlink="http://www.w3.org/1999/xlink" version="1.1">
<metadata>
Created by FontForge 20170731 at Fri Jun  6 20:29:56 2014
 By Aleksey,,,
Copyright (c) 2014, Cooper Hewitt Smithsonian Design Museum (cooperhewitt.org)
</metadata>
<defs>
<font id="CooperHewitt-Light" horiz-adv-x="300" >
  <font-face 
    font-family="Cooper Hewitt"
    font-weight="703"
    font-stretch="normal"
    units-per-em="1000"
    panose-1="0 0 0 0 0 0 0 0 0 0"
    ascent="750"
    descent="-250"
    x-height="530"
    cap-height="780"
    bbox="-210 -210 1376 960"
    underline-thickness="20"
    underline-position="-130"
    unicode-range="U+0020-F222"
  />
<missing-glyph horiz-adv-x="970" 
d="M95 0v780h780v-780h-780zM485 345l-279 -279h558zM206 714l279 -279l279 279h-558zM440 390l-275 275v-550zM530 390l275 -275v550z" />
    <glyph glyph-name=".notdef" horiz-adv-x="970" 
d="M95 0v780h780v-780h-780zM485 345l-279 -279h558zM206 714l279 -279l279 279h-558zM440 390l-275 275v-550zM530 390l275 -275v550z" />
    <glyph glyph-name=".null" horiz-adv-x="0" 
 />
    <glyph glyph-name="nonmarkingreturn" horiz-adv-x="333" 
 />
    <glyph glyph-name="space" unicode=" " horiz-adv-x="200" 
 />
    <glyph glyph-name="exclam" unicode="!" horiz-adv-x="200" 
d="M77 780h46l-11 -605h-24zM130 60v-60h-60v60h60z" />
    <glyph glyph-name="quotedbl" unicode="&#x22;" 
d="M77 780h46l-11 -250h-24zM177 780h46l-11 -250h-24z" />
    <glyph glyph-name="numbersign" unicode="#" horiz-adv-x="600" 
d="M100 490v40h107l60 250h40l-60 -250h173l60 250h40l-60 -250h103v-40h-113l-48 -200h98v-40h-107l-60 -250h-40l60 250h-173l-60 -250h-40l60 250h-103v40h112l48 200h-97zM237 490l-48 -200h173l48 200h-173z" />
    <glyph glyph-name="dollar" unicode="$" horiz-adv-x="600" 
d="M423 840l-31 -127q131 -41 131 -198v-17h-40q0 142 -100 177l-62 -260q108 -13 158.5 -55.5t50.5 -117.5v-7q0 -83 -59.5 -132t-160.5 -49q-38 0 -73 8l-29 -122h-40l32 133q-63 25 -96.5 76t-33.5 115v7h40q0 -114 99 -159l65 272q-196 27 -196 164v6q0 77 62 124.5
t160 47.5q21 0 55 -4l28 118h40zM312 92q81 0 128.5 37.5t47.5 103.5v5q0 64 -42.5 96t-132.5 45l-67 -280q27 -7 63 -7h3zM120 553q0 -55 37.5 -87.5t124.5 -45.5l64 265q-21 3 -44 3h-3q-77 0 -128 -35t-51 -95v-5z" />
    <glyph glyph-name="percent" unicode="%" horiz-adv-x="900" 
d="M309 0h-42l302 728q-57 -18 -129 -18q-54 0 -103 11q25 -39 25 -96v-10q0 -79 -45.5 -122t-114.5 -43t-114.5 43t-45.5 122v10q0 79 45.5 122t114.5 43q34 0 61 -10q93 -32 177 -32q44 0 100 11t77 21v-37zM538 165q0 79 45.5 122t114.5 43t114.5 -43t45.5 -122v-10
q0 -79 -45.5 -122t-114.5 -43t-114.5 43t-45.5 122v10zM576 151q0 -58 34 -90.5t85 -32.5h6q51 0 85 32.5t34 90.5v18q0 58 -34 90.5t-85 32.5h-6q-51 0 -85 -32.5t-34 -90.5v-18zM324 629q0 58 -34 90.5t-85 32.5h-6q-51 0 -85 -32.5t-34 -90.5v-18q0 -58 34 -90.5
t85 -32.5h6q51 0 85 32.5t34 90.5v18z" />
    <glyph glyph-name="ampersand" unicode="&#x26;" horiz-adv-x="650" 
d="M270 -10q-102 0 -161 55t-59 155v10q0 68 35.5 117t98.5 94q-62 65 -88 107.5t-26 96.5v10q0 69 47 112t128 43t128 -43t47 -112v-10q0 -31 -12 -58.5t-39.5 -54t-47 -41.5t-61.5 -43q-11 -7 -16 -11l245 -258q46 89 46 231v5h40q0 -165 -57 -266l122 -129h-56l-89 94
q-79 -104 -225 -104zM267 30h6q126 0 194 93l-257 271q-57 -42 -88.5 -85t-31.5 -99v-10q0 -78 44.5 -124t132.5 -46zM112 635v-10q0 -34 16 -66.5t34 -54t56 -59.5q88 59 112 83q47 47 48 97v10q0 48 -34 81.5t-95 33.5h-8q-61 0 -95 -33.5t-34 -81.5z" />
    <glyph glyph-name="quotesingle" unicode="'" horiz-adv-x="200" 
d="M77 780h46l-11 -250h-24z" />
    <glyph glyph-name="parenleft" unicode="(" 
d="M55 350v20q0 83 12 152t37.5 127t48.5 97t62 94h45q-83 -115 -124 -217.5t-41 -252.5v-20q0 -150 41 -252.5t124 -217.5h-45q-39 55 -62 94t-48.5 97t-37.5 127t-12 152z" />
    <glyph glyph-name="parenright" unicode=")" 
d="M245 370v-20q0 -83 -12 -152t-37.5 -127t-48.5 -97t-62 -94h-45q83 115 124 217.5t41 252.5v20q0 150 -41 252.5t-124 217.5h45q39 -55 62 -94t48.5 -97t37.5 -127t12 -152z" />
    <glyph glyph-name="asterisk" unicode="*" horiz-adv-x="380" 
d="M170 800h40l-5 -150h-30zM12 657l13 38l141 -51l-9 -28zM100 464l-32 23l92 118l24 -17zM355 695l13 -38l-145 -41l-9 28zM312 487l-32 -23l-84 124l24 17z" />
    <glyph glyph-name="plus" unicode="+" horiz-adv-x="600" 
d="M280 640h40v-230h230v-40h-230v-230h-40v230h-230v40h230v230z" />
    <glyph glyph-name="comma" unicode="," horiz-adv-x="200" 
d="M130 60v-48q0 -122 -90 -122v30q30 0 44.5 17.5t15.5 62.5h-30v60h60z" />
    <glyph glyph-name="hyphen" unicode="-" horiz-adv-x="320" 
d="M40 331v38h240v-38h-240z" />
    <glyph glyph-name="period" unicode="." horiz-adv-x="200" 
d="M130 60v-60h-60v60h60z" />
    <glyph glyph-name="slash" unicode="/" 
d="M285 840l-230 -960h-40l230 960h40z" />
    <glyph glyph-name="zero" unicode="0" horiz-adv-x="600" 
d="M532 225q0 -109 -55.5 -172t-176.5 -63t-176.5 63t-55.5 172v330q0 109 55.5 172t176.5 63t176.5 -63t55.5 -172v-330zM490 545q0 100 -43 153.5t-144 53.5h-6q-101 0 -144 -53.5t-43 -153.5v-310q0 -100 43 -153.5t144 -53.5h6q101 0 144 53.5t43 153.5v310z" />
    <glyph glyph-name="one" unicode="1" horiz-adv-x="600" 
d="M545 0h-470v40h215v683l-204 -138l-21 34l245 166h20v-745h215v-40z" />
    <glyph glyph-name="two" unicode="2" horiz-adv-x="600" 
d="M205 40h335v-40h-480v25l350 368q50 52 69 91t19 86v10q0 78 -53.5 125t-141.5 47h-6q-101 0 -149 -55t-48 -177h-40v25q0 245 240 245q111 0 175.5 -54t64.5 -151v-10q0 -59 -19 -101.5t-73 -98.5l-320 -336z" />
    <glyph glyph-name="three" unicode="3" horiz-adv-x="600" 
d="M95 250q0 -111 52 -166.5t148 -55.5h10q83 0 140.5 43t57.5 124v15q0 82 -52.5 125.5t-133.5 43.5h-117v38h112q82 0 134 39t52 117v7q0 79 -52.5 125.5t-140.5 46.5h-10q-101 0 -148 -55t-47 -177h-40v25q0 245 240 245q111 0 175.5 -54t64.5 -151v-14q0 -136 -140 -173
q68 -19 106.5 -66t38.5 -120v-15q0 -96 -70.5 -151.5t-174.5 -55.5q-123 0 -184 66t-61 184v10h40z" />
    <glyph glyph-name="four" unicode="4" horiz-adv-x="600" 
d="M420 0h-40v220h-345v25l345 535h40v-520h145v-40h-145v-220zM381 708l-289 -449l98 1h190v330z" />
    <glyph glyph-name="five" unicode="5" horiz-adv-x="600" 
d="M55 250h40q0 -111 52 -166.5t148 -55.5h10q84 0 141 51t57 151v20q0 100 -57 151t-141 51h-10q-66 0 -121.5 -31.5t-79.5 -90.5l-33 9l19 441h455v-40h-417l-14 -335q66 85 196 85q105 0 175 -64t70 -181v-10q0 -117 -70 -181t-175 -64q-123 0 -184 66t-61 184v10z" />
    <glyph glyph-name="six" unicode="6" horiz-adv-x="600" 
d="M515 790v-40q-84 0 -169 -37t-142 -113q-65 -87 -91 -205q72 95 197 95q107 0 173.5 -62t66.5 -183v-10q0 -121 -67 -183t-178 -62q-106 0 -175.5 71t-69.5 199v10q0 209 110 356q61 81 156 122.5t189 41.5zM307 450q-69 0 -123 -34.5t-82 -92.5q-2 -18 -2 -53v-10
q0 -105 57.5 -167.5t144.5 -62.5h6q94 0 147 53t53 149v16q0 96 -52.5 149t-142.5 53h-6z" />
    <glyph glyph-name="seven" unicode="7" horiz-adv-x="600" 
d="M65 500v280h480v-25l-307 -755h-43l301 741l-117 -1h-274v-240h-40z" />
    <glyph glyph-name="eight" unicode="8" horiz-adv-x="600" 
d="M300 -10q-105 0 -175 54t-70 150v15q0 74 39 122t106 67q-65 17 -102.5 61.5t-37.5 114.5v14q0 96 64 149t176 53t176 -53t64 -149v-14q0 -70 -37.5 -114.5t-103.5 -61.5q68 -19 107 -67t39 -122v-15q0 -96 -70 -150t-175 -54zM283 379q-81 0 -133.5 -45t-52.5 -127v-15
q0 -81 57 -122.5t141 -41.5h10q84 0 141 41.5t57 122.5v15q0 82 -52.5 127t-133.5 45h-34zM305 752h-10q-88 0 -140.5 -45.5t-52.5 -123.5v-7q0 -78 52 -118.5t134 -40.5h24q82 0 134 40.5t52 118.5v7q0 78 -52.5 123.5t-140.5 45.5z" />
    <glyph glyph-name="nine" unicode="9" horiz-adv-x="600" 
d="M85 -10v40q84 0 169 37t142 113q66 88 90 204q-71 -94 -196 -94q-107 0 -173.5 62t-66.5 183v10q0 121 67 183t178 62q106 0 175.5 -71t69.5 -199v-10q0 -209 -110 -356q-61 -81 -156 -122.5t-189 -41.5zM293 330q68 0 122 34.5t82 91.5q3 28 3 54v10q0 105 -57.5 167.5
t-144.5 62.5h-6q-94 0 -147 -53t-53 -149v-16q0 -96 52.5 -149t142.5 -53h6z" />
    <glyph glyph-name="colon" unicode=":" horiz-adv-x="200" 
d="M130 60v-60h-60v60h60zM130 420v-60h-60v60h60z" />
    <glyph glyph-name="semicolon" unicode=";" horiz-adv-x="200" 
d="M130 60v-48q0 -122 -90 -122v30q30 0 44.5 17.5t15.5 62.5h-30v60h60zM130 420v-60h-60v60h60z" />
    <glyph glyph-name="less" unicode="&#x3c;" horiz-adv-x="600" 
d="M50 410l500 246v-42l-460 -224l460 -224v-42l-500 246v40z" />
    <glyph glyph-name="equal" unicode="=" horiz-adv-x="600" 
d="M50 470v40h500v-40h-500zM50 270v40h500v-40h-500z" />
    <glyph glyph-name="greater" unicode="&#x3e;" horiz-adv-x="600" 
d="M550 410v-40l-500 -246v42l459 224l-459 224v42z" />
    <glyph glyph-name="question" unicode="?" horiz-adv-x="440" 
d="M223 752q-87 0 -121 -64.5t-34 -187.5h-40v10q0 62 8.5 109t29 87.5t60.5 62t97 21.5q185 0 185 -210q0 -55 -17.5 -98t-43 -72.5t-51 -59.5t-44.5 -74.5t-20 -100.5h-24q-1 57 14.5 104.5t39 80.5t47 64t40.5 69.5t17 81.5q0 88 -31.5 132.5t-111.5 44.5zM250 60v-60
h-60v60h60z" />
    <glyph glyph-name="at" unicode="@" horiz-adv-x="950" 
d="M497 -172h6q192 0 329 102l22 -30q-141 -110 -354 -110q-209 0 -337 129t-128 351v40q0 223 125.5 351.5t334.5 128.5q87 0 162.5 -26t133.5 -75t91 -127.5t33 -176.5v-30q0 -87 -19 -146.5t-56 -91t-82.5 -44.5t-107.5 -13h-25l-10 76q-52 -86 -160 -86
q-101 0 -150.5 68t-49.5 167v20q0 99 49.5 167t150.5 68q109 0 160 -87l10 77h30l-5 -150v-283q54 1 89.5 10t68.5 35t49 79t16 134v30q0 92 -30.5 164t-83.5 115.5t-119 65.5t-142 22h-6q-188 0 -302.5 -119t-114.5 -323v-40q0 -209 116 -325.5t306 -116.5zM610 410
q-58 92 -150 92q-81 0 -122 -54.5t-41 -142.5v-20q0 -88 41 -142.5t122 -54.5q92 0 150 92v230z" />
    <glyph glyph-name="A" unicode="A" horiz-adv-x="600" 
d="M270 790h60l236 -790h-44l-63 211h-319l-62 -211h-44zM300 750l-149 -501h297z" />
    <glyph glyph-name="B" unicode="B" horiz-adv-x="570" 
d="M80 780h177q104 0 168.5 -48.5t64.5 -140.5v-20q0 -131 -130 -168q70 -16 110 -62t40 -121v-20q0 -96 -64.5 -148t-168.5 -52h-197v780zM282 382h-162v-344h162q82 0 134 41.5t52 122.5v16q0 81 -52 122.5t-134 41.5zM262 742h-142v-322h142q83 0 134.5 37.5t51.5 115.5
v16q0 78 -51.5 115.5t-134.5 37.5z" />
    <glyph glyph-name="C" unicode="C" horiz-adv-x="607" 
d="M105 370q0 -180 52 -261t160 -81h6q97 0 142 55.5t45 166.5h42v-10q0 -119 -58.5 -184.5t-175.5 -65.5q-130 0 -192.5 90.5t-62.5 289.5v40q0 199 62.5 289.5t192.5 90.5q234 0 234 -265v-25h-42q0 134 -44.5 193t-142.5 59h-6q-107 0 -159.5 -81t-52.5 -261v-40z" />
    <glyph glyph-name="D" unicode="D" horiz-adv-x="630" 
d="M567 370q0 -370 -292 -370h-195v780h195q292 0 292 -370v-40zM120 38h150q123 0 189 78t66 254v40q0 176 -66 254t-189 78h-150v-704z" />
    <glyph glyph-name="E" unicode="E" horiz-adv-x="540" 
d="M80 780h420v-38h-380v-325h330v-38h-330v-341h380v-38h-420v780z" />
    <glyph glyph-name="F" unicode="F" horiz-adv-x="500" 
d="M80 780h400v-38h-360v-325h310v-38h-310v-379h-40v780z" />
    <glyph glyph-name="G" unicode="G" horiz-adv-x="638" 
d="M338 -10q-138 0 -206.5 90.5t-68.5 289.5v40q0 198 67 289t198 91q235 0 235 -265v-25h-42q0 134 -45 193t-143 59h-6q-109 0 -165.5 -82t-56.5 -260v-40q0 -180 57 -261t175 -81h6q62 0 108.5 20.5t71.5 50.5v234h-145v38h185v-292q-76 -89 -225 -89z" />
    <glyph glyph-name="H" unicode="H" horiz-adv-x="630" 
d="M510 780h40v-780h-40v379h-390v-379h-40v780h40v-363h390v363z" />
    <glyph glyph-name="I" unicode="I" horiz-adv-x="210" 
d="M125 780v-780h-40v780h40z" />
    <glyph glyph-name="J" unicode="J" horiz-adv-x="480" 
d="M365 780h40v-540q0 -122 -43.5 -186t-144.5 -64t-143.5 62.5t-42.5 187.5v10h38q0 -117 35 -169.5t113 -52.5t113 52.5t35 169.5v530z" />
    <glyph glyph-name="K" unicode="K" horiz-adv-x="540" 
d="M120 780v-473l331 473h49l-238 -334l238 -446h-47l-216 410l-117 -165v-245h-40v780h40z" />
    <glyph glyph-name="L" unicode="L" horiz-adv-x="480" 
d="M465 0h-385v780h40v-742h345v-38z" />
    <glyph glyph-name="M" unicode="M" horiz-adv-x="780" 
d="M663 710l-258 -710h-30l-258 710l3 -180v-530h-40v780h52l258 -712l258 712h52v-780h-40v530z" />
    <glyph glyph-name="N" unicode="N" horiz-adv-x="650" 
d="M570 780v-780h-45l-410 720l3 -190v-530h-38v780h45l410 -720l-3 190v530h38z" />
    <glyph glyph-name="O" unicode="O" horiz-adv-x="640" 
d="M320 -10q-130 0 -193.5 90.5t-63.5 289.5v40q0 199 63.5 289.5t193.5 90.5t193.5 -90.5t63.5 -289.5v-40q0 -199 -63.5 -289.5t-193.5 -90.5zM317 28h6q108 0 160 80.5t52 261.5v40q0 181 -52 261.5t-160 80.5h-6q-108 0 -160 -80.5t-52 -261.5v-40q0 -181 52 -261.5
t160 -80.5z" />
    <glyph glyph-name="P" unicode="P" horiz-adv-x="560" 
d="M120 330v-330h-40v780h202q34 0 64.5 -6t61 -21t53 -38.5t36 -62t13.5 -87.5v-20q0 -49 -13.5 -87.5t-36 -62t-53 -38.5t-61 -21t-64.5 -6h-162zM120 368h162q25 0 48.5 4t49.5 16t44.5 31t31 52t12.5 76v16q0 43 -12.5 76t-31 52t-44.5 31t-49.5 16t-48.5 4h-162v-374z
" />
    <glyph glyph-name="Q" unicode="Q" horiz-adv-x="640" 
d="M320 -10q-130 0 -193.5 90.5t-63.5 289.5v40q0 199 63.5 289.5t193.5 90.5t193.5 -90.5t63.5 -289.5v-40q0 -304 -158 -364l41 -106h-45l-35 96q-28 -6 -60 -6zM340 213l65 -171q130 52 130 328v40q0 181 -52 261.5t-160 80.5h-6q-108 0 -160 -80.5t-52 -261.5v-40
q0 -181 52 -261.5t160 -80.5h6q23 0 43 3l-66 182h40z" />
    <glyph glyph-name="R" unicode="R" horiz-adv-x="570" 
d="M120 330v-330h-40v780h202q34 0 64.5 -6t61 -21t53 -38.5t36 -62t13.5 -87.5v-20q0 -160 -139 -203l139 -342h-45l-132 334q-23 -4 -51 -4h-162zM120 368h162q25 0 48.5 4t49.5 16t44.5 31t31 52t12.5 76v16q0 43 -12.5 76t-31 52t-44.5 31t-49.5 16t-48.5 4h-162v-374z
" />
    <glyph glyph-name="S" unicode="S" horiz-adv-x="590" 
d="M287 385q-119 16 -173 68.5t-54 126.5v10q0 92 65 146t170 54q235 0 235 -245v-25h-40q0 122 -46 177t-146 55h-6q-82 0 -136 -41.5t-54 -110.5v-10q0 -72 46.5 -113t157.5 -56q123 -17 178.5 -69t55.5 -138v-10q0 -99 -67 -156.5t-178 -57.5q-117 0 -181 67t-64 183v10
h40q0 -109 55.5 -165.5t146.5 -56.5h6q90 0 145 45t55 126v10q0 78 -50.5 119.5t-160.5 56.5z" />
    <glyph glyph-name="T" unicode="T" horiz-adv-x="500" 
d="M270 742v-742h-40v742h-205v38h450v-38h-205z" />
    <glyph glyph-name="U" unicode="U" horiz-adv-x="630" 
d="M315 -10q-120 0 -180 55.5t-60 194.5v540h40v-535q0 -123 48.5 -170t151.5 -47t151.5 47t48.5 170v535h40v-540q0 -139 -60 -194.5t-180 -55.5z" />
    <glyph glyph-name="V" unicode="V" horiz-adv-x="600" 
d="M330 -10h-60l-236 790h44l222 -750l222 750h44z" />
    <glyph glyph-name="W" unicode="W" horiz-adv-x="880" 
d="M620 -10l-180 750l-180 -750h-60l-151 790h43l138 -748l180 748h60l180 -748l138 748h43l-151 -790h-60z" />
    <glyph glyph-name="X" unicode="X" horiz-adv-x="600" 
d="M35 0l242 393l-242 387h48l217 -353l217 353h48l-242 -387l242 -393h-48l-217 355l-217 -355h-48z" />
    <glyph glyph-name="Y" unicode="Y" horiz-adv-x="560" 
d="M300 235v-235h-40v235l-235 545h43l212 -495l212 495h43z" />
    <glyph glyph-name="Z" unicode="Z" horiz-adv-x="550" 
d="M40 28l410 716l-120 -2h-280v38h450v-28l-410 -716l120 2h300v-38h-470v28z" />
    <glyph glyph-name="bracketleft" unicode="[" 
d="M70 840h185v-40h-145v-880h145v-40h-185v960z" />
    <glyph glyph-name="backslash" unicode="\" 
d="M245 -120l-230 960h40l230 -960h-40z" />
    <glyph glyph-name="bracketright" unicode="]" 
d="M230 -120h-185v40h145v880h-145v40h185v-960z" />
    <glyph glyph-name="asciicircum" unicode="^" horiz-adv-x="600" 
d="M320 780l246 -500h-42l-224 459l-224 -459h-42l246 500h40z" />
    <glyph glyph-name="underscore" unicode="_" horiz-adv-x="320" 
d="M50 -118v38h220v-38h-220z" />
    <glyph glyph-name="grave" unicode="`" horiz-adv-x="500" 
d="M139 780h42l90 -160h-42z" />
    <glyph glyph-name="a" unicode="a" horiz-adv-x="500" 
d="M405 0l-10 80q-67 -90 -195 -90q-68 0 -109 38t-41 102v10q0 41 14.5 71t41 47t52.5 26t60 14l172 27v20q0 81 -31.5 119t-108.5 38q-80 0 -110 -39t-30 -108h-40v9q0 32 7.5 60t26 56t56 44t90.5 16q180 0 180 -195v-195l5 -150h-30zM205 28q129 0 185 100v160l-175 -29
q-125 -22 -125 -119v-10q0 -43 29 -72.5t86 -29.5z" />
    <glyph glyph-name="b" unicode="b" horiz-adv-x="525" 
d="M110 800v-336q50 76 155 76q103 0 154 -74t51 -191v-20q0 -117 -51 -191t-154 -74q-110 0 -161 85l-9 -75h-30l5 150v650h40zM110 120q58 -92 150 -92q83 0 125.5 60.5t42.5 166.5v20q0 106 -42.5 166.5t-125.5 60.5q-92 0 -150 -92v-290z" />
    <glyph glyph-name="c" unicode="c" horiz-adv-x="520" 
d="M97 255q0 -105 43.5 -166t129.5 -61q81 0 118 43t37 109h40v-14q0 -68 -48.5 -122t-146.5 -54q-108 0 -161.5 74t-53.5 191v20q0 117 53.5 191t161.5 74q98 0 146.5 -56.5t48.5 -124.5v-19h-40q0 73 -37.5 117.5t-117.5 44.5q-86 0 -129.5 -61t-43.5 -166v-20z" />
    <glyph glyph-name="d" unicode="d" horiz-adv-x="525" 
d="M260 540q103 0 155 -76v336h40v-650l5 -150h-30l-10 75q-49 -85 -160 -85q-103 0 -154 74t-51 191v20q0 117 51 191t154 74zM415 120v290q-57 92 -150 92q-83 0 -125.5 -60.5t-42.5 -166.5v-20q0 -106 42.5 -166.5t125.5 -60.5q93 0 150 92z" />
    <glyph glyph-name="e" unicode="e" horiz-adv-x="540" 
d="M485 246h-388q2 -102 45.5 -160t132.5 -58q85 0 127.5 43t42.5 99h40v-4q0 -66 -54 -121t-156 -55q-110 0 -165 74t-55 191v20q0 117 53.5 191t161.5 74t161.5 -74t53.5 -191v-29zM270 502q-85 0 -128 -58.5t-45 -159.5h346q-2 101 -45.5 159.5t-127.5 58.5z" />
    <glyph glyph-name="f" unicode="f" horiz-adv-x="370" 
d="M160 660v-130h160v-38h-160v-492h-40v492h-85v38h85v135q0 75 38 110t102 35q47 0 70 -10v-37q-20 9 -60 9q-58 0 -84 -23.5t-26 -88.5z" />
    <glyph glyph-name="g" unicode="g" horiz-adv-x="525" 
d="M415 -5v110q-51 -75 -155 -75q-103 0 -154 69.5t-51 175.5v20q0 106 51 175.5t154 69.5q111 0 160 -85l10 75h30l-5 -150v-390q0 -90 -46.5 -145t-148.5 -55t-148.5 55t-46.5 145v10h40q0 -89 36.5 -130.5t118.5 -41.5q83 0 119 42t36 125zM415 410q-57 92 -150 92
q-82 0 -125 -56t-43 -151v-20q0 -95 43 -151t125 -56q93 0 150 92v250z" />
    <glyph glyph-name="h" unicode="h" horiz-adv-x="510" 
d="M110 800v-340q56 80 175 80q74 0 117 -44.5t43 -120.5v-375h-40v370q0 68 -35 100t-95 32q-107 0 -165 -92v-410h-40v800h40z" />
    <glyph glyph-name="i" unicode="i" horiz-adv-x="200" 
d="M80 0v530h40v-530h-40zM130 735v-60h-60v60h60z" />
    <glyph glyph-name="j" unicode="j" horiz-adv-x="200" 
d="M80 -60v590h40v-595q0 -75 -38 -110t-102 -35q-47 0 -70 10v37q20 -9 60 -9q58 0 84 23.5t26 88.5zM130 735v-60h-60v60h60z" />
    <glyph glyph-name="k" unicode="k" horiz-adv-x="480" 
d="M70 0v800h40v-583l288 313h52l-185 -200l185 -330h-45l-168 300l-127 -138v-162h-40z" />
    <glyph glyph-name="l" unicode="l" horiz-adv-x="200" 
d="M80 0v800h40v-800h-40z" />
    <glyph glyph-name="m" unicode="m" horiz-adv-x="785" 
d="M720 0h-40v385q0 66 -30 91.5t-85 25.5q-93 0 -150 -92v-410h-40v385q0 66 -30 91.5t-85 25.5q-57 0 -91 -26t-59 -66v-410h-40v380l-5 150h30l9 -75q53 85 166 85q109 0 136 -89q52 89 169 89q69 0 107 -38t38 -112v-390z" />
    <glyph glyph-name="n" unicode="n" horiz-adv-x="510" 
d="M445 0h-40v370q0 68 -35 100t-95 32q-107 0 -165 -92v-410h-40v380l-5 150h30l9 -78q55 88 181 88q74 0 117 -44.5t43 -120.5v-375z" />
    <glyph glyph-name="o" unicode="o" horiz-adv-x="540" 
d="M270 -10q-108 0 -161.5 74t-53.5 191v20q0 117 53.5 191t161.5 74t161.5 -74t53.5 -191v-20q0 -117 -53.5 -191t-161.5 -74zM270 28q86 0 129.5 61t43.5 166v20q0 105 -43.5 166t-129.5 61t-129.5 -61t-43.5 -166v-20q0 -105 43.5 -166t129.5 -61z" />
    <glyph glyph-name="p" unicode="p" horiz-adv-x="525" 
d="M265 -10q-106 0 -155 75v-265h-40v580l-5 150h30l9 -75q51 85 161 85q103 0 154 -74t51 -191v-20q0 -117 -51 -191t-154 -74zM110 410v-290q58 -92 150 -92q83 0 125.5 60.5t42.5 166.5v20q0 106 -42.5 166.5t-125.5 60.5q-92 0 -150 -92z" />
    <glyph glyph-name="q" unicode="q" horiz-adv-x="525" 
d="M415 -200v265q-51 -75 -155 -75q-103 0 -154 74t-51 191v20q0 117 51 191t154 74q111 0 160 -85l10 75h30l-5 -150v-580h-40zM415 410q-57 92 -150 92q-83 0 -125.5 -60.5t-42.5 -166.5v-20q0 -106 42.5 -166.5t125.5 -60.5q93 0 150 92v290z" />
    <glyph glyph-name="r" unicode="r" horiz-adv-x="315" 
d="M255 540l15 -1v-37h-10q-57 0 -91 -26t-59 -66v-410h-40v380l-5 150h30l9 -75q51 85 151 85z" />
    <glyph glyph-name="s" unicode="s" horiz-adv-x="520" 
d="M260 28q73 0 113 30t40 82q0 61 -37 83t-131 30q-98 9 -136 44t-38 95v5q0 63 49.5 103t139.5 40q190 0 190 -176v-4h-40q0 70 -33.5 106t-116.5 36q-70 0 -108.5 -28t-38.5 -79t33.5 -76t128.5 -33q99 -7 139.5 -40.5t40.5 -103.5v-4q0 -65 -52 -106.5t-143 -41.5
q-53 0 -93 15.5t-61 40.5t-31 52.5t-10 57.5v4h40q0 -58 35 -95t120 -37z" />
    <glyph glyph-name="t" unicode="t" horiz-adv-x="390" 
d="M160 530h180v-38h-180v-352q0 -65 26 -88.5t84 -23.5q40 0 60 9v-37q-23 -10 -70 -10q-64 0 -102 35t-38 110v357h-85v38h85v150h40v-150z" />
    <glyph glyph-name="u" unicode="u" horiz-adv-x="510" 
d="M65 530h40v-370q0 -68 35 -100t95 -32q107 0 165 92v410h40v-380l5 -150h-30l-10 77q-55 -87 -180 -87q-74 0 -117 44.5t-43 120.5v375z" />
    <glyph glyph-name="v" unicode="v" horiz-adv-x="500" 
d="M226 0l-196 530h45l175 -485l175 485h45l-196 -530h-48z" />
    <glyph glyph-name="w" unicode="w" horiz-adv-x="700" 
d="M350 481l-137 -481h-56l-122 530h41l110 -490l139 490h50l139 -490l110 490h41l-122 -530h-56z" />
    <glyph glyph-name="x" unicode="x" horiz-adv-x="460" 
d="M25 530h49l156 -230l156 230h49l-180 -265l180 -265h-51l-154 226l-154 -226h-51l180 265z" />
    <glyph glyph-name="y" unicode="y" horiz-adv-x="462" 
d="M240 65l169 465h42l-191 -512l-78 -218h-44l82 218l-191 512h42z" />
    <glyph glyph-name="z" unicode="z" horiz-adv-x="446" 
d="M38 28l311 465l-121 -1h-180v38h350v-28l-311 -465l121 1h200v-38h-370v28z" />
    <glyph glyph-name="braceleft" unicode="{" 
d="M255 840v-40q-51 0 -75.5 -23t-24.5 -87v-232q0 -73 -53 -98q53 -26 53 -98v-232q0 -64 24.5 -87t75.5 -23v-40h-15q-51 0 -88 28.5t-37 96.5v245q0 55 -20.5 72.5t-69.5 17.5v40q49 0 69.5 17.5t20.5 72.5v245q0 68 37 96.5t88 28.5h15z" />
    <glyph glyph-name="bar" unicode="|" horiz-adv-x="180" 
d="M70 -120v960h40v-960h-40z" />
    <glyph glyph-name="braceright" unicode="}" 
d="M45 -120v40q51 0 75.5 23t24.5 87v232q0 72 53 98q-53 24 -53 98v232q0 64 -24.5 87t-75.5 23v40h15q51 0 88 -28.5t37 -96.5v-245q0 -55 20.5 -72.5t69.5 -17.5v-40q-49 0 -69.5 -17.5t-20.5 -72.5v-245q0 -68 -37 -96.5t-88 -28.5h-15z" />
    <glyph glyph-name="asciitilde" unicode="~" horiz-adv-x="600" 
d="M174 440q56 0 133 -36.5t123 -36.5q55 0 102 59l28 -28q-56 -69 -134 -69q-56 0 -133 36.5t-123 36.5q-55 0 -102 -59l-28 28q56 69 134 69z" />
    <glyph glyph-name="nbspace" unicode="&#xa0;" horiz-adv-x="200" 
 />
    <glyph glyph-name="exclamdown" unicode="&#xa1;" horiz-adv-x="200" 
d="M123 -200h-46l11 555h24zM70 470v60h60v-60h-60z" />
    <glyph glyph-name="cent" unicode="&#xa2;" horiz-adv-x="600" 
d="M423 840l-30 -125q69 -21 103 -77.5t34 -134.5v-22h-41q0 163 -105 196l-137 -572q30 -9 67 -9h3q172 0 172 182h41v-12q0 -93 -53.5 -151.5t-161.5 -58.5q-44 0 -77 10l-30 -126h-40l33 140q-131 67 -131 298v25q0 157 62.5 240t182.5 83q22 0 40 -3l28 117h40zM112 378
q0 -197 99 -256l135 562q-18 2 -29 2h-3q-98 0 -150 -71t-52 -212v-25z" />
    <glyph glyph-name="sterling" unicode="&#xa3;" horiz-adv-x="600" 
d="M330 752q-82 0 -122.5 -48.5t-40.5 -133.5q0 -64 24 -160h209v-40h-199q2 -9 13 -50.5t15 -56.5t12.5 -51.5t12 -59t7 -53.5t3.5 -59h276v-40h-480v40h169q-3 42 -11.5 89t-17 79t-23.5 84t-22 78h-95v40h85q-20 88 -20 165q0 100 55 157.5t150 57.5q112 0 163.5 -77.5
t51.5 -202.5v-10h-40q0 118 -43 185t-132 67z" />
    <glyph glyph-name="yen" unicode="&#xa5;" horiz-adv-x="600" 
d="M45 440v40h122l-147 300h45l235 -481l235 481h45l-148 -300h123v-40h-142l-79 -160h221v-40h-235v-240h-40v240h-235v40h220l-78 160h-142z" />
    <glyph glyph-name="brokenbar" unicode="&#xa6;" horiz-adv-x="180" 
d="M70 400v440h40v-440h-40zM70 -120v440h40v-440h-40z" />
    <glyph glyph-name="section" unicode="&#xa7;" horiz-adv-x="500" 
d="M455 388q0 -100 -105 -132q79 -31 79 -118v-5q0 -63 -49.5 -103t-139.5 -40q-190 0 -190 176v4h40q0 -70 33.5 -106t116.5 -36q70 0 108.5 28t38.5 79t-33.5 76t-128.5 33q-99 7 -139.5 40.5t-40.5 103.5v4q0 47 27 81t77 50q-78 32 -78 119v5q0 63 49.5 103t139.5 40
q190 0 190 -176v-4h-40q0 70 -33.5 106t-116.5 36q-70 0 -108.5 -28t-38.5 -79t33.5 -76t128.5 -33q99 -7 139.5 -40.5t40.5 -103.5v-4zM413 390q0 59 -35 81.5t-122 30.5h-16q-73 0 -113 -30t-40 -82q0 -59 35 -81.5t121 -30.5h17q73 0 113 30t40 82z" />
    <glyph glyph-name="dieresis" unicode="&#xa8;" horiz-adv-x="500" 
d="M205 735v-60h-60v60h60zM355 735v-60h-60v60h60z" />
    <glyph glyph-name="copyright" unicode="&#xa9;" horiz-adv-x="920" 
d="M60 390q0 166 117 283t283 117t283 -117t117 -283t-117 -283t-283 -117t-283 117t-117 283zM98 390q0 -150 106 -256t256 -106t256 106t106 256t-106 256t-256 106t-256 -106t-106 -256zM460 185q78 0 111.5 37t33.5 83h40v-10q0 -21 -9 -45t-29 -48.5t-58 -40.5t-89 -16
q-54 0 -95.5 22t-64.5 57.5t-34 75t-11 80.5v20q0 41 11 80.5t34 75t64.5 57.5t95.5 22q51 0 89.5 -17t58 -42.5t28.5 -50t9 -45.5v-15h-40q0 53 -34 91.5t-111 38.5q-82 0 -122.5 -58t-40.5 -137v-20q0 -79 40.5 -137t122.5 -58z" />
    <glyph glyph-name="ordfeminine" unicode="&#xaa;" horiz-adv-x="377" 
d="M306 388l-8 57q-50 -65 -143 -65q-52 0 -82.5 29t-30.5 76v8q0 58 35 84t92 35l124 19v14q0 57 -22 84t-77 27q-57 0 -78.5 -27.5t-21.5 -76.5h-37v7q0 54 30.5 92.5t106.5 38.5q137 0 137 -145v-146l4 -111h-29zM162 414q88 0 131 69v117l-124 -20q-89 -16 -89 -86v-7
q0 -31 20.5 -52t61.5 -21zM50 223v35h285v-35h-285z" />
    <glyph glyph-name="guillemotleft" unicode="&#xab;" horiz-adv-x="500" 
d="M250 510v-45l-163 -125l163 -125v-45l-200 155v30zM450 510v-45l-163 -125l163 -125v-45l-200 155v30z" />
    <glyph glyph-name="logicalnot" unicode="&#xac;" horiz-adv-x="600" 
d="M50 510v40h500v-330h-40v290h-460z" />
    <glyph glyph-name="uni00AD" unicode="&#xad;" horiz-adv-x="320" 
d="M40 331v38h240v-38h-240z" />
    <glyph glyph-name="registered" unicode="&#xae;" horiz-adv-x="330" 
d="M20 665q0 60 42.5 102.5t102.5 42.5t102.5 -42.5t42.5 -102.5t-42.5 -102.5t-102.5 -42.5t-102.5 42.5t-42.5 102.5zM44 665q0 -50 35.5 -85.5t85.5 -35.5t85.5 35.5t35.5 85.5t-35.5 85.5t-85.5 35.5t-85.5 -35.5t-35.5 -85.5zM225 694q0 -35 -31 -46l31 -69h-29l-28 66
h-35v-66h-28v172h66q24 0 39 -13t15 -36v-8zM197 700q0 25 -31 25h-33v-54h33q31 0 31 25v4z" />
    <glyph glyph-name="macron" unicode="&#xaf;" horiz-adv-x="500" 
d="M145 680v40h210v-40h-210z" />
    <glyph glyph-name="degree" unicode="&#xb0;" horiz-adv-x="400" 
d="M312 636v8q0 49 -31.5 78.5t-77.5 29.5h-6q-46 0 -77.5 -29.5t-31.5 -78.5v-8q0 -49 31.5 -78.5t77.5 -29.5h6q46 0 77.5 29.5t31.5 78.5zM350 642v-4q0 -68 -42.5 -108t-107.5 -40t-107.5 40t-42.5 108v4q0 68 42.5 108t107.5 40t107.5 -40t42.5 -108z" />
    <glyph glyph-name="plusminus" unicode="&#xb1;" horiz-adv-x="600" 
d="M280 640h40v-150h230v-40h-230v-150h-40v150h-230v40h230v150zM50 170v40h500v-40h-500z" />
    <glyph glyph-name="twosuperior" unicode="&#xb2;" 
d="M272 422v-32h-244v22l168 179q40 41 40 80v5q0 36 -23 56.5t-62 20.5h-3q-85 0 -85 -103h-35v12q0 123 122 123q58 0 90 -28.5t32 -75.5v-6q0 -30 -10 -51t-36 -49l-144 -153h190z" />
    <glyph glyph-name="threesuperior" unicode="&#xb3;" 
d="M61 515q0 -99 86 -99h5q36 0 61.5 19.5t25.5 55.5v7q0 36 -23 55.5t-59 19.5h-57v32h55q36 0 58.5 17.5t22.5 51.5v4q0 34 -23 54.5t-61 20.5h-5q-43 0 -63.5 -24.5t-20.5 -78.5h-35v12q0 123 122 123q58 0 90 -28t32 -75v-7q0 -65 -61 -87q63 -22 63 -90v-8
q0 -47 -34.5 -76.5t-89.5 -29.5q-62 0 -93.5 33t-31.5 92v6h36z" />
    <glyph glyph-name="acute" unicode="&#xb4;" horiz-adv-x="500" 
d="M319 780h42l-90 -160h-42z" />
    <glyph glyph-name="paragraph" unicode="&#xb6;" horiz-adv-x="500" 
d="M390 0v742h-70v-742h-40v330h-12q-34 0 -64.5 6t-61 21t-53 38.5t-36 62t-13.5 87.5v20q0 49 13.5 87.5t36 62t53 38.5t61 21t64.5 6h162v-780h-40zM82 547q0 -43 12.5 -76t31 -52t44.5 -31t49.5 -16t48.5 -4h12v374h-12q-25 0 -48.5 -4t-49.5 -16t-44.5 -31t-31 -52
t-12.5 -76v-16z" />
    <glyph glyph-name="periodcentered" unicode="&#xb7;" horiz-adv-x="200" 
d="M130 380v-60h-60v60h60z" />
    <glyph glyph-name="cedilla" unicode="&#xb8;" horiz-adv-x="602" 
d="M159 -188l13 30q29 -19 70 -19q36 0 52.5 9t16.5 32q0 39 -65 39l-26 -2l-17 16l31 83h36l-24 -64h5q38 0 65.5 -16.5t27.5 -54.5q0 -75 -97 -75q-57 0 -88 22z" />
    <glyph glyph-name="onesuperior" unicode="&#xb9;" 
d="M274 390h-239v32h102v311l-92 -62l-18 28l123 83h23v-360h101v-32z" />
    <glyph glyph-name="ordmasculine" unicode="&#xba;" horiz-adv-x="410" 
d="M367 577q0 -87 -40.5 -142t-121.5 -55t-121.5 55t-40.5 142v16q0 87 40.5 142t121.5 55t121.5 -55t40.5 -142v-16zM82 577q0 -76 30.5 -119t92.5 -43t92.5 43t30.5 119v16q0 76 -30.5 119t-92.5 43t-92.5 -43t-30.5 -119v-16zM50 223v35h310v-35h-310z" />
    <glyph glyph-name="guillemotright" unicode="&#xbb;" horiz-adv-x="500" 
d="M250 465v45l200 -155v-30l-200 -155v45l163 125zM50 465v45l200 -155v-30l-200 -155v45l163 125z" />
    <glyph glyph-name="onequarter" unicode="&#xbc;" horiz-adv-x="800" 
d="M719 0h-36v103h-167v24l168 263h35v-254h64v-33h-64v-103zM134 0h-44l576 780h44zM274 390h-239v32h102v311l-92 -62l-18 28l123 83h23v-360h101v-32zM684 329l-124 -194l43 1h80v142z" />
    <glyph glyph-name="onehalf" unicode="&#xbd;" horiz-adv-x="800" 
d="M134 0h-44l576 780h44zM772 32v-32h-244v22l168 179q40 41 40 80v5q0 36 -23 56.5t-62 20.5h-3q-85 0 -85 -103h-35v12q0 123 122 123q58 0 90 -28.5t32 -75.5v-6q0 -30 -10 -51t-36 -49l-144 -153h190zM274 390h-239v32h102v311l-92 -62l-18 28l123 83h23v-360h101v-32z
" />
    <glyph glyph-name="threequarters" unicode="&#xbe;" horiz-adv-x="800" 
d="M719 0h-36v103h-167v24l168 263h35v-254h64v-33h-64v-103zM134 0h-44l576 780h44zM61 515q0 -99 86 -99h5q36 0 61.5 19.5t25.5 55.5v7q0 36 -23 55.5t-59 19.5h-57v32h55q36 0 58.5 17.5t22.5 51.5v4q0 34 -23 54.5t-61 20.5h-5q-43 0 -63.5 -24.5t-20.5 -78.5h-35v12
q0 123 122 123q58 0 90 -28t32 -75v-7q0 -65 -61 -87q63 -22 63 -90v-8q0 -47 -34.5 -76.5t-89.5 -29.5q-62 0 -93.5 33t-31.5 92v6h36zM684 329l-124 -194l43 1h80v142z" />
    <glyph glyph-name="questiondown" unicode="&#xbf;" horiz-adv-x="440" 
d="M217 -172q87 0 121 59t34 173h40v-10q0 -57 -8.5 -100.5t-29 -81.5t-60.5 -58t-97 -20q-88 0 -136.5 47.5t-48.5 132.5q0 55 17.5 98t43 71.5t51 56.5t44.5 68t20 91h24q1 -51 -14.5 -94.5t-39 -74.5t-47 -61t-40.5 -68.5t-17 -81.5q0 -147 143 -147zM190 470v60h60v-60
h-60z" />
    <glyph glyph-name="Agrave" unicode="&#xc0;" horiz-adv-x="600" 
d="M270 790h60l236 -790h-44l-63 211h-319l-62 -211h-44zM300 750l-149 -501h297zM217 950h42l62 -110h-42z" />
    <glyph glyph-name="Aacute" unicode="&#xc1;" horiz-adv-x="600" 
d="M270 790h60l236 -790h-44l-63 211h-319l-62 -211h-44zM300 750l-149 -501h297zM341 950h42l-62 -110h-42z" />
    <glyph glyph-name="Acircumflex" unicode="&#xc2;" horiz-adv-x="600" 
d="M270 790h60l236 -790h-44l-63 211h-319l-62 -211h-44zM300 750l-149 -501h297zM230 840h-45l100 110h30l100 -110h-45l-70 77z" />
    <glyph glyph-name="Atilde" unicode="&#xc3;" horiz-adv-x="600" 
d="M270 790h60l236 -790h-44l-63 211h-319l-62 -211h-44zM300 750l-149 -501h297zM404 932h36q0 -42 -19.5 -63t-52.5 -21q-31 0 -73 30.5t-60 30.5q-39 0 -39 -51h-36q0 42 19.5 63t52.5 21q31 0 73 -30.5t60 -30.5q39 0 39 51z" />
    <glyph glyph-name="Adieresis" unicode="&#xc4;" horiz-adv-x="600" 
d="M270 790h60l236 -790h-44l-63 211h-319l-62 -211h-44zM300 750l-149 -501h297zM255 925v-60h-60v60h60zM405 925v-60h-60v60h60z" />
    <glyph glyph-name="Aring" unicode="&#xc5;" horiz-adv-x="600" 
d="M210 870q0 38 26 64t64 26t64 -26t26 -64q0 -29 -16 -52t-43 -33l235 -785h-44l-63 211h-319l-62 -211h-44l234 785q-26 10 -42 33t-16 52zM300 750l-149 -501h297zM242 870q0 -24 17 -41t41 -17t41 17t17 41t-17 41t-41 17t-41 -17t-17 -41z" />
    <glyph glyph-name="AE" unicode="&#xc6;" horiz-adv-x="820" 
d="M319 780h461v-38h-398l49 -325h299v-38h-294l51 -341h293v-38h-328l-33 221h-270l-82 -221h-43zM343 742l-180 -483h251z" />
    <glyph glyph-name="Ccedilla" unicode="&#xc7;" horiz-adv-x="607" 
d="M233 -188l13 30q29 -19 70 -19q36 0 52.5 9t16.5 32q0 39 -65 39l-26 -2l-17 16l27 73q-123 5 -182 95.5t-59 284.5v40q0 199 62.5 289.5t192.5 90.5q234 0 234 -265v-25h-42q0 134 -44.5 193t-142.5 59h-6q-107 0 -159.5 -81t-52.5 -261v-40q0 -180 52 -261t160 -81h6
q97 0 142 55.5t45 166.5h42v-10q0 -114 -53 -178.5t-159 -70.5l-20 -55h5q38 0 65.5 -16.5t27.5 -54.5q0 -75 -97 -75q-57 0 -88 22z" />
    <glyph glyph-name="Egrave" unicode="&#xc8;" horiz-adv-x="540" 
d="M80 780h420v-38h-380v-325h330v-38h-330v-341h380v-38h-420v780zM217 950h42l62 -110h-42z" />
    <glyph glyph-name="Eacute" unicode="&#xc9;" horiz-adv-x="540" 
d="M80 780h420v-38h-380v-325h330v-38h-330v-341h380v-38h-420v780zM341 950h42l-62 -110h-42z" />
    <glyph glyph-name="Ecircumflex" unicode="&#xca;" horiz-adv-x="540" 
d="M80 780h420v-38h-380v-325h330v-38h-330v-341h380v-38h-420v780zM230 840h-45l100 110h30l100 -110h-45l-70 77z" />
    <glyph glyph-name="Edieresis" unicode="&#xcb;" horiz-adv-x="540" 
d="M80 780h420v-38h-380v-325h330v-38h-330v-341h380v-38h-420v780zM405 925v-60h-60v60h60zM255 925v-60h-60v60h60z" />
    <glyph glyph-name="Igrave" unicode="&#xcc;" horiz-adv-x="210" 
d="M125 780v-780h-40v780h40zM22 950h42l62 -110h-42z" />
    <glyph glyph-name="Iacute" unicode="&#xcd;" horiz-adv-x="210" 
d="M125 780v-780h-40v780h40zM146 950h42l-62 -110h-42z" />
    <glyph glyph-name="Icircumflex" unicode="&#xce;" horiz-adv-x="210" 
d="M125 780v-780h-40v780h40zM35 840h-45l100 110h30l100 -110h-45l-70 77z" />
    <glyph glyph-name="Idieresis" unicode="&#xcf;" horiz-adv-x="210" 
d="M125 780v-780h-40v780h40zM210 925v-60h-60v60h60zM60 925v-60h-60v60h60z" />
    <glyph glyph-name="Eth" unicode="&#xd0;" horiz-adv-x="690" 
d="M20 379v38h120v363h195q292 0 292 -370v-40q0 -370 -292 -370h-195v379h-120zM180 742v-325h230v-38h-230v-341h150q123 0 189 78t66 254v40q0 176 -66 254t-189 78h-150z" />
    <glyph glyph-name="Ntilde" unicode="&#xd1;" horiz-adv-x="650" 
d="M570 780v-780h-45l-410 720l3 -190v-530h-38v780h45l410 -720l-3 190v530h38zM429 932h36q0 -42 -19.5 -63t-52.5 -21q-31 0 -73 30.5t-60 30.5q-39 0 -39 -51h-36q0 42 19.5 63t52.5 21q31 0 73 -30.5t60 -30.5q39 0 39 51z" />
    <glyph glyph-name="Ograve" unicode="&#xd2;" horiz-adv-x="640" 
d="M320 -10q-130 0 -193.5 90.5t-63.5 289.5v40q0 199 63.5 289.5t193.5 90.5t193.5 -90.5t63.5 -289.5v-40q0 -199 -63.5 -289.5t-193.5 -90.5zM317 28h6q108 0 160 80.5t52 261.5v40q0 181 -52 261.5t-160 80.5h-6q-108 0 -160 -80.5t-52 -261.5v-40q0 -181 52 -261.5
t160 -80.5zM237 950h42l62 -110h-42z" />
    <glyph glyph-name="Oacute" unicode="&#xd3;" horiz-adv-x="640" 
d="M320 -10q-130 0 -193.5 90.5t-63.5 289.5v40q0 199 63.5 289.5t193.5 90.5t193.5 -90.5t63.5 -289.5v-40q0 -199 -63.5 -289.5t-193.5 -90.5zM317 28h6q108 0 160 80.5t52 261.5v40q0 181 -52 261.5t-160 80.5h-6q-108 0 -160 -80.5t-52 -261.5v-40q0 -181 52 -261.5
t160 -80.5zM361 950h42l-62 -110h-42z" />
    <glyph glyph-name="Ocircumflex" unicode="&#xd4;" horiz-adv-x="640" 
d="M320 -10q-130 0 -193.5 90.5t-63.5 289.5v40q0 199 63.5 289.5t193.5 90.5t193.5 -90.5t63.5 -289.5v-40q0 -199 -63.5 -289.5t-193.5 -90.5zM317 28h6q108 0 160 80.5t52 261.5v40q0 181 -52 261.5t-160 80.5h-6q-108 0 -160 -80.5t-52 -261.5v-40q0 -181 52 -261.5
t160 -80.5zM250 840h-45l100 110h30l100 -110h-45l-70 77z" />
    <glyph glyph-name="Otilde" unicode="&#xd5;" horiz-adv-x="640" 
d="M320 -10q-130 0 -193.5 90.5t-63.5 289.5v40q0 199 63.5 289.5t193.5 90.5t193.5 -90.5t63.5 -289.5v-40q0 -199 -63.5 -289.5t-193.5 -90.5zM317 28h6q108 0 160 80.5t52 261.5v40q0 181 -52 261.5t-160 80.5h-6q-108 0 -160 -80.5t-52 -261.5v-40q0 -181 52 -261.5
t160 -80.5zM424 932h36q0 -42 -19.5 -63t-52.5 -21q-31 0 -73 30.5t-60 30.5q-39 0 -39 -51h-36q0 42 19.5 63t52.5 21q31 0 73 -30.5t60 -30.5q39 0 39 51z" />
    <glyph glyph-name="Odieresis" unicode="&#xd6;" horiz-adv-x="640" 
d="M320 -10q-130 0 -193.5 90.5t-63.5 289.5v40q0 199 63.5 289.5t193.5 90.5t193.5 -90.5t63.5 -289.5v-40q0 -199 -63.5 -289.5t-193.5 -90.5zM317 28h6q108 0 160 80.5t52 261.5v40q0 181 -52 261.5t-160 80.5h-6q-108 0 -160 -80.5t-52 -261.5v-40q0 -181 52 -261.5
t160 -80.5zM275 925v-60h-60v60h60zM425 925v-60h-60v60h60z" />
    <glyph glyph-name="multiply" unicode="&#xd7;" horiz-adv-x="600" 
d="M67 128l-29 29l233 233l-233 233l29 29l233 -233l233 233l29 -29l-233 -233l233 -233l-29 -29l-233 233z" />
    <glyph glyph-name="Oslash" unicode="&#xd8;" horiz-adv-x="626" 
d="M63 410q0 199 63.5 289.5t193.5 90.5q111 0 173 -65l33 55h44l-52 -87q59 -94 59 -283v-40q0 -199 -63.5 -289.5t-193.5 -90.5q-119 0 -179 72l-37 -62h-44l57 95q-54 93 -54 275v40zM535 410q0 158 -41 242l-331 -553q51 -71 154 -71h6q108 0 160 80.5t52 261.5v40z
M105 370q0 -152 36 -233l330 551q-51 64 -148 64h-6q-108 0 -160 -80.5t-52 -261.5v-40z" />
    <glyph glyph-name="Ugrave" unicode="&#xd9;" horiz-adv-x="630" 
d="M315 -10q-120 0 -180 55.5t-60 194.5v540h40v-535q0 -123 48.5 -170t151.5 -47t151.5 47t48.5 170v535h40v-540q0 -139 -60 -194.5t-180 -55.5zM232 950h42l62 -110h-42z" />
    <glyph glyph-name="Uacute" unicode="&#xda;" horiz-adv-x="630" 
d="M315 -10q-120 0 -180 55.5t-60 194.5v540h40v-535q0 -123 48.5 -170t151.5 -47t151.5 47t48.5 170v535h40v-540q0 -139 -60 -194.5t-180 -55.5zM356 950h42l-62 -110h-42z" />
    <glyph glyph-name="Ucircumflex" unicode="&#xdb;" horiz-adv-x="630" 
d="M315 -10q-120 0 -180 55.5t-60 194.5v540h40v-535q0 -123 48.5 -170t151.5 -47t151.5 47t48.5 170v535h40v-540q0 -139 -60 -194.5t-180 -55.5zM245 840h-45l100 110h30l100 -110h-45l-70 77z" />
    <glyph glyph-name="Udieresis" unicode="&#xdc;" horiz-adv-x="630" 
d="M315 -10q-120 0 -180 55.5t-60 194.5v540h40v-535q0 -123 48.5 -170t151.5 -47t151.5 47t48.5 170v535h40v-540q0 -139 -60 -194.5t-180 -55.5zM420 925v-60h-60v60h60zM270 925v-60h-60v60h60z" />
    <glyph glyph-name="Yacute" unicode="&#xdd;" horiz-adv-x="560" 
d="M300 235v-235h-40v235l-235 545h43l212 -495l212 495h43zM321 950h42l-62 -110h-42z" />
    <glyph glyph-name="Thorn" unicode="&#xde;" horiz-adv-x="560" 
d="M120 780v-165h162q34 0 64.5 -6t61 -21t53 -38.5t36 -62t13.5 -87.5v-20q0 -49 -13.5 -87.5t-36 -62t-53 -38.5t-61 -21t-64.5 -6h-162v-165h-40v780h40zM120 203h162q25 0 48.5 4t49.5 16t44.5 31t31 52t12.5 76v16q0 43 -12.5 76t-31 52t-44.5 31t-49.5 16t-48.5 4
h-162v-374z" />
    <glyph glyph-name="germandbls" unicode="&#xdf;" horiz-adv-x="550" 
d="M255 382v28q85 47 120 91.5t35 108.5q0 75 -37 117.5t-113 42.5t-113 -42.5t-37 -117.5v-610h-40v614q0 92 47.5 144t142.5 52t142.5 -52t47.5 -144v-6q0 -64 -33 -114t-110 -98l58 -38q83 -54 119 -96.5t36 -100.5v-4q0 -31 -7.5 -58t-25 -53t-52.5 -41t-85 -15
t-85.5 15t-52.5 41t-24.5 52.5t-7.5 57.5v4h40q0 -132 130 -132t130 132q0 49 -34.5 85t-119.5 91z" />
    <glyph glyph-name="agrave" unicode="&#xe0;" horiz-adv-x="500" 
d="M405 0l-10 80q-67 -90 -195 -90q-68 0 -109 38t-41 102v10q0 41 14.5 71t41 47t52.5 26t60 14l172 27v20q0 81 -31.5 119t-108.5 38q-80 0 -110 -39t-30 -108h-40v9q0 32 7.5 60t26 56t56 44t90.5 16q180 0 180 -195v-195l5 -150h-30zM205 28q129 0 185 100v160l-175 -29
q-125 -22 -125 -119v-10q0 -43 29 -72.5t86 -29.5zM139 780h42l90 -160h-42z" />
    <glyph glyph-name="aacute" unicode="&#xe1;" horiz-adv-x="500" 
d="M405 0l-10 80q-67 -90 -195 -90q-68 0 -109 38t-41 102v10q0 41 14.5 71t41 47t52.5 26t60 14l172 27v20q0 81 -31.5 119t-108.5 38q-80 0 -110 -39t-30 -108h-40v9q0 32 7.5 60t26 56t56 44t90.5 16q180 0 180 -195v-195l5 -150h-30zM205 28q129 0 185 100v160l-175 -29
q-125 -22 -125 -119v-10q0 -43 29 -72.5t86 -29.5zM319 780h42l-90 -160h-42z" />
    <glyph glyph-name="acircumflex" unicode="&#xe2;" horiz-adv-x="500" 
d="M405 0l-10 80q-67 -90 -195 -90q-68 0 -109 38t-41 102v10q0 41 14.5 71t41 47t52.5 26t60 14l172 27v20q0 81 -31.5 119t-108.5 38q-80 0 -110 -39t-30 -108h-40v9q0 32 7.5 60t26 56t56 44t90.5 16q180 0 180 -195v-195l5 -150h-30zM205 28q129 0 185 100v160l-175 -29
q-125 -22 -125 -119v-10q0 -43 29 -72.5t86 -29.5zM150 620h-45l130 160h30l130 -160h-45l-100 124z" />
    <glyph glyph-name="atilde" unicode="&#xe3;" horiz-adv-x="500" 
d="M405 0l-10 80q-67 -90 -195 -90q-68 0 -109 38t-41 102v10q0 41 14.5 71t41 47t52.5 26t60 14l172 27v20q0 81 -31.5 119t-108.5 38q-80 0 -110 -39t-30 -108h-40v9q0 32 7.5 60t26 56t56 44t90.5 16q180 0 180 -195v-195l5 -150h-30zM205 28q129 0 185 100v160l-175 -29
q-125 -22 -125 -119v-10q0 -43 29 -72.5t86 -29.5zM355 737h35q0 -84 -70 -84q-31 0 -75 30t-63 30q-37 0 -37 -50h-35q0 84 70 84q31 0 75 -30t63 -30q37 0 37 50z" />
    <glyph glyph-name="adieresis" unicode="&#xe4;" horiz-adv-x="500" 
d="M405 0l-10 80q-67 -90 -195 -90q-68 0 -109 38t-41 102v10q0 41 14.5 71t41 47t52.5 26t60 14l172 27v20q0 81 -31.5 119t-108.5 38q-80 0 -110 -39t-30 -108h-40v9q0 32 7.5 60t26 56t56 44t90.5 16q180 0 180 -195v-195l5 -150h-30zM205 28q129 0 185 100v160l-175 -29
q-125 -22 -125 -119v-10q0 -43 29 -72.5t86 -29.5zM205 735v-60h-60v60h60zM355 735v-60h-60v60h60z" />
    <glyph glyph-name="aring" unicode="&#xe5;" horiz-adv-x="500" 
d="M50 130v10q0 41 14.5 71t41 47t52.5 26t60 14l172 27v20q0 81 -31.5 119t-108.5 38q-80 0 -110 -39t-30 -108h-40v9q0 32 7.5 60t26 56t56 44t90.5 16q180 0 180 -195v-195l5 -150h-30l-10 80q-67 -90 -195 -90q-68 0 -109 38t-41 102zM205 28q129 0 185 100v160
l-175 -29q-125 -22 -125 -119v-10q0 -43 29 -72.5t86 -29.5zM155 700q0 38 26.5 64t63.5 26t63.5 -26t26.5 -64t-26.5 -64t-63.5 -26t-63.5 26t-26.5 64zM187 700q0 -24 17 -41t41 -17t41 17t17 41t-17 41t-41 17t-41 -17t-17 -41z" />
    <glyph glyph-name="ae" unicode="&#xe6;" horiz-adv-x="875" 
d="M820 246h-388q2 -102 45.5 -160t132.5 -58q85 0 127.5 43t42.5 99h40v-4q0 -66 -54 -121t-156 -55q-138 0 -193 120q-24 -48 -79 -84t-138 -36q-68 0 -109 38t-41 102v10q0 41 14.5 71t41 47t52.5 26t60 14l172 27v20q0 81 -31.5 119t-108.5 38q-80 0 -110 -39t-30 -108
h-40v9q0 32 7.5 60t26 56t56 44t90.5 16q143 0 168 -125q50 125 187 125q108 0 161.5 -74t53.5 -191v-29zM391 130l11 23q-12 47 -12 102v33l-175 -29q-125 -22 -125 -119v-10q0 -43 29 -72.5t86 -29.5q130 0 186 102zM605 502q-85 0 -128 -58.5t-45 -159.5h346
q-2 101 -45.5 159.5t-127.5 58.5z" />
    <glyph glyph-name="ccedilla" unicode="&#xe7;" horiz-adv-x="520" 
d="M186 -188l13 30q29 -19 70 -19q36 0 52.5 9t16.5 32q0 39 -65 39l-26 -2l-17 16l27 73q-101 5 -151.5 78.5t-50.5 186.5v20q0 117 53.5 191t161.5 74q98 0 146.5 -56.5t48.5 -124.5v-19h-40q0 73 -37.5 117.5t-117.5 44.5q-86 0 -129.5 -61t-43.5 -166v-20
q0 -105 43.5 -166t129.5 -61q81 0 118 43t37 109h40v-14q0 -63 -42.5 -115.5t-129.5 -59.5l-20 -55h5q38 0 65.5 -16.5t27.5 -54.5q0 -75 -97 -75q-57 0 -88 22z" />
    <glyph glyph-name="egrave" unicode="&#xe8;" horiz-adv-x="540" 
d="M485 246h-388q2 -102 45.5 -160t132.5 -58q85 0 127.5 43t42.5 99h40v-4q0 -66 -54 -121t-156 -55q-110 0 -165 74t-55 191v20q0 117 53.5 191t161.5 74t161.5 -74t53.5 -191v-29zM270 502q-85 0 -128 -58.5t-45 -159.5h346q-2 101 -45.5 159.5t-127.5 58.5zM159 780h42
l90 -160h-42z" />
    <glyph glyph-name="eacute" unicode="&#xe9;" horiz-adv-x="540" 
d="M485 246h-388q2 -102 45.5 -160t132.5 -58q85 0 127.5 43t42.5 99h40v-4q0 -66 -54 -121t-156 -55q-110 0 -165 74t-55 191v20q0 117 53.5 191t161.5 74t161.5 -74t53.5 -191v-29zM270 502q-85 0 -128 -58.5t-45 -159.5h346q-2 101 -45.5 159.5t-127.5 58.5zM339 780h42
l-90 -160h-42z" />
    <glyph glyph-name="ecircumflex" unicode="&#xea;" horiz-adv-x="540" 
d="M485 246h-388q2 -102 45.5 -160t132.5 -58q85 0 127.5 43t42.5 99h40v-4q0 -66 -54 -121t-156 -55q-110 0 -165 74t-55 191v20q0 117 53.5 191t161.5 74t161.5 -74t53.5 -191v-29zM270 502q-85 0 -128 -58.5t-45 -159.5h346q-2 101 -45.5 159.5t-127.5 58.5zM170 620h-45
l130 160h30l130 -160h-45l-100 124z" />
    <glyph glyph-name="edieresis" unicode="&#xeb;" horiz-adv-x="540" 
d="M485 246h-388q2 -102 45.5 -160t132.5 -58q85 0 127.5 43t42.5 99h40v-4q0 -66 -54 -121t-156 -55q-110 0 -165 74t-55 191v20q0 117 53.5 191t161.5 74t161.5 -74t53.5 -191v-29zM270 502q-85 0 -128 -58.5t-45 -159.5h346q-2 101 -45.5 159.5t-127.5 58.5zM225 735v-60
h-60v60h60zM375 735v-60h-60v60h60z" />
    <glyph glyph-name="igrave" unicode="&#xec;" horiz-adv-x="200" 
d="M80 0v530h40v-530h-40zM-11 780h42l90 -160h-42z" />
    <glyph glyph-name="iacute" unicode="&#xed;" horiz-adv-x="200" 
d="M80 0v530h40v-530h-40zM169 780h42l-90 -160h-42z" />
    <glyph glyph-name="icircumflex" unicode="&#xee;" horiz-adv-x="200" 
d="M80 0v530h40v-530h-40zM0 620h-45l130 160h30l130 -160h-45l-100 124z" />
    <glyph glyph-name="idieresis" unicode="&#xef;" horiz-adv-x="200" 
d="M80 0v530h40v-530h-40zM205 735v-60h-60v60h60zM55 735v-60h-60v60h60z" />
    <glyph glyph-name="eth" unicode="&#xf0;" horiz-adv-x="540" 
d="M55 772v38q126 -11 216 -68l116 68v-43l-82 -48q31 -24 61 -55q64 -68 91.5 -175.5t27.5 -213.5v-20q0 -117 -53.5 -191t-161.5 -74t-161.5 74t-53.5 191v20q0 117 53.5 191t161.5 74q105 0 155 -76q-31 112 -91 174q-35 35 -68 58l-169 -99v43l133 78q-74 41 -175 54z
M270 28q86 0 129.5 61t43.5 166v20q0 105 -43.5 166t-129.5 61t-129.5 -61t-43.5 -166v-20q0 -105 43.5 -166t129.5 -61z" />
    <glyph glyph-name="ntilde" unicode="&#xf1;" horiz-adv-x="510" 
d="M445 0h-40v370q0 68 -35 100t-95 32q-107 0 -165 -92v-410h-40v380l-5 150h30l9 -78q55 88 181 88q74 0 117 -44.5t43 -120.5v-375zM363 737h35q0 -84 -70 -84q-31 0 -75 30t-63 30q-37 0 -37 -50h-35q0 84 70 84q31 0 75 -30t63 -30q37 0 37 50z" />
    <glyph glyph-name="ograve" unicode="&#xf2;" horiz-adv-x="540" 
d="M270 -10q-108 0 -161.5 74t-53.5 191v20q0 117 53.5 191t161.5 74t161.5 -74t53.5 -191v-20q0 -117 -53.5 -191t-161.5 -74zM270 28q86 0 129.5 61t43.5 166v20q0 105 -43.5 166t-129.5 61t-129.5 -61t-43.5 -166v-20q0 -105 43.5 -166t129.5 -61zM159 780h42l90 -160
h-42z" />
    <glyph glyph-name="oacute" unicode="&#xf3;" horiz-adv-x="540" 
d="M270 -10q-108 0 -161.5 74t-53.5 191v20q0 117 53.5 191t161.5 74t161.5 -74t53.5 -191v-20q0 -117 -53.5 -191t-161.5 -74zM270 28q86 0 129.5 61t43.5 166v20q0 105 -43.5 166t-129.5 61t-129.5 -61t-43.5 -166v-20q0 -105 43.5 -166t129.5 -61zM339 780h42l-90 -160
h-42z" />
    <glyph glyph-name="ocircumflex" unicode="&#xf4;" horiz-adv-x="540" 
d="M270 -10q-108 0 -161.5 74t-53.5 191v20q0 117 53.5 191t161.5 74t161.5 -74t53.5 -191v-20q0 -117 -53.5 -191t-161.5 -74zM270 28q86 0 129.5 61t43.5 166v20q0 105 -43.5 166t-129.5 61t-129.5 -61t-43.5 -166v-20q0 -105 43.5 -166t129.5 -61zM170 620h-45l130 160
h30l130 -160h-45l-100 124z" />
    <glyph glyph-name="otilde" unicode="&#xf5;" horiz-adv-x="540" 
d="M270 -10q-108 0 -161.5 74t-53.5 191v20q0 117 53.5 191t161.5 74t161.5 -74t53.5 -191v-20q0 -117 -53.5 -191t-161.5 -74zM270 28q86 0 129.5 61t43.5 166v20q0 105 -43.5 166t-129.5 61t-129.5 -61t-43.5 -166v-20q0 -105 43.5 -166t129.5 -61zM375 737h35
q0 -84 -70 -84q-31 0 -75 30t-63 30q-37 0 -37 -50h-35q0 84 70 84q31 0 75 -30t63 -30q37 0 37 50z" />
    <glyph glyph-name="odieresis" unicode="&#xf6;" horiz-adv-x="540" 
d="M270 -10q-108 0 -161.5 74t-53.5 191v20q0 117 53.5 191t161.5 74t161.5 -74t53.5 -191v-20q0 -117 -53.5 -191t-161.5 -74zM270 28q86 0 129.5 61t43.5 166v20q0 105 -43.5 166t-129.5 61t-129.5 -61t-43.5 -166v-20q0 -105 43.5 -166t129.5 -61zM225 735v-60h-60v60h60
zM375 735v-60h-60v60h60z" />
    <glyph glyph-name="divide" unicode="&#xf7;" horiz-adv-x="600" 
d="M50 370v40h500v-40h-500zM330 200v-60h-60v60h60zM330 640v-60h-60v60h60z" />
    <glyph glyph-name="oslash" unicode="&#xf8;" horiz-adv-x="540" 
d="M485 530l-51 -69q51 -70 51 -186v-20q0 -117 -53.5 -191t-161.5 -74q-87 0 -141 51l-30 -41h-44l50 69q-50 71 -50 186v20q0 117 53.5 191t161.5 74q87 0 141 -52l30 42h44zM97 255q0 -96 33 -152l257 353q-44 46 -117 46q-86 0 -129.5 -61t-43.5 -166v-20zM443 275
q0 93 -34 151l-257 -352q43 -46 118 -46q86 0 129.5 61t43.5 166v20z" />
    <glyph glyph-name="ugrave" unicode="&#xf9;" horiz-adv-x="510" 
d="M65 530h40v-370q0 -68 35 -100t95 -32q107 0 165 92v410h40v-380l5 -150h-30l-10 77q-55 -87 -180 -87q-74 0 -117 44.5t-43 120.5v375zM141 780h42l90 -160h-42z" />
    <glyph glyph-name="uacute" unicode="&#xfa;" horiz-adv-x="510" 
d="M65 530h40v-370q0 -68 35 -100t95 -32q107 0 165 92v410h40v-380l5 -150h-30l-10 77q-55 -87 -180 -87q-74 0 -117 44.5t-43 120.5v375zM321 780h42l-90 -160h-42z" />
    <glyph glyph-name="ucircumflex" unicode="&#xfb;" horiz-adv-x="510" 
d="M65 530h40v-370q0 -68 35 -100t95 -32q107 0 165 92v410h40v-380l5 -150h-30l-10 77q-55 -87 -180 -87q-74 0 -117 44.5t-43 120.5v375zM152 620h-45l130 160h30l130 -160h-45l-100 124z" />
    <glyph glyph-name="udieresis" unicode="&#xfc;" horiz-adv-x="510" 
d="M65 530h40v-370q0 -68 35 -100t95 -32q107 0 165 92v410h40v-380l5 -150h-30l-10 77q-55 -87 -180 -87q-74 0 -117 44.5t-43 120.5v375zM207 735v-60h-60v60h60zM357 735v-60h-60v60h60z" />
    <glyph glyph-name="yacute" unicode="&#xfd;" horiz-adv-x="462" 
d="M240 65l169 465h42l-191 -512l-78 -218h-44l82 218l-191 512h42zM309 780h42l-90 -160h-42z" />
    <glyph glyph-name="thorn" unicode="&#xfe;" horiz-adv-x="525" 
d="M70 800h40v-336q50 76 155 76q103 0 154 -74t51 -191v-20q0 -117 -51 -191t-154 -74q-106 0 -155 75v-265h-40v1000zM110 410v-290q58 -92 150 -92q83 0 125.5 60.5t42.5 166.5v20q0 106 -42.5 166.5t-125.5 60.5q-92 0 -150 -92z" />
    <glyph glyph-name="ydieresis" unicode="&#xff;" horiz-adv-x="462" 
d="M240 65l169 465h42l-191 -512l-78 -218h-44l82 218l-191 512h42zM345 735v-60h-60v60h60zM195 735v-60h-60v60h60z" />
    <glyph glyph-name="Amacron" unicode="&#x100;" horiz-adv-x="600" 
d="M270 790h60l236 -790h-44l-63 211h-319l-62 -211h-44zM300 750l-149 -501h297zM200 875v40h200v-40h-200z" />
    <glyph glyph-name="amacron" unicode="&#x101;" horiz-adv-x="500" 
d="M405 0l-10 80q-67 -90 -195 -90q-68 0 -109 38t-41 102v10q0 41 14.5 71t41 47t52.5 26t60 14l172 27v20q0 81 -31.5 119t-108.5 38q-80 0 -110 -39t-30 -108h-40v9q0 32 7.5 60t26 56t56 44t90.5 16q180 0 180 -195v-195l5 -150h-30zM205 28q129 0 185 100v160l-175 -29
q-125 -22 -125 -119v-10q0 -43 29 -72.5t86 -29.5zM145 680v40h210v-40h-210z" />
    <glyph glyph-name="Abreve" unicode="&#x102;" horiz-adv-x="600" 
d="M270 790h60l236 -790h-44l-63 211h-319l-62 -211h-44zM300 750l-149 -501h297zM300 830q-62 0 -97 33t-35 87h36q0 -39 24.5 -63t71.5 -24t71.5 24t24.5 63h36q0 -54 -35 -87t-97 -33z" />
    <glyph glyph-name="abreve" unicode="&#x103;" horiz-adv-x="500" 
d="M405 0l-10 80q-67 -90 -195 -90q-68 0 -109 38t-41 102v10q0 41 14.5 71t41 47t52.5 26t60 14l172 27v20q0 81 -31.5 119t-108.5 38q-80 0 -110 -39t-30 -108h-40v9q0 32 7.5 60t26 56t56 44t90.5 16q180 0 180 -195v-195l5 -150h-30zM205 28q129 0 185 100v160l-175 -29
q-125 -22 -125 -119v-10q0 -43 29 -72.5t86 -29.5zM250 610q-76 0 -114 46t-38 124h36q0 -137 116 -137t116 137h36q0 -78 -38 -124t-114 -46z" />
    <glyph glyph-name="Aogonek" unicode="&#x104;" horiz-adv-x="600" 
d="M472 -117q0 -28 20 -44t54 -16q35 0 61 14l12 -28q-31 -19 -76 -19q-49 0 -76.5 23t-27.5 70q0 79 80 126l-60 202h-319l-62 -211h-44l236 790h60l236 -790q-94 -43 -94 -117zM300 750l-149 -501h297z" />
    <glyph glyph-name="aogonek" unicode="&#x105;" horiz-adv-x="500" 
d="M337 -117q0 -28 20 -44t54 -16q35 0 61 14l12 -28q-31 -19 -76 -19q-49 0 -76.5 23t-27.5 70q0 87 98 136l-7 61q-67 -90 -195 -90q-68 0 -109 38t-41 102v10q0 41 14.5 71t41 47t52.5 26t60 14l172 27v20q0 81 -31.5 119t-108.5 38q-80 0 -110 -39t-30 -108h-40v9
q0 32 7.5 60t26 56t56 44t90.5 16q180 0 180 -195v-195l5 -150h-4q-94 -43 -94 -117zM205 28q129 0 185 100v160l-175 -29q-125 -22 -125 -119v-10q0 -43 29 -72.5t86 -29.5z" />
    <glyph glyph-name="Cacute" unicode="&#x106;" horiz-adv-x="607" 
d="M105 370q0 -180 52 -261t160 -81h6q97 0 142 55.5t45 166.5h42v-10q0 -119 -58.5 -184.5t-175.5 -65.5q-130 0 -192.5 90.5t-62.5 289.5v40q0 199 62.5 289.5t192.5 90.5q234 0 234 -265v-25h-42q0 134 -44.5 193t-142.5 59h-6q-107 0 -159.5 -81t-52.5 -261v-40z
M359 950h42l-62 -110h-42z" />
    <glyph glyph-name="cacute" unicode="&#x107;" horiz-adv-x="520" 
d="M97 255q0 -105 43.5 -166t129.5 -61q81 0 118 43t37 109h40v-14q0 -68 -48.5 -122t-146.5 -54q-108 0 -161.5 74t-53.5 191v20q0 117 53.5 191t161.5 74q98 0 146.5 -56.5t48.5 -124.5v-19h-40q0 73 -37.5 117.5t-117.5 44.5q-86 0 -129.5 -61t-43.5 -166v-20zM339 780
h42l-90 -160h-42z" />
    <glyph glyph-name="Ccircumflex" unicode="&#x108;" horiz-adv-x="607" 
d="M105 370q0 -180 52 -261t160 -81h6q97 0 142 55.5t45 166.5h42v-10q0 -119 -58.5 -184.5t-175.5 -65.5q-130 0 -192.5 90.5t-62.5 289.5v40q0 199 62.5 289.5t192.5 90.5q234 0 234 -265v-25h-42q0 134 -44.5 193t-142.5 59h-6q-107 0 -159.5 -81t-52.5 -261v-40z
M248 840h-45l100 110h30l100 -110h-45l-70 77z" />
    <glyph glyph-name="ccircumflex" unicode="&#x109;" horiz-adv-x="520" 
d="M97 255q0 -105 43.5 -166t129.5 -61q81 0 118 43t37 109h40v-14q0 -68 -48.5 -122t-146.5 -54q-108 0 -161.5 74t-53.5 191v20q0 117 53.5 191t161.5 74q98 0 146.5 -56.5t48.5 -124.5v-19h-40q0 73 -37.5 117.5t-117.5 44.5q-86 0 -129.5 -61t-43.5 -166v-20zM170 620
h-45l130 160h30l130 -160h-45l-100 124z" />
    <glyph glyph-name="Cdotaccent" unicode="&#x10a;" horiz-adv-x="607" 
d="M105 370q0 -180 52 -261t160 -81h6q97 0 142 55.5t45 166.5h42v-10q0 -119 -58.5 -184.5t-175.5 -65.5q-130 0 -192.5 90.5t-62.5 289.5v40q0 199 62.5 289.5t192.5 90.5q234 0 234 -265v-25h-42q0 134 -44.5 193t-142.5 59h-6q-107 0 -159.5 -81t-52.5 -261v-40z
M348 925v-60h-60v60h60z" />
    <glyph glyph-name="cdotaccent" unicode="&#x10b;" horiz-adv-x="520" 
d="M97 255q0 -105 43.5 -166t129.5 -61q81 0 118 43t37 109h40v-14q0 -68 -48.5 -122t-146.5 -54q-108 0 -161.5 74t-53.5 191v20q0 117 53.5 191t161.5 74q98 0 146.5 -56.5t48.5 -124.5v-19h-40q0 73 -37.5 117.5t-117.5 44.5q-86 0 -129.5 -61t-43.5 -166v-20zM300 735
v-60h-60v60h60z" />
    <glyph glyph-name="Ccaron" unicode="&#x10c;" horiz-adv-x="607" 
d="M105 370q0 -180 52 -261t160 -81h6q97 0 142 55.5t45 166.5h42v-10q0 -119 -58.5 -184.5t-175.5 -65.5q-130 0 -192.5 90.5t-62.5 289.5v40q0 199 62.5 289.5t192.5 90.5q234 0 234 -265v-25h-42q0 134 -44.5 193t-142.5 59h-6q-107 0 -159.5 -81t-52.5 -261v-40z
M203 950h45l70 -77l70 77h45l-100 -110h-30z" />
    <glyph glyph-name="ccaron" unicode="&#x10d;" horiz-adv-x="520" 
d="M97 255q0 -105 43.5 -166t129.5 -61q81 0 118 43t37 109h40v-14q0 -68 -48.5 -122t-146.5 -54q-108 0 -161.5 74t-53.5 191v20q0 117 53.5 191t161.5 74q98 0 146.5 -56.5t48.5 -124.5v-19h-40q0 73 -37.5 117.5t-117.5 44.5q-86 0 -129.5 -61t-43.5 -166v-20zM125 780
h45l100 -124l100 124h45l-130 -160h-30z" />
    <glyph glyph-name="Dcaron" unicode="&#x10e;" horiz-adv-x="630" 
d="M567 370q0 -370 -292 -370h-195v780h195q292 0 292 -370v-40zM120 38h150q123 0 189 78t66 254v40q0 176 -66 254t-189 78h-150v-704zM170 950h45l70 -77l70 77h45l-100 -110h-30z" />
    <glyph glyph-name="dcaron" unicode="&#x10f;" horiz-adv-x="525" 
d="M260 540q103 0 155 -76v336h40v-650l5 -150h-30l-10 75q-49 -85 -160 -85q-103 0 -154 74t-51 191v20q0 117 51 191t154 74zM415 120v290q-57 92 -150 92q-83 0 -125.5 -60.5t-42.5 -166.5v-20q0 -106 42.5 -166.5t125.5 -60.5q93 0 150 92zM535 800h45l-15 -180h-30v180
z" />
    <glyph glyph-name="Dcroat" unicode="&#x110;" horiz-adv-x="690" 
d="M20 379v38h120v363h195q292 0 292 -370v-40q0 -370 -292 -370h-195v379h-120zM180 742v-325h230v-38h-230v-341h150q123 0 189 78t66 254v40q0 176 -66 254t-189 78h-150z" />
    <glyph glyph-name="dcroat" unicode="&#x111;" horiz-adv-x="525" 
d="M555 684v-38h-100v-496l5 -150h-30l-10 75q-49 -85 -160 -85q-103 0 -154 74t-51 191v20q0 117 51 191t154 74t155 -76v182h-140v38h140v116h40v-116h100zM415 410q-57 92 -150 92q-83 0 -125.5 -60.5t-42.5 -166.5v-20q0 -106 42.5 -166.5t125.5 -60.5q93 0 150 92v290z
" />
    <glyph glyph-name="Emacron" unicode="&#x112;" horiz-adv-x="540" 
d="M80 780h420v-38h-380v-325h330v-38h-330v-341h380v-38h-420v780zM200 875v40h200v-40h-200z" />
    <glyph glyph-name="emacron" unicode="&#x113;" horiz-adv-x="540" 
d="M485 246h-388q2 -102 45.5 -160t132.5 -58q85 0 127.5 43t42.5 99h40v-4q0 -66 -54 -121t-156 -55q-110 0 -165 74t-55 191v20q0 117 53.5 191t161.5 74t161.5 -74t53.5 -191v-29zM270 502q-85 0 -128 -58.5t-45 -159.5h346q-2 101 -45.5 159.5t-127.5 58.5zM165 680v40
h210v-40h-210z" />
    <glyph glyph-name="Ebreve" unicode="&#x114;" horiz-adv-x="540" 
d="M80 780h420v-38h-380v-325h330v-38h-330v-341h380v-38h-420v780zM300 830q-62 0 -97 33t-35 87h36q0 -39 24.5 -63t71.5 -24t71.5 24t24.5 63h36q0 -54 -35 -87t-97 -33z" />
    <glyph glyph-name="ebreve" unicode="&#x115;" horiz-adv-x="540" 
d="M485 246h-388q2 -102 45.5 -160t132.5 -58q85 0 127.5 43t42.5 99h40v-4q0 -66 -54 -121t-156 -55q-110 0 -165 74t-55 191v20q0 117 53.5 191t161.5 74t161.5 -74t53.5 -191v-29zM270 502q-85 0 -128 -58.5t-45 -159.5h346q-2 101 -45.5 159.5t-127.5 58.5zM270 610
q-76 0 -114 46t-38 124h36q0 -137 116 -137t116 137h36q0 -78 -38 -124t-114 -46z" />
    <glyph glyph-name="Edotaccent" unicode="&#x116;" horiz-adv-x="540" 
d="M80 780h420v-38h-380v-325h330v-38h-330v-341h380v-38h-420v780zM330 925v-60h-60v60h60z" />
    <glyph glyph-name="edotaccent" unicode="&#x117;" horiz-adv-x="540" 
d="M485 246h-388q2 -102 45.5 -160t132.5 -58q85 0 127.5 43t42.5 99h40v-4q0 -66 -54 -121t-156 -55q-110 0 -165 74t-55 191v20q0 117 53.5 191t161.5 74t161.5 -74t53.5 -191v-29zM270 502q-85 0 -128 -58.5t-45 -159.5h346q-2 101 -45.5 159.5t-127.5 58.5zM300 735v-60
h-60v60h60z" />
    <glyph glyph-name="Eogonek" unicode="&#x118;" horiz-adv-x="540" 
d="M406 -117q0 -28 20 -44t54 -16q35 0 61 14l12 -28q-31 -19 -76 -19q-49 0 -76.5 23t-27.5 70q0 72 66 117h-359v780h420v-38h-380v-325h330v-38h-330v-341h380v-38q-94 -43 -94 -117z" />
    <glyph glyph-name="eogonek" unicode="&#x119;" horiz-adv-x="540" 
d="M256 -117q0 -28 20 -44t54 -16q35 0 61 14l12 -28q-31 -19 -76 -19q-49 0 -76.5 23t-27.5 70q0 63 53 107h-1q-110 0 -165 74t-55 191v20q0 117 53.5 191t161.5 74t161.5 -74t53.5 -191v-29h-388q2 -102 45.5 -160t132.5 -58q85 0 127.5 43t42.5 99h40v-4q0 -52 -34 -99
t-101 -67q-36 -10 -65 -42t-29 -75zM270 502q-85 0 -128 -58.5t-45 -159.5h346q-2 101 -45.5 159.5t-127.5 58.5z" />
    <glyph glyph-name="Ecaron" unicode="&#x11a;" horiz-adv-x="540" 
d="M80 780h420v-38h-380v-325h330v-38h-330v-341h380v-38h-420v780zM185 950h45l70 -77l70 77h45l-100 -110h-30z" />
    <glyph glyph-name="ecaron" unicode="&#x11b;" horiz-adv-x="540" 
d="M485 246h-388q2 -102 45.5 -160t132.5 -58q85 0 127.5 43t42.5 99h40v-4q0 -66 -54 -121t-156 -55q-110 0 -165 74t-55 191v20q0 117 53.5 191t161.5 74t161.5 -74t53.5 -191v-29zM270 502q-85 0 -128 -58.5t-45 -159.5h346q-2 101 -45.5 159.5t-127.5 58.5zM125 780h45
l100 -124l100 124h45l-130 -160h-30z" />
    <glyph glyph-name="Gcircumflex" unicode="&#x11c;" horiz-adv-x="638" 
d="M338 -10q-138 0 -206.5 90.5t-68.5 289.5v40q0 198 67 289t198 91q235 0 235 -265v-25h-42q0 134 -45 193t-143 59h-6q-109 0 -165.5 -82t-56.5 -260v-40q0 -180 57 -261t175 -81h6q62 0 108.5 20.5t71.5 50.5v234h-145v38h185v-292q-76 -89 -225 -89zM258 840h-45
l100 110h30l100 -110h-45l-70 77z" />
    <glyph glyph-name="gcircumflex" unicode="&#x11d;" horiz-adv-x="525" 
d="M415 -5v110q-51 -75 -155 -75q-103 0 -154 69.5t-51 175.5v20q0 106 51 175.5t154 69.5q111 0 160 -85l10 75h30l-5 -150v-390q0 -90 -46.5 -145t-148.5 -55t-148.5 55t-46.5 145v10h40q0 -89 36.5 -130.5t118.5 -41.5q83 0 119 42t36 125zM415 410q-57 92 -150 92
q-82 0 -125 -56t-43 -151v-20q0 -95 43 -151t125 -56q93 0 150 92v250zM160 620h-45l130 160h30l130 -160h-45l-100 124z" />
    <glyph glyph-name="Gbreve" unicode="&#x11e;" horiz-adv-x="638" 
d="M338 -10q-138 0 -206.5 90.5t-68.5 289.5v40q0 198 67 289t198 91q235 0 235 -265v-25h-42q0 134 -45 193t-143 59h-6q-109 0 -165.5 -82t-56.5 -260v-40q0 -180 57 -261t175 -81h6q62 0 108.5 20.5t71.5 50.5v234h-145v38h185v-292q-76 -89 -225 -89zM328 830
q-62 0 -97 33t-35 87h36q0 -39 24.5 -63t71.5 -24t71.5 24t24.5 63h36q0 -54 -35 -87t-97 -33z" />
    <glyph glyph-name="gbreve" unicode="&#x11f;" horiz-adv-x="525" 
d="M415 -5v110q-51 -75 -155 -75q-103 0 -154 69.5t-51 175.5v20q0 106 51 175.5t154 69.5q111 0 160 -85l10 75h30l-5 -150v-390q0 -90 -46.5 -145t-148.5 -55t-148.5 55t-46.5 145v10h40q0 -89 36.5 -130.5t118.5 -41.5q83 0 119 42t36 125zM415 410q-57 92 -150 92
q-82 0 -125 -56t-43 -151v-20q0 -95 43 -151t125 -56q93 0 150 92v250zM260 610q-76 0 -114 46t-38 124h36q0 -137 116 -137t116 137h36q0 -78 -38 -124t-114 -46z" />
    <glyph glyph-name="Gdotaccent" unicode="&#x120;" horiz-adv-x="638" 
d="M338 -10q-138 0 -206.5 90.5t-68.5 289.5v40q0 198 67 289t198 91q235 0 235 -265v-25h-42q0 134 -45 193t-143 59h-6q-109 0 -165.5 -82t-56.5 -260v-40q0 -180 57 -261t175 -81h6q62 0 108.5 20.5t71.5 50.5v234h-145v38h185v-292q-76 -89 -225 -89zM358 925v-60h-60
v60h60z" />
    <glyph glyph-name="gdotaccent" unicode="&#x121;" horiz-adv-x="525" 
d="M415 -5v110q-51 -75 -155 -75q-103 0 -154 69.5t-51 175.5v20q0 106 51 175.5t154 69.5q111 0 160 -85l10 75h30l-5 -150v-390q0 -90 -46.5 -145t-148.5 -55t-148.5 55t-46.5 145v10h40q0 -89 36.5 -130.5t118.5 -41.5q83 0 119 42t36 125zM265 68q93 0 150 92v250
q-57 92 -150 92q-82 0 -125 -56t-43 -151v-20q0 -95 43 -151t125 -56zM290 735v-60h-60v60h60z" />
    <glyph glyph-name="Gcommaaccent" unicode="&#x122;" horiz-adv-x="638" 
d="M338 -10q-138 0 -206.5 90.5t-68.5 289.5v40q0 198 67 289t198 91q235 0 235 -265v-25h-42q0 134 -45 193t-143 59h-6q-109 0 -165.5 -82t-56.5 -260v-40q0 -180 57 -261t175 -81h6q62 0 108.5 20.5t71.5 50.5v234h-145v38h185v-292q-76 -89 -225 -89zM368 -60v-48
q0 -47 -24.5 -74.5t-65.5 -27.5v30q25 0 41.5 15t18.5 45h-30v60h60z" />
    <glyph glyph-name="gcommaaccent" unicode="&#x123;" horiz-adv-x="525" 
d="M415 -5v110q-51 -75 -155 -75q-103 0 -154 69.5t-51 175.5v20q0 106 51 175.5t154 69.5q111 0 160 -85l10 75h30l-5 -150v-390q0 -90 -46.5 -145t-148.5 -55t-148.5 55t-46.5 145v10h40q0 -89 36.5 -130.5t118.5 -41.5q83 0 119 42t36 125zM415 160v250q-57 92 -150 92
q-82 0 -125 -56t-43 -151v-20q0 -95 43 -151t125 -56q93 0 150 92zM230 620v48q0 122 90 122v-30q-30 0 -44.5 -17.5t-15.5 -62.5h30v-60h-60z" />
    <glyph glyph-name="Hcircumflex" unicode="&#x124;" horiz-adv-x="630" 
d="M510 780h40v-780h-40v379h-390v-379h-40v780h40v-363h390v363zM245 840h-45l100 110h30l100 -110h-45l-70 77z" />
    <glyph glyph-name="hcircumflex" unicode="&#x125;" horiz-adv-x="510" 
d="M110 800v-340q56 80 175 80q74 0 117 -44.5t43 -120.5v-375h-40v370q0 68 -35 100t-95 32q-107 0 -165 -92v-410h-40v800h40zM20 840h-45l100 110h30l100 -110h-45l-70 77z" />
    <glyph glyph-name="Hbar" unicode="&#x126;" horiz-adv-x="630" 
d="M510 780h40v-780h-40v379h-390v-379h-40v780h40v-161h390v161zM120 417h390v164h-390v-164z" />
    <glyph glyph-name="hbar" unicode="&#x127;" horiz-adv-x="510" 
d="M110 800v-116h140v-38h-140v-186q56 80 175 80q74 0 117 -44.5t43 -120.5v-375h-40v370q0 68 -35 100t-95 32q-107 0 -165 -92v-410h-40v646h-100v38h100v116h40z" />
    <glyph glyph-name="Itilde" unicode="&#x128;" horiz-adv-x="210" 
d="M125 780v-780h-40v780h40zM209 932h36q0 -42 -19.5 -63t-52.5 -21q-31 0 -73 30.5t-60 30.5q-39 0 -39 -51h-36q0 42 19.5 63t52.5 21q31 0 73 -30.5t60 -30.5q39 0 39 51z" />
    <glyph glyph-name="itilde" unicode="&#x129;" horiz-adv-x="200" 
d="M80 0v530h40v-530h-40zM205 737h35q0 -84 -70 -84q-31 0 -75 30t-63 30q-37 0 -37 -50h-35q0 84 70 84q31 0 75 -30t63 -30q37 0 37 50z" />
    <glyph glyph-name="Imacron" unicode="&#x12a;" horiz-adv-x="210" 
d="M125 780v-780h-40v780h40zM5 875v40h200v-40h-200z" />
    <glyph glyph-name="imacron" unicode="&#x12b;" horiz-adv-x="200" 
d="M80 0v530h40v-530h-40zM-5 680v40h210v-40h-210z" />
    <glyph glyph-name="Ibreve" unicode="&#x12c;" horiz-adv-x="210" 
d="M125 780v-780h-40v780h40zM105 830q-62 0 -97 33t-35 87h36q0 -39 24.5 -63t71.5 -24t71.5 24t24.5 63h36q0 -54 -35 -87t-97 -33z" />
    <glyph glyph-name="ibreve" unicode="&#x12d;" horiz-adv-x="200" 
d="M80 0v530h40v-530h-40zM100 610q-76 0 -114 46t-38 124h36q0 -137 116 -137t116 137h36q0 -78 -38 -124t-114 -46z" />
    <glyph glyph-name="Iogonek" unicode="&#x12e;" horiz-adv-x="210" 
d="M31 -117q0 -28 20 -44t54 -16q35 0 61 14l12 -28q-31 -19 -76 -19q-49 0 -76.5 23t-27.5 70q0 83 87 130v767h40v-780q-94 -43 -94 -117z" />
    <glyph glyph-name="iogonek" unicode="&#x12f;" horiz-adv-x="200" 
d="M26 -117q0 -28 20 -44t54 -16q35 0 61 14l12 -28q-31 -19 -76 -19q-49 0 -76.5 23t-27.5 70q0 83 87 130v517h40v-530q-94 -43 -94 -117zM130 735v-60h-60v60h60z" />
    <glyph glyph-name="Idotaccent" unicode="&#x130;" horiz-adv-x="210" 
d="M125 780v-780h-40v780h40zM135 925v-60h-60v60h60z" />
    <glyph glyph-name="dotlessi" unicode="&#x131;" horiz-adv-x="200" 
d="M80 0v530h40v-530h-40z" />
    <glyph glyph-name="IJ" unicode="&#x132;" horiz-adv-x="460" 
d="M345 150v630h40v-635q0 -79 -35 -117t-95 -38q-49 0 -70 12v37q24 -11 60 -11q53 0 76.5 27.5t23.5 94.5zM125 780v-780h-40v780h40z" />
    <glyph glyph-name="ij" unicode="&#x133;" horiz-adv-x="350" 
d="M230 -60v590h40v-595q0 -75 -38 -110t-102 -35q-47 0 -70 10v37q20 -9 60 -9q58 0 84 23.5t26 88.5zM80 0v530h40v-530h-40zM130 735v-60h-60v60h60zM280 735v-60h-60v60h60z" />
    <glyph glyph-name="Jcircumflex" unicode="&#x134;" horiz-adv-x="480" 
d="M365 780h40v-540q0 -122 -43.5 -186t-144.5 -64t-143.5 62.5t-42.5 187.5v10h38q0 -117 35 -169.5t113 -52.5t113 52.5t35 169.5v530zM315 840h-45l100 110h30l100 -110h-45l-70 77z" />
    <glyph glyph-name="jcircumflex" unicode="&#x135;" horiz-adv-x="200" 
d="M80 -60v590h40v-595q0 -75 -38 -110t-102 -35q-47 0 -70 10v37q20 -9 60 -9q58 0 84 23.5t26 88.5zM0 620h-45l130 160h30l130 -160h-45l-100 124z" />
    <glyph glyph-name="Kcommaaccent" unicode="&#x136;" horiz-adv-x="540" 
d="M120 780v-473l331 473h49l-238 -334l238 -446h-47l-216 410l-117 -165v-245h-40v780h40zM295 -60v-48q0 -47 -24.5 -74.5t-65.5 -27.5v30q25 0 41.5 15t18.5 45h-30v60h60z" />
    <glyph glyph-name="kcommaaccent" unicode="&#x137;" horiz-adv-x="480" 
d="M70 0v800h40v-583l288 313h52l-185 -200l185 -330h-45l-168 300l-127 -138v-162h-40zM275 -60v-48q0 -47 -24.5 -74.5t-65.5 -27.5v30q25 0 41.5 15t18.5 45h-30v60h60z" />
    <glyph glyph-name="kgreenlandic" unicode="&#x138;" horiz-adv-x="480" 
d="M70 0v530h40v-313l288 313h52l-185 -200l185 -330h-45l-168 300l-127 -138v-162h-40z" />
    <glyph glyph-name="Lacute" unicode="&#x139;" horiz-adv-x="480" 
d="M465 0h-385v780h40v-742h345v-38zM141 950h42l-62 -110h-42z" />
    <glyph glyph-name="lacute" unicode="&#x13a;" horiz-adv-x="200" 
d="M80 0v800h40v-800h-40zM141 950h42l-62 -110h-42z" />
    <glyph glyph-name="Lcommaaccent" unicode="&#x13b;" horiz-adv-x="480" 
d="M465 0h-385v780h40v-742h345v-38zM305 -60v-48q0 -47 -24.5 -74.5t-65.5 -27.5v30q25 0 41.5 15t18.5 45h-30v60h60z" />
    <glyph glyph-name="lcommaaccent" unicode="&#x13c;" horiz-adv-x="200" 
d="M80 0v800h40v-800h-40zM130 -60v-48q0 -47 -24.5 -74.5t-65.5 -27.5v30q25 0 41.5 15t18.5 45h-30v60h60z" />
    <glyph glyph-name="Lcaron" unicode="&#x13d;" horiz-adv-x="480" 
d="M465 0h-385v780h40v-742h345v-38zM278 800h45l-15 -180h-30v180z" />
    <glyph glyph-name="lcaron" unicode="&#x13e;" horiz-adv-x="200" 
d="M80 0v800h40v-800h-40zM200 800h45l-15 -180h-30v180z" />
    <glyph glyph-name="Ldot" unicode="&#x13f;" horiz-adv-x="480" 
d="M465 0h-385v780h40v-742h345v-38zM362 428v-60h-60v60h60z" />
    <glyph glyph-name="ldot" unicode="&#x140;" 
d="M80 0v800h40v-800h-40zM280 380v-60h-60v60h60z" />
    <glyph glyph-name="Lslash" unicode="&#x141;" horiz-adv-x="540" 
d="M20 293v42l120 63v382h40v-361l230 121v-42l-230 -121v-339h345v-38h-385v356z" />
    <glyph glyph-name="lslash" unicode="&#x142;" horiz-adv-x="310" 
d="M35 287v48l95 78v387h40v-354l115 94v-48l-115 -94v-398h-40v365z" />
    <glyph glyph-name="Nacute" unicode="&#x143;" horiz-adv-x="650" 
d="M570 780v-780h-45l-410 720l3 -190v-530h-38v780h45l410 -720l-3 190v530h38zM366 950h42l-62 -110h-42z" />
    <glyph glyph-name="nacute" unicode="&#x144;" horiz-adv-x="510" 
d="M445 0h-40v370q0 68 -35 100t-95 32q-107 0 -165 -92v-410h-40v380l-5 150h30l9 -78q55 88 181 88q74 0 117 -44.5t43 -120.5v-375zM327 780h42l-90 -160h-42z" />
    <glyph glyph-name="Ncommaaccent" unicode="&#x145;" horiz-adv-x="650" 
d="M570 780v-780h-45l-410 720l3 -190v-530h-38v780h45l410 -720l-3 190v530h38zM355 -60v-48q0 -47 -24.5 -74.5t-65.5 -27.5v30q25 0 41.5 15t18.5 45h-30v60h60z" />
    <glyph glyph-name="ncommaaccent" unicode="&#x146;" horiz-adv-x="510" 
d="M445 0h-40v370q0 68 -35 100t-95 32q-107 0 -165 -92v-410h-40v380l-5 150h30l9 -78q55 88 181 88q74 0 117 -44.5t43 -120.5v-375zM288 -60v-48q0 -47 -24.5 -74.5t-65.5 -27.5v30q25 0 41.5 15t18.5 45h-30v60h60z" />
    <glyph glyph-name="Ncaron" unicode="&#x147;" horiz-adv-x="650" 
d="M570 780v-780h-45l-410 720l3 -190v-530h-38v780h45l410 -720l-3 190v530h38zM210 950h45l70 -77l70 77h45l-100 -110h-30z" />
    <glyph glyph-name="ncaron" unicode="&#x148;" horiz-adv-x="510" 
d="M445 0h-40v370q0 68 -35 100t-95 32q-107 0 -165 -92v-410h-40v380l-5 150h30l9 -78q55 88 181 88q74 0 117 -44.5t43 -120.5v-375zM113 780h45l100 -124l100 124h45l-130 -160h-30z" />
    <glyph glyph-name="Eng" unicode="&#x14a;" horiz-adv-x="650" 
d="M530 -60v51l-415 729l3 -190v-530h-38v780h45l410 -720l-3 190v530h38v-845q0 -75 -38 -110t-102 -35q-47 0 -70 10v37q20 -9 60 -9q58 0 84 23.5t26 88.5z" />
    <glyph glyph-name="eng" unicode="&#x14b;" horiz-adv-x="510" 
d="M405 -60v430q0 68 -35 100t-95 32q-107 0 -165 -92v-410h-40v380l-5 150h30l9 -78q55 88 181 88q74 0 117 -44.5t43 -120.5v-440q0 -75 -38 -110t-102 -35q-47 0 -70 10v37q20 -9 60 -9q58 0 84 23.5t26 88.5z" />
    <glyph glyph-name="Omacron" unicode="&#x14c;" horiz-adv-x="640" 
d="M320 -10q-130 0 -193.5 90.5t-63.5 289.5v40q0 199 63.5 289.5t193.5 90.5t193.5 -90.5t63.5 -289.5v-40q0 -199 -63.5 -289.5t-193.5 -90.5zM317 28h6q108 0 160 80.5t52 261.5v40q0 181 -52 261.5t-160 80.5h-6q-108 0 -160 -80.5t-52 -261.5v-40q0 -181 52 -261.5
t160 -80.5zM220 875v40h200v-40h-200z" />
    <glyph glyph-name="omacron" unicode="&#x14d;" horiz-adv-x="540" 
d="M270 -10q-108 0 -161.5 74t-53.5 191v20q0 117 53.5 191t161.5 74t161.5 -74t53.5 -191v-20q0 -117 -53.5 -191t-161.5 -74zM270 28q86 0 129.5 61t43.5 166v20q0 105 -43.5 166t-129.5 61t-129.5 -61t-43.5 -166v-20q0 -105 43.5 -166t129.5 -61zM165 680v40h210v-40
h-210z" />
    <glyph glyph-name="Obreve" unicode="&#x14e;" horiz-adv-x="640" 
d="M320 -10q-130 0 -193.5 90.5t-63.5 289.5v40q0 199 63.5 289.5t193.5 90.5t193.5 -90.5t63.5 -289.5v-40q0 -199 -63.5 -289.5t-193.5 -90.5zM317 28h6q108 0 160 80.5t52 261.5v40q0 181 -52 261.5t-160 80.5h-6q-108 0 -160 -80.5t-52 -261.5v-40q0 -181 52 -261.5
t160 -80.5zM320 830q-62 0 -97 33t-35 87h36q0 -39 24.5 -63t71.5 -24t71.5 24t24.5 63h36q0 -54 -35 -87t-97 -33z" />
    <glyph glyph-name="obreve" unicode="&#x14f;" horiz-adv-x="540" 
d="M270 -10q-108 0 -161.5 74t-53.5 191v20q0 117 53.5 191t161.5 74t161.5 -74t53.5 -191v-20q0 -117 -53.5 -191t-161.5 -74zM270 28q86 0 129.5 61t43.5 166v20q0 105 -43.5 166t-129.5 61t-129.5 -61t-43.5 -166v-20q0 -105 43.5 -166t129.5 -61zM270 610q-76 0 -114 46
t-38 124h36q0 -137 116 -137t116 137h36q0 -78 -38 -124t-114 -46z" />
    <glyph glyph-name="Ohungarumlaut" unicode="&#x150;" horiz-adv-x="640" 
d="M320 -10q-130 0 -193.5 90.5t-63.5 289.5v40q0 199 63.5 289.5t193.5 90.5t193.5 -90.5t63.5 -289.5v-40q0 -199 -63.5 -289.5t-193.5 -90.5zM317 28h6q108 0 160 80.5t52 261.5v40q0 181 -52 261.5t-160 80.5h-6q-108 0 -160 -80.5t-52 -261.5v-40q0 -181 52 -261.5
t160 -80.5zM306 950h42l-62 -110h-42zM416 950h42l-62 -110h-42z" />
    <glyph glyph-name="ohungarumlaut" unicode="&#x151;" horiz-adv-x="540" 
d="M270 -10q-108 0 -161.5 74t-53.5 191v20q0 117 53.5 191t161.5 74t161.5 -74t53.5 -191v-20q0 -117 -53.5 -191t-161.5 -74zM270 28q86 0 129.5 61t43.5 166v20q0 105 -43.5 166t-129.5 61t-129.5 -61t-43.5 -166v-20q0 -105 43.5 -166t129.5 -61zM394 780h42l-90 -160
h-42zM284 780h42l-90 -160h-42z" />
    <glyph glyph-name="OE" unicode="&#x152;" horiz-adv-x="940" 
d="M63 410q0 370 292 370h545v-38h-380v-325h330v-38h-330v-341h380v-38h-545q-292 0 -292 370v40zM480 38v704h-120q-123 0 -189 -78t-66 -254v-40q0 -176 66 -254t189 -78h120z" />
    <glyph glyph-name="oe" unicode="&#x153;" horiz-adv-x="928" 
d="M873 246h-388q2 -102 45.5 -160t132.5 -58q85 0 127.5 43t42.5 99h40v-4q0 -66 -54 -121t-156 -55q-153 0 -199 147q-46 -147 -194 -147q-108 0 -161.5 74t-53.5 191v20q0 117 53.5 191t161.5 74q148 0 194 -147q21 68 69 107.5t125 39.5q108 0 161.5 -74t53.5 -191v-29z
M97 255q0 -105 43.5 -166t129.5 -61t129.5 61t43.5 166v20q0 105 -43.5 166t-129.5 61t-129.5 -61t-43.5 -166v-20zM658 502q-85 0 -128 -58.5t-45 -159.5h346q-2 101 -45.5 159.5t-127.5 58.5z" />
    <glyph glyph-name="Racute" unicode="&#x154;" horiz-adv-x="570" 
d="M120 330v-330h-40v780h202q34 0 64.5 -6t61 -21t53 -38.5t36 -62t13.5 -87.5v-20q0 -160 -139 -203l139 -342h-45l-132 334q-23 -4 -51 -4h-162zM120 368h162q25 0 48.5 4t49.5 16t44.5 31t31 52t12.5 76v16q0 43 -12.5 76t-31 52t-44.5 31t-49.5 16t-48.5 4h-162v-374z
M306 950h42l-62 -110h-42z" />
    <glyph glyph-name="racute" unicode="&#x155;" horiz-adv-x="315" 
d="M255 540l15 -1v-37h-10q-57 0 -91 -26t-59 -66v-410h-40v380l-5 150h30l9 -75q51 85 151 85zM239 780h42l-90 -160h-42z" />
    <glyph glyph-name="Rcommaaccent" unicode="&#x156;" horiz-adv-x="570" 
d="M120 330v-330h-40v780h202q34 0 64.5 -6t61 -21t53 -38.5t36 -62t13.5 -87.5v-20q0 -160 -139 -203l139 -342h-45l-132 334q-23 -4 -51 -4h-162zM120 368h162q25 0 48.5 4t49.5 16t44.5 31t31 52t12.5 76v16q0 43 -12.5 76t-31 52t-44.5 31t-49.5 16t-48.5 4h-162v-374z
M305 -60v-48q0 -47 -24.5 -74.5t-65.5 -27.5v30q25 0 41.5 15t18.5 45h-30v60h60z" />
    <glyph glyph-name="rcommaaccent" unicode="&#x157;" horiz-adv-x="315" 
d="M255 540l15 -1v-37h-10q-57 0 -91 -26t-59 -66v-410h-40v380l-5 150h30l9 -75q51 85 151 85zM120 -60v-48q0 -47 -24.5 -74.5t-65.5 -27.5v30q25 0 41.5 15t18.5 45h-30v60h60z" />
    <glyph glyph-name="Rcaron" unicode="&#x158;" horiz-adv-x="570" 
d="M120 330v-330h-40v780h202q34 0 64.5 -6t61 -21t53 -38.5t36 -62t13.5 -87.5v-20q0 -160 -139 -203l139 -342h-45l-132 334q-23 -4 -51 -4h-162zM120 368h162q25 0 48.5 4t49.5 16t44.5 31t31 52t12.5 76v16q0 43 -12.5 76t-31 52t-44.5 31t-49.5 16t-48.5 4h-162v-374z
M150 950h45l70 -77l70 77h45l-100 -110h-30z" />
    <glyph glyph-name="rcaron" unicode="&#x159;" horiz-adv-x="315" 
d="M255 540l15 -1v-37h-10q-57 0 -91 -26t-59 -66v-410h-40v380l-5 150h30l9 -75q51 85 151 85zM25 780h45l100 -124l100 124h45l-130 -160h-30z" />
    <glyph glyph-name="Sacute" unicode="&#x15a;" horiz-adv-x="590" 
d="M287 385q-119 16 -173 68.5t-54 126.5v10q0 92 65 146t170 54q235 0 235 -245v-25h-40q0 122 -46 177t-146 55h-6q-82 0 -136 -41.5t-54 -110.5v-10q0 -72 46.5 -113t157.5 -56q123 -17 178.5 -69t55.5 -138v-10q0 -99 -67 -156.5t-178 -57.5q-117 0 -181 67t-64 183v10
h40q0 -109 55.5 -165.5t146.5 -56.5h6q90 0 145 45t55 126v10q0 78 -50.5 119.5t-160.5 56.5zM336 950h42l-62 -110h-42z" />
    <glyph glyph-name="sacute" unicode="&#x15b;" horiz-adv-x="520" 
d="M260 28q73 0 113 30t40 82q0 61 -37 83t-131 30q-98 9 -136 44t-38 95v5q0 63 49.5 103t139.5 40q190 0 190 -176v-4h-40q0 70 -33.5 106t-116.5 36q-70 0 -108.5 -28t-38.5 -79t33.5 -76t128.5 -33q99 -7 139.5 -40.5t40.5 -103.5v-4q0 -65 -52 -106.5t-143 -41.5
q-53 0 -93 15.5t-61 40.5t-31 52.5t-10 57.5v4h40q0 -58 35 -95t120 -37zM329 780h42l-90 -160h-42z" />
    <glyph glyph-name="Scircumflex" unicode="&#x15c;" horiz-adv-x="590" 
d="M287 385q-119 16 -173 68.5t-54 126.5v10q0 92 65 146t170 54q235 0 235 -245v-25h-40q0 122 -46 177t-146 55h-6q-82 0 -136 -41.5t-54 -110.5v-10q0 -72 46.5 -113t157.5 -56q123 -17 178.5 -69t55.5 -138v-10q0 -99 -67 -156.5t-178 -57.5q-117 0 -181 67t-64 183v10
h40q0 -109 55.5 -165.5t146.5 -56.5h6q90 0 145 45t55 126v10q0 78 -50.5 119.5t-160.5 56.5zM225 840h-45l100 110h30l100 -110h-45l-70 77z" />
    <glyph glyph-name="scircumflex" unicode="&#x15d;" horiz-adv-x="520" 
d="M260 28q73 0 113 30t40 82q0 61 -37 83t-131 30q-98 9 -136 44t-38 95v5q0 63 49.5 103t139.5 40q190 0 190 -176v-4h-40q0 70 -33.5 106t-116.5 36q-70 0 -108.5 -28t-38.5 -79t33.5 -76t128.5 -33q99 -7 139.5 -40.5t40.5 -103.5v-4q0 -65 -52 -106.5t-143 -41.5
q-53 0 -93 15.5t-61 40.5t-31 52.5t-10 57.5v4h40q0 -58 35 -95t120 -37zM160 620h-45l130 160h30l130 -160h-45l-100 124z" />
    <glyph glyph-name="Scedilla" unicode="&#x15e;" horiz-adv-x="590" 
d="M204 -188l13 30q29 -19 70 -19q36 0 52.5 9t16.5 32q0 39 -65 39l-26 -2l-17 16l27 74q-108 5 -166.5 71.5t-58.5 177.5v10h40q0 -109 55.5 -165.5t146.5 -56.5h6q90 0 145 45t55 126v10q0 78 -50.5 119.5t-160.5 56.5q-119 16 -173 68.5t-54 126.5v10q0 92 65 146
t170 54q235 0 235 -245v-25h-40q0 122 -46 177t-146 55h-6q-82 0 -136 -41.5t-54 -110.5v-10q0 -72 46.5 -113t157.5 -56q123 -17 178.5 -69t55.5 -138v-10q0 -95 -62.5 -151.5t-166.5 -61.5l-20 -55h5q38 0 65.5 -16.5t27.5 -54.5q0 -75 -97 -75q-57 0 -88 22z" />
    <glyph glyph-name="scedilla" unicode="&#x15f;" horiz-adv-x="520" 
d="M169 -188l13 30q29 -19 70 -19q36 0 52.5 9t16.5 32q0 39 -65 39l-26 -2l-17 16l27 74q-48 3 -83.5 19t-54.5 40.5t-28 51t-9 54.5v4h40q0 -58 35 -95t120 -37q73 0 113 30t40 82q0 61 -37 83t-131 30q-98 9 -136 44t-38 95v5q0 63 49.5 103t139.5 40q190 0 190 -176v-4
h-40q0 70 -33.5 106t-116.5 36q-70 0 -108.5 -28t-38.5 -79t33.5 -76t128.5 -33q99 -7 139.5 -40.5t40.5 -103.5v-4q0 -62 -47.5 -102.5t-131.5 -44.5l-20 -55h5q38 0 65.5 -16.5t27.5 -54.5q0 -75 -97 -75q-57 0 -88 22z" />
    <glyph glyph-name="Scaron" unicode="&#x160;" horiz-adv-x="590" 
d="M287 385q-119 16 -173 68.5t-54 126.5v10q0 92 65 146t170 54q235 0 235 -245v-25h-40q0 122 -46 177t-146 55h-6q-82 0 -136 -41.5t-54 -110.5v-10q0 -72 46.5 -113t157.5 -56q123 -17 178.5 -69t55.5 -138v-10q0 -99 -67 -156.5t-178 -57.5q-117 0 -181 67t-64 183v10
h40q0 -109 55.5 -165.5t146.5 -56.5h6q90 0 145 45t55 126v10q0 78 -50.5 119.5t-160.5 56.5zM180 950h45l70 -77l70 77h45l-100 -110h-30z" />
    <glyph glyph-name="scaron" unicode="&#x161;" horiz-adv-x="520" 
d="M260 28q73 0 113 30t40 82q0 61 -37 83t-131 30q-98 9 -136 44t-38 95v5q0 63 49.5 103t139.5 40q190 0 190 -176v-4h-40q0 70 -33.5 106t-116.5 36q-70 0 -108.5 -28t-38.5 -79t33.5 -76t128.5 -33q99 -7 139.5 -40.5t40.5 -103.5v-4q0 -65 -52 -106.5t-143 -41.5
q-53 0 -93 15.5t-61 40.5t-31 52.5t-10 57.5v4h40q0 -58 35 -95t120 -37zM115 780h45l100 -124l100 124h45l-130 -160h-30z" />
    <glyph glyph-name="Tcommaaccent" unicode="&#x162;" horiz-adv-x="500" 
d="M270 742v-742h-40v742h-205v38h450v-38h-205zM280 -60v-48q0 -47 -24.5 -74.5t-65.5 -27.5v30q25 0 41.5 15t18.5 45h-30v60h60z" />
    <glyph glyph-name="tcommaaccent" unicode="&#x163;" horiz-adv-x="390" 
d="M160 530h180v-38h-180v-352q0 -65 26 -88.5t84 -23.5q40 0 60 9v-37q-23 -10 -70 -10q-64 0 -102 35t-38 110v357h-85v38h85v150h40v-150zM260 -60v-48q0 -47 -24.5 -74.5t-65.5 -27.5v30q25 0 41.5 15t18.5 45h-30v60h60z" />
    <glyph glyph-name="Tcaron" unicode="&#x164;" horiz-adv-x="500" 
d="M270 742v-742h-40v742h-205v38h450v-38h-205zM135 950h45l70 -77l70 77h45l-100 -110h-30z" />
    <glyph glyph-name="tcaron" unicode="&#x165;" horiz-adv-x="390" 
d="M160 530h180v-38h-180v-352q0 -65 26 -88.5t84 -23.5q40 0 60 9v-37q-23 -10 -70 -10q-64 0 -102 35t-38 110v357h-85v38h85v150h40v-150zM240 800h45l-15 -180h-30v180z" />
    <glyph glyph-name="Tbar" unicode="&#x166;" horiz-adv-x="500" 
d="M270 742v-325h130v-38h-130v-379h-40v379h-130v38h130v325h-205v38h450v-38h-205z" />
    <glyph glyph-name="tbar" unicode="&#x167;" horiz-adv-x="390" 
d="M160 530h180v-38h-180v-208h140v-38h-140v-106q0 -65 26 -88.5t84 -23.5q40 0 60 9v-37q-23 -10 -70 -10q-64 0 -102 35t-38 110v111h-85v38h85v208h-85v38h85v150h40v-150z" />
    <glyph glyph-name="Utilde" unicode="&#x168;" horiz-adv-x="630" 
d="M315 -10q-120 0 -180 55.5t-60 194.5v540h40v-535q0 -123 48.5 -170t151.5 -47t151.5 47t48.5 170v535h40v-540q0 -139 -60 -194.5t-180 -55.5zM419 932h36q0 -42 -19.5 -63t-52.5 -21q-31 0 -73 30.5t-60 30.5q-39 0 -39 -51h-36q0 42 19.5 63t52.5 21q31 0 73 -30.5
t60 -30.5q39 0 39 51z" />
    <glyph glyph-name="utilde" unicode="&#x169;" horiz-adv-x="510" 
d="M65 530h40v-370q0 -68 35 -100t95 -32q107 0 165 92v410h40v-380l5 -150h-30l-10 77q-55 -87 -180 -87q-74 0 -117 44.5t-43 120.5v375zM357 737h35q0 -84 -70 -84q-31 0 -75 30t-63 30q-37 0 -37 -50h-35q0 84 70 84q31 0 75 -30t63 -30q37 0 37 50z" />
    <glyph glyph-name="Umacron" unicode="&#x16a;" horiz-adv-x="630" 
d="M315 -10q-120 0 -180 55.5t-60 194.5v540h40v-535q0 -123 48.5 -170t151.5 -47t151.5 47t48.5 170v535h40v-540q0 -139 -60 -194.5t-180 -55.5zM215 875v40h200v-40h-200z" />
    <glyph glyph-name="umacron" unicode="&#x16b;" horiz-adv-x="510" 
d="M65 530h40v-370q0 -68 35 -100t95 -32q107 0 165 92v410h40v-380l5 -150h-30l-10 77q-55 -87 -180 -87q-74 0 -117 44.5t-43 120.5v375zM147 680v40h210v-40h-210z" />
    <glyph glyph-name="Ubreve" unicode="&#x16c;" horiz-adv-x="630" 
d="M315 -10q-120 0 -180 55.5t-60 194.5v540h40v-535q0 -123 48.5 -170t151.5 -47t151.5 47t48.5 170v535h40v-540q0 -139 -60 -194.5t-180 -55.5zM315 830q-62 0 -97 33t-35 87h36q0 -39 24.5 -63t71.5 -24t71.5 24t24.5 63h36q0 -54 -35 -87t-97 -33z" />
    <glyph glyph-name="ubreve" unicode="&#x16d;" horiz-adv-x="510" 
d="M65 530h40v-370q0 -68 35 -100t95 -32q107 0 165 92v410h40v-380l5 -150h-30l-10 77q-55 -87 -180 -87q-74 0 -117 44.5t-43 120.5v375zM252 610q-76 0 -114 46t-38 124h36q0 -137 116 -137t116 137h36q0 -78 -38 -124t-114 -46z" />
    <glyph glyph-name="Uring" unicode="&#x16e;" horiz-adv-x="630" 
d="M315 -10q-120 0 -180 55.5t-60 194.5v540h40v-535q0 -123 48.5 -170t151.5 -47t151.5 47t48.5 170v535h40v-540q0 -139 -60 -194.5t-180 -55.5zM225 870q0 38 26.5 64t63.5 26t63.5 -26t26.5 -64t-26.5 -64t-63.5 -26t-63.5 26t-26.5 64zM257 870q0 -24 17 -41t41 -17
t41 17t17 41t-17 41t-41 17t-41 -17t-17 -41z" />
    <glyph glyph-name="uring" unicode="&#x16f;" horiz-adv-x="510" 
d="M65 530h40v-370q0 -68 35 -100t95 -32q107 0 165 92v410h40v-380l5 -150h-30l-10 77q-55 -87 -180 -87q-74 0 -117 44.5t-43 120.5v375zM162 700q0 38 26 64t64 26t64 -26t26 -64t-26 -64t-64 -26t-64 26t-26 64zM194 700q0 -24 17 -41t41 -17t41 17t17 41t-17 41t-41 17
t-41 -17t-17 -41z" />
    <glyph glyph-name="Uhungarumlaut" unicode="&#x170;" horiz-adv-x="630" 
d="M315 -10q-120 0 -180 55.5t-60 194.5v540h40v-535q0 -123 48.5 -170t151.5 -47t151.5 47t48.5 170v535h40v-540q0 -139 -60 -194.5t-180 -55.5zM411 950h42l-62 -110h-42zM301 950h42l-62 -110h-42z" />
    <glyph glyph-name="uhungarumlaut" unicode="&#x171;" horiz-adv-x="510" 
d="M65 530h40v-370q0 -68 35 -100t95 -32q107 0 165 92v410h40v-380l5 -150h-30l-10 77q-55 -87 -180 -87q-74 0 -117 44.5t-43 120.5v375zM266 780h42l-90 -160h-42zM376 780h42l-90 -160h-42z" />
    <glyph glyph-name="Uogonek" unicode="&#x172;" horiz-adv-x="630" 
d="M315 -117q0 -28 20 -44t54 -16q35 0 61 14l12 -28q-31 -19 -76 -19q-49 0 -76.5 23t-27.5 70q0 64 53 108q-6 -1 -20 -1q-120 0 -180 55.5t-60 194.5v540h40v-535q0 -123 48.5 -170t151.5 -47t151.5 47t48.5 170v535h40v-540q0 -109 -36.5 -164.5t-109.5 -75.5
q-37 -10 -65.5 -41.5t-28.5 -75.5z" />
    <glyph glyph-name="uogonek" unicode="&#x173;" horiz-adv-x="510" 
d="M351 -117q0 -28 20 -44t54 -16q35 0 61 14l12 -28q-31 -19 -76 -19q-49 0 -76.5 23t-27.5 70q0 86 95 134l-8 60q-55 -87 -180 -87q-74 0 -117 44.5t-43 120.5v375h40v-370q0 -68 35 -100t95 -32q107 0 165 92v410h40v-380l5 -150q-94 -43 -94 -117z" />
    <glyph glyph-name="Wcircumflex" unicode="&#x174;" horiz-adv-x="880" 
d="M620 -10l-180 750l-180 -750h-60l-151 790h43l138 -748l180 748h60l180 -748l138 748h43l-151 -790h-60zM370 840h-45l100 110h30l100 -110h-45l-70 77z" />
    <glyph glyph-name="wcircumflex" unicode="&#x175;" horiz-adv-x="700" 
d="M350 481l-137 -481h-56l-122 530h41l110 -490l139 490h50l139 -490l110 490h41l-122 -530h-56zM250 620h-45l130 160h30l130 -160h-45l-100 124z" />
    <glyph glyph-name="Ycircumflex" unicode="&#x176;" horiz-adv-x="560" 
d="M300 235v-235h-40v235l-235 545h43l212 -495l212 495h43zM210 840h-45l100 110h30l100 -110h-45l-70 77z" />
    <glyph glyph-name="ycircumflex" unicode="&#x177;" horiz-adv-x="462" 
d="M240 65l169 465h42l-191 -512l-78 -218h-44l82 218l-191 512h42zM140 620h-45l130 160h30l130 -160h-45l-100 124z" />
    <glyph glyph-name="Ydieresis" unicode="&#x178;" horiz-adv-x="560" 
d="M300 235v-235h-40v235l-235 545h43l212 -495l212 495h43zM385 925v-60h-60v60h60zM235 925v-60h-60v60h60z" />
    <glyph glyph-name="Zacute" unicode="&#x179;" horiz-adv-x="550" 
d="M313 950h42l-62 -110h-42zM40 28l410 716l-120 -2h-280v38h450v-28l-410 -716l120 2h300v-38h-470v28z" />
    <glyph glyph-name="zacute" unicode="&#x17a;" horiz-adv-x="446" 
d="M290 780h42l-90 -160h-42zM38 28l311 465l-121 -1h-180v38h350v-28l-311 -465l121 1h200v-38h-370v28z" />
    <glyph glyph-name="Zdotaccent" unicode="&#x17b;" horiz-adv-x="550" 
d="M302 925v-60h-60v60h60zM40 28l410 716l-120 -2h-280v38h450v-28l-410 -716l120 2h300v-38h-470v28z" />
    <glyph glyph-name="zdotaccent" unicode="&#x17c;" horiz-adv-x="446" 
d="M251 735v-60h-60v60h60zM38 28l311 465l-121 -1h-180v38h350v-28l-311 -465l121 1h200v-38h-370v28z" />
    <glyph glyph-name="Zcaron" unicode="&#x17d;" horiz-adv-x="550" 
d="M157 950h45l70 -77l70 77h45l-100 -110h-30zM40 28l410 716l-120 -2h-280v38h450v-28l-410 -716l120 2h300v-38h-470v28z" />
    <glyph glyph-name="zcaron" unicode="&#x17e;" horiz-adv-x="446" 
d="M76 780h45l100 -124l100 124h45l-130 -160h-30zM38 28l311 465l-121 -1h-180v38h350v-28l-311 -465l121 1h200v-38h-370v28z" />
    <glyph glyph-name="Scommaaccent" unicode="&#x218;" horiz-adv-x="590" 
d="M287 385q-119 16 -173 68.5t-54 126.5v10q0 92 65 146t170 54q235 0 235 -245v-25h-40q0 122 -46 177t-146 55h-6q-82 0 -136 -41.5t-54 -110.5v-10q0 -72 46.5 -113t157.5 -56q123 -17 178.5 -69t55.5 -138v-10q0 -99 -67 -156.5t-178 -57.5q-117 0 -181 67t-64 183v10
h40q0 -109 55.5 -165.5t146.5 -56.5h6q90 0 145 45t55 126v10q0 78 -50.5 119.5t-160.5 56.5zM325 -60v-48q0 -47 -24.5 -74.5t-65.5 -27.5v30q25 0 41.5 15t18.5 45h-30v60h60z" />
    <glyph glyph-name="scommaaccent" unicode="&#x219;" horiz-adv-x="520" 
d="M260 28q73 0 113 30t40 82q0 61 -37 83t-131 30q-98 9 -136 44t-38 95v5q0 63 49.5 103t139.5 40q190 0 190 -176v-4h-40q0 70 -33.5 106t-116.5 36q-70 0 -108.5 -28t-38.5 -79t33.5 -76t128.5 -33q99 -7 139.5 -40.5t40.5 -103.5v-4q0 -65 -52 -106.5t-143 -41.5
q-53 0 -93 15.5t-61 40.5t-31 52.5t-10 57.5v4h40q0 -58 35 -95t120 -37zM290 -60v-48q0 -47 -24.5 -74.5t-65.5 -27.5v30q25 0 41.5 15t18.5 45h-30v60h60z" />
    <glyph glyph-name="Ymacron" unicode="&#x232;" horiz-adv-x="560" 
d="M300 235v-235h-40v235l-235 545h43l212 -495l212 495h43zM180 875v40h200v-40h-200z" />
    <glyph glyph-name="ymacron" unicode="&#x233;" horiz-adv-x="462" 
d="M240 65l169 465h42l-191 -512l-78 -218h-44l82 218l-191 512h42zM135 680v40h210v-40h-210z" />
    <glyph glyph-name="dotlessj" unicode="&#x237;" horiz-adv-x="200" 
d="M80 -60v590h40v-595q0 -75 -38 -110t-102 -35q-47 0 -70 10v37q20 -9 60 -9q58 0 84 23.5t26 88.5z" />
    <glyph glyph-name="circumflex" unicode="&#x2c6;" horiz-adv-x="500" 
d="M150 620h-45l130 160h30l130 -160h-45l-100 124z" />
    <glyph glyph-name="caron" unicode="&#x2c7;" horiz-adv-x="500" 
d="M105 780h45l100 -124l100 124h45l-130 -160h-30z" />
    <glyph glyph-name="breve" unicode="&#x2d8;" horiz-adv-x="500" 
d="M250 610q-76 0 -114 46t-38 124h36q0 -137 116 -137t116 137h36q0 -78 -38 -124t-114 -46z" />
    <glyph glyph-name="dotaccent" unicode="&#x2d9;" horiz-adv-x="500" 
d="M280 735v-60h-60v60h60z" />
    <glyph glyph-name="ring" unicode="&#x2da;" horiz-adv-x="500" 
d="M160 700q0 38 26 64t64 26t64 -26t26 -64t-26 -64t-64 -26t-64 26t-26 64zM192 700q0 -24 17 -41t41 -17t41 17t17 41t-17 41t-41 17t-41 -17t-17 -41z" />
    <glyph glyph-name="ogonek" unicode="&#x2db;" horiz-adv-x="602" 
d="M186 -117q0 -28 20 -44t54 -16q35 0 61 14l12 -28q-31 -19 -76 -19q-49 0 -76.5 23t-27.5 70q0 93 114 144l13 -27q-94 -43 -94 -117z" />
    <glyph glyph-name="tilde" unicode="&#x2dc;" horiz-adv-x="500" 
d="M355 737h35q0 -84 -70 -84q-31 0 -75 30t-63 30q-37 0 -37 -50h-35q0 84 70 84q31 0 75 -30t63 -30q37 0 37 50z" />
    <glyph glyph-name="hungarumlaut" unicode="&#x2dd;" horiz-adv-x="500" 
d="M374 780h42l-90 -160h-42zM264 780h42l-90 -160h-42z" />
    <glyph glyph-name="Bdotaccent" unicode="&#x1e02;" horiz-adv-x="570" 
d="M80 780h177q104 0 168.5 -48.5t64.5 -140.5v-20q0 -131 -130 -168q70 -16 110 -62t40 -121v-20q0 -96 -64.5 -148t-168.5 -52h-197v780zM282 382h-162v-344h162q82 0 134 41.5t52 122.5v16q0 81 -52 122.5t-134 41.5zM262 742h-142v-322h142q83 0 134.5 37.5t51.5 115.5
v16q0 78 -51.5 115.5t-134.5 37.5zM295 925v-60h-60v60h60z" />
    <glyph glyph-name="bdotaccent" unicode="&#x1e03;" horiz-adv-x="525" 
d="M110 800v-336q50 76 155 76q103 0 154 -74t51 -191v-20q0 -117 -51 -191t-154 -74q-110 0 -161 85l-9 -75h-30l5 150v650h40zM110 410v-290q58 -92 150 -92q83 0 125.5 60.5t42.5 166.5v20q0 106 -42.5 166.5t-125.5 60.5q-92 0 -150 -92zM120 925v-60h-60v60h60z" />
    <glyph glyph-name="Ddotaccent" unicode="&#x1e0a;" horiz-adv-x="630" 
d="M567 370q0 -370 -292 -370h-195v780h195q292 0 292 -370v-40zM120 38h150q123 0 189 78t66 254v40q0 176 -66 254t-189 78h-150v-704zM315 925v-60h-60v60h60z" />
    <glyph glyph-name="ddotaccent" unicode="&#x1e0b;" horiz-adv-x="525" 
d="M260 540q103 0 155 -76v336h40v-650l5 -150h-30l-10 75q-49 -85 -160 -85q-103 0 -154 74t-51 191v20q0 117 51 191t154 74zM415 410q-57 92 -150 92q-83 0 -125.5 -60.5t-42.5 -166.5v-20q0 -106 42.5 -166.5t125.5 -60.5q93 0 150 92v290zM465 925v-60h-60v60h60z" />
    <glyph glyph-name="Fdotaccent" unicode="&#x1e1e;" horiz-adv-x="500" 
d="M80 780h400v-38h-360v-325h310v-38h-310v-379h-40v780zM330 925v-60h-60v60h60z" />
    <glyph glyph-name="fdotaccent" unicode="&#x1e1f;" horiz-adv-x="370" 
d="M160 660v-130h160v-38h-160v-492h-40v492h-85v38h85v135q0 75 38 110t102 35q47 0 70 -10v-37q-20 9 -60 9q-58 0 -84 -23.5t-26 -88.5zM270 925v-60h-60v60h60z" />
    <glyph glyph-name="Mdotaccent" unicode="&#x1e40;" horiz-adv-x="780" 
d="M663 710l-258 -710h-30l-258 710l3 -180v-530h-40v780h52l258 -712l258 712h52v-780h-40v530zM420 925v-60h-60v60h60z" />
    <glyph glyph-name="mdotaccent" unicode="&#x1e41;" horiz-adv-x="785" 
d="M720 0h-40v385q0 66 -30 91.5t-85 25.5q-93 0 -150 -92v-410h-40v385q0 66 -30 91.5t-85 25.5q-57 0 -91 -26t-59 -66v-410h-40v380l-5 150h30l9 -75q53 85 166 85q109 0 136 -89q52 89 169 89q69 0 107 -38t38 -112v-390zM425 735v-60h-60v60h60z" />
    <glyph glyph-name="Pdotaccent" unicode="&#x1e56;" horiz-adv-x="560" 
d="M120 330v-330h-40v780h202q34 0 64.5 -6t61 -21t53 -38.5t36 -62t13.5 -87.5v-20q0 -49 -13.5 -87.5t-36 -62t-53 -38.5t-61 -21t-64.5 -6h-162zM120 368h162q25 0 48.5 4t49.5 16t44.5 31t31 52t12.5 76v16q0 43 -12.5 76t-31 52t-44.5 31t-49.5 16t-48.5 4h-162v-374z
M315 925v-60h-60v60h60z" />
    <glyph glyph-name="pdotaccent" unicode="&#x1e57;" horiz-adv-x="525" 
d="M265 -10q-106 0 -155 75v-265h-40v580l-5 150h30l9 -75q51 85 161 85q103 0 154 -74t51 -191v-20q0 -117 -51 -191t-154 -74zM110 410v-290q58 -92 150 -92q83 0 125.5 60.5t42.5 166.5v20q0 106 -42.5 166.5t-125.5 60.5q-92 0 -150 -92zM295 735v-60h-60v60h60z" />
    <glyph glyph-name="Tdotaccent" unicode="&#x1e6a;" horiz-adv-x="500" 
d="M270 742v-742h-40v742h-205v38h450v-38h-205zM280 925v-60h-60v60h60z" />
    <glyph glyph-name="tdotaccent" unicode="&#x1e6b;" horiz-adv-x="390" 
d="M160 530h180v-38h-180v-352q0 -65 26 -88.5t84 -23.5q40 0 60 9v-37q-23 -10 -70 -10q-64 0 -102 35t-38 110v357h-85v38h85v150h40v-150zM170 805v-60h-60v60h60z" />
    <glyph glyph-name="Wgrave" unicode="&#x1e80;" horiz-adv-x="880" 
d="M620 -10l-180 750l-180 -750h-60l-151 790h43l138 -748l180 748h60l180 -748l138 748h43l-151 -790h-60zM357 950h42l62 -110h-42z" />
    <glyph glyph-name="wgrave" unicode="&#x1e81;" horiz-adv-x="700" 
d="M350 481l-137 -481h-56l-122 530h41l110 -490l139 490h50l139 -490l110 490h41l-122 -530h-56zM239 780h42l90 -160h-42z" />
    <glyph glyph-name="Wacute" unicode="&#x1e82;" horiz-adv-x="880" 
d="M620 -10l-180 750l-180 -750h-60l-151 790h43l138 -748l180 748h60l180 -748l138 748h43l-151 -790h-60zM481 950h42l-62 -110h-42z" />
    <glyph glyph-name="wacute" unicode="&#x1e83;" horiz-adv-x="700" 
d="M350 481l-137 -481h-56l-122 530h41l110 -490l139 490h50l139 -490l110 490h41l-122 -530h-56zM419 780h42l-90 -160h-42z" />
    <glyph glyph-name="Wdieresis" unicode="&#x1e84;" horiz-adv-x="880" 
d="M620 -10l-180 750l-180 -750h-60l-151 790h43l138 -748l180 748h60l180 -748l138 748h43l-151 -790h-60zM545 925v-60h-60v60h60zM395 925v-60h-60v60h60z" />
    <glyph glyph-name="wdieresis" unicode="&#x1e85;" horiz-adv-x="700" 
d="M350 481l-137 -481h-56l-122 530h41l110 -490l139 490h50l139 -490l110 490h41l-122 -530h-56zM455 735v-60h-60v60h60zM305 735v-60h-60v60h60z" />
    <glyph glyph-name="Eszett" unicode="&#x1e9e;" horiz-adv-x="740" 
d="M307 434l168 294q-51 24 -130 24q-108 0 -169 -48.5t-61 -168.5v-535h-40v540q0 250 270 250q108 0 173 -40v-29l-163 -284l111 -14q117 -15 175.5 -69.5t58.5 -139.5v-10q0 -100 -61 -157t-164 -57q-111 0 -168 64t-57 186v10h40q0 -115 48.5 -168.5t133.5 -53.5h6
q82 0 131 45t49 126v10q0 151 -211 178l-140 18v29z" />
    <glyph glyph-name="Ygrave" unicode="&#x1ef2;" horiz-adv-x="560" 
d="M300 235v-235h-40v235l-235 545h43l212 -495l212 495h43zM197 950h42l62 -110h-42z" />
    <glyph glyph-name="ygrave" unicode="&#x1ef3;" horiz-adv-x="462" 
d="M240 65l169 465h42l-191 -512l-78 -218h-44l82 218l-191 512h42zM129 780h42l90 -160h-42z" />
    <glyph glyph-name="enspace" unicode="&#x2002;" horiz-adv-x="500" 
 />
    <glyph glyph-name="emspace" unicode="&#x2003;" horiz-adv-x="1000" 
 />
    <glyph glyph-name="threeperemspace" unicode="&#x2004;" horiz-adv-x="333" 
 />
    <glyph glyph-name="fourperemspace" unicode="&#x2005;" horiz-adv-x="250" 
 />
    <glyph glyph-name="sixperemspace" unicode="&#x2006;" horiz-adv-x="167" 
 />
    <glyph glyph-name="figurespace" unicode="&#x2007;" horiz-adv-x="600" 
 />
    <glyph glyph-name="punctuationspace" unicode="&#x2008;" horiz-adv-x="180" 
 />
    <glyph glyph-name="thinspace" unicode="&#x2009;" horiz-adv-x="150" 
 />
    <glyph glyph-name="hairspace" unicode="&#x200a;" horiz-adv-x="50" 
 />
    <glyph glyph-name="zerowidthspace" unicode="&#x200b;" horiz-adv-x="0" 
 />
    <glyph glyph-name="figuredash" unicode="&#x2012;" horiz-adv-x="600" 
d="M40 331v38h520v-38h-520z" />
    <glyph glyph-name="endash" unicode="&#x2013;" horiz-adv-x="500" 
d="M40 331v38h420v-38h-420z" />
    <glyph glyph-name="emdash" unicode="&#x2014;" horiz-adv-x="1000" 
d="M40 331v38h920v-38h-920z" />
    <glyph glyph-name="uni2015" unicode="&#x2015;" horiz-adv-x="1200" 
d="M40 331v38h1120v-38h-1120z" />
    <glyph glyph-name="doublebar" unicode="&#x2016;" horiz-adv-x="280" 
d="M70 -120v960h40v-960h-40zM170 -120v960h40v-960h-40z" />
    <glyph glyph-name="quoteleft" unicode="&#x2018;" horiz-adv-x="200" 
d="M40 620v48q0 122 90 122v-30q-30 0 -44.5 -17.5t-15.5 -62.5h30v-60h-60z" />
    <glyph glyph-name="quoteright" unicode="&#x2019;" horiz-adv-x="200" 
d="M130 780v-48q0 -122 -90 -122v30q30 0 44.5 17.5t15.5 62.5h-30v60h60z" />
    <glyph glyph-name="quotesinglbase" unicode="&#x201a;" horiz-adv-x="200" 
d="M130 60v-48q0 -122 -90 -122v30q30 0 44.5 17.5t15.5 62.5h-30v60h60z" />
    <glyph glyph-name="reversequoteleft" unicode="&#x201b;" horiz-adv-x="200" 
d="M40 780h60v-60h-30q1 -45 15.5 -62.5t44.5 -17.5v-30q-90 0 -90 122v48z" />
    <glyph glyph-name="quotedblleft" unicode="&#x201c;" horiz-adv-x="320" 
d="M40 620v48q0 122 90 122v-30q-30 0 -44.5 -17.5t-15.5 -62.5h30v-60h-60zM160 620v48q0 122 90 122v-30q-30 0 -44.5 -17.5t-15.5 -62.5h30v-60h-60z" />
    <glyph glyph-name="quotedblright" unicode="&#x201d;" horiz-adv-x="320" 
d="M250 780v-48q0 -122 -90 -122v30q30 0 44.5 17.5t15.5 62.5h-30v60h60zM130 780v-48q0 -122 -90 -122v30q30 0 44.5 17.5t15.5 62.5h-30v60h60z" />
    <glyph glyph-name="quotedblbase" unicode="&#x201e;" horiz-adv-x="320" 
d="M250 60v-48q0 -122 -90 -122v30q30 0 44.5 17.5t15.5 62.5h-30v60h60zM130 60v-48q0 -122 -90 -122v30q30 0 44.5 17.5t15.5 62.5h-30v60h60z" />
    <glyph glyph-name="reversequotedblleft" unicode="&#x201f;" horiz-adv-x="320" 
d="M160 780h60v-60h-30q1 -45 15.5 -62.5t44.5 -17.5v-30q-90 0 -90 122v48zM40 780h60v-60h-30q1 -45 15.5 -62.5t44.5 -17.5v-30q-90 0 -90 122v48z" />
    <glyph glyph-name="dagger" unicode="&#x2020;" horiz-adv-x="380" 
d="M170 465l5 125h30l5 -125l-5 -125h-30zM170 800h40l-5 -150h-30zM360 640v-40l-140 5v30zM20 600v40l140 -5v-30z" />
    <glyph glyph-name="daggerdbl" unicode="&#x2021;" horiz-adv-x="380" 
d="M170 255l5 125h30l5 -125l-5 -125h-30zM170 800h40l-5 -150h-30zM360 640v-40l-140 5v30zM20 600v40l140 -5v-30zM360 430v-40l-140 5v30zM20 390v40l140 -5v-30zM170 515h40l-5 -75h-30zM210 515h-40l5 75h30z" />
    <glyph glyph-name="bullet" unicode="&#x2022;" horiz-adv-x="380" 
d="M310 470v-240h-240v240h240z" />
    <glyph glyph-name="ellipsis" unicode="&#x2026;" horiz-adv-x="1000" 
d="M210 60v-60h-60v60h60zM850 60v-60h-60v60h60zM530 60v-60h-60v60h60z" />
    <glyph glyph-name="perthousand" unicode="&#x2030;" horiz-adv-x="1280" 
d="M538 165q0 79 45.5 122t114.5 43t114.5 -43t45.5 -122v-10q0 -79 -45.5 -122t-114.5 -43t-114.5 43t-45.5 122v10zM918 165q0 79 45.5 122t114.5 43t114.5 -43t45.5 -122v-10q0 -79 -45.5 -122t-114.5 -43t-114.5 43t-45.5 122v10zM576 151q0 -58 34 -90.5t85 -32.5h6
q51 0 85 32.5t34 90.5v18q0 58 -34 90.5t-85 32.5h-6q-51 0 -85 -32.5t-34 -90.5v-18zM956 151q0 -58 34 -90.5t85 -32.5h6q51 0 85 32.5t34 90.5v18q0 58 -34 90.5t-85 32.5h-6q-51 0 -85 -32.5t-34 -90.5v-18zM324 629q0 58 -34 90.5t-85 32.5h-6q-51 0 -85 -32.5
t-34 -90.5v-18q0 -58 34 -90.5t85 -32.5h6q51 0 85 32.5t34 90.5v18zM309 0h-42l302 728q-57 -18 -129 -18q-54 0 -103 11q25 -39 25 -96v-10q0 -79 -45.5 -122t-114.5 -43t-114.5 43t-45.5 122v10q0 79 45.5 122t114.5 43q34 0 61 -10q93 -32 177 -32q44 0 100 11t77 21
v-37z" />
    <glyph glyph-name="tripleprime" unicode="&#x2034;" horiz-adv-x="400" 
d="M77 780h46l-11 -250h-24zM277 780h46l-11 -250h-24zM177 780h46l-11 -250h-24z" />
    <glyph glyph-name="guilsinglleft" unicode="&#x2039;" 
d="M250 510v-45l-163 -125l163 -125v-45l-200 155v30z" />
    <glyph glyph-name="guilsinglright" unicode="&#x203a;" 
d="M50 465v45l200 -155v-30l-200 -155v45l163 125z" />
    <glyph glyph-name="interrobang" unicode="&#x203d;" horiz-adv-x="440" 
d="M408 580q0 -55 -17.5 -98t-43 -72.5t-51 -59.5t-44.5 -74.5t-20 -100.5h-24l-11 575q-72 -9 -100.5 -72.5t-28.5 -177.5h-40v10q0 62 8.5 109t29 87.5t60.5 62t97 21.5q185 0 185 -210zM366 575q0 83 -28 127t-96 49l-8 -449q13 33 38 69.5t44.5 61.5t34.5 63t15 79z
M250 60v-60h-60v60h60z" />
    <glyph glyph-name="fraction" unicode="&#x2044;" horiz-adv-x="200" 
d="M-166 0h-44l576 780h44z" />
    <glyph glyph-name="uni2070" unicode="&#x2070;" 
d="M31 668q0 53 29 85t90 32t90 -32t29 -85v-166q0 -54 -29 -86t-90 -32t-90 32t-29 86v166zM233 664q0 89 -82 89h-3q-82 0 -82 -89v-158q0 -90 82 -90h3q82 0 82 90v158z" />
    <glyph glyph-name="uni2074" unicode="&#x2074;" 
d="M219 390h-36v103h-167v24l168 263h35v-254h64v-33h-64v-103zM184 719l-124 -194l43 1h80v142z" />
    <glyph glyph-name="uni2075" unicode="&#x2075;" 
d="M25 515h36q0 -99 86 -99h5q37 0 62 23t25 67v9q0 45 -25.5 67.5t-62.5 22.5h-4q-28 0 -53 -14t-36 -39l-30 9l10 219h231v-33h-197l-6 -139q34 29 85 29q54 0 88.5 -32.5t34.5 -90.5v-6q0 -59 -34.5 -91.5t-89.5 -32.5q-62 0 -93.5 33t-31.5 92v6z" />
    <glyph glyph-name="uni2076" unicode="&#x2076;" 
d="M258 785v-32q-95 0 -147 -69q-29 -38 -40 -85q36 36 88 36q53 0 85 -31.5t32 -91.5v-5q0 -60 -33.5 -91.5t-90.5 -31.5q-55 0 -90 36.5t-35 100.5v6q0 104 55 178q59 80 176 80zM153 603q-62 0 -90 -55v-28q0 -47 25 -75.5t62 -28.5h3q40 0 64 24t24 66v8q0 42 -23 65.5
t-62 23.5h-3z" />
    <glyph glyph-name="uni2077" unicode="&#x2077;" 
d="M29 640v140h246v-22l-150 -368h-38l146 358l-55 -1h-117v-107h-32z" />
    <glyph glyph-name="uni2078" unicode="&#x2078;" 
d="M150 384q-55 0 -90 29t-35 76v8q0 69 63 91q-60 22 -60 88v7q0 47 32 74.5t90 27.5t90 -27.5t32 -74.5v-7q0 -66 -61 -88q63 -22 63 -91v-8q0 -46 -34.5 -75.5t-89.5 -29.5zM143 573q-36 0 -59 -20t-23 -56v-7q0 -36 25 -55t61 -19h5q37 0 62 19t25 55v7q0 36 -23 56
t-59 20h-14zM152 753h-5q-38 0 -61 -20t-23 -54v-4q0 -34 23 -52t59 -18h10q36 0 58.5 18t22.5 52v4q0 34 -23 54t-61 20z" />
    <glyph glyph-name="uni2079" unicode="&#x2079;" 
d="M41 384v32q94 0 148 69q27 35 39 86q-34 -36 -88 -36q-52 0 -84.5 31.5t-32.5 90.5v5q0 60 33.5 91.5t91.5 31.5q55 0 89.5 -36t34.5 -101v-5q0 -106 -55 -179q-60 -80 -176 -80zM147 567q60 0 89 54q1 8 1 24v5q0 47 -25 75t-63 28h-3q-40 0 -63.5 -23.5t-23.5 -65.5v-9
q0 -42 23 -65t62 -23h3z" />
    <glyph glyph-name="uni207A" unicode="&#x207a;" 
d="M133 711h33v-110h110v-33h-110v-109h-33v109h-109v33h109v110z" />
    <glyph glyph-name="uni207B" unicode="&#x207b;" 
d="M24 568v33h252v-33h-252z" />
    <glyph glyph-name="uni207C" unicode="&#x207c;" 
d="M24 619v33h252v-33h-252zM24 517v33h252v-33h-252z" />
    <glyph glyph-name="uni207D" unicode="&#x207d;" horiz-adv-x="158" 
d="M30 580v10q0 105 61 190h37q-63 -94 -63 -190v-10q0 -98 63 -190h-37q-61 84 -61 190z" />
    <glyph glyph-name="uni207E" unicode="&#x207e;" horiz-adv-x="158" 
d="M128 590v-10q0 -106 -61 -190h-37q63 92 63 190v10q0 96 -63 190h37q61 -85 61 -190z" />
    <glyph glyph-name="uni2080" unicode="&#x2080;" 
d="M31 278q0 53 29 85t90 32t90 -32t29 -85v-166q0 -54 -29 -86t-90 -32t-90 32t-29 86v166zM233 274q0 89 -82 89h-3q-82 0 -82 -89v-158q0 -90 82 -90h3q82 0 82 90v158z" />
    <glyph glyph-name="uni2081" unicode="&#x2081;" 
d="M274 0h-239v32h102v311l-92 -62l-18 28l123 83h23v-360h101v-32z" />
    <glyph glyph-name="uni2082" unicode="&#x2082;" 
d="M272 32v-32h-244v22l168 179q40 41 40 80v5q0 36 -23 56.5t-62 20.5h-3q-85 0 -85 -103h-35v12q0 123 122 123q58 0 90 -28.5t32 -75.5v-6q0 -30 -10 -51t-36 -49l-144 -153h190z" />
    <glyph glyph-name="uni2083" unicode="&#x2083;" 
d="M61 125q0 -99 86 -99h5q36 0 61.5 19.5t25.5 55.5v7q0 36 -23 55.5t-59 19.5h-57v32h55q36 0 58.5 17.5t22.5 51.5v4q0 34 -23 54.5t-61 20.5h-5q-43 0 -63.5 -24.5t-20.5 -78.5h-35v12q0 123 122 123q58 0 90 -28t32 -75v-7q0 -65 -61 -87q63 -22 63 -90v-8
q0 -47 -34.5 -76.5t-89.5 -29.5q-62 0 -93.5 33t-31.5 92v6h36z" />
    <glyph glyph-name="uni2084" unicode="&#x2084;" 
d="M219 0h-36v103h-167v24l168 263h35v-254h64v-33h-64v-103zM184 329l-124 -194l43 1h80v142z" />
    <glyph glyph-name="uni2085" unicode="&#x2085;" 
d="M25 125h36q0 -99 86 -99h5q37 0 62 23t25 67v9q0 45 -25.5 67.5t-62.5 22.5h-4q-28 0 -53 -14t-36 -39l-30 9l10 219h231v-33h-197l-6 -139q34 29 85 29q54 0 88.5 -32.5t34.5 -90.5v-6q0 -59 -34.5 -91.5t-89.5 -32.5q-62 0 -93.5 33t-31.5 92v6z" />
    <glyph glyph-name="uni2086" unicode="&#x2086;" 
d="M258 395v-32q-95 0 -147 -69q-29 -38 -40 -85q36 36 88 36q53 0 85 -31.5t32 -91.5v-5q0 -60 -33.5 -91.5t-90.5 -31.5q-55 0 -90 36.5t-35 100.5v6q0 104 55 178q59 80 176 80zM153 213q-62 0 -90 -55v-28q0 -47 25 -75.5t62 -28.5h3q40 0 64 24t24 66v8q0 42 -23 65.5
t-62 23.5h-3z" />
    <glyph glyph-name="uni2087" unicode="&#x2087;" 
d="M29 250v140h246v-22l-150 -368h-38l146 358l-55 -1h-117v-107h-32z" />
    <glyph glyph-name="uni2088" unicode="&#x2088;" 
d="M150 -6q-55 0 -90 29t-35 76v8q0 69 63 91q-60 22 -60 88v7q0 47 32 74.5t90 27.5t90 -27.5t32 -74.5v-7q0 -66 -61 -88q63 -22 63 -91v-8q0 -46 -34.5 -75.5t-89.5 -29.5zM143 183q-36 0 -59 -20t-23 -56v-7q0 -36 25 -55t61 -19h5q37 0 62 19t25 55v7q0 36 -23 56
t-59 20h-14zM152 363h-5q-38 0 -61 -20t-23 -54v-4q0 -34 23 -52t59 -18h10q36 0 58.5 18t22.5 52v4q0 34 -23 54t-61 20z" />
    <glyph glyph-name="uni2089" unicode="&#x2089;" 
d="M41 -6v32q94 0 148 69q27 35 39 86q-34 -36 -88 -36q-52 0 -84.5 31.5t-32.5 90.5v5q0 60 33.5 91.5t91.5 31.5q55 0 89.5 -36t34.5 -101v-5q0 -106 -55 -179q-60 -80 -176 -80zM147 177q60 0 89 54q1 8 1 24v5q0 47 -25 75t-63 28h-3q-40 0 -63.5 -23.5t-23.5 -65.5v-9
q0 -42 23 -65t62 -23h3z" />
    <glyph glyph-name="uni208A" unicode="&#x208a;" 
d="M133 321h33v-110h110v-33h-110v-109h-33v109h-109v33h109v110z" />
    <glyph glyph-name="uni208B" unicode="&#x208b;" 
d="M24 178v33h252v-33h-252z" />
    <glyph glyph-name="uni208C" unicode="&#x208c;" 
d="M24 229v33h252v-33h-252zM24 127v33h252v-33h-252z" />
    <glyph glyph-name="uni208D" unicode="&#x208d;" horiz-adv-x="158" 
d="M30 190v10q0 105 61 190h37q-63 -94 -63 -190v-10q0 -98 63 -190h-37q-61 84 -61 190z" />
    <glyph glyph-name="uni208E" unicode="&#x208e;" horiz-adv-x="158" 
d="M128 200v-10q0 -106 -61 -190h-37q63 92 63 190v10q0 96 -63 190h37q61 -85 61 -190z" />
    <glyph glyph-name="Euro" unicode="&#x20ac;" horiz-adv-x="600" 
d="M35 440v40h77q10 161 67.5 235.5t165.5 74.5q109 0 157 -66.5t48 -198.5v-25h-40q0 135 -37 193.5t-123 58.5h-6q-173 0 -191 -272h287l-19 -40h-270v-100h239l-19 -40h-218q18 -272 191 -272h6q79 0 119.5 56.5t40.5 165.5h40v-10q0 -250 -205 -250q-108 0 -165.5 74.5
t-67.5 235.5h-77v40h75v100h-75z" />
    <glyph glyph-name="ruble" unicode="&#x20bd;" horiz-adv-x="600" 
d="M160 330v-102h215v-38h-215v-190h-40v190h-95v38h95v102h-95v38h95v412h202q34 0 64.5 -6t61 -21t53 -38.5t36 -62t13.5 -87.5v-20q0 -49 -13.5 -87.5t-36 -62t-53 -38.5t-61 -21t-64.5 -6h-162zM160 368h162q25 0 48.5 4t49.5 16t44.5 31t31 52t12.5 76v16
q0 43 -12.5 76t-31 52t-44.5 31t-49.5 16t-48.5 4h-162v-374z" />
    <glyph glyph-name="numero" unicode="&#x2116;" horiz-adv-x="1060" 
d="M1017 577q0 -87 -40.5 -142t-121.5 -55t-121.5 55t-40.5 142v16q0 87 40.5 142t121.5 55t121.5 -55t40.5 -142v-16zM570 780v-780h-45l-410 720l3 -190v-530h-38v780h45l410 -720l-3 190v530h38zM732 577q0 -76 30.5 -119t92.5 -43t92.5 43t30.5 119v16q0 76 -30.5 119
t-92.5 43t-92.5 -43t-30.5 -119v-16zM700 223v35h310v-35h-310z" />
    <glyph glyph-name="published" unicode="&#x2117;" horiz-adv-x="920" 
d="M60 390q0 166 117 283t283 117t283 -117t117 -283t-117 -283t-283 -117t-283 117t-117 283zM98 390q0 -150 106 -256t256 -106t256 106t106 256t-106 256t-256 106t-256 -106t-106 -256zM351 355v-200h-40v470h160q60 0 101 -29t41 -100v-12q0 -71 -41 -100t-101 -29
h-120zM351 391h120q102 0 102 95v8q0 95 -102 95h-120v-198z" />
    <glyph glyph-name="servicemark" unicode="&#x2120;" horiz-adv-x="510" 
d="M100 653q-42 6 -59.5 23.5t-17.5 48.5v4q0 35 22.5 55t62.5 20q46 0 64.5 -21.5t18.5 -67.5v-8h-34q0 35 -10.5 50t-37.5 15h-2q-50 0 -50 -40v-3q0 -21 12 -31.5t45 -14.5q43 -6 61.5 -24t18.5 -51v-4q0 -38 -22 -60t-64 -22q-88 0 -88 94v4h34q0 -66 53 -66h2
q51 0 51 47v2q0 22 -13.5 34t-46.5 16zM423 750l-60 -220h-40l-60 220l2 -70v-150h-34v270h52l60 -218l60 218h52v-270h-34v150z" />
    <glyph glyph-name="trademark" unicode="&#x2122;" horiz-adv-x="510" 
d="M125 768v-238h-34v238h-71v32h176v-32h-71zM423 750l-60 -220h-40l-60 220l2 -70v-150h-34v270h52l60 -218l60 218h52v-270h-34v150z" />
    <glyph glyph-name="uni2153" unicode="&#x2153;" horiz-adv-x="800" 
d="M134 0h-44l576 780h44zM561 125q0 -99 86 -99h5q36 0 61.5 19.5t25.5 55.5v7q0 36 -23 55.5t-59 19.5h-57v32h55q36 0 58.5 17.5t22.5 51.5v4q0 34 -23 54.5t-61 20.5h-5q-43 0 -63.5 -24.5t-20.5 -78.5h-35v12q0 123 122 123q58 0 90 -28t32 -75v-7q0 -65 -61 -87
q63 -22 63 -90v-8q0 -47 -34.5 -76.5t-89.5 -29.5q-62 0 -93.5 33t-31.5 92v6h36zM274 390h-239v32h102v311l-92 -62l-18 28l123 83h23v-360h101v-32z" />
    <glyph glyph-name="uni2154" unicode="&#x2154;" horiz-adv-x="800" 
d="M134 0h-44l576 780h44zM561 125q0 -99 86 -99h5q36 0 61.5 19.5t25.5 55.5v7q0 36 -23 55.5t-59 19.5h-57v32h55q36 0 58.5 17.5t22.5 51.5v4q0 34 -23 54.5t-61 20.5h-5q-43 0 -63.5 -24.5t-20.5 -78.5h-35v12q0 123 122 123q58 0 90 -28t32 -75v-7q0 -65 -61 -87
q63 -22 63 -90v-8q0 -47 -34.5 -76.5t-89.5 -29.5q-62 0 -93.5 33t-31.5 92v6h36zM272 422v-32h-244v22l168 179q40 41 40 80v5q0 36 -23 56.5t-62 20.5h-3q-85 0 -85 -103h-35v12q0 123 122 123q58 0 90 -28.5t32 -75.5v-6q0 -30 -10 -51t-36 -49l-144 -153h190z" />
    <glyph glyph-name="uni2155" unicode="&#x2155;" horiz-adv-x="800" 
d="M525 125h36q0 -99 86 -99h5q37 0 62 23t25 67v9q0 45 -25.5 67.5t-62.5 22.5h-4q-28 0 -53 -14t-36 -39l-30 9l10 219h231v-33h-197l-6 -139q34 29 85 29q54 0 88.5 -32.5t34.5 -90.5v-6q0 -59 -34.5 -91.5t-89.5 -32.5q-62 0 -93.5 33t-31.5 92v6zM134 0h-44l576 780h44
zM274 390h-239v32h102v311l-92 -62l-18 28l123 83h23v-360h101v-32z" />
    <glyph glyph-name="uni2156" unicode="&#x2156;" horiz-adv-x="800" 
d="M525 125h36q0 -99 86 -99h5q37 0 62 23t25 67v9q0 45 -25.5 67.5t-62.5 22.5h-4q-28 0 -53 -14t-36 -39l-30 9l10 219h231v-33h-197l-6 -139q34 29 85 29q54 0 88.5 -32.5t34.5 -90.5v-6q0 -59 -34.5 -91.5t-89.5 -32.5q-62 0 -93.5 33t-31.5 92v6zM134 0h-44l576 780h44
zM272 422v-32h-244v22l168 179q40 41 40 80v5q0 36 -23 56.5t-62 20.5h-3q-85 0 -85 -103h-35v12q0 123 122 123q58 0 90 -28.5t32 -75.5v-6q0 -30 -10 -51t-36 -49l-144 -153h190z" />
    <glyph glyph-name="uni2157" unicode="&#x2157;" horiz-adv-x="800" 
d="M525 125h36q0 -99 86 -99h5q37 0 62 23t25 67v9q0 45 -25.5 67.5t-62.5 22.5h-4q-28 0 -53 -14t-36 -39l-30 9l10 219h231v-33h-197l-6 -139q34 29 85 29q54 0 88.5 -32.5t34.5 -90.5v-6q0 -59 -34.5 -91.5t-89.5 -32.5q-62 0 -93.5 33t-31.5 92v6zM134 0h-44l576 780h44
zM61 515q0 -99 86 -99h5q36 0 61.5 19.5t25.5 55.5v7q0 36 -23 55.5t-59 19.5h-57v32h55q36 0 58.5 17.5t22.5 51.5v4q0 34 -23 54.5t-61 20.5h-5q-43 0 -63.5 -24.5t-20.5 -78.5h-35v12q0 123 122 123q58 0 90 -28t32 -75v-7q0 -65 -61 -87q63 -22 63 -90v-8
q0 -47 -34.5 -76.5t-89.5 -29.5q-62 0 -93.5 33t-31.5 92v6h36z" />
    <glyph glyph-name="uni2158" unicode="&#x2158;" horiz-adv-x="800" 
d="M219 390h-36v103h-167v24l168 263h35v-254h64v-33h-64v-103zM525 125h36q0 -99 86 -99h5q37 0 62 23t25 67v9q0 45 -25.5 67.5t-62.5 22.5h-4q-28 0 -53 -14t-36 -39l-30 9l10 219h231v-33h-197l-6 -139q34 29 85 29q54 0 88.5 -32.5t34.5 -90.5v-6q0 -59 -34.5 -91.5
t-89.5 -32.5q-62 0 -93.5 33t-31.5 92v6zM134 0h-44l576 780h44zM184 719l-124 -194l43 1h80v142z" />
    <glyph glyph-name="uni2159" unicode="&#x2159;" horiz-adv-x="800" 
d="M758 395v-32q-95 0 -147 -69q-29 -38 -40 -85q36 36 88 36q53 0 85 -31.5t32 -91.5v-5q0 -60 -33.5 -91.5t-90.5 -31.5q-55 0 -90 36.5t-35 100.5v6q0 104 55 178q59 80 176 80zM134 0h-44l576 780h44zM653 213q-62 0 -90 -55v-28q0 -47 25 -75.5t62 -28.5h3q40 0 64 24
t24 66v8q0 42 -23 65.5t-62 23.5h-3zM274 390h-239v32h102v311l-92 -62l-18 28l123 83h23v-360h101v-32z" />
    <glyph glyph-name="uni215A" unicode="&#x215a;" horiz-adv-x="800" 
d="M758 395v-32q-95 0 -147 -69q-29 -38 -40 -85q36 36 88 36q53 0 85 -31.5t32 -91.5v-5q0 -60 -33.5 -91.5t-90.5 -31.5q-55 0 -90 36.5t-35 100.5v6q0 104 55 178q59 80 176 80zM25 515h36q0 -99 86 -99h5q37 0 62 23t25 67v9q0 45 -25.5 67.5t-62.5 22.5h-4
q-28 0 -53 -14t-36 -39l-30 9l10 219h231v-33h-197l-6 -139q34 29 85 29q54 0 88.5 -32.5t34.5 -90.5v-6q0 -59 -34.5 -91.5t-89.5 -32.5q-62 0 -93.5 33t-31.5 92v6zM134 0h-44l576 780h44zM653 213q-62 0 -90 -55v-28q0 -47 25 -75.5t62 -28.5h3q40 0 64 24t24 66v8
q0 42 -23 65.5t-62 23.5h-3z" />
    <glyph glyph-name="uni215B" unicode="&#x215b;" horiz-adv-x="800" 
d="M650 -6q-55 0 -90 29t-35 76v8q0 69 63 91q-60 22 -60 88v7q0 47 32 74.5t90 27.5t90 -27.5t32 -74.5v-7q0 -66 -61 -88q63 -22 63 -91v-8q0 -46 -34.5 -75.5t-89.5 -29.5zM134 0h-44l576 780h44zM274 390h-239v32h102v311l-92 -62l-18 28l123 83h23v-360h101v-32z
M643 183q-36 0 -59 -20t-23 -56v-7q0 -36 25 -55t61 -19h5q37 0 62 19t25 55v7q0 36 -23 56t-59 20h-14zM652 363h-5q-38 0 -61 -20t-23 -54v-4q0 -34 23 -52t59 -18h10q36 0 58.5 18t22.5 52v4q0 34 -23 54t-61 20z" />
    <glyph glyph-name="uni215C" unicode="&#x215c;" horiz-adv-x="800" 
d="M650 -6q-55 0 -90 29t-35 76v8q0 69 63 91q-60 22 -60 88v7q0 47 32 74.5t90 27.5t90 -27.5t32 -74.5v-7q0 -66 -61 -88q63 -22 63 -91v-8q0 -46 -34.5 -75.5t-89.5 -29.5zM134 0h-44l576 780h44zM61 515q0 -99 86 -99h5q36 0 61.5 19.5t25.5 55.5v7q0 36 -23 55.5
t-59 19.5h-57v32h55q36 0 58.5 17.5t22.5 51.5v4q0 34 -23 54.5t-61 20.5h-5q-43 0 -63.5 -24.5t-20.5 -78.5h-35v12q0 123 122 123q58 0 90 -28t32 -75v-7q0 -65 -61 -87q63 -22 63 -90v-8q0 -47 -34.5 -76.5t-89.5 -29.5q-62 0 -93.5 33t-31.5 92v6h36zM643 183
q-36 0 -59 -20t-23 -56v-7q0 -36 25 -55t61 -19h5q37 0 62 19t25 55v7q0 36 -23 56t-59 20h-14zM652 363h-5q-38 0 -61 -20t-23 -54v-4q0 -34 23 -52t59 -18h10q36 0 58.5 18t22.5 52v4q0 34 -23 54t-61 20z" />
    <glyph glyph-name="uni215D" unicode="&#x215d;" horiz-adv-x="800" 
d="M650 -6q-55 0 -90 29t-35 76v8q0 69 63 91q-60 22 -60 88v7q0 47 32 74.5t90 27.5t90 -27.5t32 -74.5v-7q0 -66 -61 -88q63 -22 63 -91v-8q0 -46 -34.5 -75.5t-89.5 -29.5zM25 515h36q0 -99 86 -99h5q37 0 62 23t25 67v9q0 45 -25.5 67.5t-62.5 22.5h-4q-28 0 -53 -14
t-36 -39l-30 9l10 219h231v-33h-197l-6 -139q34 29 85 29q54 0 88.5 -32.5t34.5 -90.5v-6q0 -59 -34.5 -91.5t-89.5 -32.5q-62 0 -93.5 33t-31.5 92v6zM134 0h-44l576 780h44zM643 183q-36 0 -59 -20t-23 -56v-7q0 -36 25 -55t61 -19h5q37 0 62 19t25 55v7q0 36 -23 56
t-59 20h-14zM652 363h-5q-38 0 -61 -20t-23 -54v-4q0 -34 23 -52t59 -18h10q36 0 58.5 18t22.5 52v4q0 34 -23 54t-61 20z" />
    <glyph glyph-name="uni215E" unicode="&#x215e;" horiz-adv-x="800" 
d="M650 -6q-55 0 -90 29t-35 76v8q0 69 63 91q-60 22 -60 88v7q0 47 32 74.5t90 27.5t90 -27.5t32 -74.5v-7q0 -66 -61 -88q63 -22 63 -91v-8q0 -46 -34.5 -75.5t-89.5 -29.5zM134 0h-44l576 780h44zM29 640v140h246v-22l-150 -368h-38l146 358l-55 -1h-117v-107h-32z
M643 183q-36 0 -59 -20t-23 -56v-7q0 -36 25 -55t61 -19h5q37 0 62 19t25 55v7q0 36 -23 56t-59 20h-14zM652 363h-5q-38 0 -61 -20t-23 -54v-4q0 -34 23 -52t59 -18h10q36 0 58.5 18t22.5 52v4q0 34 -23 54t-61 20z" />
    <glyph glyph-name="uni215F" unicode="&#x215f;" horiz-adv-x="500" 
d="M134 0h-44l576 780h44zM274 390h-239v32h102v311l-92 -62l-18 28l123 83h23v-360h101v-32z" />
    <glyph glyph-name="arrowleft" unicode="&#x2190;" horiz-adv-x="920" 
d="M450 780h56l-370 -370h714v-40h-714l370 -370h-56l-390 390z" />
    <glyph glyph-name="arrowup" unicode="&#x2191;" horiz-adv-x="920" 
d="M70 344v56l390 390l390 -390v-56l-370 370v-714h-40v714z" />
    <glyph glyph-name="arrowright" unicode="&#x2192;" horiz-adv-x="920" 
d="M414 780h56l390 -390l-390 -390h-56l370 370h-714v40h714z" />
    <glyph glyph-name="arrowdown" unicode="&#x2193;" horiz-adv-x="920" 
d="M70 380v56l370 -370v714h40v-714l370 370v-56l-390 -390z" />
    <glyph glyph-name="uni2196" unicode="&#x2196;" horiz-adv-x="920" 
d="M110 0h-40v780h780v-40h-712l722 -722l-28 -28l-722 722v-712z" />
    <glyph glyph-name="uni2197" unicode="&#x2197;" horiz-adv-x="920" 
d="M850 0h-40v712l-722 -722l-28 28l722 722h-712v40h780v-780z" />
    <glyph glyph-name="uni2198" unicode="&#x2198;" horiz-adv-x="920" 
d="M70 0v40h712l-722 722l28 28l722 -722v712h40v-780h-780z" />
    <glyph glyph-name="uni2199" unicode="&#x2199;" horiz-adv-x="920" 
d="M850 40v-40h-780v780h40v-712l722 722l28 -28l-722 -722h712z" />
    <glyph glyph-name="minus" unicode="&#x2212;" horiz-adv-x="600" 
d="M50 370v40h500v-40h-500z" />
    <glyph glyph-name="approxequal" unicode="&#x2248;" horiz-adv-x="600" 
d="M174 340q56 0 133 -36.5t123 -36.5q55 0 102 59l28 -28q-56 -69 -134 -69q-56 0 -133 36.5t-123 36.5q-55 0 -102 -59l-28 28q56 69 134 69zM174 540q56 0 133 -36.5t123 -36.5q55 0 102 59l28 -28q-56 -69 -134 -69q-56 0 -133 36.5t-123 36.5q-55 0 -102 -59l-28 28
q56 69 134 69z" />
    <glyph glyph-name="notequal" unicode="&#x2260;" horiz-adv-x="600" 
d="M50 470v40h297l76 130h43l-75 -130h159v-40h-182l-93 -160h275v-40h-298l-75 -130h-43l75 130h-159v40h182l92 160h-274z" />
    <glyph glyph-name="equivalence" unicode="&#x2261;" horiz-adv-x="600" 
d="M50 570v40h500v-40h-500zM50 170v40h500v-40h-500zM50 370v40h500v-40h-500z" />
    <glyph glyph-name="lessequal" unicode="&#x2264;" horiz-adv-x="600" 
d="M550 614l-445 -157l445 -157v-42l-500 179v40l500 179v-42zM550 166v-42l-500 179v42z" />
    <glyph glyph-name="greaterequal" unicode="&#x2265;" horiz-adv-x="600" 
d="M50 300l444 157l-444 157v42l500 -179v-40l-500 -179v42zM50 124v42l500 179v-42z" />
    <glyph glyph-name="squaremultiply" unicode="&#x22a0;" horiz-adv-x="920" 
d="M850 0h-780v780h780v-780zM812 742h-704v-704h704v704zM227 128l-29 29l233 233l-233 233l29 29l233 -233l233 233l29 -29l-233 -233l233 -233l-29 -29l-233 233z" />
    <glyph glyph-name="house" unicode="&#x2302;" horiz-adv-x="850" 
d="M780 0h-710v450l355 340l355 -340v-450z" />
    <glyph glyph-name="blacksquare" unicode="&#x25a0;" horiz-adv-x="920" 
d="M850 0h-780v780h780v-780z" />
    <glyph glyph-name="blacksquare" unicode="&#xe740;" horiz-adv-x="920" 
d="M850 0h-780v780h780v-780z" />
    <glyph glyph-name="whitesquare" unicode="&#x25a1;" horiz-adv-x="920" 
d="M850 0h-780v780h780v-780zM812 742h-704v-704h704v704z" />
    <glyph glyph-name="blacksmallsquare" unicode="&#x25aa;" horiz-adv-x="680" 
d="M600 0h-530v530h530v-530z" />
    <glyph glyph-name="whitesmallsquare" unicode="&#x25ab;" horiz-adv-x="680" 
d="M70 530h530v-530h-530v530zM562 492h-454v-454h454v454z" />
    <glyph glyph-name="triagup" unicode="&#x25b2;" horiz-adv-x="930" 
d="M485 790l380 -790h-42l-358 746l-358 -746h-42l380 790h40z" />
    <glyph glyph-name="triagrt" unicode="&#x25ba;" horiz-adv-x="930" 
d="M870 410v-40l-790 -380v42l746 358l-746 358v42z" />
    <glyph glyph-name="triagdn" unicode="&#x25bc;" horiz-adv-x="930" 
d="M445 -10l-380 790h42l358 -746l358 746h42l-380 -790h-40z" />
    <glyph glyph-name="triaglf" unicode="&#x25c4;" horiz-adv-x="930" 
d="M60 410l790 380v-42l-746 -358l746 -358v-42l-790 380v40z" />
    <glyph glyph-name="whitecircle" unicode="&#x25cb;" horiz-adv-x="920" 
d="M60 390q0 166 117 283t283 117t283 -117t117 -283t-117 -283t-283 -117t-283 117t-117 283zM98 390q0 -150 106 -256t256 -106t256 106t106 256t-106 256t-256 106t-256 -106t-106 -256z" />
    <glyph glyph-name="whitecircle" unicode="&#x25ef;" horiz-adv-x="920" 
d="M60 390q0 166 117 283t283 117t283 -117t117 -283t-117 -283t-283 -117t-283 117t-117 283zM98 390q0 -150 106 -256t256 -106t256 106t106 256t-106 256t-256 106t-256 -106t-106 -256z" />
    <glyph glyph-name="blackcircle" unicode="&#x25cf;" horiz-adv-x="920" 
d="M60 390q0 166 117 283t283 117t283 -117t117 -283t-117 -283t-283 -117t-283 117t-117 283z" />
    <glyph glyph-name="uni25E2" unicode="&#x25e2;" horiz-adv-x="930" 
d="M864 14l-28 -28l-827 289l30 30l780 -275l-274 781l30 30z" />
    <glyph glyph-name="uni25E3" unicode="&#x25e3;" horiz-adv-x="930" 
d="M66 14l289 827l30 -30l-275 -781l781 275l30 -30l-827 -289z" />
    <glyph glyph-name="uni25E4" unicode="&#x25e4;" horiz-adv-x="930" 
d="M66 766l28 28l827 -289l-30 -30l-781 274l275 -780l-30 -30z" />
    <glyph glyph-name="uni25E5" unicode="&#x25e5;" horiz-adv-x="930" 
d="M864 766l-289 -827l-30 30l274 780l-780 -274l-30 30l827 289z" />
    <glyph glyph-name="uni2605" unicode="&#x2605;" horiz-adv-x="880" 
d="M440 180l-260 -190l99 307l-260 189h322l99 306l99 -306h322l-260 -189l99 -307z" />
    <glyph glyph-name="ballotboxwithx" unicode="&#x2612;" horiz-adv-x="680" 
d="M600 0h-530v530h530v-530zM562 492h-454v-454h454v454zM202 103l-29 29l133 133l-133 133l29 29l133 -133l133 133l29 -29l-133 -133l133 -133l-29 -29l-133 133z" />
    <glyph glyph-name="uni263C" unicode="&#x263c;" horiz-adv-x="960" 
d="M521 191l-42 -202l-42 202q0 -39 -29 -66q-9 -8 -30 -22.5t-29.5 -26t-8.5 -29.5q0 -9 3 -18t6 -13l3 -4q-22 6 -34 23.5t-12 38.5q0 30 21 51q41 41 41 95l-172 -113l113 172q-26 -26 -66 -26q-9 0 -31.5 4t-30.5 4q-24 0 -38.5 -12t-17.5 -24l-3 -12q-8 14 -8 28
q0 29 20.5 49t50.5 20t60.5 15t35.5 23l-202 42l202 42q-39 0 -66 29q-8 9 -22.5 30t-26 29.5t-29.5 8.5q-9 0 -18 -3t-13 -6l-4 -3q6 22 23.5 34t38.5 12q30 0 51 -21q41 -41 95 -41l-113 172l172 -113q-26 26 -26 66q0 9 4 31.5t4 30.5q0 24 -12 39t-24 17l-12 3
q14 8 28 8q29 0 49 -20.5t20 -50.5t15 -60.5t23 -35.5l42 202l42 -202q0 39 29 66q9 8 30 22.5t29.5 26t8.5 29.5q0 9 -3 18t-6 13l-3 4q22 -6 34 -23.5t12 -38.5q0 -30 -21 -51q-41 -41 -41 -95l172 113l-113 -172q26 26 66 26q9 0 31.5 -4t30.5 -4q24 0 39 12t17 24l3 12
q8 -14 8 -28q0 -29 -20.5 -49t-50.5 -20t-60.5 -15t-35.5 -23l202 -42l-202 -42q39 0 66 -29q8 -9 22.5 -30t26 -29.5t29.5 -8.5q9 0 18 3t13 6l4 3q-6 -22 -23.5 -34t-38.5 -12q-30 0 -51 21q-41 41 -95 41l113 -172l-172 113q26 -26 26 -66q0 -9 -4 -31.5t-4 -30.5
q0 -24 12 -38.5t24 -17.5l12 -3q-14 -8 -28 -8q-29 0 -49 20.5t-20 50.5t-15 60.5t-23 35.5z" />
    <glyph glyph-name="uni263E" unicode="&#x263e;" horiz-adv-x="960" 
d="M624 728q-134 0 -229 -99t-95 -239t95 -239t229 -99q50 0 96 15q-107 -77 -240 -77q-166 0 -283 117t-117 283t117 283t283 117q131 0 240 -77q-52 15 -96 15z" />
    <glyph glyph-name="spade" unicode="&#x2660;" horiz-adv-x="900" 
d="M451 790q32 -48 97 -116t136 -114q78 -51 121 -103t43 -123q0 -73 -51 -123.5t-125 -50.5q-69 0 -120.5 46t-79.5 115l-3 -1q8 -102 26.5 -174t55.5 -146h-202q37 74 55.5 146t26.5 174l-3 1q-28 -69 -79.5 -115t-120.5 -46q-74 0 -125 50.5t-51 123.5q0 71 43 123
t121 103q71 46 136 114t97 116h2z" />
    <glyph glyph-name="club" unicode="&#x2663;" horiz-adv-x="900" 
d="M349 0q37 74 55.5 146t26.5 174l-3 1q-28 -69 -79.5 -115t-120.5 -46q-74 0 -125 50.5t-51 123.5q0 79 48.5 129.5t125.5 50.5q40 0 84 -23l2 2q-38 57 -38 117q0 75 50.5 127.5t125.5 52.5t125.5 -52.5t50.5 -127.5q0 -60 -38 -117l2 -2q44 23 84 23q77 0 125.5 -50.5
t48.5 -129.5q0 -73 -51 -123.5t-125 -50.5q-69 0 -120.5 46t-79.5 115l-3 -1q8 -102 26.5 -174t55.5 -146h-202z" />
    <glyph glyph-name="heart" unicode="&#x2665;" horiz-adv-x="900" 
d="M451 -10h-2q-28 43 -94 126.5t-139 166.5q-164 185 -164 301q0 90 52 148t139 58q85 0 132.5 -42.5t72.5 -114.5h4q25 72 72.5 114.5t132.5 42.5q87 0 139 -58t52 -148q0 -116 -164 -301q-73 -83 -139 -166.5t-94 -126.5z" />
    <glyph glyph-name="diamond" unicode="&#x2666;" horiz-adv-x="900" 
d="M817 390q-106 -83 -202.5 -188.5t-163.5 -211.5h-2q-67 106 -163.5 211.5t-202.5 188.5q106 83 202.5 188.5t163.5 211.5h2q67 -106 163.5 -211.5t202.5 -188.5z" />
    <glyph glyph-name="uni267B" unicode="&#x267b;" horiz-adv-x="960" 
d="M863 266l1 -2l-96 -167q-15 -22 -21.5 -30t-24 -17t-42.5 -9h-57v-49l-113 136l113 135v-49h145q26 0 50 13t34 26zM186 122h-2l-96 168q-11 21 -15 32t-3 30.5t14 40.5l28 49l-42 24l174 31l59 -166l-41 24q-70 -120 -72 -125q-13 -23 -14 -50t4 -42zM404 779v1h193
q24 -1 36 -2.5t28 -12.5t28 -32l28 -49l43 24l-61 -166l-173 31l41 24l-72 125q-13 23 -36 37.5t-39 16.5zM200 598l67 119q10 17 34 31q46 24 97 10t68 -45l-116 -201zM446 41h-135q-22 0 -44 13q-43 25 -57.5 79.5t4.5 80.5h232v-173zM806 527l69 -117q10 -18 10 -44
q1 -48 -38 -87t-74 -39l-116 201z" />
    <glyph glyph-name="uni267C" unicode="&#x267c;" horiz-adv-x="960" 
d="M292 645l-52 -92l116 -67l90 156q-13 24 -52.5 34.5t-75.5 -7.5q-18 -11 -26 -24zM394 694v-1q48 -5 71 -44l56 -97l-32 -19l134 -24l47 129l-33 -19l-22 38q-14 24 -29.5 30.5t-41.5 6.5h-150zM322 121h105v134h-180q-15 -20 -3.5 -62.5t44.5 -61.5q17 -10 34 -10z
M228 184h1q-20 44 3 84l56 97l32 -19l-46 129l-135 -24l33 -19l-22 -38q-10 -16 -11 -31.5t2 -23.5t12 -25zM763 407l-53 91l-116 -67l90 -156q28 0 58 30t29 68q0 20 -8 34zM755 294l-1 1q-3 -4 -9 -11t-25.5 -18t-39.5 -11h-112v38l-88 -105l88 -105v38h44q28 0 41.5 10.5
t26.5 32.5zM64 390q0 164 116 280t280 116t280 -116t116 -280t-116 -280t-280 -116t-280 116t-116 280z" />
    <glyph glyph-name="uni267D" unicode="&#x267d;" horiz-adv-x="960" 
d="M240 553l52 92q8 13 26 24q36 18 75.5 7.5t52.5 -34.5l-90 -156zM394 693v1h150q26 0 41.5 -6.5t29.5 -30.5l22 -38l33 19l-47 -129l-134 24l32 19l-56 97q-10 17 -28 28t-31 13zM427 121h-105q-17 0 -34 10q-33 19 -44.5 61.5t3.5 62.5h180v-134zM229 184h-1l-75 130
q-9 17 -12 25t-2 23.5t11 31.5l22 38l-33 19l135 24l46 -129l-32 19l-56 -97q-10 -18 -11 -39t3 -33zM710 498l53 -91q8 -14 8 -34q1 -38 -29 -68t-58 -30l-90 156zM754 295l1 -1l-75 -130q-9 -15 -15 -22.5t-20 -14t-33 -6.5h-44v-38l-88 105l88 105v-38h112q20 0 38.5 10
t27.5 20zM60 390q0 166 117 283t283 117t283 -117t117 -283t-117 -283t-283 -117t-283 117t-117 283zM98 390q0 -150 106 -256t256 -106t256 106t106 256t-106 256t-256 106t-256 -106t-106 -256z" />
    <glyph glyph-name="mediumwhitecircle" unicode="&#x26aa;" horiz-adv-x="670" 
d="M60 265q0 114 80.5 194.5t194.5 80.5t194.5 -80.5t80.5 -194.5t-80.5 -194.5t-194.5 -80.5t-194.5 80.5t-80.5 194.5zM98 265q0 -98 69.5 -167.5t167.5 -69.5t167.5 69.5t69.5 167.5t-69.5 167.5t-167.5 69.5t-167.5 -69.5t-69.5 -167.5z" />
    <glyph glyph-name="mediumblackcircle" unicode="&#x26ab;" horiz-adv-x="670" 
d="M60 265q0 114 80.5 194.5t194.5 80.5t194.5 -80.5t80.5 -194.5t-80.5 -194.5t-194.5 -80.5t-194.5 80.5t-80.5 194.5z" />
    <glyph glyph-name="anglebracketleft" unicode="&#x3008;" 
d="M258 840l-162 -480l162 -480h-41l-162 480l162 480h41z" />
    <glyph glyph-name="anglebracketright" unicode="&#x3009;" 
d="M42 -120l162 480l-162 480h41l162 -480l-162 -480h-41z" />
    <glyph glyph-name="fi" unicode="&#xe38c;" horiz-adv-x="570" 
d="M160 660v-130h160v-38h-160v-492h-40v492h-85v38h85v135q0 75 38 110t102 35q47 0 70 -10v-37q-20 9 -60 9q-58 0 -84 -23.5t-26 -88.5zM450 0v530h40v-530h-40zM500 735v-60h-60v60h60z" />
    <glyph glyph-name="fi" unicode="&#xfb01;" horiz-adv-x="570" 
d="M160 660v-130h160v-38h-160v-492h-40v492h-85v38h85v135q0 75 38 110t102 35q47 0 70 -10v-37q-20 9 -60 9q-58 0 -84 -23.5t-26 -88.5zM450 0v530h40v-530h-40zM500 735v-60h-60v60h60z" />
    <glyph glyph-name="fl" unicode="&#xe38d;" horiz-adv-x="570" 
d="M160 660v-130h160v-38h-160v-492h-40v492h-85v38h85v135q0 75 38 110t102 35q47 0 70 -10v-37q-20 9 -60 9q-58 0 -84 -23.5t-26 -88.5zM450 0v800h40v-800h-40z" />
    <glyph glyph-name="fl" unicode="&#xfb02;" horiz-adv-x="570" 
d="M160 660v-130h160v-38h-160v-492h-40v492h-85v38h85v135q0 75 38 110t102 35q47 0 70 -10v-37q-20 9 -60 9q-58 0 -84 -23.5t-26 -88.5zM450 0v800h40v-800h-40z" />
    <glyph glyph-name="invertedbreve" unicode="&#xe411;" horiz-adv-x="500" 
d="M250 790q76 0 114 -46t38 -124h-36q0 137 -116 137t-116 -137h-36q0 78 38 124t114 46z" />
    <glyph glyph-name="doublegrave" unicode="&#xe412;" horiz-adv-x="500" 
d="M84 780h42l90 -160h-42zM194 780h42l90 -160h-42z" />
    <glyph glyph-name="caronSlovak" unicode="&#xe413;" horiz-adv-x="500" 
d="M330 800h45l-15 -180h-30v180z" />
    <glyph glyph-name="commaaccent" unicode="&#xe414;" horiz-adv-x="602" 
d="M280 -60v-48q0 -47 -24.5 -74.5t-65.5 -27.5v30q25 0 41.5 15t18.5 45h-30v60h60z" />
    <glyph glyph-name="commaaccent" unicode="&#xf6c3;" horiz-adv-x="602" 
d="M280 -60v-48q0 -47 -24.5 -74.5t-65.5 -27.5v30q25 0 41.5 15t18.5 45h-30v60h60z" />
    <glyph glyph-name="dotbelow" unicode="&#xe415;" horiz-adv-x="602" 
d="M280 -100v-60h-60v60h60z" />
    <glyph glyph-name="altcedilla" unicode="&#xe416;" horiz-adv-x="602" 
d="M311 -136q0 39 -65 39q-33 0 -59 -10v31q28 12 68 12q34 0 61.5 -17t27.5 -54q0 -75 -97 -75q-57 0 -88 22l13 30q29 -19 70 -19q36 0 52.5 9t16.5 32z" />
    <glyph glyph-name="grave.cap" unicode="&#xe421;" horiz-adv-x="500" 
d="M167 950h42l62 -110h-42z" />
    <glyph glyph-name="acute.cap" unicode="&#xe422;" horiz-adv-x="500" 
d="M291 950h42l-62 -110h-42z" />
    <glyph glyph-name="circumflex.cap" unicode="&#xe423;" horiz-adv-x="500" 
d="M180 840h-45l100 110h30l100 -110h-45l-70 77z" />
    <glyph glyph-name="tilde.cap" unicode="&#xe424;" horiz-adv-x="500" 
d="M354 932h36q0 -42 -19.5 -63t-52.5 -21q-31 0 -73 30.5t-60 30.5q-39 0 -39 -51h-36q0 42 19.5 63t52.5 21q31 0 73 -30.5t60 -30.5q39 0 39 51z" />
    <glyph glyph-name="macron.cap" unicode="&#xe425;" horiz-adv-x="500" 
d="M150 875v40h200v-40h-200z" />
    <glyph glyph-name="breve.cap" unicode="&#xe426;" horiz-adv-x="500" 
d="M250 830q-62 0 -97 33t-35 87h36q0 -39 24.5 -63t71.5 -24t71.5 24t24.5 63h36q0 -54 -35 -87t-97 -33z" />
    <glyph glyph-name="invertedbreve.cap" unicode="&#xe427;" horiz-adv-x="500" 
d="M250 960q62 0 97 -33t35 -87h-36q0 39 -24.5 63t-71.5 24t-71.5 -24t-24.5 -63h-36q0 54 35 87t97 33z" />
    <glyph glyph-name="dotaccent.cap" unicode="&#xe428;" horiz-adv-x="500" 
d="M280 925v-60h-60v60h60z" />
    <glyph glyph-name="dieresis.cap" unicode="&#xe429;" horiz-adv-x="500" 
d="M205 925v-60h-60v60h60zM355 925v-60h-60v60h60z" />
    <glyph glyph-name="ring.cap" unicode="&#xe42a;" horiz-adv-x="500" 
d="M160 870q0 38 26 64t64 26t64 -26t26 -64t-26 -64t-64 -26t-64 26t-26 64zM192 870q0 -24 17 -41t41 -17t41 17t17 41t-17 41t-41 17t-41 -17t-17 -41z" />
    <glyph glyph-name="hungarumlaut.cap" unicode="&#xe42b;" horiz-adv-x="500" 
d="M236 950h42l-62 -110h-42zM346 950h42l-62 -110h-42z" />
    <glyph glyph-name="doublegrave.cap" unicode="&#xe42c;" horiz-adv-x="500" 
d="M222 950h42l62 -110h-42zM112 950h42l62 -110h-42z" />
    <glyph glyph-name="caron.cap" unicode="&#xe42d;" horiz-adv-x="500" 
d="M135 950h45l70 -77l70 77h45l-100 -110h-30z" />
    <glyph glyph-name="commaaccent.cap" unicode="&#xe42e;" horiz-adv-x="500" 
d="M220 840v48q0 31 18.5 51.5t56.5 20.5v-30q-23 0 -33 -6.5t-12 -23.5h30v-60h-60z" />
    <glyph glyph-name="exclamdown.cap" unicode="&#xe441;" horiz-adv-x="200" 
d="M123 0h-46l11 605h24zM70 720v60h60v-60h-60z" />
    <glyph glyph-name="questiondown.cap" unicode="&#xe444;" horiz-adv-x="440" 
d="M217 28q87 0 121 64.5t34 187.5h40v-10q0 -62 -8.5 -109t-29 -87.5t-60.5 -62t-97 -21.5q-185 0 -185 210q0 55 17.5 98t43 72.5t51 59.5t44.5 74.5t20 100.5h24q1 -57 -14.5 -104.5t-39 -80.5t-47 -64t-40.5 -69.5t-17 -81.5q0 -88 31.5 -132.5t111.5 -44.5zM190 720v60
h60v-60h-60z" />
    <glyph glyph-name="guilsinglleft.cap" unicode="&#xe451;" 
d="M250 560v-45l-163 -125l163 -125v-45l-200 155v30z" />
    <glyph glyph-name="guilsinglright.cap" unicode="&#xe452;" 
d="M50 515v45l200 -155v-30l-200 -155v45l163 125z" />
    <glyph glyph-name="guillemotleft.cap" unicode="&#xe453;" horiz-adv-x="500" 
d="M250 560v-45l-163 -125l163 -125v-45l-200 155v30zM450 560v-45l-163 -125l163 -125v-45l-200 155v30z" />
    <glyph glyph-name="guillemotright.cap" unicode="&#xe454;" horiz-adv-x="500" 
d="M250 515v45l200 -155v-30l-200 -155v45l163 125zM50 515v45l200 -155v-30l-200 -155v45l163 125z" />
    <glyph glyph-name="slash.cap" unicode="&#xe461;" 
d="M74 0h-40l192 780h40z" />
    <glyph glyph-name="backslash.cap" unicode="&#xe462;" 
d="M34 780h40l192 -780h-40z" />
    <glyph glyph-name="bar.cap" unicode="&#xe463;" horiz-adv-x="180" 
d="M70 0v780h40v-780h-40z" />
    <glyph glyph-name="doublebar.cap" unicode="&#xe464;" horiz-adv-x="280" 
d="M70 0v780h40v-780h-40zM170 0v780h40v-780h-40z" />
    <glyph glyph-name="brokenbar.cap" unicode="&#xe465;" horiz-adv-x="180" 
d="M70 430v350h40v-350h-40zM70 0v350h40v-350h-40z" />
    <glyph glyph-name="bullet.cap" unicode="&#xe466;" horiz-adv-x="380" 
d="M310 510v-240h-240v240h240z" />
    <glyph glyph-name="onethirdemdash" unicode="&#xe471;" horiz-adv-x="333" 
d="M293 331h-253v38h253v-38z" />
    <glyph glyph-name="threequarteremdash" unicode="&#xe472;" horiz-adv-x="750" 
d="M40 331v38h670v-38h-670z" />
    <glyph glyph-name="periodcentered.cap" unicode="&#xe481;" horiz-adv-x="200" 
d="M130 420v-60h-60v60h60z" />
    <glyph glyph-name="hyphen.cap" unicode="&#xe482;" horiz-adv-x="320" 
d="M40 371v38h240v-38h-240z" />
    <glyph glyph-name="onethirdemdash.cap" unicode="&#xe483;" horiz-adv-x="333" 
d="M293 371h-244v38h244v-38z" />
    <glyph glyph-name="endash.cap" unicode="&#xe484;" horiz-adv-x="500" 
d="M40 371v38h420v-38h-420z" />
    <glyph glyph-name="threequarteremdash.cap" unicode="&#xe485;" horiz-adv-x="750" 
d="M40 371v38h670v-38h-670z" />
    <glyph glyph-name="emdash.cap" unicode="&#xe486;" horiz-adv-x="1000" 
d="M40 371v38h920v-38h-920z" />
    <glyph glyph-name="figuredash.cap" unicode="&#xe487;" horiz-adv-x="600" 
d="M40 371v38h520v-38h-520z" />
    <glyph glyph-name="uni2015.cap" unicode="&#xe488;" horiz-adv-x="1200" 
d="M40 371v38h1120v-38h-1120z" />
    <glyph glyph-name="parenleft.cap" unicode="&#xe491;" 
d="M65 380v20q0 199 123 380h44q-127 -182 -127 -380v-20q0 -198 127 -380h-44q-123 181 -123 380z" />
    <glyph glyph-name="parenright.cap" unicode="&#xe492;" 
d="M235 400v-20q0 -199 -123 -380h-44q127 182 127 380v20q0 198 -127 380h44q123 -181 123 -380z" />
    <glyph glyph-name="bracketleft.cap" unicode="&#xe493;" 
d="M70 780h185v-40h-145v-700h145v-40h-185v780z" />
    <glyph glyph-name="bracketright.cap" unicode="&#xe494;" 
d="M230 0h-185v40h145v700h-145v40h185v-780z" />
    <glyph glyph-name="braceleft.cap" unicode="&#xe495;" 
d="M255 780v-40q-51 0 -75.5 -23t-24.5 -87v-142q0 -73 -53 -98q53 -26 53 -98v-142q0 -64 24.5 -87t75.5 -23v-40h-15q-51 0 -88 28.5t-37 96.5v155q0 55 -20.5 72.5t-69.5 17.5v40q49 0 69.5 17.5t20.5 72.5v155q0 68 37 96.5t88 28.5h15z" />
    <glyph glyph-name="braceright.cap" unicode="&#xe496;" 
d="M45 740v40h15q51 0 88 -28.5t37 -96.5v-155q0 -55 20.5 -72.5t69.5 -17.5v-40q-49 0 -69.5 -17.5t-20.5 -72.5v-155q0 -68 -37 -96.5t-88 -28.5h-15v40q51 0 75.5 23t24.5 87v142q0 72 53 98q-53 24 -53 98v142q0 64 -24.5 87t-75.5 23z" />
    <glyph glyph-name="anglebracketleft.cap" unicode="&#xe497;" 
d="M230 780l-134 -390l134 -390h-41l-134 390l134 390h41z" />
    <glyph glyph-name="anglebracketright.cap" unicode="&#xe498;" 
d="M204 390l-134 390h41l134 -390l-134 -390h-41z" />
    <glyph glyph-name="lowline" unicode="&#xe511;" horiz-adv-x="320" 
d="M50 0v38h220v-38h-220z" />
    <glyph glyph-name="underscoremonospace" unicode="&#xe512;" horiz-adv-x="600" 
d="M50 -118v38h500v-38h-500z" />
    <glyph glyph-name="underscoremonospace" unicode="&#xff3f;" horiz-adv-x="600" 
d="M50 -118v38h500v-38h-500z" />
    <glyph glyph-name="at.cap" unicode="&#xe513;" horiz-adv-x="950" 
d="M497 -72h6q192 0 329 102l22 -30q-141 -110 -354 -110q-209 0 -337 129t-128 351v40q0 223 125.5 351.5t334.5 128.5q87 0 162.5 -26t133.5 -75t91 -127.5t33 -176.5v-30q0 -87 -19 -146.5t-56 -91t-82.5 -44.5t-107.5 -13h-25l-10 76q-52 -86 -160 -86q-101 0 -150.5 68
t-49.5 167v20q0 99 49.5 167t150.5 68q109 0 160 -87l10 77h30l-5 -150v-283q54 1 89.5 10t68.5 35t49 79t16 134v30q0 92 -30.5 164t-83.5 115.5t-119 65.5t-142 22h-6q-188 0 -302.5 -119t-114.5 -323v-40q0 -209 116 -325.5t306 -116.5zM610 510q-58 92 -150 92
q-81 0 -122 -54.5t-41 -142.5v-20q0 -88 41 -142.5t122 -54.5q92 0 150 92v230z" />
    <glyph glyph-name="zero.inf" unicode="&#xe571;" 
d="M31 78q0 53 29 85t90 32t90 -32t29 -85v-166q0 -54 -29 -86t-90 -32t-90 32t-29 86v166zM233 74q0 89 -82 89h-3q-82 0 -82 -89v-158q0 -90 82 -90h3q82 0 82 90v158z" />
    <glyph glyph-name="one.inf" unicode="&#xe572;" 
d="M274 -200h-239v32h102v311l-92 -62l-18 28l123 83h23v-360h101v-32z" />
    <glyph glyph-name="two.inf" unicode="&#xe573;" 
d="M272 -168v-32h-244v22l168 179q40 41 40 80v5q0 36 -23 56.5t-62 20.5h-3q-85 0 -85 -103h-35v12q0 123 122 123q58 0 90 -28.5t32 -75.5v-6q0 -30 -10 -51t-36 -49l-144 -153h190z" />
    <glyph glyph-name="three.inf" unicode="&#xe574;" 
d="M61 -75q0 -99 86 -99h5q36 0 61.5 19.5t25.5 55.5v7q0 36 -23 55.5t-59 19.5h-57v32h55q36 0 58.5 17.5t22.5 51.5v4q0 34 -23 54.5t-61 20.5h-5q-43 0 -63.5 -24.5t-20.5 -78.5h-35v12q0 123 122 123q58 0 90 -28t32 -75v-7q0 -66 -61 -86q63 -24 63 -91v-8
q0 -47 -34.5 -76.5t-89.5 -29.5q-62 0 -93.5 33t-31.5 92v6h36z" />
    <glyph glyph-name="four.inf" unicode="&#xe575;" 
d="M219 -200h-36v103h-167v24l168 263h35v-254h64v-33h-64v-103zM184 129l-124 -194l43 1h80v142z" />
    <glyph glyph-name="five.inf" unicode="&#xe576;" 
d="M25 -75h36q0 -99 86 -99h5q37 0 62 23t25 67v9q0 45 -25.5 67.5t-62.5 22.5h-4q-28 0 -53 -14t-36 -39l-30 9l10 219h231v-33h-197l-6 -139q34 29 85 29q54 0 88.5 -32.5t34.5 -90.5v-6q0 -59 -34.5 -91.5t-89.5 -32.5q-62 0 -93.5 33t-31.5 92v6z" />
    <glyph glyph-name="six.inf" unicode="&#xe577;" 
d="M258 195v-32q-95 0 -147 -69q-29 -38 -40 -85q36 36 88 36q53 0 85 -31.5t32 -91.5v-5q0 -60 -33.5 -91.5t-90.5 -31.5q-55 0 -90 36.5t-35 100.5v6q0 104 55 178q59 80 176 80zM153 13q-62 0 -90 -55v-28q0 -47 25 -75.5t62 -28.5h3q40 0 64 24t24 66v8q0 42 -23 65.5
t-62 23.5h-3z" />
    <glyph glyph-name="seven.inf" unicode="&#xe578;" 
d="M29 50v140h246v-22l-150 -368h-38l146 358l-55 -1h-117v-107h-32z" />
    <glyph glyph-name="eight.inf" unicode="&#xe579;" 
d="M150 -206q-55 0 -90 29t-35 76v8q0 68 63 92q-60 20 -60 87v7q0 47 32 74.5t90 27.5t90 -27.5t32 -74.5v-7q0 -67 -61 -87q63 -24 63 -92v-8q0 -46 -34.5 -75.5t-89.5 -29.5zM143 -17q-36 0 -59 -20t-23 -56v-7q0 -36 25 -55t61 -19h5q37 0 62 19t25 55v7q0 36 -23 56
t-59 20h-14zM152 163h-5q-38 0 -61 -20t-23 -54v-4q0 -34 23 -52t59 -18h10q36 0 58.5 18t22.5 52v4q0 34 -23 54t-61 20z" />
    <glyph glyph-name="nine.inf" unicode="&#xe57a;" 
d="M41 -206v32q94 0 148 69q28 37 39 86q-36 -36 -88 -36t-84.5 31.5t-32.5 90.5v5q0 60 33.5 91.5t91.5 31.5q55 0 89.5 -36t34.5 -101v-5q0 -106 -55 -179q-60 -80 -176 -80zM147 -23q60 0 89 54q1 8 1 24v5q0 47 -25 75t-63 28h-3q-40 0 -63.5 -23.5t-23.5 -65.5v-9
q0 -42 23 -65t62 -23h3z" />
    <glyph glyph-name="plus.inf" unicode="&#xe57b;" 
d="M133 121h33v-110h110v-33h-110v-109h-33v109h-109v33h109v110z" />
    <glyph glyph-name="minus.inf" unicode="&#xe57c;" 
d="M24 -22v33h252v-33h-252z" />
    <glyph glyph-name="equal.inf" unicode="&#xe57d;" 
d="M24 29v33h252v-33h-252zM24 -73v33h252v-33h-252z" />
    <glyph glyph-name="parenleft.inf" unicode="&#xe57e;" horiz-adv-x="158" 
d="M30 -10v10q0 105 61 190h37q-63 -94 -63 -190v-10q0 -98 63 -190h-37q-61 84 -61 190z" />
    <glyph glyph-name="parenright.inf" unicode="&#xe57f;" horiz-adv-x="158" 
d="M128 0v-10q0 -106 -61 -190h-37q63 92 63 190v10q0 96 -63 190h37q61 -85 61 -190z" />
    <glyph glyph-name="Anocross" unicode="&#xe731;" horiz-adv-x="600" 
d="M270 790h60l236 -790h-44l-222 750l-222 -750h-44z" />
    <glyph glyph-name="idotaccent" unicode="&#xe785;" horiz-adv-x="200" 
d="M80 0v530h40v-530h-40zM130 735v-60h-60v60h60z" />
    <glyph glyph-name="interrobangdown" unicode="&#xe935;" horiz-adv-x="440" 
d="M32 -30q0 55 17.5 98t43 71.5t51 56.5t44.5 68t20 91h24l10 -525q72 8 101 66.5t29 163.5h40v-10q0 -57 -8.5 -100.5t-29 -81.5t-60.5 -58t-97 -20q-88 0 -136.5 47.5t-48.5 132.5zM74 -25q0 -136 123 -146l8 410q-13 -31 -37 -65.5t-43.5 -58.5t-35 -61t-15.5 -79z
M190 470v60h60v-60h-60z" />
    <glyph glyph-name="interrobangdown.cap" unicode="&#xe99b;" horiz-adv-x="440" 
d="M32 200q0 55 17.5 98t43 72.5t51 59.5t44.5 74.5t20 100.5h24l10 -576q72 10 101 73.5t29 177.5h40v-10q0 -62 -8.5 -109t-29 -87.5t-60.5 -62t-97 -21.5q-185 0 -185 210zM74 205q0 -83 27.5 -127t95.5 -50l8 450q-15 -39 -50 -86.5t-58 -91t-23 -95.5zM190 720v60h60
v-60h-60z" />
    <glyph glyph-name="registered.cap" unicode="&#xe99c;" horiz-adv-x="920" 
d="M60 390q0 166 117 283t283 117t283 -117t117 -283t-117 -283t-283 -117t-283 117t-117 283zM98 390q0 -150 106 -256t256 -106t256 106t106 256t-106 256t-256 106t-256 -106t-106 -256zM351 355v-200h-40v470h160q60 0 101 -29t41 -100v-12q0 -95 -81 -121l81 -208h-43
l-78 201q-7 -1 -21 -1h-120zM351 391h120q102 0 102 95v8q0 95 -102 95h-120v-198z" />
    <glyph glyph-name="period.T" unicode="&#xf182;" 
d="M180 60v-60h-60v60h60z" />
    <glyph glyph-name="comma.T" unicode="&#xf183;" 
d="M180 60v-48q0 -122 -90 -122v30q30 0 44.5 17.5t15.5 62.5h-30v60h60z" />
    <glyph glyph-name="colon.T" unicode="&#xf184;" 
d="M180 60v-60h-60v60h60zM180 420v-60h-60v60h60z" />
    <glyph glyph-name="semicolon.T" unicode="&#xf185;" 
d="M180 60v-48q0 -122 -90 -122v30q30 0 44.5 17.5t15.5 62.5h-30v60h60zM180 420v-60h-60v60h60z" />
    <glyph glyph-name="onesixteenth" unicode="&#xf215;" horiz-adv-x="1100" 
d="M1058 395v-32q-95 0 -147 -69q-29 -38 -40 -85q36 36 88 36q53 0 85 -31.5t32 -91.5v-5q0 -60 -33.5 -91.5t-90.5 -31.5q-55 0 -90 36.5t-35 100.5v6q0 104 55 178q59 80 176 80zM134 0h-44l576 780h44zM953 213q-62 0 -90 -55v-28q0 -47 25 -75.5t62 -28.5h3q40 0 64 24
t24 66v8q0 42 -23 65.5t-62 23.5h-3zM774 0h-239v32h102v311l-92 -62l-18 28l123 83h23v-360h101v-32zM274 390h-239v32h102v311l-92 -62l-18 28l123 83h23v-360h101v-32z" />
    <glyph glyph-name="threesixteenths" unicode="&#xf216;" horiz-adv-x="1100" 
d="M1058 395v-32q-95 0 -147 -69q-29 -38 -40 -85q36 36 88 36q53 0 85 -31.5t32 -91.5v-5q0 -60 -33.5 -91.5t-90.5 -31.5q-55 0 -90 36.5t-35 100.5v6q0 104 55 178q59 80 176 80zM134 0h-44l576 780h44zM61 515q0 -99 86 -99h5q36 0 61.5 19.5t25.5 55.5v7q0 36 -23 55.5
t-59 19.5h-57v32h55q36 0 58.5 17.5t22.5 51.5v4q0 34 -23 54.5t-61 20.5h-5q-43 0 -63.5 -24.5t-20.5 -78.5h-35v12q0 123 122 123q58 0 90 -28t32 -75v-7q0 -65 -61 -87q63 -22 63 -90v-8q0 -47 -34.5 -76.5t-89.5 -29.5q-62 0 -93.5 33t-31.5 92v6h36zM953 213
q-62 0 -90 -55v-28q0 -47 25 -75.5t62 -28.5h3q40 0 64 24t24 66v8q0 42 -23 65.5t-62 23.5h-3zM774 0h-239v32h102v311l-92 -62l-18 28l123 83h23v-360h101v-32z" />
    <glyph glyph-name="fivesixteenths" unicode="&#xf217;" horiz-adv-x="1100" 
d="M1058 395v-32q-95 0 -147 -69q-29 -38 -40 -85q36 36 88 36q53 0 85 -31.5t32 -91.5v-5q0 -60 -33.5 -91.5t-90.5 -31.5q-55 0 -90 36.5t-35 100.5v6q0 104 55 178q59 80 176 80zM25 515h36q0 -99 86 -99h5q37 0 62 23t25 67v9q0 45 -25.5 67.5t-62.5 22.5h-4
q-28 0 -53 -14t-36 -39l-30 9l10 219h231v-33h-197l-6 -139q34 29 85 29q54 0 88.5 -32.5t34.5 -90.5v-6q0 -59 -34.5 -91.5t-89.5 -32.5q-62 0 -93.5 33t-31.5 92v6zM134 0h-44l576 780h44zM953 213q-62 0 -90 -55v-28q0 -47 25 -75.5t62 -28.5h3q40 0 64 24t24 66v8
q0 42 -23 65.5t-62 23.5h-3zM774 0h-239v32h102v311l-92 -62l-18 28l123 83h23v-360h101v-32z" />
    <glyph glyph-name="sevensixteenths" unicode="&#xf218;" horiz-adv-x="1100" 
d="M1058 395v-32q-95 0 -147 -69q-29 -38 -40 -85q36 36 88 36q53 0 85 -31.5t32 -91.5v-5q0 -60 -33.5 -91.5t-90.5 -31.5q-55 0 -90 36.5t-35 100.5v6q0 104 55 178q59 80 176 80zM134 0h-44l576 780h44zM953 213q-62 0 -90 -55v-28q0 -47 25 -75.5t62 -28.5h3q40 0 64 24
t24 66v8q0 42 -23 65.5t-62 23.5h-3zM29 640v140h246v-22l-150 -368h-38l146 358l-55 -1h-117v-107h-32zM774 0h-239v32h102v311l-92 -62l-18 28l123 83h23v-360h101v-32z" />
    <glyph glyph-name="ninesixteenths" unicode="&#xf219;" horiz-adv-x="1100" 
d="M1058 395v-32q-95 0 -147 -69q-29 -38 -40 -85q36 36 88 36q53 0 85 -31.5t32 -91.5v-5q0 -60 -33.5 -91.5t-90.5 -31.5q-55 0 -90 36.5t-35 100.5v6q0 104 55 178q59 80 176 80zM41 384v32q94 0 148 69q27 35 39 86q-34 -36 -88 -36q-52 0 -84.5 31.5t-32.5 90.5v5
q0 60 33.5 91.5t91.5 31.5q55 0 89.5 -36t34.5 -101v-5q0 -106 -55 -179q-60 -80 -176 -80zM134 0h-44l576 780h44zM953 213q-62 0 -90 -55v-28q0 -47 25 -75.5t62 -28.5h3q40 0 64 24t24 66v8q0 42 -23 65.5t-62 23.5h-3zM147 567q60 0 89 54q1 8 1 24v5q0 47 -25 75
t-63 28h-3q-40 0 -63.5 -23.5t-23.5 -65.5v-9q0 -42 23 -65t62 -23h3zM774 0h-239v32h102v311l-92 -62l-18 28l123 83h23v-360h101v-32z" />
    <glyph glyph-name="elevensixteenths" unicode="&#xf220;" horiz-adv-x="1400" 
d="M1358 395v-32q-95 0 -147 -69q-29 -38 -40 -85q36 36 88 36q53 0 85 -31.5t32 -91.5v-5q0 -60 -33.5 -91.5t-90.5 -31.5q-55 0 -90 36.5t-35 100.5v6q0 104 55 178q59 80 176 80zM434 0h-44l576 780h44zM1253 213q-62 0 -90 -55v-28q0 -47 25 -75.5t62 -28.5h3
q40 0 64 24t24 66v8q0 42 -23 65.5t-62 23.5h-3zM274 390h-239v32h102v311l-92 -62l-18 28l123 83h23v-360h101v-32zM574 390h-239v32h102v311l-92 -62l-18 28l123 83h23v-360h101v-32zM1074 0h-239v32h102v311l-92 -62l-18 28l123 83h23v-360h101v-32z" />
    <glyph glyph-name="thirteensixteenths" unicode="&#xf221;" horiz-adv-x="1400" 
d="M1358 395v-32q-95 0 -147 -69q-29 -38 -40 -85q36 36 88 36q53 0 85 -31.5t32 -91.5v-5q0 -60 -33.5 -91.5t-90.5 -31.5q-55 0 -90 36.5t-35 100.5v6q0 104 55 178q59 80 176 80zM434 0h-44l576 780h44zM361 515q0 -99 86 -99h5q36 0 61.5 19.5t25.5 55.5v7
q0 36 -23 55.5t-59 19.5h-57v32h55q36 0 58.5 17.5t22.5 51.5v4q0 34 -23 54.5t-61 20.5h-5q-43 0 -63.5 -24.5t-20.5 -78.5h-35v12q0 123 122 123q58 0 90 -28t32 -75v-7q0 -65 -61 -87q63 -22 63 -90v-8q0 -47 -34.5 -76.5t-89.5 -29.5q-62 0 -93.5 33t-31.5 92v6h36z
M1253 213q-62 0 -90 -55v-28q0 -47 25 -75.5t62 -28.5h3q40 0 64 24t24 66v8q0 42 -23 65.5t-62 23.5h-3zM274 390h-239v32h102v311l-92 -62l-18 28l123 83h23v-360h101v-32zM1074 0h-239v32h102v311l-92 -62l-18 28l123 83h23v-360h101v-32z" />
    <glyph glyph-name="fifteensixteenths" unicode="&#xf222;" horiz-adv-x="1400" 
d="M1358 395v-32q-95 0 -147 -69q-29 -38 -40 -85q36 36 88 36q53 0 85 -31.5t32 -91.5v-5q0 -60 -33.5 -91.5t-90.5 -31.5q-55 0 -90 36.5t-35 100.5v6q0 104 55 178q59 80 176 80zM325 515h36q0 -99 86 -99h5q37 0 62 23t25 67v9q0 45 -25.5 67.5t-62.5 22.5h-4
q-28 0 -53 -14t-36 -39l-30 9l10 219h231v-33h-197l-6 -139q34 29 85 29q54 0 88.5 -32.5t34.5 -90.5v-6q0 -59 -34.5 -91.5t-89.5 -32.5q-62 0 -93.5 33t-31.5 92v6zM434 0h-44l576 780h44zM1253 213q-62 0 -90 -55v-28q0 -47 25 -75.5t62 -28.5h3q40 0 64 24t24 66v8
q0 42 -23 65.5t-62 23.5h-3zM274 390h-239v32h102v311l-92 -62l-18 28l123 83h23v-360h101v-32zM1074 0h-239v32h102v311l-92 -62l-18 28l123 83h23v-360h101v-32z" />
    </font>
</defs>
</svg>
