<?xml version="1.0" standalone="no"?>
<!DOCTYPE svg PUBLIC "-//W3C//DTD SVG 1.1//EN" "http://www.w3.org/Graphics/SVG/1.1/DTD/svg11.dtd" >
<svg xmlns="http://www.w3.org/2000/svg" xmlns:xlink="http://www.w3.org/1999/xlink" version="1.1">
<metadata>
Created by FontForge 20170731 at Fri Jun  6 20:29:51 2014
 By Aleksey,,,
Copyright (c) 2014, Cooper Hewitt Smithsonian Design Museum (cooperhewitt.org)
</metadata>
<defs>
<font id="CooperHewitt-BoldItalic" horiz-adv-x="300" >
  <font-face 
    font-family="Cooper Hewitt"
    font-weight="712"
    font-style="italic"
    font-stretch="normal"
    units-per-em="1000"
    panose-1="0 0 0 0 0 0 0 0 0 0"
    ascent="750"
    descent="-250"
    x-height="530"
    cap-height="780"
    bbox="-304 -226 1382 969"
    underline-thickness="20"
    underline-position="-130"
    unicode-range="U+0020-F222"
  />
<missing-glyph horiz-adv-x="962" 
d="M91 0v780h780v-780h-780zM481 345l-279 -279h558zM202 714l279 -279l279 279h-558zM436 390l-275 275v-550zM526 390l275 -275v550z" />
    <glyph glyph-name=".notdef" horiz-adv-x="962" 
d="M91 0v780h780v-780h-780zM481 345l-279 -279h558zM202 714l279 -279l279 279h-558zM436 390l-275 275v-550zM526 390l275 -275v550z" />
    <glyph glyph-name=".null" horiz-adv-x="0" 
 />
    <glyph glyph-name="nonmarkingreturn" horiz-adv-x="333" 
 />
    <glyph glyph-name="space" unicode=" " horiz-adv-x="200" 
 />
    <glyph glyph-name="exclam" unicode="!" horiz-adv-x="265" 
d="M88 780h196l-114 -552h-112zM190 167l-22 -167h-167l22 167h167z" />
    <glyph glyph-name="quotedbl" unicode="&#x22;" horiz-adv-x="446" 
d="M100 780h155l-51 -323h-121zM298 780h154l-67 -323h-121z" />
    <glyph glyph-name="numbersign" unicode="#" horiz-adv-x="600" 
d="M384 780l-61 -193h81l61 193h137l-61 -193h64l-18 -138h-89l-37 -118h66l-18 -138h-92l-60 -193h-137l60 193h-81l-60 -193h-137l60 193h-63l18 138h89l37 118h-66l18 138h91l61 193h137zM280 449l-37 -118h81l37 118h-81z" />
    <glyph glyph-name="dollar" unicode="$" horiz-adv-x="600" 
d="M263 333q-109 20 -156 63.5t-37 125.5l2 17q10 90 81 141t182 51q23 0 34 -1l41 110h121l-51 -138q107 -53 88 -200l-2 -11h-157q18 110 -83 110h-5q-43 0 -67.5 -21t-24.5 -56q0 -31 25 -45.5t92 -25.5q102 -16 154 -62t43 -127l-2 -17q-11 -95 -82 -145.5t-191 -50.5
q-20 0 -29 1l-41 -112h-121l50 137q-120 55 -96 197l1 7h159q-8 -47 16 -74t73 -27h5q46 0 71 20t25 56q0 33 -27.5 49.5t-90.5 27.5z" />
    <glyph glyph-name="percent" unicode="%" horiz-adv-x="981" 
d="M928 188l-1 -11q-8 -86 -68.5 -138t-131.5 -52q-92 0 -139 51.5t-39 136.5l1 11q8 86 68.5 138t131.5 52q92 0 139 -51.5t39 -136.5zM811 176l1 11q3 31 -15.5 51.5t-47.5 20.5h-10q-28 0 -49 -19.5t-24 -52.5l-1 -11q-3 -31 15.5 -51.5t47.5 -20.5h10q28 0 49 19.5
t24 52.5zM174 604l-1 -11q-3 -31 15.5 -51.5t47.5 -20.5h10q28 0 49 19.5t24 52.5l1 11q3 31 -15.5 51.5t-47.5 20.5h-10q-28 0 -49 -19.5t-24 -52.5zM57 592l1 11q8 86 68.5 138t131.5 52q43 0 85 -15q75 -27 177 -27q127 0 226 32l-10 -75l-388 -708h-138l347 633
q-30 -8 -72 -8q-26 0 -48 3q0 -3 -0.5 -11t-0.5 -12l-1 -11q-8 -86 -68.5 -138t-131.5 -52q-92 0 -139 51.5t-39 136.5z" />
    <glyph glyph-name="ampersand" unicode="&#x26;" horiz-adv-x="691" 
d="M204 -13q-110 0 -164.5 59t-42.5 161l2 17q16 135 136 200q-61 84 -47 178l2 14q11 78 71 127.5t165 49.5q112 0 162 -53t38 -131l-2 -13q-6 -39 -22 -70t-44 -55t-51.5 -38.5t-62.5 -34.5l101 -141q42 64 52 131l1 7h166q-25 -164 -127 -266l93 -129h-190l-28 37
q-98 -50 -208 -50zM242 123h6q23 0 49.5 8t35.5 17l-122 171q-43 -37 -50 -87l-1 -8q-6 -49 14.5 -75t67.5 -26zM249 608l-1 -8q-6 -52 25 -97q31 18 46.5 28.5t30.5 28.5t17 38l1 8q3 24 -10.5 40.5t-38.5 16.5h-6q-25 0 -43 -15.5t-21 -39.5z" />
    <glyph glyph-name="quotesingle" unicode="'" horiz-adv-x="265" 
d="M100 780h171l-67 -323h-121z" />
    <glyph glyph-name="parenleft" unicode="(" horiz-adv-x="365" 
d="M36 346l3 29q28 268 206 465h162q-187 -222 -213 -465l-3 -29q-14 -130 12 -242t78 -224h-160q-52 109 -76 213.5t-9 252.5z" />
    <glyph glyph-name="parenright" unicode=")" horiz-adv-x="365" 
d="M326 374l-3 -29q-28 -268 -206 -465h-162q187 222 213 465l3 29q14 130 -12 242t-78 224h160q52 -109 76 -213.5t9 -252.5z" />
    <glyph glyph-name="asterisk" unicode="*" horiz-adv-x="413" 
d="M218 800h89l-23 -134h-79zM37 621l38 85l120 -47l-35 -75zM131 415l-65 52l97 105l58 -46zM423 706l17 -85l-134 -37l-14 75zM370 467l-78 -52l-61 111l70 46z" />
    <glyph glyph-name="plus" unicode="+" horiz-adv-x="600" 
d="M265 648h140l-25 -188h188l-18 -140h-188l-25 -188h-140l25 188h-188l18 140h188z" />
    <glyph glyph-name="comma" unicode="," horiz-adv-x="266" 
d="M190 167l-17 -130q-23 -180 -195 -180l10 76q82 0 98 67h-85l22 167h167z" />
    <glyph glyph-name="hyphen" unicode="-" horiz-adv-x="353" 
d="M27 281l18 138h273l-18 -138h-273z" />
    <glyph glyph-name="period" unicode="." horiz-adv-x="266" 
d="M190 167l-22 -167h-167l22 167h167z" />
    <glyph glyph-name="slash" unicode="/" horiz-adv-x="414" 
d="M460 840l-356 -960h-153l356 960h153z" />
    <glyph glyph-name="zero" unicode="0" horiz-adv-x="600" 
d="M578 558l-44 -336q-16 -121 -79.5 -178t-192.5 -57q-128 0 -190 63.5t-48 171.5l44 336q16 121 79.5 178t192.5 57q128 0 190 -63.5t48 -171.5zM374 223l44 335q6 45 -14.5 70t-67.5 25h-4q-49 0 -73 -22t-31 -74l-44 -335q-6 -45 14.5 -70t67.5 -25h4q49 0 73 22t31 74z
" />
    <glyph glyph-name="one" unicode="1" horiz-adv-x="600" 
d="M512 0h-502l18 140h171l58 442l-134 -82l-64 116l266 165h118l-84 -641h172z" />
    <glyph glyph-name="two" unicode="2" horiz-adv-x="600" 
d="M310 140h215l-18 -140h-512l13 101l343 331q35 33 49 55.5t18 52.5l1 8q7 52 -14 78.5t-62 26.5h-10q-47 0 -74 -30.5t-36 -102.5h-160l3 22q17 127 84 189t190 62q133 0 193 -66t48 -158l-3 -22q-8 -59 -31.5 -96.5t-80.5 -92.5l-227 -219z" />
    <glyph glyph-name="three" unicode="3" horiz-adv-x="600" 
d="M182 250q-10 -69 13 -96t69 -27h10q42 0 71 23.5t35 72.5l1 8q12 97 -82 97h-106l18 140h104q93 0 104 90l1 8q5 39 -16.5 63t-58.5 24h-10q-95 0 -112 -133h-160l3 22q34 251 274 251q133 0 193.5 -64.5t48.5 -151.5l-3 -22q-8 -62 -40 -103t-81 -55q47 -14 69.5 -62
t13.5 -114l-3 -22q-5 -39 -22 -74.5t-48 -67.5t-82 -51t-117 -19q-138 0 -201.5 64.5t-48.5 176.5l3 22h160z" />
    <glyph glyph-name="four" unicode="4" horiz-adv-x="600" 
d="M439 0h-160l23 170h-303l15 116l376 494h152l-62 -470h85l-19 -140h-84zM349 525l-165 -217l52 2h84l21 156z" />
    <glyph glyph-name="five" unicode="5" horiz-adv-x="600" 
d="M22 250h160q-10 -69 13 -96t69 -27h10q42 0 71.5 28.5t37.5 87.5l1 8q7 57 -19.5 86.5t-68.5 29.5h-10q-75 0 -113 -61l-132 47l75 427h488l-19 -140h-353l-31 -174q49 40 134 40q111 0 168 -69.5t42 -179.5l-3 -22q-16 -117 -86.5 -182.5t-186.5 -65.5
q-138 0 -201.5 64.5t-48.5 176.5z" />
    <glyph glyph-name="six" unicode="6" horiz-adv-x="600" 
d="M578 793l-18 -142q-175 0 -266 -91q-47 -47 -67 -114q50 47 135 47q97 0 148.5 -64.5t36.5 -171.5l-3 -22q-16 -119 -85.5 -183.5t-190.5 -64.5q-136 0 -196 80.5t-42 214.5l3 22q31 229 153 351q79 79 172 108.5t220 29.5zM189 293q-8 -37 -8 -57q0 -54 22.5 -81.5
t59.5 -27.5h10q97 0 112 116l1 8q6 49 -18 75t-64 26h-10q-63 0 -105 -59z" />
    <glyph glyph-name="seven" unicode="7" horiz-adv-x="600" 
d="M52 500l37 280h530l-13 -101l-365 -679h-173l353 642l-95 -2h-115l-18 -140h-141z" />
    <glyph glyph-name="eight" unicode="8" horiz-adv-x="600" 
d="M264 -13q-130 0 -195 64.5t-52 157.5l3 22q18 127 131 166q-41 12 -66 60t-17 105l3 22q5 39 21 73.5t45.5 66.5t81 50.5t119.5 18.5q133 0 194.5 -64.5t49.5 -151.5l-3 -22q-8 -62 -39.5 -103t-80.5 -55q46 -14 68.5 -62.5t13.5 -113.5l-3 -22q-5 -39 -23 -75t-49 -67.5
t-83.5 -50.5t-118.5 -19zM299 328h-14q-41 0 -70 -26.5t-35 -74.5l-1 -8q-6 -44 18.5 -68t66.5 -24h10q42 0 71 23.5t35 72.5l1 8q6 48 -16 72.5t-66 24.5zM345 653h-10q-45 0 -73.5 -23.5t-33.5 -67.5l-1 -8q-5 -39 18 -62.5t59 -23.5h11q93 0 104 90l1 8q5 39 -17 63
t-58 24z" />
    <glyph glyph-name="nine" unicode="9" horiz-adv-x="600" 
d="M26 -13l18 142q175 0 266 91q47 47 67 114q-50 -47 -135 -47q-97 0 -148.5 64.5t-36.5 171.5l3 22q16 119 85.5 183.5t190.5 64.5q136 0 196 -80.5t42 -214.5l-3 -22q-31 -229 -153 -351q-79 -79 -172 -108.5t-220 -29.5zM415 487q8 37 8 57q0 54 -22.5 81.5t-59.5 27.5
h-10q-97 0 -112 -116l-1 -8q-6 -49 18 -75t64 -26h10q63 0 105 59z" />
    <glyph glyph-name="colon" unicode=":" horiz-adv-x="266" 
d="M190 167l-22 -167h-167l22 167h167zM231 474l-22 -167h-167l22 167h167z" />
    <glyph glyph-name="semicolon" unicode=";" horiz-adv-x="266" 
d="M231 474l-22 -167h-167l22 167h167zM190 167l-17 -130q-23 -180 -195 -180l10 76q82 0 98 67h-85l22 167h167z" />
    <glyph glyph-name="less" unicode="&#x3c;" horiz-adv-x="600" 
d="M53 467l543 205l-20 -153l-359 -130l325 -130l-20 -151l-489 205z" />
    <glyph glyph-name="equal" unicode="=" horiz-adv-x="600" 
d="M48 429l18 140h516l-18 -140h-516zM20 211l18 140h516l-18 -140h-516z" />
    <glyph glyph-name="greater" unicode="&#x3e;" horiz-adv-x="600" 
d="M549 313l-543 -205l20 153l359 130l-325 130l20 151l489 -205z" />
    <glyph glyph-name="question" unicode="?" horiz-adv-x="497" 
d="M290 654q-41 0 -61.5 -32t-30.5 -106h-159l3 23q17 128 77.5 191t175.5 63q215 0 215 -168q0 -57 -21 -103t-52.5 -77.5t-63.5 -61t-58.5 -69t-33.5 -86.5h-112q0 61 28 118.5t61.5 94t61.5 79.5t28 78q0 56 -58 56zM301 167l-22 -167h-167l22 167h167z" />
    <glyph glyph-name="at" unicode="@" horiz-adv-x="991" 
d="M464 -110h10q174 0 324 110l52 -82q-173 -131 -381 -131q-232 0 -359 131.5t-97 359.5l5 38q31 230 173.5 353.5t347.5 123.5q99 0 181 -23.5t142.5 -70.5t89 -123.5t15.5 -175.5l-5 -38q-12 -87 -41.5 -148t-74.5 -93.5t-95 -46.5t-112 -14h-95l-3 59q-55 -72 -141 -72
q-95 0 -135.5 63t-26.5 168l5 38q14 104 68.5 165.5t143.5 61.5q97 0 135 -72l16 59h122l-26 -137l-30 -231q87 0 128.5 43.5t56.5 156.5l5 38q8 65 -6 116t-44.5 83t-74.5 53t-92 29.5t-101 8.5h-10q-169 0 -278 -94.5t-133 -279.5l-5 -38q-12 -93 8.5 -167.5t68 -122.5
t116 -73t153.5 -25zM563 374q-25 47 -81 47q-81 0 -95 -105l-5 -38q-15 -109 70 -109q53 0 90 47z" />
    <glyph glyph-name="A" unicode="A" horiz-adv-x="641" 
d="M262 782h223l93 -782h-174l-15 168h-190l-60 -168h-174zM351 601l-103 -293h128z" />
    <glyph glyph-name="B" unicode="B" horiz-adv-x="631" 
d="M109 780h258q50 0 89.5 -9t74.5 -31.5t50 -67t7 -107.5l-3 -23q-7 -58 -31 -90.5t-69 -48.5q96 -33 79 -166l-3 -23q-7 -55 -27.5 -95.5t-46.5 -62.5t-64 -35.5t-72 -17t-79 -3.5h-265zM322 328h-111l-24 -188h107q44 0 71.5 17t33.5 66l2 15q12 90 -79 90zM348 640h-95
l-23 -171h96q86 0 96 77l2 15q6 42 -16.5 60.5t-59.5 18.5z" />
    <glyph glyph-name="C" unicode="C" horiz-adv-x="650" 
d="M207 407l-4 -33q-15 -123 5.5 -185t85.5 -62h10q69 0 94.5 32.5t35.5 106.5h163l-2 -15q-19 -140 -93.5 -202t-206.5 -62q-305 0 -257 387l4 32q25 202 104.5 294.5t224.5 92.5q151 0 213.5 -68.5t45.5 -208.5l-4 -32h-163q11 88 -9 128.5t-82 40.5h-10q-125 0 -155 -246
z" />
    <glyph glyph-name="D" unicode="D" horiz-adv-x="663" 
d="M628 406l-4 -32q-26 -205 -114.5 -289.5t-261.5 -84.5h-241l102 780h228q173 0 244.5 -86.5t46.5 -287.5zM187 140h63q100 0 146.5 53.5t62.5 180.5l4 32q15 122 -14 178t-120 56h-76z" />
    <glyph glyph-name="E" unicode="E" horiz-adv-x="573" 
d="M109 780h477l-18 -140h-315l-23 -172h265l-18 -140h-265l-25 -188h315l-18 -140h-477z" />
    <glyph glyph-name="F" unicode="F" horiz-adv-x="549" 
d="M109 780h473l-18 -140h-311l-23 -172h261l-18 -140h-261l-43 -328h-162z" />
    <glyph glyph-name="G" unicode="G" horiz-adv-x="673" 
d="M314 -13q-151 0 -226 95t-50 292l4 32q25 201 106.5 294t227.5 93q152 0 216.5 -69t47.5 -208l-4 -32h-163q11 86 -11 127.5t-85 41.5h-10q-130 0 -160 -246l-4 -33q-30 -247 112 -247h10q69 0 106 27l17 128h-103l18 140h265l-45 -345q-40 -37 -110.5 -63.5
t-158.5 -26.5z" />
    <glyph glyph-name="H" unicode="H" horiz-adv-x="663" 
d="M498 780h162l-102 -780h-162l43 328h-227l-43 -328h-162l102 780h162l-41 -312h227z" />
    <glyph glyph-name="I" unicode="I" horiz-adv-x="283" 
d="M276 780l-102 -780h-162l102 780h162z" />
    <glyph glyph-name="J" unicode="J" horiz-adv-x="537" 
d="M377 780h162l-70 -541q-17 -129 -76 -190.5t-176 -61.5q-244 0 -213 247l4 32h154q-9 -75 3 -107t54 -32q43 0 62 27t28 98z" />
    <glyph glyph-name="K" unicode="K" horiz-adv-x="625" 
d="M271 780l-41 -301l232 301h197l-261 -313l159 -467h-179l-100 322l-81 -97l-28 -225h-162l102 780h162z" />
    <glyph glyph-name="L" unicode="L" horiz-adv-x="521" 
d="M457 0h-450l102 780h162l-84 -640h288z" />
    <glyph glyph-name="M" unicode="M" horiz-adv-x="869" 
d="M673 499l-205 -499h-165l-74 499l-18 -177l-42 -322h-162l102 780h236l71 -499l202 499h249l-102 -780h-162l42 322z" />
    <glyph glyph-name="N" unicode="N" horiz-adv-x="683" 
d="M109 780h169l188 -484l17 162l42 322h155l-102 -780h-169l-188 484l-17 -162l-42 -322h-155z" />
    <glyph glyph-name="O" unicode="O" horiz-adv-x="673" 
d="M376 793q155 0 221 -93.5t41 -293.5l-4 -32q-26 -204 -104 -295.5t-230 -91.5q-155 0 -221 93.5t-41 293.5l4 32q26 204 104 295.5t230 91.5zM299 127h10q71 0 107.5 61t52.5 186l4 32q16 125 -4 186t-92 61h-10q-71 0 -107.5 -61t-52.5 -186l-4 -32q-16 -125 4 -186
t92 -61z" />
    <glyph glyph-name="P" unicode="P" horiz-adv-x="609" 
d="M206 280l-37 -280h-162l102 780h263q265 0 233 -242l-3 -23q-8 -59 -29.5 -103t-48.5 -68.5t-65 -39.5t-72 -19.5t-77 -4.5h-104zM223 420h102q101 0 114 99l2 15q8 59 -19 82.5t-69 23.5h-100z" />
    <glyph glyph-name="Q" unicode="Q" horiz-adv-x="673" 
d="M376 793q155 0 221 -93.5t41 -293.5l-4 -32q-19 -152 -66.5 -240.5t-129.5 -121.5l30 -112h-126l-22 87h-20q-155 0 -221 93.5t-41 293.5l4 32q26 204 104 295.5t230 91.5zM372 262l26 -98q50 53 71 210l4 32q16 125 -4 186t-92 61h-10q-71 0 -107.5 -61t-52.5 -186
l-4 -32q-15 -119 2 -179.5t79 -66.5l-34 134h122z" />
    <glyph glyph-name="R" unicode="R" horiz-adv-x="623" 
d="M206 280l-37 -280h-162l102 780h263q265 0 233 -242l-3 -23q-24 -168 -151 -215l83 -300h-170l-69 280h-89zM223 420h102q101 0 114 99l2 15q8 59 -19 82.5t-69 23.5h-100z" />
    <glyph glyph-name="S" unicode="S" horiz-adv-x="631" 
d="M279 327q-241 44 -217 225l3 23q14 107 85.5 162.5t192.5 55.5q154 0 219.5 -67t48.5 -199l-3 -23h-162q10 77 -13 113t-89 36h-10q-42 0 -71 -20.5t-33 -56.5l-2 -15q-5 -38 22.5 -63t106.5 -40q245 -46 221 -230l-3 -23q-14 -108 -88 -163t-198 -55q-148 0 -218.5 65.5
t-54.5 190.5l3 23h162q-19 -139 107 -139h10q101 0 112 77l2 15q6 41 -23.5 67t-109.5 41z" />
    <glyph glyph-name="T" unicode="T" horiz-adv-x="557" 
d="M394 640l-84 -640h-162l84 640h-180l18 140h523l-18 -140h-181z" />
    <glyph glyph-name="U" unicode="U" horiz-adv-x="663" 
d="M293 -13q-155 0 -215.5 64.5t-43.5 195.5l70 533h162l-69 -528q-9 -65 12.5 -95t87.5 -30q67 0 97.5 30t39.5 95l69 528h162l-70 -533q-17 -134 -83.5 -197t-218.5 -63z" />
    <glyph glyph-name="V" unicode="V" horiz-adv-x="641" 
d="M383 -2h-223l-93 782h174l53 -601l212 601h174z" />
    <glyph glyph-name="W" unicode="W" horiz-adv-x="937" 
d="M529 -2l-28 587l-175 -587h-225l-29 782h158l18 -559l167 559h213l27 -560l159 560h157l-233 -782h-209z" />
    <glyph glyph-name="X" unicode="X" horiz-adv-x="649" 
d="M-30 0l248 397l-146 383h187l86 -261l155 261h183l-248 -384l146 -396h-187l-86 260l-155 -260h-183z" />
    <glyph glyph-name="Y" unicode="Y" horiz-adv-x="625" 
d="M376 239l-31 -239h-162l31 239l-153 541h174l83 -343l172 343h180z" />
    <glyph glyph-name="Z" unicode="Z" horiz-adv-x="599" 
d="M4 108l383 535l-143 -3h-160l18 140h499l-14 -108l-383 -535l142 3h181l-18 -140h-519z" />
    <glyph glyph-name="bracketleft" unicode="[" horiz-adv-x="365" 
d="M119 840h274l-18 -138h-117l-90 -684h117l-18 -138h-274z" />
    <glyph glyph-name="backslash" unicode="\" horiz-adv-x="412" 
d="M180 -120l-104 960h154l104 -960h-154z" />
    <glyph glyph-name="bracketright" unicode="]" horiz-adv-x="365" 
d="M242 -120h-274l18 138h117l90 684h-117l18 138h274z" />
    <glyph glyph-name="asciicircum" unicode="^" horiz-adv-x="600" 
d="M430 780l137 -516h-152l-81 338l-171 -338h-160l273 516h154z" />
    <glyph glyph-name="underscore" unicode="_" horiz-adv-x="320" 
d="M-32 -185l18 138h236l-18 -138h-236z" />
    <glyph glyph-name="grave" unicode="`" horiz-adv-x="500" 
d="M118 780h172l67 -184h-156z" />
    <glyph glyph-name="a" unicode="a" horiz-adv-x="549" 
d="M320 0v59q-38 -36 -75.5 -54t-89.5 -18q-85 0 -125 46.5t-31 114.5l2 15q11 82 60 115t148 48l130 20l1 8q5 36 -11 52.5t-55 16.5q-72 0 -78 -68h-149l2 15q8 55 28.5 90.5t71 59t131.5 23.5q123 0 175.5 -53t40.5 -149l-25 -192l-10 -149h-141zM208 115q66 0 107 48
l12 89l-98 -15q-59 -9 -67 -58l-2 -13q-7 -51 48 -51z" />
    <glyph glyph-name="b" unicode="b" horiz-adv-x="574" 
d="M266 800l-41 -312q49 55 137 55q99 0 142.5 -69t27.5 -190l-5 -38q-16 -121 -71.5 -190t-153.5 -69q-106 0 -147 78l-18 -65h-142l28 150l85 650h158zM265 123q89 0 104 123l5 38q17 123 -74 123q-53 0 -92 -49l-24 -183q26 -52 81 -52z" />
    <glyph glyph-name="c" unicode="c" horiz-adv-x="527" 
d="M176 284l-5 -38q-17 -123 69 -123q36 0 58.5 21t26.5 52h149l-2 -15q-25 -194 -237 -194q-124 0 -181 71t-41 188l5 38q35 259 264 259q116 0 170 -53t41 -151l-2 -15h-149q5 38 -10.5 60.5t-54.5 22.5q-85 0 -101 -123z" />
    <glyph glyph-name="d" unicode="d" horiz-adv-x="582" 
d="M190 -13q-99 0 -142.5 69t-27.5 190l5 38q16 121 71.5 190t153.5 69q51 0 85.5 -18t49.5 -41l42 316h158l-86 -651l-10 -149h-141v70q-51 -83 -158 -83zM287 407q-89 0 -104 -123l-5 -38q-17 -123 74 -123q53 0 92 49l24 183q-26 52 -81 52z" />
    <glyph glyph-name="e" unicode="e" horiz-adv-x="556" 
d="M504 208h-341q-12 -101 89 -101q88 0 98 63h149l-2 -15q-10 -75 -73 -121.5t-172 -46.5q-136 0 -195.5 71t-43.5 188l5 38q15 118 82 188.5t187 70.5q133 0 186.5 -77.5t36.5 -210.5zM287 423q-91 0 -109 -101h183q8 101 -74 101z" />
    <glyph glyph-name="f" unicode="f" horiz-adv-x="411" 
d="M288 606l-10 -76h116l-18 -138h-116l-51 -392h-158l51 392h-82l18 138h82l12 93q25 190 220 190q58 0 87 -13l-17 -130q-18 7 -50 7q-37 0 -57.5 -14.5t-26.5 -56.5z" />
    <glyph glyph-name="g" unicode="g" horiz-adv-x="574" 
d="M315 7l9 67q-49 -55 -137 -55q-99 0 -143 66.5t-29 176.5l5 38q14 110 69.5 176.5t153.5 66.5q106 0 147 -78l18 65h142l-28 -150l-50 -380q-14 -106 -80.5 -159.5t-173.5 -53.5q-135 0 -188 54t-41 144l2 15h149q-6 -43 10 -64t66 -21q44 0 68 21.5t31 70.5zM341 204
l20 151q-26 52 -81 52q-89 0 -102 -107l-5 -38q-7 -50 12.5 -78.5t62.5 -28.5q54 0 93 49z" />
    <glyph glyph-name="h" unicode="h" horiz-adv-x="580" 
d="M5 0l105 800h158l-42 -318q66 61 149 61q91 0 128.5 -50.5t26.5 -134.5l-47 -358h-158l44 335q9 72 -59 72q-60 0 -100 -49l-47 -358h-158z" />
    <glyph glyph-name="i" unicode="i" horiz-adv-x="266" 
d="M5 0l69 530h158l-69 -530h-158zM268 772l-22 -167h-167l22 167h167z" />
    <glyph glyph-name="j" unicode="j" horiz-adv-x="268" 
d="M268 772l-22 -167h-167l22 167h167zM4 -6l70 536h158l-72 -553q-25 -190 -220 -190q-58 0 -87 13l17 130q18 -7 50 -7q37 0 57.5 14.5t26.5 56.5z" />
    <glyph glyph-name="k" unicode="k" horiz-adv-x="562" 
d="M1 0l105 800h158l-59 -448l169 178h190l-202 -201l133 -329h-178l-77 208l-62 -62l-19 -146h-158z" />
    <glyph glyph-name="l" unicode="l" horiz-adv-x="266" 
d="M5 0l105 800h158l-105 -800h-158z" />
    <glyph glyph-name="m" unicode="m" horiz-adv-x="863" 
d="M512 366l-48 -366h-158l45 343q8 64 -57 64q-51 0 -83 -41l-48 -366h-158l50 381l10 149h141v-60q58 73 156 73q104 0 139 -80q61 80 162 80q82 0 121 -50.5t29 -126.5l-48 -366h-158l45 343q8 64 -57 64q-51 0 -83 -41z" />
    <glyph glyph-name="n" unicode="n" horiz-adv-x="580" 
d="M483 0h-158l44 335q9 72 -59 72q-60 0 -100 -49l-47 -358h-158l50 381l10 149h141v-70q69 83 169 83q91 0 128.5 -50.5t26.5 -134.5z" />
    <glyph glyph-name="o" unicode="o" horiz-adv-x="556" 
d="M247 123q88 0 104 123l5 38q17 123 -76 123q-88 0 -104 -123l-5 -38q-17 -123 76 -123zM242 -13q-127 0 -186 71t-43 188l5 38q33 259 267 259q127 0 186 -71t43 -188l-5 -38q-35 -259 -267 -259z" />
    <glyph glyph-name="p" unicode="p" horiz-adv-x="574" 
d="M134 -200h-158l77 581l10 149h141v-70q51 83 158 83q99 0 142.5 -69t27.5 -190l-5 -38q-16 -121 -71.5 -190t-153.5 -69q-51 0 -85.5 18t-49.5 41zM265 123q89 0 104 123l5 38q17 123 -74 123q-53 0 -92 -49l-24 -183q26 -52 81 -52z" />
    <glyph glyph-name="q" unicode="q" horiz-adv-x="581" 
d="M448 -200h-158l32 242q-49 -55 -137 -55q-99 0 -142.5 69t-27.5 190l5 38q16 121 71.5 190t153.5 69q106 0 147 -78l18 65h142l-28 -150zM282 407q-89 0 -104 -123l-5 -38q-17 -123 74 -123q53 0 92 49l24 183q-26 52 -81 52z" />
    <glyph glyph-name="r" unicode="r" horiz-adv-x="385" 
d="M360 543q13 0 14 -1l-21 -162h-13q-96 0 -133 -45l-44 -335h-158l50 381l10 149h141v-70q56 83 154 83z" />
    <glyph glyph-name="s" unicode="s" horiz-adv-x="528" 
d="M267 324q104 -12 156.5 -49t41.5 -118l-2 -15q-10 -73 -70 -114t-164 -41q-122 0 -178 43t-45 123l2 15h157q-5 -28 12.5 -44.5t56.5 -16.5q73 0 73 58q0 21 -16 32.5t-56 15.5q-108 12 -156 50.5t-38 113.5l2 15q10 76 72 113.5t157 37.5q119 0 172 -44.5t42 -127.5
l-2 -15h-155q10 67 -62 67q-33 0 -52.5 -15t-19.5 -40q0 -20 16 -30t56 -14z" />
    <glyph glyph-name="t" unicode="t" horiz-adv-x="431" 
d="M278 530h136l-18 -138h-136l-26 -197q-5 -37 9 -54.5t58 -17.5q37 0 51 7l-17 -130q-26 -13 -75 -13q-113 0 -155.5 49.5t-31.5 135.5l29 220h-82l18 138h82l20 150h158z" />
    <glyph glyph-name="u" unicode="u" horiz-adv-x="580" 
d="M68 530h158l-44 -335q-9 -72 59 -72q60 0 100 49l47 358h158l-50 -381l-10 -149h-141v70q-69 -83 -169 -83q-91 0 -128.5 50.5t-26.5 134.5z" />
    <glyph glyph-name="v" unicode="v" horiz-adv-x="549" 
d="M115 0l-85 530h159l49 -403l154 403h168l-224 -530h-221z" />
    <glyph glyph-name="w" unicode="w" horiz-adv-x="766" 
d="M382 365l-121 -365h-203l-19 530h150l-2 -359l120 359h192l28 -359l87 359h153l-159 -530h-199z" />
    <glyph glyph-name="x" unicode="x" horiz-adv-x="558" 
d="M37 530h183l60 -166l101 166h181l-169 -263l100 -267h-183l-56 172l-105 -172h-181l178 273z" />
    <glyph glyph-name="y" unicode="y" horiz-adv-x="551" 
d="M251 192l143 338h175l-253 -502l-98 -228h-188l115 228l-120 502h169z" />
    <glyph glyph-name="z" unicode="z" horiz-adv-x="499" 
d="M-12 108l268 287l-111 -3h-110l18 138h431l-14 -108l-268 -287l111 3h130l-18 -138h-451z" />
    <glyph glyph-name="braceleft" unicode="{" horiz-adv-x="365" 
d="M393 840l-18 -138q-39 0 -59.5 -17t-26.5 -59l-20 -150q-6 -46 -24.5 -72.5t-54.5 -43.5q31 -17 43 -43.5t6 -72.5l-19 -141q-7 -48 9 -66.5t56 -18.5l-18 -138h-27q-95 0 -145.5 41t-37.5 137l21 159q10 74 -65 74l18 138q39 0 59.5 18.5t26.5 63.5l20 151
q23 178 229 178h27z" />
    <glyph glyph-name="bar" unicode="|" horiz-adv-x="261" 
d="M-11 -120l126 960h154l-126 -960h-154z" />
    <glyph glyph-name="braceright" unicode="}" horiz-adv-x="365" 
d="M-32 -120l18 138q39 0 59.5 17t26.5 59l20 150q6 46 24.5 72.5t54.5 43.5q-31 17 -43 43.5t-6 72.5l19 141q7 48 -9 66.5t-56 18.5l18 138h27q95 0 145.5 -41t37.5 -137l-21 -159q-10 -74 65 -74l-18 -138q-39 0 -59.5 -18.5t-26.5 -63.5l-20 -151q-23 -178 -229 -178
h-27z" />
    <glyph glyph-name="asciitilde" unicode="~" horiz-adv-x="600" 
d="M192 482q57 0 123 -32.5t95 -32.5q55 0 100 48l64 -74q-61 -95 -162 -95q-56 0 -123 32.5t-97 32.5q-53 0 -98 -48l-64 74q61 95 162 95z" />
    <glyph glyph-name="nbspace" unicode="&#xa0;" horiz-adv-x="200" 
 />
    <glyph glyph-name="exclamdown" unicode="&#xa1;" horiz-adv-x="265" 
d="M155 -200h-196l108 502h112zM47 363l22 167h167l-22 -167h-167z" />
    <glyph glyph-name="cent" unicode="&#xa2;" horiz-adv-x="600" 
d="M192 -60h-121l54 149q-115 72 -87 282l5 38q22 166 95 244t206 78q13 0 20 -1l40 110h121l-49 -134q121 -54 101 -210l-4 -30h-156q21 127 -83 127q-107 0 -131 -184l-4 -30q-25 -190 91 -190q92 0 105 105h155l-2 -13q-17 -111 -83.5 -170.5t-182.5 -59.5q-18 0 -48 2z
" />
    <glyph glyph-name="sterling" unicode="&#xa3;" horiz-adv-x="600" 
d="M355 654q-45 0 -62.5 -34.5t-17.5 -98.5q0 -44 7 -87h177l-19 -137h-140q8 -90 4 -158h222l-19 -139h-512l19 139h152q-1 71 -19 158h-113l19 137h67q-6 50 -6 79q0 52 10.5 97.5t36 88.5t76.5 68.5t123 25.5q130 0 183 -64.5t34 -199.5l-4 -29h-159q21 154 -59 154z" />
    <glyph glyph-name="yen" unicode="&#xa5;" horiz-adv-x="600" 
d="M37 342l18 138h91l-86 300h178l71 -334l159 334h178l-165 -300h92l-18 -138h-150l-34 -62h175l-18 -138h-178l-18 -142h-162l18 142h-178l18 138h175l-18 62h-148z" />
    <glyph glyph-name="brokenbar" unicode="&#xa6;" horiz-adv-x="261" 
d="M55 384l60 456h154l-60 -456h-154zM-11 -120l60 456h154l-60 -456h-154z" />
    <glyph glyph-name="section" unicode="&#xa7;" horiz-adv-x="549" 
d="M122 514q-37 38 -28 106l2 15q11 78 75 118t156 40q121 0 173.5 -45.5t41.5 -126.5l-2 -15h-153q4 32 -13 50t-52 18q-70 0 -70 -59q0 -42 75 -50q108 -12 156 -50.5t38 -113.5l-2 -15q-11 -86 -89 -120q37 -38 28 -106l-2 -15q-11 -78 -75 -118t-156 -40
q-121 0 -173.5 45.5t-41.5 126.5l2 15h153q-4 -32 13 -50t52 -18q70 0 70 59q0 42 -75 50q-108 12 -156 50.5t-38 113.5l2 15q11 86 89 120zM267 325h9q42 0 64.5 21t22.5 53q0 56 -78 56h-9q-42 0 -64.5 -21t-22.5 -53q0 -56 78 -56z" />
    <glyph glyph-name="dieresis" unicode="&#xa8;" horiz-adv-x="500" 
d="M278 772l-22 -167h-167l22 167h167zM493 772l-22 -167h-167l22 167h167z" />
    <glyph glyph-name="copyright" unicode="&#xa9;" horiz-adv-x="920" 
d="M57 390q0 167 118 285t285 118t285 -118t118 -285t-118 -285t-285 -118t-285 118t-118 285zM113 390q0 -144 101.5 -245.5t245.5 -101.5t245.5 101.5t101.5 245.5t-101.5 245.5t-245.5 101.5t-245.5 -101.5t-101.5 -245.5zM463 264q34 0 52 17.5t18 45.5h133v-20
q0 -74 -53 -120t-153 -46q-109 0 -162.5 63.5t-53.5 168.5v34q0 105 53.5 168.5t162.5 63.5q101 0 153.5 -47.5t52.5 -126.5v-21h-133q0 72 -70 72q-78 0 -78 -109v-34q0 -109 78 -109z" />
    <glyph glyph-name="ordfeminine" unicode="&#xaa;" horiz-adv-x="429" 
d="M280 387v42q-43 -52 -122 -52q-68 0 -96.5 35t-18.5 87l2 11q11 61 49 87.5t114 37.5l86 13q0 22 -8 32t-31 10q-43 0 -46 -38h-130l1 9q15 132 182 132q102 0 140.5 -40t28.5 -112l-19 -142l-7 -112h-125zM375 181h-362l16 119h362zM218 487q27 0 58 22l8 61l-57 -9
q-38 -6 -43 -36l-1 -6q-2 -14 6.5 -23t28.5 -9z" />
    <glyph glyph-name="guillemotleft" unicode="&#xab;" horiz-adv-x="565" 
d="M291 563l-19 -144l-120 -84l98 -84l-18 -134l-197 147l20 152zM541 563l-19 -144l-120 -84l98 -84l-18 -134l-197 147l20 152z" />
    <glyph glyph-name="logicalnot" unicode="&#xac;" horiz-adv-x="600" 
d="M67 576h516l-51 -382h-139l32 242h-376z" />
    <glyph glyph-name="uni00AD" unicode="&#xad;" horiz-adv-x="353" 
d="M27 281l18 138h273l-18 -138h-273z" />
    <glyph glyph-name="registered" unicode="&#xae;" horiz-adv-x="330" 
d="M17 665q0 61 43.5 104.5t104.5 43.5t104.5 -43.5t43.5 -104.5t-43.5 -104.5t-104.5 -43.5t-104.5 43.5t-43.5 104.5zM41 665q0 -52 36 -88t88 -36t88 36t36 88t-36 88t-88 36t-88 -36t-36 -88zM241 689q0 -39 -28 -51l28 -59h-57l-21 53h-19v-53h-55v172h91q61 0 61 -57
v-5zM186 693q0 17 -18 17h-24v-37h24q18 0 18 17v3z" />
    <glyph glyph-name="macron" unicode="&#xaf;" horiz-adv-x="500" 
d="M132 619l18 138h300l-18 -138h-300z" />
    <glyph glyph-name="degree" unicode="&#xb0;" horiz-adv-x="400" 
d="M245 793q73 0 116 -41.5t36 -115.5l-1 -11q-7 -73 -56.5 -116t-117.5 -43q-73 0 -116 41.5t-36 115.5l1 11q7 73 56.5 116t117.5 43zM299 624l1 11q2 25 -13 43.5t-43 18.5h-10q-27 0 -45.5 -17.5t-20.5 -44.5l-1 -11q-2 -25 13 -43.5t43 -18.5h10q27 0 45.5 17.5
t20.5 44.5z" />
    <glyph glyph-name="plusminus" unicode="&#xb1;" horiz-adv-x="600" 
d="M362 317h-140l14 108h-188l18 140h188l14 108h140l-14 -108h188l-18 -140h-188zM11 136l18 140h516l-18 -140h-516z" />
    <glyph glyph-name="twosuperior" unicode="&#xb2;" 
d="M305 493l-13 -103h-272l10 78l158 151q17 17 19 31l2 15q3 24 -13 24h-2q-17 0 -21 -39h-120l1 9q15 134 147 134q73 0 104.5 -38.5t25.5 -78.5l-2 -15q-4 -30 -17.5 -51t-41.5 -48l-73 -69h108z" />
    <glyph glyph-name="threesuperior" unicode="&#xb3;" 
d="M149 515q-6 -34 14 -34h2q17 0 21 28l1 7q3 25 -17 25h-48l12 96h47q18 0 21 21l1 7q3 24 -13 24h-2q-17 0 -21 -39h-120l1 9q15 134 147 134q73 0 104.5 -38.5t25.5 -78.5l-2 -15q-8 -55 -61 -72q23 -9 35 -31t8 -53l-2 -15q-7 -54 -46.5 -83.5t-98.5 -29.5
q-64 0 -100.5 35t-29.5 94l1 9h120z" />
    <glyph glyph-name="acute" unicode="&#xb4;" horiz-adv-x="500" 
d="M316 780h172l-131 -184h-156z" />
    <glyph glyph-name="paragraph" unicode="&#xb6;" horiz-adv-x="549" 
d="M283 0l36 280h-43q-265 0 -233 242l3 23q8 59 29 102.5t48.5 68.5t65.5 40t72 19.5t77 4.5h209l-102 -780h-162z" />
    <glyph glyph-name="periodcentered" unicode="&#xb7;" horiz-adv-x="266" 
d="M225 434l-22 -167h-167l22 167h167z" />
    <glyph glyph-name="cedilla" unicode="&#xb8;" horiz-adv-x="602" 
d="M69 -190l32 66q25 -17 74 -17q46 0 46 25q0 21 -45 21l-39 -5l-11 28l39 72h72l-21 -40q90 -7 90 -78q0 -45 -34.5 -71t-91.5 -26q-74 0 -111 25z" />
    <glyph glyph-name="onesuperior" unicode="&#xb9;" 
d="M292 390h-263l13 103h72l19 142l-38 -23l-48 85l136 85h89l-38 -289h71z" />
    <glyph glyph-name="ordmasculine" unicode="&#xba;" horiz-adv-x="443" 
d="M230 376q-88 0 -137 54t-37 141l4 29q12 90 65.5 142.5t140.5 52.5q88 0 137 -54t37 -141l-4 -29q-12 -90 -65.5 -142.5t-140.5 -52.5zM299 571l4 29q11 76 -48 76q-48 0 -58 -76l-4 -29q-11 -76 48 -76q48 0 58 76zM377 181h-364l16 119h364z" />
    <glyph glyph-name="guillemotright" unicode="&#xbb;" horiz-adv-x="565" 
d="M265 117l19 144l120 84l-98 84l18 134l197 -147l-20 -152zM15 117l19 144l120 84l-98 84l18 134l197 -147l-20 -152z" />
    <glyph glyph-name="onequarter" unicode="&#xbc;" horiz-adv-x="800" 
d="M292 390h-263l13 103h72l19 142l-38 -23l-48 85l136 85h89l-38 -289h71zM130 0h-134l678 780h134zM708 0h-120l9 68h-131l12 97l167 225h114l-29 -219h32l-13 -103h-32zM619 235l-46 -64h37z" />
    <glyph glyph-name="onehalf" unicode="&#xbd;" horiz-adv-x="800" 
d="M292 390h-263l13 103h72l19 142l-38 -23l-48 85l136 85h89l-38 -289h71zM130 0h-134l678 780h134zM754 103l-13 -103h-272l10 78l158 151q17 17 19 31l2 15q3 24 -13 24h-2q-17 0 -21 -39h-120l1 9q15 134 147 134q73 0 104.5 -38.5t25.5 -78.5l-2 -15q-4 -30 -17.5 -51
t-41.5 -48l-73 -69h108z" />
    <glyph glyph-name="threequarters" unicode="&#xbe;" horiz-adv-x="800" 
d="M149 515q-6 -34 14 -34h2q17 0 21 28l1 7q3 25 -17 25h-48l12 96h47q18 0 21 21l1 7q3 24 -13 24h-2q-17 0 -21 -39h-120l1 9q15 134 147 134q73 0 104.5 -38.5t25.5 -78.5l-2 -15q-8 -55 -61 -72q23 -9 35 -31t8 -53l-2 -15q-7 -54 -46.5 -83.5t-98.5 -29.5
q-64 0 -100.5 35t-29.5 94l1 9h120zM130 0h-134l678 780h134zM708 0h-120l9 68h-131l12 97l167 225h114l-29 -219h32l-13 -103h-32zM619 235l-46 -64h37z" />
    <glyph glyph-name="questiondown" unicode="&#xbf;" horiz-adv-x="497" 
d="M182 -74q41 0 61.5 30t30.5 104h159l-3 -23q-17 -127 -77 -188.5t-176 -61.5q-213 0 -213 165q0 59 20.5 101.5t51 68.5t61.5 49t56.5 55.5t32.5 75.5h112q0 -47 -17.5 -88t-43 -70t-51 -55t-43 -54.5t-17.5 -55.5q0 -53 56 -53zM166 363l22 167h167l-22 -167h-167z" />
    <glyph glyph-name="Agrave" unicode="&#xc0;" horiz-adv-x="641" 
d="M254 950h165l40 -110h-156zM262 782h223l93 -782h-174l-15 168h-190l-60 -168h-174zM351 601l-103 -293h128z" />
    <glyph glyph-name="Aacute" unicode="&#xc1;" horiz-adv-x="641" 
d="M373 950h165l-79 -110h-156zM262 782h223l93 -782h-174l-15 168h-190l-60 -168h-174zM351 601l-103 -293h128z" />
    <glyph glyph-name="Acircumflex" unicode="&#xc2;" horiz-adv-x="641" 
d="M585 840h-139l-57 50l-67 -50h-145l139 110h160zM262 782h223l93 -782h-174l-15 168h-190l-60 -168h-174zM351 601l-103 -293h128z" />
    <glyph glyph-name="Atilde" unicode="&#xc3;" horiz-adv-x="641" 
d="M495 947h85q-6 -62 -37.5 -90.5t-76.5 -28.5q-35 0 -83.5 24t-64.5 24q-34 0 -37 -33h-85q6 62 37.5 90.5t76.5 28.5q35 0 83.5 -24t64.5 -24q34 0 37 33zM262 782h223l93 -782h-174l-15 168h-190l-60 -168h-174zM351 601l-103 -293h128z" />
    <glyph glyph-name="Adieresis" unicode="&#xc4;" horiz-adv-x="641" 
d="M374 945l-13 -100h-133l13 100h133zM549 945l-13 -100h-133l13 100h133zM262 782h223l93 -782h-174l-15 168h-190l-60 -168h-174zM351 601l-103 -293h128z" />
    <glyph glyph-name="Aring" unicode="&#xc5;" horiz-adv-x="641" 
d="M262 782h39q-25 25 -25 64q0 50 34 83.5t83 33.5q41 0 68.5 -26.5t27.5 -66.5q0 -53 -40 -88h36l93 -782h-174l-15 168h-190l-60 -168h-174zM351 601l-103 -293h128zM434 863q0 20 -13 33t-33 13q-24 0 -40.5 -16t-16.5 -40q0 -20 13 -33t33 -13q24 0 40.5 16t16.5 40z
" />
    <glyph glyph-name="AE" unicode="&#xc6;" horiz-adv-x="885" 
d="M333 780h565l-18 -140h-324l1 -172h250l-18 -140h-231l1 -188h255l-18 -140h-408l3 168h-182l-76 -168h-174zM400 596l-128 -288h122z" />
    <glyph glyph-name="Ccedilla" unicode="&#xc7;" horiz-adv-x="650" 
d="M207 407l-4 -33q-15 -123 5.5 -185t85.5 -62h10q69 0 94.5 32.5t35.5 106.5h163l-2 -15q-18 -133 -86 -195.5t-187 -67.5l-14 -28q90 -7 90 -78q0 -45 -34.5 -71t-91.5 -26q-74 0 -111 25l32 66q25 -17 74 -17q46 0 46 25q0 21 -45 21l-39 -5l-11 28l33 61
q-259 27 -213 385l4 32q25 202 104.5 294.5t224.5 92.5q151 0 213.5 -68.5t45.5 -208.5l-4 -32h-163q11 88 -9 128.5t-82 40.5h-10q-125 0 -155 -246z" />
    <glyph glyph-name="Egrave" unicode="&#xc8;" horiz-adv-x="573" 
d="M230 950h165l40 -110h-156zM109 780h477l-18 -140h-315l-23 -172h265l-18 -140h-265l-25 -188h315l-18 -140h-477z" />
    <glyph glyph-name="Eacute" unicode="&#xc9;" horiz-adv-x="573" 
d="M349 950h165l-79 -110h-156zM109 780h477l-18 -140h-315l-23 -172h265l-18 -140h-265l-25 -188h315l-18 -140h-477z" />
    <glyph glyph-name="Ecircumflex" unicode="&#xca;" horiz-adv-x="573" 
d="M561 840h-139l-57 50l-67 -50h-145l139 110h160zM109 780h477l-18 -140h-315l-23 -172h265l-18 -140h-265l-25 -188h315l-18 -140h-477z" />
    <glyph glyph-name="Edieresis" unicode="&#xcb;" horiz-adv-x="573" 
d="M350 945l-13 -100h-133l13 100h133zM525 945l-13 -100h-133l13 100h133zM109 780h477l-18 -140h-315l-23 -172h265l-18 -140h-265l-25 -188h315l-18 -140h-477z" />
    <glyph glyph-name="Igrave" unicode="&#xcc;" horiz-adv-x="283" 
d="M76 950h165l40 -110h-156zM276 780l-102 -780h-162l102 780h162z" />
    <glyph glyph-name="Iacute" unicode="&#xcd;" horiz-adv-x="283" 
d="M195 950h165l-79 -110h-156zM276 780l-102 -780h-162l102 780h162z" />
    <glyph glyph-name="Icircumflex" unicode="&#xce;" horiz-adv-x="283" 
d="M407 840h-139l-57 50l-67 -50h-145l139 110h160zM276 780l-102 -780h-162l102 780h162z" />
    <glyph glyph-name="Idieresis" unicode="&#xcf;" horiz-adv-x="283" 
d="M196 945l-13 -100h-133l13 100h133zM371 945l-13 -100h-133l13 100h133zM276 780l-102 -780h-162l102 780h162z" />
    <glyph glyph-name="Eth" unicode="&#xd0;" horiz-adv-x="723" 
d="M688 406l-4 -32q-26 -205 -114.5 -289.5t-261.5 -84.5h-241l44 338h-104l16 121h104l42 321h228q173 0 244.5 -86.5t46.5 -287.5zM247 140h63q100 0 146.5 53.5t62.5 180.5l4 32q15 122 -14 178t-120 56h-76l-24 -181h165l-16 -121h-165z" />
    <glyph glyph-name="Ntilde" unicode="&#xd1;" horiz-adv-x="683" 
d="M519 947h85q-6 -62 -37.5 -90.5t-76.5 -28.5q-35 0 -83.5 24t-64.5 24q-34 0 -37 -33h-85q6 62 37.5 90.5t76.5 28.5q35 0 83.5 -24t64.5 -24q34 0 37 33zM109 780h169l188 -484l17 162l42 322h155l-102 -780h-169l-188 484l-17 -162l-42 -322h-155z" />
    <glyph glyph-name="Ograve" unicode="&#xd2;" horiz-adv-x="673" 
d="M270 950h165l40 -110h-156zM376 793q155 0 221 -93.5t41 -293.5l-4 -32q-26 -204 -104 -295.5t-230 -91.5q-155 0 -221 93.5t-41 293.5l4 32q26 204 104 295.5t230 91.5zM299 127h10q71 0 107.5 61t52.5 186l4 32q16 125 -4 186t-92 61h-10q-71 0 -107.5 -61t-52.5 -186
l-4 -32q-16 -125 4 -186t92 -61z" />
    <glyph glyph-name="Oacute" unicode="&#xd3;" horiz-adv-x="673" 
d="M389 950h165l-79 -110h-156zM376 793q155 0 221 -93.5t41 -293.5l-4 -32q-26 -204 -104 -295.5t-230 -91.5q-155 0 -221 93.5t-41 293.5l4 32q26 204 104 295.5t230 91.5zM299 127h10q71 0 107.5 61t52.5 186l4 32q16 125 -4 186t-92 61h-10q-71 0 -107.5 -61t-52.5 -186
l-4 -32q-16 -125 4 -186t92 -61z" />
    <glyph glyph-name="Ocircumflex" unicode="&#xd4;" horiz-adv-x="673" 
d="M601 840h-139l-57 50l-67 -50h-145l139 110h160zM376 793q155 0 221 -93.5t41 -293.5l-4 -32q-26 -204 -104 -295.5t-230 -91.5q-155 0 -221 93.5t-41 293.5l4 32q26 204 104 295.5t230 91.5zM299 127h10q71 0 107.5 61t52.5 186l4 32q16 125 -4 186t-92 61h-10
q-71 0 -107.5 -61t-52.5 -186l-4 -32q-16 -125 4 -186t92 -61z" />
    <glyph glyph-name="Otilde" unicode="&#xd5;" horiz-adv-x="673" 
d="M511 947h85q-6 -62 -37.5 -90.5t-76.5 -28.5q-35 0 -83.5 24t-64.5 24q-34 0 -37 -33h-85q6 62 37.5 90.5t76.5 28.5q35 0 83.5 -24t64.5 -24q34 0 37 33zM376 793q155 0 221 -93.5t41 -293.5l-4 -32q-26 -204 -104 -295.5t-230 -91.5q-155 0 -221 93.5t-41 293.5l4 32
q26 204 104 295.5t230 91.5zM299 127h10q71 0 107.5 61t52.5 186l4 32q16 125 -4 186t-92 61h-10q-71 0 -107.5 -61t-52.5 -186l-4 -32q-16 -125 4 -186t92 -61z" />
    <glyph glyph-name="Odieresis" unicode="&#xd6;" horiz-adv-x="673" 
d="M390 945l-13 -100h-133l13 100h133zM565 945l-13 -100h-133l13 100h133zM376 793q155 0 221 -93.5t41 -293.5l-4 -32q-26 -204 -104 -295.5t-230 -91.5q-155 0 -221 93.5t-41 293.5l4 32q26 204 104 295.5t230 91.5zM299 127h10q71 0 107.5 61t52.5 186l4 32
q16 125 -4 186t-92 61h-10q-71 0 -107.5 -61t-52.5 -186l-4 -32q-16 -125 4 -186t92 -61z" />
    <glyph glyph-name="multiply" unicode="&#xd7;" horiz-adv-x="600" 
d="M94 119l-87 100l194 171l-149 171l114 100l148 -171l194 171l87 -100l-194 -171l149 -171l-114 -100l-148 171z" />
    <glyph glyph-name="Oslash" unicode="&#xd8;" horiz-adv-x="670" 
d="M376 793q118 0 182 -52l30 39h99l-77 -101q50 -92 28 -273l-4 -32q-26 -204 -104 -295.5t-230 -91.5q-118 0 -182 52l-30 -39h-99l77 101q-50 92 -28 273l4 32q26 204 104 295.5t230 91.5zM207 406l-4 -32q-8 -65 -7 -104l263 342q-24 41 -82 41h-10q-71 0 -107.5 -61
t-52.5 -186zM299 127h10q71 0 107.5 61t52.5 186l4 32q8 65 7 104l-263 -342q24 -41 82 -41z" />
    <glyph glyph-name="Ugrave" unicode="&#xd9;" horiz-adv-x="663" 
d="M265 950h165l40 -110h-156zM293 -13q-155 0 -215.5 64.5t-43.5 195.5l70 533h162l-69 -528q-9 -65 12.5 -95t87.5 -30q67 0 97.5 30t39.5 95l69 528h162l-70 -533q-17 -134 -83.5 -197t-218.5 -63z" />
    <glyph glyph-name="Uacute" unicode="&#xda;" horiz-adv-x="663" 
d="M384 950h165l-79 -110h-156zM293 -13q-155 0 -215.5 64.5t-43.5 195.5l70 533h162l-69 -528q-9 -65 12.5 -95t87.5 -30q67 0 97.5 30t39.5 95l69 528h162l-70 -533q-17 -134 -83.5 -197t-218.5 -63z" />
    <glyph glyph-name="Ucircumflex" unicode="&#xdb;" horiz-adv-x="663" 
d="M596 840h-139l-57 50l-67 -50h-145l139 110h160zM293 -13q-155 0 -215.5 64.5t-43.5 195.5l70 533h162l-69 -528q-9 -65 12.5 -95t87.5 -30q67 0 97.5 30t39.5 95l69 528h162l-70 -533q-17 -134 -83.5 -197t-218.5 -63z" />
    <glyph glyph-name="Udieresis" unicode="&#xdc;" horiz-adv-x="663" 
d="M385 945l-13 -100h-133l13 100h133zM560 945l-13 -100h-133l13 100h133zM293 -13q-155 0 -215.5 64.5t-43.5 195.5l70 533h162l-69 -528q-9 -65 12.5 -95t87.5 -30q67 0 97.5 30t39.5 95l69 528h162l-70 -533q-17 -134 -83.5 -197t-218.5 -63z" />
    <glyph glyph-name="Yacute" unicode="&#xdd;" horiz-adv-x="625" 
d="M366 950h165l-79 -110h-156zM376 239l-31 -239h-162l31 239l-153 541h174l83 -343l172 343h180z" />
    <glyph glyph-name="Thorn" unicode="&#xde;" horiz-adv-x="609" 
d="M205 280h102q101 0 114 99l2 15q8 59 -19 82.5t-69 23.5h-100zM169 0h-162l102 780h162l-18 -140h101q265 0 233 -242l-3 -23q-8 -59 -29.5 -103t-48.5 -68.5t-65 -39.5t-72 -19.5t-77 -4.5h-104z" />
    <glyph glyph-name="germandbls" unicode="&#xdf;" horiz-adv-x="632" 
d="M280 334l13 100q124 63 124 164q0 79 -84 79q-85 0 -98 -92l-77 -585h-158l78 594q13 98 79 158.5t186 60.5q132 0 189 -61.5t45 -155.5l-2 -15q-8 -61 -38.5 -103.5t-86.5 -79.5l25 -19q64 -48 91 -96t19 -107l-2 -15q-10 -74 -59 -124t-140 -50q-58 0 -96 14.5t-53 38
t-21 53t1 60.5l2 15h134q-11 -61 34 -61q21 0 31 18.5t10 45.5q0 52 -62 99z" />
    <glyph glyph-name="agrave" unicode="&#xe0;" horiz-adv-x="549" 
d="M142 780h172l67 -184h-156zM320 0v59q-38 -36 -75.5 -54t-89.5 -18q-85 0 -125 46.5t-31 114.5l2 15q11 82 60 115t148 48l130 20l1 8q5 36 -11 52.5t-55 16.5q-72 0 -78 -68h-149l2 15q8 55 28.5 90.5t71 59t131.5 23.5q123 0 175.5 -53t40.5 -149l-25 -192l-10 -149
h-141zM208 115q66 0 107 48l12 89l-98 -15q-59 -9 -67 -58l-2 -13q-7 -51 48 -51z" />
    <glyph glyph-name="aacute" unicode="&#xe1;" horiz-adv-x="549" 
d="M340 780h172l-131 -184h-156zM320 0v59q-38 -36 -75.5 -54t-89.5 -18q-85 0 -125 46.5t-31 114.5l2 15q11 82 60 115t148 48l130 20l1 8q5 36 -11 52.5t-55 16.5q-72 0 -78 -68h-149l2 15q8 55 28.5 90.5t71 59t131.5 23.5q123 0 175.5 -53t40.5 -149l-25 -192l-10 -149
h-141zM208 115q66 0 107 48l12 89l-98 -15q-59 -9 -67 -58l-2 -13q-7 -51 48 -51z" />
    <glyph glyph-name="acircumflex" unicode="&#xe2;" horiz-adv-x="549" 
d="M513 596h-135l-61 83l-83 -83h-141l158 184h152zM320 0v59q-38 -36 -75.5 -54t-89.5 -18q-85 0 -125 46.5t-31 114.5l2 15q11 82 60 115t148 48l130 20l1 8q5 36 -11 52.5t-55 16.5q-72 0 -78 -68h-149l2 15q8 55 28.5 90.5t71 59t131.5 23.5q123 0 175.5 -53t40.5 -149
l-25 -192l-10 -149h-141zM208 115q66 0 107 48l12 89l-98 -15q-59 -9 -67 -58l-2 -13q-7 -51 48 -51z" />
    <glyph glyph-name="atilde" unicode="&#xe3;" horiz-adv-x="549" 
d="M422 772h105q-6 -78 -42 -118.5t-84 -40.5q-37 0 -87.5 26t-68.5 26q-14 0 -24 -9.5t-10 -27.5h-105q6 78 42 118.5t84 40.5q37 0 87.5 -26t68.5 -26q14 0 24 9.5t10 27.5zM320 0v59q-38 -36 -75.5 -54t-89.5 -18q-85 0 -125 46.5t-31 114.5l2 15q11 82 60 115t148 48
l130 20l1 8q5 36 -11 52.5t-55 16.5q-72 0 -78 -68h-149l2 15q8 55 28.5 90.5t71 59t131.5 23.5q123 0 175.5 -53t40.5 -149l-25 -192l-10 -149h-141zM208 115q66 0 107 48l12 89l-98 -15q-59 -9 -67 -58l-2 -13q-7 -51 48 -51z" />
    <glyph glyph-name="adieresis" unicode="&#xe4;" horiz-adv-x="549" 
d="M302 772l-22 -167h-167l22 167h167zM517 772l-22 -167h-167l22 167h167zM320 0v59q-38 -36 -75.5 -54t-89.5 -18q-85 0 -125 46.5t-31 114.5l2 15q11 82 60 115t148 48l130 20l1 8q5 36 -11 52.5t-55 16.5q-72 0 -78 -68h-149l2 15q8 55 28.5 90.5t71 59t131.5 23.5
q123 0 175.5 -53t40.5 -149l-25 -192l-10 -149h-141zM208 115q66 0 107 48l12 89l-98 -15q-59 -9 -67 -58l-2 -13q-7 -51 48 -51z" />
    <glyph glyph-name="aring" unicode="&#xe5;" horiz-adv-x="549" 
d="M422 700q0 -50 -34 -83.5t-83 -33.5q-41 0 -68.5 26.5t-27.5 66.5q0 50 34 83.5t83 33.5q41 0 68.5 -26.5t27.5 -66.5zM367 693q0 20 -13 33t-33 13q-24 0 -40.5 -16t-16.5 -40q0 -20 13 -33t33 -13q24 0 40.5 16t16.5 40zM320 0v59q-38 -36 -75.5 -54t-89.5 -18
q-85 0 -125 46.5t-31 114.5l2 15q11 82 60 115t148 48l130 20l1 8q5 36 -11 52.5t-55 16.5q-72 0 -78 -68h-149l2 15q8 55 28.5 90.5t71 59t131.5 23.5q123 0 175.5 -53t40.5 -149l-25 -192l-10 -149h-141zM208 115q66 0 107 48l12 89l-98 -15q-59 -9 -67 -58l-2 -13
q-7 -51 48 -51z" />
    <glyph glyph-name="ae" unicode="&#xe6;" horiz-adv-x="869" 
d="M817 208h-341q-12 -101 89 -101q88 0 98 63h149l-2 -15q-10 -75 -73 -121.5t-172 -46.5q-149 0 -208 87q-91 -87 -202 -87q-85 0 -125 46.5t-31 114.5l2 15q11 82 60 115t148 48l130 20l1 8q5 36 -11 52.5t-55 16.5q-72 0 -78 -68h-149l2 15q8 55 28.5 90.5t71 59
t131.5 23.5q120 0 162 -55q57 55 158 55q133 0 186.5 -77.5t36.5 -210.5zM208 115q72 0 116 58q-3 38 2 73l1 6l-98 -15q-59 -9 -67 -58l-2 -13q-7 -51 48 -51zM600 423q-91 0 -109 -101h183q8 101 -74 101z" />
    <glyph glyph-name="ccedilla" unicode="&#xe7;" horiz-adv-x="527" 
d="M176 284l-5 -38q-17 -123 69 -123q36 0 58.5 21t26.5 52h149l-2 -15q-25 -187 -222 -194l-14 -27q90 -7 90 -78q0 -45 -34.5 -71t-91.5 -26q-74 0 -111 25l32 66q25 -17 74 -17q46 0 46 25q0 21 -45 21l-39 -5l-11 28l34 63q-96 15 -138 83.5t-29 171.5l5 38
q35 259 264 259q116 0 170 -53t41 -151l-2 -15h-149q5 38 -10.5 60.5t-54.5 22.5q-85 0 -101 -123z" />
    <glyph glyph-name="egrave" unicode="&#xe8;" horiz-adv-x="556" 
d="M149 780h172l67 -184h-156zM504 208h-341q-12 -101 89 -101q88 0 98 63h149l-2 -15q-10 -75 -73 -121.5t-172 -46.5q-136 0 -195.5 71t-43.5 188l5 38q15 118 82 188.5t187 70.5q133 0 186.5 -77.5t36.5 -210.5zM287 423q-91 0 -109 -101h183q8 101 -74 101z" />
    <glyph glyph-name="eacute" unicode="&#xe9;" horiz-adv-x="556" 
d="M347 780h172l-131 -184h-156zM504 208h-341q-12 -101 89 -101q88 0 98 63h149l-2 -15q-10 -75 -73 -121.5t-172 -46.5q-136 0 -195.5 71t-43.5 188l5 38q15 118 82 188.5t187 70.5q133 0 186.5 -77.5t36.5 -210.5zM287 423q-91 0 -109 -101h183q8 101 -74 101z" />
    <glyph glyph-name="ecircumflex" unicode="&#xea;" horiz-adv-x="556" 
d="M520 596h-135l-61 83l-83 -83h-141l158 184h152zM504 208h-341q-12 -101 89 -101q88 0 98 63h149l-2 -15q-10 -75 -73 -121.5t-172 -46.5q-136 0 -195.5 71t-43.5 188l5 38q15 118 82 188.5t187 70.5q133 0 186.5 -77.5t36.5 -210.5zM287 423q-91 0 -109 -101h183
q8 101 -74 101z" />
    <glyph glyph-name="edieresis" unicode="&#xeb;" horiz-adv-x="556" 
d="M309 772l-22 -167h-167l22 167h167zM524 772l-22 -167h-167l22 167h167zM504 208h-341q-12 -101 89 -101q88 0 98 63h149l-2 -15q-10 -75 -73 -121.5t-172 -46.5q-136 0 -195.5 71t-43.5 188l5 38q15 118 82 188.5t187 70.5q133 0 186.5 -77.5t36.5 -210.5zM287 423
q-91 0 -109 -101h183q8 101 -74 101z" />
    <glyph glyph-name="igrave" unicode="&#xec;" horiz-adv-x="266" 
d="M1 780h172l67 -184h-156zM5 0l69 530h158l-69 -530h-158z" />
    <glyph glyph-name="iacute" unicode="&#xed;" horiz-adv-x="265" 
d="M199 780h172l-131 -184h-156zM5 0l69 530h158l-69 -530h-158z" />
    <glyph glyph-name="icircumflex" unicode="&#xee;" horiz-adv-x="265" 
d="M372 596h-135l-61 83l-83 -83h-141l158 184h152zM5 0l69 530h158l-69 -530h-158z" />
    <glyph glyph-name="idieresis" unicode="&#xef;" horiz-adv-x="265" 
d="M161 772l-22 -167h-167l22 167h167zM376 772l-22 -167h-167l22 167h167zM5 0l69 530h158l-69 -530h-158z" />
    <glyph glyph-name="eth" unicode="&#xf0;" horiz-adv-x="556" 
d="M70 673l19 140q174 -12 270 -67l128 67l-11 -89l-53 -27q129 -129 91 -413l-5 -38q-35 -259 -267 -259q-127 0 -186 71t-43 188l5 38q16 121 81 190t176 69q39 0 68 -10q-29 55 -76 83l-189 -98l11 89l90 46q-45 14 -109 20zM247 123q88 0 104 123l5 38q17 123 -76 123
q-88 0 -104 -123l-5 -38q-17 -123 76 -123z" />
    <glyph glyph-name="ntilde" unicode="&#xf1;" horiz-adv-x="580" 
d="M441 772h105q-6 -78 -42 -118.5t-84 -40.5q-37 0 -87.5 26t-68.5 26q-14 0 -24 -9.5t-10 -27.5h-105q6 78 42 118.5t84 40.5q37 0 87.5 -26t68.5 -26q14 0 24 9.5t10 27.5zM483 0h-158l44 335q9 72 -59 72q-60 0 -100 -49l-47 -358h-158l50 381l10 149h141v-70
q69 83 169 83q91 0 128.5 -50.5t26.5 -134.5z" />
    <glyph glyph-name="ograve" unicode="&#xf2;" horiz-adv-x="556" 
d="M146 780h172l67 -184h-156zM247 123q88 0 104 123l5 38q17 123 -76 123q-88 0 -104 -123l-5 -38q-17 -123 76 -123zM242 -13q-127 0 -186 71t-43 188l5 38q33 259 267 259q127 0 186 -71t43 -188l-5 -38q-35 -259 -267 -259z" />
    <glyph glyph-name="oacute" unicode="&#xf3;" horiz-adv-x="556" 
d="M344 780h172l-131 -184h-156zM247 123q88 0 104 123l5 38q17 123 -76 123q-88 0 -104 -123l-5 -38q-17 -123 76 -123zM242 -13q-127 0 -186 71t-43 188l5 38q33 259 267 259q127 0 186 -71t43 -188l-5 -38q-35 -259 -267 -259z" />
    <glyph glyph-name="ocircumflex" unicode="&#xf4;" horiz-adv-x="556" 
d="M517 596h-135l-61 83l-83 -83h-141l158 184h152zM247 123q88 0 104 123l5 38q17 123 -76 123q-88 0 -104 -123l-5 -38q-17 -123 76 -123zM242 -13q-127 0 -186 71t-43 188l5 38q33 259 267 259q127 0 186 -71t43 -188l-5 -38q-35 -259 -267 -259z" />
    <glyph glyph-name="otilde" unicode="&#xf5;" horiz-adv-x="556" 
d="M426 772h105q-6 -78 -42 -118.5t-84 -40.5q-37 0 -87.5 26t-68.5 26q-14 0 -24 -9.5t-10 -27.5h-105q6 78 42 118.5t84 40.5q37 0 87.5 -26t68.5 -26q14 0 24 9.5t10 27.5zM247 123q88 0 104 123l5 38q17 123 -76 123q-88 0 -104 -123l-5 -38q-17 -123 76 -123zM242 -13
q-127 0 -186 71t-43 188l5 38q33 259 267 259q127 0 186 -71t43 -188l-5 -38q-35 -259 -267 -259z" />
    <glyph glyph-name="odieresis" unicode="&#xf6;" horiz-adv-x="556" 
d="M306 772l-22 -167h-167l22 167h167zM521 772l-22 -167h-167l22 167h167zM247 123q88 0 104 123l5 38q17 123 -76 123q-88 0 -104 -123l-5 -38q-17 -123 76 -123zM242 -13q-127 0 -186 71t-43 188l5 38q33 259 267 259q127 0 186 -71t43 -188l-5 -38q-35 -259 -267 -259z
" />
    <glyph glyph-name="divide" unicode="&#xf7;" horiz-adv-x="600" 
d="M34 320l18 140h516l-18 -140h-516zM423 681l-22 -167h-167l22 167h167zM179 99l22 167h167l-22 -167h-167z" />
    <glyph glyph-name="oslash" unicode="&#xf8;" horiz-adv-x="556" 
d="M176 284l-5 -38q-3 -21 -3 -39l166 184q-19 16 -54 16q-88 0 -104 -123zM247 123q88 0 104 123l5 38q3 21 3 39l-166 -184q19 -16 54 -16zM91 27l-24 -27h-86l65 71q-47 68 -33 175l5 38q33 259 267 259q93 0 151 -40l24 27h86l-65 -71q47 -68 33 -175l-5 -38
q-33 -259 -267 -259q-93 0 -151 40z" />
    <glyph glyph-name="ugrave" unicode="&#xf9;" horiz-adv-x="580" 
d="M154 780h172l67 -184h-156zM68 530h158l-44 -335q-9 -72 59 -72q60 0 100 49l47 358h158l-50 -381l-10 -149h-141v70q-69 -83 -169 -83q-91 0 -128.5 50.5t-26.5 134.5z" />
    <glyph glyph-name="uacute" unicode="&#xfa;" horiz-adv-x="580" 
d="M352 780h172l-131 -184h-156zM68 530h158l-44 -335q-9 -72 59 -72q60 0 100 49l47 358h158l-50 -381l-10 -149h-141v70q-69 -83 -169 -83q-91 0 -128.5 50.5t-26.5 134.5z" />
    <glyph glyph-name="ucircumflex" unicode="&#xfb;" horiz-adv-x="580" 
d="M525 596h-135l-61 83l-83 -83h-141l158 184h152zM68 530h158l-44 -335q-9 -72 59 -72q60 0 100 49l47 358h158l-50 -381l-10 -149h-141v70q-69 -83 -169 -83q-91 0 -128.5 50.5t-26.5 134.5z" />
    <glyph glyph-name="udieresis" unicode="&#xfc;" horiz-adv-x="580" 
d="M314 772l-22 -167h-167l22 167h167zM529 772l-22 -167h-167l22 167h167zM68 530h158l-44 -335q-9 -72 59 -72q60 0 100 49l47 358h158l-50 -381l-10 -149h-141v70q-69 -83 -169 -83q-91 0 -128.5 50.5t-26.5 134.5z" />
    <glyph glyph-name="yacute" unicode="&#xfd;" horiz-adv-x="551" 
d="M343 780h172l-131 -184h-156zM251 192l143 338h175l-253 -502l-98 -228h-188l115 228l-120 502h169z" />
    <glyph glyph-name="thorn" unicode="&#xfe;" horiz-adv-x="574" 
d="M108 800h158l-41 -312q49 55 137 55q99 0 142.5 -69t27.5 -190l-5 -38q-16 -121 -71.5 -190t-153.5 -69q-51 0 -85.5 18t-49.5 41l-33 -246h-158zM265 123q89 0 104 123l5 38q17 123 -74 123q-53 0 -92 -49l-24 -183q26 -52 81 -52z" />
    <glyph glyph-name="ydieresis" unicode="&#xff;" horiz-adv-x="551" 
d="M305 772l-22 -167h-167l22 167h167zM520 772l-22 -167h-167l22 167h167zM251 192l143 338h175l-253 -502l-98 -228h-188l115 228l-120 502h169z" />
    <glyph glyph-name="Amacron" unicode="&#x100;" horiz-adv-x="641" 
d="M233 847l13 96h298l-13 -96h-298zM262 782h223l93 -782h-174l-15 168h-190l-60 -168h-174zM351 601l-103 -293h128z" />
    <glyph glyph-name="amacron" unicode="&#x101;" horiz-adv-x="549" 
d="M156 619l18 138h300l-18 -138h-300zM320 0v59q-38 -36 -75.5 -54t-89.5 -18q-85 0 -125 46.5t-31 114.5l2 15q11 82 60 115t148 48l130 20l1 8q5 36 -11 52.5t-55 16.5q-72 0 -78 -68h-149l2 15q8 55 28.5 90.5t71 59t131.5 23.5q123 0 175.5 -53t40.5 -149l-25 -192
l-10 -149h-141zM208 115q66 0 107 48l12 89l-98 -15q-59 -9 -67 -58l-2 -13q-7 -51 48 -51z" />
    <glyph glyph-name="Abreve" unicode="&#x102;" horiz-adv-x="641" 
d="M384 825q-101 0 -139 34t-32 91h107q-1 -20 15.5 -30t52.5 -10q79 0 80 40h111q-8 -58 -50.5 -91.5t-144.5 -33.5zM262 782h223l93 -782h-174l-15 168h-190l-60 -168h-174zM351 601l-103 -293h128z" />
    <glyph glyph-name="abreve" unicode="&#x103;" horiz-adv-x="549" 
d="M301 582q-100 0 -137.5 53t-23.5 145h111q-11 -78 64 -78q73 0 84 78h115q-23 -198 -213 -198zM320 0v59q-38 -36 -75.5 -54t-89.5 -18q-85 0 -125 46.5t-31 114.5l2 15q11 82 60 115t148 48l130 20l1 8q5 36 -11 52.5t-55 16.5q-72 0 -78 -68h-149l2 15q8 55 28.5 90.5
t71 59t131.5 23.5q123 0 175.5 -53t40.5 -149l-25 -192l-10 -149h-141zM208 115q66 0 107 48l12 89l-98 -15q-59 -9 -67 -58l-2 -13q-7 -51 48 -51z" />
    <glyph glyph-name="Aogonek" unicode="&#x104;" horiz-adv-x="641" 
d="M262 782h223l93 -782q-29 -9 -50.5 -28.5t-21.5 -46.5q0 -30 39 -30q23 0 43 11l23 -96q-42 -25 -101 -25q-127 0 -127 95q0 68 57 120h-36l-15 168h-190l-60 -168h-174zM351 601l-103 -293h128z" />
    <glyph glyph-name="aogonek" unicode="&#x105;" horiz-adv-x="549" 
d="M461 0q-29 -9 -50.5 -28.5t-21.5 -46.5q0 -30 39 -30q23 0 43 11l23 -96q-42 -25 -101 -25q-127 0 -127 95q0 65 54 117v62q-38 -36 -75.5 -54t-89.5 -18q-85 0 -125 46.5t-31 114.5l2 15q11 82 60 115t148 48l130 20l1 8q5 36 -11 52.5t-55 16.5q-72 0 -78 -68h-149
l2 15q8 55 28.5 90.5t71 59t131.5 23.5q123 0 175.5 -53t40.5 -149l-25 -192zM208 115q66 0 107 48l12 89l-98 -15q-59 -9 -67 -58l-2 -13q-7 -51 48 -51z" />
    <glyph glyph-name="Cacute" unicode="&#x106;" horiz-adv-x="650" 
d="M385 950h165l-79 -110h-156zM207 407l-4 -33q-15 -123 5.5 -185t85.5 -62h10q69 0 94.5 32.5t35.5 106.5h163l-2 -15q-19 -140 -93.5 -202t-206.5 -62q-305 0 -257 387l4 32q25 202 104.5 294.5t224.5 92.5q151 0 213.5 -68.5t45.5 -208.5l-4 -32h-163q11 88 -9 128.5
t-82 40.5h-10q-125 0 -155 -246z" />
    <glyph glyph-name="cacute" unicode="&#x107;" horiz-adv-x="527" 
d="M336 780h172l-131 -184h-156zM176 284l-5 -38q-17 -123 69 -123q36 0 58.5 21t26.5 52h149l-2 -15q-25 -194 -237 -194q-124 0 -181 71t-41 188l5 38q35 259 264 259q116 0 170 -53t41 -151l-2 -15h-149q5 38 -10.5 60.5t-54.5 22.5q-85 0 -101 -123z" />
    <glyph glyph-name="Ccircumflex" unicode="&#x108;" horiz-adv-x="650" 
d="M597 840h-139l-57 50l-67 -50h-145l139 110h160zM207 407l-4 -33q-15 -123 5.5 -185t85.5 -62h10q69 0 94.5 32.5t35.5 106.5h163l-2 -15q-19 -140 -93.5 -202t-206.5 -62q-305 0 -257 387l4 32q25 202 104.5 294.5t224.5 92.5q151 0 213.5 -68.5t45.5 -208.5l-4 -32
h-163q11 88 -9 128.5t-82 40.5h-10q-125 0 -155 -246z" />
    <glyph glyph-name="ccircumflex" unicode="&#x109;" horiz-adv-x="527" 
d="M509 596h-135l-61 83l-83 -83h-141l158 184h152zM176 284l-5 -38q-17 -123 69 -123q36 0 58.5 21t26.5 52h149l-2 -15q-25 -194 -237 -194q-124 0 -181 71t-41 188l5 38q35 259 264 259q116 0 170 -53t41 -151l-2 -15h-149q5 38 -10.5 60.5t-54.5 22.5q-85 0 -101 -123z
" />
    <glyph glyph-name="Cdotaccent" unicode="&#x10a;" horiz-adv-x="650" 
d="M473 945l-13 -100h-133l13 100h133zM207 407l-4 -33q-15 -123 5.5 -185t85.5 -62h10q69 0 94.5 32.5t35.5 106.5h163l-2 -15q-19 -140 -93.5 -202t-206.5 -62q-305 0 -257 387l4 32q25 202 104.5 294.5t224.5 92.5q151 0 213.5 -68.5t45.5 -208.5l-4 -32h-163
q11 88 -9 128.5t-82 40.5h-10q-125 0 -155 -246z" />
    <glyph glyph-name="cdotaccent" unicode="&#x10b;" horiz-adv-x="527" 
d="M406 772l-22 -167h-167l22 167h167zM176 284l-5 -38q-17 -123 69 -123q36 0 58.5 21t26.5 52h149l-2 -15q-25 -194 -237 -194q-124 0 -181 71t-41 188l5 38q35 259 264 259q116 0 170 -53t41 -151l-2 -15h-149q5 38 -10.5 60.5t-54.5 22.5q-85 0 -101 -123z" />
    <glyph glyph-name="Ccaron" unicode="&#x10c;" horiz-adv-x="650" 
d="M204 950h139l57 -50l67 50h145l-139 -110h-160zM207 407l-4 -33q-15 -123 5.5 -185t85.5 -62h10q69 0 94.5 32.5t35.5 106.5h163l-2 -15q-19 -140 -93.5 -202t-206.5 -62q-305 0 -257 387l4 32q25 202 104.5 294.5t224.5 92.5q151 0 213.5 -68.5t45.5 -208.5l-4 -32h-163
q11 88 -9 128.5t-82 40.5h-10q-125 0 -155 -246z" />
    <glyph glyph-name="ccaron" unicode="&#x10d;" horiz-adv-x="527" 
d="M113 780h135l61 -83l83 83h141l-158 -184h-152zM176 284l-5 -38q-17 -123 69 -123q36 0 58.5 21t26.5 52h149l-2 -15q-25 -194 -237 -194q-124 0 -181 71t-41 188l5 38q35 259 264 259q116 0 170 -53t41 -151l-2 -15h-149q5 38 -10.5 60.5t-54.5 22.5q-85 0 -101 -123z
" />
    <glyph glyph-name="Dcaron" unicode="&#x10e;" horiz-adv-x="663" 
d="M185 950h139l57 -50l67 50h145l-139 -110h-160zM628 406l-4 -32q-26 -205 -114.5 -289.5t-261.5 -84.5h-241l102 780h228q173 0 244.5 -86.5t46.5 -287.5zM187 140h63q100 0 146.5 53.5t62.5 180.5l4 32q15 122 -14 178t-120 56h-76z" />
    <glyph glyph-name="dcaron" unicode="&#x10f;" horiz-adv-x="582" 
d="M190 -13q-99 0 -142.5 69t-27.5 190l5 38q16 121 71.5 190t153.5 69q51 0 85.5 -18t49.5 -41l42 316h158l-86 -651l-10 -149h-141v70q-51 -83 -158 -83zM287 407q-89 0 -104 -123l-5 -38q-17 -123 74 -123q53 0 92 49l24 183q-26 52 -81 52zM640 800h95l-52 -204h-70z
" />
    <glyph glyph-name="Dcroat" unicode="&#x110;" horiz-adv-x="723" 
d="M688 406l-4 -32q-26 -205 -114.5 -289.5t-261.5 -84.5h-241l44 338h-104l16 121h104l42 321h228q173 0 244.5 -86.5t46.5 -287.5zM247 140h63q100 0 146.5 53.5t62.5 180.5l4 32q15 122 -14 178t-120 56h-76l-24 -181h165l-16 -121h-165z" />
    <glyph glyph-name="dcroat" unicode="&#x111;" horiz-adv-x="582" 
d="M289 609l15 112h112l11 79h158l-11 -79h68l-15 -112h-67l-61 -460l-10 -149h-141v70q-51 -83 -158 -83q-99 0 -142.5 69t-27.5 190l5 38q16 121 71.5 190t153.5 69q51 0 85.5 -18t49.5 -41l16 125h-112zM287 407q-89 0 -104 -123l-5 -38q-17 -123 74 -123q53 0 92 49
l24 183q-26 52 -81 52z" />
    <glyph glyph-name="Emacron" unicode="&#x112;" horiz-adv-x="573" 
d="M209 847l13 96h298l-13 -96h-298zM109 780h477l-18 -140h-315l-23 -172h265l-18 -140h-265l-25 -188h315l-18 -140h-477z" />
    <glyph glyph-name="emacron" unicode="&#x113;" horiz-adv-x="556" 
d="M163 619l18 138h300l-18 -138h-300zM504 208h-341q-12 -101 89 -101q88 0 98 63h149l-2 -15q-10 -75 -73 -121.5t-172 -46.5q-136 0 -195.5 71t-43.5 188l5 38q15 118 82 188.5t187 70.5q133 0 186.5 -77.5t36.5 -210.5zM287 423q-91 0 -109 -101h183q8 101 -74 101z" />
    <glyph glyph-name="Ebreve" unicode="&#x114;" horiz-adv-x="573" 
d="M360 825q-101 0 -139 34t-32 91h107q-1 -20 15.5 -30t52.5 -10q79 0 80 40h111q-8 -58 -50.5 -91.5t-144.5 -33.5zM109 780h477l-18 -140h-315l-23 -172h265l-18 -140h-265l-25 -188h315l-18 -140h-477z" />
    <glyph glyph-name="ebreve" unicode="&#x115;" horiz-adv-x="556" 
d="M308 582q-100 0 -137.5 53t-23.5 145h111q-11 -78 64 -78q73 0 84 78h115q-23 -198 -213 -198zM504 208h-341q-12 -101 89 -101q88 0 98 63h149l-2 -15q-10 -75 -73 -121.5t-172 -46.5q-136 0 -195.5 71t-43.5 188l5 38q15 118 82 188.5t187 70.5q133 0 186.5 -77.5
t36.5 -210.5zM287 423q-91 0 -109 -101h183q8 101 -74 101z" />
    <glyph glyph-name="Edotaccent" unicode="&#x116;" horiz-adv-x="573" 
d="M437 945l-13 -100h-133l13 100h133zM109 780h477l-18 -140h-315l-23 -172h265l-18 -140h-265l-25 -188h315l-18 -140h-477z" />
    <glyph glyph-name="edotaccent" unicode="&#x117;" horiz-adv-x="556" 
d="M417 772l-22 -167h-167l22 167h167zM504 208h-341q-12 -101 89 -101q88 0 98 63h149l-2 -15q-10 -75 -73 -121.5t-172 -46.5q-136 0 -195.5 71t-43.5 188l5 38q15 118 82 188.5t187 70.5q133 0 186.5 -77.5t36.5 -210.5zM287 423q-91 0 -109 -101h183q8 101 -74 101z" />
    <glyph glyph-name="Eogonek" unicode="&#x118;" horiz-adv-x="573" 
d="M109 780h477l-18 -140h-315l-23 -172h265l-18 -140h-265l-25 -188h315l-18 -140q-29 -9 -50.5 -28.5t-21.5 -46.5q0 -30 39 -30q23 0 43 11l23 -96q-42 -25 -101 -25q-127 0 -127 95q0 68 57 120h-339z" />
    <glyph glyph-name="eogonek" unicode="&#x119;" horiz-adv-x="556" 
d="M504 208h-341q-12 -101 89 -101q88 0 98 63h149l-2 -15q-17 -118 -144 -155q-29 -9 -50.5 -28.5t-21.5 -46.5q0 -30 39 -30q23 0 43 11l23 -96q-42 -25 -101 -25q-127 0 -127 95q0 60 47 110q-111 12 -158.5 80.5t-33.5 175.5l5 38q15 118 82 188.5t187 70.5
q133 0 186.5 -77.5t36.5 -210.5zM287 423q-91 0 -109 -101h183q8 101 -74 101z" />
    <glyph glyph-name="Ecaron" unicode="&#x11a;" horiz-adv-x="573" 
d="M168 950h139l57 -50l67 50h145l-139 -110h-160zM109 780h477l-18 -140h-315l-23 -172h265l-18 -140h-265l-25 -188h315l-18 -140h-477z" />
    <glyph glyph-name="ecaron" unicode="&#x11b;" horiz-adv-x="556" 
d="M124 780h135l61 -83l83 83h141l-158 -184h-152zM504 208h-341q-12 -101 89 -101q88 0 98 63h149l-2 -15q-10 -75 -73 -121.5t-172 -46.5q-136 0 -195.5 71t-43.5 188l5 38q15 118 82 188.5t187 70.5q133 0 186.5 -77.5t36.5 -210.5zM287 423q-91 0 -109 -101h183
q8 101 -74 101z" />
    <glyph glyph-name="Gcircumflex" unicode="&#x11c;" horiz-adv-x="673" 
d="M602 840h-139l-57 50l-67 -50h-145l139 110h160zM314 -13q-151 0 -226 95t-50 292l4 32q25 201 106.5 294t227.5 93q152 0 216.5 -69t47.5 -208l-4 -32h-163q11 86 -11 127.5t-85 41.5h-10q-130 0 -160 -246l-4 -33q-30 -247 112 -247h10q69 0 106 27l17 128h-103l18 140
h265l-45 -345q-40 -37 -110.5 -63.5t-158.5 -26.5z" />
    <glyph glyph-name="gcircumflex" unicode="&#x11d;" horiz-adv-x="574" 
d="M519 596h-135l-61 83l-83 -83h-141l158 184h152zM315 7l9 67q-49 -55 -137 -55q-99 0 -143 66.5t-29 176.5l5 38q14 110 69.5 176.5t153.5 66.5q106 0 147 -78l18 65h142l-28 -150l-50 -380q-14 -106 -80.5 -159.5t-173.5 -53.5q-135 0 -188 54t-41 144l2 15h149
q-6 -43 10 -64t66 -21q44 0 68 21.5t31 70.5zM341 204l20 151q-26 52 -81 52q-89 0 -102 -107l-5 -38q-7 -50 12.5 -78.5t62.5 -28.5q54 0 93 49z" />
    <glyph glyph-name="Gbreve" unicode="&#x11e;" horiz-adv-x="673" 
d="M401 825q-101 0 -139 34t-32 91h107q-1 -20 15.5 -30t52.5 -10q79 0 80 40h111q-8 -58 -50.5 -91.5t-144.5 -33.5zM314 -13q-151 0 -226 95t-50 292l4 32q25 201 106.5 294t227.5 93q152 0 216.5 -69t47.5 -208l-4 -32h-163q11 86 -11 127.5t-85 41.5h-10
q-130 0 -160 -246l-4 -33q-30 -247 112 -247h10q69 0 106 27l17 128h-103l18 140h265l-45 -345q-40 -37 -110.5 -63.5t-158.5 -26.5z" />
    <glyph glyph-name="gbreve" unicode="&#x11f;" horiz-adv-x="574" 
d="M307 582q-100 0 -137.5 53t-23.5 145h111q-11 -78 64 -78q73 0 84 78h115q-23 -198 -213 -198zM315 7l9 67q-49 -55 -137 -55q-99 0 -143 66.5t-29 176.5l5 38q14 110 69.5 176.5t153.5 66.5q106 0 147 -78l18 65h142l-28 -150l-50 -380q-14 -106 -80.5 -159.5
t-173.5 -53.5q-135 0 -188 54t-41 144l2 15h149q-6 -43 10 -64t66 -21q44 0 68 21.5t31 70.5zM341 204l20 151q-26 52 -81 52q-89 0 -102 -107l-5 -38q-7 -50 12.5 -78.5t62.5 -28.5q54 0 93 49z" />
    <glyph glyph-name="Gdotaccent" unicode="&#x120;" horiz-adv-x="673" 
d="M478 945l-13 -100h-133l13 100h133zM314 -13q-151 0 -226 95t-50 292l4 32q25 201 106.5 294t227.5 93q152 0 216.5 -69t47.5 -208l-4 -32h-163q11 86 -11 127.5t-85 41.5h-10q-130 0 -160 -246l-4 -33q-30 -247 112 -247h10q69 0 106 27l17 128h-103l18 140h265
l-45 -345q-40 -37 -110.5 -63.5t-158.5 -26.5z" />
    <glyph glyph-name="gdotaccent" unicode="&#x121;" horiz-adv-x="574" 
d="M416 772l-22 -167h-167l22 167h167zM315 7l9 67q-49 -55 -137 -55q-99 0 -143 66.5t-29 176.5l5 38q14 110 69.5 176.5t153.5 66.5q106 0 147 -78l18 65h142l-28 -150l-50 -380q-14 -106 -80.5 -159.5t-173.5 -53.5q-135 0 -188 54t-41 144l2 15h149q-6 -43 10 -64
t66 -21q44 0 68 21.5t31 70.5zM341 204l20 151q-26 52 -81 52q-89 0 -102 -107l-5 -38q-7 -50 12.5 -78.5t62.5 -28.5q54 0 93 49z" />
    <glyph glyph-name="Gcommaaccent" unicode="&#x122;" horiz-adv-x="673" 
d="M363 -44l-8 -57q-10 -68 -48.5 -96.5t-114.5 -28.5l7 55q76 0 89 35h-79l12 92h142zM314 -13q-151 0 -226 95t-50 292l4 32q25 201 106.5 294t227.5 93q152 0 216.5 -69t47.5 -208l-4 -32h-163q11 86 -11 127.5t-85 41.5h-10q-130 0 -160 -246l-4 -33q-30 -247 112 -247
h10q69 0 106 27l17 128h-103l18 140h265l-45 -345q-40 -37 -110.5 -63.5t-158.5 -26.5z" />
    <glyph glyph-name="gcommaaccent" unicode="&#x123;" horiz-adv-x="574" 
d="M235 596l10 72q10 68 48.5 96.5t114.5 28.5l-7 -55q-76 0 -90 -38h79l-13 -104h-142zM315 7l9 67q-49 -55 -137 -55q-99 0 -143 66.5t-29 176.5l5 38q14 110 69.5 176.5t153.5 66.5q106 0 147 -78l18 65h142l-28 -150l-50 -380q-14 -106 -80.5 -159.5t-173.5 -53.5
q-135 0 -188 54t-41 144l2 15h149q-6 -43 10 -64t66 -21q44 0 68 21.5t31 70.5zM341 204l20 151q-26 52 -81 52q-89 0 -102 -107l-5 -38q-7 -50 12.5 -78.5t62.5 -28.5q54 0 93 49z" />
    <glyph glyph-name="Hcircumflex" unicode="&#x124;" horiz-adv-x="663" 
d="M596 840h-139l-57 50l-67 -50h-145l139 110h160zM498 780h162l-102 -780h-162l43 328h-227l-43 -328h-162l102 780h162l-41 -312h227z" />
    <glyph glyph-name="hcircumflex" unicode="&#x125;" horiz-adv-x="579" 
d="M5 0l105 800h158l-42 -318q66 61 149 61q91 0 128.5 -50.5t26.5 -134.5l-47 -358h-158l44 335q9 72 -59 72q-60 0 -100 -49l-47 -358h-158zM397 840h-139l-57 50l-67 -50h-145l139 110h160z" />
    <glyph glyph-name="Hbar" unicode="&#x126;" horiz-adv-x="663" 
d="M498 780h162l-102 -780h-162l43 328h-227l-43 -328h-162l102 780h162l-13 -95h227zM242 564l-12 -96h227l12 96h-227z" />
    <glyph glyph-name="hbar" unicode="&#x127;" horiz-adv-x="579" 
d="M17 609l15 112h67l11 79h158l-11 -79h113l-15 -112h-112l-17 -127q66 61 149 61q91 0 128.5 -50.5t26.5 -134.5l-47 -358h-158l44 335q9 72 -59 72q-60 0 -100 -49l-47 -358h-158l80 609h-68z" />
    <glyph glyph-name="Itilde" unicode="&#x128;" horiz-adv-x="283" 
d="M317 947h85q-6 -62 -37.5 -90.5t-76.5 -28.5q-35 0 -83.5 24t-64.5 24q-34 0 -37 -33h-85q6 62 37.5 90.5t76.5 28.5q35 0 83.5 -24t64.5 -24q34 0 37 33zM276 780l-102 -780h-162l102 780h162z" />
    <glyph glyph-name="itilde" unicode="&#x129;" horiz-adv-x="266" 
d="M281 772h105q-6 -78 -42 -118.5t-84 -40.5q-37 0 -87.5 26t-68.5 26q-14 0 -24 -9.5t-10 -27.5h-105q6 78 42 118.5t84 40.5q37 0 87.5 -26t68.5 -26q14 0 24 9.5t10 27.5zM5 0l69 530h158l-69 -530h-158z" />
    <glyph glyph-name="Imacron" unicode="&#x12a;" horiz-adv-x="283" 
d="M55 847l13 96h298l-13 -96h-298zM276 780l-102 -780h-162l102 780h162z" />
    <glyph glyph-name="imacron" unicode="&#x12b;" horiz-adv-x="266" 
d="M15 619l18 138h300l-18 -138h-300zM5 0l69 530h158l-69 -530h-158z" />
    <glyph glyph-name="Ibreve" unicode="&#x12c;" horiz-adv-x="283" 
d="M206 825q-101 0 -139 34t-32 91h107q-1 -20 15.5 -30t52.5 -10q79 0 80 40h111q-8 -58 -50.5 -91.5t-144.5 -33.5zM276 780l-102 -780h-162l102 780h162z" />
    <glyph glyph-name="ibreve" unicode="&#x12d;" horiz-adv-x="265" 
d="M160 582q-100 0 -137.5 53t-23.5 145h111q-11 -78 64 -78q73 0 84 78h115q-23 -198 -213 -198zM5 0l69 530h158l-69 -530h-158z" />
    <glyph glyph-name="Iogonek" unicode="&#x12e;" horiz-adv-x="283" 
d="M276 780l-102 -780q-29 -9 -50.5 -28.5t-21.5 -46.5q0 -30 39 -30q23 0 43 11l23 -96q-42 -25 -101 -25q-127 0 -127 95q0 47 29 89l106 811h162z" />
    <glyph glyph-name="iogonek" unicode="&#x12f;" horiz-adv-x="266" 
d="M268 772l-22 -167h-167l22 167h167zM-32 -120q0 51 33 94l73 556h158l-69 -530q-29 -9 -50.5 -28.5t-21.5 -46.5q0 -30 39 -30q23 0 43 11l23 -96q-42 -25 -101 -25q-127 0 -127 95z" />
    <glyph glyph-name="Idotaccent" unicode="&#x130;" horiz-adv-x="283" 
d="M283 945l-13 -100h-133l13 100h133zM276 780l-102 -780h-162l102 780h162z" />
    <glyph glyph-name="dotlessi" unicode="&#x131;" horiz-adv-x="266" 
d="M5 0l69 530h158l-69 -530h-158z" />
    <glyph glyph-name="IJ" unicode="&#x132;" horiz-adv-x="608" 
d="M276 780l-102 -780h-162l102 780h162zM372 199l76 581h162l-78 -599q-25 -194 -225 -194q-57 0 -90 13l18 136q23 -9 51 -9q37 0 58.5 15t27.5 57z" />
    <glyph glyph-name="ij" unicode="&#x133;" horiz-adv-x="483" 
d="M5 0l69 530h158l-69 -530h-158zM268 772l-22 -167h-167l22 167h167zM483 772l-22 -167h-167l22 167h167zM219 -6l70 536h158l-72 -553q-25 -190 -220 -190q-58 0 -87 13l17 130q17 -7 50 -7q37 0 57.5 14.5t26.5 56.5z" />
    <glyph glyph-name="Jcircumflex" unicode="&#x134;" horiz-adv-x="537" 
d="M670 840h-139l-57 50l-67 -50h-145l139 110h160zM377 780h162l-70 -541q-17 -129 -76 -190.5t-176 -61.5q-244 0 -213 247l4 32h154q-9 -75 3 -107t54 -32q43 0 62 27t28 98z" />
    <glyph glyph-name="jcircumflex" unicode="&#x135;" horiz-adv-x="266" 
d="M372 596h-135l-61 83l-83 -83h-141l158 184h152zM4 -6l70 536h158l-72 -553q-25 -190 -220 -190q-58 0 -87 13l17 130q18 -7 50 -7q37 0 57.5 14.5t26.5 56.5z" />
    <glyph glyph-name="Kcommaaccent" unicode="&#x136;" horiz-adv-x="625" 
d="M336 -44l-8 -57q-10 -68 -48.5 -96.5t-114.5 -28.5l7 55q76 0 89 35h-79l12 92h142zM271 780l-41 -301l232 301h197l-261 -313l159 -467h-179l-100 322l-81 -97l-28 -225h-162l102 780h162z" />
    <glyph glyph-name="kcommaaccent" unicode="&#x137;" horiz-adv-x="562" 
d="M1 0l105 800h158l-59 -448l169 178h190l-202 -201l133 -329h-178l-77 208l-62 -62l-19 -146h-158zM305 -44l-8 -57q-10 -68 -48.5 -96.5t-114.5 -28.5l7 55q76 0 89 35h-79l12 92h142z" />
    <glyph glyph-name="kgreenlandic" unicode="&#x138;" horiz-adv-x="562" 
d="M71 530h157l-23 -178l169 178h190l-202 -201l133 -329h-178l-77 208l-62 -62l-19 -146h-158z" />
    <glyph glyph-name="Lacute" unicode="&#x139;" horiz-adv-x="521" 
d="M190 950h165l-79 -110h-156zM457 0h-450l102 780h162l-84 -640h288z" />
    <glyph glyph-name="lacute" unicode="&#x13a;" horiz-adv-x="266" 
d="M5 0l105 800h158l-105 -800h-158z" />
    <glyph glyph-name="Lcommaaccent" unicode="&#x13b;" horiz-adv-x="521" 
d="M296 -44l-8 -57q-10 -68 -48.5 -96.5t-114.5 -28.5l7 55q76 0 89 35h-79l12 92h142zM457 0h-450l102 780h162l-84 -640h288z" />
    <glyph glyph-name="lcommaaccent" unicode="&#x13c;" horiz-adv-x="266" 
d="M5 0l105 800h158l-105 -800h-158zM149 -44l-8 -57q-10 -68 -48.5 -96.5t-114.5 -28.5l7 55q76 0 89 35h-79l12 92h142z" />
    <glyph glyph-name="Lcaron" unicode="&#x13d;" horiz-adv-x="521" 
d="M457 0h-450l102 780h162l-84 -640h288zM387 800h95l-52 -204h-70z" />
    <glyph glyph-name="lcaron" unicode="&#x13e;" horiz-adv-x="266" 
d="M324 800h95l-52 -204h-70zM5 0l105 800h158l-105 -800h-158z" />
    <glyph glyph-name="Ldot" unicode="&#x13f;" horiz-adv-x="521" 
d="M457 0h-450l102 780h162l-84 -640h288zM495 482l-22 -167h-167l22 167h167z" />
    <glyph glyph-name="ldot" unicode="&#x140;" horiz-adv-x="439" 
d="M5 0l105 800h158l-105 -800h-158zM445 434l-22 -167h-167l22 167h167z" />
    <glyph glyph-name="Lslash" unicode="&#x141;" horiz-adv-x="581" 
d="M-13 188l18 135l111 51l53 406h162l-43 -326l193 89l-18 -134l-193 -90l-23 -179h288l-18 -140h-450l31 239z" />
    <glyph glyph-name="lslash" unicode="&#x142;" horiz-adv-x="384" 
d="M-1 190l17 133l97 57l55 420h158l-42 -321l109 64l-17 -133l-109 -64l-46 -346h-158l32 246z" />
    <glyph glyph-name="Nacute" unicode="&#x143;" horiz-adv-x="683" 
d="M397 950h165l-79 -110h-156zM109 780h169l188 -484l17 162l42 322h155l-102 -780h-169l-188 484l-17 -162l-42 -322h-155z" />
    <glyph glyph-name="nacute" unicode="&#x144;" horiz-adv-x="580" 
d="M359 780h172l-131 -184h-156zM483 0h-158l44 335q9 72 -59 72q-60 0 -100 -49l-47 -358h-158l50 381l10 149h141v-70q69 83 169 83q91 0 128.5 -50.5t26.5 -134.5z" />
    <glyph glyph-name="Ncommaaccent" unicode="&#x145;" horiz-adv-x="683" 
d="M360 -44l-8 -57q-10 -68 -48.5 -96.5t-114.5 -28.5l7 55q76 0 89 35h-79l12 92h142zM109 780h169l188 -484l17 162l42 322h155l-102 -780h-169l-188 484l-17 -162l-42 -322h-155z" />
    <glyph glyph-name="ncommaaccent" unicode="&#x146;" horiz-adv-x="580" 
d="M309 -44l-8 -57q-10 -68 -48.5 -96.5t-114.5 -28.5l7 55q76 0 89 35h-79l12 92h142zM483 0h-158l44 335q9 72 -59 72q-60 0 -100 -49l-47 -358h-158l50 381l10 149h141v-70q69 83 169 83q91 0 128.5 -50.5t26.5 -134.5z" />
    <glyph glyph-name="Ncaron" unicode="&#x147;" horiz-adv-x="683" 
d="M216 950h139l57 -50l67 50h145l-139 -110h-160zM109 780h169l188 -484l17 162l42 322h155l-102 -780h-169l-188 484l-17 -162l-42 -322h-155z" />
    <glyph glyph-name="ncaron" unicode="&#x148;" horiz-adv-x="580" 
d="M136 780h135l61 -83l83 83h141l-158 -184h-152zM483 0h-158l44 335q9 72 -59 72q-60 0 -100 -49l-47 -358h-158l50 381l10 149h141v-70q69 83 169 83q91 0 128.5 -50.5t26.5 -134.5z" />
    <glyph glyph-name="Eng" unicode="&#x14a;" horiz-adv-x="683" 
d="M109 780h169l188 -484l17 162l42 322h155l-105 -803q-25 -190 -220 -190q-58 0 -87 13l17 130q17 -7 50 -7q69 0 82 58l-196 503l-17 -162l-42 -322h-155z" />
    <glyph glyph-name="eng" unicode="&#x14b;" horiz-adv-x="580" 
d="M530 358l-50 -381q-25 -190 -220 -190q-58 0 -87 13l17 130q18 -7 50 -7q37 0 57.5 14.5t26.5 56.5l45 341q9 72 -59 72q-60 0 -100 -49l-47 -358h-158l50 381l10 149h141v-70q69 83 169 83q91 0 128.5 -50.5t26.5 -134.5z" />
    <glyph glyph-name="Omacron" unicode="&#x14c;" horiz-adv-x="673" 
d="M249 847l13 96h298l-13 -96h-298zM376 793q155 0 221 -93.5t41 -293.5l-4 -32q-26 -204 -104 -295.5t-230 -91.5q-155 0 -221 93.5t-41 293.5l4 32q26 204 104 295.5t230 91.5zM299 127h10q71 0 107.5 61t52.5 186l4 32q16 125 -4 186t-92 61h-10q-71 0 -107.5 -61
t-52.5 -186l-4 -32q-16 -125 4 -186t92 -61z" />
    <glyph glyph-name="omacron" unicode="&#x14d;" horiz-adv-x="556" 
d="M160 619l18 138h300l-18 -138h-300zM247 123q88 0 104 123l5 38q17 123 -76 123q-88 0 -104 -123l-5 -38q-17 -123 76 -123zM242 -13q-127 0 -186 71t-43 188l5 38q33 259 267 259q127 0 186 -71t43 -188l-5 -38q-35 -259 -267 -259z" />
    <glyph glyph-name="Obreve" unicode="&#x14e;" horiz-adv-x="673" 
d="M400 825q-101 0 -139 34t-32 91h107q-1 -20 15.5 -30t52.5 -10q79 0 80 40h111q-8 -58 -50.5 -91.5t-144.5 -33.5zM376 793q155 0 221 -93.5t41 -293.5l-4 -32q-26 -204 -104 -295.5t-230 -91.5q-155 0 -221 93.5t-41 293.5l4 32q26 204 104 295.5t230 91.5zM299 127h10
q71 0 107.5 61t52.5 186l4 32q16 125 -4 186t-92 61h-10q-71 0 -107.5 -61t-52.5 -186l-4 -32q-16 -125 4 -186t92 -61z" />
    <glyph glyph-name="obreve" unicode="&#x14f;" horiz-adv-x="556" 
d="M305 582q-100 0 -137.5 53t-23.5 145h111q-11 -78 64 -78q73 0 84 78h115q-23 -198 -213 -198zM247 123q88 0 104 123l5 38q17 123 -76 123q-88 0 -104 -123l-5 -38q-17 -123 76 -123zM242 -13q-127 0 -186 71t-43 188l5 38q33 259 267 259q127 0 186 -71t43 -188l-5 -38
q-35 -259 -267 -259z" />
    <glyph glyph-name="Ohungarumlaut" unicode="&#x150;" horiz-adv-x="673" 
d="M305 950h149l-71 -110h-139zM480 950h149l-79 -110h-139zM376 793q155 0 221 -93.5t41 -293.5l-4 -32q-26 -204 -104 -295.5t-230 -91.5q-155 0 -221 93.5t-41 293.5l4 32q26 204 104 295.5t230 91.5zM299 127h10q71 0 107.5 61t52.5 186l4 32q16 125 -4 186t-92 61h-10
q-71 0 -107.5 -61t-52.5 -186l-4 -32q-16 -125 4 -186t92 -61z" />
    <glyph glyph-name="ohungarumlaut" unicode="&#x151;" horiz-adv-x="556" 
d="M256 780h140l-108 -184h-123zM440 780h139l-131 -184h-123zM247 123q88 0 104 123l5 38q17 123 -76 123q-88 0 -104 -123l-5 -38q-17 -123 76 -123zM242 -13q-127 0 -186 71t-43 188l5 38q33 259 267 259q127 0 186 -71t43 -188l-5 -38q-35 -259 -267 -259z" />
    <glyph glyph-name="OE" unicode="&#x152;" horiz-adv-x="942" 
d="M460 640h-43q-100 0 -146.5 -53.5t-62.5 -180.5l-4 -32q-15 -122 14 -178t120 -56h56zM39 374l4 32q26 205 114.5 289.5t261.5 84.5h536l-18 -140h-315l-23 -172h265l-18 -140h-265l-25 -188h315l-18 -140h-523q-173 0 -244.5 86.5t-46.5 287.5z" />
    <glyph glyph-name="oe" unicode="&#x153;" horiz-adv-x="894" 
d="M842 208h-341q-12 -101 89 -101q88 0 98 63h149l-2 -15q-10 -75 -73 -121.5t-172 -46.5q-129 0 -178 70q-53 -70 -170 -70q-127 0 -186 71t-43 188l5 38q33 259 267 259q121 0 169 -72q56 72 171 72q133 0 186.5 -77.5t36.5 -210.5zM247 123q88 0 104 123l5 38
q17 123 -76 123q-88 0 -104 -123l-5 -38q-17 -123 76 -123zM625 423q-91 0 -109 -101h183q8 101 -74 101z" />
    <glyph glyph-name="Racute" unicode="&#x154;" horiz-adv-x="623" 
d="M351 950h165l-79 -110h-156zM206 280l-37 -280h-162l102 780h263q265 0 233 -242l-3 -23q-24 -168 -151 -215l83 -300h-170l-69 280h-89zM223 420h102q101 0 114 99l2 15q8 59 -19 82.5t-69 23.5h-100z" />
    <glyph glyph-name="racute" unicode="&#x155;" horiz-adv-x="385" 
d="M269 780h172l-131 -184h-156zM360 543q13 0 14 -1l-21 -162h-13q-96 0 -133 -45l-44 -335h-158l50 381l10 149h141v-70q56 83 154 83z" />
    <glyph glyph-name="Rcommaaccent" unicode="&#x156;" horiz-adv-x="623" 
d="M334 -44l-8 -57q-10 -68 -48.5 -96.5t-114.5 -28.5l7 55q76 0 89 35h-79l12 92h142zM206 280l-37 -280h-162l102 780h263q265 0 233 -242l-3 -23q-24 -168 -151 -215l83 -300h-170l-69 280h-89zM223 420h102q101 0 114 99l2 15q8 59 -19 82.5t-69 23.5h-100z" />
    <glyph glyph-name="rcommaaccent" unicode="&#x157;" horiz-adv-x="385" 
d="M150 -44l-8 -57q-10 -68 -48.5 -96.5t-114.5 -28.5l7 55q76 0 89 35h-79l12 92h142zM360 543q13 0 14 -1l-21 -162h-13q-96 0 -133 -45l-44 -335h-158l50 381l10 149h141v-70q56 83 154 83z" />
    <glyph glyph-name="Rcaron" unicode="&#x158;" horiz-adv-x="623" 
d="M170 950h139l57 -50l67 50h145l-139 -110h-160zM206 280l-37 -280h-162l102 780h263q265 0 233 -242l-3 -23q-24 -168 -151 -215l83 -300h-170l-69 280h-89zM223 420h102q101 0 114 99l2 15q8 59 -19 82.5t-69 23.5h-100z" />
    <glyph glyph-name="rcaron" unicode="&#x159;" horiz-adv-x="385" 
d="M46 780h135l61 -83l83 83h141l-158 -184h-152zM360 543q13 0 14 -1l-21 -162h-13q-96 0 -133 -45l-44 -335h-158l50 381l10 149h141v-70q56 83 154 83z" />
    <glyph glyph-name="Sacute" unicode="&#x15a;" horiz-adv-x="631" 
d="M368 950h165l-79 -110h-156zM279 327q-241 44 -217 225l3 23q14 107 85.5 162.5t192.5 55.5q154 0 219.5 -67t48.5 -199l-3 -23h-162q10 77 -13 113t-89 36h-10q-42 0 -71 -20.5t-33 -56.5l-2 -15q-5 -38 22.5 -63t106.5 -40q245 -46 221 -230l-3 -23q-14 -108 -88 -163
t-198 -55q-148 0 -218.5 65.5t-54.5 190.5l3 23h162q-19 -139 107 -139h10q101 0 112 77l2 15q6 41 -23.5 67t-109.5 41z" />
    <glyph glyph-name="sacute" unicode="&#x15b;" horiz-adv-x="528" 
d="M330 780h172l-131 -184h-156zM267 324q104 -12 156.5 -49t41.5 -118l-2 -15q-10 -73 -70 -114t-164 -41q-122 0 -178 43t-45 123l2 15h157q-5 -28 12.5 -44.5t56.5 -16.5q73 0 73 58q0 21 -16 32.5t-56 15.5q-108 12 -156 50.5t-38 113.5l2 15q10 76 72 113.5t157 37.5
q119 0 172 -44.5t42 -127.5l-2 -15h-155q10 67 -62 67q-33 0 -52.5 -15t-19.5 -40q0 -20 16 -30t56 -14z" />
    <glyph glyph-name="Scircumflex" unicode="&#x15c;" horiz-adv-x="631" 
d="M580 840h-139l-57 50l-67 -50h-145l139 110h160zM279 327q-241 44 -217 225l3 23q14 107 85.5 162.5t192.5 55.5q154 0 219.5 -67t48.5 -199l-3 -23h-162q10 77 -13 113t-89 36h-10q-42 0 -71 -20.5t-33 -56.5l-2 -15q-5 -38 22.5 -63t106.5 -40q245 -46 221 -230l-3 -23
q-14 -108 -88 -163t-198 -55q-148 0 -218.5 65.5t-54.5 190.5l3 23h162q-19 -139 107 -139h10q101 0 112 77l2 15q6 41 -23.5 67t-109.5 41z" />
    <glyph glyph-name="scircumflex" unicode="&#x15d;" horiz-adv-x="528" 
d="M503 596h-135l-61 83l-83 -83h-141l158 184h152zM267 324q104 -12 156.5 -49t41.5 -118l-2 -15q-10 -73 -70 -114t-164 -41q-122 0 -178 43t-45 123l2 15h157q-5 -28 12.5 -44.5t56.5 -16.5q73 0 73 58q0 21 -16 32.5t-56 15.5q-108 12 -156 50.5t-38 113.5l2 15
q10 76 72 113.5t157 37.5q119 0 172 -44.5t42 -127.5l-2 -15h-155q10 67 -62 67q-33 0 -52.5 -15t-19.5 -40q0 -20 16 -30t56 -14z" />
    <glyph glyph-name="Scedilla" unicode="&#x15e;" horiz-adv-x="631" 
d="M279 327q-241 44 -217 225l3 23q14 107 85.5 162.5t192.5 55.5q154 0 219.5 -67t48.5 -199l-3 -23h-162q10 77 -13 113t-89 36h-10q-42 0 -71 -20.5t-33 -56.5l-2 -15q-5 -38 22.5 -63t106.5 -40q245 -46 221 -230l-3 -23q-14 -106 -86.5 -161t-193.5 -57l-14 -27
q90 -7 90 -78q0 -45 -34.5 -71t-91.5 -26q-73 0 -111 25l32 66q26 -17 74 -17q46 0 46 25q0 21 -45 21l-39 -5l-11 28l34 63q-116 13 -169.5 77t-39.5 175l3 23h162q-19 -139 107 -139h10q101 0 112 77l2 15q6 41 -23.5 67t-109.5 41z" />
    <glyph glyph-name="scedilla" unicode="&#x15f;" horiz-adv-x="528" 
d="M267 324q104 -12 156.5 -49t41.5 -118l-2 -15q-10 -69 -64 -109.5t-149 -44.5l-14 -28q90 -7 90 -78q0 -45 -34.5 -71t-91.5 -26q-74 0 -111 25l32 66q25 -17 74 -17q46 0 46 25q0 21 -45 21l-39 -5l-11 28l33 62q-96 8 -139 50t-34 113l2 15h157q-5 -28 12.5 -44.5
t56.5 -16.5q73 0 73 58q0 21 -16 32.5t-56 15.5q-108 12 -156 50.5t-38 113.5l2 15q10 76 72 113.5t157 37.5q119 0 172 -44.5t42 -127.5l-2 -15h-155q10 67 -62 67q-33 0 -52.5 -15t-19.5 -40q0 -20 16 -30t56 -14z" />
    <glyph glyph-name="Scaron" unicode="&#x160;" horiz-adv-x="631" 
d="M187 950h139l57 -50l67 50h145l-139 -110h-160zM279 327q-241 44 -217 225l3 23q14 107 85.5 162.5t192.5 55.5q154 0 219.5 -67t48.5 -199l-3 -23h-162q10 77 -13 113t-89 36h-10q-42 0 -71 -20.5t-33 -56.5l-2 -15q-5 -38 22.5 -63t106.5 -40q245 -46 221 -230l-3 -23
q-14 -108 -88 -163t-198 -55q-148 0 -218.5 65.5t-54.5 190.5l3 23h162q-19 -139 107 -139h10q101 0 112 77l2 15q6 41 -23.5 67t-109.5 41z" />
    <glyph glyph-name="scaron" unicode="&#x161;" horiz-adv-x="528" 
d="M107 780h135l61 -83l83 83h141l-158 -184h-152zM267 324q104 -12 156.5 -49t41.5 -118l-2 -15q-10 -73 -70 -114t-164 -41q-122 0 -178 43t-45 123l2 15h157q-5 -28 12.5 -44.5t56.5 -16.5q73 0 73 58q0 21 -16 32.5t-56 15.5q-108 12 -156 50.5t-38 113.5l2 15
q10 76 72 113.5t157 37.5q119 0 172 -44.5t42 -127.5l-2 -15h-155q10 67 -62 67q-33 0 -52.5 -15t-19.5 -40q0 -20 16 -30t56 -14z" />
    <glyph glyph-name="Tcommaaccent" unicode="&#x162;" horiz-adv-x="557" 
d="M294 -44l-8 -57q-10 -68 -48.5 -96.5t-114.5 -28.5l7 55q76 0 89 35h-79l12 92h142zM394 640l-84 -640h-162l84 640h-180l18 140h523l-18 -140h-181z" />
    <glyph glyph-name="tcommaaccent" unicode="&#x163;" horiz-adv-x="431" 
d="M266 -44l-8 -57q-10 -68 -48.5 -96.5t-114.5 -28.5l7 55q76 0 89 35h-79l12 92h142zM278 530h136l-18 -138h-136l-26 -197q-5 -37 9 -54.5t58 -17.5q37 0 51 7l-17 -130q-26 -13 -75 -13q-113 0 -155.5 49.5t-31.5 135.5l29 220h-82l18 138h82l20 150h158z" />
    <glyph glyph-name="Tcaron" unicode="&#x164;" horiz-adv-x="557" 
d="M150 950h139l57 -50l67 50h145l-139 -110h-160zM394 640l-84 -640h-162l84 640h-180l18 140h523l-18 -140h-181z" />
    <glyph glyph-name="tcaron" unicode="&#x165;" horiz-adv-x="431" 
d="M370 800h95l-52 -204h-70zM278 530h136l-18 -138h-136l-26 -197q-5 -37 9 -54.5t58 -17.5q37 0 51 7l-17 -130q-26 -13 -75 -13q-113 0 -155.5 49.5t-31.5 135.5l29 220h-82l18 138h82l20 150h158z" />
    <glyph glyph-name="Tbar" unicode="&#x166;" horiz-adv-x="557" 
d="M394 640l-24 -181h119l-16 -121h-119l-44 -338h-162l44 338h-119l16 121h119l24 181h-180l18 140h523l-18 -140h-181z" />
    <glyph glyph-name="tbar" unicode="&#x167;" horiz-adv-x="431" 
d="M13 208l15 112h64l10 72h-82l18 138h82l20 150h158l-20 -150h136l-18 -138h-136l-10 -72h96l-15 -112h-96l-1 -13q-5 -37 9 -54.5t58 -17.5q37 0 51 7l-17 -130q-26 -13 -75 -13q-113 0 -155.5 49.5t-31.5 135.5l4 36h-64z" />
    <glyph glyph-name="Utilde" unicode="&#x168;" horiz-adv-x="663" 
d="M506 947h85q-6 -62 -37.5 -90.5t-76.5 -28.5q-35 0 -83.5 24t-64.5 24q-34 0 -37 -33h-85q6 62 37.5 90.5t76.5 28.5q35 0 83.5 -24t64.5 -24q34 0 37 33zM293 -13q-155 0 -215.5 64.5t-43.5 195.5l70 533h162l-69 -528q-9 -65 12.5 -95t87.5 -30q67 0 97.5 30t39.5 95
l69 528h162l-70 -533q-17 -134 -83.5 -197t-218.5 -63z" />
    <glyph glyph-name="utilde" unicode="&#x169;" horiz-adv-x="580" 
d="M434 772h105q-6 -78 -42 -118.5t-84 -40.5q-37 0 -87.5 26t-68.5 26q-14 0 -24 -9.5t-10 -27.5h-105q6 78 42 118.5t84 40.5q37 0 87.5 -26t68.5 -26q14 0 24 9.5t10 27.5zM68 530h158l-44 -335q-9 -72 59 -72q60 0 100 49l47 358h158l-50 -381l-10 -149h-141v70
q-69 -83 -169 -83q-91 0 -128.5 50.5t-26.5 134.5z" />
    <glyph glyph-name="Umacron" unicode="&#x16a;" horiz-adv-x="663" 
d="M244 847l13 96h298l-13 -96h-298zM293 -13q-155 0 -215.5 64.5t-43.5 195.5l70 533h162l-69 -528q-9 -65 12.5 -95t87.5 -30q67 0 97.5 30t39.5 95l69 528h162l-70 -533q-17 -134 -83.5 -197t-218.5 -63z" />
    <glyph glyph-name="umacron" unicode="&#x16b;" horiz-adv-x="580" 
d="M168 619l18 138h300l-18 -138h-300zM68 530h158l-44 -335q-9 -72 59 -72q60 0 100 49l47 358h158l-50 -381l-10 -149h-141v70q-69 -83 -169 -83q-91 0 -128.5 50.5t-26.5 134.5z" />
    <glyph glyph-name="Ubreve" unicode="&#x16c;" horiz-adv-x="663" 
d="M395 825q-101 0 -139 34t-32 91h107q-1 -20 15.5 -30t52.5 -10q79 0 80 40h111q-8 -58 -50.5 -91.5t-144.5 -33.5zM293 -13q-155 0 -215.5 64.5t-43.5 195.5l70 533h162l-69 -528q-9 -65 12.5 -95t87.5 -30q67 0 97.5 30t39.5 95l69 528h162l-70 -533
q-17 -134 -83.5 -197t-218.5 -63z" />
    <glyph glyph-name="ubreve" unicode="&#x16d;" horiz-adv-x="580" 
d="M313 582q-100 0 -137.5 53t-23.5 145h111q-11 -78 64 -78q73 0 84 78h115q-23 -198 -213 -198zM68 530h158l-44 -335q-9 -72 59 -72q60 0 100 49l47 358h158l-50 -381l-10 -149h-141v70q-69 -83 -169 -83q-91 0 -128.5 50.5t-26.5 134.5z" />
    <glyph glyph-name="Uring" unicode="&#x16e;" horiz-adv-x="663" 
d="M500 870q0 -50 -34 -83.5t-83 -33.5q-41 0 -68.5 26.5t-27.5 66.5q0 50 34 83.5t83 33.5q41 0 68.5 -26.5t27.5 -66.5zM445 863q0 20 -13 33t-33 13q-24 0 -40.5 -16t-16.5 -40q0 -20 13 -33t33 -13q24 0 40.5 16t16.5 40zM293 -13q-155 0 -215.5 64.5t-43.5 195.5
l70 533h162l-69 -528q-9 -65 12.5 -95t87.5 -30q67 0 97.5 30t39.5 95l69 528h162l-70 -533q-17 -134 -83.5 -197t-218.5 -63z" />
    <glyph glyph-name="uring" unicode="&#x16f;" horiz-adv-x="580" 
d="M434 700q0 -50 -34 -83.5t-83 -33.5q-41 0 -68.5 26.5t-27.5 66.5q0 50 34 83.5t83 33.5q41 0 68.5 -26.5t27.5 -66.5zM379 693q0 20 -13 33t-33 13q-24 0 -40.5 -16t-16.5 -40q0 -20 13 -33t33 -13q24 0 40.5 16t16.5 40zM68 530h158l-44 -335q-9 -72 59 -72
q60 0 100 49l47 358h158l-50 -381l-10 -149h-141v70q-69 -83 -169 -83q-91 0 -128.5 50.5t-26.5 134.5z" />
    <glyph glyph-name="Uhungarumlaut" unicode="&#x170;" horiz-adv-x="663" 
d="M300 950h149l-71 -110h-139zM475 950h149l-79 -110h-139zM293 -13q-155 0 -215.5 64.5t-43.5 195.5l70 533h162l-69 -528q-9 -65 12.5 -95t87.5 -30q67 0 97.5 30t39.5 95l69 528h162l-70 -533q-17 -134 -83.5 -197t-218.5 -63z" />
    <glyph glyph-name="uhungarumlaut" unicode="&#x171;" horiz-adv-x="580" 
d="M264 780h140l-108 -184h-123zM448 780h139l-131 -184h-123zM68 530h158l-44 -335q-9 -72 59 -72q60 0 100 49l47 358h158l-50 -381l-10 -149h-141v70q-69 -83 -169 -83q-91 0 -128.5 50.5t-26.5 134.5z" />
    <glyph glyph-name="Uogonek" unicode="&#x172;" horiz-adv-x="663" 
d="M412 0q-28 -7 -50 -27t-22 -48q0 -30 39 -30q23 0 43 11l23 -96q-42 -25 -101 -25q-127 0 -127 95q0 58 45 108q-138 6 -191 70t-37 189l70 533h162l-69 -528q-9 -65 12.5 -95t87.5 -30q67 0 97.5 30t39.5 95l69 528h162l-70 -533q-13 -105 -55 -165t-128 -82z" />
    <glyph glyph-name="uogonek" unicode="&#x173;" horiz-adv-x="580" 
d="M68 530h158l-44 -335q-9 -72 59 -72q60 0 100 49l47 358h158l-50 -381l-10 -149q-29 -9 -50.5 -28.5t-21.5 -46.5q0 -30 39 -30q23 0 43 11l23 -96q-42 -25 -101 -25q-127 0 -127 95q0 65 54 117v73q-69 -83 -169 -83q-91 0 -128.5 50.5t-26.5 134.5z" />
    <glyph glyph-name="Wcircumflex" unicode="&#x174;" horiz-adv-x="937" 
d="M733 840h-139l-57 50l-67 -50h-145l139 110h160zM529 -2l-28 587l-175 -587h-225l-29 782h158l18 -559l167 559h213l27 -560l159 560h157l-233 -782h-209z" />
    <glyph glyph-name="wcircumflex" unicode="&#x175;" horiz-adv-x="766" 
d="M622 596h-135l-61 83l-83 -83h-141l158 184h152zM382 365l-121 -365h-203l-19 530h150l-2 -359l120 359h192l28 -359l87 359h153l-159 -530h-199z" />
    <glyph glyph-name="Ycircumflex" unicode="&#x176;" horiz-adv-x="625" 
d="M578 840h-139l-57 50l-67 -50h-145l139 110h160zM376 239l-31 -239h-162l31 239l-153 541h174l83 -343l172 343h180z" />
    <glyph glyph-name="ycircumflex" unicode="&#x177;" horiz-adv-x="551" 
d="M516 596h-135l-61 83l-83 -83h-141l158 184h152zM251 192l143 338h175l-253 -502l-98 -228h-188l115 228l-120 502h169z" />
    <glyph glyph-name="Ydieresis" unicode="&#x178;" horiz-adv-x="625" 
d="M367 945l-13 -100h-133l13 100h133zM542 945l-13 -100h-133l13 100h133zM376 239l-31 -239h-162l31 239l-153 541h174l83 -343l172 343h180z" />
    <glyph glyph-name="Zacute" unicode="&#x179;" horiz-adv-x="599" 
d="M351 950h165l-79 -110h-156zM4 108l383 535l-143 -3h-160l18 140h499l-14 -108l-383 -535l142 3h181l-18 -140h-519z" />
    <glyph glyph-name="zacute" unicode="&#x17a;" horiz-adv-x="499" 
d="M314 780h172l-131 -184h-156zM-12 108l268 287l-111 -3h-110l18 138h431l-14 -108l-268 -287l111 3h130l-18 -138h-451z" />
    <glyph glyph-name="Zdotaccent" unicode="&#x17b;" horiz-adv-x="599" 
d="M439 945l-13 -100h-133l13 100h133zM4 108l383 535l-143 -3h-160l18 140h499l-14 -108l-383 -535l142 3h181l-18 -140h-519z" />
    <glyph glyph-name="zdotaccent" unicode="&#x17c;" horiz-adv-x="499" 
d="M384 772l-22 -167h-167l22 167h167zM-12 108l268 287l-111 -3h-110l18 138h431l-14 -108l-268 -287l111 3h130l-18 -138h-451z" />
    <glyph glyph-name="Zcaron" unicode="&#x17d;" horiz-adv-x="599" 
d="M170 950h139l57 -50l67 50h145l-139 -110h-160zM4 108l383 535l-143 -3h-160l18 140h499l-14 -108l-383 -535l142 3h181l-18 -140h-519z" />
    <glyph glyph-name="zcaron" unicode="&#x17e;" horiz-adv-x="499" 
d="M91 780h135l61 -83l83 83h141l-158 -184h-152zM-12 108l268 287l-111 -3h-110l18 138h431l-14 -108l-268 -287l111 3h130l-18 -138h-451z" />
    <glyph glyph-name="Scommaaccent" unicode="&#x218;" horiz-adv-x="631" 
d="M331 -44l-8 -57q-10 -68 -48.5 -96.5t-114.5 -28.5l7 55q76 0 89 35h-79l12 92h142zM279 327q-241 44 -217 225l3 23q14 107 85.5 162.5t192.5 55.5q154 0 219.5 -67t48.5 -199l-3 -23h-162q10 77 -13 113t-89 36h-10q-42 0 -71 -20.5t-33 -56.5l-2 -15q-5 -38 22.5 -63
t106.5 -40q245 -46 221 -230l-3 -23q-14 -108 -88 -163t-198 -55q-148 0 -218.5 65.5t-54.5 190.5l3 23h162q-19 -139 107 -139h10q101 0 112 77l2 15q6 41 -23.5 67t-109.5 41z" />
    <glyph glyph-name="scommaaccent" unicode="&#x219;" horiz-adv-x="528" 
d="M280 -44l-8 -57q-10 -68 -48.5 -96.5t-114.5 -28.5l7 55q76 0 89 35h-79l12 92h142zM267 324q104 -12 156.5 -49t41.5 -118l-2 -15q-10 -73 -70 -114t-164 -41q-122 0 -178 43t-45 123l2 15h157q-5 -28 12.5 -44.5t56.5 -16.5q73 0 73 58q0 21 -16 32.5t-56 15.5
q-108 12 -156 50.5t-38 113.5l2 15q10 76 72 113.5t157 37.5q119 0 172 -44.5t42 -127.5l-2 -15h-155q10 67 -62 67q-33 0 -52.5 -15t-19.5 -40q0 -20 16 -30t56 -14z" />
    <glyph glyph-name="Ymacron" unicode="&#x232;" horiz-adv-x="625" 
d="M226 847l13 96h298l-13 -96h-298zM376 239l-31 -239h-162l31 239l-153 541h174l83 -343l172 343h180z" />
    <glyph glyph-name="ymacron" unicode="&#x233;" horiz-adv-x="551" 
d="M159 619l18 138h300l-18 -138h-300zM251 192l143 338h175l-253 -502l-98 -228h-188l115 228l-120 502h169z" />
    <glyph glyph-name="dotlessj" unicode="&#x237;" horiz-adv-x="268" 
d="M4 -6l70 536h158l-72 -553q-25 -190 -220 -190q-58 0 -87 13l17 130q18 -7 50 -7q37 0 57.5 14.5t26.5 56.5z" />
    <glyph glyph-name="circumflex" unicode="&#x2c6;" horiz-adv-x="500" 
d="M489 596h-135l-61 83l-83 -83h-141l158 184h152z" />
    <glyph glyph-name="caron" unicode="&#x2c7;" horiz-adv-x="500" 
d="M93 780h135l61 -83l83 83h141l-158 -184h-152z" />
    <glyph glyph-name="breve" unicode="&#x2d8;" horiz-adv-x="500" 
d="M277 582q-100 0 -137.5 53t-23.5 145h111q-11 -78 64 -78q73 0 84 78h115q-23 -198 -213 -198z" />
    <glyph glyph-name="dotaccent" unicode="&#x2d9;" horiz-adv-x="500" 
d="M386 772l-22 -167h-167l22 167h167z" />
    <glyph glyph-name="ring" unicode="&#x2da;" horiz-adv-x="500" 
d="M398 700q0 -50 -34 -83.5t-83 -33.5q-41 0 -68.5 26.5t-27.5 66.5q0 50 34 83.5t83 33.5q41 0 68.5 -26.5t27.5 -66.5zM343 693q0 20 -13 33t-33 13q-24 0 -40.5 -16t-16.5 -40q0 -20 13 -33t33 -13q24 0 40.5 16t16.5 40z" />
    <glyph glyph-name="ogonek" unicode="&#x2db;" horiz-adv-x="602" 
d="M243 0q-29 -9 -50.5 -28.5t-21.5 -46.5q0 -30 39 -30q23 0 43 11l23 -96q-42 -25 -101 -25q-127 0 -127 95q0 66 52.5 115.5t123.5 70.5z" />
    <glyph glyph-name="tilde" unicode="&#x2dc;" horiz-adv-x="500" 
d="M398 772h105q-6 -78 -42 -118.5t-84 -40.5q-37 0 -87.5 26t-68.5 26q-14 0 -24 -9.5t-10 -27.5h-105q6 78 42 118.5t84 40.5q37 0 87.5 -26t68.5 -26q14 0 24 9.5t10 27.5z" />
    <glyph glyph-name="hungarumlaut" unicode="&#x2dd;" horiz-adv-x="500" 
d="M228 780h140l-108 -184h-123zM412 780h139l-131 -184h-123z" />
    <glyph glyph-name="Bdotaccent" unicode="&#x1e02;" horiz-adv-x="631" 
d="M439 945l-13 -100h-133l13 100h133zM109 780h258q50 0 89.5 -9t74.5 -31.5t50 -67t7 -107.5l-3 -23q-7 -58 -31 -90.5t-69 -48.5q96 -33 79 -166l-3 -23q-7 -55 -27.5 -95.5t-46.5 -62.5t-64 -35.5t-72 -17t-79 -3.5h-265zM322 328h-111l-24 -188h107q44 0 71.5 17
t33.5 66l2 15q12 90 -79 90zM348 640h-95l-23 -171h96q86 0 96 77l2 15q6 42 -16.5 60.5t-59.5 18.5z" />
    <glyph glyph-name="bdotaccent" unicode="&#x1e03;" horiz-adv-x="574" 
d="M266 800l-41 -312q49 55 137 55q99 0 142.5 -69t27.5 -190l-5 -38q-16 -121 -71.5 -190t-153.5 -69q-106 0 -147 78l-18 -65h-142l28 150l85 650h158zM265 123q89 0 104 123l5 38q17 123 -74 123q-53 0 -92 -49l-24 -183q26 -52 81 -52zM272 945l-13 -100h-133l13 100
h133z" />
    <glyph glyph-name="Ddotaccent" unicode="&#x1e0a;" horiz-adv-x="663" 
d="M454 945l-13 -100h-133l13 100h133zM628 406l-4 -32q-26 -205 -114.5 -289.5t-261.5 -84.5h-241l102 780h228q173 0 244.5 -86.5t46.5 -287.5zM187 140h63q100 0 146.5 53.5t62.5 180.5l4 32q15 122 -14 178t-120 56h-76z" />
    <glyph glyph-name="ddotaccent" unicode="&#x1e0b;" horiz-adv-x="582" 
d="M190 -13q-99 0 -142.5 69t-27.5 190l5 38q16 121 71.5 190t153.5 69q51 0 85.5 -18t49.5 -41l42 316h158l-86 -651l-10 -149h-141v70q-51 -83 -158 -83zM287 407q-89 0 -104 -123l-5 -38q-17 -123 74 -123q53 0 92 49l24 183q-26 52 -81 52zM591 945l-13 -100h-133
l13 100h133z" />
    <glyph glyph-name="Fdotaccent" unicode="&#x1e1e;" horiz-adv-x="549" 
d="M437 945l-13 -100h-133l13 100h133zM109 780h473l-18 -140h-311l-23 -172h261l-18 -140h-261l-43 -328h-162z" />
    <glyph glyph-name="fdotaccent" unicode="&#x1e1f;" horiz-adv-x="411" 
d="M288 606l-10 -76h116l-18 -138h-116l-51 -392h-158l51 392h-82l18 138h82l12 93q25 190 220 190q58 0 87 -13l-17 -130q-18 7 -50 7q-37 0 -57.5 -14.5t-26.5 -56.5zM385 945l-13 -100h-133l13 100h133z" />
    <glyph glyph-name="Mdotaccent" unicode="&#x1e40;" horiz-adv-x="869" 
d="M576 945l-13 -100h-133l13 100h133zM673 499l-205 -499h-165l-74 499l-18 -177l-42 -322h-162l102 780h236l71 -499l202 499h249l-102 -780h-162l42 322z" />
    <glyph glyph-name="mdotaccent" unicode="&#x1e41;" horiz-adv-x="863" 
d="M571 772l-22 -167h-167l22 167h167zM512 366l-48 -366h-158l45 343q8 64 -57 64q-51 0 -83 -41l-48 -366h-158l50 381l10 149h141v-60q58 73 156 73q104 0 139 -80q61 80 162 80q82 0 121 -50.5t29 -126.5l-48 -366h-158l45 343q8 64 -57 64q-51 0 -83 -41z" />
    <glyph glyph-name="Pdotaccent" unicode="&#x1e56;" horiz-adv-x="609" 
d="M434 945l-13 -100h-133l13 100h133zM206 280l-37 -280h-162l102 780h263q265 0 233 -242l-3 -23q-8 -59 -29.5 -103t-48.5 -68.5t-65 -39.5t-72 -19.5t-77 -4.5h-104zM223 420h102q101 0 114 99l2 15q8 59 -19 82.5t-69 23.5h-100z" />
    <glyph glyph-name="pdotaccent" unicode="&#x1e57;" horiz-adv-x="574" 
d="M434 772l-22 -167h-167l22 167h167zM134 -200h-158l77 581l10 149h141v-70q51 83 158 83q99 0 142.5 -69t27.5 -190l-5 -38q-16 -121 -71.5 -190t-153.5 -69q-51 0 -85.5 18t-49.5 41zM265 123q89 0 104 123l5 38q17 123 -74 123q-53 0 -92 -49l-24 -183q26 -52 81 -52z
" />
    <glyph glyph-name="Tdotaccent" unicode="&#x1e6a;" horiz-adv-x="557" 
d="M419 945l-13 -100h-133l13 100h133zM394 640l-84 -640h-162l84 640h-180l18 140h523l-18 -140h-181z" />
    <glyph glyph-name="tdotaccent" unicode="&#x1e6b;" horiz-adv-x="431" 
d="M278 530h136l-18 -138h-136l-26 -197q-5 -37 9 -54.5t58 -17.5q37 0 51 7l-17 -130q-26 -13 -75 -13q-113 0 -155.5 49.5t-31.5 135.5l29 220h-82l18 138h82l20 150h158zM303 825l-13 -100h-133l13 100h133z" />
    <glyph glyph-name="Wgrave" unicode="&#x1e80;" horiz-adv-x="937" 
d="M402 950h165l40 -110h-156zM529 -2l-28 587l-175 -587h-225l-29 782h158l18 -559l167 559h213l27 -560l159 560h157l-233 -782h-209z" />
    <glyph glyph-name="wgrave" unicode="&#x1e81;" horiz-adv-x="766" 
d="M251 780h172l67 -184h-156zM382 365l-121 -365h-203l-19 530h150l-2 -359l120 359h192l28 -359l87 359h153l-159 -530h-199z" />
    <glyph glyph-name="Wacute" unicode="&#x1e82;" horiz-adv-x="937" 
d="M521 950h165l-79 -110h-156zM529 -2l-28 587l-175 -587h-225l-29 782h158l18 -559l167 559h213l27 -560l159 560h157l-233 -782h-209z" />
    <glyph glyph-name="wacute" unicode="&#x1e83;" horiz-adv-x="766" 
d="M449 780h172l-131 -184h-156zM382 365l-121 -365h-203l-19 530h150l-2 -359l120 359h192l28 -359l87 359h153l-159 -530h-199z" />
    <glyph glyph-name="Wdieresis" unicode="&#x1e84;" horiz-adv-x="937" 
d="M522 945l-13 -100h-133l13 100h133zM697 945l-13 -100h-133l13 100h133zM529 -2l-28 587l-175 -587h-225l-29 782h158l18 -559l167 559h213l27 -560l159 560h157l-233 -782h-209z" />
    <glyph glyph-name="wdieresis" unicode="&#x1e85;" horiz-adv-x="766" 
d="M411 772l-22 -167h-167l22 167h167zM626 772l-22 -167h-167l22 167h167zM382 365l-121 -365h-203l-19 530h150l-2 -359l120 359h192l28 -359l87 359h153l-159 -530h-199z" />
    <glyph glyph-name="Eszett" unicode="&#x1e9e;" horiz-adv-x="805" 
d="M313 444l149 207q-24 2 -42 2q-90 0 -134.5 -30.5t-52.5 -94.5l-69 -528h-162l70 533q17 133 97 196.5t255 63.5q145 0 233 -37l-12 -100l-139 -192l33 -4q111 -13 174.5 -74.5t50.5 -160.5l-3 -23q-29 -215 -263 -215q-140 0 -199 62.5t-42 193.5l3 23h162
q-25 -139 75 -139h10q77 0 88 79l2 15q5 44 -20 70t-87 33l-190 23z" />
    <glyph glyph-name="Ygrave" unicode="&#x1ef2;" horiz-adv-x="625" 
d="M247 950h165l40 -110h-156zM376 239l-31 -239h-162l31 239l-153 541h174l83 -343l172 343h180z" />
    <glyph glyph-name="ygrave" unicode="&#x1ef3;" horiz-adv-x="551" 
d="M145 780h172l67 -184h-156zM251 192l143 338h175l-253 -502l-98 -228h-188l115 228l-120 502h169z" />
    <glyph glyph-name="enspace" unicode="&#x2002;" horiz-adv-x="500" 
 />
    <glyph glyph-name="emspace" unicode="&#x2003;" horiz-adv-x="1000" 
 />
    <glyph glyph-name="threeperemspace" unicode="&#x2004;" horiz-adv-x="333" 
 />
    <glyph glyph-name="fourperemspace" unicode="&#x2005;" horiz-adv-x="250" 
 />
    <glyph glyph-name="sixperemspace" unicode="&#x2006;" horiz-adv-x="167" 
 />
    <glyph glyph-name="figurespace" unicode="&#x2007;" horiz-adv-x="600" 
 />
    <glyph glyph-name="punctuationspace" unicode="&#x2008;" horiz-adv-x="180" 
 />
    <glyph glyph-name="thinspace" unicode="&#x2009;" horiz-adv-x="150" 
 />
    <glyph glyph-name="hairspace" unicode="&#x200a;" horiz-adv-x="50" 
 />
    <glyph glyph-name="zerowidthspace" unicode="&#x200b;" horiz-adv-x="0" 
 />
    <glyph glyph-name="figuredash" unicode="&#x2012;" horiz-adv-x="600" 
d="M27 281l18 138h520l-18 -138h-520z" />
    <glyph glyph-name="endash" unicode="&#x2013;" horiz-adv-x="500" 
d="M27 281l18 138h420l-18 -138h-420z" />
    <glyph glyph-name="emdash" unicode="&#x2014;" horiz-adv-x="1000" 
d="M27 281l18 138h920l-18 -138h-920z" />
    <glyph glyph-name="uni2015" unicode="&#x2015;" horiz-adv-x="1200" 
d="M27 281l18 138h1120l-18 -138h-1120z" />
    <glyph glyph-name="doublebar" unicode="&#x2016;" horiz-adv-x="459" 
d="M-11 -120l126 960h154l-126 -960h-154zM186 -120l126 960h154l-126 -960h-154z" />
    <glyph glyph-name="quoteleft" unicode="&#x2018;" horiz-adv-x="266" 
d="M66 496l17 130q23 180 195 180l-10 -76q-82 0 -98 -67h85l-22 -167h-167z" />
    <glyph glyph-name="quoteright" unicode="&#x2019;" horiz-adv-x="266" 
d="M269 780l-17 -130q-23 -180 -195 -180l10 76q82 0 98 67h-85l22 167h167z" />
    <glyph glyph-name="quotesinglbase" unicode="&#x201a;" horiz-adv-x="266" 
d="M189 167l-17 -130q-23 -180 -195 -180l10 76q82 0 98 67h-85l22 167h167z" />
    <glyph glyph-name="reversequoteleft" unicode="&#x201b;" horiz-adv-x="266" 
d="M103 780h166l-22 -167h-85q-1 -32 21 -49.5t60 -17.5l-10 -76q-81 0 -119.5 46.5t-27.5 133.5z" />
    <glyph glyph-name="quotedblleft" unicode="&#x201c;" horiz-adv-x="486" 
d="M286 496l17 130q23 180 195 180l-10 -76q-82 0 -98 -67h85l-22 -167h-167zM66 496l17 130q23 180 195 180l-10 -76q-82 0 -98 -67h85l-22 -167h-167z" />
    <glyph glyph-name="quotedblright" unicode="&#x201d;" horiz-adv-x="486" 
d="M269 780l-17 -130q-23 -180 -195 -180l10 76q82 0 98 67h-85l22 167h167zM489 780l-17 -130q-23 -180 -195 -180l10 76q82 0 98 67h-85l22 167h167z" />
    <glyph glyph-name="quotedblbase" unicode="&#x201e;" horiz-adv-x="486" 
d="M189 167l-17 -130q-23 -180 -195 -180l10 76q82 0 98 67h-85l22 167h167zM409 167l-17 -130q-23 -180 -195 -180l10 76q82 0 98 67h-85l22 167h167z" />
    <glyph glyph-name="reversequotedblleft" unicode="&#x201f;" horiz-adv-x="486" 
d="M103 780h166l-22 -167h-85q-1 -32 21 -49.5t60 -17.5l-10 -76q-81 0 -119.5 46.5t-27.5 133.5zM323 780h166l-22 -167h-85q-1 -32 21 -49.5t60 -17.5l-10 -76q-81 0 -119.5 46.5t-27.5 133.5z" />
    <glyph glyph-name="dagger" unicode="&#x2020;" horiz-adv-x="413" 
d="M170 437l22 129h79l-12 -129l-22 -130h-79zM50 572l11 88l132 -5l-11 -78zM426 660l-11 -88l-132 5l11 78zM218 800h89l-23 -134h-79z" />
    <glyph glyph-name="daggerdbl" unicode="&#x2021;" horiz-adv-x="413" 
d="M218 800h89l-23 -134h-79zM178 499l14 67h79l-4 -67l-14 -67h-79zM50 572l11 88l132 -5l-11 -78zM426 660l-11 -88l-132 5l11 78zM139 203l22 129h79l-12 -129l-22 -130h-79zM19 338l11 88l132 -5l-11 -78zM395 426l-11 -88l-132 5l11 78z" />
    <glyph glyph-name="bullet" unicode="&#x2022;" horiz-adv-x="445" 
d="M400 511l-42 -322h-321l42 322h321z" />
    <glyph glyph-name="ellipsis" unicode="&#x2026;" horiz-adv-x="1000" 
d="M235 167l-22 -167h-167l22 167h167zM555 167l-22 -167h-167l22 167h167zM875 167l-22 -167h-167l22 167h167z" />
    <glyph glyph-name="perthousand" unicode="&#x2030;" horiz-adv-x="1401" 
d="M928 188l-1 -11q-8 -86 -68.5 -138t-131.5 -52q-92 0 -139 51.5t-39 136.5l1 11q8 86 68.5 138t131.5 52q92 0 139 -51.5t39 -136.5zM1348 188l-1 -11q-8 -86 -68.5 -138t-131.5 -52q-92 0 -139 51.5t-39 136.5l1 11q8 86 68.5 138t131.5 52q92 0 139 -51.5t39 -136.5z
M174 604l-1 -11q-3 -31 15.5 -51.5t47.5 -20.5h10q28 0 49 19.5t24 52.5l1 11q3 31 -15.5 51.5t-47.5 20.5h-10q-28 0 -49 -19.5t-24 -52.5zM811 176l1 11q3 31 -15.5 51.5t-47.5 20.5h-10q-28 0 -49 -19.5t-24 -52.5l-1 -11q-3 -31 15.5 -51.5t47.5 -20.5h10q28 0 49 19.5
t24 52.5zM1231 176l1 11q3 31 -15.5 51.5t-47.5 20.5h-10q-28 0 -49 -19.5t-24 -52.5l-1 -11q-3 -31 15.5 -51.5t47.5 -20.5h10q28 0 49 19.5t24 52.5zM57 592l1 11q8 86 68.5 138t131.5 52q43 0 85 -15q75 -27 177 -27q127 0 226 32l-10 -75l-388 -708h-138l347 633
q-30 -8 -72 -8q-26 0 -48 3q0 -3 -0.5 -11t-0.5 -12l-1 -11q-8 -86 -68.5 -138t-131.5 -52q-92 0 -139 51.5t-39 136.5z" />
    <glyph glyph-name="tripleprime" unicode="&#x2034;" horiz-adv-x="628" 
d="M100 780h155l-51 -323h-121zM386 457h-122l34 323h139zM480 780h154l-67 -323h-121z" />
    <glyph glyph-name="guilsinglleft" unicode="&#x2039;" horiz-adv-x="316" 
d="M291 563l-19 -144l-120 -84l98 -84l-18 -134l-197 147l20 152z" />
    <glyph glyph-name="guilsinglright" unicode="&#x203a;" horiz-adv-x="316" 
d="M15 117l19 144l120 84l-98 84l18 134l197 -147l-20 -152z" />
    <glyph glyph-name="interrobang" unicode="&#x203d;" horiz-adv-x="497" 
d="M281 228h-85l49 417q-49 -24 -62 -129h-144l3 23q17 128 77.5 191t175.5 63q215 0 215 -168q0 -57 -21 -103t-52.5 -77.5t-63.5 -61t-58.5 -69t-33.5 -86.5zM311 167l-22 -167h-167l22 167h167zM363 593q0 39 -33 53l-29 -180q22 29 32 43t20 38t10 46z" />
    <glyph glyph-name="fraction" unicode="&#x2044;" horiz-adv-x="200" 
d="M-170 0h-134l678 780h134z" />
    <glyph glyph-name="uni2070" unicode="&#x2070;" 
d="M327 676l-25 -182q-7 -54 -44 -85.5t-100 -31.5t-100 33.5t-30 83.5l25 182q8 54 44.5 85.5t99.5 31.5t100 -33.5t30 -83.5zM183 498l23 174q3 17 -14 17h-2q-15 0 -18 -17l-23 -174q-3 -17 14 -17h2q15 0 18 17z" />
    <glyph glyph-name="uni2074" unicode="&#x2074;" 
d="M259 390h-120l9 68h-131l12 97l167 225h114l-29 -219h32l-13 -103h-32zM170 625l-46 -64h37z" />
    <glyph glyph-name="uni2075" unicode="&#x2075;" 
d="M29 515h120q-6 -34 14 -34h2q17 0 21 28l1 7q4 30 -20 30h-2q-15 0 -24 -11l-99 35l37 210h255l-13 -103h-157l-8 -45q16 12 49 12q57 0 83.5 -33.5t18.5 -89.5l-2 -15q-17 -129 -147 -129q-64 0 -100.5 35t-29.5 94z" />
    <glyph glyph-name="uni2076" unicode="&#x2076;" 
d="M171 533h-2q-5 0 -9.5 -2.5t-7.5 -5.5l-2 -3q-2 -8 -2 -15q0 -26 15 -26h2q17 0 20 22l1 7q3 23 -15 23zM333 793l-13 -103q-82 0 -123 -33q-16 -13 -23 -34q19 13 46 13q44 -1 69 -31.5t18 -83.5l-2 -15q-17 -129 -147 -129q-72 0 -103.5 44t-22.5 111l2 15
q13 103 80 174q38 41 90.5 56.5t128.5 15.5z" />
    <glyph glyph-name="uni2077" unicode="&#x2077;" 
d="M43 640l18 140h284l-10 -79l-169 -311h-128l161 287h-48l-5 -37h-103z" />
    <glyph glyph-name="uni2078" unicode="&#x2078;" 
d="M158 377q-64 0 -101 33t-30 84l2 15q8 59 61 80q-44 24 -36 81l2 15q5 38 39.5 73t99.5 35q73 0 104.5 -38.5t25.5 -78.5l-2 -15q-8 -55 -61 -72q23 -9 35 -31t8 -53l-2 -15q-7 -54 -46.5 -83.5t-98.5 -29.5zM184 637h2q13 0 16 21l1 7q3 24 -11 24h-2q-13 0 -16 -21
l-1 -7q-3 -24 11 -24zM163 481h2q17 0 21 28l1 7q3 25 -16 25h-2q-17 0 -21 -28l-1 -7q-3 -25 16 -25z" />
    <glyph glyph-name="uni2079" unicode="&#x2079;" 
d="M184 637h2q5 0 9.5 2.5t6.5 5.5l3 3q2 8 2 15q0 26 -15 26h-2q-17 0 -20 -22l-1 -7q-3 -23 15 -23zM22 377l13 103q82 0 123 33q16 13 23 34q-19 -13 -46 -13q-44 1 -69 31.5t-18 83.5l2 15q17 129 147 129q72 0 103.5 -44t22.5 -111l-2 -15q-13 -103 -80 -174
q-38 -41 -90.5 -56.5t-128.5 -15.5z" />
    <glyph glyph-name="uni207A" unicode="&#x207a;" 
d="M143 717h104l-11 -80h80l-13 -104h-80l-11 -80h-104l11 80h-80l13 104h80z" />
    <glyph glyph-name="uni207B" unicode="&#x207b;" 
d="M52 637h264l-13 -104h-264z" />
    <glyph glyph-name="uni207C" unicode="&#x207c;" 
d="M60 699h264l-13 -104h-264zM44 575h264l-13 -104h-264z" />
    <glyph glyph-name="uni207D" unicode="&#x207d;" horiz-adv-x="205" 
d="M42 580l1 9q13 123 86 191h126q-32 -35 -59.5 -86.5t-33.5 -104.5l-1 -9q-11 -94 38 -190h-116q-21 32 -34 83.5t-7 106.5z" />
    <glyph glyph-name="uni207E" unicode="&#x207e;" horiz-adv-x="205" 
d="M217 590l-1 -9q-13 -123 -86 -191h-126q32 35 59.5 86.5t33.5 104.5l1 9q11 94 -38 190h116q21 -32 34 -83.5t7 -106.5z" />
    <glyph glyph-name="uni2080" unicode="&#x2080;" 
d="M276 286l-25 -182q-7 -54 -44 -85.5t-100 -31.5t-100 33.5t-30 83.5l25 182q8 54 44.5 85.5t99.5 31.5t100 -33.5t30 -83.5zM132 108l23 174q3 17 -14 17h-2q-15 0 -18 -17l-23 -174q-3 -17 14 -17h2q15 0 18 17z" />
    <glyph glyph-name="uni2081" unicode="&#x2081;" 
d="M241 0h-263l13 103h72l19 142l-38 -23l-48 85l136 85h89l-38 -289h71z" />
    <glyph glyph-name="uni2082" unicode="&#x2082;" 
d="M254 103l-13 -103h-272l10 78l158 151q17 17 19 31l2 15q3 24 -13 24h-2q-17 0 -21 -39h-120l1 9q15 134 147 134q73 0 104.5 -38.5t25.5 -78.5l-2 -15q-4 -30 -17.5 -51t-41.5 -48l-73 -69h108z" />
    <glyph glyph-name="uni2083" unicode="&#x2083;" 
d="M98 125q-6 -34 14 -34h2q17 0 21 28l1 7q3 25 -17 25h-48l12 96h47q18 0 21 21l1 7q3 24 -13 24h-2q-17 0 -21 -39h-120l1 9q15 134 147 134q73 0 104.5 -38.5t25.5 -78.5l-2 -15q-8 -55 -61 -72q23 -9 35 -31t8 -53l-2 -15q-7 -54 -46.5 -83.5t-98.5 -29.5
q-64 0 -100.5 35t-29.5 94l1 9h120z" />
    <glyph glyph-name="uni2084" unicode="&#x2084;" 
d="M208 0h-120l9 68h-131l12 97l167 225h114l-29 -219h32l-13 -103h-32zM119 235l-46 -64h37z" />
    <glyph glyph-name="uni2085" unicode="&#x2085;" 
d="M-22 125h120q-6 -34 14 -34h2q17 0 21 28l1 7q4 30 -20 30h-2q-15 0 -24 -11l-99 35l37 210h255l-13 -103h-157l-8 -45q16 12 49 12q57 0 83.5 -33.5t18.5 -89.5l-2 -15q-17 -129 -147 -129q-64 0 -100.5 35t-29.5 94z" />
    <glyph glyph-name="uni2086" unicode="&#x2086;" 
d="M120 143h-2q-5 0 -9.5 -2.5t-6.5 -5.5l-3 -3q-2 -8 -2 -15q0 -26 15 -26h2q17 0 20 22l1 7q3 23 -15 23zM282 403l-13 -103q-82 0 -123 -33q-16 -13 -23 -34q19 13 46 13q44 -1 69 -31.5t18 -83.5l-2 -15q-17 -129 -147 -129q-72 0 -103.5 44t-22.5 111l2 15
q13 103 80 174q38 41 90.5 56.5t128.5 15.5z" />
    <glyph glyph-name="uni2087" unicode="&#x2087;" 
d="M-8 250l18 140h284l-10 -79l-169 -311h-128l161 287h-48l-5 -37h-103z" />
    <glyph glyph-name="uni2088" unicode="&#x2088;" 
d="M107 -13q-64 0 -101 33t-30 84l2 15q8 59 61 80q-44 24 -36 81l2 15q5 38 39.5 73t99.5 35q73 0 104.5 -38.5t25.5 -78.5l-2 -15q-8 -55 -61 -72q23 -9 35 -31t8 -53l-2 -15q-7 -54 -46.5 -83.5t-98.5 -29.5zM133 247h2q13 0 16 21l1 7q3 24 -11 24h-2q-13 0 -16 -21
l-1 -7q-3 -24 11 -24zM112 91h2q17 0 21 28l1 7q3 25 -16 25h-2q-17 0 -21 -28l-1 -7q-3 -25 16 -25z" />
    <glyph glyph-name="uni2089" unicode="&#x2089;" 
d="M133 247h2q5 0 9.5 2.5t7.5 5.5l2 3q2 8 2 15q0 26 -15 26h-2q-17 0 -20 -22l-1 -7q-3 -23 15 -23zM-29 -13l13 103q82 0 123 33q16 13 23 34q-19 -13 -46 -13q-44 1 -69 31.5t-18 83.5l2 15q17 129 147 129q72 0 103.5 -44t22.5 -111l-2 -15q-13 -103 -80 -174
q-38 -41 -90.5 -56.5t-128.5 -15.5z" />
    <glyph glyph-name="uni208A" unicode="&#x208a;" 
d="M92 327h104l-11 -80h80l-13 -104h-80l-11 -80h-104l11 80h-80l13 104h80z" />
    <glyph glyph-name="uni208B" unicode="&#x208b;" 
d="M1 247h264l-13 -104h-264z" />
    <glyph glyph-name="uni208C" unicode="&#x208c;" 
d="M9 309h264l-13 -104h-264zM-7 185h264l-13 -104h-264z" />
    <glyph glyph-name="uni208D" unicode="&#x208d;" horiz-adv-x="205" 
d="M-9 190l1 9q13 123 86 191h126q-32 -35 -59.5 -86.5t-33.5 -104.5l-1 -9q-11 -94 38 -190h-116q-21 32 -34 83.5t-7 106.5z" />
    <glyph glyph-name="uni208E" unicode="&#x208e;" horiz-adv-x="205" 
d="M166 200l-1 -9q-13 -123 -86 -191h-126q32 35 59.5 86.5t33.5 104.5l1 9q11 94 -38 190h116q21 -32 34 -83.5t7 -106.5z" />
    <glyph glyph-name="Euro" unicode="&#x20ac;" horiz-adv-x="600" 
d="M88 309h-66l19 141h65q56 343 282 343q116 0 163.5 -64t30.5 -197l-4 -32h-138q11 80 -0.5 116t-49.5 36h-9q-41 0 -67 -50.5t-42 -151.5h203l-88 -141h-133q-7 -91 6 -136t52 -45h9q70 0 86 122h138l-2 -15q-34 -248 -235 -248q-123 0 -178 76.5t-42 245.5z" />
    <glyph glyph-name="ruble" unicode="&#x20bd;" horiz-adv-x="600" 
d="M400 101h-187l-13 -101h-162l13 101h-70l18 140h70l5 39h-70l18 140h71l47 360h214q265 0 233 -242l-3 -23q-8 -59 -29.5 -103t-48.5 -68.5t-65 -39.5t-72 -19.5t-77 -4.5h-55l-5 -39h186zM254 420h53q101 0 114 99l2 15q8 59 -19 82.5t-69 23.5h-51z" />
    <glyph glyph-name="numero" unicode="&#x2116;" horiz-adv-x="1126" 
d="M109 780h169l188 -484l17 162l42 322h155l-102 -780h-169l-188 484l-17 -162l-42 -322h-155zM913 376q-88 0 -137 54t-37 141l4 29q12 90 65.5 142.5t140.5 52.5q88 0 137 -54t37 -141l-4 -29q-12 -90 -65.5 -142.5t-140.5 -52.5zM982 571l4 29q11 76 -48 76
q-48 0 -58 -76l-4 -29q-11 -76 48 -76q48 0 58 76zM1060 181h-364l16 119h364z" />
    <glyph glyph-name="published" unicode="&#x2117;" horiz-adv-x="920" 
d="M57 390q0 167 118 285t285 118t285 -118t118 -285t-118 -285t-285 -118t-285 118t-118 285zM113 390q0 -144 101.5 -245.5t245.5 -101.5t245.5 101.5t101.5 245.5t-101.5 245.5t-245.5 101.5t-245.5 -101.5t-101.5 -245.5zM414 307v-152h-140v470h243q32 0 58.5 -6.5
t51.5 -22.5t39.5 -47.5t14.5 -76.5v-12q0 -45 -14.5 -76.5t-39.5 -47.5t-51.5 -22.5t-58.5 -6.5h-103zM414 411h71q54 0 54 52v6q0 52 -54 52h-71v-110z" />
    <glyph glyph-name="servicemark" unicode="&#x2120;" horiz-adv-x="559" 
d="M103 638q-47 6 -67.5 24.5t-20.5 57.5v4q0 39 25.5 62t73.5 23q99 0 99 -100v-7h-63q0 26 -8 38t-28 12h-4q-14 0 -22 -7t-8 -18v-2q0 -14 10 -21t35 -11q47 -6 68.5 -24.5t21.5 -57.5v-5q0 -40 -26 -63t-75 -23q-101 0 -101 101v2h63q0 -47 38 -47h3q32 0 32 28v2
q0 14 -9.5 21t-36.5 11zM454 691l-41 -161h-68l-41 161l2 -60v-101h-64v270h95l42 -159l41 159h96v-270h-64v101z" />
    <glyph glyph-name="trademark" unicode="&#x2122;" horiz-adv-x="559" 
d="M147 744v-214h-64v214h-66v56h197v-56h-67zM454 691l-41 -161h-68l-41 161l2 -60v-101h-64v270h95l42 -159l41 159h96v-270h-64v101z" />
    <glyph glyph-name="uni2153" unicode="&#x2153;" horiz-adv-x="800" 
d="M292 390h-263l13 103h72l19 142l-38 -23l-48 85l136 85h89l-38 -289h71zM130 0h-134l678 780h134zM598 125q-6 -34 14 -34h2q17 0 21 28l1 7q3 25 -17 25h-48l12 96h47q18 0 21 21l1 7q3 24 -13 24h-2q-17 0 -21 -39h-120l1 9q15 134 147 134q73 0 104.5 -38.5
t25.5 -78.5l-2 -15q-8 -55 -61 -72q23 -9 35 -31t8 -53l-2 -15q-7 -54 -46.5 -83.5t-98.5 -29.5q-64 0 -100.5 35t-29.5 94l1 9h120z" />
    <glyph glyph-name="uni2154" unicode="&#x2154;" horiz-adv-x="800" 
d="M305 493l-13 -103h-272l10 78l158 151q17 17 19 31l2 15q3 24 -13 24h-2q-17 0 -21 -39h-120l1 9q15 134 147 134q73 0 104.5 -38.5t25.5 -78.5l-2 -15q-4 -30 -17.5 -51t-41.5 -48l-73 -69h108zM130 0h-134l678 780h134zM598 125q-6 -34 14 -34h2q17 0 21 28l1 7
q3 25 -17 25h-48l12 96h47q18 0 21 21l1 7q3 24 -13 24h-2q-17 0 -21 -39h-120l1 9q15 134 147 134q73 0 104.5 -38.5t25.5 -78.5l-2 -15q-8 -55 -61 -72q23 -9 35 -31t8 -53l-2 -15q-7 -54 -46.5 -83.5t-98.5 -29.5q-64 0 -100.5 35t-29.5 94l1 9h120z" />
    <glyph glyph-name="uni2155" unicode="&#x2155;" horiz-adv-x="800" 
d="M292 390h-263l13 103h72l19 142l-38 -23l-48 85l136 85h89l-38 -289h71zM130 0h-134l678 780h134zM478 125h120q-6 -34 14 -34h2q17 0 21 28l1 7q4 30 -20 30h-2q-15 0 -24 -11l-99 35l37 210h255l-13 -103h-157l-8 -45q16 12 49 12q57 0 83.5 -33.5t18.5 -89.5l-2 -15
q-17 -129 -147 -129q-64 0 -100.5 35t-29.5 94z" />
    <glyph glyph-name="uni2156" unicode="&#x2156;" horiz-adv-x="800" 
d="M305 493l-13 -103h-272l10 78l158 151q17 17 19 31l2 15q3 24 -13 24h-2q-17 0 -21 -39h-120l1 9q15 134 147 134q73 0 104.5 -38.5t25.5 -78.5l-2 -15q-4 -30 -17.5 -51t-41.5 -48l-73 -69h108zM130 0h-134l678 780h134zM478 125h120q-6 -34 14 -34h2q17 0 21 28l1 7
q4 30 -20 30h-2q-15 0 -24 -11l-99 35l37 210h255l-13 -103h-157l-8 -45q16 12 49 12q57 0 83.5 -33.5t18.5 -89.5l-2 -15q-17 -129 -147 -129q-64 0 -100.5 35t-29.5 94z" />
    <glyph glyph-name="uni2157" unicode="&#x2157;" horiz-adv-x="800" 
d="M149 515q-6 -34 14 -34h2q17 0 21 28l1 7q3 25 -17 25h-48l12 96h47q18 0 21 21l1 7q3 24 -13 24h-2q-17 0 -21 -39h-120l1 9q15 134 147 134q73 0 104.5 -38.5t25.5 -78.5l-2 -15q-8 -55 -61 -72q23 -9 35 -31t8 -53l-2 -15q-7 -54 -46.5 -83.5t-98.5 -29.5
q-64 0 -100.5 35t-29.5 94l1 9h120zM130 0h-134l678 780h134zM478 125h120q-6 -34 14 -34h2q17 0 21 28l1 7q4 30 -20 30h-2q-15 0 -24 -11l-99 35l37 210h255l-13 -103h-157l-8 -45q16 12 49 12q57 0 83.5 -33.5t18.5 -89.5l-2 -15q-17 -129 -147 -129q-64 0 -100.5 35
t-29.5 94z" />
    <glyph glyph-name="uni2158" unicode="&#x2158;" horiz-adv-x="800" 
d="M259 390h-120l9 68h-131l12 97l167 225h114l-29 -219h32l-13 -103h-32zM170 625l-46 -64h37zM130 0h-134l678 780h134zM478 125h120q-6 -34 14 -34h2q17 0 21 28l1 7q4 30 -20 30h-2q-15 0 -24 -11l-99 35l37 210h255l-13 -103h-157l-8 -45q16 12 49 12q57 0 83.5 -33.5
t18.5 -89.5l-2 -15q-17 -129 -147 -129q-64 0 -100.5 35t-29.5 94z" />
    <glyph glyph-name="uni2159" unicode="&#x2159;" horiz-adv-x="800" 
d="M292 390h-263l13 103h72l19 142l-38 -23l-48 85l136 85h89l-38 -289h71zM130 0h-134l678 780h134zM620 143h-2q-5 0 -9.5 -2.5t-6.5 -5.5l-3 -3q-2 -8 -2 -15q0 -26 15 -26h2q17 0 20 22l1 7q3 23 -15 23zM782 403l-13 -103q-82 0 -123 -33q-16 -13 -23 -34q19 13 46 13
q44 -1 69 -31.5t18 -83.5l-2 -15q-17 -129 -147 -129q-72 0 -103.5 44t-22.5 111l2 15q13 103 80 174q38 41 90.5 56.5t128.5 15.5z" />
    <glyph glyph-name="uni215A" unicode="&#x215a;" horiz-adv-x="800" 
d="M29 515h120q-6 -34 14 -34h2q17 0 21 28l1 7q4 30 -20 30h-2q-15 0 -24 -11l-99 35l37 210h255l-13 -103h-157l-8 -45q16 12 49 12q57 0 83.5 -33.5t18.5 -89.5l-2 -15q-17 -129 -147 -129q-64 0 -100.5 35t-29.5 94zM130 0h-134l678 780h134zM620 143h-2q-5 0 -9.5 -2.5
t-6.5 -5.5l-3 -3q-2 -8 -2 -15q0 -26 15 -26h2q17 0 20 22l1 7q3 23 -15 23zM782 403l-13 -103q-82 0 -123 -33q-16 -13 -23 -34q19 13 46 13q44 -1 69 -31.5t18 -83.5l-2 -15q-17 -129 -147 -129q-72 0 -103.5 44t-22.5 111l2 15q13 103 80 174q38 41 90.5 56.5t128.5 15.5
z" />
    <glyph glyph-name="uni215B" unicode="&#x215b;" horiz-adv-x="800" 
d="M292 390h-263l13 103h72l19 142l-38 -23l-48 85l136 85h89l-38 -289h71zM130 0h-134l678 780h134zM607 -13q-64 0 -101 33t-30 84l2 15q8 59 61 80q-44 24 -36 81l2 15q5 38 39.5 73t99.5 35q73 0 104.5 -38.5t25.5 -78.5l-2 -15q-8 -55 -61 -72q23 -9 35 -31t8 -53
l-2 -15q-7 -54 -46.5 -83.5t-98.5 -29.5zM633 247h2q13 0 16 21l1 7q3 24 -11 24h-2q-13 0 -16 -21l-1 -7q-3 -24 11 -24zM612 91h2q17 0 21 28l1 7q3 25 -16 25h-2q-17 0 -21 -28l-1 -7q-3 -25 16 -25z" />
    <glyph glyph-name="uni215C" unicode="&#x215c;" horiz-adv-x="800" 
d="M149 515q-6 -34 14 -34h2q17 0 21 28l1 7q3 25 -17 25h-48l12 96h47q18 0 21 21l1 7q3 24 -13 24h-2q-17 0 -21 -39h-120l1 9q15 134 147 134q73 0 104.5 -38.5t25.5 -78.5l-2 -15q-8 -55 -61 -72q23 -9 35 -31t8 -53l-2 -15q-7 -54 -46.5 -83.5t-98.5 -29.5
q-64 0 -100.5 35t-29.5 94l1 9h120zM130 0h-134l678 780h134zM607 -13q-64 0 -101 33t-30 84l2 15q8 59 61 80q-44 24 -36 81l2 15q5 38 39.5 73t99.5 35q73 0 104.5 -38.5t25.5 -78.5l-2 -15q-8 -55 -61 -72q23 -9 35 -31t8 -53l-2 -15q-7 -54 -46.5 -83.5t-98.5 -29.5z
M633 247h2q13 0 16 21l1 7q3 24 -11 24h-2q-13 0 -16 -21l-1 -7q-3 -24 11 -24zM612 91h2q17 0 21 28l1 7q3 25 -16 25h-2q-17 0 -21 -28l-1 -7q-3 -25 16 -25z" />
    <glyph glyph-name="uni215D" unicode="&#x215d;" horiz-adv-x="800" 
d="M29 515h120q-6 -34 14 -34h2q17 0 21 28l1 7q4 30 -20 30h-2q-15 0 -24 -11l-99 35l37 210h255l-13 -103h-157l-8 -45q16 12 49 12q57 0 83.5 -33.5t18.5 -89.5l-2 -15q-17 -129 -147 -129q-64 0 -100.5 35t-29.5 94zM130 0h-134l678 780h134zM607 -13q-64 0 -101 33
t-30 84l2 15q8 59 61 80q-44 24 -36 81l2 15q5 38 39.5 73t99.5 35q73 0 104.5 -38.5t25.5 -78.5l-2 -15q-8 -55 -61 -72q23 -9 35 -31t8 -53l-2 -15q-7 -54 -46.5 -83.5t-98.5 -29.5zM633 247h2q13 0 16 21l1 7q3 24 -11 24h-2q-13 0 -16 -21l-1 -7q-3 -24 11 -24zM612 91
h2q17 0 21 28l1 7q3 25 -16 25h-2q-17 0 -21 -28l-1 -7q-3 -25 16 -25z" />
    <glyph glyph-name="uni215E" unicode="&#x215e;" horiz-adv-x="800" 
d="M43 640l18 140h284l-10 -79l-169 -311h-128l161 287h-48l-5 -37h-103zM130 0h-134l678 780h134zM607 -13q-64 0 -101 33t-30 84l2 15q8 59 61 80q-44 24 -36 81l2 15q5 38 39.5 73t99.5 35q73 0 104.5 -38.5t25.5 -78.5l-2 -15q-8 -55 -61 -72q23 -9 35 -31t8 -53l-2 -15
q-7 -54 -46.5 -83.5t-98.5 -29.5zM633 247h2q13 0 16 21l1 7q3 24 -11 24h-2q-13 0 -16 -21l-1 -7q-3 -24 11 -24zM612 91h2q17 0 21 28l1 7q3 25 -16 25h-2q-17 0 -21 -28l-1 -7q-3 -25 16 -25z" />
    <glyph glyph-name="uni215F" unicode="&#x215f;" horiz-adv-x="500" 
d="M292 390h-263l13 103h72l19 142l-38 -23l-48 85l136 85h89l-38 -289h71zM130 0h-134l678 780h134z" />
    <glyph glyph-name="arrowleft" unicode="&#x2190;" horiz-adv-x="920" 
d="M447 780h198l-320 -320h525v-140h-525l320 -320h-198l-390 390z" />
    <glyph glyph-name="arrowup" unicode="&#x2191;" horiz-adv-x="920" 
d="M70 205v198l390 390l390 -390v-198l-320 320v-525h-140v525z" />
    <glyph glyph-name="arrowright" unicode="&#x2192;" horiz-adv-x="920" 
d="M275 780h198l390 -390l-390 -390h-198l320 320h-525v140h525z" />
    <glyph glyph-name="arrowdown" unicode="&#x2193;" horiz-adv-x="920" 
d="M70 377v198l320 -320v525h140v-525l320 320v-198l-390 -390z" />
    <glyph glyph-name="uni2196" unicode="&#x2196;" horiz-adv-x="920" 
d="M211 0h-141v780h780v-141h-540l554 -553l-100 -100l-553 554v-540z" />
    <glyph glyph-name="uni2197" unicode="&#x2197;" horiz-adv-x="920" 
d="M70 639v141h780v-780h-141v540l-553 -554l-100 100l554 553h-540z" />
    <glyph glyph-name="uni2198" unicode="&#x2198;" horiz-adv-x="920" 
d="M70 0v141h540l-554 553l100 100l553 -554v540h141v-780h-780z" />
    <glyph glyph-name="uni2199" unicode="&#x2199;" horiz-adv-x="920" 
d="M850 141v-141h-780v780h141v-540l553 554l100 -100l-554 -553h540z" />
    <glyph glyph-name="minus" unicode="&#x2212;" horiz-adv-x="600" 
d="M34 320l18 140h516l-18 -140h-516z" />
    <glyph glyph-name="approxequal" unicode="&#x2248;" horiz-adv-x="600" 
d="M205 590q57 0 123 -32.5t95 -32.5q55 0 100 48l64 -74q-61 -95 -162 -95q-56 0 -123 32.5t-97 32.5q-53 0 -98 -48l-64 74q61 95 162 95zM176 374q57 0 123 -32.5t95 -32.5q55 0 100 48l64 -74q-61 -95 -162 -95q-56 0 -123 32.5t-97 32.5q-53 0 -98 -48l-64 74
q61 95 162 95z" />
    <glyph glyph-name="notequal" unicode="&#x2260;" horiz-adv-x="600" 
d="M565 673l-76 -104h93l-18 -140h-177l-57 -78h224l-18 -140h-308l-76 -104h-115l76 104h-93l18 140h177l57 78h-224l18 140h308l76 104h115z" />
    <glyph glyph-name="equivalence" unicode="&#x2261;" horiz-adv-x="600" 
d="M62 538l18 140h516l-18 -140h-516zM34 320l18 140h516l-18 -140h-516zM6 102l18 140h516l-18 -140h-516z" />
    <glyph glyph-name="lessequal" unicode="&#x2264;" horiz-adv-x="600" 
d="M579 543l-298 -84l276 -85l-20 -152l-495 161l20 153l537 161zM531 175l-12 -91l-495 161l12 91z" />
    <glyph glyph-name="greaterequal" unicode="&#x2265;" horiz-adv-x="600" 
d="M41 376l298 84l-276 85l20 152l495 -161l-20 -153l-537 -161zM552 336l-12 -90l-537 -161l12 90z" />
    <glyph glyph-name="squaremultiply" unicode="&#x22a0;" horiz-adv-x="920" 
d="M70 780h780v-780h-780v780zM711 641h-502v-502h502v502zM338 168h-100v100l122 122l-122 122v100h100l122 -122l122 122h100v-100l-122 -122l122 -122v-100h-100l-122 122z" />
    <glyph glyph-name="house" unicode="&#x2302;" horiz-adv-x="850" 
d="M780 0h-710v450l355 340l355 -340v-450z" />
    <glyph glyph-name="blacksquare" unicode="&#x25a0;" horiz-adv-x="920" 
d="M850 0h-780v780h780v-780z" />
    <glyph glyph-name="blacksquare" unicode="&#xe740;" horiz-adv-x="920" 
d="M850 0h-780v780h780v-780z" />
    <glyph glyph-name="whitesquare" unicode="&#x25a1;" horiz-adv-x="920" 
d="M850 0h-780v780h780v-780zM711 641h-502v-502h502v502z" />
    <glyph glyph-name="blacksmallsquare" unicode="&#x25aa;" horiz-adv-x="680" 
d="M600 0h-530v530h530v-530z" />
    <glyph glyph-name="whitesmallsquare" unicode="&#x25ab;" horiz-adv-x="680" 
d="M70 530h530v-530h-530v530zM461 391h-252v-252h252v252z" />
    <glyph glyph-name="triagup" unicode="&#x25b2;" horiz-adv-x="930" 
d="M542 793l326 -793h-156l-247 617l-247 -617h-156l326 793h154z" />
    <glyph glyph-name="triagrt" unicode="&#x25ba;" horiz-adv-x="930" 
d="M873 467v-154l-793 -326v156l617 247l-617 247v156z" />
    <glyph glyph-name="triagdn" unicode="&#x25bc;" horiz-adv-x="930" 
d="M388 -13l-326 793h156l247 -618l247 618h156l-326 -793h-154z" />
    <glyph glyph-name="triaglf" unicode="&#x25c4;" horiz-adv-x="930" 
d="M57 467l793 326v-156l-618 -247l618 -247v-156l-793 326v154z" />
    <glyph glyph-name="whitecircle" unicode="&#x25cb;" horiz-adv-x="920" 
d="M57 390q0 167 118 285t285 118t285 -118t118 -285t-118 -285t-285 -118t-285 118t-118 285zM196 390q0 -110 77 -187t187 -77t187 77t77 187t-77 187t-187 77t-187 -77t-77 -187z" />
    <glyph glyph-name="whitecircle" unicode="&#x25ef;" horiz-adv-x="920" 
d="M57 390q0 167 118 285t285 118t285 -118t118 -285t-118 -285t-285 -118t-285 118t-118 285zM196 390q0 -110 77 -187t187 -77t187 77t77 187t-77 187t-187 77t-187 -77t-77 -187z" />
    <glyph glyph-name="blackcircle" unicode="&#x25cf;" horiz-adv-x="920" 
d="M57 390q0 167 118 285t285 118t285 -118t118 -285t-118 -285t-285 -118t-285 118t-118 285z" />
    <glyph glyph-name="uni25E2" unicode="&#x25e2;" horiz-adv-x="930" 
d="M906 54l-54 -55l-54 -54l-791 330l109 111l611 -262l-261 611l111 110z" />
    <glyph glyph-name="uni25E3" unicode="&#x25e3;" horiz-adv-x="930" 
d="M78 -1l-54 55l329 791l111 -110l-262 -611l612 262l109 -111l-791 -330z" />
    <glyph glyph-name="uni25E4" unicode="&#x25e4;" horiz-adv-x="930" 
d="M24 728l108 108l791 -329l-109 -111l-612 261l262 -611l-111 -109z" />
    <glyph glyph-name="uni25E5" unicode="&#x25e5;" horiz-adv-x="930" 
d="M906 728l-329 -791l-111 109l261 611l-611 -261l-109 111l791 329z" />
    <glyph glyph-name="uni2605" unicode="&#x2605;" horiz-adv-x="880" 
d="M440 180l-260 -190l99 307l-260 189h322l99 306l99 -306h322l-260 -189l99 -307z" />
    <glyph glyph-name="ballotboxwithx" unicode="&#x2612;" horiz-adv-x="680" 
d="M70 530h530v-530h-530v530zM461 391h-252v-252h252v252zM432 168h-194v194h194v-194z" />
    <glyph glyph-name="uni263C" unicode="&#x263c;" horiz-adv-x="960" 
d="M521 191l-42 -202l-42 202q0 -39 -29 -66q-9 -8 -30 -22.5t-29.5 -26t-8.5 -29.5q0 -9 3 -18t6 -13l3 -4q-22 6 -34 23.5t-12 38.5q0 30 21 51q41 41 41 95l-172 -113l113 172q-26 -26 -66 -26q-9 0 -31.5 4t-30.5 4q-24 0 -38.5 -12t-17.5 -24l-3 -12q-8 14 -8 28
q0 29 20.5 49t50.5 20t60.5 15t35.5 23l-202 42l202 42q-39 0 -66 29q-8 9 -22.5 30t-26 29.5t-29.5 8.5q-9 0 -18 -3t-13 -6l-4 -3q6 22 23.5 34t38.5 12q30 0 51 -21q41 -41 95 -41l-113 172l172 -113q-26 26 -26 66q0 9 4 31.5t4 30.5q0 24 -12 39t-24 17l-12 3
q14 8 28 8q29 0 49 -20.5t20 -50.5t15 -60.5t23 -35.5l42 202l42 -202q0 39 29 66q9 8 30 22.5t29.5 26t8.5 29.5q0 9 -3 18t-6 13l-3 4q22 -6 34 -23.5t12 -38.5q0 -30 -21 -51q-41 -41 -41 -95l172 113l-113 -172q26 26 66 26q9 0 31.5 -4t30.5 -4q24 0 39 12t17 24l3 12
q8 -14 8 -28q0 -29 -20.5 -49t-50.5 -20t-60.5 -15t-35.5 -23l202 -42l-202 -42q39 0 66 -29q8 -9 22.5 -30t26 -29.5t29.5 -8.5q9 0 18 3t13 6l4 3q-6 -22 -23.5 -34t-38.5 -12q-30 0 -51 21q-41 41 -95 41l113 -172l-172 113q26 -26 26 -66q0 -9 -4 -31.5t-4 -30.5
q0 -24 12 -38.5t24 -17.5l12 -3q-14 -8 -28 -8q-29 0 -49 20.5t-20 50.5t-15 60.5t-23 35.5z" />
    <glyph glyph-name="uni263E" unicode="&#x263e;" horiz-adv-x="960" 
d="M624 728q-134 0 -229 -99t-95 -239t95 -239t229 -99q50 0 96 15q-107 -77 -240 -77q-166 0 -283 117t-117 283t117 283t283 117q131 0 240 -77q-52 15 -96 15z" />
    <glyph glyph-name="spade" unicode="&#x2660;" horiz-adv-x="900" 
d="M451 790q32 -48 97 -116t136 -114q78 -51 121 -103t43 -123q0 -73 -51 -123.5t-125 -50.5q-69 0 -120.5 46t-79.5 115l-3 -1q8 -102 26.5 -174t55.5 -146h-202q37 74 55.5 146t26.5 174l-3 1q-28 -69 -79.5 -115t-120.5 -46q-74 0 -125 50.5t-51 123.5q0 71 43 123
t121 103q71 46 136 114t97 116h2z" />
    <glyph glyph-name="club" unicode="&#x2663;" horiz-adv-x="900" 
d="M349 0q37 74 55.5 146t26.5 174l-3 1q-28 -69 -79.5 -115t-120.5 -46q-74 0 -125 50.5t-51 123.5q0 79 48.5 129.5t125.5 50.5q40 0 84 -23l2 2q-38 57 -38 117q0 75 50.5 127.5t125.5 52.5t125.5 -52.5t50.5 -127.5q0 -60 -38 -117l2 -2q44 23 84 23q77 0 125.5 -50.5
t48.5 -129.5q0 -73 -51 -123.5t-125 -50.5q-69 0 -120.5 46t-79.5 115l-3 -1q8 -102 26.5 -174t55.5 -146h-202z" />
    <glyph glyph-name="heart" unicode="&#x2665;" horiz-adv-x="900" 
d="M451 -10h-2q-28 43 -94 126.5t-139 166.5q-164 185 -164 301q0 90 52 148t139 58q85 0 132.5 -42.5t72.5 -114.5h4q25 72 72.5 114.5t132.5 42.5q87 0 139 -58t52 -148q0 -116 -164 -301q-73 -83 -139 -166.5t-94 -126.5z" />
    <glyph glyph-name="diamond" unicode="&#x2666;" horiz-adv-x="900" 
d="M817 390q-106 -83 -202.5 -188.5t-163.5 -211.5h-2q-67 106 -163.5 211.5t-202.5 188.5q106 83 202.5 188.5t163.5 211.5h2q67 -106 163.5 -211.5t202.5 -188.5z" />
    <glyph glyph-name="uni267B" unicode="&#x267b;" horiz-adv-x="960" 
d="M863 266l1 -2l-96 -167q-15 -22 -21.5 -30t-24 -17t-42.5 -9h-57v-49l-113 136l113 135v-49h145q26 0 50 13t34 26zM186 122h-2l-96 168q-11 21 -15 32t-3 30.5t14 40.5l28 49l-42 24l174 31l59 -166l-41 24q-70 -120 -72 -125q-13 -23 -14 -50t4 -42zM404 779v1h193
q24 -1 36 -2.5t28 -12.5t28 -32l28 -49l43 24l-61 -166l-173 31l41 24l-72 125q-13 23 -36 37.5t-39 16.5zM200 598l67 119q10 17 34 31q46 24 97 10t68 -45l-116 -201zM446 41h-135q-22 0 -44 13q-43 25 -57.5 79.5t4.5 80.5h232v-173zM806 527l69 -117q10 -18 10 -44
q1 -48 -38 -87t-74 -39l-116 201z" />
    <glyph glyph-name="uni267C" unicode="&#x267c;" horiz-adv-x="960" 
d="M292 645l-52 -92l116 -67l90 156q-13 24 -52.5 34.5t-75.5 -7.5q-18 -11 -26 -24zM394 694v-1q48 -5 71 -44l56 -97l-32 -19l134 -24l47 129l-33 -19l-22 38q-14 24 -29.5 30.5t-41.5 6.5h-150zM322 121h105v134h-180q-15 -20 -3.5 -62.5t44.5 -61.5q17 -10 34 -10z
M228 184h1q-20 44 3 84l56 97l32 -19l-46 129l-135 -24l33 -19l-22 -38q-10 -16 -11 -31.5t2 -23.5t12 -25zM763 407l-53 91l-116 -67l90 -156q28 0 58 30t29 68q0 20 -8 34zM755 294l-1 1q-3 -4 -9 -11t-25.5 -18t-39.5 -11h-112v38l-88 -105l88 -105v38h44q28 0 41.5 10.5
t26.5 32.5zM64 390q0 164 116 280t280 116t280 -116t116 -280t-116 -280t-280 -116t-280 116t-116 280z" />
    <glyph glyph-name="uni267D" unicode="&#x267d;" horiz-adv-x="960" 
d="M240 553l52 92q8 13 26 24q36 18 75.5 7.5t52.5 -34.5l-90 -156zM394 693v1h150q26 0 41.5 -6.5t29.5 -30.5l22 -38l33 19l-47 -129l-134 24l32 19l-56 97q-10 17 -28 28t-31 13zM427 121h-105q-17 0 -34 10q-33 19 -44.5 61.5t3.5 62.5h180v-134zM229 184h-1l-75 130
q-9 17 -12 25t-2 23.5t11 31.5l22 38l-33 19l135 24l46 -129l-32 19l-56 -97q-10 -18 -11 -39t3 -33zM710 498l53 -91q8 -14 8 -34q1 -38 -29 -68t-58 -30l-90 156zM754 295l1 -1l-75 -130q-9 -15 -15 -22.5t-20 -14t-33 -6.5h-44v-38l-88 105l88 105v-38h112q20 0 38.5 10
t27.5 20zM60 390q0 166 117 283t283 117t283 -117t117 -283t-117 -283t-283 -117t-283 117t-117 283zM98 390q0 -150 106 -256t256 -106t256 106t106 256t-106 256t-256 106t-256 -106t-106 -256z" />
    <glyph glyph-name="mediumwhitecircle" unicode="&#x26aa;" horiz-adv-x="670" 
d="M57 265q0 115 81.5 196.5t196.5 81.5t196.5 -81.5t81.5 -196.5t-81.5 -196.5t-196.5 -81.5t-196.5 81.5t-81.5 196.5zM196 265q0 -58 40.5 -98.5t98.5 -40.5t98.5 40.5t40.5 98.5t-40.5 98.5t-98.5 40.5t-98.5 -40.5t-40.5 -98.5z" />
    <glyph glyph-name="mediumblackcircle" unicode="&#x26ab;" horiz-adv-x="670" 
d="M57 265q0 115 81.5 196.5t196.5 81.5t196.5 -81.5t81.5 -196.5t-81.5 -196.5t-196.5 -81.5t-196.5 81.5t-81.5 196.5z" />
    <glyph glyph-name="anglebracketleft" unicode="&#x3008;" horiz-adv-x="365" 
d="M408 840l-225 -480l99 -480h-163l-99 480l225 480h163z" />
    <glyph glyph-name="anglebracketright" unicode="&#x3009;" horiz-adv-x="365" 
d="M-47 -120l225 480l-99 480h163l99 -480l-225 -480h-163z" />
    <glyph glyph-name="fi" unicode="&#xe38c;" horiz-adv-x="677" 
d="M288 606l-10 -76h116l-18 -138h-116l-51 -392h-158l51 392h-82l18 138h82l12 93q25 190 220 190q58 0 87 -13l-17 -130q-18 7 -50 7q-37 0 -57.5 -14.5t-26.5 -56.5zM416 0l69 530h158l-69 -530h-158zM679 772l-22 -167h-167l22 167h167z" />
    <glyph glyph-name="fi" unicode="&#xfb01;" horiz-adv-x="677" 
d="M288 606l-10 -76h116l-18 -138h-116l-51 -392h-158l51 392h-82l18 138h82l12 93q25 190 220 190q58 0 87 -13l-17 -130q-18 7 -50 7q-37 0 -57.5 -14.5t-26.5 -56.5zM416 0l69 530h158l-69 -530h-158zM679 772l-22 -167h-167l22 167h167z" />
    <glyph glyph-name="fl" unicode="&#xe38d;" horiz-adv-x="677" 
d="M288 606l-10 -76h116l-18 -138h-116l-51 -392h-158l51 392h-82l18 138h82l12 93q25 190 220 190q58 0 87 -13l-17 -130q-18 7 -50 7q-37 0 -57.5 -14.5t-26.5 -56.5zM416 0l105 800h158l-105 -800h-158z" />
    <glyph glyph-name="fl" unicode="&#xfb02;" horiz-adv-x="677" 
d="M288 606l-10 -76h116l-18 -138h-116l-51 -392h-158l51 392h-82l18 138h82l12 93q25 190 220 190q58 0 87 -13l-17 -130q-18 7 -50 7q-37 0 -57.5 -14.5t-26.5 -56.5zM416 0l105 800h158l-105 -800h-158z" />
    <glyph glyph-name="invertedbreve" unicode="&#xe411;" horiz-adv-x="500" 
d="M305 794q100 0 137.5 -53t23.5 -145h-111q11 78 -64 78q-73 0 -84 -78h-115q23 198 213 198z" />
    <glyph glyph-name="doublegrave" unicode="&#xe412;" horiz-adv-x="500" 
d="M238 780h140l43 -184h-123zM55 780h139l67 -184h-123z" />
    <glyph glyph-name="caronSlovak" unicode="&#xe413;" horiz-adv-x="500" 
d="M362 800h95l-52 -204h-70z" />
    <glyph glyph-name="commaaccent" unicode="&#xe414;" horiz-adv-x="602" 
d="M266 -44l-8 -57q-10 -68 -48.5 -96.5t-114.5 -28.5l7 55q76 0 89 35h-79l12 92h142z" />
    <glyph glyph-name="commaaccent" unicode="&#xf6c3;" horiz-adv-x="602" 
d="M266 -44l-8 -57q-10 -68 -48.5 -96.5t-114.5 -28.5l7 55q76 0 89 35h-79l12 92h142z" />
    <glyph glyph-name="dotbelow" unicode="&#xe415;" horiz-adv-x="602" 
d="M99 -200l20 151h151l-20 -151h-151z" />
    <glyph glyph-name="altcedilla" unicode="&#xe416;" horiz-adv-x="602" 
d="M306 -118q0 -45 -34.5 -71t-91.5 -26q-74 0 -111 25l32 66q25 -17 74 -17q46 0 46 25q0 21 -45 21q-28 0 -49 -8l7 53q27 10 69 10q48 0 75.5 -19.5t27.5 -58.5z" />
    <glyph glyph-name="grave.cap" unicode="&#xe421;" horiz-adv-x="500" 
d="M184 950h165l40 -110h-156z" />
    <glyph glyph-name="acute.cap" unicode="&#xe422;" horiz-adv-x="500" 
d="M303 950h165l-79 -110h-156z" />
    <glyph glyph-name="circumflex.cap" unicode="&#xe423;" horiz-adv-x="500" 
d="M515 840h-139l-57 50l-67 -50h-145l139 110h160z" />
    <glyph glyph-name="tilde.cap" unicode="&#xe424;" horiz-adv-x="500" 
d="M425 947h85q-6 -62 -37.5 -90.5t-76.5 -28.5q-35 0 -83.5 24t-64.5 24q-34 0 -37 -33h-85q6 62 37.5 90.5t76.5 28.5q35 0 83.5 -24t64.5 -24q34 0 37 33z" />
    <glyph glyph-name="macron.cap" unicode="&#xe425;" horiz-adv-x="500" 
d="M163 847l13 96h298l-13 -96h-298z" />
    <glyph glyph-name="breve.cap" unicode="&#xe426;" horiz-adv-x="500" 
d="M314 825q-101 0 -139 34t-32 91h107q-1 -20 15.5 -30t52.5 -10q79 0 80 40h111q-8 -58 -50.5 -91.5t-144.5 -33.5z" />
    <glyph glyph-name="invertedbreve.cap" unicode="&#xe427;" horiz-adv-x="500" 
d="M323 965q101 0 139 -34t32 -91h-107q1 20 -15.5 30t-52.5 10q-79 0 -80 -40h-111q8 58 50.5 91.5t144.5 33.5z" />
    <glyph glyph-name="dotaccent.cap" unicode="&#xe428;" horiz-adv-x="500" 
d="M391 945l-13 -100h-133l13 100h133z" />
    <glyph glyph-name="dieresis.cap" unicode="&#xe429;" horiz-adv-x="500" 
d="M304 945l-13 -100h-133l13 100h133zM479 945l-13 -100h-133l13 100h133z" />
    <glyph glyph-name="ring.cap" unicode="&#xe42a;" horiz-adv-x="500" 
d="M419 870q0 -50 -34 -83.5t-83 -33.5q-41 0 -68.5 26.5t-27.5 66.5q0 50 34 83.5t83 33.5q41 0 68.5 -26.5t27.5 -66.5zM364 863q0 20 -13 33t-33 13q-24 0 -40.5 -16t-16.5 -40q0 -20 13 -33t33 -13q24 0 40.5 16t16.5 40z" />
    <glyph glyph-name="hungarumlaut.cap" unicode="&#xe42b;" horiz-adv-x="500" 
d="M219 950h149l-71 -110h-139zM394 950h149l-79 -110h-139z" />
    <glyph glyph-name="doublegrave.cap" unicode="&#xe42c;" horiz-adv-x="500" 
d="M284 950h149l31 -110h-139zM109 950h149l39 -110h-139z" />
    <glyph glyph-name="caron.cap" unicode="&#xe42d;" horiz-adv-x="500" 
d="M122 950h139l57 -50l67 50h145l-139 -110h-160z" />
    <glyph glyph-name="commaaccent.cap" unicode="&#xe42e;" horiz-adv-x="500" 
d="M244 840l3 25q7 55 44.5 79.5t108.5 24.5l-5 -40q-72 0 -85 -29h76l-8 -60h-134z" />
    <glyph glyph-name="exclamdown.cap" unicode="&#xe441;" horiz-adv-x="265" 
d="M182 0h-196l114 552h112zM80 613l22 167h167l-22 -167h-167z" />
    <glyph glyph-name="questiondown.cap" unicode="&#xe444;" horiz-adv-x="497" 
d="M210 126q41 0 61.5 32t30.5 106h159l-3 -23q-17 -128 -77.5 -191t-175.5 -63q-215 0 -215 168q0 57 21 103t52.5 77.5t63.5 61t58.5 69t33.5 86.5h112q0 -61 -28 -118.5t-61.5 -94t-61.5 -79.5t-28 -78q0 -56 58 -56zM199 613l22 167h167l-22 -167h-167z" />
    <glyph glyph-name="guilsinglleft.cap" unicode="&#xe451;" horiz-adv-x="316" 
d="M297 613l-19 -144l-120 -84l98 -84l-18 -134l-197 147l20 152z" />
    <glyph glyph-name="guilsinglright.cap" unicode="&#xe452;" horiz-adv-x="316" 
d="M21 167l19 144l120 84l-98 84l18 134l197 -147l-20 -152z" />
    <glyph glyph-name="guillemotleft.cap" unicode="&#xe453;" horiz-adv-x="565" 
d="M297 613l-19 -144l-120 -84l98 -84l-18 -134l-197 147l20 152zM547 613l-19 -144l-120 -84l98 -84l-18 -134l-197 147l20 152z" />
    <glyph glyph-name="guillemotright.cap" unicode="&#xe454;" horiz-adv-x="565" 
d="M271 167l19 144l120 84l-98 84l18 134l197 -147l-20 -152zM21 167l19 144l120 84l-98 84l18 134l197 -147l-20 -152z" />
    <glyph glyph-name="slash.cap" unicode="&#xe461;" horiz-adv-x="381" 
d="M123 0h-154l294 780h154z" />
    <glyph glyph-name="backslash.cap" unicode="&#xe462;" horiz-adv-x="381" 
d="M71 780h154l90 -780h-154z" />
    <glyph glyph-name="bar.cap" unicode="&#xe463;" horiz-adv-x="261" 
d="M5 0l102 780h154l-102 -780h-154z" />
    <glyph glyph-name="doublebar.cap" unicode="&#xe464;" horiz-adv-x="459" 
d="M5 0l102 780h154l-102 -780h-154zM202 0l102 780h154l-102 -780h-154z" />
    <glyph glyph-name="brokenbar.cap" unicode="&#xe465;" horiz-adv-x="261" 
d="M59 414l48 366h154l-48 -366h-154zM5 0l48 366h154l-48 -366h-154z" />
    <glyph glyph-name="bullet.cap" unicode="&#xe466;" horiz-adv-x="445" 
d="M406 551l-42 -322h-321l42 322h321z" />
    <glyph glyph-name="onethirdemdash" unicode="&#xe471;" horiz-adv-x="333" 
d="M280 281h-253l18 138h253z" />
    <glyph glyph-name="threequarteremdash" unicode="&#xe472;" horiz-adv-x="750" 
d="M27 281l18 138h670l-18 -138h-670z" />
    <glyph glyph-name="periodcentered.cap" unicode="&#xe481;" horiz-adv-x="266" 
d="M230 474l-22 -167h-167l22 167h167z" />
    <glyph glyph-name="hyphen.cap" unicode="&#xe482;" horiz-adv-x="320" 
d="M32 321l18 138h273l-18 -138h-273z" />
    <glyph glyph-name="onethirdemdash.cap" unicode="&#xe483;" horiz-adv-x="333" 
d="M285 321h-253l18 138h253z" />
    <glyph glyph-name="endash.cap" unicode="&#xe484;" horiz-adv-x="500" 
d="M32 321l18 138h420l-18 -138h-420z" />
    <glyph glyph-name="threequarteremdash.cap" unicode="&#xe485;" horiz-adv-x="750" 
d="M32 321l18 138h670l-18 -138h-670z" />
    <glyph glyph-name="emdash.cap" unicode="&#xe486;" horiz-adv-x="1000" 
d="M32 321l18 138h920l-18 -138h-920z" />
    <glyph glyph-name="figuredash.cap" unicode="&#xe487;" horiz-adv-x="600" 
d="M32 321l18 138h520l-18 -138h-520z" />
    <glyph glyph-name="uni2015.cap" unicode="&#xe488;" horiz-adv-x="1200" 
d="M32 321l18 138h1120l-18 -138h-1120z" />
    <glyph glyph-name="parenleft.cap" unicode="&#xe491;" horiz-adv-x="365" 
d="M45 375l3 29q13 122 60.5 218.5t113.5 157.5h163q-64 -69 -115.5 -169t-62.5 -207l-3 -29q-19 -188 79 -375h-163q-40 64 -63.5 164t-11.5 211z" />
    <glyph glyph-name="parenright.cap" unicode="&#xe492;" horiz-adv-x="365" 
d="M324 405l-3 -29q-13 -122 -60.5 -218.5t-113.5 -157.5h-163q64 69 115.5 169t62.5 207l3 29q19 188 -79 375h163q40 -64 63.5 -164t11.5 -211z" />
    <glyph glyph-name="bracketleft.cap" unicode="&#xe493;" horiz-adv-x="365" 
d="M111 780h274l-18 -138h-117l-66 -504h117l-18 -138h-274z" />
    <glyph glyph-name="bracketright.cap" unicode="&#xe494;" horiz-adv-x="365" 
d="M258 0h-274l18 138h117l66 504h-117l18 138h274z" />
    <glyph glyph-name="braceleft.cap" unicode="&#xe495;" horiz-adv-x="365" 
d="M385 780l-18 -138q-39 0 -59.5 -17t-26.5 -59l-8 -60q-6 -46 -24.5 -72.5t-54.5 -43.5q31 -17 43 -43.5t6 -72.5l-7 -51q-7 -48 9 -66.5t56 -18.5l-18 -138h-27q-95 0 -145.5 41t-37.5 137l9 69q10 74 -65 74l18 138q39 0 59.5 18.5t26.5 63.5l8 61q23 178 229 178h27z
" />
    <glyph glyph-name="braceright.cap" unicode="&#xe496;" horiz-adv-x="365" 
d="M-16 0l18 138q39 0 59.5 17t26.5 59l8 60q6 46 24.5 72.5t54.5 43.5q-31 17 -43 43.5t-6 72.5l7 51q7 48 -9 66.5t-56 18.5l18 138h27q95 0 145.5 -41t37.5 -137l-9 -69q-10 -74 65 -74l-18 -138q-39 0 -59.5 -18.5t-26.5 -63.5l-8 -61q-23 -178 -229 -178h-27z" />
    <glyph glyph-name="anglebracketleft.cap" unicode="&#xe497;" horiz-adv-x="365" 
d="M380 780l-188 -390l86 -390h-163l-86 390l188 390h163z" />
    <glyph glyph-name="anglebracketright.cap" unicode="&#xe498;" horiz-adv-x="365" 
d="M-10 0l188 390l-86 390h163l86 -390l-188 -390h-163z" />
    <glyph glyph-name="lowline" unicode="&#xe511;" horiz-adv-x="320" 
d="M-7 0l18 138h236l-18 -138h-236z" />
    <glyph glyph-name="underscoremonospace" unicode="&#xe512;" horiz-adv-x="600" 
d="M-32 -185l18 138h516l-18 -138h-516z" />
    <glyph glyph-name="underscoremonospace" unicode="&#xff3f;" horiz-adv-x="600" 
d="M-32 -185l18 138h516l-18 -138h-516z" />
    <glyph glyph-name="at.cap" unicode="&#xe513;" horiz-adv-x="991" 
d="M477 -10h10q174 0 324 110l52 -82q-173 -131 -381 -131q-232 0 -359 131.5t-97 359.5l5 38q31 230 173.5 353.5t347.5 123.5q99 0 181 -23.5t142.5 -70.5t89 -123.5t15.5 -175.5l-5 -38q-12 -87 -41.5 -148t-74.5 -93.5t-95 -46.5t-112 -14h-95l-3 59q-55 -72 -141 -72
q-95 0 -135.5 63t-26.5 168l5 38q14 104 68.5 165.5t143.5 61.5q97 0 135 -72l16 59h122l-26 -137l-30 -231q87 0 128.5 43.5t56.5 156.5l5 38q8 65 -6 116t-44.5 83t-74.5 53t-92 29.5t-101 8.5h-10q-169 0 -278 -94.5t-133 -279.5l-5 -38q-12 -93 8.5 -167.5t68 -122.5
t116 -73t153.5 -25zM576 474q-25 47 -81 47q-81 0 -95 -105l-5 -38q-15 -109 70 -109q53 0 90 47z" />
    <glyph glyph-name="zero.inf" unicode="&#xe571;" 
d="M250 86l-25 -182q-7 -54 -44 -85.5t-100 -31.5t-100 33.5t-30 83.5l25 182q8 54 44.5 85.5t99.5 31.5t100 -33.5t30 -83.5zM106 -92l23 174q3 17 -14 17h-2q-15 0 -18 -17l-23 -174q-3 -17 14 -17h2q15 0 18 17z" />
    <glyph glyph-name="one.inf" unicode="&#xe572;" 
d="M215 -200h-263l13 103h72l19 142l-38 -23l-48 85l136 85h89l-38 -289h71z" />
    <glyph glyph-name="two.inf" unicode="&#xe573;" 
d="M228 -97l-13 -103h-272l10 78l158 151q17 17 19 31l2 15q3 24 -13 24h-2q-17 0 -21 -39h-120l1 9q15 134 147 134q73 0 104.5 -38.5t25.5 -78.5l-2 -15q-4 -30 -17.5 -51t-41.5 -48l-73 -69h108z" />
    <glyph glyph-name="three.inf" unicode="&#xe574;" 
d="M72 -75q-6 -34 14 -34h2q17 0 21 28l1 7q3 25 -17 25h-48l12 96h47q18 0 21 21l1 7q3 24 -13 24h-2q-17 0 -21 -39h-120l1 9q15 134 147 134q73 0 104.5 -38.5t25.5 -78.5l-2 -15q-8 -55 -61 -72q23 -9 35 -31t8 -53l-2 -15q-7 -54 -46.5 -83.5t-98.5 -29.5
q-64 0 -100.5 35t-29.5 94l1 9h120z" />
    <glyph glyph-name="four.inf" unicode="&#xe575;" 
d="M182 -200h-120l9 68h-131l12 97l167 225h114l-29 -219h32l-13 -103h-32zM93 35l-46 -64h37z" />
    <glyph glyph-name="five.inf" unicode="&#xe576;" 
d="M-48 -75h120q-6 -34 14 -34h2q17 0 21 28l1 7q4 30 -20 30h-2q-15 0 -24 -11l-99 35l37 210h255l-13 -103h-157l-8 -45q16 12 49 12q57 0 83.5 -33.5t18.5 -89.5l-2 -15q-17 -129 -147 -129q-64 0 -100.5 35t-29.5 94z" />
    <glyph glyph-name="six.inf" unicode="&#xe577;" 
d="M94 -57h-2q-5 0 -9.5 -3t-6.5 -6l-3 -2q-2 -8 -2 -15q0 -26 15 -26h2q17 0 20 22l1 7q3 23 -15 23zM256 203l-13 -103q-82 0 -123 -33q-16 -13 -23 -34q19 13 46 13q44 -1 69 -31.5t18 -83.5l-2 -15q-17 -129 -147 -129q-72 0 -103.5 44t-22.5 111l2 15q13 103 80 174
q38 41 90.5 56.5t128.5 15.5z" />
    <glyph glyph-name="seven.inf" unicode="&#xe578;" 
d="M-34 50l18 140h284l-10 -79l-169 -311h-128l161 287h-48l-5 -37h-103z" />
    <glyph glyph-name="eight.inf" unicode="&#xe579;" 
d="M81 -213q-64 0 -101 33t-30 84l2 15q8 59 61 80q-44 24 -36 81l2 15q5 38 39.5 73t99.5 35q73 0 104.5 -38.5t25.5 -78.5l-2 -15q-8 -55 -61 -72q23 -9 35 -31t8 -53l-2 -15q-7 -54 -46.5 -83.5t-98.5 -29.5zM107 47h2q13 0 16 21l1 7q3 24 -11 24h-2q-13 0 -16 -21
l-1 -7q-3 -24 11 -24zM86 -109h2q17 0 21 28l1 7q3 25 -16 25h-2q-17 0 -21 -28l-1 -7q-3 -25 16 -25z" />
    <glyph glyph-name="nine.inf" unicode="&#xe57a;" 
d="M107 47h2q5 0 9.5 3t7.5 6l2 2q2 8 2 15q0 26 -15 26h-2q-17 0 -20 -22l-1 -7q-3 -23 15 -23zM-55 -213l13 103q82 0 123 33q16 13 23 34q-19 -13 -46 -13q-44 1 -69 31.5t-18 83.5l2 15q17 129 147 129q72 0 103.5 -44t22.5 -111l-2 -15q-13 -103 -80 -174
q-38 -41 -90.5 -56.5t-128.5 -15.5z" />
    <glyph glyph-name="plus.inf" unicode="&#xe57b;" 
d="M66 127h104l-11 -80h80l-13 -104h-80l-11 -80h-104l11 80h-80l13 104h80z" />
    <glyph glyph-name="minus.inf" unicode="&#xe57c;" 
d="M-25 47h264l-13 -104h-264z" />
    <glyph glyph-name="equal.inf" unicode="&#xe57d;" 
d="M-17 109h264l-13 -104h-264zM-33 -15h264l-13 -104h-264z" />
    <glyph glyph-name="parenleft.inf" unicode="&#xe57e;" horiz-adv-x="205" 
d="M-35 -10l1 9q13 123 86 191h126q-32 -35 -59.5 -86.5t-33.5 -104.5l-1 -9q-11 -94 38 -190h-116q-21 32 -34 83.5t-7 106.5z" />
    <glyph glyph-name="parenright.inf" unicode="&#xe57f;" horiz-adv-x="205" 
d="M140 0l-1 -9q-13 -123 -86 -191h-126q32 35 59.5 86.5t33.5 104.5l1 9q11 94 -38 190h116q21 -32 34 -83.5t7 -106.5z" />
    <glyph glyph-name="Anocross" unicode="&#xe731;" horiz-adv-x="641" 
d="M262 782h223l93 -782h-174l-53 601l-212 -601h-174z" />
    <glyph glyph-name="idotaccent" unicode="&#xe785;" horiz-adv-x="266" 
d="M5 0l69 530h158l-69 -530h-158zM268 772l-22 -167h-167l22 167h167z" />
    <glyph glyph-name="interrobangdown" unicode="&#xe935;" horiz-adv-x="497" 
d="M-36 -48q0 59 20.5 101.5t51 68.5t61.5 49t56.5 55.5t32.5 75.5h85l-45 -368q48 22 63 126h144l-3 -23q-17 -127 -77.5 -188.5t-176.5 -61.5q-212 0 -212 165zM156 363l22 167h167l-22 -167h-167zM109 -22q0 -36 32 -47l26 156q-20 -21 -30 -32.5t-19 -32.5t-9 -44z" />
    <glyph glyph-name="interrobangdown.cap" unicode="&#xe99b;" horiz-adv-x="497" 
d="M-10 155q0 57 21 103t52.5 77.5t63.5 61t58.5 69t33.5 86.5h85l-49 -417q47 22 62 129h144l-3 -23q-17 -128 -77.5 -191t-175.5 -63q-215 0 -215 168zM189 613l22 167h167l-22 -167h-167zM137 187q0 -39 32 -54l29 180q-22 -30 -31.5 -43.5t-19.5 -37t-10 -45.5z" />
    <glyph glyph-name="registered.cap" unicode="&#xe99c;" horiz-adv-x="920" 
d="M57 390q0 167 118 285t285 118t285 -118t118 -285t-118 -285t-285 -118t-285 118t-118 285zM113 390q0 -144 101.5 -245.5t245.5 -101.5t245.5 101.5t101.5 245.5t-101.5 245.5t-245.5 101.5t-245.5 -101.5t-101.5 -245.5zM398 307v-152h-141v470h243q164 0 164 -153v-12
q0 -98 -69 -133l69 -172h-148l-48 152h-70zM398 411h71q54 0 54 52v6q0 52 -54 52h-71v-110z" />
    <glyph glyph-name="period.T" unicode="&#xf182;" 
d="M207 167l-22 -167h-167l22 167h167z" />
    <glyph glyph-name="comma.T" unicode="&#xf183;" 
d="M207 167l-17 -130q-23 -180 -195 -180l10 76q82 0 98 67h-85l22 167h167z" />
    <glyph glyph-name="colon.T" unicode="&#xf184;" 
d="M207 167l-22 -167h-167l22 167h167zM248 474l-22 -167h-167l22 167h167z" />
    <glyph glyph-name="semicolon.T" unicode="&#xf185;" 
d="M248 474l-22 -167h-167l22 167h167zM207 167l-17 -130q-23 -180 -195 -180l10 76q82 0 98 67h-85l22 167h167z" />
    <glyph glyph-name="onesixteenth" unicode="&#xf215;" horiz-adv-x="1100" 
d="M292 390h-263l13 103h72l19 142l-38 -23l-48 85l136 85h89l-38 -289h71zM130 0h-134l678 780h134zM741 0h-263l13 103h72l19 142l-38 -23l-48 85l136 85h89l-38 -289h71zM920 143h-2q-5 0 -9.5 -2.5t-6.5 -5.5l-3 -3q-2 -8 -2 -15q0 -26 15 -26h2q17 0 20 22l1 7
q3 23 -15 23zM1082 403l-13 -103q-82 0 -123 -33q-16 -13 -23 -34q19 13 46 13q44 -1 69 -31.5t18 -83.5l-2 -15q-17 -129 -147 -129q-72 0 -103.5 44t-22.5 111l2 15q13 103 80 174q38 41 90.5 56.5t128.5 15.5z" />
    <glyph glyph-name="threesixteenths" unicode="&#xf216;" horiz-adv-x="1100" 
d="M149 515q-6 -34 14 -34h2q17 0 21 28l1 7q3 25 -17 25h-48l12 96h47q18 0 21 21l1 7q3 24 -13 24h-2q-17 0 -21 -39h-120l1 9q15 134 147 134q73 0 104.5 -38.5t25.5 -78.5l-2 -15q-8 -55 -61 -72q23 -9 35 -31t8 -53l-2 -15q-7 -54 -46.5 -83.5t-98.5 -29.5
q-64 0 -100.5 35t-29.5 94l1 9h120zM130 0h-134l678 780h134zM741 0h-263l13 103h72l19 142l-38 -23l-48 85l136 85h89l-38 -289h71zM920 143h-2q-5 0 -9.5 -2.5t-6.5 -5.5l-3 -3q-2 -8 -2 -15q0 -26 15 -26h2q17 0 20 22l1 7q3 23 -15 23zM1082 403l-13 -103
q-82 0 -123 -33q-16 -13 -23 -34q19 13 46 13q44 -1 69 -31.5t18 -83.5l-2 -15q-17 -129 -147 -129q-72 0 -103.5 44t-22.5 111l2 15q13 103 80 174q38 41 90.5 56.5t128.5 15.5z" />
    <glyph glyph-name="fivesixteenths" unicode="&#xf217;" horiz-adv-x="1100" 
d="M29 515h120q-6 -34 14 -34h2q17 0 21 28l1 7q4 30 -20 30h-2q-15 0 -24 -11l-99 35l37 210h255l-13 -103h-157l-8 -45q16 12 49 12q57 0 83.5 -33.5t18.5 -89.5l-2 -15q-17 -129 -147 -129q-64 0 -100.5 35t-29.5 94zM130 0h-134l678 780h134zM741 0h-263l13 103h72
l19 142l-38 -23l-48 85l136 85h89l-38 -289h71zM920 143h-2q-5 0 -9.5 -2.5t-6.5 -5.5l-3 -3q-2 -8 -2 -15q0 -26 15 -26h2q17 0 20 22l1 7q3 23 -15 23zM1082 403l-13 -103q-82 0 -123 -33q-16 -13 -23 -34q19 13 46 13q44 -1 69 -31.5t18 -83.5l-2 -15q-17 -129 -147 -129
q-72 0 -103.5 44t-22.5 111l2 15q13 103 80 174q38 41 90.5 56.5t128.5 15.5z" />
    <glyph glyph-name="sevensixteenths" unicode="&#xf218;" horiz-adv-x="1100" 
d="M43 640l18 140h284l-10 -79l-169 -311h-128l161 287h-48l-5 -37h-103zM130 0h-134l678 780h134zM741 0h-263l13 103h72l19 142l-38 -23l-48 85l136 85h89l-38 -289h71zM920 143h-2q-5 0 -9.5 -2.5t-6.5 -5.5l-3 -3q-2 -8 -2 -15q0 -26 15 -26h2q17 0 20 22l1 7
q3 23 -15 23zM1082 403l-13 -103q-82 0 -123 -33q-16 -13 -23 -34q19 13 46 13q44 -1 69 -31.5t18 -83.5l-2 -15q-17 -129 -147 -129q-72 0 -103.5 44t-22.5 111l2 15q13 103 80 174q38 41 90.5 56.5t128.5 15.5z" />
    <glyph glyph-name="ninesixteenths" unicode="&#xf219;" horiz-adv-x="1100" 
d="M184 637h2q5 0 9.5 2.5t6.5 5.5l3 3q2 8 2 15q0 26 -15 26h-2q-17 0 -20 -22l-1 -7q-3 -23 15 -23zM22 377l13 103q82 0 123 33q16 13 23 34q-19 -13 -46 -13q-44 1 -69 31.5t-18 83.5l2 15q17 129 147 129q72 0 103.5 -44t22.5 -111l-2 -15q-13 -103 -80 -174
q-38 -41 -90.5 -56.5t-128.5 -15.5zM130 0h-134l678 780h134zM741 0h-263l13 103h72l19 142l-38 -23l-48 85l136 85h89l-38 -289h71zM920 143h-2q-5 0 -9.5 -2.5t-6.5 -5.5l-3 -3q-2 -8 -2 -15q0 -26 15 -26h2q17 0 20 22l1 7q3 23 -15 23zM1082 403l-13 -103
q-82 0 -123 -33q-16 -13 -23 -34q19 13 46 13q44 -1 69 -31.5t18 -83.5l-2 -15q-17 -129 -147 -129q-72 0 -103.5 44t-22.5 111l2 15q13 103 80 174q38 41 90.5 56.5t128.5 15.5z" />
    <glyph glyph-name="elevensixteenths" unicode="&#xf220;" horiz-adv-x="1400" 
d="M292 390h-263l13 103h72l19 142l-38 -23l-48 85l136 85h89l-38 -289h71zM592 390h-263l13 103h72l19 142l-38 -23l-48 85l136 85h89l-38 -289h71zM430 0h-134l678 780h134zM1041 0h-263l13 103h72l19 142l-38 -23l-48 85l136 85h89l-38 -289h71zM1220 143h-2
q-5 0 -9.5 -2.5t-6.5 -5.5l-3 -3q-2 -8 -2 -15q0 -26 15 -26h2q17 0 20 22l1 7q3 23 -15 23zM1382 403l-13 -103q-82 0 -123 -33q-16 -13 -23 -34q19 13 46 13q44 -1 69 -31.5t18 -83.5l-2 -15q-17 -129 -147 -129q-72 0 -103.5 44t-22.5 111l2 15q13 103 80 174
q38 41 90.5 56.5t128.5 15.5z" />
    <glyph glyph-name="thirteensixteenths" unicode="&#xf221;" horiz-adv-x="1400" 
d="M292 390h-263l13 103h72l19 142l-38 -23l-48 85l136 85h89l-38 -289h71zM449 515q-6 -34 14 -34h2q17 0 21 28l1 7q3 25 -17 25h-48l12 96h47q18 0 21 21l1 7q3 24 -13 24h-2q-17 0 -21 -39h-120l1 9q15 134 147 134q73 0 104.5 -38.5t25.5 -78.5l-2 -15q-8 -55 -61 -72
q23 -9 35 -31t8 -53l-2 -15q-7 -54 -46.5 -83.5t-98.5 -29.5q-64 0 -100.5 35t-29.5 94l1 9h120zM430 0h-134l678 780h134zM1041 0h-263l13 103h72l19 142l-38 -23l-48 85l136 85h89l-38 -289h71zM1220 143h-2q-5 0 -9.5 -2.5t-6.5 -5.5l-3 -3q-2 -8 -2 -15q0 -26 15 -26h2
q17 0 20 22l1 7q3 23 -15 23zM1382 403l-13 -103q-82 0 -123 -33q-16 -13 -23 -34q19 13 46 13q44 -1 69 -31.5t18 -83.5l-2 -15q-17 -129 -147 -129q-72 0 -103.5 44t-22.5 111l2 15q13 103 80 174q38 41 90.5 56.5t128.5 15.5z" />
    <glyph glyph-name="fifteensixteenths" unicode="&#xf222;" horiz-adv-x="1400" 
d="M292 390h-263l13 103h72l19 142l-38 -23l-48 85l136 85h89l-38 -289h71zM329 515h120q-6 -34 14 -34h2q17 0 21 28l1 7q4 30 -20 30h-2q-15 0 -24 -11l-99 35l37 210h255l-13 -103h-157l-8 -45q16 12 49 12q57 0 83.5 -33.5t18.5 -89.5l-2 -15q-17 -129 -147 -129
q-64 0 -100.5 35t-29.5 94zM430 0h-134l678 780h134zM1041 0h-263l13 103h72l19 142l-38 -23l-48 85l136 85h89l-38 -289h71zM1220 143h-2q-5 0 -9.5 -2.5t-6.5 -5.5l-3 -3q-2 -8 -2 -15q0 -26 15 -26h2q17 0 20 22l1 7q3 23 -15 23zM1382 403l-13 -103q-82 0 -123 -33
q-16 -13 -23 -34q19 13 46 13q44 -1 69 -31.5t18 -83.5l-2 -15q-17 -129 -147 -129q-72 0 -103.5 44t-22.5 111l2 15q13 103 80 174q38 41 90.5 56.5t128.5 15.5z" />
    </font>
</defs>
</svg>
