<?xml version="1.0" standalone="no"?>
<!DOCTYPE svg PUBLIC "-//W3C//DTD SVG 1.1//EN" "http://www.w3.org/Graphics/SVG/1.1/DTD/svg11.dtd" >
<svg xmlns="http://www.w3.org/2000/svg" xmlns:xlink="http://www.w3.org/1999/xlink" version="1.1">
<metadata>
Created by FontForge 20170731 at Fri Jun  6 20:29:51 2014
 By Aleksey,,,
Copyright (c) 2014, Cooper Hewitt Smithsonian Design Museum (cooperhewitt.org)
</metadata>
<defs>
<font id="CooperHewitt-Bold" horiz-adv-x="300" >
  <font-face 
    font-family="Cooper Hewitt"
    font-weight="711"
    font-stretch="normal"
    units-per-em="1000"
    panose-1="0 0 0 0 0 0 0 0 0 0"
    ascent="750"
    descent="-250"
    x-height="530"
    cap-height="780"
    bbox="-255 -226 1388 968"
    underline-thickness="20"
    underline-position="-130"
    unicode-range="U+0020-F222"
  />
<missing-glyph horiz-adv-x="962" 
d="M91 0v780h780v-780h-780zM481 345l-279 -279h558zM202 714l279 -279l279 279h-558zM436 390l-275 275v-550zM526 390l275 -275v550z" />
    <glyph glyph-name=".notdef" horiz-adv-x="962" 
d="M91 0v780h780v-780h-780zM481 345l-279 -279h558zM202 714l279 -279l279 279h-558zM436 390l-275 275v-550zM526 390l275 -275v550z" />
    <glyph glyph-name=".null" horiz-adv-x="0" 
 />
    <glyph glyph-name="nonmarkingreturn" horiz-adv-x="333" 
 />
    <glyph glyph-name="space" unicode=" " horiz-adv-x="200" 
 />
    <glyph glyph-name="exclam" unicode="!" horiz-adv-x="265" 
d="M35 780h196l-42 -552h-112zM216 167v-167h-166v167h166z" />
    <glyph glyph-name="quotedbl" unicode="&#x22;" horiz-adv-x="446" 
d="M47 780h155l-9 -323h-121zM245 780h154l-24 -323h-122z" />
    <glyph glyph-name="numbersign" unicode="#" horiz-adv-x="600" 
d="M67 449v138h90l36 193h138l-36 -193h81l36 193h137l-36 -193h64v-138h-89l-21 -118h66v-138h-91l-35 -193h-138l35 193h-81l-35 -193h-137l35 193h-63v138h88l21 118h-65zM270 449l-21 -118h81l21 118h-81z" />
    <glyph glyph-name="dollar" unicode="$" horiz-adv-x="600" 
d="M300 601h-8q-38 -1 -60.5 -17.5t-22.5 -48.5v-5q0 -31 24 -47.5t96 -27.5q119 -18 174 -62.5t55 -129.5v-10q0 -98 -65.5 -150.5t-190.5 -52.5h-21l-26 -110h-121l32 135q-123 50 -123 200v6h159q0 -45 25 -73t75 -28h5q89 0 89 66v5q0 35 -26 52t-103 29
q-111 17 -164 61.5t-53 127.5v10q0 96 68 148t182 52h22l27 109h121l-32 -136q113 -54 113 -199v-14h-157q0 110 -94 110z" />
    <glyph glyph-name="percent" unicode="%" horiz-adv-x="981" 
d="M296 779q76 -28 185 -28q118 0 211 32v-75l-295 -708h-138l264 633q-37 -8 -71 -8q-24 0 -47 3q0 -3 0.5 -11t0.5 -12v-12q0 -89 -52.5 -139t-136.5 -50q-85 0 -137.5 50t-52.5 139v12q0 89 52.5 138.5t137.5 49.5q42 0 79 -14zM575 187q0 89 52.5 139t137.5 50
q84 0 136.5 -50t52.5 -139v-12q0 -89 -52.5 -138.5t-136.5 -49.5q-85 0 -137.5 49.5t-52.5 138.5v12zM692 175q0 -32 19.5 -51.5t50.5 -19.5h6q31 0 50 19.5t19 51.5v13q0 32 -19 51t-50 19h-6q-32 0 -51 -19t-19 -51v-13zM289 605q0 32 -19 51.5t-50 19.5h-6
q-31 0 -50.5 -19.5t-19.5 -51.5v-13q0 -32 19 -51t51 -19h6q31 0 50 19t19 51v13z" />
    <glyph glyph-name="ampersand" unicode="&#x26;" horiz-adv-x="691" 
d="M250 -13q-109 0 -170 60.5t-61 163.5v10q0 126 110 207q-33 43 -48.5 82t-15.5 93v11q0 78 54 128.5t162 50.5t161.5 -50.5t53.5 -128.5v-11q0 -74 -40.5 -119t-113.5 -85l124 -147q29 68 29 140v3h166v-4q0 -146 -93 -260l111 -131h-190l-32 37q-92 -50 -207 -50z
M276 123h5q47 0 87 20l-149 176q-39 -37 -39 -88v-6q0 -49 24.5 -75.5t71.5 -26.5zM224 608v-6q0 -47 32 -99q40 24 60.5 46.5t20.5 52.5v6q0 25 -14 40t-39 15h-6q-25 0 -39.5 -15.5t-14.5 -39.5z" />
    <glyph glyph-name="quotesingle" unicode="'" horiz-adv-x="265" 
d="M47 780h171l-25 -323h-121z" />
    <glyph glyph-name="parenleft" unicode="(" horiz-adv-x="365" 
d="M39 350v20q0 158 36.5 263t106.5 207h164q-71 -108 -110 -218.5t-39 -251.5v-20q0 -141 39 -251.5t110 -218.5h-164q-70 102 -106.5 207t-36.5 263z" />
    <glyph glyph-name="parenright" unicode=")" horiz-adv-x="365" 
d="M326 370v-20q0 -159 -36.5 -264t-106.5 -206h-164q71 108 110 218.5t39 251.5v20q0 141 -39 251.5t-110 218.5h164q70 -101 106.5 -206t36.5 -264z" />
    <glyph glyph-name="asterisk" unicode="*" horiz-adv-x="413" 
d="M162 800h89l-5 -134h-79zM5 621l27 85l126 -47l-25 -75zM126 415l-72 52l83 105l64 -46zM380 706l28 -85l-129 -37l-24 75zM358 467l-71 -52l-76 111l64 46z" />
    <glyph glyph-name="plus" unicode="+" horiz-adv-x="600" 
d="M230 648h140v-188h188v-140h-188v-188h-140v188h-188v140h188v188z" />
    <glyph glyph-name="comma" unicode="," horiz-adv-x="266" 
d="M216 167v-132q0 -178 -171 -178v79q74 0 89 64h-84v167h166z" />
    <glyph glyph-name="hyphen" unicode="-" horiz-adv-x="353" 
d="M40 281v138h273v-138h-273z" />
    <glyph glyph-name="period" unicode="." horiz-adv-x="266" 
d="M216 167v-167h-166v167h166z" />
    <glyph glyph-name="slash" unicode="/" horiz-adv-x="414" 
d="M399 840l-230 -960h-154l230 960h154z" />
    <glyph glyph-name="zero" unicode="0" horiz-adv-x="600" 
d="M555 221q0 -105 -66 -169.5t-189 -64.5t-189 64.5t-66 169.5v338q0 105 66 169.5t189 64.5t189 -64.5t66 -169.5v-338zM395 557q0 44 -23.5 70t-69.5 26h-4q-46 0 -69.5 -26t-23.5 -70v-334q0 -44 23.5 -70t69.5 -26h4q46 0 69.5 26t23.5 70v334z" />
    <glyph glyph-name="one" unicode="1" horiz-adv-x="600" 
d="M561 0h-502v140h171v443l-123 -83l-79 116l243 165h119v-641h171v-140z" />
    <glyph glyph-name="two" unicode="2" horiz-adv-x="600" 
d="M341 140h215v-140h-512v101l300 331q28 30 40 52.5t12 52.5v10q0 52 -25 79t-66 27h-10q-91 0 -91 -133h-160v20q0 253 256 253q131 0 193.5 -64t62.5 -152v-18q0 -65 -20 -107.5t-67 -94.5l-199 -218z" />
    <glyph glyph-name="three" unicode="3" horiz-adv-x="600" 
d="M199 250q0 -123 96 -123h10q41 0 68.5 25t27.5 74v11q0 45 -25 68t-69 23h-107v140h104q92 0 92 89v9q0 39 -25.5 63t-65.5 24h-10q-91 0 -91 -133h-160v20q0 253 256 253q68 0 119.5 -19t80 -50t42.5 -66.5t14 -72.5v-19q0 -113 -91 -167q96 -55 96 -171v-19
q0 -39 -15 -76.5t-45 -71t-82 -54t-119 -20.5q-130 0 -195.5 64.5t-65.5 185.5v13h160z" />
    <glyph glyph-name="four" unicode="4" horiz-adv-x="600" 
d="M488 0h-160v170h-301v112l310 498h151v-470h85v-140h-85v-170zM330 526l-137 -218l51 2h84v158z" />
    <glyph glyph-name="five" unicode="5" horiz-adv-x="600" 
d="M39 250h160q0 -123 96 -123h10q41 0 68.5 28t27.5 86v11q0 59 -28.5 87t-75.5 28h-6q-33 0 -63.5 -16t-45.5 -46l-137 47l18 428h488v-140h-354l-7 -158q56 24 118 24q121 0 187 -67t66 -183v-19q0 -117 -67.5 -183.5t-193.5 -66.5q-130 0 -195.5 64.5t-65.5 185.5v13z
" />
    <glyph glyph-name="six" unicode="6" horiz-adv-x="600" 
d="M523 793v-142q-173 0 -250 -95q-33 -41 -52 -101q55 37 123 37q99 0 158.5 -66t59.5 -180v-10q0 -117 -67 -183t-194 -66q-125 0 -193.5 77.5t-68.5 208.5v13q0 213 110 360q61 81 153.5 114t220.5 33zM303 352q-31 0 -59.5 -15.5t-44.5 -44.5v-32q0 -63 28 -98t71 -35h6
q42 0 70 27.5t28 76.5v19q0 52 -25.5 77t-68.5 25h-5z" />
    <glyph glyph-name="seven" unicode="7" horiz-adv-x="600" 
d="M36 500v280h530v-99l-277 -681h-171l269 642l-95 -2h-115v-140h-141z" />
    <glyph glyph-name="eight" unicode="8" horiz-adv-x="600" 
d="M300 -13q-67 0 -119 20.5t-82 53.5t-45 70.5t-15 76.5v19q0 117 96 172q-91 54 -91 168v19q0 37 14 72t42.5 66t80 50t119.5 19t119.5 -19t80 -50t42.5 -66t14 -72v-19q0 -114 -91 -168q96 -56 96 -172v-19q0 -39 -15 -76.5t-45 -70.5t-82 -53.5t-119 -20.5zM293 328
q-44 0 -69 -23.5t-25 -67.5v-11q0 -49 27.5 -74t68.5 -25h10q41 0 68.5 25t27.5 74v11q0 44 -25 67.5t-69 23.5h-14zM305 653h-10q-40 0 -65.5 -23.5t-25.5 -62.5v-10q0 -89 92 -89h8q92 0 92 89v10q0 39 -25.5 62.5t-65.5 23.5z" />
    <glyph glyph-name="nine" unicode="9" horiz-adv-x="600" 
d="M77 -13v142q173 0 250 95q35 42 51 100q-52 -36 -122 -36q-99 0 -158.5 66t-59.5 180v10q0 117 67 183t194 66q125 0 193.5 -77.5t68.5 -208.5v-13q0 -213 -110 -360q-61 -81 -153.5 -114t-220.5 -33zM297 428q31 0 59 15.5t45 44.5v32q0 63 -28 98t-71 35h-6
q-42 0 -70 -27.5t-28 -76.5v-19q0 -52 25.5 -77t68.5 -25h5z" />
    <glyph glyph-name="colon" unicode=":" horiz-adv-x="266" 
d="M216 167v-167h-166v167h166zM216 474v-167h-166v167h166z" />
    <glyph glyph-name="semicolon" unicode=";" horiz-adv-x="266" 
d="M216 167v-132q0 -178 -171 -178v79q74 0 89 64h-84v167h166zM216 474v-167h-166v167h166z" />
    <glyph glyph-name="less" unicode="&#x3c;" horiz-adv-x="600" 
d="M42 467l516 205v-156l-338 -126l338 -126v-156l-516 205v154z" />
    <glyph glyph-name="equal" unicode="=" horiz-adv-x="600" 
d="M42 428v141h516v-141h-516zM42 211v141h516v-141h-516z" />
    <glyph glyph-name="greater" unicode="&#x3e;" horiz-adv-x="600" 
d="M558 467v-154l-516 -205v156l338 126l-338 126v156z" />
    <glyph glyph-name="question" unicode="?" horiz-adv-x="497" 
d="M253 654q-41 0 -57 -31.5t-16 -106.5h-159v18q0 130 53.5 194.5t178.5 64.5q121 0 173.5 -57t52.5 -144q0 -56 -17 -96t-42 -65.5t-50.5 -49.5t-45.5 -62.5t-24 -90.5h-111q-5 64 14.5 121.5t45.5 91.5t48.5 72t22.5 66q0 75 -67 75zM328 167v-167h-166v167h166z" />
    <glyph glyph-name="at" unicode="@" horiz-adv-x="991" 
d="M513 -110h6q182 0 330 109l59 -80q-166 -132 -392 -132q-219 0 -354 127.5t-135 355.5v40q0 228 134.5 355.5t349.5 127.5q94 0 173.5 -22.5t143 -68.5t100 -124t36.5 -180v-30q0 -87 -20.5 -149t-58.5 -95.5t-85.5 -48.5t-108.5 -15h-105l-11 59q-46 -72 -139 -72
q-90 0 -137.5 63.5t-47.5 167.5v34q0 104 47.5 167.5t137.5 63.5q93 0 139 -72l11 59h123l-9 -137v-231q88 5 122.5 48.5t34.5 157.5v30q0 68 -20 120t-52 84t-77.5 52t-92.5 28t-101 8h-6q-170 0 -273 -98t-103 -282v-40q0 -186 103.5 -283t277.5 -97zM563 374
q-30 47 -84 47q-84 0 -84 -109v-34q0 -109 84 -109q54 0 84 47v158z" />
    <glyph glyph-name="A" unicode="A" horiz-adv-x="641" 
d="M209 782h223l195 -782h-173l-38 168h-191l-37 -168h-174zM320 595l-64 -287h128z" />
    <glyph glyph-name="B" unicode="B" horiz-adv-x="631" 
d="M56 780h256q51 0 91.5 -8.5t79 -30.5t59.5 -66.5t21 -110.5v-20q0 -97 -76 -141q96 -46 96 -159v-20q0 -68 -22.5 -114.5t-63 -69t-82.5 -31.5t-95 -9h-264v780zM325 328h-107v-188h107q40 0 67 20.5t27 69.5v9q0 89 -94 89zM311 640h-93v-171h93q88 0 88 79v13
q0 79 -88 79z" />
    <glyph glyph-name="C" unicode="C" horiz-adv-x="650" 
d="M203 370q0 -125 27.5 -184t101.5 -59h9q108 0 108 139h162v-9q0 -142 -69 -206t-210 -64q-153 0 -223 90.5t-70 292.5v40q0 202 70 292.5t223 90.5q142 0 210.5 -64.5t68.5 -208.5v-36h-162q0 86 -23.5 127.5t-84.5 41.5h-9q-74 0 -101.5 -59t-27.5 -184v-40z" />
    <glyph glyph-name="D" unicode="D" horiz-adv-x="663" 
d="M624 370q0 -201 -76.5 -285.5t-252.5 -84.5h-239v780h239q176 0 252.5 -84.5t76.5 -285.5v-40zM218 140h68q98 0 135.5 54t37.5 176v40q0 122 -37.5 176t-135.5 54h-68v-500z" />
    <glyph glyph-name="E" unicode="E" horiz-adv-x="573" 
d="M56 780h477v-140h-315v-172h265v-140h-265v-188h315v-140h-477v780z" />
    <glyph glyph-name="F" unicode="F" horiz-adv-x="549" 
d="M56 780h473v-140h-311v-172h261v-140h-261v-328h-162v780z" />
    <glyph glyph-name="G" unicode="G" horiz-adv-x="673" 
d="M348 -13q-160 0 -234.5 91t-74.5 292v40q0 200 73 291.5t226 91.5q143 0 213.5 -65t70.5 -208v-36h-162q0 86 -24.5 127.5t-88.5 41.5h-9q-76 0 -105 -59t-29 -184v-40q0 -126 29.5 -184.5t110.5 -58.5h9q64 0 106 30v125h-103v140h265v-344q-110 -91 -273 -91z" />
    <glyph glyph-name="H" unicode="H" horiz-adv-x="663" 
d="M445 780h162v-780h-162v328h-227v-328h-162v780h162v-312h227v312z" />
    <glyph glyph-name="I" unicode="I" horiz-adv-x="283" 
d="M223 780v-780h-162v780h162z" />
    <glyph glyph-name="J" unicode="J" horiz-adv-x="537" 
d="M324 780h162v-542q0 -251 -232 -251q-124 0 -177.5 63.5t-53.5 189.5v26h153q0 -72 16.5 -105.5t57.5 -33.5q42 0 58 32t16 99v522z" />
    <glyph glyph-name="K" unicode="K" horiz-adv-x="625" 
d="M218 780v-306l192 306h196l-219 -313l219 -467h-180l-142 319l-66 -94v-225h-162v780h162z" />
    <glyph glyph-name="L" unicode="L" horiz-adv-x="521" 
d="M506 0h-450v780h162v-640h288v-140z" />
    <glyph glyph-name="M" unicode="M" horiz-adv-x="869" 
d="M656 499l-139 -499h-165l-139 499l5 -156v-343h-162v780h239l140 -499l139 499h240v-780h-162v343z" />
    <glyph glyph-name="N" unicode="N" horiz-adv-x="683" 
d="M627 780v-780h-171l-252 484l5 -157v-327h-153v780h171l251 -484l-5 157v327h154z" />
    <glyph glyph-name="O" unicode="O" horiz-adv-x="673" 
d="M336 -13q-153 0 -225 91t-72 292v40q0 201 72 292t225 91q154 0 226 -91t72 -292v-40q0 -201 -72 -292t-226 -91zM332 127h9q72 0 100 59.5t28 183.5v40q0 124 -28 183.5t-100 59.5h-9q-72 0 -100.5 -59.5t-28.5 -183.5v-40q0 -124 28.5 -183.5t100.5 -59.5z" />
    <glyph glyph-name="P" unicode="P" horiz-adv-x="609" 
d="M218 280v-280h-162v780h256q43 0 77.5 -5t72 -20t63 -40.5t42 -70t16.5 -104.5v-20q0 -74 -23.5 -124.5t-65.5 -74t-84.5 -32.5t-97.5 -9h-94zM218 420h101q100 0 100 105v10q0 105 -100 105h-101v-220z" />
    <glyph glyph-name="Q" unicode="Q" horiz-adv-x="673" 
d="M336 -13q-153 0 -225 91t-72 292v40q0 201 72 292t225 91q154 0 226 -91t72 -292v-40q0 -280 -148 -353l47 -117h-126l-34 89q-24 -2 -37 -2zM389 262l38 -97q42 53 42 205v40q0 124 -28 183.5t-100 59.5h-9q-72 0 -100.5 -59.5t-28.5 -183.5v-40q0 -118 25.5 -177.5
t90.5 -65.5l-52 135h122z" />
    <glyph glyph-name="R" unicode="R" horiz-adv-x="623" 
d="M218 280v-280h-162v780h256q43 0 77.5 -5t72 -20t63 -40.5t42 -70t16.5 -104.5v-20q0 -166 -123 -217l123 -303h-175l-107 280h-83zM218 420h101q100 0 100 105v10q0 105 -100 105h-101v-220z" />
    <glyph glyph-name="S" unicode="S" horiz-adv-x="631" 
d="M290 326q-131 18 -190.5 69t-59.5 155v11q0 107 71.5 169.5t203.5 62.5q143 0 209.5 -65t66.5 -203v-21h-162q0 78 -26 113.5t-87 35.5h-9q-48 0 -75.5 -24t-27.5 -62v-5q0 -46 27.5 -68.5t109.5 -33.5q132 -18 194 -69.5t62 -156.5v-10q0 -113 -73 -175t-209 -62
q-140 0 -210.5 65.5t-70.5 204.5v9h162q0 -139 115 -139h9q54 0 83 25.5t29 66.5v5q0 44 -30.5 67.5t-111.5 34.5z" />
    <glyph glyph-name="T" unicode="T" horiz-adv-x="557" 
d="M359 640v-640h-162v640h-180v140h523v-140h-181z" />
    <glyph glyph-name="U" unicode="U" horiz-adv-x="663" 
d="M331 -13q-154 0 -217 63.5t-63 196.5v533h162v-528q0 -65 26 -95t92 -30q67 0 93 30t26 95v528h162v-533q0 -133 -63.5 -196.5t-217.5 -63.5z" />
    <glyph glyph-name="V" unicode="V" horiz-adv-x="641" 
d="M432 -2h-223l-195 782h173l133 -595l133 595h174z" />
    <glyph glyph-name="W" unicode="W" horiz-adv-x="937" 
d="M581 -2l-113 597l-113 -597h-207l-129 782h169l75 -561l105 561h201l105 -561l75 561h169l-129 -782h-208z" />
    <glyph glyph-name="X" unicode="X" horiz-adv-x="649" 
d="M19 0l190 409l-190 371h188l117 -259l118 259h188l-190 -371l190 -409h-180l-126 291l-126 -291h-179z" />
    <glyph glyph-name="Y" unicode="Y" horiz-adv-x="625" 
d="M394 239v-239h-162v239l-224 541h177l128 -341l127 341h177z" />
    <glyph glyph-name="Z" unicode="Z" horiz-adv-x="599" 
d="M40 111l311 532l-143 -3h-158v140h499v-111l-311 -532l143 3h178v-140h-519v111z" />
    <glyph glyph-name="bracketleft" unicode="[" horiz-adv-x="365" 
d="M58 840h274v-138h-117v-684h117v-138h-274v960z" />
    <glyph glyph-name="backslash" unicode="\" horiz-adv-x="412" 
d="M245 -120l-230 960h154l230 -960h-154z" />
    <glyph glyph-name="bracketright" unicode="]" horiz-adv-x="365" 
d="M307 -120h-274v138h117v684h-117v138h274v-960z" />
    <glyph glyph-name="asciicircum" unicode="^" horiz-adv-x="600" 
d="M377 780l205 -516h-156l-126 338l-126 -338h-156l205 516h154z" />
    <glyph glyph-name="underscore" unicode="_" horiz-adv-x="320" 
d="M42 -185v138h236v-138h-236z" />
    <glyph glyph-name="grave" unicode="`" horiz-adv-x="500" 
d="M65 780h172l91 -184h-156z" />
    <glyph glyph-name="a" unicode="a" horiz-adv-x="549" 
d="M368 0l-10 55q-63 -68 -166 -68q-84 0 -123 44.5t-39 114.5v10q0 80 48.5 118t141.5 52l122 19q-1 41 -17 59.5t-55 18.5q-71 0 -71 -68h-149v9q0 79 52 129t173 50q124 0 174.5 -50t50.5 -152v-191l10 -150h-142zM250 115q54 0 92 40v97l-90 -14q-65 -11 -65 -63v-6
q0 -23 15.5 -38.5t47.5 -15.5z" />
    <glyph glyph-name="b" unicode="b" horiz-adv-x="574" 
d="M211 800v-315q50 58 136 58q197 0 197 -260v-36q0 -260 -197 -260q-100 0 -151 77l-11 -64h-141l9 150v650h158zM211 357v-184q34 -50 90 -50q85 0 85 124v36q0 124 -85 124q-56 0 -90 -50z" />
    <glyph glyph-name="c" unicode="c" horiz-adv-x="527" 
d="M188 247q0 -124 85 -124q37 0 56.5 20t19.5 53h149v-22q0 -85 -58.5 -136t-169.5 -51q-121 0 -180.5 70t-59.5 190v36q0 120 59.5 190t180.5 70q111 0 169.5 -53t58.5 -143v-23h-149q0 83 -76 83q-85 0 -85 -124v-36z" />
    <glyph glyph-name="d" unicode="d" horiz-adv-x="582" 
d="M235 543q86 0 136 -58v315h158v-650l9 -150h-142l-11 63q-52 -76 -150 -76q-197 0 -197 260v36q0 260 197 260zM371 357q-34 50 -90 50q-86 0 -86 -124v-36q0 -124 86 -124q56 0 90 50v184z" />
    <glyph glyph-name="e" unicode="e" horiz-adv-x="556" 
d="M526 208h-338q4 -54 29 -77.5t71 -23.5q40 0 64.5 19t24.5 44h149v-4q0 -78 -63.5 -128.5t-175.5 -50.5q-127 0 -192 72t-65 192v28q0 119 65 191.5t186 72.5t183 -72t62 -192v-71zM278 423q-82 0 -89 -101h178q-7 101 -89 101z" />
    <glyph glyph-name="f" unicode="f" horiz-adv-x="411" 
d="M258 599v-69h116v-138h-116v-392h-158v392h-81v138h81v86q0 197 199 197q62 0 85 -13v-130q-14 7 -48 7q-40 0 -59 -16t-19 -62z" />
    <glyph glyph-name="g" unicode="g" horiz-adv-x="574" 
d="M363 11v62q-49 -54 -136 -54q-197 0 -197 248v28q0 113 48 180.5t149 67.5q99 0 151 -74l11 61h141l-9 -150v-370q0 -223 -245 -223q-125 0 -180.5 52t-55.5 140v21h149q0 -41 18.5 -63t65.5 -22t68.5 21.5t21.5 74.5zM273 155q58 0 90 50v152q-32 50 -90 50
q-42 0 -63.5 -30t-21.5 -82v-28q0 -112 85 -112z" />
    <glyph glyph-name="h" unicode="h" horiz-adv-x="580" 
d="M212 800v-321q57 64 156 64q84 0 124 -52t40 -132v-359h-157v333q0 74 -70 74q-61 0 -93 -50v-357h-158v800h158z" />
    <glyph glyph-name="i" unicode="i" horiz-adv-x="266" 
d="M54 0v530h158v-530h-158zM216 772v-167h-166v167h166z" />
    <glyph glyph-name="j" unicode="j" horiz-adv-x="268" 
d="M54 1v529h158v-546q0 -197 -199 -197q-63 0 -86 13v130q14 -7 49 -7q39 0 58.5 16t19.5 62zM216 772v-167h-166v167h166z" />
    <glyph glyph-name="k" unicode="k" horiz-adv-x="562" 
d="M50 0v800h158v-450l147 180h189l-175 -201l175 -329h-184l-100 204l-52 -60v-144h-158z" />
    <glyph glyph-name="l" unicode="l" horiz-adv-x="266" 
d="M54 0v800h158v-800h-158z" />
    <glyph glyph-name="m" unicode="m" horiz-adv-x="863" 
d="M815 0h-157v340q0 67 -63 67q-51 0 -82 -46v-361h-157v340q0 67 -63 67q-52 0 -81 -46v-361h-158v380l-9 150h141l11 -64q55 77 159 77q101 0 139 -82q56 82 163 82q79 0 118 -49t39 -129v-365z" />
    <glyph glyph-name="n" unicode="n" horiz-adv-x="580" 
d="M532 0h-157v333q0 74 -70 74q-61 0 -93 -50v-357h-158v380l-9 150h141l12 -68q57 81 170 81q84 0 124 -52t40 -132v-359z" />
    <glyph glyph-name="o" unicode="o" horiz-adv-x="556" 
d="M278 -13q-123 0 -185.5 70t-62.5 190v36q0 120 62.5 190t185.5 70q124 0 186 -70t62 -190v-36q0 -120 -62 -190t-186 -70zM278 123q90 0 90 124v36q0 124 -90 124t-90 -124v-36q0 -124 90 -124z" />
    <glyph glyph-name="p" unicode="p" horiz-adv-x="574" 
d="M347 -13q-86 0 -136 58v-245h-158v580l-9 150h141l11 -65q52 78 151 78q197 0 197 -260v-36q0 -260 -197 -260zM301 407q-56 0 -90 -50v-184q34 -50 90 -50q85 0 85 124v36q0 124 -85 124z" />
    <glyph glyph-name="q" unicode="q" horiz-adv-x="581" 
d="M366 -200v245q-50 -58 -136 -58q-197 0 -197 260v36q0 260 197 260q99 0 150 -77l11 64h142l-9 -150v-580h-158zM366 173v184q-34 50 -90 50q-86 0 -86 -124v-36q0 -124 86 -124q56 0 90 50z" />
    <glyph glyph-name="r" unicode="r" horiz-adv-x="385" 
d="M338 543q11 0 15 -1v-152h-27q-82 0 -114 -46v-344h-158v380l-9 150h141l11 -62q53 75 141 75z" />
    <glyph glyph-name="s" unicode="s" horiz-adv-x="528" 
d="M264 107q71 0 71 52q0 25 -17 37t-62 16q-115 9 -165 42.5t-50 106.5v9q0 87 61 130t162 43q223 0 223 -182v-5h-155q0 67 -68 67q-32 0 -49.5 -13t-17.5 -35q0 -25 16 -36t60 -15q112 -9 166.5 -40.5t54.5 -109.5v-9q0 -84 -58.5 -131t-171.5 -47t-171 48t-58 128v5h157
q0 -61 72 -61z" />
    <glyph glyph-name="t" unicode="t" horiz-adv-x="431" 
d="M258 530h136v-138h-136v-191q0 -46 19 -62t59 -16q34 0 48 7v-130q-23 -13 -85 -13q-199 0 -199 197v208h-81v138h81v150h158v-150z" />
    <glyph glyph-name="u" unicode="u" horiz-adv-x="580" 
d="M48 530h157v-333q0 -74 70 -74q59 0 93 50v357h158v-380l9 -150h-141l-12 67q-58 -80 -170 -80q-85 0 -124.5 52t-39.5 132v359z" />
    <glyph glyph-name="v" unicode="v" horiz-adv-x="549" 
d="M164 0l-154 530h163l102 -403l101 403h164l-155 -530h-221z" />
    <glyph glyph-name="w" unicode="w" horiz-adv-x="766" 
d="M383 365l-74 -365h-199l-91 530h155l40 -359l74 359h189l75 -359l40 359h155l-92 -530h-198z" />
    <glyph glyph-name="x" unicode="x" horiz-adv-x="558" 
d="M17 530h182l80 -179l80 179h183l-136 -256l136 -274h-178l-85 190l-84 -190h-178l135 274z" />
    <glyph glyph-name="y" unicode="y" horiz-adv-x="551" 
d="M277 192l100 338h172l-187 -502l-68 -228h-188l85 228l-186 502h172z" />
    <glyph glyph-name="z" unicode="z" horiz-adv-x="499" 
d="M24 108l234 287l-110 -3h-114v138h431v-108l-234 -287l110 3h134v-138h-451v108z" />
    <glyph glyph-name="braceleft" unicode="{" horiz-adv-x="365" 
d="M332 840v-138q-37 0 -56 -18t-20 -58v-150q0 -82 -60 -116q60 -34 60 -116v-141q0 -45 18.5 -65t57.5 -20v-138h-27q-206 0 -206 178v159q-2 39 -20 56.5t-55 17.5v138q39 0 57 19t18 63v151q0 178 206 178h27z" />
    <glyph glyph-name="bar" unicode="|" horiz-adv-x="261" 
d="M54 -120v960h154v-960h-154z" />
    <glyph glyph-name="braceright" unicode="}" horiz-adv-x="365" 
d="M33 -120v138q39 0 57.5 20t18.5 65v141q0 82 59 116q-59 34 -59 116v141q0 45 -18.5 65t-57.5 20v138h27q206 0 206 -178v-160q1 -39 19.5 -56t55.5 -17v-138q-39 0 -57 -19t-18 -63v-151q0 -178 -206 -178h-27z" />
    <glyph glyph-name="asciitilde" unicode="~" horiz-adv-x="600" 
d="M184 482q56 0 124.5 -32.5t101.5 -32.5q48 0 88 48l74 -74q-60 -95 -156 -95q-56 0 -124.5 32.5t-101.5 32.5q-48 0 -88 -48l-74 74q60 95 156 95z" />
    <glyph glyph-name="nbspace" unicode="&#xa0;" horiz-adv-x="200" 
 />
    <glyph glyph-name="exclamdown" unicode="&#xa1;" horiz-adv-x="265" 
d="M231 -200h-196l42 502h112zM50 363v167h166v-167h-166z" />
    <glyph glyph-name="cent" unicode="&#xa2;" horiz-adv-x="600" 
d="M561 466h-156q0 64 -21 95.5t-70 31.5h-7q-107 0 -107 -184v-36q0 -184 107 -184h7q91 0 91 105h156v-16q0 -228 -254 -228q-22 0 -32 1l-26 -111h-122l34 143q-122 68 -122 288v38q0 161 65.5 241.5t202.5 80.5h9l26 109h122l-31 -129q128 -50 128 -215v-30z" />
    <glyph glyph-name="sterling" unicode="&#xa3;" horiz-adv-x="600" 
d="M322 654q-70 0 -70 -84q0 -53 22 -136h176v-137h-140q20 -88 25 -158h221v-139h-512v139h153q-10 71 -40 158h-113v137h68q-20 75 -20 149q0 41 11.5 76.5t37 66.5t72 49t109.5 18q127 0 181 -67t54 -209v-17h-159q0 154 -76 154z" />
    <glyph glyph-name="yen" unicode="&#xa5;" horiz-adv-x="600" 
d="M41 342v138h91l-125 300h178l115 -334l115 334h178l-126 -300h92v-138h-150l-26 -62h176v-138h-178v-142h-162v142h-178v138h175l-26 62h-149z" />
    <glyph glyph-name="brokenbar" unicode="&#xa6;" horiz-adv-x="261" 
d="M54 384v456h154v-456h-154zM54 -120v456h154v-456h-154z" />
    <glyph glyph-name="section" unicode="&#xa7;" horiz-adv-x="549" 
d="M518 393q0 -86 -70 -126q35 -38 35 -98v-9q0 -87 -61 -130t-162 -43q-222 0 -222 182v5h154q0 -68 68 -68q33 0 50.5 13t17.5 36q0 26 -17 41t-60 19q-110 9 -165 44t-55 119v9q0 85 69 125q-34 37 -34 99v9q0 87 61 130t161 43q223 0 223 -182v-5h-154q0 68 -69 68
q-33 0 -50.5 -13t-17.5 -36q0 -26 17 -41t61 -19q110 -9 165 -44t55 -119v-9zM273 455h-9q-75 -4 -75 -65q0 -62 86 -65h9q38 1 57 19t19 46q0 62 -87 65z" />
    <glyph glyph-name="dieresis" unicode="&#xa8;" horiz-adv-x="500" 
d="M225 772v-166h-165v166h165zM440 772v-166h-165v166h165z" />
    <glyph glyph-name="copyright" unicode="&#xa9;" horiz-adv-x="920" 
d="M57 390q0 167 118 285t285 118t285 -118t118 -285t-118 -285t-285 -118t-285 118t-118 285zM113 390q0 -144 101.5 -245.5t245.5 -101.5t245.5 101.5t101.5 245.5t-101.5 245.5t-245.5 101.5t-245.5 -101.5t-101.5 -245.5zM463 264q34 0 52 17.5t18 45.5h133v-20
q0 -74 -53 -120t-153 -46q-109 0 -162.5 63.5t-53.5 168.5v34q0 105 53.5 168.5t162.5 63.5q101 0 153.5 -47.5t52.5 -126.5v-21h-133q0 72 -70 72q-78 0 -78 -109v-34q0 -109 78 -109z" />
    <glyph glyph-name="ordfeminine" unicode="&#xaa;" horiz-adv-x="429" 
d="M279 387l-8 40q-45 -50 -119 -50q-66 0 -95 34t-29 88v7q0 61 37 89.5t109 39.5l84 13q-3 42 -43 42q-42 0 -42 -38h-130v7q0 134 176 134q97 0 137 -37.5t40 -114.5v-142l7 -112h-124zM401 181h-362v119h362v-119zM203 487q29 0 55 22v61l-55 -9q-38 -6 -38 -37v-4
q0 -33 38 -33z" />
    <glyph glyph-name="guillemotleft" unicode="&#xab;" horiz-adv-x="565" 
d="M266 563v-139l-109 -84l109 -84v-139l-216 147v152zM515 563v-139l-109 -84l109 -84v-139l-216 147v152z" />
    <glyph glyph-name="logicalnot" unicode="&#xac;" horiz-adv-x="600" 
d="M42 435v141h516v-382h-141v241h-375z" />
    <glyph glyph-name="uni00AD" unicode="&#xad;" horiz-adv-x="353" 
d="M40 281v138h273v-138h-273z" />
    <glyph glyph-name="registered" unicode="&#xae;" horiz-adv-x="330" 
d="M17 665q0 61 43.5 104.5t104.5 43.5t104.5 -43.5t43.5 -104.5t-43.5 -104.5t-104.5 -43.5t-104.5 43.5t-43.5 104.5zM41 665q0 -52 36 -88t88 -36t88 36t36 88t-36 88t-88 36t-88 -36t-36 -88zM241 689q0 -39 -28 -51l28 -59h-57l-21 53h-19v-53h-55v172h91q61 0 61 -57
v-5zM186 693q0 17 -18 17h-24v-37h24q18 0 18 17v3z" />
    <glyph glyph-name="macron" unicode="&#xaf;" horiz-adv-x="500" 
d="M100 619v138h300v-138h-300z" />
    <glyph glyph-name="degree" unicode="&#xb0;" horiz-adv-x="400" 
d="M266 627v6q0 29 -18 46.5t-46 17.5h-4q-28 0 -46 -17.5t-18 -46.5v-6q0 -29 18 -46.5t46 -17.5h4q28 0 46 17.5t18 46.5zM362 632v-5q0 -73 -46 -117t-116 -44t-116 44t-46 117v5q0 74 45.5 117.5t116.5 43.5t116.5 -43.5t45.5 -117.5z" />
    <glyph glyph-name="plusminus" unicode="&#xb1;" horiz-adv-x="600" 
d="M230 673h140v-108h188v-141h-188v-108h-140v108h-188v141h188v108zM42 136v141h516v-141h-516z" />
    <glyph glyph-name="twosuperior" unicode="&#xb2;" 
d="M284 493v-103h-271v76l138 153q13 15 13 32v11q0 27 -14 27h-3q-14 0 -14 -39h-120v15q0 51 31 89.5t105 38.5q73 0 104 -37t31 -79v-18q0 -30 -10 -50t-33 -47l-62 -69h105z" />
    <glyph glyph-name="threesuperior" unicode="&#xb3;" 
d="M131 515q0 -34 18 -34h3q6 0 11.5 8t5.5 22v5q0 25 -19 25h-50v96h49q15 0 15 25v2q0 7 -3.5 16t-10.5 9h-3q-14 0 -14 -39h-120v9q0 55 30.5 94.5t105.5 39.5q72 0 103.5 -35.5t31.5 -73.5v-10q0 -59 -48 -85q52 -29 52 -87v-10q0 -52 -37.5 -83.5t-100.5 -31.5
q-64 0 -101.5 35.5t-37.5 94.5v8h120z" />
    <glyph glyph-name="acute" unicode="&#xb4;" horiz-adv-x="500" 
d="M263 780h172l-107 -184h-156z" />
    <glyph glyph-name="paragraph" unicode="&#xb6;" horiz-adv-x="549" 
d="M333 0v280h-37q-55 0 -97.5 9t-84.5 32.5t-65.5 74t-23.5 124.5v20q0 60 16.5 104.5t42 70t63 40.5t72 20t77.5 5h199v-780h-162z" />
    <glyph glyph-name="periodcentered" unicode="&#xb7;" horiz-adv-x="266" 
d="M216 434v-167h-166v167h166z" />
    <glyph glyph-name="cedilla" unicode="&#xb8;" horiz-adv-x="602" 
d="M144 -190l23 66q27 -17 72 -17q47 0 47 23t-48 23l-38 -5l-15 28l29 72h72l-15 -40q45 -3 72.5 -25t27.5 -62q0 -88 -120 -88q-67 0 -107 25z" />
    <glyph glyph-name="onesuperior" unicode="&#xb9;" 
d="M290 390h-263v103h72v142l-35 -23l-59 85l124 84h90v-288h71v-103z" />
    <glyph glyph-name="ordmasculine" unicode="&#xba;" horiz-adv-x="443" 
d="M412 570q0 -90 -48 -141.5t-143 -51.5t-142.5 51.5t-47.5 141.5v30q0 90 47.5 142t142.5 52t143 -52t48 -142v-30zM40 181v119h363v-119h-363zM168 570q0 -75 53 -75q54 0 54 75v30q0 76 -54 76q-53 0 -53 -76v-30z" />
    <glyph glyph-name="guillemotright" unicode="&#xbb;" horiz-adv-x="565" 
d="M299 424v139l216 -147v-152l-216 -147v139l109 84zM50 424v139l216 -147v-152l-216 -147v139l109 84z" />
    <glyph glyph-name="onequarter" unicode="&#xbc;" horiz-adv-x="800" 
d="M179 0h-134l576 780h134zM757 0h-120v68h-127v92l126 230h121v-218h32v-104h-32v-68zM290 390h-263v103h72v142l-35 -23l-59 85l124 84h90v-288h71v-103zM637 229l-31 -57h31v57z" />
    <glyph glyph-name="onehalf" unicode="&#xbd;" horiz-adv-x="800" 
d="M179 0h-134l576 780h134zM784 103v-103h-271v76l138 153q13 15 13 32v11q0 27 -14 27h-3q-14 0 -14 -39h-120v15q0 51 31 89.5t105 38.5q73 0 104 -37t31 -79v-18q0 -30 -10 -50t-33 -47l-62 -69h105zM290 390h-263v103h72v142l-35 -23l-59 85l124 84h90v-288h71v-103z
" />
    <glyph glyph-name="threequarters" unicode="&#xbe;" horiz-adv-x="800" 
d="M179 0h-134l576 780h134zM131 515q0 -34 18 -34h3q6 0 11.5 8t5.5 22v5q0 25 -19 25h-50v96h49q15 0 15 25v2q0 7 -3.5 16t-10.5 9h-3q-14 0 -14 -39h-120v9q0 55 30.5 94.5t105.5 39.5q72 0 103.5 -35.5t31.5 -73.5v-10q0 -59 -48 -85q52 -29 52 -87v-10
q0 -52 -37.5 -83.5t-100.5 -31.5q-64 0 -101.5 35.5t-37.5 94.5v8h120zM757 0h-120v68h-127v92l126 230h121v-218h32v-104h-32v-68zM637 229l-31 -57h31v57z" />
    <glyph glyph-name="questiondown" unicode="&#xbf;" horiz-adv-x="497" 
d="M244 -74q41 0 57 31t16 103h158v-17q0 -130 -53 -193t-178 -63q-120 0 -173 53.5t-53 133.5q0 45 12.5 80.5t31 56.5t41 42.5t42.5 39t34.5 46t17.5 63.5h111q4 -52 -15.5 -102t-45.5 -82.5t-48 -68.5t-22 -62q0 -61 67 -61zM169 363v167h166v-167h-166z" />
    <glyph glyph-name="Agrave" unicode="&#xc0;" horiz-adv-x="641" 
d="M209 782h223l195 -782h-173l-38 168h-191l-37 -168h-174zM320 595l-64 -287h128zM178 950h165l55 -110h-156z" />
    <glyph glyph-name="Aacute" unicode="&#xc1;" horiz-adv-x="641" 
d="M209 782h223l195 -782h-173l-38 168h-191l-37 -168h-174zM320 595l-64 -287h128zM297 950h165l-64 -110h-156z" />
    <glyph glyph-name="Acircumflex" unicode="&#xc2;" horiz-adv-x="641" 
d="M209 782h223l195 -782h-173l-38 168h-191l-37 -168h-174zM258 840h-142l124 110h160l124 -110h-142l-62 44zM320 595l-64 -287h128z" />
    <glyph glyph-name="Atilde" unicode="&#xc3;" horiz-adv-x="641" 
d="M209 782h223l195 -782h-173l-38 168h-191l-37 -168h-174zM420 947h85q0 -62 -29 -90.5t-74 -28.5q-35 0 -84 24t-65 24q-33 0 -33 -33h-85q0 62 29 90.5t74 28.5q35 0 84 -24t65 -24q33 0 33 33zM320 595l-64 -287h128z" />
    <glyph glyph-name="Adieresis" unicode="&#xc4;" horiz-adv-x="641" 
d="M209 782h223l195 -782h-173l-38 168h-191l-37 -168h-174zM320 595l-64 -287h128zM299 945v-100h-133v100h133zM474 945v-100h-133v100h133z" />
    <glyph glyph-name="Aring" unicode="&#xc5;" horiz-adv-x="641" 
d="M215 858q0 44 30.5 74.5t74.5 30.5t74.5 -30.5t30.5 -74.5t-32 -76h39l195 -782h-173l-38 168h-191l-37 -168h-174l195 782h38q-32 30 -32 76zM320 595l-64 -287h128zM269 858q0 -21 15 -36t36 -15t36 15t15 36t-15 35.5t-36 14.5t-36 -14.5t-15 -35.5z" />
    <glyph glyph-name="AE" unicode="&#xc6;" horiz-adv-x="885" 
d="M280 780h565v-140h-324l23 -172h251v-140h-231l26 -188h255v-140h-408l-19 170h-182l-54 -170h-174zM371 594l-91 -284h122z" />
    <glyph glyph-name="Ccedilla" unicode="&#xc7;" horiz-adv-x="650" 
d="M235 -190l23 66q27 -17 72 -17q47 0 47 23t-48 23l-38 -5l-15 28l24 60q-136 9 -198.5 100t-62.5 282v40q0 202 70 292.5t223 90.5q142 0 210.5 -64.5t68.5 -208.5v-36h-162q0 86 -23.5 127.5t-84.5 41.5h-9q-74 0 -101.5 -59t-27.5 -184v-40q0 -125 27.5 -184t101.5 -59
h9q108 0 108 139h162v-9q0 -131 -59 -195.5t-179 -72.5l-11 -29q45 -3 72.5 -25t27.5 -62q0 -88 -120 -88q-67 0 -107 25z" />
    <glyph glyph-name="Egrave" unicode="&#xc8;" horiz-adv-x="573" 
d="M56 780h477v-140h-315v-172h265v-140h-265v-188h315v-140h-477v780zM154 950h165l55 -110h-156z" />
    <glyph glyph-name="Eacute" unicode="&#xc9;" horiz-adv-x="573" 
d="M56 780h477v-140h-315v-172h265v-140h-265v-188h315v-140h-477v780zM273 950h165l-64 -110h-156z" />
    <glyph glyph-name="Ecircumflex" unicode="&#xca;" horiz-adv-x="573" 
d="M56 780h477v-140h-315v-172h265v-140h-265v-188h315v-140h-477v780zM234 840h-142l124 110h160l124 -110h-142l-62 44z" />
    <glyph glyph-name="Edieresis" unicode="&#xcb;" horiz-adv-x="573" 
d="M56 780h477v-140h-315v-172h265v-140h-265v-188h315v-140h-477v780zM275 945v-100h-133v100h133zM450 945v-100h-133v100h133z" />
    <glyph glyph-name="Igrave" unicode="&#xcc;" horiz-adv-x="283" 
d="M223 780v-780h-162v780h162zM0 950h165l55 -110h-156z" />
    <glyph glyph-name="Iacute" unicode="&#xcd;" horiz-adv-x="283" 
d="M223 780v-780h-162v780h162zM119 950h165l-64 -110h-156z" />
    <glyph glyph-name="Icircumflex" unicode="&#xce;" horiz-adv-x="283" 
d="M223 780v-780h-162v780h162zM80 840h-142l124 110h160l124 -110h-142l-62 44z" />
    <glyph glyph-name="Idieresis" unicode="&#xcf;" horiz-adv-x="283" 
d="M223 780v-780h-162v780h162zM296 945v-100h-133v100h133zM121 945v-100h-133v100h133z" />
    <glyph glyph-name="Eth" unicode="&#xd0;" horiz-adv-x="723" 
d="M12 339v121h104v320h239q176 0 252.5 -84.5t76.5 -285.5v-40q0 -201 -76.5 -285.5t-252.5 -84.5h-239v339h-104zM278 640v-180h165v-121h-165v-199h68q98 0 135.5 54t37.5 176v40q0 122 -37.5 176t-135.5 54h-68z" />
    <glyph glyph-name="Ntilde" unicode="&#xd1;" horiz-adv-x="683" 
d="M627 780v-780h-171l-252 484l5 -157v-327h-153v780h171l251 -484l-5 157v327h154zM441 947h85q0 -62 -29 -90.5t-74 -28.5q-35 0 -84 24t-65 24q-33 0 -33 -33h-85q0 62 29 90.5t74 28.5q35 0 84 -24t65 -24q33 0 33 33z" />
    <glyph glyph-name="Ograve" unicode="&#xd2;" horiz-adv-x="673" 
d="M336 -13q-153 0 -225 91t-72 292v40q0 201 72 292t225 91q154 0 226 -91t72 -292v-40q0 -201 -72 -292t-226 -91zM332 127h9q72 0 100 59.5t28 183.5v40q0 124 -28 183.5t-100 59.5h-9q-72 0 -100.5 -59.5t-28.5 -183.5v-40q0 -124 28.5 -183.5t100.5 -59.5zM194 950h165
l55 -110h-156z" />
    <glyph glyph-name="Oacute" unicode="&#xd3;" horiz-adv-x="673" 
d="M336 -13q-153 0 -225 91t-72 292v40q0 201 72 292t225 91q154 0 226 -91t72 -292v-40q0 -201 -72 -292t-226 -91zM332 127h9q72 0 100 59.5t28 183.5v40q0 124 -28 183.5t-100 59.5h-9q-72 0 -100.5 -59.5t-28.5 -183.5v-40q0 -124 28.5 -183.5t100.5 -59.5zM313 950h165
l-64 -110h-156z" />
    <glyph glyph-name="Ocircumflex" unicode="&#xd4;" horiz-adv-x="673" 
d="M336 -13q-153 0 -225 91t-72 292v40q0 201 72 292t225 91q154 0 226 -91t72 -292v-40q0 -201 -72 -292t-226 -91zM332 127h9q72 0 100 59.5t28 183.5v40q0 124 -28 183.5t-100 59.5h-9q-72 0 -100.5 -59.5t-28.5 -183.5v-40q0 -124 28.5 -183.5t100.5 -59.5zM274 840
h-142l124 110h160l124 -110h-142l-62 44z" />
    <glyph glyph-name="Otilde" unicode="&#xd5;" horiz-adv-x="673" 
d="M336 -13q-153 0 -225 91t-72 292v40q0 201 72 292t225 91q154 0 226 -91t72 -292v-40q0 -201 -72 -292t-226 -91zM332 127h9q72 0 100 59.5t28 183.5v40q0 124 -28 183.5t-100 59.5h-9q-72 0 -100.5 -59.5t-28.5 -183.5v-40q0 -124 28.5 -183.5t100.5 -59.5zM436 947h85
q0 -62 -29 -90.5t-74 -28.5q-35 0 -84 24t-65 24q-33 0 -33 -33h-85q0 62 29 90.5t74 28.5q35 0 84 -24t65 -24q33 0 33 33z" />
    <glyph glyph-name="Odieresis" unicode="&#xd6;" horiz-adv-x="673" 
d="M336 -13q-153 0 -225 91t-72 292v40q0 201 72 292t225 91q154 0 226 -91t72 -292v-40q0 -201 -72 -292t-226 -91zM332 127h9q72 0 100 59.5t28 183.5v40q0 124 -28 183.5t-100 59.5h-9q-72 0 -100.5 -59.5t-28.5 -183.5v-40q0 -124 28.5 -183.5t100.5 -59.5zM315 945
v-100h-133v100h133zM490 945v-100h-133v100h133z" />
    <glyph glyph-name="multiply" unicode="&#xd7;" horiz-adv-x="600" 
d="M129 119l-100 100l171 171l-171 171l100 100l171 -171l171 171l100 -100l-171 -171l171 -171l-100 -100l-171 171z" />
    <glyph glyph-name="Oslash" unicode="&#xd8;" horiz-adv-x="670" 
d="M39 410q0 201 72 292t225 91q110 0 178 -46l21 33h98l-60 -94q61 -92 61 -276v-40q0 -201 -72 -292t-226 -91q-111 0 -179 47l-21 -34h-98l61 95q-60 93 -60 275v40zM469 410q0 58 -6 103l-220 -345q30 -41 89 -41h9q72 0 100 59.5t28 183.5v40zM203 370q0 -58 6 -102
l220 345q-31 40 -88 40h-9q-72 0 -100.5 -59.5t-28.5 -183.5v-40z" />
    <glyph glyph-name="Ugrave" unicode="&#xd9;" horiz-adv-x="663" 
d="M331 -13q-154 0 -217 63.5t-63 196.5v533h162v-528q0 -65 26 -95t92 -30q67 0 93 30t26 95v528h162v-533q0 -133 -63.5 -196.5t-217.5 -63.5zM189 950h165l55 -110h-156z" />
    <glyph glyph-name="Uacute" unicode="&#xda;" horiz-adv-x="663" 
d="M331 -13q-154 0 -217 63.5t-63 196.5v533h162v-528q0 -65 26 -95t92 -30q67 0 93 30t26 95v528h162v-533q0 -133 -63.5 -196.5t-217.5 -63.5zM308 950h165l-64 -110h-156z" />
    <glyph glyph-name="Ucircumflex" unicode="&#xdb;" horiz-adv-x="663" 
d="M331 -13q-154 0 -217 63.5t-63 196.5v533h162v-528q0 -65 26 -95t92 -30q67 0 93 30t26 95v528h162v-533q0 -133 -63.5 -196.5t-217.5 -63.5zM269 840h-142l124 110h160l124 -110h-142l-62 44z" />
    <glyph glyph-name="Udieresis" unicode="&#xdc;" horiz-adv-x="663" 
d="M331 -13q-154 0 -217 63.5t-63 196.5v533h162v-528q0 -65 26 -95t92 -30q67 0 93 30t26 95v528h162v-533q0 -133 -63.5 -196.5t-217.5 -63.5zM310 945v-100h-133v100h133zM485 945v-100h-133v100h133z" />
    <glyph glyph-name="Yacute" unicode="&#xdd;" horiz-adv-x="625" 
d="M394 239v-239h-162v239l-224 541h177l128 -341l127 341h177zM290 950h165l-64 -110h-156z" />
    <glyph glyph-name="Thorn" unicode="&#xde;" horiz-adv-x="609" 
d="M218 780v-140h94q43 0 77.5 -5t72 -20t63 -40.5t42 -70t16.5 -104.5v-20q0 -60 -16.5 -104.5t-42 -70t-63 -40.5t-72 -20t-77.5 -5h-94v-140h-162v780h162zM218 280h101q100 0 100 105v10q0 105 -100 105h-101v-220z" />
    <glyph glyph-name="germandbls" unicode="&#xdf;" horiz-adv-x="632" 
d="M285 334v100q105 58 105 143q0 100 -91 100q-46 0 -69 -27t-23 -65v-585h-158v594q0 99 60 159t190 60q122 0 185.5 -62.5t63.5 -156.5v-10q0 -112 -101 -186l24 -16q141 -95 141 -209v-9q0 -76 -48 -126.5t-144 -50.5q-101 0 -138.5 44.5t-37.5 128.5v8h134
q0 -61 39 -61q37 0 37 55q0 56 -76 108z" />
    <glyph glyph-name="agrave" unicode="&#xe0;" horiz-adv-x="549" 
d="M368 0l-10 55q-63 -68 -166 -68q-84 0 -123 44.5t-39 114.5v10q0 80 48.5 118t141.5 52l122 19q-1 41 -17 59.5t-55 18.5q-71 0 -71 -68h-149v9q0 79 52 129t173 50q124 0 174.5 -50t50.5 -152v-191l10 -150h-142zM89 780h172l91 -184h-156zM250 115q54 0 92 40v97
l-90 -14q-65 -11 -65 -63v-6q0 -23 15.5 -38.5t47.5 -15.5z" />
    <glyph glyph-name="aacute" unicode="&#xe1;" horiz-adv-x="549" 
d="M368 0l-10 55q-63 -68 -166 -68q-84 0 -123 44.5t-39 114.5v10q0 80 48.5 118t141.5 52l122 19q-1 41 -17 59.5t-55 18.5q-71 0 -71 -68h-149v9q0 79 52 129t173 50q124 0 174.5 -50t50.5 -152v-191l10 -150h-142zM287 780h172l-107 -184h-156zM250 115q54 0 92 40v97
l-90 -14q-65 -11 -65 -63v-6q0 -23 15.5 -38.5t47.5 -15.5z" />
    <glyph glyph-name="acircumflex" unicode="&#xe2;" horiz-adv-x="549" 
d="M368 0l-10 55q-63 -68 -166 -68q-84 0 -123 44.5t-39 114.5v10q0 80 48.5 118t141.5 52l122 19q-1 41 -17 59.5t-55 18.5q-71 0 -71 -68h-149v9q0 79 52 129t173 50q124 0 174.5 -50t50.5 -152v-191l10 -150h-142zM202 596h-138l134 184h152l134 -184h-138l-72 82z
M250 115q54 0 92 40v97l-90 -14q-65 -11 -65 -63v-6q0 -23 15.5 -38.5t47.5 -15.5z" />
    <glyph glyph-name="atilde" unicode="&#xe3;" horiz-adv-x="549" 
d="M368 0l-10 55q-63 -68 -166 -68q-84 0 -123 44.5t-39 114.5v10q0 80 48.5 118t141.5 52l122 19q-1 41 -17 59.5t-55 18.5q-71 0 -71 -68h-149v9q0 79 52 129t173 50q124 0 174.5 -50t50.5 -152v-191l10 -150h-142zM370 772h105q0 -80 -30.5 -119.5t-80.5 -39.5
q-35 0 -86.5 26t-68.5 26q-31 0 -31 -37h-105q0 80 30.5 119.5t80.5 39.5q35 0 86.5 -26t68.5 -26q31 0 31 37zM250 115q54 0 92 40v97l-90 -14q-65 -11 -65 -63v-6q0 -23 15.5 -38.5t47.5 -15.5z" />
    <glyph glyph-name="adieresis" unicode="&#xe4;" horiz-adv-x="549" 
d="M368 0l-10 55q-63 -68 -166 -68q-84 0 -123 44.5t-39 114.5v10q0 80 48.5 118t141.5 52l122 19q-1 41 -17 59.5t-55 18.5q-71 0 -71 -68h-149v9q0 79 52 129t173 50q124 0 174.5 -50t50.5 -152v-191l10 -150h-142zM249 772v-166h-165v166h165zM464 772v-166h-165v166h165
zM250 115q54 0 92 40v97l-90 -14q-65 -11 -65 -63v-6q0 -23 15.5 -38.5t47.5 -15.5z" />
    <glyph glyph-name="aring" unicode="&#xe5;" horiz-adv-x="549" 
d="M368 0l-10 55q-63 -68 -166 -68q-84 0 -123 44.5t-39 114.5v10q0 80 48.5 118t141.5 52l122 19q-1 41 -17 59.5t-55 18.5q-71 0 -71 -68h-149v9q0 79 52 129t173 50q124 0 174.5 -50t50.5 -152v-191l10 -150h-142zM170 688q0 44 31 74.5t74 30.5t74 -30.5t31 -74.5
t-31 -75t-74 -31t-74 31t-31 75zM250 115q54 0 92 40v97l-90 -14q-65 -11 -65 -63v-6q0 -23 15.5 -38.5t47.5 -15.5zM224 688q0 -21 15 -36t36 -15t36 15t15 36t-15 35.5t-36 14.5t-36 -14.5t-15 -35.5z" />
    <glyph glyph-name="ae" unicode="&#xe6;" horiz-adv-x="859" 
d="M838 208h-338q4 -54 29 -77.5t71 -23.5q40 0 64.5 19t24.5 44h149v-4q0 -78 -63.5 -128.5t-175.5 -50.5q-128 0 -194 74q-86 -74 -201 -74q-89 0 -131.5 44.5t-42.5 114.5v10q0 80 49 118t142 52l121 19q-1 41 -17 59.5t-55 18.5q-71 0 -71 -68h-149v9q0 79 52 129
t173 50q117 0 163 -59q56 59 156 59q121 0 182.5 -72t61.5 -192v-71zM351 163l1 1q-10 43 -10 84l-89 -14q-66 -11 -66 -63v-7q0 -22 15.5 -37.5t47.5 -15.5q66 0 101 52zM590 423q-82 0 -89 -101h178q-7 101 -89 101z" />
    <glyph glyph-name="ccedilla" unicode="&#xe7;" horiz-adv-x="527" 
d="M165 -190l23 66q27 -17 72 -17q47 0 47 23t-48 23l-38 -5l-15 28l24 62q-101 11 -150.5 79t-49.5 178v36q0 120 59.5 190t180.5 70q111 0 169.5 -53t58.5 -143v-23h-149q0 83 -76 83q-85 0 -85 -124v-36q0 -124 85 -124q37 0 56.5 20t19.5 53h149v-22q0 -78 -50 -128
t-146 -57l-10 -29q45 -3 72.5 -25t27.5 -62q0 -88 -120 -88q-67 0 -107 25z" />
    <glyph glyph-name="egrave" unicode="&#xe8;" horiz-adv-x="556" 
d="M526 208h-338q4 -54 29 -77.5t71 -23.5q40 0 64.5 19t24.5 44h149v-4q0 -78 -63.5 -128.5t-175.5 -50.5q-127 0 -192 72t-65 192v28q0 119 65 191.5t186 72.5t183 -72t62 -192v-71zM96 780h172l91 -184h-156zM278 423q-82 0 -89 -101h178q-7 101 -89 101z" />
    <glyph glyph-name="eacute" unicode="&#xe9;" horiz-adv-x="556" 
d="M526 208h-338q4 -54 29 -77.5t71 -23.5q40 0 64.5 19t24.5 44h149v-4q0 -78 -63.5 -128.5t-175.5 -50.5q-127 0 -192 72t-65 192v28q0 119 65 191.5t186 72.5t183 -72t62 -192v-71zM294 780h172l-107 -184h-156zM278 423q-82 0 -89 -101h178q-7 101 -89 101z" />
    <glyph glyph-name="ecircumflex" unicode="&#xea;" horiz-adv-x="556" 
d="M526 208h-338q4 -54 29 -77.5t71 -23.5q40 0 64.5 19t24.5 44h149v-4q0 -78 -63.5 -128.5t-175.5 -50.5q-127 0 -192 72t-65 192v28q0 119 65 191.5t186 72.5t183 -72t62 -192v-71zM209 596h-138l134 184h152l134 -184h-138l-72 82zM278 423q-82 0 -89 -101h178
q-7 101 -89 101z" />
    <glyph glyph-name="edieresis" unicode="&#xeb;" horiz-adv-x="556" 
d="M526 208h-338q4 -54 29 -77.5t71 -23.5q40 0 64.5 19t24.5 44h149v-4q0 -78 -63.5 -128.5t-175.5 -50.5q-127 0 -192 72t-65 192v28q0 119 65 191.5t186 72.5t183 -72t62 -192v-71zM471 772v-166h-165v166h165zM256 772v-166h-165v166h165zM278 423q-82 0 -89 -101h178
q-7 101 -89 101z" />
    <glyph glyph-name="igrave" unicode="&#xec;" horiz-adv-x="266" 
d="M54 0v530h157v-530h-157zM-52 780h172l91 -184h-156z" />
    <glyph glyph-name="iacute" unicode="&#xed;" horiz-adv-x="265" 
d="M54 0v530h157v-530h-157zM146 780h172l-107 -184h-156z" />
    <glyph glyph-name="icircumflex" unicode="&#xee;" horiz-adv-x="265" 
d="M54 0v530h157v-530h-157zM61 596h-138l134 184h152l134 -184h-138l-72 82z" />
    <glyph glyph-name="idieresis" unicode="&#xef;" horiz-adv-x="265" 
d="M54 0v530h157v-530h-157zM108 772v-166h-165v166h165zM323 772v-166h-165v166h165z" />
    <glyph glyph-name="eth" unicode="&#xf0;" horiz-adv-x="556" 
d="M31 673v140q177 -12 279 -67l120 67v-89l-49 -27q21 -19 39 -42q106 -136 106 -372v-36q0 -120 -62 -190t-186 -70q-123 0 -185 70t-62 190v36q0 118 58 189t165 71q38 0 68 -10q-9 15 -25 33q-26 29 -62 50l-176 -98v89l84 46q-47 14 -112 20zM278 122q91 0 91 125v36
q0 125 -91 125t-91 -125v-36q0 -125 91 -125z" />
    <glyph glyph-name="ntilde" unicode="&#xf1;" horiz-adv-x="580" 
d="M532 0h-157v333q0 74 -70 74q-61 0 -93 -50v-357h-158v380l-9 150h141l12 -68q57 81 170 81q84 0 124 -52t40 -132v-359zM389 772h105q0 -80 -30.5 -119.5t-80.5 -39.5q-35 0 -86.5 26t-68.5 26q-31 0 -31 -37h-105q0 80 30.5 119.5t80.5 39.5q35 0 86.5 -26t68.5 -26
q31 0 31 37z" />
    <glyph glyph-name="ograve" unicode="&#xf2;" horiz-adv-x="556" 
d="M278 -13q-123 0 -185.5 70t-62.5 190v36q0 120 62.5 190t185.5 70q124 0 186 -70t62 -190v-36q0 -120 -62 -190t-186 -70zM278 123q90 0 90 124v36q0 124 -90 124t-90 -124v-36q0 -124 90 -124zM93 780h172l91 -184h-156z" />
    <glyph glyph-name="oacute" unicode="&#xf3;" horiz-adv-x="556" 
d="M278 -13q-123 0 -185.5 70t-62.5 190v36q0 120 62.5 190t185.5 70q124 0 186 -70t62 -190v-36q0 -120 -62 -190t-186 -70zM278 123q90 0 90 124v36q0 124 -90 124t-90 -124v-36q0 -124 90 -124zM291 780h172l-107 -184h-156z" />
    <glyph glyph-name="ocircumflex" unicode="&#xf4;" horiz-adv-x="556" 
d="M278 -13q-123 0 -185.5 70t-62.5 190v36q0 120 62.5 190t185.5 70q124 0 186 -70t62 -190v-36q0 -120 -62 -190t-186 -70zM206 596h-138l134 184h152l134 -184h-138l-72 82zM278 123q90 0 90 124v36q0 124 -90 124t-90 -124v-36q0 -124 90 -124z" />
    <glyph glyph-name="otilde" unicode="&#xf5;" horiz-adv-x="556" 
d="M278 -13q-123 0 -185.5 70t-62.5 190v36q0 120 62.5 190t185.5 70q124 0 186 -70t62 -190v-36q0 -120 -62 -190t-186 -70zM374 772h105q0 -80 -30.5 -119.5t-80.5 -39.5q-35 0 -86.5 26t-68.5 26q-31 0 -31 -37h-105q0 80 30.5 119.5t80.5 39.5q35 0 86.5 -26t68.5 -26
q31 0 31 37zM278 123q90 0 90 124v36q0 124 -90 124t-90 -124v-36q0 -124 90 -124z" />
    <glyph glyph-name="odieresis" unicode="&#xf6;" horiz-adv-x="556" 
d="M278 -13q-123 0 -185.5 70t-62.5 190v36q0 120 62.5 190t185.5 70q124 0 186 -70t62 -190v-36q0 -120 -62 -190t-186 -70zM278 123q90 0 90 124v36q0 124 -90 124t-90 -124v-36q0 -124 90 -124zM253 772v-166h-165v166h165zM468 772v-166h-165v166h165z" />
    <glyph glyph-name="divide" unicode="&#xf7;" horiz-adv-x="600" 
d="M42 320v140h516v-140h-516zM383 265v-166h-166v166h166zM383 681v-166h-166v166h166z" />
    <glyph glyph-name="oslash" unicode="&#xf8;" horiz-adv-x="556" 
d="M526 530l-53 -68q53 -68 53 -179v-36q0 -120 -62 -190t-186 -70q-90 0 -148 38l-19 -25h-81l53 68q-53 66 -53 179v36q0 120 62.5 190t185.5 70q87 0 147 -38l19 25h82zM368 283q0 23 -3 41l-143 -182q20 -19 56 -19q90 0 90 124v36zM188 247q0 -21 3 -41l142 183
q-21 18 -55 18q-90 0 -90 -124v-36z" />
    <glyph glyph-name="ugrave" unicode="&#xf9;" horiz-adv-x="580" 
d="M48 530h157v-333q0 -74 70 -74q59 0 93 50v357h158v-380l9 -150h-141l-12 67q-58 -80 -170 -80q-85 0 -124.5 52t-39.5 132v359zM101 780h172l91 -184h-156z" />
    <glyph glyph-name="uacute" unicode="&#xfa;" horiz-adv-x="580" 
d="M48 530h157v-333q0 -74 70 -74q59 0 93 50v357h158v-380l9 -150h-141l-12 67q-58 -80 -170 -80q-85 0 -124.5 52t-39.5 132v359zM299 780h172l-107 -184h-156z" />
    <glyph glyph-name="ucircumflex" unicode="&#xfb;" horiz-adv-x="580" 
d="M48 530h157v-333q0 -74 70 -74q59 0 93 50v357h158v-380l9 -150h-141l-12 67q-58 -80 -170 -80q-85 0 -124.5 52t-39.5 132v359zM214 596h-138l134 184h152l134 -184h-138l-72 82z" />
    <glyph glyph-name="udieresis" unicode="&#xfc;" horiz-adv-x="580" 
d="M48 530h157v-333q0 -74 70 -74q59 0 93 50v357h158v-380l9 -150h-141l-12 67q-58 -80 -170 -80q-85 0 -124.5 52t-39.5 132v359zM476 772v-166h-165v166h165zM261 772v-166h-165v166h165z" />
    <glyph glyph-name="yacute" unicode="&#xfd;" horiz-adv-x="551" 
d="M277 192l100 338h172l-187 -502l-68 -228h-188l85 228l-186 502h172zM290 780h172l-107 -184h-156z" />
    <glyph glyph-name="thorn" unicode="&#xfe;" horiz-adv-x="574" 
d="M52 800h158v-316q51 59 137 59q197 0 197 -260v-36q0 -260 -197 -260q-88 0 -137 59v-246h-158v1000zM211 173q34 -50 90 -50q85 0 85 124v36q0 124 -85 124q-56 0 -90 -50v-184z" />
    <glyph glyph-name="ydieresis" unicode="&#xff;" horiz-adv-x="551" 
d="M277 192l100 338h172l-187 -502l-68 -228h-188l85 228l-186 502h172zM467 772v-166h-165v166h165zM252 772v-166h-165v166h165z" />
    <glyph glyph-name="Amacron" unicode="&#x100;" horiz-adv-x="641" 
d="M209 782h223l195 -782h-173l-38 168h-191l-37 -168h-174zM171 847v96h298v-96h-298zM320 595l-64 -287h128z" />
    <glyph glyph-name="amacron" unicode="&#x101;" horiz-adv-x="549" 
d="M368 0l-10 55q-63 -68 -166 -68q-84 0 -123 44.5t-39 114.5v10q0 80 48.5 118t141.5 52l122 19q-1 41 -17 59.5t-55 18.5q-71 0 -71 -68h-149v9q0 79 52 129t173 50q124 0 174.5 -50t50.5 -152v-191l10 -150h-142zM124 619v138h300v-138h-300zM250 115q54 0 92 40v97
l-90 -14q-65 -11 -65 -63v-6q0 -23 15.5 -38.5t47.5 -15.5z" />
    <glyph glyph-name="Abreve" unicode="&#x102;" horiz-adv-x="641" 
d="M209 782h223l195 -782h-173l-38 168h-191l-37 -168h-174zM320 825q-102 0 -142.5 33.5t-40.5 91.5h109q0 -40 74 -40t74 40h109q0 -58 -40.5 -91.5t-142.5 -33.5zM320 595l-64 -287h128z" />
    <glyph glyph-name="abreve" unicode="&#x103;" horiz-adv-x="549" 
d="M368 0l-10 55q-63 -68 -166 -68q-84 0 -123 44.5t-39 114.5v10q0 80 48.5 118t141.5 52l122 19q-1 41 -17 59.5t-55 18.5q-71 0 -71 -68h-149v9q0 79 52 129t173 50q124 0 174.5 -50t50.5 -152v-191l10 -150h-142zM274 582q-190 0 -187 198h113q0 -78 74 -78t74 78h113
q3 -198 -187 -198zM250 115q54 0 92 40v97l-90 -14q-65 -11 -65 -63v-6q0 -23 15.5 -38.5t47.5 -15.5z" />
    <glyph glyph-name="Aogonek" unicode="&#x104;" horiz-adv-x="641" 
d="M565 -69q0 -16 12 -26t31 -10q24 0 42 11l36 -96q-40 -25 -103 -25t-99 27.5t-36 80.5q0 61 44 107h-38l-38 168h-191l-37 -168h-174l195 782h223l195 -782q-62 -27 -62 -69zM320 595l-64 -287h128z" />
    <glyph glyph-name="aogonek" unicode="&#x105;" horiz-adv-x="549" 
d="M250 115q54 0 92 40v97l-90 -14q-65 -11 -65 -63v-6q0 -23 15.5 -38.5t47.5 -15.5zM329 -107q0 58 40 103l-11 59q-63 -68 -166 -68q-84 0 -123 44.5t-39 114.5v10q0 80 48.5 118t141.5 52l122 19q-1 41 -17 59.5t-55 18.5q-71 0 -71 -68h-149v9q0 79 52 129t173 50
q124 0 174.5 -50t50.5 -152v-191l10 -150h-2q-62 -27 -62 -69q0 -16 12 -26t31 -10q24 0 42 11l36 -96q-40 -25 -103 -25t-99 27.5t-36 80.5z" />
    <glyph glyph-name="Cacute" unicode="&#x106;" horiz-adv-x="650" 
d="M203 370q0 -125 27.5 -184t101.5 -59h9q108 0 108 139h162v-9q0 -142 -69 -206t-210 -64q-153 0 -223 90.5t-70 292.5v40q0 202 70 292.5t223 90.5q142 0 210.5 -64.5t68.5 -208.5v-36h-162q0 86 -23.5 127.5t-84.5 41.5h-9q-74 0 -101.5 -59t-27.5 -184v-40zM309 950
h165l-64 -110h-156z" />
    <glyph glyph-name="cacute" unicode="&#x107;" horiz-adv-x="527" 
d="M188 247q0 -124 85 -124q37 0 56.5 20t19.5 53h149v-22q0 -85 -58.5 -136t-169.5 -51q-121 0 -180.5 70t-59.5 190v36q0 120 59.5 190t180.5 70q111 0 169.5 -53t58.5 -143v-23h-149q0 83 -76 83q-85 0 -85 -124v-36zM283 780h172l-107 -184h-156z" />
    <glyph glyph-name="Ccircumflex" unicode="&#x108;" horiz-adv-x="650" 
d="M203 370q0 -125 27.5 -184t101.5 -59h9q108 0 108 139h162v-9q0 -142 -69 -206t-210 -64q-153 0 -223 90.5t-70 292.5v40q0 202 70 292.5t223 90.5q142 0 210.5 -64.5t68.5 -208.5v-36h-162q0 86 -23.5 127.5t-84.5 41.5h-9q-74 0 -101.5 -59t-27.5 -184v-40zM270 840
h-142l124 110h160l124 -110h-142l-62 44z" />
    <glyph glyph-name="ccircumflex" unicode="&#x109;" horiz-adv-x="527" 
d="M188 247q0 -124 85 -124q37 0 56.5 20t19.5 53h149v-22q0 -85 -58.5 -136t-169.5 -51q-121 0 -180.5 70t-59.5 190v36q0 120 59.5 190t180.5 70q111 0 169.5 -53t58.5 -143v-23h-149q0 83 -76 83q-85 0 -85 -124v-36zM198 596h-138l134 184h152l134 -184h-138l-72 82z
" />
    <glyph glyph-name="Cdotaccent" unicode="&#x10a;" horiz-adv-x="650" 
d="M203 370q0 -125 27.5 -184t101.5 -59h9q108 0 108 139h162v-9q0 -142 -69 -206t-210 -64q-153 0 -223 90.5t-70 292.5v40q0 202 70 292.5t223 90.5q142 0 210.5 -64.5t68.5 -208.5v-36h-162q0 86 -23.5 127.5t-84.5 41.5h-9q-74 0 -101.5 -59t-27.5 -184v-40zM399 945
v-100h-134v100h134z" />
    <glyph glyph-name="cdotaccent" unicode="&#x10b;" horiz-adv-x="527" 
d="M188 247q0 -124 85 -124q37 0 56.5 20t19.5 53h149v-22q0 -85 -58.5 -136t-169.5 -51q-121 0 -180.5 70t-59.5 190v36q0 120 59.5 190t180.5 70q111 0 169.5 -53t58.5 -143v-23h-149q0 83 -76 83q-85 0 -85 -124v-36zM353 772v-166h-166v166h166z" />
    <glyph glyph-name="Ccaron" unicode="&#x10c;" horiz-adv-x="650" 
d="M203 370q0 -125 27.5 -184t101.5 -59h9q108 0 108 139h162v-9q0 -142 -69 -206t-210 -64q-153 0 -223 90.5t-70 292.5v40q0 202 70 292.5t223 90.5q142 0 210.5 -64.5t68.5 -208.5v-36h-162q0 86 -23.5 127.5t-84.5 41.5h-9q-74 0 -101.5 -59t-27.5 -184v-40zM128 950
h142l62 -45l62 45h142l-124 -110h-160z" />
    <glyph glyph-name="ccaron" unicode="&#x10d;" horiz-adv-x="527" 
d="M188 247q0 -124 85 -124q37 0 56.5 20t19.5 53h149v-22q0 -85 -58.5 -136t-169.5 -51q-121 0 -180.5 70t-59.5 190v36q0 120 59.5 190t180.5 70q111 0 169.5 -53t58.5 -143v-23h-149q0 83 -76 83q-85 0 -85 -124v-36zM60 780h138l72 -83l72 83h138l-134 -184h-152z" />
    <glyph glyph-name="Dcaron" unicode="&#x10e;" horiz-adv-x="663" 
d="M624 370q0 -201 -76.5 -285.5t-252.5 -84.5h-239v780h239q176 0 252.5 -84.5t76.5 -285.5v-40zM218 140h68q98 0 135.5 54t37.5 176v40q0 122 -37.5 176t-135.5 54h-68v-500zM109 950h142l62 -45l62 45h142l-124 -110h-160z" />
    <glyph glyph-name="dcaron" unicode="&#x10f;" horiz-adv-x="582" 
d="M235 543q86 0 136 -58v315h158v-650l9 -150h-142l-11 63q-52 -76 -150 -76q-197 0 -197 260v36q0 260 197 260zM371 357q-34 50 -90 50q-86 0 -86 -124v-36q0 -124 86 -124q56 0 90 50v184zM584 800h96l-26 -204h-70v204z" />
    <glyph glyph-name="Dcroat" unicode="&#x110;" horiz-adv-x="723" 
d="M12 339v121h104v320h239q176 0 252.5 -84.5t76.5 -285.5v-40q0 -201 -76.5 -285.5t-252.5 -84.5h-239v339h-104zM278 640v-180h165v-121h-165v-199h68q98 0 135.5 54t37.5 176v40q0 122 -37.5 176t-135.5 54h-68z" />
    <glyph glyph-name="dcroat" unicode="&#x111;" horiz-adv-x="582" 
d="M596 721v-112h-68v-459l9 -150h-140l-12 64q-50 -77 -150 -77q-197 0 -197 260v36q0 260 197 260q85 0 136 -58v124h-113v112h113v79h157v-79h68zM371 357q-33 51 -91 51q-85 0 -85 -125v-36q0 -125 85 -125q58 0 91 51v184z" />
    <glyph glyph-name="Emacron" unicode="&#x112;" horiz-adv-x="573" 
d="M56 780h477v-140h-315v-172h265v-140h-265v-188h315v-140h-477v780zM147 847v96h298v-96h-298z" />
    <glyph glyph-name="emacron" unicode="&#x113;" horiz-adv-x="556" 
d="M526 208h-338q4 -54 29 -77.5t71 -23.5q40 0 64.5 19t24.5 44h149v-4q0 -78 -63.5 -128.5t-175.5 -50.5q-127 0 -192 72t-65 192v28q0 119 65 191.5t186 72.5t183 -72t62 -192v-71zM131 619v138h300v-138h-300zM278 423q-82 0 -89 -101h178q-7 101 -89 101z" />
    <glyph glyph-name="Ebreve" unicode="&#x114;" horiz-adv-x="573" 
d="M296 825q-102 0 -142.5 33.5t-40.5 91.5h109q0 -40 74 -40t74 40h109q0 -58 -40.5 -91.5t-142.5 -33.5zM56 780h477v-140h-315v-172h265v-140h-265v-188h315v-140h-477v780z" />
    <glyph glyph-name="ebreve" unicode="&#x115;" horiz-adv-x="556" 
d="M526 208h-338q4 -54 29 -77.5t71 -23.5q40 0 64.5 19t24.5 44h149v-4q0 -78 -63.5 -128.5t-175.5 -50.5q-127 0 -192 72t-65 192v28q0 119 65 191.5t186 72.5t183 -72t62 -192v-71zM281 582q-190 0 -187 198h113q0 -78 74 -78t74 78h113q3 -198 -187 -198zM278 423
q-82 0 -89 -101h178q-7 101 -89 101z" />
    <glyph glyph-name="Edotaccent" unicode="&#x116;" horiz-adv-x="573" 
d="M56 780h477v-140h-315v-172h265v-140h-265v-188h315v-140h-477v780zM363 945v-100h-134v100h134z" />
    <glyph glyph-name="edotaccent" unicode="&#x117;" horiz-adv-x="556" 
d="M526 208h-338q4 -54 29 -77.5t71 -23.5q40 0 64.5 19t24.5 44h149v-4q0 -78 -63.5 -128.5t-175.5 -50.5q-127 0 -192 72t-65 192v28q0 119 65 191.5t186 72.5t183 -72t62 -192v-71zM364 772v-166h-166v166h166zM278 423q-82 0 -89 -101h178q-7 101 -89 101z" />
    <glyph glyph-name="Eogonek" unicode="&#x118;" horiz-adv-x="573" 
d="M56 780h477v-140h-315v-172h265v-140h-265v-188h315v-140h-1q-62 -27 -62 -69q0 -16 12 -26t31 -10q24 0 42 11l36 -96q-40 -25 -103 -25t-99 27.5t-36 80.5q0 61 44 107h-341v780z" />
    <glyph glyph-name="eogonek" unicode="&#x119;" horiz-adv-x="556" 
d="M526 208h-338q4 -54 29 -77.5t71 -23.5q40 0 64.5 19t24.5 44h149v-4q0 -58 -37 -102.5t-102 -63.5q-62 -19 -62 -69q0 -16 12 -26t31 -10q24 0 42 11l36 -96q-40 -25 -103 -25t-99 27.5t-36 80.5q0 54 35 97q-106 12 -159.5 82t-53.5 179v28q0 119 65 191.5t186 72.5
t183 -72t62 -192v-71zM278 423q-82 0 -89 -101h178q-7 101 -89 101z" />
    <glyph glyph-name="Ecaron" unicode="&#x11a;" horiz-adv-x="573" 
d="M56 780h477v-140h-315v-172h265v-140h-265v-188h315v-140h-477v780zM92 950h142l62 -45l62 45h142l-124 -110h-160z" />
    <glyph glyph-name="ecaron" unicode="&#x11b;" horiz-adv-x="556" 
d="M526 208h-338q4 -54 29 -77.5t71 -23.5q40 0 64.5 19t24.5 44h149v-4q0 -78 -63.5 -128.5t-175.5 -50.5q-127 0 -192 72t-65 192v28q0 119 65 191.5t186 72.5t183 -72t62 -192v-71zM71 780h138l72 -83l72 83h138l-134 -184h-152zM278 423q-82 0 -89 -101h178
q-7 101 -89 101z" />
    <glyph glyph-name="Gcircumflex" unicode="&#x11c;" horiz-adv-x="673" 
d="M348 -13q-160 0 -234.5 91t-74.5 292v40q0 200 73 291.5t226 91.5q143 0 213.5 -65t70.5 -208v-36h-162q0 86 -24.5 127.5t-88.5 41.5h-9q-76 0 -105 -59t-29 -184v-40q0 -126 29.5 -184.5t110.5 -58.5h9q64 0 106 30v125h-103v140h265v-344q-110 -91 -273 -91zM276 840
h-142l124 110h160l124 -110h-142l-62 44z" />
    <glyph glyph-name="gcircumflex" unicode="&#x11d;" horiz-adv-x="574" 
d="M363 11v62q-49 -54 -136 -54q-197 0 -197 248v28q0 113 48 180.5t149 67.5q99 0 151 -74l11 61h141l-9 -150v-370q0 -223 -245 -223q-125 0 -180.5 52t-55.5 140v21h149q0 -41 18.5 -63t65.5 -22t68.5 21.5t21.5 74.5zM208 596h-138l134 184h152l134 -184h-138l-72 82z
M363 205v152q-32 50 -90 50q-42 0 -63.5 -30t-21.5 -82v-28q0 -112 85 -112q58 0 90 50z" />
    <glyph glyph-name="Gbreve" unicode="&#x11e;" horiz-adv-x="673" 
d="M348 -13q-160 0 -234.5 91t-74.5 292v40q0 200 73 291.5t226 91.5q143 0 213.5 -65t70.5 -208v-36h-162q0 86 -24.5 127.5t-88.5 41.5h-9q-76 0 -105 -59t-29 -184v-40q0 -126 29.5 -184.5t110.5 -58.5h9q64 0 106 30v125h-103v140h265v-344q-110 -91 -273 -91zM338 825
q-102 0 -142.5 33.5t-40.5 91.5h109q0 -40 74 -40t74 40h109q0 -58 -40.5 -91.5t-142.5 -33.5z" />
    <glyph glyph-name="gbreve" unicode="&#x11f;" horiz-adv-x="574" 
d="M363 11v62q-49 -54 -136 -54q-197 0 -197 248v28q0 113 48 180.5t149 67.5q99 0 151 -74l11 61h141l-9 -150v-370q0 -223 -245 -223q-125 0 -180.5 52t-55.5 140v21h149q0 -41 18.5 -63t65.5 -22t68.5 21.5t21.5 74.5zM280 582q-190 0 -187 198h113q0 -78 74 -78t74 78
h113q3 -198 -187 -198zM363 357q-32 50 -90 50q-42 0 -63.5 -30t-21.5 -82v-28q0 -112 85 -112q58 0 90 50v152z" />
    <glyph glyph-name="Gdotaccent" unicode="&#x120;" horiz-adv-x="673" 
d="M348 -13q-160 0 -234.5 91t-74.5 292v40q0 200 73 291.5t226 91.5q143 0 213.5 -65t70.5 -208v-36h-162q0 86 -24.5 127.5t-88.5 41.5h-9q-76 0 -105 -59t-29 -184v-40q0 -126 29.5 -184.5t110.5 -58.5h9q64 0 106 30v125h-103v140h265v-344q-110 -91 -273 -91zM405 945
v-100h-134v100h134z" />
    <glyph glyph-name="gdotaccent" unicode="&#x121;" horiz-adv-x="574" 
d="M363 11v62q-49 -54 -136 -54q-197 0 -197 248v28q0 113 48 180.5t149 67.5q99 0 151 -74l11 61h141l-9 -150v-370q0 -223 -245 -223q-125 0 -180.5 52t-55.5 140v21h149q0 -41 18.5 -63t65.5 -22t68.5 21.5t21.5 74.5zM363 357q-32 50 -90 50q-42 0 -63.5 -30t-21.5 -82
v-28q0 -112 85 -112q58 0 90 50v152zM359 772v-166h-166v166h166z" />
    <glyph glyph-name="Gcommaaccent" unicode="&#x122;" horiz-adv-x="673" 
d="M348 -13q-160 0 -234.5 91t-74.5 292v40q0 200 73 291.5t226 91.5q143 0 213.5 -65t70.5 -208v-36h-162q0 86 -24.5 127.5t-88.5 41.5h-9q-76 0 -105 -59t-29 -184v-40q0 -126 29.5 -184.5t110.5 -58.5h9q64 0 106 30v125h-103v140h265v-344q-110 -91 -273 -91zM419 -44
v-57q0 -66 -36 -95.5t-111 -29.5v54q67 0 84 36h-79v92h142z" />
    <glyph glyph-name="gcommaaccent" unicode="&#x123;" horiz-adv-x="574" 
d="M364 11v62q-49 -54 -137 -54q-196 0 -196 248v28q0 113 48 180.5t148 67.5q102 0 151 -73l11 60h141l-9 -150v-370q0 -223 -245 -223q-124 0 -179.5 52t-55.5 140v21h148q0 -86 84 -86q47 0 69 22t22 75zM273 154q58 0 91 51v152q-33 51 -91 51q-42 0 -64 -30t-22 -83
v-28q0 -113 86 -113zM206 596v65q0 69 35.5 100.5t111.5 31.5v-54q-71 0 -87 -43h81v-100h-141z" />
    <glyph glyph-name="Hcircumflex" unicode="&#x124;" horiz-adv-x="663" 
d="M445 780h162v-780h-162v328h-227v-328h-162v780h162v-312h227v312zM269 840h-142l124 110h160l124 -110h-142l-62 44z" />
    <glyph glyph-name="hcircumflex" unicode="&#x125;" horiz-adv-x="579" 
d="M212 800v-321q57 64 156 64q84 0 124 -52t40 -132v-359h-157v333q0 74 -70 74q-61 0 -93 -50v-357h-158v800h158zM70 840h-142l124 110h160l124 -110h-142l-62 44z" />
    <glyph glyph-name="Hbar" unicode="&#x126;" horiz-adv-x="663" 
d="M445 780h162v-780h-162v328h-227v-328h-162v780h162v-95h227v95zM218 468h227v96h-227v-96z" />
    <glyph glyph-name="hbar" unicode="&#x127;" horiz-adv-x="579" 
d="M211 800v-79h113v-112h-113v-130q57 64 156 64q84 0 124 -52t40 -132v-359h-156v333q0 75 -71 75q-60 0 -93 -51v-357h-157v609h-68v112h68v79h157z" />
    <glyph glyph-name="Itilde" unicode="&#x128;" horiz-adv-x="283" 
d="M223 780v-780h-162v780h162zM242 947h85q0 -62 -29 -90.5t-74 -28.5q-35 0 -84 24t-65 24q-33 0 -33 -33h-85q0 62 29 90.5t74 28.5q35 0 84 -24t65 -24q33 0 33 33z" />
    <glyph glyph-name="itilde" unicode="&#x129;" horiz-adv-x="266" 
d="M54 0v530h157v-530h-157zM229 772h105q0 -80 -30.5 -119.5t-80.5 -39.5q-35 0 -86.5 26t-68.5 26q-31 0 -31 -37h-105q0 80 30.5 119.5t80.5 39.5q35 0 86.5 -26t68.5 -26q31 0 31 37z" />
    <glyph glyph-name="Imacron" unicode="&#x12a;" horiz-adv-x="283" 
d="M223 780v-780h-162v780h162zM-7 847v96h298v-96h-298z" />
    <glyph glyph-name="imacron" unicode="&#x12b;" horiz-adv-x="266" 
d="M54 0v530h157v-530h-157zM-17 619v138h300v-138h-300z" />
    <glyph glyph-name="Ibreve" unicode="&#x12c;" horiz-adv-x="283" 
d="M223 780v-780h-162v780h162zM142 825q-102 0 -142.5 33.5t-40.5 91.5h109q0 -40 74 -40t74 40h109q0 -58 -40.5 -91.5t-142.5 -33.5z" />
    <glyph glyph-name="ibreve" unicode="&#x12d;" horiz-adv-x="265" 
d="M54 0v530h157v-530h-157zM133 582q-190 0 -187 198h113q0 -78 74 -78t74 78h113q3 -198 -187 -198z" />
    <glyph glyph-name="Iogonek" unicode="&#x12e;" horiz-adv-x="283" 
d="M160 -69q0 -16 12 -26t31 -10q24 0 42 11l36 -96q-40 -25 -103 -25t-99 27.5t-36 80.5q0 41 18 72v815h162v-780h-1q-62 -27 -62 -69z" />
    <glyph glyph-name="iogonek" unicode="&#x12f;" horiz-adv-x="266" 
d="M32 -107q0 43 22 79v558h158v-530h-1q-62 -27 -62 -69q0 -16 12 -26t31 -10q24 0 42 11l36 -96q-40 -25 -103 -25t-99 27.5t-36 80.5zM216 772v-167h-166v167h166z" />
    <glyph glyph-name="Idotaccent" unicode="&#x130;" horiz-adv-x="283" 
d="M223 780v-780h-162v780h162zM209 945v-100h-134v100h134z" />
    <glyph glyph-name="dotlessi" unicode="&#x131;" horiz-adv-x="265" 
d="M54 0v530h157v-530h-157z" />
    <glyph glyph-name="IJ" unicode="&#x132;" horiz-adv-x="607" 
d="M395 209v571h162v-589q0 -204 -196 -204q-70 0 -95 16v133q18 -9 52 -9q39 0 58 17.5t19 64.5zM223 780v-780h-162v780h162z" />
    <glyph glyph-name="ij" unicode="&#x133;" horiz-adv-x="481" 
d="M270 1v529h158v-546q0 -197 -199 -197q-63 0 -86 13v130q14 -7 49 -7q39 0 58.5 16t19.5 62zM54 0v530h158v-530h-158zM216 772v-167h-166v167h166zM432 772v-167h-166v167h166z" />
    <glyph glyph-name="Jcircumflex" unicode="&#x134;" horiz-adv-x="537" 
d="M324 780h162v-542q0 -251 -232 -251q-124 0 -177.5 63.5t-53.5 189.5v26h153q0 -72 16.5 -105.5t57.5 -33.5q42 0 58 32t16 99v522zM343 840h-142l124 110h160l124 -110h-142l-62 44z" />
    <glyph glyph-name="jcircumflex" unicode="&#x135;" horiz-adv-x="266" 
d="M54 1v529h157v-546q0 -197 -198 -197q-63 0 -86 13v129q21 -7 49 -7q39 0 58.5 16.5t19.5 62.5zM61 596h-138l134 184h152l134 -184h-138l-72 82z" />
    <glyph glyph-name="Kcommaaccent" unicode="&#x136;" horiz-adv-x="625" 
d="M218 780v-306l192 306h196l-219 -313l219 -467h-180l-142 319l-66 -94v-225h-162v780h162zM385 -44v-57q0 -66 -36 -95.5t-111 -29.5v54q67 0 84 36h-79v92h142z" />
    <glyph glyph-name="kcommaaccent" unicode="&#x137;" horiz-adv-x="562" 
d="M50 0v800h158v-450l147 180h189l-175 -201l175 -329h-184l-100 204l-52 -60v-144h-158zM350 -44v-57q0 -66 -36 -95.5t-111 -29.5v54q67 0 84 36h-79v92h142z" />
    <glyph glyph-name="kgreenlandic" unicode="&#x138;" horiz-adv-x="562" 
d="M50 0v530h158v-180l147 180h189l-175 -201l175 -329h-184l-100 204l-52 -60v-144h-158z" />
    <glyph glyph-name="Lacute" unicode="&#x139;" horiz-adv-x="521" 
d="M506 0h-450v780h162v-640h288v-140zM114 950h165l-64 -110h-156z" />
    <glyph glyph-name="lacute" unicode="&#x13a;" horiz-adv-x="266" 
d="M54 0v800h158v-800h-158zM110 950h165l-64 -110h-156z" />
    <glyph glyph-name="Lcommaaccent" unicode="&#x13b;" horiz-adv-x="521" 
d="M506 0h-450v780h162v-640h288v-140zM352 -44v-57q0 -66 -36 -95.5t-111 -29.5v54q67 0 84 36h-79v92h142z" />
    <glyph glyph-name="lcommaaccent" unicode="&#x13c;" horiz-adv-x="266" 
d="M54 0v800h158v-800h-158zM204 -44v-57q0 -66 -36 -95.5t-111 -29.5v54q67 0 84 36h-79v92h142z" />
    <glyph glyph-name="Lcaron" unicode="&#x13d;" horiz-adv-x="521" 
d="M506 0h-450v780h162v-640h288v-140zM331 800h96l-26 -204h-70v204z" />
    <glyph glyph-name="lcaron" unicode="&#x13e;" horiz-adv-x="266" 
d="M54 0v800h158v-800h-158zM268 800h96l-26 -204h-70v204z" />
    <glyph glyph-name="Ldot" unicode="&#x13f;" horiz-adv-x="521" 
d="M506 0h-450v780h162v-640h288v-140zM478 481v-166h-165v166h165z" />
    <glyph glyph-name="ldot" unicode="&#x140;" horiz-adv-x="439" 
d="M54 0v800h158v-800h-158zM436 434v-167h-166v167h166z" />
    <glyph glyph-name="Lslash" unicode="&#x141;" horiz-adv-x="581" 
d="M12 188v135l104 51v406h162v-326l181 89v-134l-181 -90v-179h288v-140h-450v239z" />
    <glyph glyph-name="lslash" unicode="&#x142;" horiz-adv-x="384" 
d="M23 190v133l89 56v421h158v-321l101 64v-132l-101 -64v-347h-158v246z" />
    <glyph glyph-name="Nacute" unicode="&#x143;" horiz-adv-x="683" 
d="M627 780v-780h-171l-252 484l5 -157v-327h-153v780h171l251 -484l-5 157v327h154zM318 950h165l-64 -110h-156z" />
    <glyph glyph-name="nacute" unicode="&#x144;" horiz-adv-x="580" 
d="M532 0h-157v333q0 74 -70 74q-61 0 -93 -50v-357h-158v380l-9 150h141l12 -68q57 81 170 81q84 0 124 -52t40 -132v-359zM306 780h172l-107 -184h-156z" />
    <glyph glyph-name="Ncommaaccent" unicode="&#x145;" horiz-adv-x="683" 
d="M627 780v-780h-171l-252 484l5 -157v-327h-153v780h171l251 -484l-5 157v327h154zM412 -44v-57q0 -66 -36 -95.5t-111 -29.5v54q67 0 84 36h-79v92h142z" />
    <glyph glyph-name="ncommaaccent" unicode="&#x146;" horiz-adv-x="580" 
d="M532 0h-157v333q0 74 -70 74q-61 0 -93 -50v-357h-158v380l-9 150h141l12 -68q57 81 170 81q84 0 124 -52t40 -132v-359zM364 -44v-57q0 -66 -36 -95.5t-111 -29.5v54q67 0 84 36h-79v92h142z" />
    <glyph glyph-name="Ncaron" unicode="&#x147;" horiz-adv-x="683" 
d="M627 780v-780h-171l-252 484l5 -157v-327h-153v780h171l251 -484l-5 157v327h154zM137 950h142l62 -45l62 45h142l-124 -110h-160z" />
    <glyph glyph-name="ncaron" unicode="&#x148;" horiz-adv-x="580" 
d="M532 0h-157v333q0 74 -70 74q-61 0 -93 -50v-357h-158v380l-9 150h141l12 -68q57 81 170 81q84 0 124 -52t40 -132v-359zM83 780h138l72 -83l72 83h138l-134 -184h-152z" />
    <glyph glyph-name="Eng" unicode="&#x14a;" horiz-adv-x="683" 
d="M627 780v-796q0 -197 -199 -197q-62 0 -85 13v129q21 -7 49 -7q33 0 51.5 11.5t24.5 42.5l-264 508l5 -157v-327h-153v780h171l251 -484l-5 157v327h154z" />
    <glyph glyph-name="eng" unicode="&#x14b;" horiz-adv-x="580" 
d="M374 1v332q0 74 -69 74q-61 0 -93 -50v-357h-158v380l-9 150h141l12 -68q57 81 170 81q84 0 124 -52t40 -132v-375q0 -197 -199 -197q-63 0 -86 13v130q14 -7 49 -7q39 0 58.5 16t19.5 62z" />
    <glyph glyph-name="Omacron" unicode="&#x14c;" horiz-adv-x="673" 
d="M336 -13q-153 0 -225 91t-72 292v40q0 201 72 292t225 91q154 0 226 -91t72 -292v-40q0 -201 -72 -292t-226 -91zM332 127h9q72 0 100 59.5t28 183.5v40q0 124 -28 183.5t-100 59.5h-9q-72 0 -100.5 -59.5t-28.5 -183.5v-40q0 -124 28.5 -183.5t100.5 -59.5zM187 847v96
h298v-96h-298z" />
    <glyph glyph-name="omacron" unicode="&#x14d;" horiz-adv-x="556" 
d="M278 -13q-123 0 -185.5 70t-62.5 190v36q0 120 62.5 190t185.5 70q124 0 186 -70t62 -190v-36q0 -120 -62 -190t-186 -70zM278 123q90 0 90 124v36q0 124 -90 124t-90 -124v-36q0 -124 90 -124zM128 619v138h300v-138h-300z" />
    <glyph glyph-name="Obreve" unicode="&#x14e;" horiz-adv-x="673" 
d="M336 -13q-153 0 -225 91t-72 292v40q0 201 72 292t225 91q154 0 226 -91t72 -292v-40q0 -201 -72 -292t-226 -91zM332 127h9q72 0 100 59.5t28 183.5v40q0 124 -28 183.5t-100 59.5h-9q-72 0 -100.5 -59.5t-28.5 -183.5v-40q0 -124 28.5 -183.5t100.5 -59.5zM336 825
q-102 0 -142.5 33.5t-40.5 91.5h109q0 -40 74 -40t74 40h109q0 -58 -40.5 -91.5t-142.5 -33.5z" />
    <glyph glyph-name="obreve" unicode="&#x14f;" horiz-adv-x="556" 
d="M278 -13q-123 0 -185.5 70t-62.5 190v36q0 120 62.5 190t185.5 70q124 0 186 -70t62 -190v-36q0 -120 -62 -190t-186 -70zM278 582q-190 0 -187 198h113q0 -78 74 -78t74 78h113q3 -198 -187 -198zM278 123q90 0 90 124v36q0 124 -90 124t-90 -124v-36q0 -124 90 -124z
" />
    <glyph glyph-name="Ohungarumlaut" unicode="&#x150;" horiz-adv-x="673" 
d="M336 -13q-153 0 -225 91t-72 292v40q0 201 72 292t225 91q154 0 226 -91t72 -292v-40q0 -201 -72 -292t-226 -91zM332 127h9q72 0 100 59.5t28 183.5v40q0 124 -28 183.5t-100 59.5h-9q-72 0 -100.5 -59.5t-28.5 -183.5v-40q0 -124 28.5 -183.5t100.5 -59.5zM229 950h149
l-56 -110h-139zM404 950h149l-64 -110h-139z" />
    <glyph glyph-name="ohungarumlaut" unicode="&#x151;" horiz-adv-x="556" 
d="M278 -13q-123 0 -185.5 70t-62.5 190v36q0 120 62.5 190t185.5 70q124 0 186 -70t62 -190v-36q0 -120 -62 -190t-186 -70zM278 123q90 0 90 124v36q0 124 -90 124t-90 -124v-36q0 -124 90 -124zM203 780h140l-84 -184h-123zM387 780h139l-107 -184h-123z" />
    <glyph glyph-name="OE" unicode="&#x152;" horiz-adv-x="940" 
d="M39 410q0 201 76.5 285.5t251.5 84.5h533v-140h-315v-172h265v-140h-265v-188h315v-140h-533q-175 0 -251.5 84.5t-76.5 285.5v40zM423 640h-47q-97 0 -135 -54t-38 -176v-40q0 -122 38 -176t135 -54h47v500z" />
    <glyph glyph-name="oe" unicode="&#x153;" horiz-adv-x="894" 
d="M864 208h-338q4 -54 29 -77.5t71 -23.5q40 0 64.5 19t24.5 44h149v-4q0 -78 -63.5 -128.5t-175.5 -50.5q-113 0 -176 71q-59 -71 -171 -71q-123 0 -185.5 70t-62.5 190v36q0 120 62.5 190t185.5 70q111 0 171 -72q64 72 170 72q121 0 183 -72t62 -192v-71zM188 247
q0 -124 90 -124t90 124v36q0 124 -90 124t-90 -124v-36zM616 423q-82 0 -89 -101h178q-7 101 -89 101z" />
    <glyph glyph-name="Racute" unicode="&#x154;" horiz-adv-x="623" 
d="M218 280v-280h-162v780h256q43 0 77.5 -5t72 -20t63 -40.5t42 -70t16.5 -104.5v-20q0 -166 -123 -217l123 -303h-175l-107 280h-83zM218 420h101q100 0 100 105v10q0 105 -100 105h-101v-220zM275 950h165l-64 -110h-156z" />
    <glyph glyph-name="racute" unicode="&#x155;" horiz-adv-x="385" 
d="M338 543q11 0 15 -1v-152h-27q-82 0 -114 -46v-344h-158v380l-9 150h141l11 -62q53 75 141 75zM216 780h172l-107 -184h-156z" />
    <glyph glyph-name="Rcommaaccent" unicode="&#x156;" horiz-adv-x="623" 
d="M218 280v-280h-162v780h256q43 0 77.5 -5t72 -20t63 -40.5t42 -70t16.5 -104.5v-20q0 -166 -123 -217l123 -303h-175l-107 280h-83zM218 420h101q100 0 100 105v10q0 105 -100 105h-101v-220zM379 -44v-57q0 -66 -36 -95.5t-111 -29.5v54q67 0 84 36h-79v92h142z" />
    <glyph glyph-name="rcommaaccent" unicode="&#x157;" horiz-adv-x="385" 
d="M338 543q11 0 15 -1v-152h-27q-82 0 -114 -46v-344h-158v380l-9 150h141l11 -62q53 75 141 75zM204 -44v-57q0 -66 -36 -95.5t-111 -29.5v54q67 0 84 36h-79v92h142z" />
    <glyph glyph-name="Rcaron" unicode="&#x158;" horiz-adv-x="623" 
d="M218 280v-280h-162v780h256q43 0 77.5 -5t72 -20t63 -40.5t42 -70t16.5 -104.5v-20q0 -166 -123 -217l123 -303h-175l-107 280h-83zM218 420h101q100 0 100 105v10q0 105 -100 105h-101v-220zM94 950h142l62 -45l62 45h142l-124 -110h-160z" />
    <glyph glyph-name="rcaron" unicode="&#x159;" horiz-adv-x="385" 
d="M338 543q11 0 15 -1v-152h-27q-82 0 -114 -46v-344h-158v380l-9 150h141l11 -62q53 75 141 75zM-7 780h138l72 -83l72 83h138l-134 -184h-152z" />
    <glyph glyph-name="Sacute" unicode="&#x15a;" horiz-adv-x="631" 
d="M290 326q-131 18 -190.5 69t-59.5 155v11q0 107 71.5 169.5t203.5 62.5q143 0 209.5 -65t66.5 -203v-21h-162q0 78 -26 113.5t-87 35.5h-9q-48 0 -75.5 -24t-27.5 -62v-5q0 -46 27.5 -68.5t109.5 -33.5q132 -18 194 -69.5t62 -156.5v-10q0 -113 -73 -175t-209 -62
q-140 0 -210.5 65.5t-70.5 204.5v9h162q0 -139 115 -139h9q54 0 83 25.5t29 66.5v5q0 44 -30.5 67.5t-111.5 34.5zM292 950h165l-64 -110h-156z" />
    <glyph glyph-name="sacute" unicode="&#x15b;" horiz-adv-x="528" 
d="M264 107q71 0 71 52q0 25 -17 37t-62 16q-115 9 -165 42.5t-50 106.5v9q0 87 61 130t162 43q223 0 223 -182v-5h-155q0 67 -68 67q-32 0 -49.5 -13t-17.5 -35q0 -25 16 -36t60 -15q112 -9 166.5 -40.5t54.5 -109.5v-9q0 -84 -58.5 -131t-171.5 -47t-171 48t-58 128v5h157
q0 -61 72 -61zM277 780h172l-107 -184h-156z" />
    <glyph glyph-name="Scircumflex" unicode="&#x15c;" horiz-adv-x="631" 
d="M290 326q-131 18 -190.5 69t-59.5 155v11q0 107 71.5 169.5t203.5 62.5q143 0 209.5 -65t66.5 -203v-21h-162q0 78 -26 113.5t-87 35.5h-9q-48 0 -75.5 -24t-27.5 -62v-5q0 -46 27.5 -68.5t109.5 -33.5q132 -18 194 -69.5t62 -156.5v-10q0 -113 -73 -175t-209 -62
q-140 0 -210.5 65.5t-70.5 204.5v9h162q0 -139 115 -139h9q54 0 83 25.5t29 66.5v5q0 44 -30.5 67.5t-111.5 34.5zM253 840h-142l124 110h160l124 -110h-142l-62 44z" />
    <glyph glyph-name="scircumflex" unicode="&#x15d;" horiz-adv-x="528" 
d="M264 107q71 0 71 52q0 25 -17 37t-62 16q-115 9 -165 42.5t-50 106.5v9q0 87 61 130t162 43q223 0 223 -182v-5h-155q0 67 -68 67q-32 0 -49.5 -13t-17.5 -35q0 -25 16 -36t60 -15q112 -9 166.5 -40.5t54.5 -109.5v-9q0 -84 -58.5 -131t-171.5 -47t-171 48t-58 128v5h157
q0 -61 72 -61zM192 596h-138l134 184h152l134 -184h-138l-72 82z" />
    <glyph glyph-name="Scedilla" unicode="&#x15e;" horiz-adv-x="631" 
d="M209 -190l23 66q27 -17 72 -17q47 0 47 23t-48 23l-38 -5l-15 28l24 61q-240 17 -240 268v9h162q0 -139 115 -139h9q54 0 83 25.5t29 66.5v5q0 44 -30.5 67.5t-111.5 34.5q-131 18 -190.5 69t-59.5 155v11q0 107 71.5 169.5t203.5 62.5q143 0 209.5 -65t66.5 -203v-21
h-162q0 78 -26 113.5t-87 35.5h-9q-48 0 -75.5 -24t-27.5 -62v-5q0 -46 27.5 -68.5t109.5 -33.5q132 -18 194 -69.5t62 -156.5v-10q0 -106 -64.5 -167.5t-186.5 -68.5l-10 -28q45 -3 72.5 -25t27.5 -62q0 -88 -120 -88q-67 0 -107 25z" />
    <glyph glyph-name="scedilla" unicode="&#x15f;" horiz-adv-x="528" 
d="M158 -190l23 66q27 -17 72 -17q47 0 47 23t-48 23l-38 -5l-15 28l24 61q-93 8 -140.5 54.5t-47.5 119.5v5h157q0 -61 72 -61q71 0 71 52q0 25 -17 37t-62 16q-115 9 -165 42.5t-50 106.5v9q0 87 61 130t162 43q223 0 223 -182v-5h-155q0 67 -68 67q-32 0 -49.5 -13
t-17.5 -35q0 -25 16 -36t60 -15q112 -9 166.5 -40.5t54.5 -109.5v-9q0 -78 -50.5 -124t-148.5 -53l-10 -28q45 -3 72.5 -25t27.5 -62q0 -88 -120 -88q-67 0 -107 25z" />
    <glyph glyph-name="Scaron" unicode="&#x160;" horiz-adv-x="631" 
d="M290 326q-131 18 -190.5 69t-59.5 155v11q0 107 71.5 169.5t203.5 62.5q143 0 209.5 -65t66.5 -203v-21h-162q0 78 -26 113.5t-87 35.5h-9q-48 0 -75.5 -24t-27.5 -62v-5q0 -46 27.5 -68.5t109.5 -33.5q132 -18 194 -69.5t62 -156.5v-10q0 -113 -73 -175t-209 -62
q-140 0 -210.5 65.5t-70.5 204.5v9h162q0 -139 115 -139h9q54 0 83 25.5t29 66.5v5q0 44 -30.5 67.5t-111.5 34.5zM111 950h142l62 -45l62 45h142l-124 -110h-160z" />
    <glyph glyph-name="scaron" unicode="&#x161;" horiz-adv-x="528" 
d="M264 107q71 0 71 52q0 25 -17 37t-62 16q-115 9 -165 42.5t-50 106.5v9q0 87 61 130t162 43q223 0 223 -182v-5h-155q0 67 -68 67q-32 0 -49.5 -13t-17.5 -35q0 -25 16 -36t60 -15q112 -9 166.5 -40.5t54.5 -109.5v-9q0 -84 -58.5 -131t-171.5 -47t-171 48t-58 128v5h157
q0 -61 72 -61zM54 780h138l72 -83l72 83h138l-134 -184h-152z" />
    <glyph glyph-name="Tcommaaccent" unicode="&#x162;" horiz-adv-x="557" 
d="M359 640v-640h-162v640h-180v140h523v-140h-181zM349 -44v-57q0 -66 -36 -95.5t-111 -29.5v54q67 0 84 36h-79v92h142z" />
    <glyph glyph-name="tcommaaccent" unicode="&#x163;" horiz-adv-x="431" 
d="M258 530h136v-138h-136v-191q0 -46 19 -62t59 -16q34 0 48 7v-130q-23 -13 -85 -13q-199 0 -199 197v208h-81v138h81v150h158v-150zM309 -44v-57q0 -66 -36 -95.5t-111 -29.5v54q67 0 84 36h-79v92h142z" />
    <glyph glyph-name="Tcaron" unicode="&#x164;" horiz-adv-x="557" 
d="M359 640v-640h-162v640h-180v140h523v-140h-181zM74 950h142l62 -45l62 45h142l-124 -110h-160z" />
    <glyph glyph-name="tcaron" unicode="&#x165;" horiz-adv-x="431" 
d="M258 530h136v-138h-136v-191q0 -46 19 -62t59 -16q34 0 48 7v-130q-23 -13 -85 -13q-199 0 -199 197v208h-81v138h81v150h158v-150zM314 800h96l-26 -204h-70v204z" />
    <glyph glyph-name="Tbar" unicode="&#x166;" horiz-adv-x="557" 
d="M359 640v-177h114v-130h-114v-333h-162v333h-113v130h113v177h-180v140h523v-140h-181z" />
    <glyph glyph-name="tbar" unicode="&#x167;" horiz-adv-x="431" 
d="M258 530h136v-138h-136v-70h96v-114h-96v-7q0 -46 19 -62t59 -16q34 0 48 7v-130q-23 -13 -85 -13q-199 0 -199 197v24h-65v114h65v70h-81v138h81v150h158v-150z" />
    <glyph glyph-name="Utilde" unicode="&#x168;" horiz-adv-x="663" 
d="M431 947h85q0 -62 -29 -90.5t-74 -28.5q-35 0 -84 24t-65 24q-33 0 -33 -33h-85q0 62 29 90.5t74 28.5q35 0 84 -24t65 -24q33 0 33 33zM331 -13q-154 0 -217 63.5t-63 196.5v533h162v-528q0 -65 26 -95t92 -30q67 0 93 30t26 95v528h162v-533q0 -133 -63.5 -196.5
t-217.5 -63.5z" />
    <glyph glyph-name="utilde" unicode="&#x169;" horiz-adv-x="580" 
d="M48 530h157v-333q0 -74 70 -74q59 0 93 50v357h158v-380l9 -150h-141l-12 67q-58 -80 -170 -80q-85 0 -124.5 52t-39.5 132v359zM382 772h105q0 -80 -30.5 -119.5t-80.5 -39.5q-35 0 -86.5 26t-68.5 26q-31 0 -31 -37h-105q0 80 30.5 119.5t80.5 39.5q35 0 86.5 -26
t68.5 -26q31 0 31 37z" />
    <glyph glyph-name="Umacron" unicode="&#x16a;" horiz-adv-x="663" 
d="M331 -13q-154 0 -217 63.5t-63 196.5v533h162v-528q0 -65 26 -95t92 -30q67 0 93 30t26 95v528h162v-533q0 -133 -63.5 -196.5t-217.5 -63.5zM182 847v96h298v-96h-298z" />
    <glyph glyph-name="umacron" unicode="&#x16b;" horiz-adv-x="580" 
d="M48 530h157v-333q0 -74 70 -74q59 0 93 50v357h158v-380l9 -150h-141l-12 67q-58 -80 -170 -80q-85 0 -124.5 52t-39.5 132v359zM136 619v138h300v-138h-300z" />
    <glyph glyph-name="Ubreve" unicode="&#x16c;" horiz-adv-x="663" 
d="M331 825q-102 0 -142.5 33.5t-40.5 91.5h109q0 -40 74 -40t74 40h109q0 -58 -40.5 -91.5t-142.5 -33.5zM331 -13q-154 0 -217 63.5t-63 196.5v533h162v-528q0 -65 26 -95t92 -30q67 0 93 30t26 95v528h162v-533q0 -133 -63.5 -196.5t-217.5 -63.5z" />
    <glyph glyph-name="ubreve" unicode="&#x16d;" horiz-adv-x="580" 
d="M48 530h157v-333q0 -74 70 -74q59 0 93 50v357h158v-380l9 -150h-141l-12 67q-58 -80 -170 -80q-85 0 -124.5 52t-39.5 132v359zM286 582q-190 0 -187 198h113q0 -78 74 -78t74 78h113q3 -198 -187 -198z" />
    <glyph glyph-name="Uring" unicode="&#x16e;" horiz-adv-x="663" 
d="M331 -13q-154 0 -217 63.5t-63 196.5v533h162v-528q0 -65 26 -95t92 -30q67 0 93 30t26 95v528h162v-533q0 -133 -63.5 -196.5t-217.5 -63.5zM226 858q0 44 31 74.5t74 30.5t74 -30.5t31 -74.5t-31 -75t-74 -31t-74 31t-31 75zM280 858q0 -21 15 -36t36 -15t36 15t15 36
t-15 35.5t-36 14.5t-36 -14.5t-15 -35.5z" />
    <glyph glyph-name="uring" unicode="&#x16f;" horiz-adv-x="580" 
d="M48 530h157v-333q0 -74 70 -74q59 0 93 50v357h158v-380l9 -150h-141l-12 67q-58 -80 -170 -80q-85 0 -124.5 52t-39.5 132v359zM181 688q0 44 30.5 74.5t74.5 30.5t74.5 -30.5t30.5 -74.5t-31 -75t-74 -31t-74 31t-31 75zM235 688q0 -21 15 -36t36 -15t36 15t15 36
t-15 35.5t-36 14.5t-36 -14.5t-15 -35.5z" />
    <glyph glyph-name="Uhungarumlaut" unicode="&#x170;" horiz-adv-x="663" 
d="M331 -13q-154 0 -217 63.5t-63 196.5v533h162v-528q0 -65 26 -95t92 -30q67 0 93 30t26 95v528h162v-533q0 -133 -63.5 -196.5t-217.5 -63.5zM399 950h149l-64 -110h-139zM224 950h149l-56 -110h-139z" />
    <glyph glyph-name="uhungarumlaut" unicode="&#x171;" horiz-adv-x="580" 
d="M48 530h157v-333q0 -74 70 -74q59 0 93 50v357h158v-380l9 -150h-141l-12 67q-58 -80 -170 -80q-85 0 -124.5 52t-39.5 132v359zM211 780h140l-84 -184h-123zM395 780h139l-107 -184h-123z" />
    <glyph glyph-name="Uogonek" unicode="&#x172;" horiz-adv-x="663" 
d="M390 -69q0 -16 12 -26t31 -10q24 0 42 11l36 -96q-40 -25 -103 -25t-99 27.5t-36 80.5q0 54 33 95q-139 5 -197 68.5t-58 190.5v533h162v-528q0 -65 26 -95t92 -30q67 0 93 30t26 95v528h162v-533q0 -207 -160 -247q-30 -7 -46 -26t-16 -43z" />
    <glyph glyph-name="uogonek" unicode="&#x173;" horiz-adv-x="580" 
d="M48 530h157v-333q0 -74 70 -74q59 0 93 50v357h158v-380l9 -150q-62 -27 -62 -69q0 -16 12 -26t31 -10q24 0 42 11l36 -96q-40 -25 -103 -25t-99 27.5t-36 80.5q0 58 39 102l-13 72q-58 -80 -170 -80q-85 0 -124.5 52t-39.5 132v359z" />
    <glyph glyph-name="Wcircumflex" unicode="&#x174;" horiz-adv-x="937" 
d="M581 -2l-113 597l-113 -597h-207l-129 782h169l75 -561l105 561h201l105 -561l75 561h169l-129 -782h-208zM406 840h-142l124 110h160l124 -110h-142l-62 44z" />
    <glyph glyph-name="wcircumflex" unicode="&#x175;" horiz-adv-x="766" 
d="M383 365l-74 -365h-199l-91 530h155l40 -359l74 359h189l75 -359l40 359h155l-92 -530h-198zM311 596h-138l134 184h152l134 -184h-138l-72 82z" />
    <glyph glyph-name="Ycircumflex" unicode="&#x176;" horiz-adv-x="625" 
d="M394 239v-239h-162v239l-224 541h177l128 -341l127 341h177zM251 840h-142l124 110h160l124 -110h-142l-62 44z" />
    <glyph glyph-name="ycircumflex" unicode="&#x177;" horiz-adv-x="551" 
d="M277 192l100 338h172l-187 -502l-68 -228h-188l85 228l-186 502h172zM205 596h-138l134 184h152l134 -184h-138l-72 82z" />
    <glyph glyph-name="Ydieresis" unicode="&#x178;" horiz-adv-x="625" 
d="M394 239v-239h-162v239l-224 541h177l128 -341l127 341h177zM467 945v-100h-133v100h133zM292 945v-100h-133v100h133z" />
    <glyph glyph-name="Zacute" unicode="&#x179;" horiz-adv-x="599" 
d="M276 950h165l-64 -110h-156zM40 111l311 532l-143 -3h-158v140h499v-111l-311 -532l143 3h178v-140h-519v111z" />
    <glyph glyph-name="zacute" unicode="&#x17a;" horiz-adv-x="499" 
d="M262 780h172l-107 -184h-156zM24 108l234 287l-110 -3h-114v138h431v-108l-234 -287l110 3h134v-138h-451v108z" />
    <glyph glyph-name="Zdotaccent" unicode="&#x17b;" horiz-adv-x="599" 
d="M366 945v-100h-134v100h134zM40 111l311 532l-143 -3h-158v140h499v-111l-311 -532l143 3h178v-140h-519v111z" />
    <glyph glyph-name="zdotaccent" unicode="&#x17c;" horiz-adv-x="499" 
d="M24 108l234 287l-110 -3h-114v138h431v-108l-234 -287l110 3h134v-138h-451v108zM332 772v-166h-166v166h166z" />
    <glyph glyph-name="Zcaron" unicode="&#x17d;" horiz-adv-x="599" 
d="M95 950h142l62 -45l62 45h142l-124 -110h-160zM40 111l311 532l-143 -3h-158v140h499v-111l-311 -532l143 3h178v-140h-519v111z" />
    <glyph glyph-name="zcaron" unicode="&#x17e;" horiz-adv-x="499" 
d="M39 780h138l72 -83l72 83h138l-134 -184h-152zM24 108l234 287l-110 -3h-114v138h431v-108l-234 -287l110 3h134v-138h-451v108z" />
    <glyph glyph-name="Scommaaccent" unicode="&#x218;" horiz-adv-x="631" 
d="M290 326q-131 18 -190.5 69t-59.5 155v11q0 107 71.5 169.5t203.5 62.5q143 0 209.5 -65t66.5 -203v-21h-162q0 78 -26 113.5t-87 35.5h-9q-48 0 -75.5 -24t-27.5 -62v-5q0 -46 27.5 -68.5t109.5 -33.5q132 -18 194 -69.5t62 -156.5v-10q0 -113 -73 -175t-209 -62
q-140 0 -210.5 65.5t-70.5 204.5v9h162q0 -139 115 -139h9q54 0 83 25.5t29 66.5v5q0 44 -30.5 67.5t-111.5 34.5zM386 -44v-57q0 -66 -36 -95.5t-111 -29.5v54q67 0 84 36h-79v92h142z" />
    <glyph glyph-name="scommaaccent" unicode="&#x219;" horiz-adv-x="528" 
d="M264 107q71 0 71 52q0 25 -17 37t-62 16q-115 9 -165 42.5t-50 106.5v9q0 87 61 130t162 43q223 0 223 -182v-5h-155q0 67 -68 67q-32 0 -49.5 -13t-17.5 -35q0 -25 16 -36t60 -15q112 -9 166.5 -40.5t54.5 -109.5v-9q0 -84 -58.5 -131t-171.5 -47t-171 48t-58 128v5h157
q0 -61 72 -61zM335 -44v-57q0 -66 -36 -95.5t-111 -29.5v54q67 0 84 36h-79v92h142z" />
    <glyph glyph-name="Ymacron" unicode="&#x232;" horiz-adv-x="625" 
d="M394 239v-239h-162v239l-224 541h177l128 -341l127 341h177zM164 847v96h298v-96h-298z" />
    <glyph glyph-name="ymacron" unicode="&#x233;" horiz-adv-x="551" 
d="M277 192l100 338h172l-187 -502l-68 -228h-188l85 228l-186 502h172zM127 619v138h300v-138h-300z" />
    <glyph glyph-name="dotlessj" unicode="&#x237;" horiz-adv-x="268" 
d="M54 1v529h157v-546q0 -197 -198 -197q-63 0 -86 13v129q21 -7 49 -7q39 0 58.5 16.5t19.5 62.5z" />
    <glyph glyph-name="circumflex" unicode="&#x2c6;" horiz-adv-x="500" 
d="M178 596h-138l134 184h152l134 -184h-138l-72 82z" />
    <glyph glyph-name="caron" unicode="&#x2c7;" horiz-adv-x="500" 
d="M40 780h138l72 -83l72 83h138l-134 -184h-152z" />
    <glyph glyph-name="breve" unicode="&#x2d8;" horiz-adv-x="500" 
d="M250 582q-190 0 -187 198h113q0 -78 74 -78t74 78h113q3 -198 -187 -198z" />
    <glyph glyph-name="dotaccent" unicode="&#x2d9;" horiz-adv-x="500" 
d="M333 772v-166h-166v166h166z" />
    <glyph glyph-name="ring" unicode="&#x2da;" horiz-adv-x="500" 
d="M145 688q0 44 30.5 74.5t74.5 30.5t74.5 -30.5t30.5 -74.5t-31 -75t-74 -31t-74 31t-31 75zM199 688q0 -21 15 -36t36 -15t36 15t15 36t-15 35.5t-36 14.5t-36 -14.5t-15 -35.5z" />
    <glyph glyph-name="ogonek" unicode="&#x2db;" horiz-adv-x="602" 
d="M230 -69q0 -16 12 -26t31 -10q24 0 42 11l36 -96q-40 -25 -103 -25t-99 27.5t-36 80.5q0 63 45 108.5t107 64.5l27 -66q-62 -27 -62 -69z" />
    <glyph glyph-name="tilde" unicode="&#x2dc;" horiz-adv-x="500" 
d="M346 772h105q0 -80 -30.5 -119.5t-80.5 -39.5q-35 0 -86.5 26t-68.5 26q-31 0 -31 -37h-105q0 80 30.5 119.5t80.5 39.5q35 0 86.5 -26t68.5 -26q31 0 31 37z" />
    <glyph glyph-name="hungarumlaut" unicode="&#x2dd;" horiz-adv-x="500" 
d="M175 780h140l-84 -184h-123zM359 780h139l-107 -184h-123z" />
    <glyph glyph-name="Bdotaccent" unicode="&#x1e02;" horiz-adv-x="631" 
d="M56 780h256q51 0 91.5 -8.5t79 -30.5t59.5 -66.5t21 -110.5v-20q0 -97 -76 -141q96 -46 96 -159v-20q0 -68 -22.5 -114.5t-63 -69t-82.5 -31.5t-95 -9h-264v780zM325 328h-107v-188h107q40 0 67 20.5t27 69.5v9q0 89 -94 89zM311 640h-93v-171h93q88 0 88 79v13
q0 79 -88 79zM365 945v-100h-134v100h134z" />
    <glyph glyph-name="bdotaccent" unicode="&#x1e03;" horiz-adv-x="574" 
d="M211 800v-315q50 58 136 58q197 0 197 -260v-36q0 -260 -197 -260q-100 0 -151 77l-11 -64h-141l9 150v650h158zM211 173q34 -50 90 -50q85 0 85 124v36q0 124 -85 124q-56 0 -90 -50v-184zM198 945v-100h-134v100h134z" />
    <glyph glyph-name="Ddotaccent" unicode="&#x1e0a;" horiz-adv-x="663" 
d="M624 370q0 -201 -76.5 -285.5t-252.5 -84.5h-239v780h239q176 0 252.5 -84.5t76.5 -285.5v-40zM218 140h68q98 0 135.5 54t37.5 176v40q0 122 -37.5 176t-135.5 54h-68v-500zM380 945v-100h-134v100h134z" />
    <glyph glyph-name="ddotaccent" unicode="&#x1e0b;" horiz-adv-x="582" 
d="M235 543q86 0 136 -58v315h158v-650l9 -150h-142l-11 63q-52 -76 -150 -76q-197 0 -197 260v36q0 260 197 260zM371 357q-34 50 -90 50q-86 0 -86 -124v-36q0 -124 86 -124q56 0 90 50v184zM517 945v-100h-134v100h134z" />
    <glyph glyph-name="Fdotaccent" unicode="&#x1e1e;" horiz-adv-x="549" 
d="M56 780h473v-140h-311v-172h261v-140h-261v-328h-162v780zM363 945v-100h-134v100h134z" />
    <glyph glyph-name="fdotaccent" unicode="&#x1e1f;" horiz-adv-x="411" 
d="M258 599v-69h116v-138h-116v-392h-158v392h-81v138h81v86q0 197 199 197q62 0 85 -13v-130q-14 7 -48 7q-40 0 -59 -16t-19 -62zM311 945v-100h-134v100h134z" />
    <glyph glyph-name="Mdotaccent" unicode="&#x1e40;" horiz-adv-x="869" 
d="M656 499l-139 -499h-165l-139 499l5 -156v-343h-162v780h239l140 -499l139 499h240v-780h-162v343zM502 945v-100h-134v100h134z" />
    <glyph glyph-name="mdotaccent" unicode="&#x1e41;" horiz-adv-x="863" 
d="M815 0h-157v340q0 67 -63 67q-51 0 -82 -46v-361h-157v340q0 67 -63 67q-52 0 -81 -46v-361h-158v380l-9 150h141l11 -64q55 77 159 77q101 0 139 -82q56 82 163 82q79 0 118 -49t39 -129v-365zM518 772v-166h-166v166h166z" />
    <glyph glyph-name="Pdotaccent" unicode="&#x1e56;" horiz-adv-x="609" 
d="M218 280v-280h-162v780h256q43 0 77.5 -5t72 -20t63 -40.5t42 -70t16.5 -104.5v-20q0 -74 -23.5 -124.5t-65.5 -74t-84.5 -32.5t-97.5 -9h-94zM218 420h101q100 0 100 105v10q0 105 -100 105h-101v-220zM360 945v-100h-134v100h134z" />
    <glyph glyph-name="pdotaccent" unicode="&#x1e57;" horiz-adv-x="574" 
d="M347 -13q-86 0 -136 58v-245h-158v580l-9 150h141l11 -65q52 78 151 78q197 0 197 -260v-36q0 -260 -197 -260zM211 357v-184q34 -50 90 -50q85 0 85 124v36q0 124 -85 124q-56 0 -90 -50zM381 772v-166h-166v166h166z" />
    <glyph glyph-name="Tdotaccent" unicode="&#x1e6a;" horiz-adv-x="557" 
d="M359 640v-640h-162v640h-180v140h523v-140h-181zM345 945v-100h-134v100h134z" />
    <glyph glyph-name="tdotaccent" unicode="&#x1e6b;" horiz-adv-x="431" 
d="M258 530h136v-138h-136v-191q0 -46 19 -62t59 -16q34 0 48 7v-130q-23 -13 -85 -13q-199 0 -199 197v208h-81v138h81v150h158v-150zM246 825v-100h-134v100h134z" />
    <glyph glyph-name="Wgrave" unicode="&#x1e80;" horiz-adv-x="937" 
d="M581 -2l-113 597l-113 -597h-207l-129 782h169l75 -561l105 561h201l105 -561l75 561h169l-129 -782h-208zM326 950h165l55 -110h-156z" />
    <glyph glyph-name="wgrave" unicode="&#x1e81;" horiz-adv-x="766" 
d="M383 365l-74 -365h-199l-91 530h155l40 -359l74 359h189l75 -359l40 359h155l-92 -530h-198zM198 780h172l91 -184h-156z" />
    <glyph glyph-name="Wacute" unicode="&#x1e82;" horiz-adv-x="937" 
d="M581 -2l-113 597l-113 -597h-207l-129 782h169l75 -561l105 561h201l105 -561l75 561h169l-129 -782h-208zM445 950h165l-64 -110h-156z" />
    <glyph glyph-name="wacute" unicode="&#x1e83;" horiz-adv-x="766" 
d="M383 365l-74 -365h-199l-91 530h155l40 -359l74 359h189l75 -359l40 359h155l-92 -530h-198zM396 780h172l-107 -184h-156z" />
    <glyph glyph-name="Wdieresis" unicode="&#x1e84;" horiz-adv-x="937" 
d="M581 -2l-113 597l-113 -597h-207l-129 782h169l75 -561l105 561h201l105 -561l75 561h169l-129 -782h-208zM447 945v-100h-133v100h133zM622 945v-100h-133v100h133z" />
    <glyph glyph-name="wdieresis" unicode="&#x1e85;" horiz-adv-x="766" 
d="M383 365l-74 -365h-199l-91 530h155l40 -359l74 359h189l75 -359l40 359h155l-92 -530h-198zM358 772v-166h-165v166h165zM573 772v-166h-165v166h165z" />
    <glyph glyph-name="Eszett" unicode="&#x1e9e;" horiz-adv-x="805" 
d="M304 458l122 193q-28 2 -40 2q-173 0 -173 -125v-528h-162v533q0 129 81.5 194.5t253.5 65.5q128 0 221 -37v-111l-113 -181l31 -4q131 -17 193.5 -69t62.5 -157v-10q0 -113 -65.5 -175t-187.5 -62q-132 0 -193 61.5t-61 208.5v9h162q0 -139 90 -139h9q37 0 59.5 24
t22.5 68v5q0 87 -120 100l-193 23v111z" />
    <glyph glyph-name="Ygrave" unicode="&#x1ef2;" horiz-adv-x="625" 
d="M394 239v-239h-162v239l-224 541h177l128 -341l127 341h177zM171 950h165l55 -110h-156z" />
    <glyph glyph-name="ygrave" unicode="&#x1ef3;" horiz-adv-x="551" 
d="M277 192l100 338h172l-187 -502l-68 -228h-188l85 228l-186 502h172zM92 780h172l91 -184h-156z" />
    <glyph glyph-name="enspace" unicode="&#x2002;" horiz-adv-x="500" 
 />
    <glyph glyph-name="emspace" unicode="&#x2003;" horiz-adv-x="1000" 
 />
    <glyph glyph-name="threeperemspace" unicode="&#x2004;" horiz-adv-x="333" 
 />
    <glyph glyph-name="fourperemspace" unicode="&#x2005;" horiz-adv-x="250" 
 />
    <glyph glyph-name="sixperemspace" unicode="&#x2006;" horiz-adv-x="167" 
 />
    <glyph glyph-name="figurespace" unicode="&#x2007;" horiz-adv-x="600" 
 />
    <glyph glyph-name="punctuationspace" unicode="&#x2008;" horiz-adv-x="180" 
 />
    <glyph glyph-name="thinspace" unicode="&#x2009;" horiz-adv-x="150" 
 />
    <glyph glyph-name="hairspace" unicode="&#x200a;" horiz-adv-x="50" 
 />
    <glyph glyph-name="zerowidthspace" unicode="&#x200b;" horiz-adv-x="0" 
 />
    <glyph glyph-name="figuredash" unicode="&#x2012;" horiz-adv-x="600" 
d="M40 281v138h520v-138h-520z" />
    <glyph glyph-name="endash" unicode="&#x2013;" horiz-adv-x="500" 
d="M40 281v138h420v-138h-420z" />
    <glyph glyph-name="emdash" unicode="&#x2014;" horiz-adv-x="1000" 
d="M40 281v138h920v-138h-920z" />
    <glyph glyph-name="uni2015" unicode="&#x2015;" horiz-adv-x="1200" 
d="M40 281v138h1120v-138h-1120z" />
    <glyph glyph-name="doublebar" unicode="&#x2016;" horiz-adv-x="459" 
d="M54 -120v960h154v-960h-154zM251 -120v960h154v-960h-154z" />
    <glyph glyph-name="quoteleft" unicode="&#x2018;" horiz-adv-x="266" 
d="M50 496v132q0 178 171 178v-79q-75 0 -90 -64h85v-167h-166z" />
    <glyph glyph-name="quoteright" unicode="&#x2019;" horiz-adv-x="266" 
d="M216 780v-132q0 -178 -171 -178v79q74 0 89 64h-84v167h166z" />
    <glyph glyph-name="quotesinglbase" unicode="&#x201a;" horiz-adv-x="266" 
d="M216 167v-132q0 -178 -171 -178v79q74 0 89 64h-84v167h166z" />
    <glyph glyph-name="reversequoteleft" unicode="&#x201b;" horiz-adv-x="266" 
d="M50 780h166v-167h-85q15 -64 90 -64v-79q-171 0 -171 178v132z" />
    <glyph glyph-name="quotedblleft" unicode="&#x201c;" horiz-adv-x="486" 
d="M50 496v132q0 178 171 178v-79q-75 0 -90 -64h85v-167h-166zM270 496v132q0 178 171 178v-79q-75 0 -90 -64h85v-167h-166z" />
    <glyph glyph-name="quotedblright" unicode="&#x201d;" horiz-adv-x="486" 
d="M216 780v-132q0 -178 -171 -178v79q74 0 89 64h-84v167h166zM436 780v-132q0 -178 -171 -178v79q74 0 89 64h-84v167h166z" />
    <glyph glyph-name="quotedblbase" unicode="&#x201e;" horiz-adv-x="486" 
d="M216 167v-132q0 -178 -171 -178v79q74 0 89 64h-84v167h166zM436 167v-132q0 -178 -171 -178v79q74 0 89 64h-84v167h166z" />
    <glyph glyph-name="reversequotedblleft" unicode="&#x201f;" horiz-adv-x="486" 
d="M50 780h166v-167h-85q15 -64 90 -64v-79q-171 0 -171 178v132zM270 780h166v-167h-85q15 -64 90 -64v-79q-171 0 -171 178v132z" />
    <glyph glyph-name="dagger" unicode="&#x2020;" horiz-adv-x="413" 
d="M162 437l5 129h79l5 -129l-5 -130h-79zM162 800h89l-5 -134h-79zM24 572v88l132 -5v-78zM388 660v-88l-131 5v78z" />
    <glyph glyph-name="daggerdbl" unicode="&#x2021;" horiz-adv-x="413" 
d="M162 202l5 129h79l5 -129l-5 -129h-79zM162 800h89l-5 -134h-79zM162 499l5 67h79l5 -67l-5 -67h-79zM24 337v89l132 -5v-79zM388 426v-89l-131 5v79zM24 572v88l132 -5v-78zM388 660v-88l-131 5v78z" />
    <glyph glyph-name="bullet" unicode="&#x2022;" horiz-adv-x="445" 
d="M383 511v-322h-321v322h321z" />
    <glyph glyph-name="ellipsis" unicode="&#x2026;" horiz-adv-x="1000" 
d="M263 167v-167h-166v167h166zM583 167v-167h-166v167h166zM903 167v-167h-166v167h166z" />
    <glyph glyph-name="perthousand" unicode="&#x2030;" horiz-adv-x="1401" 
d="M575 187q0 89 52.5 139t137.5 50q84 0 136.5 -50t52.5 -139v-12q0 -89 -52.5 -138.5t-136.5 -49.5q-85 0 -137.5 49.5t-52.5 138.5v12zM995 187q0 89 52.5 139t137.5 50q84 0 136.5 -50t52.5 -139v-12q0 -89 -52.5 -138.5t-136.5 -49.5q-85 0 -137.5 49.5t-52.5 138.5v12
zM692 175q0 -32 19.5 -51.5t50.5 -19.5h6q31 0 50 19.5t19 51.5v13q0 32 -19 51t-50 19h-6q-32 0 -51 -19t-19 -51v-13zM1112 175q0 -32 19.5 -51.5t50.5 -19.5h6q31 0 50 19.5t19 51.5v13q0 32 -19 51t-50 19h-6q-32 0 -51 -19t-19 -51v-13zM289 605q0 32 -19 51.5
t-50 19.5h-6q-31 0 -50.5 -19.5t-19.5 -51.5v-13q0 -32 19 -51t51 -19h6q31 0 50 19t19 51v13zM296 779q76 -28 185 -28q118 0 211 32v-75l-295 -708h-138l264 633q-37 -8 -71 -8q-24 0 -47 3q0 -3 0.5 -11t0.5 -12v-12q0 -89 -52.5 -139t-136.5 -50q-85 0 -137.5 50
t-52.5 139v12q0 89 52.5 138.5t137.5 49.5q42 0 79 -14z" />
    <glyph glyph-name="tripleprime" unicode="&#x2034;" horiz-adv-x="628" 
d="M426 780h155l-25 -323h-122zM47 780h155l-9 -323h-121zM245 780h138l-8 -323h-122z" />
    <glyph glyph-name="guilsinglleft" unicode="&#x2039;" horiz-adv-x="316" 
d="M266 563v-139l-109 -84l109 -84v-139l-216 147v152z" />
    <glyph glyph-name="guilsinglright" unicode="&#x203a;" horiz-adv-x="316" 
d="M50 424v139l216 -147v-152l-216 -147v139l109 84z" />
    <glyph glyph-name="interrobang" unicode="&#x203d;" horiz-adv-x="497" 
d="M300 228h-86l-9 416q-41 -23 -41 -128h-143v18q0 130 53.5 194.5t178.5 64.5q121 0 173.5 -57t52.5 -144q0 -56 -17 -96t-42 -65.5t-50.5 -49.5t-45.5 -62.5t-24 -90.5zM338 167v-167h-166v167h166zM328 575q0 53 -37 71l-3 -175q40 70 40 104z" />
    <glyph glyph-name="fraction" unicode="&#x2044;" horiz-adv-x="200" 
d="M-121 0h-134l576 780h134z" />
    <glyph glyph-name="uni2070" unicode="&#x2070;" 
d="M287 494q0 -52 -37 -84.5t-100 -32.5t-100 32.5t-37 84.5v182q0 52 37 84.5t100 32.5t100 -32.5t37 -84.5v-182zM133 496q0 -15 15 -15h4q15 0 15 15v178q0 15 -15 15h-4q-15 0 -15 -15v-178z" />
    <glyph glyph-name="uni2074" unicode="&#x2074;" 
d="M257 390h-120v68h-127v92l126 230h121v-218h32v-104h-32v-68zM137 619l-31 -57h31v57z" />
    <glyph glyph-name="uni2075" unicode="&#x2075;" 
d="M11 515h120q0 -34 16 -34h4q18 0 18 30v5q0 30 -24 30h-1q-13 0 -24 -11l-104 35l9 210h256v-104h-157l-2 -39q25 7 46 7q58 0 89 -34t31 -91v-12q0 -63 -36.5 -96.5t-101.5 -33.5q-64 0 -101.5 35.5t-37.5 94.5v8z" />
    <glyph glyph-name="uni2076" unicode="&#x2076;" 
d="M278 793v-104q-84 0 -119 -35q-10 -10 -18 -31q21 13 45 13q46 0 74 -32.5t28 -90.5v-5q0 -58 -35 -94.5t-104 -36.5q-68 0 -103 44.5t-35 111.5v9q0 105 57 177q60 74 210 74zM148 533q-9 0 -17 -11v-2q0 -39 17 -39h4q6 0 11.5 7t5.5 18v5q0 10 -5.5 16t-11.5 6h-4z
" />
    <glyph glyph-name="uni2077" unicode="&#x2077;" 
d="M8 640v140h284v-74l-128 -316h-128l124 286h-48v-36h-104z" />
    <glyph glyph-name="uni2078" unicode="&#x2078;" 
d="M150 377q-63 0 -100.5 31.5t-37.5 83.5v11q0 58 49 86q-45 28 -45 85v10q0 38 31 73.5t103 35.5t103 -35.5t31 -73.5v-10q0 -57 -45 -85q49 -28 49 -86v-11q0 -52 -37.5 -83.5t-100.5 -31.5zM148 537q-17 0 -17 -27v-4q0 -27 17 -27h4q17 0 17 27v4q0 27 -17 27h-4z
M151 641q13 0 13 23v4q0 23 -13 23h-2q-13 0 -13 -23v-4q0 -23 13 -23h2z" />
    <glyph glyph-name="uni2079" unicode="&#x2079;" 
d="M22 377v104q84 0 119 35q10 10 18 31q-21 -13 -45 -13q-46 0 -74 32.5t-28 90.5v5q0 58 35 94.5t104 36.5q68 0 103 -44.5t35 -111.5v-9q0 -105 -57 -177q-60 -74 -210 -74zM148 637h4q9 0 17 11v2q0 39 -17 39h-4q-6 0 -11.5 -7t-5.5 -18v-5q0 -10 5.5 -16t11.5 -6z" />
    <glyph glyph-name="uni207A" unicode="&#x207a;" 
d="M98 717h104v-80h80v-104h-80v-80h-104v80h-80v104h80v80z" />
    <glyph glyph-name="uni207B" unicode="&#x207b;" 
d="M18 533v104h264v-104h-264z" />
    <glyph glyph-name="uni207C" unicode="&#x207c;" 
d="M18 594v104h264v-104h-264zM18 472v104h264v-104h-264z" />
    <glyph glyph-name="uni207D" unicode="&#x207d;" horiz-adv-x="205" 
d="M15 580v10q0 127 59 190h123q-63 -91 -63 -190v-10q0 -99 63 -190h-123q-59 61 -59 190z" />
    <glyph glyph-name="uni207E" unicode="&#x207e;" horiz-adv-x="205" 
d="M189 590v-10q0 -129 -59 -190h-122q62 89 62 190v10q0 101 -62 190h122q59 -63 59 -190z" />
    <glyph glyph-name="uni2080" unicode="&#x2080;" 
d="M287 104q0 -52 -37 -84.5t-100 -32.5t-100 32.5t-37 84.5v182q0 52 37 84.5t100 32.5t100 -32.5t37 -84.5v-182zM133 106q0 -15 15 -15h4q15 0 15 15v178q0 15 -15 15h-4q-15 0 -15 -15v-178z" />
    <glyph glyph-name="uni2081" unicode="&#x2081;" 
d="M290 0h-263v103h72v142l-35 -23l-59 85l124 84h90v-288h71v-103z" />
    <glyph glyph-name="uni2082" unicode="&#x2082;" 
d="M284 103v-103h-271v76l138 153q13 15 13 32v11q0 27 -14 27h-3q-14 0 -14 -39h-120v15q0 51 31 89.5t105 38.5q73 0 104 -37t31 -79v-18q0 -30 -10 -50t-33 -47l-62 -69h105z" />
    <glyph glyph-name="uni2083" unicode="&#x2083;" 
d="M131 125q0 -34 18 -34h3q6 0 11.5 8t5.5 22v5q0 25 -19 25h-50v96h49q15 0 15 25v2q0 7 -3.5 16t-10.5 9h-3q-14 0 -14 -39h-120v9q0 55 30.5 94.5t105.5 39.5q72 0 103.5 -35.5t31.5 -73.5v-10q0 -59 -48 -85q52 -29 52 -87v-10q0 -52 -37.5 -83.5t-100.5 -31.5
q-64 0 -101.5 35.5t-37.5 94.5v8h120z" />
    <glyph glyph-name="uni2084" unicode="&#x2084;" 
d="M257 0h-120v68h-127v92l126 230h121v-218h32v-104h-32v-68zM137 229l-31 -57h31v57z" />
    <glyph glyph-name="uni2085" unicode="&#x2085;" 
d="M11 125h120q0 -34 16 -34h4q18 0 18 30v5q0 30 -24 30h-1q-13 0 -24 -11l-104 35l9 210h256v-104h-157l-2 -39q25 7 46 7q58 0 89 -34t31 -91v-12q0 -63 -36.5 -96.5t-101.5 -33.5q-64 0 -101.5 35.5t-37.5 94.5v8z" />
    <glyph glyph-name="uni2086" unicode="&#x2086;" 
d="M278 403v-104q-84 0 -119 -35q-10 -10 -18 -31q21 13 45 13q46 0 74 -32.5t28 -90.5v-5q0 -58 -35 -94.5t-104 -36.5q-68 0 -103 44.5t-35 111.5v9q0 105 57 177q60 74 210 74zM148 143q-9 0 -17 -11v-2q0 -39 17 -39h4q6 0 11.5 7t5.5 18v5q0 10 -5.5 16t-11.5 6h-4z
" />
    <glyph glyph-name="uni2087" unicode="&#x2087;" 
d="M8 250v140h284v-74l-128 -316h-128l124 286h-48v-36h-104z" />
    <glyph glyph-name="uni2088" unicode="&#x2088;" 
d="M150 -13q-63 0 -100.5 31.5t-37.5 83.5v11q0 58 49 86q-45 28 -45 85v10q0 38 31 73.5t103 35.5t103 -35.5t31 -73.5v-10q0 -57 -45 -85q49 -28 49 -86v-11q0 -52 -37.5 -83.5t-100.5 -31.5zM148 147q-17 0 -17 -27v-4q0 -27 17 -27h4q17 0 17 27v4q0 27 -17 27h-4z
M151 251q13 0 13 23v4q0 23 -13 23h-2q-13 0 -13 -23v-4q0 -23 13 -23h2z" />
    <glyph glyph-name="uni2089" unicode="&#x2089;" 
d="M22 -13v104q84 0 119 35q10 10 18 31q-21 -13 -45 -13q-46 0 -74 32.5t-28 90.5v5q0 58 35 94.5t104 36.5q68 0 103 -44.5t35 -111.5v-9q0 -105 -57 -177q-60 -74 -210 -74zM148 247h4q9 0 17 11v2q0 39 -17 39h-4q-6 0 -11.5 -7t-5.5 -18v-5q0 -10 5.5 -16t11.5 -6z" />
    <glyph glyph-name="uni208A" unicode="&#x208a;" 
d="M98 327h104v-80h80v-104h-80v-80h-104v80h-80v104h80v80z" />
    <glyph glyph-name="uni208B" unicode="&#x208b;" 
d="M18 143v104h264v-104h-264z" />
    <glyph glyph-name="uni208C" unicode="&#x208c;" 
d="M18 204v104h264v-104h-264zM18 82v104h264v-104h-264z" />
    <glyph glyph-name="uni208D" unicode="&#x208d;" horiz-adv-x="205" 
d="M15 190v10q0 127 59 190h123q-63 -91 -63 -190v-10q0 -99 63 -190h-123q-59 61 -59 190z" />
    <glyph glyph-name="uni208E" unicode="&#x208e;" horiz-adv-x="205" 
d="M189 200v-10q0 -129 -59 -190h-122q62 89 62 190v10q0 101 -62 190h122q59 -63 59 -190z" />
    <glyph glyph-name="Euro" unicode="&#x20ac;" horiz-adv-x="600" 
d="M97 309h-66v141h65q6 178 67.5 260.5t181.5 82.5q114 0 165.5 -61t51.5 -195v-37h-138q0 80 -16 116t-54 36h-9q-77 0 -83 -202h203l-69 -141h-133q9 -181 82 -181h9q70 0 70 122h138v-9q0 -133 -51.5 -193.5t-165.5 -60.5q-116 0 -177.5 77.5t-70.5 244.5z" />
    <glyph glyph-name="ruble" unicode="&#x20bd;" horiz-adv-x="600" 
d="M249 280v-38h187v-141h-187v-101h-162v101h-70v141h70v38h-70v140h70v360h208q43 0 77.5 -5t72 -20t63 -40.5t42 -70t16.5 -104.5v-20q0 -74 -23.5 -124.5t-65.5 -74t-84.5 -32.5t-97.5 -9h-46zM249 420h53q100 0 100 105v10q0 105 -100 105h-53v-220z" />
    <glyph glyph-name="numero" unicode="&#x2116;" horiz-adv-x="1126" 
d="M627 780v-780h-171l-252 484l5 -157v-327h-153v780h171l251 -484l-5 157v327h154zM1095 570q0 -90 -48 -141.5t-143 -51.5t-142.5 51.5t-47.5 141.5v30q0 90 47.5 142t142.5 52t143 -52t48 -142v-30zM723 181v119h363v-119h-363zM851 570q0 -75 53 -75q54 0 54 75v30
q0 76 -54 76q-53 0 -53 -76v-30z" />
    <glyph glyph-name="published" unicode="&#x2117;" horiz-adv-x="920" 
d="M57 390q0 167 118 285t285 118t285 -118t118 -285t-118 -285t-285 -118t-285 118t-118 285zM113 390q0 -144 101.5 -245.5t245.5 -101.5t245.5 101.5t101.5 245.5t-101.5 245.5t-245.5 101.5t-245.5 -101.5t-101.5 -245.5zM414 307v-152h-140v470h243q32 0 58.5 -6.5
t51.5 -22.5t39.5 -47.5t14.5 -76.5v-12q0 -45 -14.5 -76.5t-39.5 -47.5t-51.5 -22.5t-58.5 -6.5h-103zM414 411h71q54 0 54 52v6q0 52 -54 52h-71v-110z" />
    <glyph glyph-name="servicemark" unicode="&#x2120;" horiz-adv-x="559" 
d="M103 638q-47 6 -67.5 24.5t-20.5 57.5v4q0 39 25.5 62t73.5 23q99 0 99 -100v-7h-63q0 26 -8 38t-28 12h-4q-14 0 -22 -7t-8 -18v-2q0 -14 10 -21t35 -11q47 -6 68.5 -24.5t21.5 -57.5v-5q0 -40 -26 -63t-75 -23q-101 0 -101 101v2h63q0 -47 38 -47h3q32 0 32 28v2
q0 14 -9.5 21t-36.5 11zM454 691l-41 -161h-68l-41 161l2 -60v-101h-64v270h95l42 -159l41 159h96v-270h-64v101z" />
    <glyph glyph-name="trademark" unicode="&#x2122;" horiz-adv-x="559" 
d="M147 744v-214h-64v214h-66v56h197v-56h-67zM454 691l-41 -161h-68l-41 161l2 -60v-101h-64v270h95l42 -159l41 159h96v-270h-64v101z" />
    <glyph glyph-name="uni2153" unicode="&#x2153;" horiz-adv-x="800" 
d="M179 0h-134l576 780h134zM631 125q0 -34 18 -34h3q6 0 11.5 8t5.5 22v5q0 25 -19 25h-50v96h49q15 0 15 25v2q0 7 -3.5 16t-10.5 9h-3q-14 0 -14 -39h-120v9q0 55 30.5 94.5t105.5 39.5q72 0 103.5 -35.5t31.5 -73.5v-10q0 -59 -48 -85q52 -29 52 -87v-10
q0 -52 -37.5 -83.5t-100.5 -31.5q-64 0 -101.5 35.5t-37.5 94.5v8h120zM290 390h-263v103h72v142l-35 -23l-59 85l124 84h90v-288h71v-103z" />
    <glyph glyph-name="uni2154" unicode="&#x2154;" horiz-adv-x="800" 
d="M179 0h-134l576 780h134zM631 125q0 -34 18 -34h3q6 0 11.5 8t5.5 22v5q0 25 -19 25h-50v96h49q15 0 15 25v2q0 7 -3.5 16t-10.5 9h-3q-14 0 -14 -39h-120v9q0 55 30.5 94.5t105.5 39.5q72 0 103.5 -35.5t31.5 -73.5v-10q0 -59 -48 -85q52 -29 52 -87v-10
q0 -52 -37.5 -83.5t-100.5 -31.5q-64 0 -101.5 35.5t-37.5 94.5v8h120zM284 493v-103h-271v76l138 153q13 15 13 32v11q0 27 -14 27h-3q-14 0 -14 -39h-120v15q0 51 31 89.5t105 38.5q73 0 104 -37t31 -79v-18q0 -30 -10 -50t-33 -47l-62 -69h105z" />
    <glyph glyph-name="uni2155" unicode="&#x2155;" horiz-adv-x="800" 
d="M179 0h-134l576 780h134zM511 125h120q0 -34 16 -34h4q18 0 18 30v5q0 30 -24 30h-1q-13 0 -24 -11l-104 35l9 210h256v-104h-157l-2 -39q24 7 46 7q58 0 89 -34t31 -91v-12q0 -63 -36.5 -96.5t-101.5 -33.5q-64 0 -101.5 35.5t-37.5 94.5v8zM290 390h-263v103h72v142
l-35 -23l-59 85l124 84h90v-288h71v-103z" />
    <glyph glyph-name="uni2156" unicode="&#x2156;" horiz-adv-x="800" 
d="M179 0h-134l576 780h134zM511 125h120q0 -34 16 -34h4q18 0 18 30v5q0 30 -24 30h-1q-13 0 -24 -11l-104 35l9 210h256v-104h-157l-2 -39q24 7 46 7q58 0 89 -34t31 -91v-12q0 -63 -36.5 -96.5t-101.5 -33.5q-64 0 -101.5 35.5t-37.5 94.5v8zM284 493v-103h-271v76
l138 153q13 15 13 32v11q0 27 -14 27h-3q-14 0 -14 -39h-120v15q0 51 31 89.5t105 38.5q73 0 104 -37t31 -79v-18q0 -30 -10 -50t-33 -47l-62 -69h105z" />
    <glyph glyph-name="uni2157" unicode="&#x2157;" horiz-adv-x="800" 
d="M179 0h-134l576 780h134zM511 125h120q0 -34 16 -34h4q18 0 18 30v5q0 30 -24 30h-1q-13 0 -24 -11l-104 35l9 210h256v-104h-157l-2 -39q24 7 46 7q58 0 89 -34t31 -91v-12q0 -63 -36.5 -96.5t-101.5 -33.5q-64 0 -101.5 35.5t-37.5 94.5v8zM131 515q0 -34 18 -34h3
q6 0 11.5 8t5.5 22v5q0 25 -19 25h-50v96h49q15 0 15 25v2q0 7 -3.5 16t-10.5 9h-3q-14 0 -14 -39h-120v9q0 55 30.5 94.5t105.5 39.5q72 0 103.5 -35.5t31.5 -73.5v-10q0 -59 -48 -85q52 -29 52 -87v-10q0 -52 -37.5 -83.5t-100.5 -31.5q-64 0 -101.5 35.5t-37.5 94.5v8
h120z" />
    <glyph glyph-name="uni2158" unicode="&#x2158;" horiz-adv-x="800" 
d="M179 0h-134l576 780h134zM511 125h120q0 -34 16 -34h4q18 0 18 30v5q0 30 -24 30h-1q-13 0 -24 -11l-104 35l9 210h256v-104h-157l-2 -39q24 7 46 7q58 0 89 -34t31 -91v-12q0 -63 -36.5 -96.5t-101.5 -33.5q-64 0 -101.5 35.5t-37.5 94.5v8zM257 390h-120v68h-127v92
l126 230h121v-218h32v-104h-32v-68zM137 619l-31 -57h31v57z" />
    <glyph glyph-name="uni2159" unicode="&#x2159;" horiz-adv-x="800" 
d="M179 0h-134l576 780h134zM778 403v-104q-84 0 -119 -35q-10 -10 -18 -31q21 13 45 13q46 0 74 -32.5t28 -90.5v-5q0 -58 -35 -94.5t-104 -36.5q-68 0 -103 44.5t-35 111.5v9q0 105 57 177q60 74 210 74zM290 390h-263v103h72v142l-35 -23l-59 85l124 84h90v-288h71v-103z
M648 143q-9 0 -17 -11v-2q0 -39 17 -39h4q6 0 11.5 7t5.5 18v5q0 10 -5.5 16t-11.5 6h-4z" />
    <glyph glyph-name="uni215A" unicode="&#x215a;" horiz-adv-x="800" 
d="M179 0h-134l576 780h134zM11 515h120q0 -34 16 -34h4q18 0 18 30v5q0 30 -24 30h-1q-13 0 -24 -11l-104 35l9 210h256v-104h-157l-2 -39q25 7 46 7q58 0 89 -34t31 -91v-12q0 -63 -36.5 -96.5t-101.5 -33.5q-64 0 -101.5 35.5t-37.5 94.5v8zM778 403v-104q-84 0 -119 -35
q-10 -10 -18 -31q21 13 45 13q46 0 74 -32.5t28 -90.5v-5q0 -58 -35 -94.5t-104 -36.5q-68 0 -103 44.5t-35 111.5v9q0 105 57 177q60 74 210 74zM648 143q-9 0 -17 -11v-2q0 -39 17 -39h4q6 0 11.5 7t5.5 18v5q0 10 -5.5 16t-11.5 6h-4z" />
    <glyph glyph-name="uni215B" unicode="&#x215b;" horiz-adv-x="800" 
d="M179 0h-134l576 780h134zM650 -13q-63 0 -100.5 31.5t-37.5 83.5v11q0 58 49 86q-45 28 -45 85v10q0 38 31 73.5t103 35.5t103 -35.5t31 -73.5v-10q0 -57 -45 -85q49 -28 49 -86v-11q0 -52 -37.5 -83.5t-100.5 -31.5zM290 390h-263v103h72v142l-35 -23l-59 85l124 84h90
v-288h71v-103zM648 147q-17 0 -17 -27v-4q0 -27 17 -27h4q17 0 17 27v4q0 27 -17 27h-4zM651 251q13 0 13 23v4q0 23 -13 23h-2q-13 0 -13 -23v-4q0 -23 13 -23h2z" />
    <glyph glyph-name="uni215C" unicode="&#x215c;" horiz-adv-x="800" 
d="M179 0h-134l576 780h134zM650 -13q-63 0 -100.5 31.5t-37.5 83.5v11q0 58 49 86q-45 28 -45 85v10q0 38 31 73.5t103 35.5t103 -35.5t31 -73.5v-10q0 -57 -45 -85q49 -28 49 -86v-11q0 -52 -37.5 -83.5t-100.5 -31.5zM131 515q0 -34 18 -34h3q6 0 11.5 8t5.5 22v5
q0 25 -19 25h-50v96h49q15 0 15 25v2q0 7 -3.5 16t-10.5 9h-3q-14 0 -14 -39h-120v9q0 55 30.5 94.5t105.5 39.5q72 0 103.5 -35.5t31.5 -73.5v-10q0 -59 -48 -85q52 -29 52 -87v-10q0 -52 -37.5 -83.5t-100.5 -31.5q-64 0 -101.5 35.5t-37.5 94.5v8h120zM648 147
q-17 0 -17 -27v-4q0 -27 17 -27h4q17 0 17 27v4q0 27 -17 27h-4zM651 251q13 0 13 23v4q0 23 -13 23h-2q-13 0 -13 -23v-4q0 -23 13 -23h2z" />
    <glyph glyph-name="uni215D" unicode="&#x215d;" horiz-adv-x="800" 
d="M179 0h-134l576 780h134zM650 -13q-63 0 -100.5 31.5t-37.5 83.5v11q0 58 49 86q-45 28 -45 85v10q0 38 31 73.5t103 35.5t103 -35.5t31 -73.5v-10q0 -57 -45 -85q49 -28 49 -86v-11q0 -52 -37.5 -83.5t-100.5 -31.5zM11 515h120q0 -34 16 -34h4q18 0 18 30v5
q0 30 -24 30h-1q-13 0 -24 -11l-104 35l9 210h256v-104h-157l-2 -39q25 7 46 7q58 0 89 -34t31 -91v-12q0 -63 -36.5 -96.5t-101.5 -33.5q-64 0 -101.5 35.5t-37.5 94.5v8zM648 147q-17 0 -17 -27v-4q0 -27 17 -27h4q17 0 17 27v4q0 27 -17 27h-4zM651 251q13 0 13 23v4
q0 23 -13 23h-2q-13 0 -13 -23v-4q0 -23 13 -23h2z" />
    <glyph glyph-name="uni215E" unicode="&#x215e;" horiz-adv-x="800" 
d="M179 0h-134l576 780h134zM650 -13q-63 0 -100.5 31.5t-37.5 83.5v11q0 58 49 86q-45 28 -45 85v10q0 38 31 73.5t103 35.5t103 -35.5t31 -73.5v-10q0 -57 -45 -85q49 -28 49 -86v-11q0 -52 -37.5 -83.5t-100.5 -31.5zM8 640v140h284v-74l-128 -316h-128l124 286h-48v-36
h-104zM648 147q-17 0 -17 -27v-4q0 -27 17 -27h4q17 0 17 27v4q0 27 -17 27h-4zM651 251q13 0 13 23v4q0 23 -13 23h-2q-13 0 -13 -23v-4q0 -23 13 -23h2z" />
    <glyph glyph-name="uni215F" unicode="&#x215f;" horiz-adv-x="500" 
d="M179 0h-134l576 780h134zM290 390h-263v103h72v142l-35 -23l-59 85l124 84h90v-288h71v-103z" />
    <glyph glyph-name="arrowleft" unicode="&#x2190;" horiz-adv-x="920" 
d="M447 780h198l-320 -320h525v-140h-525l320 -320h-198l-390 390z" />
    <glyph glyph-name="arrowup" unicode="&#x2191;" horiz-adv-x="920" 
d="M70 205v198l390 390l390 -390v-198l-320 320v-525h-140v525z" />
    <glyph glyph-name="arrowright" unicode="&#x2192;" horiz-adv-x="920" 
d="M275 780h198l390 -390l-390 -390h-198l320 320h-525v140h525z" />
    <glyph glyph-name="arrowdown" unicode="&#x2193;" horiz-adv-x="920" 
d="M70 377v198l320 -320v525h140v-525l320 320v-198l-390 -390z" />
    <glyph glyph-name="uni2196" unicode="&#x2196;" horiz-adv-x="920" 
d="M211 0h-141v780h780v-141h-540l554 -553l-100 -100l-553 554v-540z" />
    <glyph glyph-name="uni2197" unicode="&#x2197;" horiz-adv-x="920" 
d="M70 639v141h780v-780h-141v540l-553 -554l-100 100l554 553h-540z" />
    <glyph glyph-name="uni2198" unicode="&#x2198;" horiz-adv-x="920" 
d="M70 0v141h540l-554 553l100 100l553 -554v540h141v-780h-780z" />
    <glyph glyph-name="uni2199" unicode="&#x2199;" horiz-adv-x="920" 
d="M850 141v-141h-780v780h141v-540l553 554l100 -100l-554 -553h540z" />
    <glyph glyph-name="minus" unicode="&#x2212;" horiz-adv-x="600" 
d="M42 320v140h516v-140h-516z" />
    <glyph glyph-name="approxequal" unicode="&#x2248;" horiz-adv-x="600" 
d="M184 374q56 0 124.5 -33t101.5 -33q47 0 88 49l74 -74q-60 -95 -156 -95q-56 0 -124.5 32.5t-101.5 32.5q-48 0 -88 -48l-74 74q60 95 156 95zM184 590q56 0 124.5 -32.5t101.5 -32.5q48 0 88 48l74 -74q-60 -95 -156 -95q-56 0 -124.5 32.5t-101.5 32.5q-48 0 -88 -48
l-74 74q60 95 156 95z" />
    <glyph glyph-name="notequal" unicode="&#x2260;" horiz-adv-x="600" 
d="M42 428v141h305l60 104h110l-60 -104h101v-141h-182l-43 -76h225v-141h-306l-59 -104h-110l59 104h-100v141h181l43 76h-224z" />
    <glyph glyph-name="equivalence" unicode="&#x2261;" horiz-adv-x="600" 
d="M42 536v141h516v-141h-516zM42 103v141h516v-141h-516zM42 320v140h516v-140h-516z" />
    <glyph glyph-name="lessequal" unicode="&#x2264;" horiz-adv-x="600" 
d="M558 541l-288 -82l288 -81v-156l-516 161v153l516 161v-156zM558 174v-91l-516 161v90z" />
    <glyph glyph-name="greaterequal" unicode="&#x2265;" horiz-adv-x="600" 
d="M42 378l288 81l-288 82v156l516 -161v-153l-516 -161v156zM42 83v91l516 160v-90z" />
    <glyph glyph-name="squaremultiply" unicode="&#x22a0;" horiz-adv-x="920" 
d="M70 780h780v-780h-780v780zM711 641h-502v-502h502v502zM338 168h-100v100l122 122l-122 122v100h100l122 -122l122 122h100v-100l-122 -122l122 -122v-100h-100l-122 122z" />
    <glyph glyph-name="house" unicode="&#x2302;" horiz-adv-x="850" 
d="M780 0h-710v450l355 340l355 -340v-450z" />
    <glyph glyph-name="blacksquare" unicode="&#x25a0;" horiz-adv-x="920" 
d="M850 0h-780v780h780v-780z" />
    <glyph glyph-name="blacksquare" unicode="&#xe740;" horiz-adv-x="920" 
d="M850 0h-780v780h780v-780z" />
    <glyph glyph-name="whitesquare" unicode="&#x25a1;" horiz-adv-x="920" 
d="M850 0h-780v780h780v-780zM711 641h-502v-502h502v502z" />
    <glyph glyph-name="blacksmallsquare" unicode="&#x25aa;" horiz-adv-x="680" 
d="M600 0h-530v530h530v-530z" />
    <glyph glyph-name="whitesmallsquare" unicode="&#x25ab;" horiz-adv-x="680" 
d="M70 530h530v-530h-530v530zM461 391h-252v-252h252v252z" />
    <glyph glyph-name="triagup" unicode="&#x25b2;" horiz-adv-x="930" 
d="M542 793l326 -793h-156l-247 617l-247 -617h-156l326 793h154z" />
    <glyph glyph-name="triagrt" unicode="&#x25ba;" horiz-adv-x="930" 
d="M873 467v-154l-793 -326v156l617 247l-617 247v156z" />
    <glyph glyph-name="triagdn" unicode="&#x25bc;" horiz-adv-x="930" 
d="M388 -13l-326 793h156l247 -618l247 618h156l-326 -793h-154z" />
    <glyph glyph-name="triaglf" unicode="&#x25c4;" horiz-adv-x="930" 
d="M57 467l793 326v-156l-618 -247l618 -247v-156l-793 326v154z" />
    <glyph glyph-name="whitecircle" unicode="&#x25cb;" horiz-adv-x="920" 
d="M57 390q0 167 118 285t285 118t285 -118t118 -285t-118 -285t-285 -118t-285 118t-118 285zM196 390q0 -110 77 -187t187 -77t187 77t77 187t-77 187t-187 77t-187 -77t-77 -187z" />
    <glyph glyph-name="whitecircle" unicode="&#x25ef;" horiz-adv-x="920" 
d="M57 390q0 167 118 285t285 118t285 -118t118 -285t-118 -285t-285 -118t-285 118t-118 285zM196 390q0 -110 77 -187t187 -77t187 77t77 187t-77 187t-187 77t-187 -77t-77 -187z" />
    <glyph glyph-name="blackcircle" unicode="&#x25cf;" horiz-adv-x="920" 
d="M57 390q0 167 118 285t285 118t285 -118t118 -285t-118 -285t-285 -118t-285 118t-118 285z" />
    <glyph glyph-name="uni25E2" unicode="&#x25e2;" horiz-adv-x="930" 
d="M906 54l-54 -55l-54 -54l-791 330l109 111l611 -262l-261 611l111 110z" />
    <glyph glyph-name="uni25E3" unicode="&#x25e3;" horiz-adv-x="930" 
d="M78 -1l-54 55l329 791l111 -110l-262 -611l612 262l109 -111l-791 -330z" />
    <glyph glyph-name="uni25E4" unicode="&#x25e4;" horiz-adv-x="930" 
d="M24 728l108 108l791 -329l-109 -111l-612 261l262 -611l-111 -109z" />
    <glyph glyph-name="uni25E5" unicode="&#x25e5;" horiz-adv-x="930" 
d="M906 728l-329 -791l-111 109l261 611l-611 -261l-109 111l791 329z" />
    <glyph glyph-name="uni2605" unicode="&#x2605;" horiz-adv-x="880" 
d="M440 180l-260 -190l99 307l-260 189h322l99 306l99 -306h322l-260 -189l99 -307z" />
    <glyph glyph-name="ballotboxwithx" unicode="&#x2612;" horiz-adv-x="680" 
d="M70 530h530v-530h-530v530zM461 391h-252v-252h252v252zM432 168h-194v194h194v-194z" />
    <glyph glyph-name="uni263C" unicode="&#x263c;" horiz-adv-x="960" 
d="M521 191l-42 -202l-42 202q0 -39 -29 -66q-9 -8 -30 -22.5t-29.5 -26t-8.5 -29.5q0 -9 3 -18t6 -13l3 -4q-22 6 -34 23.5t-12 38.5q0 30 21 51q41 41 41 95l-172 -113l113 172q-26 -26 -66 -26q-9 0 -31.5 4t-30.5 4q-24 0 -38.5 -12t-17.5 -24l-3 -12q-8 14 -8 28
q0 29 20.5 49t50.5 20t60.5 15t35.5 23l-202 42l202 42q-39 0 -66 29q-8 9 -22.5 30t-26 29.5t-29.5 8.5q-9 0 -18 -3t-13 -6l-4 -3q6 22 23.5 34t38.5 12q30 0 51 -21q41 -41 95 -41l-113 172l172 -113q-26 26 -26 66q0 9 4 31.5t4 30.5q0 24 -12 39t-24 17l-12 3
q14 8 28 8q29 0 49 -20.5t20 -50.5t15 -60.5t23 -35.5l42 202l42 -202q0 39 29 66q9 8 30 22.5t29.5 26t8.5 29.5q0 9 -3 18t-6 13l-3 4q22 -6 34 -23.5t12 -38.5q0 -30 -21 -51q-41 -41 -41 -95l172 113l-113 -172q26 26 66 26q9 0 31.5 -4t30.5 -4q24 0 39 12t17 24l3 12
q8 -14 8 -28q0 -29 -20.5 -49t-50.5 -20t-60.5 -15t-35.5 -23l202 -42l-202 -42q39 0 66 -29q8 -9 22.5 -30t26 -29.5t29.5 -8.5q9 0 18 3t13 6l4 3q-6 -22 -23.5 -34t-38.5 -12q-30 0 -51 21q-41 41 -95 41l113 -172l-172 113q26 -26 26 -66q0 -9 -4 -31.5t-4 -30.5
q0 -24 12 -38.5t24 -17.5l12 -3q-14 -8 -28 -8q-29 0 -49 20.5t-20 50.5t-15 60.5t-23 35.5z" />
    <glyph glyph-name="uni263E" unicode="&#x263e;" horiz-adv-x="960" 
d="M624 728q-134 0 -229 -99t-95 -239t95 -239t229 -99q50 0 96 15q-107 -77 -240 -77q-166 0 -283 117t-117 283t117 283t283 117q131 0 240 -77q-52 15 -96 15z" />
    <glyph glyph-name="spade" unicode="&#x2660;" horiz-adv-x="900" 
d="M451 790q32 -48 97 -116t136 -114q78 -51 121 -103t43 -123q0 -73 -51 -123.5t-125 -50.5q-69 0 -120.5 46t-79.5 115l-3 -1q8 -102 26.5 -174t55.5 -146h-202q37 74 55.5 146t26.5 174l-3 1q-28 -69 -79.5 -115t-120.5 -46q-74 0 -125 50.5t-51 123.5q0 71 43 123
t121 103q71 46 136 114t97 116h2z" />
    <glyph glyph-name="club" unicode="&#x2663;" horiz-adv-x="900" 
d="M349 0q37 74 55.5 146t26.5 174l-3 1q-28 -69 -79.5 -115t-120.5 -46q-74 0 -125 50.5t-51 123.5q0 79 48.5 129.5t125.5 50.5q40 0 84 -23l2 2q-38 57 -38 117q0 75 50.5 127.5t125.5 52.5t125.5 -52.5t50.5 -127.5q0 -60 -38 -117l2 -2q44 23 84 23q77 0 125.5 -50.5
t48.5 -129.5q0 -73 -51 -123.5t-125 -50.5q-69 0 -120.5 46t-79.5 115l-3 -1q8 -102 26.5 -174t55.5 -146h-202z" />
    <glyph glyph-name="heart" unicode="&#x2665;" horiz-adv-x="900" 
d="M451 -10h-2q-28 43 -94 126.5t-139 166.5q-164 185 -164 301q0 90 52 148t139 58q85 0 132.5 -42.5t72.5 -114.5h4q25 72 72.5 114.5t132.5 42.5q87 0 139 -58t52 -148q0 -116 -164 -301q-73 -83 -139 -166.5t-94 -126.5z" />
    <glyph glyph-name="diamond" unicode="&#x2666;" horiz-adv-x="900" 
d="M817 390q-106 -83 -202.5 -188.5t-163.5 -211.5h-2q-67 106 -163.5 211.5t-202.5 188.5q106 83 202.5 188.5t163.5 211.5h2q67 -106 163.5 -211.5t202.5 -188.5z" />
    <glyph glyph-name="uni267B" unicode="&#x267b;" horiz-adv-x="960" 
d="M863 266l1 -2l-96 -167q-15 -22 -21.5 -30t-24 -17t-42.5 -9h-57v-49l-113 136l113 135v-49h145q26 0 50 13t34 26zM186 122h-2l-96 168q-11 21 -15 32t-3 30.5t14 40.5l28 49l-42 24l174 31l59 -166l-41 24q-70 -120 -72 -125q-13 -23 -14 -50t4 -42zM404 779v1h193
q24 -1 36 -2.5t28 -12.5t28 -32l28 -49l43 24l-61 -166l-173 31l41 24l-72 125q-13 23 -36 37.5t-39 16.5zM200 598l67 119q10 17 34 31q46 24 97 10t68 -45l-116 -201zM446 41h-135q-22 0 -44 13q-43 25 -57.5 79.5t4.5 80.5h232v-173zM806 527l69 -117q10 -18 10 -44
q1 -48 -38 -87t-74 -39l-116 201z" />
    <glyph glyph-name="uni267C" unicode="&#x267c;" horiz-adv-x="960" 
d="M292 645l-52 -92l116 -67l90 156q-13 24 -52.5 34.5t-75.5 -7.5q-18 -11 -26 -24zM394 694v-1q48 -5 71 -44l56 -97l-32 -19l134 -24l47 129l-33 -19l-22 38q-14 24 -29.5 30.5t-41.5 6.5h-150zM322 121h105v134h-180q-15 -20 -3.5 -62.5t44.5 -61.5q17 -10 34 -10z
M228 184h1q-20 44 3 84l56 97l32 -19l-46 129l-135 -24l33 -19l-22 -38q-10 -16 -11 -31.5t2 -23.5t12 -25zM763 407l-53 91l-116 -67l90 -156q28 0 58 30t29 68q0 20 -8 34zM755 294l-1 1q-3 -4 -9 -11t-25.5 -18t-39.5 -11h-112v38l-88 -105l88 -105v38h44q28 0 41.5 10.5
t26.5 32.5zM64 390q0 164 116 280t280 116t280 -116t116 -280t-116 -280t-280 -116t-280 116t-116 280z" />
    <glyph glyph-name="uni267D" unicode="&#x267d;" horiz-adv-x="960" 
d="M240 553l52 92q8 13 26 24q36 18 75.5 7.5t52.5 -34.5l-90 -156zM394 693v1h150q26 0 41.5 -6.5t29.5 -30.5l22 -38l33 19l-47 -129l-134 24l32 19l-56 97q-10 17 -28 28t-31 13zM427 121h-105q-17 0 -34 10q-33 19 -44.5 61.5t3.5 62.5h180v-134zM229 184h-1l-75 130
q-9 17 -12 25t-2 23.5t11 31.5l22 38l-33 19l135 24l46 -129l-32 19l-56 -97q-10 -18 -11 -39t3 -33zM710 498l53 -91q8 -14 8 -34q1 -38 -29 -68t-58 -30l-90 156zM754 295l1 -1l-75 -130q-9 -15 -15 -22.5t-20 -14t-33 -6.5h-44v-38l-88 105l88 105v-38h112q20 0 38.5 10
t27.5 20zM60 390q0 166 117 283t283 117t283 -117t117 -283t-117 -283t-283 -117t-283 117t-117 283zM98 390q0 -150 106 -256t256 -106t256 106t106 256t-106 256t-256 106t-256 -106t-106 -256z" />
    <glyph glyph-name="mediumwhitecircle" unicode="&#x26aa;" horiz-adv-x="670" 
d="M57 265q0 115 81.5 196.5t196.5 81.5t196.5 -81.5t81.5 -196.5t-81.5 -196.5t-196.5 -81.5t-196.5 81.5t-81.5 196.5zM196 265q0 -58 40.5 -98.5t98.5 -40.5t98.5 40.5t40.5 98.5t-40.5 98.5t-98.5 40.5t-98.5 -40.5t-40.5 -98.5z" />
    <glyph glyph-name="mediumblackcircle" unicode="&#x26ab;" horiz-adv-x="670" 
d="M57 265q0 115 81.5 196.5t196.5 81.5t196.5 -81.5t81.5 -196.5t-81.5 -196.5t-196.5 -81.5t-196.5 81.5t-81.5 196.5z" />
    <glyph glyph-name="anglebracketleft" unicode="&#x3008;" horiz-adv-x="365" 
d="M347 840l-162 -480l162 -480h-163l-162 480l162 480h163z" />
    <glyph glyph-name="anglebracketright" unicode="&#x3009;" horiz-adv-x="365" 
d="M18 -120l162 480l-162 480h163l162 -480l-162 -480h-163z" />
    <glyph glyph-name="fi" unicode="&#xe38c;" horiz-adv-x="677" 
d="M258 599v-69h116v-138h-116v-392h-158v392h-81v138h81v86q0 197 199 197q62 0 85 -13v-130q-14 7 -48 7q-40 0 -59 -16t-19 -62zM465 0v530h158v-530h-158zM627 772v-167h-166v167h166z" />
    <glyph glyph-name="fi" unicode="&#xfb01;" horiz-adv-x="677" 
d="M258 599v-69h116v-138h-116v-392h-158v392h-81v138h81v86q0 197 199 197q62 0 85 -13v-130q-14 7 -48 7q-40 0 -59 -16t-19 -62zM465 0v530h158v-530h-158zM627 772v-167h-166v167h166z" />
    <glyph glyph-name="fl" unicode="&#xe38d;" horiz-adv-x="677" 
d="M258 599v-69h116v-138h-116v-392h-158v392h-81v138h81v86q0 197 199 197q62 0 85 -13v-130q-14 7 -48 7q-40 0 -59 -16t-19 -62zM465 0v800h158v-800h-158z" />
    <glyph glyph-name="fl" unicode="&#xfb02;" horiz-adv-x="677" 
d="M258 599v-69h116v-138h-116v-392h-158v392h-81v138h81v86q0 197 199 197q62 0 85 -13v-130q-14 7 -48 7q-40 0 -59 -16t-19 -62zM465 0v800h158v-800h-158z" />
    <glyph glyph-name="invertedbreve" unicode="&#xe411;" horiz-adv-x="500" 
d="M250 793q190 0 187 -197h-113q0 78 -74 78t-74 -78h-113q-3 197 187 197z" />
    <glyph glyph-name="doublegrave" unicode="&#xe412;" horiz-adv-x="500" 
d="M185 780h140l67 -184h-123zM2 780h139l91 -184h-123z" />
    <glyph glyph-name="caronSlovak" unicode="&#xe413;" horiz-adv-x="500" 
d="M306 800h96l-26 -204h-70v204z" />
    <glyph glyph-name="commaaccent" unicode="&#xe414;" horiz-adv-x="602" 
d="M321 -44v-57q0 -66 -36 -95.5t-111 -29.5v54q67 0 84 36h-79v92h142z" />
    <glyph glyph-name="commaaccent" unicode="&#xf6c3;" horiz-adv-x="602" 
d="M321 -44v-57q0 -66 -36 -95.5t-111 -29.5v54q67 0 84 36h-79v92h142z" />
    <glyph glyph-name="dotbelow" unicode="&#xe415;" horiz-adv-x="602" 
d="M321 -51v-142h-142v142h142z" />
    <glyph glyph-name="altcedilla" unicode="&#xe416;" horiz-adv-x="602" 
d="M286 -118q0 23 -47 23q-35 0 -49 -7v52q28 10 68 10q50 0 81.5 -22t31.5 -65q0 -88 -120 -88q-67 0 -107 25l23 66q27 -17 72 -17q47 0 47 23z" />
    <glyph glyph-name="grave.cap" unicode="&#xe421;" horiz-adv-x="500" 
d="M108 950h165l55 -110h-156z" />
    <glyph glyph-name="acute.cap" unicode="&#xe422;" horiz-adv-x="500" 
d="M227 950h165l-64 -110h-156z" />
    <glyph glyph-name="circumflex.cap" unicode="&#xe423;" horiz-adv-x="500" 
d="M188 840h-142l124 110h160l124 -110h-142l-62 44z" />
    <glyph glyph-name="tilde.cap" unicode="&#xe424;" horiz-adv-x="500" 
d="M350 947h85q0 -62 -29 -90.5t-74 -28.5q-35 0 -84 24t-65 24q-33 0 -33 -33h-85q0 62 29 90.5t74 28.5q35 0 84 -24t65 -24q33 0 33 33z" />
    <glyph glyph-name="macron.cap" unicode="&#xe425;" horiz-adv-x="500" 
d="M101 847v96h298v-96h-298z" />
    <glyph glyph-name="breve.cap" unicode="&#xe426;" horiz-adv-x="500" 
d="M250 825q-102 0 -142.5 33.5t-40.5 91.5h109q0 -40 74 -40t74 40h109q0 -58 -40.5 -91.5t-142.5 -33.5z" />
    <glyph glyph-name="invertedbreve.cap" unicode="&#xe427;" horiz-adv-x="500" 
d="M250 965q102 0 142.5 -33.5t40.5 -91.5h-109q0 40 -74 40t-74 -40h-109q0 58 40.5 91.5t142.5 33.5z" />
    <glyph glyph-name="dotaccent.cap" unicode="&#xe428;" horiz-adv-x="500" 
d="M317 945v-100h-134v100h134z" />
    <glyph glyph-name="dieresis.cap" unicode="&#xe429;" horiz-adv-x="500" 
d="M229 945v-100h-133v100h133zM404 945v-100h-133v100h133z" />
    <glyph glyph-name="ring.cap" unicode="&#xe42a;" horiz-adv-x="500" 
d="M145 858q0 44 30.5 74.5t74.5 30.5t74.5 -30.5t30.5 -74.5t-31 -75t-74 -31t-74 31t-31 75zM199 858q0 -21 15 -36t36 -15t36 15t15 36t-15 35.5t-36 14.5t-36 -14.5t-15 -35.5z" />
    <glyph glyph-name="hungarumlaut.cap" unicode="&#xe42b;" horiz-adv-x="500" 
d="M143 950h149l-56 -110h-139zM318 950h149l-64 -110h-139z" />
    <glyph glyph-name="doublegrave.cap" unicode="&#xe42c;" horiz-adv-x="500" 
d="M208 950h149l46 -110h-139zM33 950h149l54 -110h-139z" />
    <glyph glyph-name="caron.cap" unicode="&#xe42d;" horiz-adv-x="500" 
d="M46 950h142l62 -45l62 45h142l-124 -110h-160z" />
    <glyph glyph-name="commaaccent.cap" unicode="&#xe42e;" horiz-adv-x="500" 
d="M183 840v25q0 103 136 103v-38q-61 0 -75 -30h73v-60h-134z" />
    <glyph glyph-name="exclamdown.cap" unicode="&#xe441;" horiz-adv-x="265" 
d="M231 0h-196l42 552h112zM50 613v167h166v-167h-166z" />
    <glyph glyph-name="questiondown.cap" unicode="&#xe444;" horiz-adv-x="497" 
d="M244 126q41 0 57 31.5t16 106.5h159v-18q0 -130 -53.5 -194.5t-178.5 -64.5q-121 0 -173.5 57t-52.5 144q0 56 17 96t42 65.5t50.5 49.5t45.5 62.5t24 90.5h111q5 -64 -14.5 -121.5t-45.5 -91.5t-48.5 -72t-22.5 -66q0 -75 67 -75zM169 613v167h166v-167h-166z" />
    <glyph glyph-name="guilsinglleft.cap" unicode="&#xe451;" horiz-adv-x="316" 
d="M266 613v-139l-109 -84l109 -84v-139l-216 147v152z" />
    <glyph glyph-name="guilsinglright.cap" unicode="&#xe452;" horiz-adv-x="316" 
d="M50 474v139l216 -147v-152l-216 -147v139l109 84z" />
    <glyph glyph-name="guillemotleft.cap" unicode="&#xe453;" horiz-adv-x="565" 
d="M266 613v-139l-109 -84l109 -84v-139l-216 147v152zM515 613v-139l-109 -84l109 -84v-139l-216 147v152z" />
    <glyph glyph-name="guillemotright.cap" unicode="&#xe454;" horiz-adv-x="565" 
d="M299 474v139l216 -147v-152l-216 -147v139l109 84zM50 474v139l216 -147v-152l-216 -147v139l109 84z" />
    <glyph glyph-name="slash.cap" unicode="&#xe461;" horiz-adv-x="381" 
d="M172 0h-154l192 780h154z" />
    <glyph glyph-name="backslash.cap" unicode="&#xe462;" horiz-adv-x="381" 
d="M18 780h154l192 -780h-154z" />
    <glyph glyph-name="bar.cap" unicode="&#xe463;" horiz-adv-x="261" 
d="M54 0v780h154v-780h-154z" />
    <glyph glyph-name="doublebar.cap" unicode="&#xe464;" horiz-adv-x="459" 
d="M54 0v780h154v-780h-154zM251 0v780h154v-780h-154z" />
    <glyph glyph-name="brokenbar.cap" unicode="&#xe465;" horiz-adv-x="261" 
d="M54 414v366h154v-366h-154zM54 0v366h154v-366h-154z" />
    <glyph glyph-name="bullet.cap" unicode="&#xe466;" horiz-adv-x="445" 
d="M383 551v-322h-321v322h321z" />
    <glyph glyph-name="onethirdemdash" unicode="&#xe471;" horiz-adv-x="333" 
d="M293 281h-253v138h253v-138z" />
    <glyph glyph-name="threequarteremdash" unicode="&#xe472;" horiz-adv-x="750" 
d="M40 281v138h670v-138h-670z" />
    <glyph glyph-name="periodcentered.cap" unicode="&#xe481;" horiz-adv-x="266" 
d="M216 474v-167h-166v167h166z" />
    <glyph glyph-name="hyphen.cap" unicode="&#xe482;" horiz-adv-x="320" 
d="M40 321v138h273v-138h-273z" />
    <glyph glyph-name="onethirdemdash.cap" unicode="&#xe483;" horiz-adv-x="333" 
d="M293 321h-251v138h251v-138z" />
    <glyph glyph-name="endash.cap" unicode="&#xe484;" horiz-adv-x="500" 
d="M40 321v138h420v-138h-420z" />
    <glyph glyph-name="threequarteremdash.cap" unicode="&#xe485;" horiz-adv-x="750" 
d="M40 321v138h670v-138h-670z" />
    <glyph glyph-name="emdash.cap" unicode="&#xe486;" horiz-adv-x="1000" 
d="M40 321v138h920v-138h-920z" />
    <glyph glyph-name="figuredash.cap" unicode="&#xe487;" horiz-adv-x="600" 
d="M40 321v138h520v-138h-520z" />
    <glyph glyph-name="uni2015.cap" unicode="&#xe488;" horiz-adv-x="1200" 
d="M40 321v138h1120v-138h-1120z" />
    <glyph glyph-name="parenleft.cap" unicode="&#xe491;" horiz-adv-x="365" 
d="M45 380v20q0 234 119 380h164q-125 -181 -125 -380v-20q0 -199 125 -380h-164q-119 146 -119 380z" />
    <glyph glyph-name="parenright.cap" unicode="&#xe492;" horiz-adv-x="365" 
d="M320 400v-20q0 -234 -119 -380h-164q125 181 125 380v20q0 199 -125 380h164q119 -146 119 -380z" />
    <glyph glyph-name="bracketleft.cap" unicode="&#xe493;" horiz-adv-x="365" 
d="M58 780h274v-138h-117v-504h117v-138h-274v780z" />
    <glyph glyph-name="bracketright.cap" unicode="&#xe494;" horiz-adv-x="365" 
d="M307 0h-274v138h117v504h-117v138h274v-780z" />
    <glyph glyph-name="braceleft.cap" unicode="&#xe495;" horiz-adv-x="365" 
d="M332 780v-138q-37 0 -56 -18t-20 -58v-60q0 -82 -60 -116q60 -34 60 -116v-51q0 -45 18.5 -65t57.5 -20v-138h-27q-206 0 -206 178v61q0 44 -18 63t-57 19v138q39 0 57 19t18 63v61q0 178 206 178h27z" />
    <glyph glyph-name="braceright.cap" unicode="&#xe496;" horiz-adv-x="365" 
d="M33 642v138h27q206 0 206 -178v-61q0 -44 18 -63t57 -19v-138q-39 0 -57 -19t-18 -63v-61q0 -178 -206 -178h-27v138q39 0 57.5 20t18.5 65v51q0 82 59 116q-59 34 -59 116v51q0 45 -18.5 65t-57.5 20z" />
    <glyph glyph-name="anglebracketleft.cap" unicode="&#xe497;" horiz-adv-x="365" 
d="M326 780l-136 -390l136 -390h-163l-136 390l136 390h163z" />
    <glyph glyph-name="anglebracketright.cap" unicode="&#xe498;" horiz-adv-x="365" 
d="M176 390l-137 390h163l137 -390l-137 -390h-163z" />
    <glyph glyph-name="lowline" unicode="&#xe511;" horiz-adv-x="320" 
d="M42 0v137h236v-137h-236z" />
    <glyph glyph-name="underscoremonospace" unicode="&#xe512;" horiz-adv-x="600" 
d="M42 -185v138h516v-138h-516z" />
    <glyph glyph-name="underscoremonospace" unicode="&#xff3f;" horiz-adv-x="600" 
d="M42 -185v138h516v-138h-516z" />
    <glyph glyph-name="at.cap" unicode="&#xe513;" horiz-adv-x="991" 
d="M513 -10h6q182 0 330 109l59 -80q-166 -132 -392 -132q-219 0 -354 127.5t-135 355.5v40q0 228 134.5 355.5t349.5 127.5q94 0 173.5 -22.5t143 -68.5t100 -124t36.5 -180v-30q0 -87 -20.5 -149t-58.5 -95.5t-85.5 -48.5t-108.5 -15h-105l-11 59q-46 -72 -139 -72
q-90 0 -137.5 63.5t-47.5 167.5v34q0 104 47.5 167.5t137.5 63.5q93 0 139 -72l11 59h123l-9 -137v-231q88 5 122.5 48.5t34.5 157.5v30q0 68 -20 120t-52 84t-77.5 52t-92.5 28t-101 8h-6q-170 0 -273 -98t-103 -282v-40q0 -186 103.5 -283t277.5 -97zM563 474
q-30 47 -84 47q-84 0 -84 -109v-34q0 -109 84 -109q54 0 84 47v158z" />
    <glyph glyph-name="zero.inf" unicode="&#xe571;" 
d="M287 -96q0 -52 -37 -84.5t-100 -32.5t-100 32.5t-37 84.5v182q0 52 37 84.5t100 32.5t100 -32.5t37 -84.5v-182zM133 -94q0 -15 15 -15h4q15 0 15 15v178q0 15 -15 15h-4q-15 0 -15 -15v-178z" />
    <glyph glyph-name="one.inf" unicode="&#xe572;" 
d="M290 -200h-263v103h72v142l-35 -23l-59 85l124 84h90v-288h71v-103z" />
    <glyph glyph-name="two.inf" unicode="&#xe573;" 
d="M284 -97v-103h-271v76l138 153q13 15 13 32v11q0 27 -14 27h-3q-14 0 -14 -39h-120v15q0 51 31 89.5t105 38.5q73 0 104 -37t31 -79v-18q0 -30 -10 -50t-33 -47l-62 -69h105z" />
    <glyph glyph-name="three.inf" unicode="&#xe574;" 
d="M131 -75q0 -34 18 -34h3q6 0 11.5 8t5.5 22v5q0 25 -19 25h-50v96h49q15 0 15 25v2q0 7 -3.5 16t-10.5 9h-3q-14 0 -14 -39h-120v9q0 55 30.5 94.5t105.5 39.5q72 0 103.5 -35.5t31.5 -73.5v-10q0 -59 -48 -85q52 -27 52 -87v-10q0 -52 -37.5 -83.5t-100.5 -31.5
q-64 0 -101.5 35.5t-37.5 94.5v8h120z" />
    <glyph glyph-name="four.inf" unicode="&#xe575;" 
d="M257 -200h-120v68h-127v92l126 230h121v-218h32v-104h-32v-68zM137 29l-31 -57h31v57z" />
    <glyph glyph-name="five.inf" unicode="&#xe576;" 
d="M11 -75h120q0 -34 16 -34h4q18 0 18 30v5q0 30 -24 30h-1q-13 0 -24 -11l-104 35l9 210h256v-104h-157l-2 -39q24 7 46 7q58 0 89 -34t31 -91v-12q0 -63 -36.5 -96.5t-101.5 -33.5q-64 0 -101.5 35.5t-37.5 94.5v8z" />
    <glyph glyph-name="six.inf" unicode="&#xe577;" 
d="M278 203v-104q-84 0 -119 -35q-10 -10 -18 -31q21 13 45 13q46 0 74 -32.5t28 -90.5v-5q0 -58 -35 -94.5t-104 -36.5q-68 0 -103 44.5t-35 111.5v9q0 105 57 177q60 74 210 74zM148 -57q-10 0 -17 -11v-2q0 -39 17 -39h4q6 0 11.5 7t5.5 18v5q0 10 -5.5 16t-11.5 6h-4z
" />
    <glyph glyph-name="seven.inf" unicode="&#xe578;" 
d="M8 50v140h284v-74l-128 -316h-128l124 286h-48v-36h-104z" />
    <glyph glyph-name="eight.inf" unicode="&#xe579;" 
d="M150 -213q-63 0 -100.5 31.5t-37.5 83.5v11q0 57 49 87q-45 26 -45 84v10q0 38 31 73.5t103 35.5t103 -35.5t31 -73.5v-10q0 -58 -45 -84q49 -30 49 -87v-11q0 -52 -37.5 -83.5t-100.5 -31.5zM148 -53q-17 0 -17 -27v-4q0 -27 17 -27h4q17 0 17 27v4q0 27 -17 27h-4z
M151 51q13 0 13 23v4q0 23 -13 23h-2q-13 0 -13 -23v-4q0 -23 13 -23h2z" />
    <glyph glyph-name="nine.inf" unicode="&#xe57a;" 
d="M22 -213v104q84 0 119 35q10 10 18 31q-21 -13 -45 -13q-46 0 -74 32.5t-28 90.5v5q0 58 35 94.5t104 36.5q68 0 103 -44.5t35 -111.5v-9q0 -105 -57 -177q-60 -74 -210 -74zM148 47h4q9 0 17 11v2q0 39 -17 39h-4q-6 0 -11.5 -7t-5.5 -18v-5q0 -10 5.5 -16t11.5 -6z" />
    <glyph glyph-name="plus.inf" unicode="&#xe57b;" 
d="M98 127h104v-80h80v-104h-80v-80h-104v80h-80v104h80v80z" />
    <glyph glyph-name="minus.inf" unicode="&#xe57c;" 
d="M18 -57v104h264v-104h-264z" />
    <glyph glyph-name="equal.inf" unicode="&#xe57d;" 
d="M18 4v104h264v-104h-264zM18 -118v104h264v-104h-264z" />
    <glyph glyph-name="parenleft.inf" unicode="&#xe57e;" horiz-adv-x="205" 
d="M15 -10v10q0 127 59 190h123q-63 -91 -63 -190v-10q0 -99 63 -190h-123q-59 61 -59 190z" />
    <glyph glyph-name="parenright.inf" unicode="&#xe57f;" horiz-adv-x="205" 
d="M189 0v-10q0 -129 -59 -190h-122q62 89 62 190v10q0 101 -62 190h122q59 -63 59 -190z" />
    <glyph glyph-name="Anocross" unicode="&#xe731;" horiz-adv-x="641" 
d="M209 782h223l195 -782h-173l-134 595l-132 -595h-174z" />
    <glyph glyph-name="idotaccent" unicode="&#xe785;" horiz-adv-x="266" 
d="M54 0v530h158v-530h-158zM216 772v-167h-166v167h166z" />
    <glyph glyph-name="interrobangdown" unicode="&#xe935;" horiz-adv-x="497" 
d="M18 -21q0 45 12.5 80t31 55.5t41 41.5t42.5 38t34.5 45t17.5 63h94l8 -364q38 24 38 122h138v-17q0 -130 -53 -193t-178 -63q-120 0 -173 56t-53 136zM164 363v167h166v-167h-166zM177 -5q0 -47 37 -62l3 160q-40 -57 -40 -98z" />
    <glyph glyph-name="interrobangdown.cap" unicode="&#xe99b;" horiz-adv-x="497" 
d="M21 188q0 56 17 96t42 65.5t50.5 49.5t45.5 62.5t24 90.5h86l8 -417q42 24 42 129h143v-18q0 -130 -53.5 -194.5t-178.5 -64.5q-121 0 -173.5 57t-52.5 144zM162 613v167h166v-167h-166zM172 205q0 -54 36 -71l4 174q-40 -67 -40 -103z" />
    <glyph glyph-name="registered.cap" unicode="&#xe99c;" horiz-adv-x="920" 
d="M57 390q0 167 118 285t285 118t285 -118t118 -285t-118 -285t-285 -118t-285 118t-118 285zM113 390q0 -144 101.5 -245.5t245.5 -101.5t245.5 101.5t101.5 245.5t-101.5 245.5t-245.5 101.5t-245.5 -101.5t-101.5 -245.5zM398 307v-152h-141v470h243q164 0 164 -153v-12
q0 -98 -69 -133l69 -172h-148l-48 152h-70zM398 411h71q54 0 54 52v6q0 52 -54 52h-71v-110z" />
    <glyph glyph-name="period.T" unicode="&#xf182;" 
d="M233 167v-167h-166v167h166z" />
    <glyph glyph-name="comma.T" unicode="&#xf183;" 
d="M233 167v-132q0 -178 -171 -178v79q74 0 89 64h-84v167h166z" />
    <glyph glyph-name="colon.T" unicode="&#xf184;" 
d="M233 167v-167h-166v167h166zM233 474v-167h-166v167h166z" />
    <glyph glyph-name="semicolon.T" unicode="&#xf185;" 
d="M233 167v-132q0 -178 -171 -178v79q74 0 89 64h-84v167h166zM233 474v-167h-166v167h166z" />
    <glyph glyph-name="onesixteenth" unicode="&#xf215;" horiz-adv-x="1100" 
d="M179 0h-134l576 780h134zM1078 403v-104q-84 0 -119 -35q-10 -10 -18 -31q21 13 45 13q46 0 74 -32.5t28 -90.5v-5q0 -58 -35 -94.5t-104 -36.5q-68 0 -103 44.5t-35 111.5v9q0 105 57 177q60 74 210 74zM790 0h-263v103h72v142l-35 -23l-59 85l124 84h90v-288h71v-103z
M290 390h-263v103h72v142l-35 -23l-59 85l124 84h90v-288h71v-103zM948 143q-9 0 -17 -11v-2q0 -39 17 -39h4q6 0 11.5 7t5.5 18v5q0 10 -5.5 16t-11.5 6h-4z" />
    <glyph glyph-name="threesixteenths" unicode="&#xf216;" horiz-adv-x="1100" 
d="M179 0h-134l576 780h134zM1078 403v-104q-84 0 -119 -35q-10 -10 -18 -31q21 13 45 13q46 0 74 -32.5t28 -90.5v-5q0 -58 -35 -94.5t-104 -36.5q-68 0 -103 44.5t-35 111.5v9q0 105 57 177q60 74 210 74zM131 515q0 -34 18 -34h3q6 0 11.5 8t5.5 22v5q0 25 -19 25h-50v96
h49q15 0 15 25v2q0 7 -3.5 16t-10.5 9h-3q-14 0 -14 -39h-120v9q0 55 30.5 94.5t105.5 39.5q72 0 103.5 -35.5t31.5 -73.5v-10q0 -59 -48 -85q52 -29 52 -87v-10q0 -52 -37.5 -83.5t-100.5 -31.5q-64 0 -101.5 35.5t-37.5 94.5v8h120zM790 0h-263v103h72v142l-35 -23l-59 85
l124 84h90v-288h71v-103zM948 143q-9 0 -17 -11v-2q0 -39 17 -39h4q6 0 11.5 7t5.5 18v5q0 10 -5.5 16t-11.5 6h-4z" />
    <glyph glyph-name="fivesixteenths" unicode="&#xf217;" horiz-adv-x="1100" 
d="M179 0h-134l576 780h134zM11 515h120q0 -34 16 -34h4q18 0 18 30v5q0 30 -24 30h-1q-13 0 -24 -11l-104 35l9 210h256v-104h-157l-2 -39q25 7 46 7q58 0 89 -34t31 -91v-12q0 -63 -36.5 -96.5t-101.5 -33.5q-64 0 -101.5 35.5t-37.5 94.5v8zM1078 403v-104
q-84 0 -119 -35q-10 -10 -18 -31q21 13 45 13q46 0 74 -32.5t28 -90.5v-5q0 -58 -35 -94.5t-104 -36.5q-68 0 -103 44.5t-35 111.5v9q0 105 57 177q60 74 210 74zM790 0h-263v103h72v142l-35 -23l-59 85l124 84h90v-288h71v-103zM948 143q-9 0 -17 -11v-2q0 -39 17 -39h4
q6 0 11.5 7t5.5 18v5q0 10 -5.5 16t-11.5 6h-4z" />
    <glyph glyph-name="sevensixteenths" unicode="&#xf218;" horiz-adv-x="1100" 
d="M179 0h-134l576 780h134zM1078 403v-104q-84 0 -119 -35q-10 -10 -18 -31q21 13 45 13q46 0 74 -32.5t28 -90.5v-5q0 -58 -35 -94.5t-104 -36.5q-68 0 -103 44.5t-35 111.5v9q0 105 57 177q60 74 210 74zM790 0h-263v103h72v142l-35 -23l-59 85l124 84h90v-288h71v-103z
M8 640v140h284v-74l-128 -316h-128l124 286h-48v-36h-104zM948 143q-9 0 -17 -11v-2q0 -39 17 -39h4q6 0 11.5 7t5.5 18v5q0 10 -5.5 16t-11.5 6h-4z" />
    <glyph glyph-name="ninesixteenths" unicode="&#xf219;" horiz-adv-x="1100" 
d="M179 0h-134l576 780h134zM1078 403v-104q-84 0 -119 -35q-10 -10 -18 -31q21 13 45 13q46 0 74 -32.5t28 -90.5v-5q0 -58 -35 -94.5t-104 -36.5q-68 0 -103 44.5t-35 111.5v9q0 105 57 177q60 74 210 74zM22 377v104q84 0 119 35q11 11 17 31q-20 -13 -44 -13
q-46 0 -74 32.5t-28 90.5v5q0 58 35 94.5t104 36.5q68 0 103 -44.5t35 -111.5v-9q0 -105 -57 -177q-60 -74 -210 -74zM790 0h-263v103h72v142l-35 -23l-59 85l124 84h90v-288h71v-103zM948 143q-9 0 -17 -11v-2q0 -39 17 -39h4q6 0 11.5 7t5.5 18v5q0 10 -5.5 16t-11.5 6h-4
z" />
    <glyph glyph-name="elevensixteenths" unicode="&#xf220;" horiz-adv-x="1400" 
d="M479 0h-134l576 780h134zM1378 403v-104q-84 0 -119 -35q-10 -10 -18 -31q21 13 45 13q46 0 74 -32.5t28 -90.5v-5q0 -58 -35 -94.5t-104 -36.5q-68 0 -103 44.5t-35 111.5v9q0 105 57 177q60 74 210 74zM290 390h-263v103h72v142l-35 -23l-59 85l124 84h90v-288h71v-103
zM590 390h-263v103h72v142l-35 -23l-59 85l124 84h90v-288h71v-103zM1090 0h-263v103h72v142l-35 -23l-59 85l124 84h90v-288h71v-103zM1248 143q-9 0 -17 -11v-2q0 -39 17 -39h4q6 0 11.5 7t5.5 18v5q0 10 -5.5 16t-11.5 6h-4z" />
    <glyph glyph-name="thirteensixteenths" unicode="&#xf221;" horiz-adv-x="1400" 
d="M479 0h-134l576 780h134zM1378 403v-104q-84 0 -119 -35q-10 -10 -18 -31q21 13 45 13q46 0 74 -32.5t28 -90.5v-5q0 -58 -35 -94.5t-104 -36.5q-68 0 -103 44.5t-35 111.5v9q0 105 57 177q60 74 210 74zM431 515q0 -34 18 -34h3q6 0 11.5 8t5.5 22v5q0 25 -19 25h-50v96
h49q15 0 15 25v2q0 7 -3.5 16t-10.5 9h-3q-14 0 -14 -39h-120v9q0 55 30.5 94.5t105.5 39.5q72 0 103.5 -35.5t31.5 -73.5v-10q0 -59 -48 -85q52 -29 52 -87v-10q0 -52 -37.5 -83.5t-100.5 -31.5q-64 0 -101.5 35.5t-37.5 94.5v8h120zM290 390h-263v103h72v142l-35 -23
l-59 85l124 84h90v-288h71v-103zM1090 0h-263v103h72v142l-35 -23l-59 85l124 84h90v-288h71v-103zM1248 143q-9 0 -17 -11v-2q0 -39 17 -39h4q6 0 11.5 7t5.5 18v5q0 10 -5.5 16t-11.5 6h-4z" />
    <glyph glyph-name="fifteensixteenths" unicode="&#xf222;" horiz-adv-x="1400" 
d="M479 0h-134l576 780h134zM311 515h120q0 -34 16 -34h4q18 0 18 30v5q0 30 -24 30h-1q-13 0 -24 -11l-104 35l9 210h256v-104h-157l-2 -39q24 7 46 7q58 0 89 -34t31 -91v-12q0 -63 -36.5 -96.5t-101.5 -33.5q-64 0 -101.5 35.5t-37.5 94.5v8zM1378 403v-104
q-84 0 -119 -35q-10 -10 -18 -31q21 13 45 13q46 0 74 -32.5t28 -90.5v-5q0 -58 -35 -94.5t-104 -36.5q-68 0 -103 44.5t-35 111.5v9q0 105 57 177q60 74 210 74zM290 390h-263v103h72v142l-35 -23l-59 85l124 84h90v-288h71v-103zM1090 0h-263v103h72v142l-35 -23l-59 85
l124 84h90v-288h71v-103zM1248 143q-9 0 -17 -11v-2q0 -39 17 -39h4q6 0 11.5 7t5.5 18v5q0 10 -5.5 16t-11.5 6h-4z" />
    </font>
</defs>
</svg>
