<svg xmlns="http://www.w3.org/2000/svg" width="69" height="112" viewBox="0 0 69 112"><path fill="#FFF" d="M3.976 82.418v15.568c.883-1.07 2.273-1.836 4.279-1.836 3.101 0 4.358 2.301 4.358 4.932v9.946h-3.45v-9.37c0-1.398-.668-2.412-2.245-2.412-1.632 0-2.54.986-2.942 1.671v10.111H.5V29.554L34.5 0l34 29.554v52.864H3.976zm1.755-50.472v45.23h57.538v-45.23L34.5 6.94 5.73 31.946zM35.062 66.12h.236c4.747 0 9.023-1.337 12.907-4.207l2 2.713c-5.178 4.088-10.435 4.992-15.025 4.992-11.102 0-18.988-6.84-18.988-18.987v-1.573c0-12.147 7.846-18.988 18.792-18.988 9.376 0 17.458 4.679 17.458 15.647v1.179c0 9.435-4.59 11.99-10.671 11.99h-3.374l-.432-2.476c-1.059 1.69-2.863 2.987-5.61 2.987-5.06 0-7.414-4.01-7.414-9.16v-1.179c0-5.15 2.354-9.16 7.414-9.16 2.747 0 4.551 1.298 5.61 3.027l.432-2.515h4.001l-.313 5.503v9.553c4.629-.196 6.708-1.887 6.708-8.57v-1.18c0-9.356-6.826-12.147-13.691-12.147h-.236c-8.866 0-15.143 5.347-15.143 15.49v1.572c0 10.3 6.316 15.489 15.34 15.489zm2.511-13.052v-6.84c-.588-.944-1.922-2.28-3.923-2.28-2.746 0-3.962 2.044-3.962 5.11v1.18c0 3.066 1.216 5.11 3.962 5.11 2 0 3.335-1.336 3.923-2.28zm-15.075 58.317c-4.439 0-6.417-3.042-6.417-7.18v-.876c0-4.165 1.978-7.18 6.417-7.18s6.418 3.015 6.418 7.18v.877c0 4.137-1.979 7.179-6.418 7.179zm0-3.124c2.032 0 2.942-1.562 2.942-4.055v-.877c0-2.521-.91-4.083-2.942-4.083s-2.941 1.562-2.941 4.083v.877c0 2.493.909 4.055 2.941 4.055zm29.726 2.767h-3.476v-9.617c0-1.48-.695-2.165-2.006-2.165-1.443 0-2.192.904-2.62 1.562v10.22h-3.45v-9.617c0-1.48-.721-2.165-2.032-2.165-1.444 0-2.192.904-2.594 1.562v10.22H32.57v-10.412l-.24-4.11h3.075l.294 1.808c.856-1.233 2.22-2.164 4.305-2.164 1.872 0 3.075.904 3.663 2.301.83-1.315 2.247-2.301 4.412-2.301 2.835 0 4.145 1.973 4.145 4.713v10.165zm16.276-5.946h-9.359c.134 2.384 1.203 3.535 3.182 3.535 1.899 0 2.888-1.15 2.888-2.247H68.5v.11c0 2.603-2.14 4.905-6.204 4.905-4.572 0-6.631-3.124-6.631-7.262v-.712c0-4.138 2.112-7.261 6.498-7.261 4.358 0 6.337 3.123 6.337 7.261v1.671zm-6.418-6.165c-1.871 0-2.807 1.233-2.941 3.535h5.856c-.107-2.302-1.016-3.535-2.915-3.535z"/></svg>