<?xml version="1.0" standalone="no"?>
<!DOCTYPE svg PUBLIC "-//W3C//DTD SVG 20010904//EN"
 "http://www.w3.org/TR/2001/REC-SVG-20010904/DTD/svg10.dtd">
<svg version="1.0" xmlns="http://www.w3.org/2000/svg"
 width="896.000000pt" height="896.000000pt" viewBox="0 0 896.000000 896.000000"
 preserveAspectRatio="xMidYMid meet">
<metadata>
Created by potrace 1.11, written by Peter Selinger 2001-2013
</metadata>
<g transform="translate(0.000000,896.000000) scale(0.100000,-0.100000)"
fill="#000000" stroke="none">
<path d="M4449 8933 c-19 -15 -39 -33 -45 -39 -6 -5 -35 -30 -64 -55 -29 -24
-67 -57 -85 -74 -18 -16 -45 -41 -61 -54 -16 -13 -60 -52 -99 -85 -38 -34 -83
-72 -99 -86 -16 -14 -34 -29 -40 -35 -6 -5 -45 -39 -86 -74 -41 -36 -85 -74
-96 -85 -12 -12 -32 -30 -45 -40 -13 -11 -42 -35 -64 -55 -22 -20 -67 -58 -99
-86 -32 -27 -64 -54 -70 -60 -12 -11 -60 -52 -155 -135 -35 -30 -71 -62 -80
-70 -9 -8 -46 -40 -81 -70 -36 -30 -69 -60 -75 -66 -5 -6 -59 -53 -120 -104
-60 -52 -123 -106 -140 -121 -38 -34 -134 -118 -159 -139 -10 -8 -39 -33 -63
-55 -61 -53 -73 -64 -124 -106 -24 -21 -56 -48 -70 -60 -23 -22 -109 -98 -165
-146 -12 -10 -46 -39 -75 -65 -30 -25 -65 -56 -79 -68 -37 -31 -140 -122 -166
-145 -12 -11 -44 -38 -69 -60 -119 -101 -114 -93 -117 -173 -2 -40 0 -72 3
-72 4 0 3 -15 0 -32 -4 -18 -4 -48 0 -65 4 -19 3 -33 -3 -33 -5 0 -7 -4 -3 -9
3 -5 5 -31 5 -58 0 -26 0 -56 0 -65 0 -27 0 -47 0 -131 0 -43 2 -82 5 -88 4
-5 3 -9 -2 -9 -9 0 -8 -83 1 -106 3 -8 2 -14 -2 -14 -6 0 -7 -100 -2 -220 0
-21 1 -127 1 -177 0 -7 0 -42 0 -78 0 -36 0 -73 -1 -82 0 -32 1 -148 2 -163 0
-8 0 -26 -1 -40 0 -14 -1 -36 -1 -50 0 -14 -2 -60 -3 -103 -1 -42 1 -77 4 -77
4 0 4 -15 0 -32 -4 -18 -4 -48 0 -65 3 -18 3 -33 -1 -33 -4 0 -4 -19 0 -43 3
-24 3 -55 -1 -69 -4 -14 -3 -31 1 -38 5 -8 5 -23 0 -34 -4 -12 -4 -30 0 -41 4
-11 4 -32 0 -46 -4 -15 -4 -32 0 -39 5 -7 6 -19 3 -26 -7 -20 -9 -174 -2 -174
4 0 3 -15 0 -32 -4 -18 -4 -48 0 -65 4 -19 3 -33 -3 -33 -5 0 -7 -4 -3 -9 3
-5 5 -31 5 -58 0 -26 0 -56 0 -65 0 -27 0 -47 0 -131 0 -43 2 -82 5 -88 4 -5
3 -9 -2 -9 -9 0 -8 -83 1 -106 3 -8 1 -14 -5 -14 -6 0 -8 -4 -4 -9 3 -5 5 -31
5 -58 0 -26 0 -57 0 -68 0 -25 0 -40 -3 -138 -1 -42 1 -77 4 -77 4 0 4 -15 0
-33 -4 -17 -4 -47 0 -65 3 -18 2 -32 -3 -32 -5 0 -7 -4 -3 -9 3 -5 5 -31 5
-58 0 -26 0 -56 0 -65 0 -27 0 -47 0 -131 0 -43 2 -82 5 -88 4 -5 3 -9 -2 -9
-9 0 -8 -83 1 -106 3 -8 2 -14 -2 -14 -7 0 -6 -152 2 -183 2 -9 1 -17 -2 -17
-8 0 -6 -86 2 -106 3 -8 1 -14 -5 -14 -6 0 -8 -4 -4 -9 3 -5 5 -31 5 -58 0
-26 0 -57 0 -68 0 -25 0 -40 -3 -138 -1 -42 1 -77 4 -77 4 0 4 -15 0 -32 -4
-18 -4 -48 0 -65 3 -19 2 -33 -3 -33 -5 0 -7 -4 -3 -9 3 -5 5 -31 5 -58 0 -26
0 -56 0 -65 0 -27 0 -47 0 -131 0 -43 2 -82 5 -88 4 -5 3 -9 -2 -9 -9 0 -8
-83 1 -106 3 -8 1 -14 -5 -14 -6 0 -8 -4 -4 -9 3 -5 5 -31 5 -58 0 -26 0 -57
0 -68 0 -25 0 -40 -3 -138 -1 -42 1 -77 4 -77 4 0 4 -15 0 -32 -4 -18 -4 -48
0 -65 3 -18 3 -33 -1 -33 -4 0 -4 -19 0 -43 3 -24 3 -55 -1 -69 -4 -14 -3 -31
1 -38 5 -8 5 -23 0 -34 -4 -12 -4 -30 0 -41 4 -11 4 -32 0 -46 -4 -15 -4 -32
0 -39 5 -7 6 -19 3 -26 -7 -20 -9 -174 -2 -174 4 0 4 -15 0 -32 -4 -18 -4 -48
0 -65 3 -18 3 -33 0 -33 -4 0 -4 -25 -1 -55 3 -30 2 -61 -2 -69 -18 -32 14
-41 148 -40 l129 1 1 403 c2 452 -1 432 76 486 55 39 106 53 175 49 74 -4 114
-28 145 -88 20 -40 21 -55 21 -444 0 -222 4 -403 9 -404 4 0 60 -1 123 -1 63
0 122 1 130 1 14 1 16 51 15 429 -2 450 -5 496 -49 584 -60 122 -171 181 -329
173 -114 -6 -185 -32 -264 -97 -27 -22 -48 -36 -49 -31 -1 11 -1 1139 0 1189
l1 40 2568 -1 c1412 0 2572 1 2579 3 10 3 15 35 13 90 0 9 0 26 0 37 1 11 1
27 1 35 -1 8 -1 29 0 45 0 17 0 37 -1 45 0 18 0 31 3 133 1 42 -1 77 -4 77 -4
0 -4 15 0 33 4 17 4 47 0 65 -3 17 -3 32 1 32 4 0 4 19 0 43 -3 24 -3 55 1 69
4 14 3 31 -1 38 -5 8 -5 23 0 34 4 12 4 30 0 41 -4 11 -4 32 0 46 4 15 4 32 0
39 -5 7 -6 19 -3 26 7 20 9 174 2 174 -4 0 -4 15 0 33 4 17 4 47 0 65 -3 18
-2 32 3 32 5 0 7 4 3 9 -3 5 -5 31 -5 58 0 45 0 59 0 101 -1 17 -1 202 0 232
0 8 0 44 -1 80 0 36 0 71 0 78 0 6 0 41 0 77 0 36 0 73 1 83 0 9 0 46 -1 82 0
36 0 72 1 80 1 50 -2 105 -6 112 -3 4 -2 8 3 8 9 0 8 83 -1 106 -3 8 -1 14 5
14 6 0 8 4 4 9 -3 5 -5 31 -5 58 0 26 0 57 0 68 0 25 0 40 3 138 1 42 -1 77
-4 77 -4 0 -4 15 0 33 4 17 4 47 0 65 -3 18 -2 32 3 32 5 0 7 4 3 9 -3 5 -5
31 -5 58 0 26 0 56 0 66 0 26 0 46 0 130 0 43 -2 82 -5 88 -4 5 -3 9 2 9 9 0
8 83 -1 106 -3 8 -2 14 2 14 6 0 7 100 2 220 0 21 -1 127 -1 178 0 6 0 41 0
77 0 36 0 73 1 83 0 17 -1 138 -1 157 0 6 0 35 1 65 1 136 1 136 -38 170 -103
88 -137 117 -162 140 -15 14 -53 48 -86 75 -32 28 -69 60 -83 72 -15 13 -31
27 -37 31 -17 15 -168 146 -180 157 -11 10 -95 83 -188 164 -28 24 -78 67
-111 96 -66 59 -83 73 -270 235 -71 62 -143 124 -160 139 -16 14 -66 57 -110
95 -73 63 -106 92 -154 136 -9 8 -32 28 -51 44 -40 33 -156 134 -180 156 -9 8
-36 31 -60 51 -25 20 -59 50 -76 65 -16 16 -55 50 -85 76 -29 25 -65 56 -79
68 -14 12 -47 41 -74 64 -27 22 -58 50 -70 61 -12 11 -53 47 -91 80 -39 32
-86 74 -105 91 -19 18 -71 63 -115 100 -44 38 -82 71 -85 74 -3 3 -19 18 -36
33 l-31 28 -34 -28z m101 -589 c74 -65 151 -131 230 -200 30 -26 69 -60 85
-75 17 -15 66 -58 110 -95 44 -38 82 -71 85 -74 3 -3 55 -48 115 -100 61 -52
115 -99 121 -105 6 -5 40 -35 74 -65 35 -30 71 -62 80 -70 10 -8 44 -37 76
-65 57 -49 91 -79 210 -182 32 -28 70 -61 84 -73 14 -12 39 -34 55 -48 17 -15
62 -54 100 -87 39 -33 72 -62 75 -65 8 -8 142 -124 174 -151 16 -13 36 -31 45
-40 9 -8 81 -71 161 -140 80 -68 150 -128 156 -134 10 -9 89 -78 162 -142 l33
-29 0 -1803 c0 -992 -2 -1806 -6 -1809 -9 -9 -4586 -8 -4592 1 -2 4 -5 818 -4
1809 l0 1800 23 22 c12 11 43 38 68 60 41 35 136 118 180 156 9 8 46 40 80 70
35 30 74 64 86 75 12 11 41 36 64 55 23 19 52 44 64 55 21 18 66 58 156 136
19 17 53 46 75 66 22 19 62 54 89 77 27 22 56 48 65 57 14 13 247 216 335 290
15 13 38 33 50 44 21 19 127 112 166 145 10 8 40 34 66 57 27 22 63 54 81 70
17 15 53 46 79 68 26 22 52 45 58 50 6 6 81 71 166 144 85 74 165 144 176 155
12 12 32 30 45 40 13 11 46 39 74 63 27 24 52 43 55 43 3 0 34 -25 70 -56z"/>
<path d="M4457 6553 c-1 -1 -32 -3 -68 -4 -36 -1 -101 -8 -145 -16 -43 -7 -86
-14 -94 -14 -8 -1 -29 -5 -47 -10 -17 -6 -44 -12 -59 -15 -15 -3 -59 -16 -98
-31 -39 -14 -81 -27 -93 -30 -12 -3 -28 -11 -34 -19 -6 -8 -17 -14 -24 -14
-12 0 -94 -43 -160 -85 -319 -201 -542 -571 -600 -995 -24 -179 -24 -572 0
-705 32 -171 68 -304 100 -364 8 -17 13 -31 10 -31 -9 0 86 -173 131 -238 58
-83 56 -81 155 -180 161 -163 361 -278 604 -345 88 -25 118 -31 200 -43 22 -3
65 -9 95 -14 30 -4 141 -6 245 -4 211 3 245 6 385 34 30 6 66 14 80 16 95 19
439 156 460 184 3 4 21 15 40 25 49 25 190 127 190 137 0 5 -32 52 -72 106
-40 53 -74 99 -76 102 -1 2 -15 -4 -30 -13 -198 -127 -399 -223 -524 -253 -10
-2 -27 -6 -38 -9 -150 -37 -252 -49 -450 -49 -201 0 -264 6 -412 44 -251 64
-441 187 -598 386 -81 104 -161 288 -194 448 -32 155 -38 214 -38 414 0 210
13 334 48 462 8 30 17 63 19 73 15 67 82 208 140 296 82 124 219 248 358 325
50 27 159 75 186 82 9 2 41 10 71 19 71 20 93 24 230 41 57 7 290 7 360 0 55
-5 154 -24 269 -51 29 -7 107 -38 171 -69 187 -88 332 -247 406 -444 21 -55
28 -81 50 -177 21 -94 20 -488 -2 -585 -3 -14 -8 -38 -11 -55 -21 -118 -111
-252 -193 -288 -8 -4 -22 -11 -30 -16 -37 -23 -135 -46 -232 -55 -37 -3 -47 0
-50 13 -5 26 -1 734 6 866 3 66 8 166 12 221 l6 101 -161 0 c-140 0 -161 -2
-162 -16 0 -9 -2 -23 -4 -31 -12 -55 -16 -79 -21 -110 -2 -18 -6 -35 -8 -37
-1 -2 -17 17 -35 42 -34 47 -110 109 -171 140 -87 45 -258 64 -369 41 -136
-28 -278 -122 -339 -225 -61 -103 -108 -240 -114 -335 -2 -20 -5 -36 -8 -36
-3 0 -5 -71 -4 -158 1 -138 6 -202 20 -277 2 -11 7 -36 10 -55 9 -48 66 -181
95 -222 59 -82 98 -120 173 -164 89 -53 153 -68 291 -68 101 -1 131 3 189 23
99 34 170 86 244 181 l20 24 5 -29 c3 -17 11 -61 18 -98 l12 -68 208 2 c344 4
500 48 660 187 104 91 196 271 225 440 2 12 6 34 9 50 17 90 25 406 12 532
-29 298 -136 535 -327 720 -48 47 -109 100 -135 119 -100 71 -325 172 -435
195 -14 3 -56 12 -95 21 -80 17 -118 23 -227 31 -88 6 -228 11 -231 7z m23
-1117 c70 -10 159 -67 225 -145 19 -22 20 -38 20 -304 l1 -280 -51 -52 c-85
-89 -176 -126 -292 -119 -154 9 -256 118 -280 298 -8 64 -8 258 0 311 27 172
112 273 247 292 19 3 37 7 38 8 2 2 13 2 25 0 12 -2 42 -6 67 -9z"/>
<path d="M3371 1249 c-169 -43 -278 -147 -331 -317 -25 -80 -32 -141 -31 -277
0 -259 56 -405 196 -512 42 -32 135 -78 135 -67 0 2 10 -1 22 -7 29 -15 217
-21 283 -9 92 18 190 72 253 140 46 50 99 163 118 250 10 46 16 123 15 200 0
132 -3 167 -21 240 -6 25 -12 52 -14 61 -10 39 -77 146 -117 186 -47 47 -158
106 -224 118 -81 15 -211 12 -284 -6z m250 -250 c93 -53 130 -139 133 -314 3
-172 -25 -277 -90 -335 -110 -96 -306 -46 -349 90 -22 71 -28 114 -28 215 -1
210 42 311 150 351 45 17 148 13 184 -7z"/>
<path d="M4810 1255 c-19 -7 -38 -13 -43 -14 -32 -5 -101 -50 -143 -91 l-51
-50 -6 47 c-9 67 -12 82 -18 88 -3 3 -46 5 -95 5 -49 -1 -102 -1 -118 0 l-28
0 7 -127 c4 -71 8 -328 9 -573 1 -245 5 -449 8 -455 5 -8 227 -12 268 -6 3 1
5 186 4 412 l0 412 46 47 c95 97 252 93 302 -8 21 -44 21 -55 22 -454 0 -278
3 -408 10 -409 14 -1 248 -1 259 0 4 1 7 185 7 411 l0 409 31 35 c53 61 93 79
175 80 59 1 78 -3 101 -20 61 -45 61 -49 62 -499 1 -225 5 -412 10 -415 5 -3
67 -4 138 -4 l128 2 0 458 c0 416 -2 464 -18 511 -53 152 -167 226 -334 218
-123 -6 -229 -54 -293 -134 l-33 -40 -30 42 c-68 94 -134 128 -255 132 -49 1
-102 -3 -122 -10z"/>
<path d="M6610 1263 c-229 -32 -374 -178 -425 -428 -11 -52 -13 -270 -4 -321
5 -27 12 -64 15 -82 9 -53 58 -152 103 -210 90 -114 229 -171 410 -170 58 1
124 7 148 14 24 7 43 11 43 9 0 -2 26 8 58 21 53 24 131 79 159 114 30 35 72
139 78 187 l6 53 -130 0 -130 0 -11 -40 c-27 -100 -166 -161 -296 -130 -100
24 -163 106 -178 232 -2 21 -1 38 2 39 4 0 170 2 369 2 199 1 364 5 368 9 19
18 0 270 -26 354 -34 112 -57 149 -136 229 -36 37 -116 86 -140 87 -4 0 -12 3
-18 8 -22 17 -198 33 -265 23z m156 -229 c76 -15 149 -131 149 -234 l0 -35
-232 0 -232 0 5 44 c14 122 77 210 162 227 8 1 16 4 18 6 5 5 92 0 130 -8z"/>
</g>
</svg>
