<svg width="69" height="70" viewBox="0 0 69 70" fill="none" xmlns="http://www.w3.org/2000/svg">
<path fill-rule="evenodd" clip-rule="evenodd" d="M35 64.5714C51.0952 64.5714 64.1429 51.3318 64.1429 35C64.1429 18.6681 51.0952 5.42857 35 5.42857C18.9048 5.42857 5.85714 18.6681 5.85714 35C5.85714 51.3318 18.9048 64.5714 35 64.5714ZM35 69.5C53.7777 69.5 69 54.0538 69 35C69 15.9462 53.7777 0.5 35 0.5C16.2223 0.5 1 15.9462 1 35C1 54.0538 16.2223 69.5 35 69.5Z" fill="#FF2400"/>
<path d="M24.6854 16C25.0317 16 25.3533 16.1791 25.5356 16.4734L33.6499 29.5739C34.0409 30.2051 34.9591 30.2051 35.3501 29.5739L43.4644 16.4734C43.6467 16.1791 43.9683 16 44.3146 16H47.8971C48.6842 16 49.1627 16.8671 48.7432 17.533L37.8784 34.7783C37.6728 35.1046 37.6732 35.5201 37.8794 35.8461L49.0288 53.4653C49.4502 54.1311 48.9718 55 48.1838 55H44.5509C44.2056 55 43.8848 54.8219 43.7022 54.5288L35.3487 41.1212C34.9573 40.4929 34.0427 40.4929 33.6513 41.1212L25.2978 54.5288C25.1153 54.8219 24.7944 55 24.4491 55H20.8162C20.0282 55 19.5498 54.1311 19.9712 53.4653L31.1206 35.8461C31.3268 35.5201 31.3272 35.1046 31.1216 34.7783L20.2568 17.533C19.8373 16.8671 20.3158 16 21.1029 16H24.6854Z" fill="#FF2400"/>
</svg>
