<svg xmlns="http://www.w3.org/2000/svg" width="106" height="50" viewBox="0 0 106 50"><g fill="none" fill-rule="evenodd"><path fill="#93CFA9" d="M30.446 26.794v-8.7H14.222V.88H0v47.592h14.222V28.617h16.243v19.855h14.147c-2.79-.686-5.277-1.757-7.404-3.21-5.926-4.112-6.762-11.429-6.762-18.468"/><path fill="#12C2F2" d="M75.135 3.353V.88H61.819v24.16c.065-9.787 5.148-17.532 13.316-21.686M61.819 25.425v1.161c0 7.038-1.116 11.08-8.994 11.08-6.744 0-8.044-3.906-8.206-9.588v20.394h-.007c2.426.596 5.08.902 7.935.902 7.296 0 13.297-2.11 17.34-6.056-5.043-4.207-8.016-10.403-8.068-17.893"/><path fill="#00B7B1" d="M44.619 28.078a51.82 51.82 0 0 1-.02-1.492V.881H30.466v17.214h-.02v8.7c0 7.038.837 14.355 6.762 18.467 2.126 1.454 4.614 2.525 7.404 3.21h.007V28.078z"/><path fill="#65C6C1" d="M91.04 11.151c3.91 0 7.688.766 11.067 2.16l3.38-10.244C102.107 1.603 96.673 0 90.112 0c-5.645 0-10.728 1.192-14.977 3.354v21.734c0-8.292 6.627-13.937 15.905-13.937"/><path fill="#65C2BF" d="M61.819 25.425c-.001-.066-.005-.13-.005-.197 0-.064.004-.125.005-.189v.386"/><path fill="#65C6C1" d="M92.564 37.841c-1.06.28-2.122.349-3.38.349-8.018 0-14.049-5.367-14.049-13.102v1.009c0 7.038-.767 12.753-5.09 17.073-.05.051-.105.099-.157.149 4.597 3.836 10.911 6.02 18.303 6.02 4.307 0 8.946-.696 13.055-2.09.73-.279 1.855-.697 3.976-1.603V24.39H92.564v13.45z"/><path fill="#00B3BE" d="M75.135 26.097V3.353C66.967 7.508 61.884 15.252 61.819 25.04v.386c.052 7.488 3.025 13.685 8.068 17.893.053-.05.107-.098.158-.149 4.323-4.32 5.09-10.035 5.09-17.073"/></g></svg>