<svg xmlns="http://www.w3.org/2000/svg" xmlns:xlink="http://www.w3.org/1999/xlink" width="215" height="50" viewBox="0 0 215 50"><defs><path id="hug-logo-a" d="M0 49.374h214.932V0H0z"/></defs><g fill="none" fill-rule="evenodd"><path fill="#93CFA9" d="M30.446 26.794v-8.7H14.222V.88H0v47.592h14.222V28.617h16.243v19.855h14.147c-2.79-.686-5.277-1.757-7.404-3.21-5.926-4.112-6.762-11.429-6.762-18.468"/><path fill="#12C2F2" d="M75.135 3.353V.88H61.819v24.16c.065-9.787 5.148-17.532 13.316-21.686M61.819 25.425v1.161c0 7.038-1.116 11.08-8.994 11.08-6.744 0-8.044-3.906-8.206-9.588v20.394h-.007c2.426.596 5.08.902 7.935.902 7.296 0 13.297-2.11 17.34-6.056-5.043-4.207-8.016-10.403-8.068-17.893"/><path fill="#00B7B1" d="M44.619 28.078a51.82 51.82 0 0 1-.02-1.492V.881H30.466v17.214h-.02v8.7c0 7.038.837 14.355 6.762 18.467 2.126 1.454 4.614 2.525 7.404 3.21h.007V28.078z"/><path fill="#65C6C1" d="M91.04 11.151c3.91 0 7.688.766 11.067 2.16l3.38-10.244C102.107 1.603 96.673 0 90.112 0c-5.645 0-10.728 1.192-14.977 3.354v21.734c0-8.292 6.627-13.937 15.905-13.937"/><path fill="#65C2BF" d="M61.819 25.425c-.001-.066-.005-.13-.005-.197 0-.064.004-.125.005-.189v.386"/><path fill="#65C6C1" d="M92.564 37.841c-1.06.28-2.122.349-3.38.349-8.018 0-14.049-5.367-14.049-13.102v1.009c0 7.038-.767 12.753-5.09 17.073-.05.051-.105.099-.157.149 4.597 3.836 10.911 6.02 18.303 6.02 4.307 0 8.946-.696 13.055-2.09.73-.279 1.855-.697 3.976-1.603V24.39H92.564v13.45z"/><path fill="#00B3BE" d="M75.135 26.097V3.353C66.967 7.508 61.884 15.252 61.819 25.04v.386c.052 7.488 3.025 13.685 8.068 17.893.053-.05.107-.098.158-.149 4.323-4.32 5.09-10.035 5.09-17.073"/><path fill="#58585B" d="M130.169 14.434v-5.55h-6.319v5.55h-1.322V2.828h1.322v4.993h6.319V2.828h1.323v11.606zm7.205-7.256c-1.41 0-2.436 1.252-2.436 2.992 0 2.001 1.01 3.342 2.505 3.342 1.446 0 2.403-1.219 2.403-3.046 0-2-.975-3.288-2.472-3.288zm1.916-1.775l-1.847-1.253-1.915 1.253-.642-.748 2.557-2.053 2.49 2.053-.643.748zm-2.02 9.222c-2.14 0-3.586-1.705-3.586-4.246 0-1.217.26-2.036.905-2.836.748-.94 1.792-1.461 2.924-1.461 2.142 0 3.604 1.723 3.604 4.21 0 2.488-1.636 4.333-3.847 4.333zm9.66-7.342c-.924 0-1.897.609-2.628 1.618v3.097c.73 1.026 1.584 1.566 2.453 1.566 1.376 0 2.333-1.358 2.333-3.272 0-1.774-.888-3.01-2.158-3.01m-.192 7.378c-.957 0-1.724-.382-2.436-1.218v5.011h-1.185V6.343h1.185v1.2c1.043-1.026 1.862-1.444 2.889-1.444 1.88 0 3.167 1.601 3.167 3.915 0 2.75-1.479 4.646-3.62 4.646"/><mask id="hug-logo-b" fill="#fff"><use xlink:href="#hug-logo-a"/></mask><path fill="#58585B" d="M152.377 14.434h1.201V6.343h-1.2v8.091zm.61-8.993a.78.78 0 0 1-.783-.783.78.78 0 0 1 .783-.783.78.78 0 0 1 .784.783.78.78 0 0 1-.784.783zm5.221 9.166c-1.409 0-2.053-.609-2.053-1.914V7.265h-1.359v-.923h1.359V4.134h1.182v2.208h2.072v.923h-2.072v4.802c0 .348.018.696.053.852.087.47.47.697 1.2.697.262 0 .47-.035.82-.105v.922c-.593.14-.836.174-1.202.174m6.894-4.28c-2.282.61-3.309 1.306-3.309 2.227 0 .522.366.888.906.888.678 0 1.601-.54 2.403-1.427v-1.688zm1.408 4.298c-.817 0-1.287-.505-1.34-1.41-.312.296-.434.4-.627.54-.695.539-1.392.818-2.088.818-1.097 0-1.897-.818-1.897-1.93 0-1.55 1.462-2.629 4.544-3.308v-.347c0-1.358-.28-1.792-1.132-1.792-.33 0-.627.069-1.01.243-.505.208-.871.417-1.567.958l-.626-.75c.974-.921 2.367-1.565 3.394-1.565.732 0 1.323.244 1.67.714.35.434.454.956.454 2.017v3.934c0 .12.016.243.035.364.069.331.261.487.592.487.121 0 .209-.017.435-.069l.156.818c-.366.19-.662.278-.993.278zm7.572-.191v-1.27c-.905.956-2.002 1.478-3.099 1.478-.73 0-1.322-.261-1.705-.713-.4-.487-.523-1.061-.523-2.4V6.341h1.184v4.82c0 .679.018.975.053 1.253.087.678.574 1.08 1.27 1.08.853 0 1.932-.627 2.82-1.637V6.342h1.219v8.092h-1.22zm8.859 0l-2.453-3.428-2.421 3.428h-1.409l3.115-4.298-2.819-3.794h1.548l2.108 2.907 2.106-2.907h1.375l-2.804 3.794 3.204 4.298zm-56.184 15.869c-1.323 0-2.35-.366-3.15-1.096-.802-.731-1.133-1.723-1.133-3.324v-7.43h1.324v7.43c0 .922.051 1.27.313 1.793.436.921 1.445 1.443 2.716 1.443.887 0 1.67-.226 2.297-.661.87-.609 1.132-1.322 1.132-2.94v-7.064h1.218v7.307c0 2.836-1.776 4.542-4.717 4.542m12.688-.244v-4.89c0-.609 0-.713-.017-1.043-.052-.853-.505-1.305-1.253-1.305-.905 0-1.88.54-2.855 1.6v5.638h-1.202v-8.09h1.202v1.2c.4-.366.54-.47.801-.661.731-.522 1.48-.784 2.246-.784s1.34.244 1.757.731c.4.488.523 1.01.523 2.245v5.359h-1.202zm3.655-.001h1.202v-8.09H143.1v8.09zm.61-8.992a.78.78 0 0 1-.785-.783.78.78 0 0 1 .785-.782.78.78 0 0 1 .783.782.78.78 0 0 1-.783.783zm6.352 8.993h-1.097l-3.307-8.091h1.358l2.577 6.507 2.697-6.507h1.236zm8.041-7.325c-1.148 0-2.054.887-2.28 2.262l4.231-.087c-.035-1.34-.784-2.175-1.95-2.175m2.436 6.664c-.975.608-1.775.87-2.664.87-2.105 0-3.48-1.636-3.48-4.124 0-2.575 1.618-4.437 3.83-4.437 1.983 0 3.097 1.392 3.097 3.81v.383h-5.587v.262c0 1.86.853 2.974 2.297 2.974.524 0 1.114-.138 1.62-.4.383-.191.574-.313 1.218-.765l.575.748c-.314.313-.453.4-.906.679m6.789-6.334c-.28-.122-.401-.138-.575-.138-.73 0-1.653.921-2.228 2.21v4.923h-1.184v-8.09h1.184v1.565c.07-.14.139-.244.174-.295.209-.313.61-.749.958-1.01a2.028 2.028 0 0 1 1.252-.434c.262 0 .4.034.75.156l-.331 1.113zm5.447 6.612c-.643.418-1.359.591-2.506.591-.244 0-.453-.017-.661-.034-.488-.035-.731-.087-1.341-.279l.209-.94c.21.053.366.088.487.123.383.07.853.122 1.235.122 1.498 0 2.438-.54 2.438-1.393 0-.33-.158-.626-.47-.886-.26-.227-.488-.349-1.27-.731-.993-.488-1.307-.645-1.672-.922a1.74 1.74 0 0 1-.713-1.41c0-1.34 1.218-2.227 3.08-2.227.226 0 .471.018.75.052.434.035.661.07 1.218.191l-.244.957c-.748-.156-1.219-.209-1.672-.209-1.131 0-1.845.418-1.845 1.08 0 .47.314.713 1.342 1.217l.573.28c.87.416 1.254.642 1.62.99.382.366.608.923.608 1.462 0 .784-.417 1.497-1.166 1.966m3.012.382h1.2v-8.09h-1.2v8.09zm.608-8.992a.78.78 0 0 1-.783-.783.78.78 0 0 1 .783-.782.78.78 0 0 1 .784.782.78.78 0 0 1-.784.783zm5.222 9.167c-1.41 0-2.054-.609-2.054-1.914V22.89h-1.359v-.923h1.359v-2.21h1.184v2.21h2.07v.923h-2.07v4.802c0 .348.016.696.05.852.09.47.472.696 1.203.696.26 0 .47-.034.818-.105v.922c-.593.14-.836.175-1.2.175m6.891-4.279c-2.28.608-3.307 1.305-3.307 2.227 0 .522.366.887.905.887.679 0 1.602-.54 2.403-1.427v-1.687zm1.41 4.297c-.818 0-1.288-.504-1.34-1.41-.313.296-.436.4-.627.54-.696.54-1.393.818-2.089.818-1.097 0-1.897-.818-1.897-1.931 0-1.55 1.462-2.627 4.544-3.306v-.348c0-1.357-.28-1.792-1.132-1.792-.33 0-.627.07-1.01.243-.505.209-.87.418-1.567.957l-.625-.748c.974-.922 2.366-1.566 3.393-1.566.732 0 1.324.244 1.671.714.348.434.453.956.453 2.019v3.931c0 .122.017.244.035.365.07.33.261.488.592.488.121 0 .21-.018.436-.07l.155.818c-.365.191-.662.278-.993.278zm2.28-.192h1.2v-8.09h-1.2v8.09zm.608-8.992a.78.78 0 0 1-.782-.783.78.78 0 0 1 .782-.782.78.78 0 0 1 .785.782.78.78 0 0 1-.785.783zm7.068 1.998c-.279-.122-.4-.138-.575-.138-.73 0-1.653.921-2.228 2.21v4.923h-1.184v-8.09h1.184v1.565c.07-.14.14-.244.174-.295.208-.313.61-.749.958-1.01a2.026 2.026 0 0 1 1.253-.434c.261 0 .4.034.749.156l-.33 1.113zm4.821-.33c-1.149 0-2.055.887-2.281 2.262l4.23-.087c-.034-1.34-.783-2.175-1.95-2.175m2.438 6.664c-.975.608-1.776.87-2.665.87-2.105 0-3.48-1.636-3.48-4.124 0-2.575 1.618-4.437 3.83-4.437 1.984 0 3.097 1.392 3.097 3.81v.383h-5.587v.262c0 1.86.853 2.974 2.298 2.974a3.64 3.64 0 0 0 1.619-.4c.383-.191.574-.313 1.219-.765l.573.748c-.313.313-.451.4-.904.679m6.631.278c-.644.418-1.359.591-2.506.591-.245 0-.453-.017-.662-.034-.487-.035-.73-.087-1.34-.279l.21-.94c.208.053.364.088.485.123.384.07.854.122 1.236.122 1.498 0 2.438-.54 2.438-1.393 0-.33-.158-.626-.47-.886-.261-.227-.488-.349-1.271-.731-.992-.488-1.306-.645-1.671-.922a1.742 1.742 0 0 1-.714-1.41c0-1.34 1.219-2.227 3.08-2.227.227 0 .472.018.75.052.435.035.662.07 1.219.191l-.245.957c-.747-.156-1.218-.209-1.67-.209-1.132 0-1.846.418-1.846 1.08 0 .47.314.713 1.342 1.217l.574.28c.868.416 1.253.642 1.619.99.381.366.608.923.608 1.462 0 .784-.417 1.497-1.166 1.966m-83.857 16.096a9.154 9.154 0 0 1-1.81.209c-3.639 0-6.093-2.402-6.093-5.952 0-3.583 2.733-6.159 6.51-6.159 1.097 0 1.984.174 3.238.644l-.366 1.027c-.278-.088-.487-.174-.626-.209a7.682 7.682 0 0 0-2.21-.314c-3.083 0-5.154 1.984-5.154 4.924 0 2.89 1.984 4.925 4.805 4.925.748 0 1.637-.157 2.403-.418v-4.28h1.322v4.941c-.94.383-1.34.505-2.02.662m7.52-7.412c-1.15 0-2.053.886-2.28 2.26l4.23-.086c-.035-1.34-.784-2.175-1.95-2.175m2.436 6.664c-.974.61-1.774.87-2.663.87-2.105 0-3.48-1.635-3.48-4.124 0-2.575 1.618-4.436 3.829-4.436 1.983 0 3.099 1.391 3.099 3.81v.383h-5.588v.26c0 1.863.853 2.976 2.298 2.976a3.64 3.64 0 0 0 1.618-.4c.383-.191.575-.312 1.218-.766l.576.75c-.314.313-.453.4-.907.677m8.129.661v-4.889c0-.609 0-.713-.018-1.044-.052-.852-.504-1.305-1.253-1.305-.905 0-1.88.54-2.854 1.6v5.638h-1.201v-8.09h1.2v1.2c.4-.366.54-.47.802-.661.73-.522 1.478-.783 2.245-.783.766 0 1.34.243 1.758.731.4.487.521 1.01.521 2.245v5.358h-1.2zm7.745-9.064l-2.785-1.724.888-1.061 2.524 2.036-.627.748zm-.887 1.74c-1.149 0-2.055.886-2.28 2.26l4.23-.086c-.035-1.34-.785-2.175-1.95-2.175zm2.437 6.664c-.975.608-1.775.87-2.664.87-2.105 0-3.48-1.636-3.48-4.125 0-2.574 1.617-4.437 3.83-4.437 1.983 0 3.097 1.392 3.097 3.81v.384h-5.588v.26c0 1.862.853 2.976 2.298 2.976.522 0 1.114-.14 1.619-.4.383-.191.575-.313 1.218-.766l.575.749c-.314.313-.453.4-.905.679zm6.074.66h-1.097l-3.307-8.091h1.358l2.576 6.508 2.698-6.508h1.236zm8.041-7.324c-1.15 0-2.053.886-2.28 2.26l4.23-.086c-.035-1.34-.784-2.175-1.95-2.175m2.436 6.664c-.974.61-1.774.87-2.662.87-2.106 0-3.482-1.635-3.482-4.124 0-2.575 1.619-4.436 3.83-4.436 1.983 0 3.098 1.391 3.098 3.81v.383h-5.587v.26c0 1.863.852 2.976 2.297 2.976a3.64 3.64 0 0 0 1.619-.4c.383-.191.575-.312 1.219-.766l.575.75c-.314.313-.453.4-.907.677" mask="url(#hug-logo-b)"/></g></svg>