<svg xmlns="http://www.w3.org/2000/svg" width="30" height="30" viewBox="0 0 30 30"><path d="M25.606 4.394A14.894 14.894 0 0 1 30 15c0 4.009-1.56 7.771-4.394 10.606A14.894 14.894 0 0 1 15 30c-4.009 0-7.771-1.56-10.606-4.394A14.894 14.894 0 0 1 0 15c0-4.009 1.56-7.771 4.394-10.606A14.894 14.894 0 0 1 15 0c4.009 0 7.771 1.56 10.606 4.394zM24.4 24.4c5.183-5.183 5.183-13.617 0-18.8A13.21 13.21 0 0 0 15 1.705 13.21 13.21 0 0 0 5.6 5.6C.417 10.783.417 19.217 5.6 24.4a13.21 13.21 0 0 0 9.4 3.895 13.21 13.21 0 0 0 9.4-3.895zM21.61 8.39a.85.85 0 0 1 0 1.206L16.206 15l5.391 5.404a.85.85 0 0 1 0 1.206.821.821 0 0 1-.6.252.858.858 0 0 1-.6-.252l-5.403-5.404L9.59 21.61a.832.832 0 0 1-.6.252.858.858 0 0 1-.6-.252.85.85 0 0 1 0-1.206L13.794 15 8.39 9.596a.85.85 0 0 1 0-1.206.85.85 0 0 1 1.206 0L15 13.794l5.404-5.404a.85.85 0 0 1 1.206 0z"/></svg>