<svg xmlns="http://www.w3.org/2000/svg" width="20" height="17" viewBox="0 0 20 17"><path d="M16.042 3.42A4.965 4.965 0 0 1 14.4 7.105L12.85 8.5l1.55 1.395a4.965 4.965 0 0 1 1.642 3.685v1.492c.421.246.708.698.708 1.22v.354a.354.354 0 0 1-.354.354H4.354A.354.354 0 0 1 4 16.646v-.354c0-.522.287-.974.708-1.22V13.58c0-1.403.599-2.746 1.642-3.685L7.9 8.5 6.35 7.105A4.965 4.965 0 0 1 4.708 3.42V1.928A1.412 1.412 0 0 1 4 .708V.354C4 .158 4.158 0 4.354 0h12.042c.196 0 .354.158.354.354v.354c0 .522-.287.974-.708 1.22V3.42zm-2.59 2.632a3.548 3.548 0 0 0 1.173-2.632V2.125h-8.5V3.42c0 1.002.427 1.962 1.173 2.632l2.134 1.922a.707.707 0 0 1 0 1.052l-2.134 1.922a3.548 3.548 0 0 0-1.173 2.632v1.295h.886l3.08-4.108a.367.367 0 0 1 .567 0l3.081 4.108h.886V13.58a3.548 3.548 0 0 0-1.172-2.632l-2.135-1.922a.707.707 0 0 1 0-1.052l2.135-1.922zm-.636-1.094a.354.354 0 0 1 .262.592l-2.465 2.276a.353.353 0 0 1-.476 0L7.671 5.55a.354.354 0 0 1 .263-.592h4.882z"/></svg>