<svg xmlns="http://www.w3.org/2000/svg" width="18" height="18" viewBox="0 0 18 18"><path fill-rule="evenodd" d="M15.042 1.758h-3.254a.883.883 0 0 1-.887-.879c0-.485.397-.879.887-.879h5.325c.49 0 .887.394.887.88v5.274a.883.883 0 0 1-.887.879.883.883 0 0 1-.888-.88v-3.08l-3.836 3.8a.893.893 0 0 1-1.255 0 .873.873 0 0 1 0-1.242l3.908-3.872zM1.775 15.07l3.908-3.871a.893.893 0 0 1 1.255 0c.346.343.346.9 0 1.243l-3.837 3.8h3.11c.49 0 .888.394.888.88a.883.883 0 0 1-.887.879H.887A.883.883 0 0 1 0 17.12v-5.274c0-.485.397-.879.887-.879s.888.394.888.88v3.222z"/></svg>