<svg xmlns="http://www.w3.org/2000/svg" width="20" height="17" viewBox="0 0 20 17"><path d="M16.533 7.87v8.627a.505.505 0 0 1-.5.503h-3.64a.51.51 0 0 1-.519-.503v-3.972H8.118v3.972a.505.505 0 0 1-.5.503H3.959a.505.505 0 0 1-.5-.503V7.81L1.874 9.4c-.203.204-.528.218-.716 0-.217-.188-.204-.516 0-.72L9.638.162A.512.512 0 0 1 10.005 0c.123 0 .246.057.35.162l3.376 3.412V1.79c0-.293.227-.52.5-.52a.52.52 0 0 1 .528.52v2.816l4.094 4.13a.54.54 0 0 1 0 .74.568.568 0 0 1-.368.133.5.5 0 0 1-.368-.134L16.533 7.87z"/></svg>