<svg xmlns="http://www.w3.org/2000/svg" xmlns:xlink="http://www.w3.org/1999/xlink" width="170" height="170" viewBox="0 0 170 170"><defs><path id="audio-a" d="M105 0c57.99 0 105 47.01 105 105s-47.01 105-105 105S0 162.99 0 105 47.01 0 105 0zm0 50c-30.376 0-55 24.624-55 55s24.624 55 55 55 55-24.624 55-55-24.624-55-55-55z"/></defs><g fill="none" fill-rule="evenodd"><g transform="translate(-20 -20)"><mask id="audio-b" fill="#fff"><use xlink:href="#audio-a"/></mask><path fill="#FFF" d="M105 20c46.944 0 85 38.056 85 85s-38.056 85-85 85-85-38.056-85-85 38.056-85 85-85" mask="url(#audio-b)" opacity=".1"/><path fill="#FFF" d="M105 35c38.66 0 70 31.34 70 70s-31.34 70-70 70-70-31.34-70-70 31.34-70 70-70" mask="url(#audio-b)" opacity=".3"/></g><path fill="#FFF" d="M85 30c30.376 0 55 24.624 55 55s-24.624 55-55 55-55-24.624-55-55 24.624-55 55-55zm-.421 60.421c4.026 0 7.105-3.079 7.105-7.105v-14.21c0-4.027-3.079-7.106-7.105-7.106s-7.105 3.079-7.105 7.105v14.21c0 4.027 3.079 7.106 7.105 7.106zm12.553-7.105c0 7.105-5.921 12.079-12.553 12.079-6.632 0-12.553-4.974-12.553-12.08H68c0 8.053 6.395 14.685 14.21 15.87V107h4.737v-7.816c7.816-1.184 14.21-7.816 14.21-15.868h-4.025z"/></g></svg>