<svg xmlns="http://www.w3.org/2000/svg" width="22" height="20" viewBox="0 0 22 20"><path fill="#FFF" d="M21.646 9.475a.643.643 0 0 1 0 1.05l-2.345 1.653a.643.643 0 0 1-1.012-.525v-1.01H7.029a.642.642 0 1 1 0-1.285h11.26V8.347c0-.52.587-.825 1.012-.525l2.345 1.653zm-3.219 4.648c.307.178.412.57.235.877A9.999 9.999 0 0 1 10 20C4.473 20 0 15.527 0 10S4.473 0 10 0c3.687 0 6.927 2 8.662 5a.642.642 0 0 1-1.112.642A8.714 8.714 0 0 0 10 1.284c-4.806 0-8.716 3.91-8.716 8.716 0 4.806 3.91 8.716 8.716 8.716a8.714 8.714 0 0 0 7.55-4.359.642.642 0 0 1 .877-.234z"/></svg>