<svg xmlns="http://www.w3.org/2000/svg" width="13" height="14" viewBox="0 0 13 14"><path d="M12.088 8.629l-1.066-1.036-4.8-4.659a2.311 2.311 0 0 0-3.194.006 2.151 2.151 0 0 0-.006 3.1l4.8 4.66a.512.512 0 0 0 .71 0 .478.478 0 0 0 0-.69L3.735 5.35a1.195 1.195 0 0 1 0-1.726 1.284 1.284 0 0 1 1.777 0l4.8 4.66 1.067 1.035a2.152 2.152 0 0 1 0 3.107 2.312 2.312 0 0 1-3.2 0l-.89-.864L2.312 6.73l-.355-.345a3.107 3.107 0 0 1 .035-4.452 3.339 3.339 0 0 1 4.587-.034l5.332 5.177a.513.513 0 0 0 .486.126.496.496 0 0 0 .355-.345.479.479 0 0 0-.13-.472L7.29 1.208c-1.67-1.613-4.371-1.61-6.037.007a4.063 4.063 0 0 0-.007 5.86l5.333 5.177.89.863a3.34 3.34 0 0 0 4.575-.045 3.107 3.107 0 0 0 .045-4.441z"/></svg>