<svg xmlns="http://www.w3.org/2000/svg" width="30" height="30" viewBox="0 0 30 30"><path fill="#FFF" fill-rule="evenodd" stroke="#FFF" d="M15 .5C6.992.5.5 6.992.5 15S6.992 29.5 15 29.5 29.5 23.008 29.5 15 23.008.5 15 .5zm9.445 15.73c.215.21.383.49.417.76.085.663-.002 1.257-.303 1.711a1.457 1.457 0 0 1-.849.59c-.2.052-.432.078-.691.078-1.294 0-3.255-.61-4.893-1.504a42.319 42.319 0 0 0-6.154 1.462C10.112 22.542 8.73 24 7.36 24a1.85 1.85 0 0 1-.84-.202l-.477-.24c-.472-.27-.618-.8-.511-1.321.21-1.032 1.357-2.205 3.06-3.222.155-.093.636-.352 1.05-.57l.342-.18a57.84 57.84 0 0 0 1.419-2.623l.068-.133c.814-1.595 1.19-2.37 1.575-3.308l.105-.257c-.756-2.92-.973-4.611-.628-5.884.182-.651.832-1.06 1.595-1.06h.014l.249.01c.673-.03 1.166.406 1.446 1.05l.057.15c.055.16.074.235.098.412.063.457.027 1.193-.081 2.16a48.216 48.216 0 0 1-.355 2.455l-.058.243c.515 1.35 1.315 2.57 2.259 3.452.27.252.596.476 1.113.78a20.233 20.233 0 0 1 2.818-.195c1.36.018 2.28.234 2.767.713zM7.583 22.81c.206-.564 1.059-1.623 2.089-2.467.079-.064.233-.207.463-.426l-.344-.362-.424-.266c-1.088 1.736-1.914 2.647-2.46 2.894l.676.627zm6.559-16.27a.283.283 0 0 1 .006.01zm-.917 10.436a30.628 30.628 0 0 1 2.658-.717 10.344 10.344 0 0 1-1.46-1.742 28.893 28.893 0 0 1-1.198 2.46zm10.252.378c.001 0-.224.035-.374.035-.507 0-1.164-.21-2.446-.759l-.197.46.037.498a16.14 16.14 0 0 1 1.178-.048h.033c.409 0 .535.003.694.018.18.018.367.054.667.13.178.046.254.093.259.1-.068-.11-.046-.312.149-.434zm0 0h0s0 0 0 0z"/></svg>