<svg xmlns="http://www.w3.org/2000/svg" width="25" height="25" viewBox="0 0 25 25"><path d="M12.5 24C18.851 24 24 18.851 24 12.5S18.851 1 12.5 1 1 6.149 1 12.5 6.149 24 12.5 24zm0 1C5.596 25 0 19.404 0 12.5S5.596 0 12.5 0 25 5.596 25 12.5 19.404 25 12.5 25zM10.54 6.936a1.45 1.45 0 0 0 0 1.464l2.563 4.442a1.45 1.45 0 0 0 1.268.732 1.45 1.45 0 0 0 1.268-.732L18.204 8.4a1.45 1.45 0 0 0 0-1.464 1.447 1.447 0 0 0-1.02-.711.804.804 0 1 1 .02-.804 2.236 2.236 0 0 1 1.69 1.116 2.239 2.239 0 0 1 0 2.262l-2.563 4.442c-.341.59-.908.982-1.56 1.096v1.07c0 2.533-1.403 4.593-3.834 4.593-2.432 0-4.341-2.06-4.341-4.593V15A1.998 1.998 0 0 1 5 13.045c0-1.1.895-1.995 1.995-1.995s1.995.895 1.995 1.995A2 2 0 0 1 7.394 15v.407c0 2.092 1.726 3.795 3.543 3.795 1.816 0 3.035-1.703 3.035-3.795v-1.07a2.235 2.235 0 0 1-1.56-1.096L9.848 8.799a2.24 2.24 0 0 1 0-2.262 2.236 2.236 0 0 1 1.675-1.114.805.805 0 1 1 .023.804 1.447 1.447 0 0 0-1.007.71z"/></svg>