<svg xmlns="http://www.w3.org/2000/svg" width="1706.667" height="1286.667" viewBox="0 0 1280 965" preserveAspectRatio="xMidYMid meet" xmlns:v="https://vecta.io/nano"><path d="M0 482.5V965h640 640V482.5 0H640 0v482.5zM1134.9 89.4L791.2 435.2C682.1 544.7 676.6 550.1 669.7 553.5c-18.3 9-43.4 8-59.6-2.5-5-3.1-52.8-51.2-298-299.5L167.6 105.2 151.5 89h491.9l491.5.4zM251.4 317.2l160.8 163.3c0 .6-313.7 322-320.6 328.4l-2.6 2.4V482.6l.8-328.4c.5.1 73.2 73.5 161.6 163zM1191 485.6l-.9 324.2c-.4-.2-72.7-73.9-160.5-163.7L869.9 482.6l77.3-77.5L1190.7 161c.2 0 .3 146.1.3 324.6zM553 620.2c27.8 20.3 59 29.8 94.2 28.5 23.7-.8 43.9-5.8 63.1-15.6 17.6-9 24-14.4 61.6-51.6l35.4-35.2 160.9 164.6L1129 875.5l-488.2.3c-268.5.1-488.3 0-488.6-.2-.2-.3 4.3-5.2 10-11L324 699l151.5-155 35 35.3c19.9 20.1 38.2 37.7 42.5 40.9z"/></svg>