<svg xmlns="http://www.w3.org/2000/svg" width="30" height="17" viewBox="0 0 30 17"><path d="M15.556 0a3.563 3.563 0 0 1 3.558 3.56v3.058h-8.082V3.559A3.563 3.563 0 0 1 14.591 0h.965zm10.393 0a3.563 3.563 0 0 1 3.558 3.56v3.058h-8.081V3.559A3.563 3.563 0 0 1 24.984 0h.965zM30 11.74h-3.655v3.502H30V17H0v-1.758h4.014V11.74H0V8.376h30v3.364zm-15.806 3.502V11.74h-3.83v-1.633h-.945v1.633H5.77v3.502h8.423zm10.394 0V11.74h-3.83v-1.633h-.975v1.633h-3.83v3.502h8.635zM5.192 0A3.563 3.563 0 0 1 8.75 3.56v3.058H.669V3.559A3.563 3.563 0 0 1 4.227 0h.965z"/></svg>