<svg xmlns="http://www.w3.org/2000/svg" width="24" height="16" viewBox="0 0 24 16"><path d="M15.236 11.196c.05.066.05.157-.001.223l-3.453 4.509a.182.182 0 0 1-.29 0l-3.454-4.509a.184.184 0 0 1-.001-.223.182.182 0 0 1 .214-.06l2.286.906V6.73c0-.102.082-.184.183-.184h1.833c.1 0 .183.082.183.184v5.314l2.286-.906a.182.182 0 0 1 .214.06zM10.513.008C-1.516.232-.079 6.011.197 6.86.492 8.3 1.631 9.023 2.786 8.614l2.197-.668C6.167 7.527 6.92 5.964 6.66 4.454l-.049-.286c3.996-1.097 7.442-.815 10.131-.09l-.021.123c-.257 1.51.493 3.073 1.677 3.492l2.198.89c.993.351 1.973-.326 2.417-1.408l.009.008s.06-.146.122-.395l.014-.06.03-.145.02-.085-.002-.002c.32-1.84-.011-6.723-12.693-6.488z"/></svg>