<?xml version="1.0" encoding="UTF-8" standalone="no"?>
<svg
   xmlns:dc="http://purl.org/dc/elements/1.1/"
   xmlns:cc="http://creativecommons.org/ns#"
   xmlns:rdf="http://www.w3.org/1999/02/22-rdf-syntax-ns#"
   xmlns:svg="http://www.w3.org/2000/svg"
   xmlns="http://www.w3.org/2000/svg"
   id="svg4"
   version="1.1"
   viewBox="0 0 20 20"
   height="20"
   width="20">
  <metadata
     id="metadata10">
    <rdf:RDF>
      <cc:Work
         rdf:about="">
        <dc:format>image/svg+xml</dc:format>
        <dc:type
           rdf:resource="http://purl.org/dc/dcmitype/StillImage" />
        <dc:title></dc:title>
      </cc:Work>
    </rdf:RDF>
  </metadata>
  <defs
     id="defs8" />
  <path
     d="m 15.036662,12.854015 c -0.388491,-0.404119 -0.856243,-0.620693 -1.351904,-0.620693 -0.492313,0 -0.964531,0.212108 -1.368651,0.616228 l -1.264829,1.26148 c -0.103822,-0.05693 -0.207642,-0.109403 -0.308114,-0.160755 A 5.7693182,5.7693182 0 0 1 10.346858,13.738168 C 9.1635224,12.985745 8.0862407,12.005586 7.053613,10.737408 6.5534863,10.104436 6.2174635,9.5730504 5.9740978,9.0327354 6.302306,8.7313196 6.6059552,8.419857 6.9017885,8.1195583 L 7.2378113,7.7801861 c 0.8406147,-0.8406147 0.8406147,-1.9290604 0,-2.7685579 L 6.1460171,3.9187171 C 6.0221011,3.7948021 5.8937207,3.6664206 5.7742711,3.5391563 A 18.959042,18.959042 0 0 0 5.0218483,2.7945482 C 4.6333567,2.4105231 4.1689535,2.2062299 3.6811072,2.2062299 c -0.4878474,0 -0.9600643,0.2042932 -1.3608359,0.5883183 l -0.00777,0.00777 -1.35971872,1.373116 A 2.9270805,2.9270805 0 0 0 0.0842633,6.0352754 C -0.01174323,7.2040972 0.33209433,8.292543 0.59666982,9.0047772 1.2441553,10.752988 2.2131514,12.373933 3.6565967,14.109864 A 18.829545,18.829545 0 0 0 9.927158,19.01959 c 0.919876,0.435377 2.148982,0.952249 3.520981,1.040442 0.08373,0.0033 0.17192,0.0078 0.252297,0.0078 0.924341,0 1.700207,-0.331556 2.30862,-0.992438 0.0045,-0.0078 0.01116,-0.01116 0.01563,-0.0201 0.208759,-0.252295 0.448774,-0.480032 0.701071,-0.724513 0.171918,-0.164105 0.347185,-0.334907 0.520221,-0.515756 0.395189,-0.413051 0.602831,-0.893084 0.602831,-1.384279 0,-0.496778 -0.212107,-0.972345 -0.615111,-1.373116 z M 9.8337087,4.26905 9.6436276,5.7472321 C 11.908083,6.040224 13.712733,7.7668387 14.106484,10.015963 L 15.574556,9.7591519 C 15.069334,6.8733033 12.739228,4.6449876 9.8337087,4.26905 Z M 10.280601,0.20253269 10.021767,1.6706041 c 4.162066,0.7365952 7.463403,3.9102363 8.363559,8.0400164 L 19.841264,9.393145 C 18.813274,4.6768772 15.03374,1.0437349 10.280601,0.20253269 Z"
     style="stroke-width:1.11635411;fill:#ffffff"
     id="path4774" />
</svg>
