<?xml version="1.0" encoding="UTF-8" standalone="no"?>
<svg
   xmlns:dc="http://purl.org/dc/elements/1.1/"
   xmlns:cc="http://creativecommons.org/ns#"
   xmlns:rdf="http://www.w3.org/1999/02/22-rdf-syntax-ns#"
   xmlns:svg="http://www.w3.org/2000/svg"
   xmlns="http://www.w3.org/2000/svg"
   xmlns:sodipodi="http://sodipodi.sourceforge.net/DTD/sodipodi-0.dtd"
   xmlns:inkscape="http://www.inkscape.org/namespaces/inkscape"
   aria-hidden="true"
   focusable="false"
   data-prefix="fas"
   data-icon="question-circle"
   class="svg-inline--fa fa-question-circle fa-w-16"
   role="img"
   viewBox="0 0 30 30"
   version="1.1"
   id="svg4"
   sodipodi:docname="self-check.svg"
   width="30"
   height="30"
   inkscape:version="0.92.4 (5da689c313, 2019-01-14)">
  <metadata
     id="metadata10">
    <rdf:RDF>
      <cc:Work
         rdf:about="">
        <dc:format>image/svg+xml</dc:format>
        <dc:type
           rdf:resource="http://purl.org/dc/dcmitype/StillImage" />
        <dc:title />
      </cc:Work>
    </rdf:RDF>
  </metadata>
  <defs
     id="defs8">
	
	
</defs>
  <sodipodi:namedview
     pagecolor="#ffffff"
     bordercolor="#666666"
     borderopacity="1"
     objecttolerance="10"
     gridtolerance="10"
     guidetolerance="10"
     inkscape:pageopacity="0"
     inkscape:pageshadow="2"
     inkscape:window-width="1926"
     inkscape:window-height="1682"
     id="namedview6"
     showgrid="false"
     inkscape:zoom="2.3907491"
     inkscape:cx="-51.839816"
     inkscape:cy="85.785562"
     inkscape:window-x="923"
     inkscape:window-y="529"
     inkscape:window-maximized="0"
     inkscape:current-layer="svg4" />
  <path
     style="fill:none;stroke:#000000;stroke-width:2.75505614;stroke-linecap:butt;stroke-linejoin:miter;stroke-miterlimit:4;stroke-dasharray:none;stroke-opacity:1"
     d="m 19.48966,15.387192 3.252682,2.288924 5.541607,-9.0352293"
     id="path867"
     inkscape:connector-curvature="0"
     sodipodi:nodetypes="ccc" />
  <style
     id="style844"
     type="text/css">
	.st0{fill:#E0995E;}
	.st1{opacity:0.2;}
	.st2{fill:#231F20;}
	.st3{fill:#4F5D73;}
	.st4{fill:none;stroke:#FFFFFF;stroke-width:3;stroke-linecap:round;stroke-miterlimit:10;}
	.st5{fill:none;stroke:#E0E0D1;stroke-width:3;stroke-linecap:round;stroke-miterlimit:10;}
	.st6{fill:none;stroke:#F5CF87;stroke-width:3;stroke-linecap:round;stroke-miterlimit:10;}
</style>
  <circle
     style="fill:#e0995e"
     class="st0"
     cx="-58.559052"
     cy="183.0901"
     r="32"
     id="circle846" />
  <g
     style="opacity:0.2"
     class="st1"
     id="g856"
     transform="translate(-90.559053,151.0901)">
	<path
   style="fill:#231f20"
   inkscape:connector-curvature="0"
   class="st2"
   d="M 33.9,12.2 C 33.6,12.1 33.3,12 33,12 c -0.4,0 -0.9,0.1 -1.2,0.4 L 17.3,24 H 12 c -1.1,0 -2,0.9 -2,2 v 16 c 0,1.1 0.9,2 2,2 h 5.3 l 14.5,11.6 c 0.4,0.3 0.8,0.4 1.2,0.4 0.3,0 0.6,-0.1 0.9,-0.2 0.7,-0.3 1.1,-1 1.1,-1.8 V 14 c 0,-0.8 -0.4,-1.5 -1.1,-1.8 z"
   id="path848-9" />

	<path
   style="fill:#231f20"
   inkscape:connector-curvature="0"
   class="st2"
   d="m 38,36.8 c -0.7,0.5 -0.8,1.4 -0.3,2.1 0.3,0.4 0.8,0.6 1.2,0.6 0.3,0 0.6,-0.1 0.9,-0.3 1.7,-1.2 2.7,-3.2 2.7,-5.3 0,-2.1 -1,-4 -2.7,-5.3 -0.7,-0.5 -1.6,-0.3 -2.1,0.3 -0.5,0.7 -0.3,1.6 0.3,2.1 0.9,0.7 1.5,1.7 1.5,2.8 0,1.1 -0.5,2.4 -1.5,3 z"
   id="path850" />

	<path
   style="fill:#231f20"
   inkscape:connector-curvature="0"
   class="st2"
   d="m 38.5,43.2 c -0.8,0.2 -1.3,1 -1,1.8 0.2,0.7 0.8,1.1 1.4,1.1 0.1,0 0.3,0 0.4,-0.1 5.4,-1.5 9.2,-6.4 9.2,-12 0,-5.6 -3.8,-10.6 -9.2,-12 -0.8,-0.2 -1.6,0.3 -1.8,1 -0.2,0.8 0.3,1.6 1,1.8 4.1,1.1 7,4.9 7,9.2 0,4.3 -2.9,8 -7,9.2 z"
   id="path852-2" />

	<path
   style="fill:#231f20"
   inkscape:connector-curvature="0"
   class="st2"
   d="m 39.2,15.8 c -0.8,-0.1 -1.6,0.4 -1.7,1.2 -0.1,0.8 0.4,1.6 1.2,1.7 7.4,1.3 12.8,7.7 12.8,15.3 0,7.6 -5.4,14 -12.8,15.3 -0.8,0.1 -1.4,0.9 -1.2,1.7 0.1,0.7 0.8,1.2 1.5,1.2 0.1,0 0.2,0 0.3,0 C 48.1,50.7 54.5,43 54.5,34 54.5,25 48.1,17.3 39.2,15.8 Z"
   id="path854" />

</g>
  <g
     id="g922"
     transform="matrix(0.53987564,0,0,0.6019869,35.071853,-22.158076)">
    <path
       id="path858"
       d="m -41.573058,70.20748 c 0,1.1 -0.9,2 -2,2 h -17 c -1.1,0 -2,-0.9 -2,-2 v -16 c 0,-1.1 0.9,-2 2,-2 h 17 c 1.1,0 2,0.9 2,2 z"
       class="st3"
       inkscape:connector-curvature="0"
       style="fill:#101318;fill-opacity:1" />
    <path
       sodipodi:nodetypes="scsssscscsscs"
       style="fill:#101318;fill-opacity:1"
       inkscape:connector-curvature="0"
       class="st3"
       d="m -39.573058,40.20748 c -0.4,0 -0.9,0.1 -1.2,0.4 l -15,12 c -0.5,0.4 -0.8,1 -0.8,1.6 v 16 c 0,0.6 0.3,1.2 0.8,1.6 l 15,12 c 0.4,0.3 0.8,0.4 1.2,0.4 0.3,0 0.6,-0.1 0.9,-0.2 0.7,-0.3 1.1,-1 1.1,-1.8 v -40 c 0,-0.8 -0.4,-1.5 -1.1,-1.8 -0.3,-0.1 -0.6,-0.2 -0.9,-0.2 z"
       id="path862" />
  </g>
  <path
     style="fill:none;stroke:#ffffff;stroke-width:3;stroke-linecap:round;stroke-miterlimit:10"
     inkscape:connector-curvature="0"
     class="st4"
     d="m -51.659053,187.0901 c 1.3,-0.9 2.1,-2.4 2.1,-4 0,-1.6 -0.8,-3.1 -2.1,-4"
     id="path866" />
  <path
     style="fill:none;stroke:#e0e0d1;stroke-width:3;stroke-linecap:round;stroke-miterlimit:10"
     inkscape:connector-curvature="0"
     class="st5"
     d="m -51.659053,193.6901 c 4.7,-1.3 8.1,-5.5 8.1,-10.6 0,-5.1 -3.4,-9.3 -8.1,-10.6"
     id="path868" />
  <path
     style="fill:none;stroke:#f5cf87;stroke-width:3;stroke-linecap:round;stroke-miterlimit:10"
     inkscape:connector-curvature="0"
     class="st6"
     d="m -51.659053,199.7901 c 8,-1.4 14.1,-8.3 14.1,-16.7 0,-8.4 -6.1,-15.3 -14.1,-16.7"
     id="path870" />
  <circle
     style="opacity:1;fill:none;fill-opacity:1;stroke:#000000;stroke-width:1.86300004;stroke-linecap:round;stroke-linejoin:round;stroke-miterlimit:4;stroke-dasharray:none;stroke-dashoffset:0;stroke-opacity:1;paint-order:markers stroke fill"
     id="path924"
     cx="22.330477"
     cy="16.320738"
     r="5.7006617" />
</svg>
