<?xml version="1.0" encoding="utf-8"?>
<!-- Generator: Adobe Illustrator 19.0.0, SVG Export Plug-In . SVG Version: 6.00 Build 0)  -->
<svg version="1.1" id="Layer_1" xmlns="http://www.w3.org/2000/svg" xmlns:xlink="http://www.w3.org/1999/xlink" x="0px" y="0px"
	 viewBox="0 0 512 512" style="enable-background:new 0 0 512 512;" xml:space="preserve">
<g id="XMLID_2_">
	<path id="XMLID_8_" d="M452.5,380.1l42.7,42.7H512v-42.7C512,380.1,452.5,380.1,452.5,380.1z M469.3,337.3V124.5
		c0-23.2-19.5-42.7-42.7-42.7H154.3l111.5,111.5c3.7-0.9,7.4-1.9,12.1-1.9v-45.5l85.5,79l-34.4,31.6l118,118
		C460,367,469.3,353.1,469.3,337.3z M52,32.5L24.2,59.5L56.7,92c-8.4,7.4-13.9,18.6-13.9,31.6v212.8c0,23.2,18.6,42.7,42.7,42.7H0
		v42.7h386.6l57.6,57.6l26.9-26.9L52,32.5z M149.6,315.9c6.5-31.6,19.5-63.2,43.7-86.4l33.5,33.5C195.1,271.3,170,288.1,149.6,315.9
		z"/>
</g>
</svg>
