<?xml version="1.0" standalone="no"?>
<!DOCTYPE svg PUBLIC "-//W3C//DTD SVG 20010904//EN"
 "http://www.w3.org/TR/2001/REC-SVG-20010904/DTD/svg10.dtd">
<svg version="1.0" xmlns="http://www.w3.org/2000/svg"
 width="720.000000pt" height="720.000000pt" viewBox="0 0 720.000000 720.000000"
 preserveAspectRatio="xMidYMid meet">
<metadata>
Created by potrace 1.11, written by Peter Selinger 2001-2013
</metadata>
<g transform="translate(0.000000,720.000000) scale(0.100000,-0.100000)"
fill="#000000" stroke="none">
<path d="M3299 7196 c-2 -2 -42 -7 -89 -10 -47 -4 -94 -9 -105 -11 -11 -2 -42
-7 -70 -10 -79 -10 -253 -45 -330 -66 -38 -11 -80 -22 -92 -25 -92 -19 -421
-162 -555 -241 -137 -81 -272 -187 -399 -313 -182 -181 -319 -381 -427 -626
-60 -137 -129 -371 -147 -504 -3 -19 -8 -42 -11 -51 -2 -9 -7 -36 -10 -60 -2
-24 -6 -57 -9 -74 -4 -29 -15 -319 -16 -440 -1 -71 10 -315 16 -365 9 -77 16
-126 21 -150 3 -14 8 -43 11 -65 2 -21 7 -44 11 -49 3 -6 7 -17 8 -26 1 -8 4
-27 8 -42 3 -16 8 -39 11 -53 10 -46 82 -250 116 -325 58 -130 164 -312 211
-364 10 -11 18 -23 18 -26 0 -4 8 -16 17 -27 10 -11 36 -42 58 -68 52 -62 159
-169 219 -220 26 -22 55 -47 64 -56 68 -65 396 -254 547 -316 41 -17 207 -74
225 -78 8 -2 15 -4 15 -5 0 -1 7 -3 15 -5 45 -12 107 -27 120 -30 8 -2 16 -4
18 -5 3 -3 7 -4 72 -18 85 -18 218 -40 290 -47 36 -3 76 -8 90 -10 21 -4 303
-18 335 -17 56 1 331 13 370 16 107 9 316 40 460 70 79 16 291 76 340 95 11 5
65 26 120 46 107 41 334 148 400 190 22 14 47 28 55 32 19 8 198 126 223 147
18 14 13 22 -84 143 -57 70 -109 134 -116 141 -7 8 -18 22 -23 33 -15 26 -23
25 -90 -21 -32 -22 -62 -40 -65 -40 -4 0 -19 -8 -33 -19 -142 -99 -586 -279
-782 -317 -14 -3 -50 -11 -80 -19 -46 -11 -167 -31 -307 -50 -243 -34 -674
-21 -928 25 -33 7 -69 13 -81 15 -39 6 -210 55 -279 80 -38 15 -79 29 -89 32
-11 3 -62 27 -115 53 -344 168 -590 412 -751 745 -80 164 -125 308 -161 510
-9 55 -13 84 -24 200 -11 117 -5 580 10 680 2 17 7 53 10 80 10 79 63 289 96
377 98 267 269 514 469 680 82 67 123 98 130 98 4 0 20 11 35 24 69 59 381
201 513 233 6 2 20 5 30 7 9 3 18 5 20 6 3 3 10 5 57 15 22 5 42 10 45 10 9 2
84 17 102 21 9 1 38 5 65 9 26 4 59 9 73 11 54 9 231 18 355 18 143 -1 361
-10 373 -17 4 -3 39 -8 77 -11 39 -4 79 -9 90 -11 31 -7 78 -16 102 -20 11 -2
30 -6 42 -10 11 -3 33 -8 47 -11 35 -6 227 -70 273 -91 240 -106 408 -229 544
-397 54 -66 147 -219 147 -241 0 -7 4 -16 9 -19 13 -9 69 -173 87 -261 33
-151 38 -215 38 -460 0 -197 -7 -334 -20 -415 -12 -80 -23 -128 -41 -185 -70
-231 -188 -361 -398 -437 -72 -27 -226 -56 -332 -64 l-93 -6 0 33 c-3 179 2
1196 5 1234 4 47 13 191 20 315 1 30 6 97 10 148 4 50 3 93 -2 93 -4 1 -122 2
-261 3 -253 1 -269 -1 -270 -34 0 -8 -2 -28 -6 -45 -3 -16 -9 -43 -12 -60 -3
-16 -7 -37 -9 -45 -2 -8 -7 -36 -11 -62 -3 -27 -9 -48 -13 -47 -3 0 -25 25
-49 55 -80 100 -212 195 -342 243 -180 67 -447 75 -650 19 -356 -97 -589 -381
-660 -803 -28 -171 -28 -523 0 -680 6 -33 12 -69 14 -81 2 -11 6 -25 9 -31 3
-5 8 -20 11 -34 13 -68 89 -249 108 -257 4 -2 8 -9 8 -16 0 -36 154 -204 241
-264 61 -42 159 -92 179 -92 9 0 20 -4 26 -9 5 -5 50 -19 99 -32 133 -33 397
-33 513 0 18 5 36 10 40 10 21 2 108 36 150 58 110 58 204 135 266 216 16 20
31 37 35 37 4 0 17 -55 30 -122 12 -68 25 -133 28 -145 l5 -21 331 3 c183 2
352 6 377 10 25 3 60 8 78 11 178 24 285 55 452 131 127 58 306 216 389 343
68 106 148 290 165 382 2 15 7 31 9 35 3 5 8 26 11 48 4 22 11 65 16 95 18
110 21 137 26 270 8 189 2 451 -11 531 -3 20 -7 51 -9 71 -2 19 -6 43 -9 54
-3 10 -8 35 -11 54 -6 38 -55 208 -81 280 -48 130 -181 354 -277 464 -76 87
-172 177 -258 242 -184 139 -446 270 -665 334 -22 6 -49 15 -60 19 -40 17
-315 74 -410 86 -50 6 -92 11 -175 21 -51 6 -566 15 -571 10z m186 -1696 c71
-15 174 -61 230 -103 22 -17 66 -57 98 -89 l57 -59 0 -425 0 -425 -67 -67
c-147 -146 -267 -197 -463 -195 -69 1 -91 3 -160 17 -45 10 -146 67 -185 104
-21 20 -49 55 -64 77 -30 47 -62 115 -54 115 3 0 1 6 -5 13 -11 14 -23 65 -38
162 -13 89 -7 368 11 465 23 122 68 214 144 292 69 69 161 110 296 131 40 6
142 0 200 -13z"/>
<path d="M2695 1627 c-77 -8 -151 -30 -205 -60 -60 -34 -110 -72 -110 -84 0
-7 -3 -13 -8 -13 -12 0 -67 -91 -91 -152 -27 -66 -40 -116 -47 -178 -3 -25 -9
-63 -13 -85 -9 -50 -6 -414 4 -475 4 -25 8 -54 10 -65 7 -52 40 -156 67 -213
107 -221 355 -312 678 -247 14 2 57 21 97 40 151 75 247 238 278 475 10 75 11
430 1 510 -23 191 -76 321 -171 416 -45 46 -134 98 -189 111 -116 27 -192 32
-301 20z m154 -231 c24 -3 63 -17 87 -31 87 -51 125 -135 150 -330 5 -41 5
-371 0 -415 -27 -215 -91 -316 -220 -345 -28 -6 -73 -10 -101 -8 -165 11 -248
125 -271 373 -7 83 -8 348 0 395 2 17 7 50 11 75 24 165 105 268 225 285 25 4
47 8 48 10 2 2 9 2 15 0 7 -2 32 -6 56 -9z"/>
<path d="M852 835 l0 -775 134 0 134 0 1 28 c0 15 0 74 -1 132 0 58 -1 112 0
120 0 8 0 42 -1 75 0 33 0 67 0 75 0 8 1 66 1 127 1 80 4 113 13 114 32 3 494
4 507 1 13 -3 15 -47 12 -338 l-3 -334 136 0 136 0 -1 38 c0 20 0 44 1 52 0 8
-1 38 -1 65 -1 28 -1 55 0 60 1 6 2 14 0 20 -6 30 -4 95 3 95 5 0 5 4 2 10 -6
9 -9 94 -5 115 1 6 2 14 0 20 -6 30 -4 95 3 95 5 0 5 5 2 11 -6 9 -10 248 -5
274 1 6 1 15 0 20 -1 6 -1 28 -1 50 2 44 2 50 0 115 0 25 0 50 1 55 1 6 1 15
0 20 -1 6 -1 28 -1 50 2 55 2 51 -1 133 -2 39 0 72 4 72 4 0 3 12 -1 28 -5 15
-5 36 -1 47 4 11 5 24 2 30 -3 5 -6 23 -6 40 l-1 30 -132 1 -133 2 0 -322 0
-321 -269 0 c-148 0 -267 4 -264 8 3 5 4 76 4 158 -1 82 -2 156 -1 164 0 8 0
32 1 53 0 20 0 55 0 77 -1 22 -1 60 0 85 0 25 0 57 0 71 l-1 26 -134 2 -134 1
0 -775z"/>
<path d="M3665 1601 c-2 -4 -4 -352 -4 -774 l0 -767 136 0 135 0 -4 530 c-1
292 -2 530 -2 530 1 0 38 -112 39 -120 1 -3 9 -32 20 -65 10 -33 19 -64 21
-70 1 -5 17 -55 34 -110 18 -55 38 -120 45 -145 7 -25 32 -106 55 -180 23 -74
58 -188 77 -253 l36 -118 136 3 135 3 28 90 c28 86 33 104 42 142 3 10 14 45
24 78 11 33 32 101 47 150 15 50 34 110 42 135 13 40 109 353 134 438 6 17 11
32 13 32 2 0 2 -26 0 -57 -2 -47 -7 -955 -5 -1000 1 -10 35 -13 134 -13 l133
0 -1 773 0 772 -196 2 -196 2 -22 -72 c-13 -40 -32 -101 -44 -137 -11 -36 -22
-71 -23 -77 -1 -7 -18 -64 -38 -125 -19 -62 -72 -232 -116 -378 -45 -146 -84
-272 -87 -280 -5 -13 -21 24 -37 85 -1 6 -10 36 -20 67 -10 32 -16 59 -15 60
1 2 -3 13 -10 26 -7 13 -14 31 -16 40 -2 9 -29 100 -60 202 -79 257 -147 483
-150 495 -1 6 -5 17 -8 25 -4 8 -11 27 -16 42 l-10 26 -191 0 c-105 -1 -192
-4 -195 -7z"/>
<path d="M5449 1607 c-1 -1 -2 -350 -3 -774 l-2 -773 463 0 463 0 1 28 c0 15
1 66 2 115 l2 87 -35 0 c-19 1 -169 1 -332 1 l-297 1 0 218 c0 158 4 220 12
222 7 2 132 4 280 3 l267 0 1 25 c1 37 1 183 0 195 -1 6 -98 10 -272 10 -149
0 -275 2 -279 5 -5 3 -8 95 -7 205 l2 200 328 0 327 0 1 30 c1 43 1 156 0 182
l-1 21 -460 0 c-253 0 -461 0 -461 -1z"/>
</g>
</svg>
